<svg xmlns="http://www.w3.org/2000/svg" xmlns:xlink="http://www.w3.org/1999/xlink" width="60" height="60" viewBox="0 0 60 60">
  <defs>
    <linearGradient id="linear-gradient" x1="0.5" x2="0.5" y2="1" gradientUnits="objectBoundingBox">
      <stop offset="0" stop-color="#6c87fc"/>
      <stop offset="1" stop-color="#425cfa"/>
    </linearGradient>
    <linearGradient id="linear-gradient-2" x1="0.5" x2="0.5" y2="1" gradientUnits="objectBoundingBox">
      <stop offset="0" stop-color="#4157a1"/>
      <stop offset="1" stop-color="#4090ec"/>
    </linearGradient>
    <clipPath id="clip-path">
      <ellipse id="Ellipse_234" data-name="Ellipse 234" cx="28.5" cy="29" rx="28.5" ry="29" transform="translate(0.08 -0.452)" fill="url(#linear-gradient)"/>
    </clipPath>
  </defs>
  <g id="Group_7167" data-name="Group 7167" transform="translate(-868.001 -250)">
    <g id="Group_7156" data-name="Group 7156" transform="translate(867.586 249.817)">
      <g id="Group_3616" data-name="Group 3616" transform="translate(0 0)">
        <circle id="Ellipse_213" data-name="Ellipse 213" cx="30" cy="30" r="30" transform="translate(0.415 0.183)" fill="url(#linear-gradient-2)"/>
      </g>
      <g id="Mask_Group_55" data-name="Mask Group 55" transform="translate(1.835 1.835)" opacity="0.11" clip-path="url(#clip-path)">
        <path id="Union_18" data-name="Union 18" d="M31.409,46.27,14.86,62.818,0,47.958,16.548,31.409,0,14.861,14.86,0,31.409,16.549,47.958,0,62.819,14.861,46.27,31.409,62.819,47.958,47.958,62.818Z" transform="translate(-3.068 -2.759)" fill="#fff"/>
      </g>
    </g>
    <path id="noun_shaking_hands_89106" data-name="noun_shaking hands_89106" d="M40.077,25.045l-6.639-6.639a1.708,1.708,0,0,0-2.376,0L27.818,21.65,25.48,23.988,23.631,22.14l-.038-.038-.038-.038-3.282-3.282a1.776,1.776,0,0,0-2.49,0l-6.526,6.639a1.776,1.776,0,0,0,0,2.49l3.282,3.282.038.038.038.038,3.055,3.055-.113.113a.789.789,0,0,0-.151.226,1.639,1.639,0,0,0,0,2.339L22.8,42.4a1.724,1.724,0,0,0,1.169.49,1.655,1.655,0,0,0,1.169-.49l.3-.3.528.528.038.038a1.493,1.493,0,0,0,1.018.377,1.58,1.58,0,0,0,1.169-.528l5.356-5.356a1.67,1.67,0,0,0,.113-2.452l-.415-.415,3.621-3.621,3.244-3.244a1.745,1.745,0,0,0,.49-1.207A1.964,1.964,0,0,0,40.077,25.045ZM12.24,26.4l6.6-6.6a.365.365,0,0,1,.528,0l2.791,2.791-7.167,7.091L12.2,26.893A.357.357,0,0,1,12.24,26.4ZM23.933,41.491a.244.244,0,0,1-.189-.075l-5.394-5.394a.273.273,0,0,1,0-.377l.189-.189h0l.377-.377.868-.868.038-.038a.227.227,0,0,1,.151-.038.244.244,0,0,1,.189.075L25.555,39.6a.251.251,0,0,1,0,.377l-.641.641-.792.792A.244.244,0,0,1,23.933,41.491Zm8.6-5.356-5.356,5.394c-.113.113-.151.113-.189.113a.117.117,0,0,1-.075-.038l-.49-.49L26.536,41h0a.521.521,0,0,0,.113-.151l.113-.113a.139.139,0,0,0,.038-.113c.038-.075.075-.113.113-.189h0a1.709,1.709,0,0,0-.377-1.811l-5.394-5.432a1.641,1.641,0,0,0-.264-.226.139.139,0,0,0-.113-.038c-.075-.038-.113-.075-.189-.113-.038,0-.075-.038-.113-.038a.34.34,0,0,0-.189-.038h-.113c-.075,0-.151-.038-.226-.038H19.6a.545.545,0,0,0-.264.075h-.038a2.251,2.251,0,0,0-.566.339l-.113.113-2.6-2.6,7.129-7.016L24.5,24.969l-3.772,3.772a1.409,1.409,0,0,0,0,2.075L22.2,32.287a.789.789,0,0,0,.226.151,1.36,1.36,0,0,0,.754.226.736.736,0,0,0,.264-.038h.038a.536.536,0,0,0,.226-.075h.038l.226-.113a.037.037,0,0,0,.038-.038,1,1,0,0,0,.226-.189l2.452-2.452L32.5,35.569l.075.075C32.722,35.757,32.8,35.87,32.533,36.134Zm-.3-2.829-4.526-4.526.641-.641a.625.625,0,0,0,.189-.49.794.794,0,0,0-.189-.49.706.706,0,0,0-.981,0l-1.132,1.132-2.942,2.942c-.038.038-.075.038-.075.075h0l-1.471-1.471c-.038-.038-.038-.038-.038-.075s.038-.038.038-.075l6.6-6.6,3.923,3.923L35.4,30.137ZM39.1,26.44l-2.754,2.754-5.7-5.7L29.289,22.14l2.754-2.754a.277.277,0,0,1,.226-.075.319.319,0,0,1,.226.075l6.639,6.639a.277.277,0,0,1,.075.226C39.172,26.289,39.172,26.365,39.1,26.44Z" transform="translate(872.75 249.575)" fill="#fff" stroke="#fff" stroke-width="1"/>
  </g>
</svg>
