<svg xmlns="http://www.w3.org/2000/svg" xmlns:xlink="http://www.w3.org/1999/xlink" width="60" height="60" viewBox="0 0 60 60">
  <defs>
    <linearGradient id="linear-gradient" x1="0.5" x2="0.5" y2="1" gradientUnits="objectBoundingBox">
      <stop offset="0" stop-color="#6c87fc"/>
      <stop offset="1" stop-color="#425cfa"/>
    </linearGradient>
    <linearGradient id="linear-gradient-2" x1="0.5" x2="0.5" y2="1" gradientUnits="objectBoundingBox">
      <stop offset="0" stop-color="#926cfc"/>
      <stop offset="1" stop-color="#42c1fa"/>
    </linearGradient>
    <clipPath id="clip-path">
      <ellipse id="Ellipse_231" data-name="Ellipse 231" cx="28.5" cy="29" rx="28.5" ry="29" transform="translate(0.365 -0.452)" fill="url(#linear-gradient)"/>
    </clipPath>
  </defs>
  <g id="Group_7165" data-name="Group 7165" transform="translate(-349 -250)">
    <g id="Group_7158" data-name="Group 7158" transform="translate(349 249.817)">
      <circle id="Ellipse_230" data-name="Ellipse 230" cx="30" cy="30" r="30" transform="translate(0 0.183)" fill="url(#linear-gradient-2)"/>
      <g id="Mask_Group_53" data-name="Mask Group 53" transform="translate(1.635 1.635)" opacity="0.11" clip-path="url(#clip-path)">
        <path id="Union_16" data-name="Union 16" d="M31.409,46.27,14.86,62.818,0,47.958,16.548,31.409,0,14.861,14.86,0,31.409,16.549,47.958,0,62.819,14.861,46.27,31.409,62.819,47.958,47.958,62.818Z" transform="translate(-2.742 -2.759)" fill="#fff"/>
      </g>
    </g>
    <path id="Path_14704" data-name="Path 14704" d="M34.972,30.221l-1.532-.689-.46-.23a6.991,6.991,0,0,0,1.493-4.365c0-3.561-2.566-6.51-5.706-6.51s-5.706,2.91-5.706,6.51A6.991,6.991,0,0,0,24.557,29.3l-.46.23-1.532.689a4.184,4.184,0,0,0-.574.306,6.661,6.661,0,0,0-3.063-2.834L17.4,27l-.46-.23A6.991,6.991,0,0,0,18.43,22.41c0-3.561-2.566-6.51-5.706-6.51S6.9,18.772,6.9,22.371A6.991,6.991,0,0,0,8.4,26.737l-.46.23-1.532.689A6.648,6.648,0,0,0,2.5,33.706v2.719a3.113,3.113,0,0,0,3.1,3.1H18.659a3.114,3.114,0,0,0,3.025,2.566H35.776a3.113,3.113,0,0,0,3.1-3.1V36.272A6.648,6.648,0,0,0,34.972,30.221ZM28.73,20.5c1.991,0,3.638,1.991,3.638,4.4s-1.608,4.442-3.638,4.442-3.638-1.991-3.638-4.4S26.739,20.5,28.73,20.5ZM12.648,17.968c1.991,0,3.638,1.991,3.638,4.4s-1.647,4.4-3.638,4.4-3.638-1.991-3.638-4.4S10.618,17.968,12.648,17.968ZM4.568,36.425V33.706a4.648,4.648,0,0,1,2.68-4.174l1.532-.689a5.742,5.742,0,0,0,1.225-.728,5.127,5.127,0,0,0,2.6.728,5.023,5.023,0,0,0,2.6-.728,7.942,7.942,0,0,0,1.225.728l1.532.689a4.629,4.629,0,0,1,2.3,2.3,6.576,6.576,0,0,0-1.685,4.4v1.149H5.563A.957.957,0,0,1,4.568,36.425ZM36.81,38.952a1.014,1.014,0,0,1-1,1H21.685a1.014,1.014,0,0,1-1-1V36.233a4.648,4.648,0,0,1,2.68-4.174L24.9,31.37a5.742,5.742,0,0,0,1.225-.728,5.127,5.127,0,0,0,2.6.728,5.023,5.023,0,0,0,2.6-.728,7.943,7.943,0,0,0,1.225.728l1.532.689a4.543,4.543,0,0,1,2.68,4.174v2.719Z" transform="translate(358.5 251.1)" fill="#fff"/>
  </g>
</svg>
