<svg xmlns="http://www.w3.org/2000/svg" xmlns:xlink="http://www.w3.org/1999/xlink" width="60" height="60" viewBox="0 0 60 60">
  <defs>
    <linearGradient id="linear-gradient" x1="0.5" x2="0.5" y2="1" gradientUnits="objectBoundingBox">
      <stop offset="0" stop-color="#6c87fc"/>
      <stop offset="1" stop-color="#425cfa"/>
    </linearGradient>
    <linearGradient id="linear-gradient-2" x1="0.5" x2="0.5" y2="1" gradientUnits="objectBoundingBox">
      <stop offset="0" stop-color="#27669c"/>
      <stop offset="1" stop-color="#4698d1"/>
    </linearGradient>
    <clipPath id="clip-path">
      <ellipse id="Ellipse_234" data-name="Ellipse 234" cx="28.5" cy="29" rx="28.5" ry="29" transform="translate(-0.221 -0.452)" fill="url(#linear-gradient)"/>
    </clipPath>
  </defs>
  <g id="Group_7168" data-name="Group 7168" transform="translate(-1128 -250)">
    <g id="Group_7155" data-name="Group 7155" transform="translate(347 -3462)">
      <g id="Group_3618" data-name="Group 3618" transform="translate(780.585 3711.817)">
        <g id="Group_3616" data-name="Group 3616" transform="translate(0 0)">
          <circle id="Ellipse_213" data-name="Ellipse 213" cx="30" cy="30" r="30" transform="translate(0.415 0.183)" fill="url(#linear-gradient-2)"/>
        </g>
        <g id="Mask_Group_55" data-name="Mask Group 55" transform="translate(2.135 1.835)" opacity="0.11" clip-path="url(#clip-path)">
          <path id="Union_18" data-name="Union 18" d="M31.409,46.27,14.86,62.818,0,47.958,16.548,31.409,0,14.861,14.86,0,31.409,16.549,47.958,0,62.819,14.861,46.27,31.409,62.819,47.958,47.958,62.818Z" transform="translate(-3.068 -2.759)" fill="#fff"/>
        </g>
      </g>
    </g>
    <path id="Path_14705" data-name="Path 14705" d="M24.424,6.885H21.982A4.885,4.885,0,0,0,17.1,2H12.212A4.885,4.885,0,0,0,7.327,6.885H4.885A4.885,4.885,0,0,0,.061,11.122,2.442,2.442,0,0,0,0,11.648V23.982a2.442,2.442,0,0,0,2.442,2.442H26.867a2.442,2.442,0,0,0,2.442-2.442V11.648a2.443,2.443,0,0,0,0-.525A4.885,4.885,0,0,0,24.424,6.885ZM12.212,4.442H17.1a2.442,2.442,0,0,1,2.442,2.442H9.77A2.442,2.442,0,0,1,12.212,4.442ZM9.77,9.327H24.424a2.442,2.442,0,0,1,1.221.318l-9.9,4.689a2.54,2.54,0,0,1-2.174,0l-9.9-4.689a2.442,2.442,0,0,1,1.221-.318Zm17.1,14.655H2.442V11.77h0L12.469,16.52a4.885,4.885,0,0,0,4.274,0L26.867,11.77h0Z" transform="translate(1143 266)" fill="#fff"/>
  </g>
</svg>
