<svg xmlns="http://www.w3.org/2000/svg" width="37.088" height="17.901" viewBox="0 0 37.088 17.901">
  <g id="Group_281" data-name="Group 281" transform="translate(-1471.649 -5.65)">
    <ellipse id="Ellipse_30" data-name="Ellipse 30" cx="4.823" cy="4.824" rx="4.823" ry="4.824" transform="translate(1485.371 8)" fill="none" stroke="#fff" stroke-miterlimit="10" stroke-width="0.7"/>
    <path id="Path_44" data-name="Path 44" d="M-756.187,1011.3a9.462,9.462,0,0,0-6.194-2.3,9.463,9.463,0,0,0-6.194,2.3" transform="translate(2252.574 -988.099)" fill="none" stroke="#fff" stroke-linecap="round" stroke-linejoin="round" stroke-width="0.7"/>
    <ellipse id="Ellipse_30-2" data-name="Ellipse 30" cx="4.823" cy="4.824" rx="4.823" ry="4.824" transform="translate(1473.371 6)" fill="none" stroke="#fff" stroke-miterlimit="10" stroke-width="0.7"/>
    <path id="Path_44-2" data-name="Path 44" d="M-756.187,1011.3a9.462,9.462,0,0,0-6.194-2.3,9.463,9.463,0,0,0-6.194,2.3" transform="translate(2240.574 -990.099)" fill="none" stroke="#fff" stroke-linecap="round" stroke-linejoin="round" stroke-width="0.7"/>
    <ellipse id="Ellipse_30-3" data-name="Ellipse 30" cx="4.823" cy="4.824" rx="4.823" ry="4.824" transform="translate(1497.371 6)" fill="none" stroke="#fff" stroke-miterlimit="10" stroke-width="0.7"/>
    <path id="Path_44-3" data-name="Path 44" d="M-756.187,1011.3a9.462,9.462,0,0,0-6.194-2.3,9.463,9.463,0,0,0-6.194,2.3" transform="translate(2264.574 -990.099)" fill="none" stroke="#fff" stroke-linecap="round" stroke-linejoin="round" stroke-width="0.7"/>
  </g>
</svg>
