<svg xmlns="http://www.w3.org/2000/svg" xmlns:xlink="http://www.w3.org/1999/xlink" width="1366" height="619" viewBox="0 0 1366 619">
  <defs>
    <clipPath id="clip-path">
      <rect id="Rectangle_1374" data-name="Rectangle 1374" width="1366" height="619" fill="none" stroke="#707070" stroke-width="1"/>
    </clipPath>
    <clipPath id="clip-path-2">
      <rect id="Rectangle_1274" data-name="Rectangle 1274" width="1366" height="619" fill="none"/>
    </clipPath>
    <clipPath id="clip-path-3">
      <path id="Path_12911" data-name="Path 12911" d="M5427.5-1037.771c-490.644-69.676-563.224,74.033-908.7,74.033s-499.351-74.033-499.351-74.033v-692.288H5422.11Z" transform="matrix(0.999, 0.035, -0.035, 0.999, -4077.906, 1421.059)" fill="#28679c"/>
    </clipPath>
    <linearGradient id="linear-gradient" x1="-0.084" y1="-0.356" x2="1.45" y2="1.729" gradientUnits="objectBoundingBox">
      <stop offset="0" stop-color="#4698d1"/>
      <stop offset="1" stop-color="#773ad7"/>
    </linearGradient>
    <clipPath id="clip-path-4">
      <path id="Path_8185" data-name="Path 8185" d="M5427.5-1037.771c-490.644-69.676-563.224,74.033-908.7,74.033s-499.351-74.033-499.351-74.033v-692.288H5422.11Z" transform="translate(-4033.777 1572.726)" fill="#28679c"/>
    </clipPath>
    <clipPath id="clip-path-6">
      <rect id="Rectangle_1303" data-name="Rectangle 1303" width="1633" height="618" fill="#f5f9ff" opacity="0.5"/>
    </clipPath>
  </defs>
  <g id="Mask_Group_102" data-name="Mask Group 102" clip-path="url(#clip-path)">
    <g id="Group_6961" data-name="Group 6961">
      <g id="Mask_Group_78" data-name="Mask Group 78" clip-path="url(#clip-path-2)">
        <g id="Mask_Group_72" data-name="Mask Group 72" opacity="0.44" clip-path="url(#clip-path-3)">
          <rect id="Rectangle_1159" data-name="Rectangle 1159" width="1366.216" height="623.2" transform="translate(-0.348)" fill="url(#linear-gradient)"/>
        </g>
        <path id="Path_12909" data-name="Path 12909" d="M5427.5-1037.771c-490.644-69.676-563.224,74.033-908.7,74.033s-499.351-74.033-499.351-74.033v-692.288H5422.11Z" transform="translate(-4033.777 1572.726)" fill="#28679c"/>
        <g id="Mask_Group_71" data-name="Mask Group 71" clip-path="url(#clip-path-4)">
          <rect id="Rectangle_1158" data-name="Rectangle 1158" width="1366.216" height="623.2" transform="translate(-0.348)" fill="url(#linear-gradient)"/>
          <g id="Group_6668" data-name="Group 6668" transform="translate(-31)">
            <path id="Union_20" data-name="Union 20" d="M-924.364,386.791a173.064,173.064,0,0,1-116.41,44.794c-95.98,0-173.788-77.89-173.788-173.972A174.034,174.034,0,0,1-1095.389,92.406,172.61,172.61,0,0,1-949.672,12.415c93.518,0,169.683,74.381,172.7,167.282A130.739,130.739,0,0,1-695.437,300.88,130.624,130.624,0,0,1-825.979,431.585,130.156,130.156,0,0,1-924.364,386.791Z" transform="translate(2023 100)" fill="none" opacity="0.09"/>
          </g>
        </g>
      </g>
      <g id="Group_6960" data-name="Group 6960">
        <path id="Union_22" data-name="Union 22" d="M13.591,38v-.4a10.925,10.925,0,0,1-2.932.4,10.4,10.4,0,1,1,0-20.784,10.847,10.847,0,0,1,4.517.977A19.191,19.191,0,0,1,34.5,0,19.413,19.413,0,0,1,50.653,8.546a15.485,15.485,0,0,1,3.188-.33A15.027,15.027,0,0,1,69,23.108,14.974,14.974,0,0,1,56.454,37.779V38Z" transform="translate(416 105)" fill="#fff" opacity="0.1"/>
        <path id="Union_23" data-name="Union 23" d="M9.258,26v-.272a7.411,7.411,0,0,1-2,.272,7.112,7.112,0,1,1,0-14.22,7.361,7.361,0,0,1,3.077.668A13.216,13.216,0,0,1,34.5,5.847a10.5,10.5,0,0,1,2.172-.226,10.18,10.18,0,0,1,1.78,20.227V26Z" transform="translate(797 178)" fill="#fff" opacity="0.1"/>
        <path id="Union_24" data-name="Union 24" d="M17.924,50v-.524A14.44,14.44,0,0,1,14.057,50,13.869,13.869,0,0,1,0,36.327,13.87,13.87,0,0,1,14.057,22.653a14.334,14.334,0,0,1,5.957,1.285A25.284,25.284,0,0,1,45.5,0,25.619,25.619,0,0,1,66.8,11.245a20.468,20.468,0,0,1,4.2-.434A19.8,19.8,0,0,1,91,30.406a19.717,19.717,0,0,1-16.546,19.3V50Z" transform="translate(1208 87)" fill="#fff" opacity="0.1"/>
      </g>
    </g>
    <g id="Mask_Group_86" data-name="Mask Group 86" opacity="0.5" clip-path="url(#clip-path-4)">
      <g id="Mask_Group_85" data-name="Mask Group 85" transform="translate(-26 -4)" opacity="0.37" clip-path="url(#clip-path-6)" style="mix-blend-mode: multiply;isolation: isolate">
        <g id="Group_7041" data-name="Group 7041" transform="translate(-510.19 -62.527)">
          <line id="Line_506" data-name="Line 506" x1="509.894" y2="807.967" stroke="#4698d1" stroke-width="0.5"/>
          <line id="Line_507" data-name="Line 507" x1="509.894" y2="807.967" transform="translate(18.365)" stroke="#4698d1" stroke-width="0.5"/>
          <line id="Line_508" data-name="Line 508" x1="509.894" y2="807.967" transform="translate(36.732)" stroke="#4698d1" stroke-width="0.5"/>
          <line id="Line_509" data-name="Line 509" x1="509.894" y2="807.967" transform="translate(55.097)" stroke="#4698d1" stroke-width="0.5"/>
          <line id="Line_510" data-name="Line 510" x1="509.894" y2="807.967" transform="translate(73.463)" stroke="#4698d1" stroke-width="0.5"/>
          <line id="Line_511" data-name="Line 511" x1="509.894" y2="807.967" transform="translate(91.829)" stroke="#4698d1" stroke-width="0.5"/>
          <line id="Line_512" data-name="Line 512" x1="509.894" y2="807.967" transform="translate(110.194)" stroke="#4698d1" stroke-width="0.5"/>
          <line id="Line_513" data-name="Line 513" x1="509.894" y2="807.967" transform="translate(128.56)" stroke="#4698d1" stroke-width="0.5"/>
          <line id="Line_514" data-name="Line 514" x1="509.894" y2="807.967" transform="translate(146.925)" stroke="#4698d1" stroke-width="0.5"/>
          <line id="Line_515" data-name="Line 515" x1="509.894" y2="807.967" transform="translate(165.292)" stroke="#4698d1" stroke-width="0.5"/>
          <line id="Line_516" data-name="Line 516" x1="509.894" y2="807.967" transform="translate(183.657)" stroke="#4698d1" stroke-width="0.5"/>
          <line id="Line_517" data-name="Line 517" x1="509.894" y2="807.967" transform="translate(202.024)" stroke="#4698d1" stroke-width="0.5"/>
          <line id="Line_518" data-name="Line 518" x1="509.894" y2="807.967" transform="translate(220.389)" stroke="#4698d1" stroke-width="0.5"/>
          <line id="Line_519" data-name="Line 519" x1="509.894" y2="807.967" transform="translate(238.756)" stroke="#4698d1" stroke-width="0.5"/>
          <line id="Line_520" data-name="Line 520" x1="509.894" y2="807.967" transform="translate(257.12)" stroke="#4698d1" stroke-width="0.5"/>
          <line id="Line_521" data-name="Line 521" x1="509.894" y2="807.967" transform="translate(275.487)" stroke="#4698d1" stroke-width="0.5"/>
          <line id="Line_522" data-name="Line 522" x1="509.894" y2="807.967" transform="translate(293.852)" stroke="#4698d1" stroke-width="0.5"/>
          <line id="Line_523" data-name="Line 523" x1="509.894" y2="807.967" transform="translate(312.219)" stroke="#4698d1" stroke-width="0.5"/>
          <line id="Line_524" data-name="Line 524" x1="509.894" y2="807.967" transform="translate(330.584)" stroke="#4698d1" stroke-width="0.5"/>
          <line id="Line_525" data-name="Line 525" x1="509.894" y2="807.967" transform="translate(348.951)" stroke="#4698d1" stroke-width="0.5"/>
          <line id="Line_526" data-name="Line 526" x1="509.894" y2="807.967" transform="translate(367.316)" stroke="#4698d1" stroke-width="0.5"/>
          <line id="Line_527" data-name="Line 527" x1="509.894" y2="807.967" transform="translate(385.683)" stroke="#4698d1" stroke-width="0.5"/>
          <line id="Line_528" data-name="Line 528" x1="509.894" y2="807.967" transform="translate(404.047)" stroke="#4698d1" stroke-width="0.5"/>
          <line id="Line_529" data-name="Line 529" x1="509.894" y2="807.967" transform="translate(422.414)" stroke="#4698d1" stroke-width="0.5"/>
          <line id="Line_530" data-name="Line 530" x1="509.894" y2="807.967" transform="translate(440.779)" stroke="#4698d1" stroke-width="0.5"/>
          <line id="Line_531" data-name="Line 531" x1="509.894" y2="807.967" transform="translate(459.146)" stroke="#4698d1" stroke-width="0.5"/>
          <line id="Line_532" data-name="Line 532" x1="509.894" y2="807.967" transform="translate(477.511)" stroke="#4698d1" stroke-width="0.5"/>
          <line id="Line_533" data-name="Line 533" x1="509.894" y2="807.967" transform="translate(495.878)" stroke="#4698d1" stroke-width="0.5"/>
          <line id="Line_534" data-name="Line 534" x1="509.894" y2="807.967" transform="translate(514.242)" stroke="#4698d1" stroke-width="0.5"/>
          <line id="Line_535" data-name="Line 535" x1="509.894" y2="807.967" transform="translate(532.609)" stroke="#4698d1" stroke-width="0.5"/>
          <line id="Line_536" data-name="Line 536" x1="509.894" y2="807.967" transform="translate(550.974)" stroke="#4698d1" stroke-width="0.5"/>
          <line id="Line_537" data-name="Line 537" x1="509.894" y2="807.967" transform="translate(569.341)" stroke="#4698d1" stroke-width="0.5"/>
          <line id="Line_538" data-name="Line 538" x1="509.894" y2="807.967" transform="translate(587.706)" stroke="#4698d1" stroke-width="0.5"/>
          <line id="Line_539" data-name="Line 539" x1="509.894" y2="807.967" transform="translate(606.071)" stroke="#4698d1" stroke-width="0.5"/>
          <line id="Line_540" data-name="Line 540" x1="509.894" y2="807.967" transform="translate(624.438)" stroke="#4698d1" stroke-width="0.5"/>
          <line id="Line_541" data-name="Line 541" x1="509.894" y2="807.967" transform="translate(642.803)" stroke="#4698d1" stroke-width="0.5"/>
          <line id="Line_542" data-name="Line 542" x1="509.894" y2="807.967" transform="translate(661.169)" stroke="#4698d1" stroke-width="0.5"/>
          <line id="Line_543" data-name="Line 543" x1="509.894" y2="807.967" transform="translate(679.535)" stroke="#4698d1" stroke-width="0.5"/>
          <line id="Line_544" data-name="Line 544" x1="509.894" y2="807.967" transform="translate(697.901)" stroke="#4698d1" stroke-width="0.5"/>
          <line id="Line_545" data-name="Line 545" x1="509.894" y2="807.967" transform="translate(716.266)" stroke="#4698d1" stroke-width="0.5"/>
          <line id="Line_546" data-name="Line 546" x1="509.894" y2="807.967" transform="translate(734.633)" stroke="#4698d1" stroke-width="0.5"/>
          <line id="Line_547" data-name="Line 547" x1="509.894" y2="807.967" transform="translate(752.998)" stroke="#4698d1" stroke-width="0.5"/>
          <line id="Line_548" data-name="Line 548" x1="509.894" y2="807.967" transform="translate(771.365)" stroke="#4698d1" stroke-width="0.5"/>
          <line id="Line_549" data-name="Line 549" x1="509.894" y2="807.967" transform="translate(789.73)" stroke="#4698d1" stroke-width="0.5"/>
          <line id="Line_550" data-name="Line 550" x1="509.894" y2="807.967" transform="translate(808.096)" stroke="#4698d1" stroke-width="0.5"/>
          <line id="Line_551" data-name="Line 551" x1="509.894" y2="807.967" transform="translate(826.462)" stroke="#4698d1" stroke-width="0.5"/>
          <line id="Line_552" data-name="Line 552" x1="509.894" y2="807.967" transform="translate(844.828)" stroke="#4698d1" stroke-width="0.5"/>
          <line id="Line_553" data-name="Line 553" x1="509.894" y2="807.967" transform="translate(863.193)" stroke="#4698d1" stroke-width="0.5"/>
          <line id="Line_554" data-name="Line 554" x1="509.894" y2="807.967" transform="translate(881.56)" stroke="#4698d1" stroke-width="0.5"/>
          <line id="Line_555" data-name="Line 555" x1="509.894" y2="807.967" transform="translate(899.925)" stroke="#4698d1" stroke-width="0.5"/>
          <line id="Line_556" data-name="Line 556" x1="509.894" y2="807.967" transform="translate(918.292)" stroke="#4698d1" stroke-width="0.5"/>
          <line id="Line_557" data-name="Line 557" x1="509.894" y2="807.967" transform="translate(936.657)" stroke="#4698d1" stroke-width="0.5"/>
          <line id="Line_558" data-name="Line 558" x1="509.894" y2="807.967" transform="translate(955.023)" stroke="#4698d1" stroke-width="0.5"/>
          <line id="Line_559" data-name="Line 559" x1="509.894" y2="807.967" transform="translate(973.388)" stroke="#4698d1" stroke-width="0.5"/>
          <line id="Line_560" data-name="Line 560" x1="509.894" y2="807.967" transform="translate(991.755)" stroke="#4698d1" stroke-width="0.5"/>
          <line id="Line_561" data-name="Line 561" x1="509.894" y2="807.967" transform="translate(1010.12)" stroke="#4698d1" stroke-width="0.5"/>
          <line id="Line_562" data-name="Line 562" x1="509.894" y2="807.967" transform="translate(1028.487)" stroke="#4698d1" stroke-width="0.5"/>
          <line id="Line_563" data-name="Line 563" x1="509.894" y2="807.967" transform="translate(1046.852)" stroke="#4698d1" stroke-width="0.5"/>
          <line id="Line_564" data-name="Line 564" x1="509.894" y2="807.967" transform="translate(1065.219)" stroke="#4698d1" stroke-width="0.5"/>
          <line id="Line_565" data-name="Line 565" x1="509.894" y2="807.967" transform="translate(1083.583)" stroke="#4698d1" stroke-width="0.5"/>
          <line id="Line_566" data-name="Line 566" x1="509.894" y2="807.967" transform="translate(1101.949)" stroke="#4698d1" stroke-width="0.5"/>
          <line id="Line_567" data-name="Line 567" x1="509.894" y2="807.967" transform="translate(1120.315)" stroke="#4698d1" stroke-width="0.5"/>
          <line id="Line_568" data-name="Line 568" x1="509.894" y2="807.967" transform="translate(1138.681)" stroke="#4698d1" stroke-width="0.5"/>
          <line id="Line_569" data-name="Line 569" x1="509.894" y2="807.967" transform="translate(1157.047)" stroke="#4698d1" stroke-width="0.5"/>
          <line id="Line_570" data-name="Line 570" x1="509.894" y2="807.967" transform="translate(1175.412)" stroke="#4698d1" stroke-width="0.5"/>
          <line id="Line_571" data-name="Line 571" x1="509.894" y2="807.967" transform="translate(1193.779)" stroke="#4698d1" stroke-width="0.5"/>
          <line id="Line_572" data-name="Line 572" x1="509.894" y2="807.967" transform="translate(1212.144)" stroke="#4698d1" stroke-width="0.5"/>
          <line id="Line_573" data-name="Line 573" x1="509.894" y2="807.967" transform="translate(1230.51)" stroke="#4698d1" stroke-width="0.5"/>
          <line id="Line_574" data-name="Line 574" x1="509.894" y2="807.967" transform="translate(1248.876)" stroke="#4698d1" stroke-width="0.5"/>
          <line id="Line_575" data-name="Line 575" x1="509.894" y2="807.967" transform="translate(1267.242)" stroke="#4698d1" stroke-width="0.5"/>
          <line id="Line_576" data-name="Line 576" x1="509.894" y2="807.967" transform="translate(1285.607)" stroke="#4698d1" stroke-width="0.5"/>
          <line id="Line_577" data-name="Line 577" x1="509.894" y2="807.967" transform="translate(1303.974)" stroke="#4698d1" stroke-width="0.5"/>
          <line id="Line_578" data-name="Line 578" x1="509.894" y2="807.967" transform="translate(1322.339)" stroke="#4698d1" stroke-width="0.5"/>
          <line id="Line_579" data-name="Line 579" x1="509.894" y2="807.967" transform="translate(1340.705)" stroke="#4698d1" stroke-width="0.5"/>
          <line id="Line_580" data-name="Line 580" x1="509.894" y2="807.967" transform="translate(1359.071)" stroke="#4698d1" stroke-width="0.5"/>
          <line id="Line_581" data-name="Line 581" x1="509.894" y2="807.967" transform="translate(1377.438)" stroke="#4698d1" stroke-width="0.5"/>
          <line id="Line_582" data-name="Line 582" x1="509.894" y2="807.967" transform="translate(1395.803)" stroke="#4698d1" stroke-width="0.5"/>
          <line id="Line_583" data-name="Line 583" x1="509.894" y2="807.967" transform="translate(1414.169)" stroke="#4698d1" stroke-width="0.5"/>
          <line id="Line_584" data-name="Line 584" x1="509.894" y2="807.967" transform="translate(1432.534)" stroke="#4698d1" stroke-width="0.5"/>
          <line id="Line_585" data-name="Line 585" x1="509.894" y2="807.967" transform="translate(1450.901)" stroke="#4698d1" stroke-width="0.5"/>
          <line id="Line_586" data-name="Line 586" x1="509.894" y2="807.967" transform="translate(1469.266)" stroke="#4698d1" stroke-width="0.5"/>
          <line id="Line_587" data-name="Line 587" x1="509.894" y2="807.967" transform="translate(1487.632)" stroke="#4698d1" stroke-width="0.5"/>
          <line id="Line_588" data-name="Line 588" x1="509.894" y2="807.967" transform="translate(1505.998)" stroke="#4698d1" stroke-width="0.5"/>
          <line id="Line_589" data-name="Line 589" x1="509.894" y2="807.967" transform="translate(1524.364)" stroke="#4698d1" stroke-width="0.5"/>
          <line id="Line_590" data-name="Line 590" x1="509.894" y2="807.967" transform="translate(1542.729)" stroke="#4698d1" stroke-width="0.5"/>
          <line id="Line_591" data-name="Line 591" x1="509.894" y2="807.967" transform="translate(1561.096)" stroke="#4698d1" stroke-width="0.5"/>
          <line id="Line_592" data-name="Line 592" x1="509.894" y2="807.967" transform="translate(1579.461)" stroke="#4698d1" stroke-width="0.5"/>
          <line id="Line_593" data-name="Line 593" x1="509.894" y2="807.967" transform="translate(1597.826)" stroke="#4698d1" stroke-width="0.5"/>
          <line id="Line_594" data-name="Line 594" x1="509.894" y2="807.967" transform="translate(1616.193)" stroke="#4698d1" stroke-width="0.5"/>
          <line id="Line_595" data-name="Line 595" x1="509.894" y2="807.967" transform="translate(1634.558)" stroke="#4698d1" stroke-width="0.5"/>
          <line id="Line_596" data-name="Line 596" x1="509.894" y2="807.967" transform="translate(1652.925)" stroke="#4698d1" stroke-width="0.5"/>
          <line id="Line_597" data-name="Line 597" x1="509.894" y2="807.967" transform="translate(1671.29)" stroke="#4698d1" stroke-width="0.5"/>
          <line id="Line_598" data-name="Line 598" x1="509.894" y2="807.967" transform="translate(1689.656)" stroke="#4698d1" stroke-width="0.5"/>
          <line id="Line_599" data-name="Line 599" x1="509.894" y2="807.967" transform="translate(1708.021)" stroke="#4698d1" stroke-width="0.5"/>
          <line id="Line_600" data-name="Line 600" x1="509.894" y2="807.967" transform="translate(1726.388)" stroke="#4698d1" stroke-width="0.5"/>
          <line id="Line_601" data-name="Line 601" x1="509.894" y2="807.967" transform="translate(1744.753)" stroke="#4698d1" stroke-width="0.5"/>
          <line id="Line_602" data-name="Line 602" x1="509.894" y2="807.967" transform="translate(1763.12)" stroke="#4698d1" stroke-width="0.5"/>
          <line id="Line_603" data-name="Line 603" x1="509.894" y2="807.967" transform="translate(1781.485)" stroke="#4698d1" stroke-width="0.5"/>
          <line id="Line_604" data-name="Line 604" x1="509.894" y2="807.967" transform="translate(1799.851)" stroke="#4698d1" stroke-width="0.5"/>
          <line id="Line_605" data-name="Line 605" x1="509.894" y2="807.967" transform="translate(1818.217)" stroke="#4698d1" stroke-width="0.5"/>
          <line id="Line_606" data-name="Line 606" x1="509.894" y2="807.967" transform="translate(1836.583)" stroke="#4698d1" stroke-width="0.5"/>
          <line id="Line_607" data-name="Line 607" x1="509.894" y2="807.967" transform="translate(1854.948)" stroke="#4698d1" stroke-width="0.5"/>
          <line id="Line_608" data-name="Line 608" x1="509.894" y2="807.967" transform="translate(1873.315)" stroke="#4698d1" stroke-width="0.5"/>
          <line id="Line_609" data-name="Line 609" x1="509.894" y2="807.967" transform="translate(1891.68)" stroke="#4698d1" stroke-width="0.5"/>
          <line id="Line_610" data-name="Line 610" x1="509.894" y2="807.967" transform="translate(1910.047)" stroke="#4698d1" stroke-width="0.5"/>
          <line id="Line_611" data-name="Line 611" x1="509.894" y2="807.967" transform="translate(1928.412)" stroke="#4698d1" stroke-width="0.5"/>
          <line id="Line_612" data-name="Line 612" x1="509.894" y2="807.967" transform="translate(1946.778)" stroke="#4698d1" stroke-width="0.5"/>
          <line id="Line_613" data-name="Line 613" x1="509.894" y2="807.967" transform="translate(1965.144)" stroke="#4698d1" stroke-width="0.5"/>
          <line id="Line_614" data-name="Line 614" x1="509.894" y2="807.967" transform="translate(1983.51)" stroke="#4698d1" stroke-width="0.5"/>
          <line id="Line_615" data-name="Line 615" x1="509.894" y2="807.967" transform="translate(2001.875)" stroke="#4698d1" stroke-width="0.5"/>
          <line id="Line_616" data-name="Line 616" x1="509.894" y2="807.967" transform="translate(2020.242)" stroke="#4698d1" stroke-width="0.5"/>
          <line id="Line_617" data-name="Line 617" x1="509.894" y2="807.967" transform="translate(2038.607)" stroke="#4698d1" stroke-width="0.5"/>
        </g>
      </g>
    </g>
  </g>
</svg>
