<svg xmlns="http://www.w3.org/2000/svg" width="45.045" height="45.045" viewBox="0 0 45.045 45.045">
  <g id="Group_6733" data-name="Group 6733" transform="translate(-351 -1166.5)">
    <path id="Path_12973" data-name="Path 12973" d="M320.207,1.5a3.037,3.037,0,0,1,3.038,3.038V18.207a3.037,3.037,0,0,1-3.038,3.038H306.538a3.037,3.037,0,0,1-3.038-3.038V4.538A3.037,3.037,0,0,1,306.538,1.5Z" transform="translate(72.301 1165.5)" fill="#773ad7" stroke="#773ad7" stroke-width="1"/>
    <path id="Path_12974" data-name="Path 12974" d="M304.207,1.5a3.037,3.037,0,0,1,3.038,3.038V18.207a3.037,3.037,0,0,1-3.038,3.038H290.538a3.037,3.037,0,0,1-3.038-3.038V4.538A3.037,3.037,0,0,1,290.538,1.5Z" transform="translate(64 1165.5)" fill="none" stroke="#4698d1" stroke-width="1"/>
    <path id="Path_12975" data-name="Path 12975" d="M304.207,17.5a3.037,3.037,0,0,1,3.038,3.038V34.207a3.037,3.037,0,0,1-3.038,3.038H290.538a3.037,3.037,0,0,1-3.038-3.038V20.538a3.037,3.037,0,0,1,3.038-3.038Z" transform="translate(64 1173.801)" fill="none" stroke="#4698d1" stroke-width="1"/>
    <path id="Path_12976" data-name="Path 12976" d="M320.207,17.5a3.037,3.037,0,0,1,3.038,3.038V34.207a3.037,3.037,0,0,1-3.038,3.038H306.538a3.037,3.037,0,0,1-3.038-3.038V20.538a3.037,3.037,0,0,1,3.038-3.038Z" transform="translate(72.301 1173.801)" fill="none" stroke="#4698d1" stroke-width="1"/>
  </g>
</svg>
