<svg xmlns="http://www.w3.org/2000/svg" width="45.574" height="46.103" viewBox="0 0 45.574 46.103">
  <g id="Group_7147" data-name="Group 7147" transform="translate(-155.975 -1331.397)">
    <path id="Path_14620" data-name="Path 14620" d="M430.24,220.254a8.43,8.43,0,0,0,1.543-6.342,8.266,8.266,0,0,0-9.31-7.028m7.767,13.37a7.942,7.942,0,0,1-5.191,3.144m5.191-3.144c-.106-1.555-2.27-2.247-3.863-2.479a1.136,1.136,0,0,1-.979-.924,1.319,1.319,0,0,1,.275-.953,2.607,2.607,0,1,0-3.5.536,1.344,1.344,0,0,1,.553.827,1.13,1.13,0,0,1-.653,1.173c-1.449.7-3.3,2.005-2.927,3.521m5.906,1.443,16.712-2.56,1.9-.29a2.79,2.79,0,0,0,2.348-3.178l-1.718-11.009a2.806,2.806,0,0,0-3.206-2.327l-1.9.29-16.712,2.56m2.576,16.514-16.711,2.56-1.9.29a2.808,2.808,0,0,1-3.207-2.327l-1.717-11.009a2.79,2.79,0,0,1,2.348-3.178l1.9-.29,16.711-2.56m2.576,16.514a7.991,7.991,0,0,1-5.906-1.443m3.33-15.071a8.213,8.213,0,0,0-6.734,9.487,8.485,8.485,0,0,0,3.4,5.585m-1.859,13.619a8.537,8.537,0,0,1,.907-11.125m-.907,11.125a7.945,7.945,0,0,0,5.19,3.144m-5.19-3.144c.1-1.555,2.27-2.248,3.863-2.479a1.139,1.139,0,0,0,.979-.924,1.331,1.331,0,0,0-.275-.953,2.607,2.607,0,1,1,3.5.536,1.332,1.332,0,0,0-.553.827,1.128,1.128,0,0,0,.652,1.173c1.449.7,3.3,2.006,2.927,3.519m-5.906,1.445-16.711-2.56-1.9-.292a2.787,2.787,0,0,1-2.348-3.176l1.521-9.76m19.44,15.789,16.712,2.56,1.9.29a2.806,2.806,0,0,0,3.206-2.327l1.718-11.009a2.789,2.789,0,0,0-2.348-3.178l-1.9-.29-12.429-1.9m-6.859,15.858a7.989,7.989,0,0,0,5.906-1.445m0,0a8.472,8.472,0,0,0,3.4-5.585,8.311,8.311,0,0,0-4.326-8.709" transform="translate(-245 1132.007)" fill="none" stroke="#4698d1" stroke-linecap="round" stroke-linejoin="round" stroke-width="1"/>
    <path id="Path_14621" data-name="Path 14621" d="M414.221,227.61a4.61,4.61,0,1,1-4.61-4.61A4.611,4.611,0,0,1,414.221,227.61Z" transform="translate(-243.109 1142.206)" fill="#773ad7"/>
    <path id="Path_14622" data-name="Path 14622" d="M428.221,205.61a4.61,4.61,0,1,1-1.067-2.949A4.612,4.612,0,0,1,428.221,205.61Z" transform="translate(-235.595 1130.397)" fill="#773ad7"/>
    <path id="Path_14623" data-name="Path 14623" d="M412.221,229.61a4.611,4.611,0,1,1-4.61-4.61A4.581,4.581,0,0,1,412.221,229.61Z" transform="translate(-244.184 1143.279)" fill="#773ad7"/>
    <path id="Path_14624" data-name="Path 14624" d="M431.221,206.61a4.613,4.613,0,1,1-4.61-4.61A4.61,4.61,0,0,1,431.221,206.61Z" transform="translate(-233.984 1130.934)" fill="#773ad7"/>
  </g>
</svg>
