<svg xmlns="http://www.w3.org/2000/svg" width="44.79" height="45.045" viewBox="0 0 44.79 45.045">
  <g id="Group_6954" data-name="Group 6954" transform="translate(-1011 -1330.455)">
    <rect id="Rectangle_1184" data-name="Rectangle 1184" width="43.79" height="39.26" rx="1.5" transform="translate(1011.5 1330.955)" fill="none" stroke="#4698d1" stroke-width="1"/>
    <path id="Path_12981" data-name="Path 12981" d="M347.51,233.04a1.511,1.511,0,0,1-1.51-1.51v-3.02a1.51,1.51,0,0,1,3.02,0v3.02A1.511,1.511,0,0,1,347.51,233.04Z" transform="translate(667.765 1142.46)" fill="#4698d1"/>
    <path id="Path_12982" data-name="Path 12982" d="M371.51,233.04a1.511,1.511,0,0,1-1.51-1.51v-3.02a1.51,1.51,0,1,1,3.02,0v3.02A1.511,1.511,0,0,1,371.51,233.04Z" transform="translate(680.005 1142.46)" fill="#4698d1"/>
    <path id="Path_12983" data-name="Path 12983" d="M381.985,204.255v0Zm1.51,1.51h0Zm-36.24,0h0Zm1.51-1.51v0Zm0,31.71v0Zm-1.51-1.51h0Zm34.73,1.51v0Zm1.51-1.51h0Zm-11.579-11.441a.755.755,0,1,0-1.068,1.068Zm-2,2a.755.755,0,1,0-1.068,1.068Zm.933-9.91a.755.755,0,1,0,1.068,1.069Zm1.534-4.471.534.535Zm-3.536,2.47a.755.755,0,1,0,1.068,1.068Zm-6.839,12.978a.755.755,0,0,0-1.068-1.068Zm-2-2a.755.755,0,0,0-1.069-1.068Zm-1.069-7.906A.755.755,0,0,0,360,215.106Zm-.468-5.54-.533.535Zm2.47,3.538a.755.755,0,0,0,1.068-1.068Zm21.046,21.037h-33.22v1.51h33.22Zm-33.975-.755v-28.69H346.5v28.69Zm.755-29.445h33.22V203.5h-33.22Zm33.975.755v28.69h1.51v-28.69Zm-.755-.755a.755.755,0,0,1,.755.755h1.51a2.266,2.266,0,0,0-2.265-2.265Zm-33.975.755a.755.755,0,0,1,.755-.755V203.5a2.266,2.266,0,0,0-2.265,2.265Zm.755,29.445a.755.755,0,0,1-.755-.755H346.5a2.266,2.266,0,0,0,2.265,2.265Zm33.22,1.51a2.266,2.266,0,0,0,2.265-2.265h-1.51a.755.755,0,0,1-.755.755Zm-11.136-12.639,3,3,1.068-1.068-3-3Zm2.069,3.938-3-3-1.068,1.068,3,3Zm2,1.068a2.172,2.172,0,0,0,0-3.07l-1.068,1.068a.664.664,0,0,1,0,.935Zm-1.068-1.068a.661.661,0,0,1-.935,0l-1.068,1.068a2.172,2.172,0,0,0,3.07,0Zm-1.937-11.844,3-3-1.068-1.068-3,3Zm-.066-6.073-3,3,1.068,1.068,3-3Zm2,1.068a.664.664,0,0,1,0,.935l1.068,1.068a2.172,2.172,0,0,0,0-3.07Zm1.068-1.068a2.169,2.169,0,0,0-3.07,0l1.068,1.068a.661.661,0,0,1,.935,0ZM359,229.087l3-3-1.068-1.068-3,3Zm-.068-6.073-3,3L357,227.085l3-3ZM357,228.019a.661.661,0,0,1,0-.935l-1.068-1.068a2.169,2.169,0,0,0,0,3.07Zm-1.068,1.068a2.172,2.172,0,0,0,3.07,0l-1.068-1.068a.661.661,0,0,1-.935,0ZM360,215.106l-3-3-1.068,1.068,3,3Zm-2.069-3.937,3,3,1.068-1.068-3-3Zm-2-1.068a2.172,2.172,0,0,0,0,3.07L357,212.1a.661.661,0,0,1,0-.935ZM357,211.169a.661.661,0,0,1,.935,0L359,210.1a2.169,2.169,0,0,0-3.07,0Z" transform="translate(668.02 1130.475)" fill="#4698d1"/>
    <path id="Path_12984" data-name="Path 12984" d="M365.06,215.53a4.53,4.53,0,1,1-4.53-4.53A4.53,4.53,0,0,1,365.06,215.53Z" transform="translate(672.865 1134.3)" fill="#773ad7"/>
    <path id="Path_12985" data-name="Path 12985" d="M373.56,220.228a1.416,1.416,0,0,1-1.415,1.416h-1.416a1.416,1.416,0,0,1,0-2.833h1.416A1.416,1.416,0,0,1,373.56,220.228Z" transform="translate(679.654 1138.284)" fill="#773ad7"/>
    <path id="Path_12986" data-name="Path 12986" d="M373.56,209.916a1.416,1.416,0,0,1-1.415,1.415h-1.416a1.416,1.416,0,1,1,0-2.831h1.416A1.416,1.416,0,0,1,373.56,209.916Z" transform="translate(679.654 1133.025)" fill="#773ad7"/>
  </g>
</svg>
