<svg xmlns="http://www.w3.org/2000/svg" xmlns:xlink="http://www.w3.org/1999/xlink" width="26.05" height="26.05" viewBox="0 0 26.05 26.05">
  <defs>
    <linearGradient id="linear-gradient" y1="0.5" x2="1" y2="0.5" gradientUnits="objectBoundingBox">
      <stop offset="0" stop-color="#fff"/>
      <stop offset="1" stop-color="#fff"/>
    </linearGradient>
  </defs>
  <g id="Group_5" data-name="Group 5" transform="translate(-681.782 -26.62)">
    <g id="Group_4" data-name="Group 4">
      <path id="Path_1" data-name="Path 1" d="M707.832,39.652A13.025,13.025,0,1,1,694.806,26.62,13.045,13.045,0,0,1,707.832,39.652Zm-24.955.005a11.93,11.93,0,1,0,11.932-11.942A11.935,11.935,0,0,0,682.877,39.657Z" fill="url(#linear-gradient)"/>
      <path id="Path_2" data-name="Path 2" d="M695.579,39.656c.839.836,1.661,1.655,2.481,2.474.634.632,1.264,1.267,1.9,1.9a.573.573,0,0,1,.2.57.541.541,0,0,1-.94.228c-.613-.6-1.218-1.214-1.826-1.822q-1.2-1.2-2.407-2.4c-.055-.055-.114-.106-.2-.19-.46.469-.909.932-1.364,1.388q-1.491,1.5-2.986,2.991a.553.553,0,1,1-.762-.778q2.066-2.068,4.136-4.134a2.37,2.37,0,0,1,.253-.193c-.1-.11-.168-.18-.234-.246q-2.067-2.069-4.13-4.14a.907.907,0,0,1-.249-.421.474.474,0,0,1,.291-.542.533.533,0,0,1,.654.13q.96.958,1.917,1.918l2.331,2.33c.049.049.1.093.182.165.511-.517,1.011-1.028,1.517-1.535q1.379-1.385,2.762-2.763c.044-.044.087-.089.133-.131a.544.544,0,0,1,.786-.01.538.538,0,0,1-.025.785c-.447.455-.9.9-1.353,1.353l-2.931,2.934C695.677,39.547,695.643,39.587,695.579,39.656Z" fill="url(#linear-gradient)"/>
    </g>
  </g>
</svg>
