<svg xmlns="http://www.w3.org/2000/svg" width="44.5" height="44.5" viewBox="0 0 44.5 44.5">
  <g id="Group_7038" data-name="Group 7038" transform="translate(-11075 -1290.5)">
    <path id="Path_14357" data-name="Path 14357" d="M462,381.967A2.966,2.966,0,0,1,464.967,379h2.967a2.966,2.966,0,0,1,2.967,2.967v11.867a2.967,2.967,0,0,1-2.967,2.967h-2.967A2.967,2.967,0,0,1,462,393.833Z" transform="translate(10618.934 930.783)" fill="#773ad7"/>
    <path id="Path_14358" data-name="Path 14358" d="M470,380.455A1.455,1.455,0,0,1,471.457,379H489.31a1.456,1.456,0,1,1,0,2.912H471.457A1.455,1.455,0,0,1,470,380.455Z" transform="translate(10622.8 930.783)" fill="#773ad7"/>
    <path id="Path_14359" data-name="Path 14359" d="M470,383.455A1.455,1.455,0,0,1,471.457,382H489.31a1.456,1.456,0,1,1,0,2.912H471.457A1.455,1.455,0,0,1,470,383.455Z" transform="translate(10622.8 932.233)" fill="#773ad7"/>
    <path id="Path_14360" data-name="Path 14360" d="M470,388.077a2.967,2.967,0,0,1,2.967-2.967H487.8a2.967,2.967,0,0,1,2.967,2.967v2.8a2.967,2.967,0,0,1-2.967,2.967H472.967A2.967,2.967,0,0,1,470,390.88Z" transform="translate(10622.8 933.737)" fill="#773ad7"/>
    <path id="Path_14361" data-name="Path 14361" d="M480.992,366.742a.742.742,0,0,0-1.483,0Zm-1.483,10.383a.742.742,0,0,0,1.483,0Zm-5.029.463a.741.741,0,1,0,1.157-.927Zm-4.776-8.344a.741.741,0,1,0-1.157.927Zm15.16,7.417a.741.741,0,1,0,1.157.927Zm7.09-6.49a.741.741,0,1,0-1.157-.927Zm-27.279,12.306h31.15v-1.483h-31.15ZM498.05,384.7v22.09h1.483V384.7Zm.742,21.348H461.708v1.483h37.083Zm-36.342.742V384.7h-1.483v22.09Zm36.342.742h2.373V406.05h-2.373Zm.593,1.483h-38.27V410.5h38.27Zm-40.05-1.483h2.373V406.05h-2.373Zm.148-.148a.149.149,0,0,1-.148.148V406.05A1.335,1.335,0,0,0,458,407.385Zm41.682.148a.149.149,0,0,1-.148-.148H502.5a1.335,1.335,0,0,0-1.335-1.335Zm-.148-.148a1.632,1.632,0,0,1-1.632,1.632V410.5a3.116,3.116,0,0,0,3.115-3.115Zm-5.192-24.908a2.225,2.225,0,0,1,2.225,2.225h1.483a3.708,3.708,0,0,0-3.708-3.708Zm-34.71,26.54a1.632,1.632,0,0,1-1.632-1.632H458a3.116,3.116,0,0,0,3.115,3.115Zm3.56-28.023a3.708,3.708,0,0,0-3.708,3.708h1.483a2.225,2.225,0,0,1,2.225-2.225Zm14.833-14.252v10.383h1.483V366.742Zm-3.871,9.919-5.933-7.417-1.157.927,5.933,7.417Zm10.383.927,5.933-7.417-1.157-.927-5.933,7.417Z" transform="translate(10617 924.5)" fill="#4698d1"/>
  </g>
</svg>
