<svg xmlns="http://www.w3.org/2000/svg" width="56.386" height="41.606" viewBox="0 0 56.386 41.606">
  <g id="Group_268" data-name="Group 268" opacity="0.1">
    <path id="Path_383" data-name="Path 383" d="M-1640.136,2160.907c3.477-2.36,13.538-9.438,13.538-16.392a2.479,2.479,0,0,0-2.484-2.732c-.622,0-1.242.247-2.731.247-3.479,0-9.192-1.988-9.192-9.811,0-6.458,4.47-10.185,10.185-10.185,9.065,0,12.668,7.7,12.668,14.158,0,15.65-14.036,23.722-20.618,27.449Zm-33.533,0c3.477-2.36,13.538-9.438,13.538-16.392a2.479,2.479,0,0,0-2.484-2.732c-.62,0-1.242.247-2.731.247-3.477,0-9.192-1.988-9.192-9.811,0-6.458,4.472-10.185,10.185-10.185,9.065,0,12.669,7.7,12.669,14.158,0,15.65-14.034,23.722-20.618,27.449Z" transform="translate(1674.539 -2122.035)" fill="#4698d1"/>
  </g>
</svg>
