<svg xmlns="http://www.w3.org/2000/svg" xmlns:xlink="http://www.w3.org/1999/xlink" width="1442.426" height="205.449" viewBox="0 0 1442.426 205.449">
  <defs>
    <linearGradient id="linear-gradient" y1="0.5" x2="1" y2="0.5" gradientUnits="objectBoundingBox">
      <stop offset="0" stop-color="#fff"/>
      <stop offset="1" stop-color="#6f6d6c"/>
    </linearGradient>
  </defs>
  <g id="Group_294" data-name="Group 294" transform="translate(-220.999 -4978.344)">
    <path id="Path_254" data-name="Path 254" d="M-578.616,3312.053h158.409s12.285-18.1-18.751-18.75c0,0-9.052-31.036-32.975-8.406,0,0-3.879-19.4-37.5-19.4s-43.966,10.345-38.794,26.509C-548.227,3292.01-583.788,3292.01-578.616,3312.053Z" transform="translate(800.129 1871.74)" opacity="0.07" fill="url(#linear-gradient)"/>
    <path id="Path_255" data-name="Path 255" d="M-515.037,3243.023c1.774,10.192,112.5,12.284,175.866,7.759s34.268-31.682,28.449-35.561-20.69-6.466-36.854,7.76c0,0,3.233-18.1-20.69-18.1-17.457,0-38.794,14.224-38.794,14.224s1.293-20.69-13.578-21.336-42.673,13.577-48.493,29.1c0,0-9.7-3.879-19.4-3.879S-517.623,3228.152-515.037,3243.023Z" transform="translate(985.428 1836.258)" opacity="0.07" fill="url(#linear-gradient)"/>
    <path id="Path_292" data-name="Path 292" d="M-515.037,3243.023c1.774,10.192,112.5,12.284,175.866,7.759s34.268-31.682,28.449-35.561-20.69-6.466-36.854,7.76c0,0,3.233-18.1-20.69-18.1-17.457,0-38.794,14.224-38.794,14.224s1.293-20.69-13.578-21.336-42.673,13.577-48.493,29.1c0,0-9.7-3.879-19.4-3.879S-517.623,3228.152-515.037,3243.023Z" transform="translate(1962.428 1864.258)" opacity="0.07" fill="url(#linear-gradient)"/>
    <path id="Path_256" data-name="Path 256" d="M-163.214,3236.89h17.243s43.966-1.724,62.07-21.551-28.449-21.554-29.31-9.484c0,0-12.931-25.862-44.83-24.137s-25.863,18.1-25.863,18.1-35.344-9.484-40.516,12.067S-163.214,3236.89-163.214,3236.89Z" transform="translate(1322.225 1796.709)" opacity="0.07" fill="url(#linear-gradient)"/>
  </g>
</svg>
