<svg xmlns="http://www.w3.org/2000/svg" xmlns:xlink="http://www.w3.org/1999/xlink" width="113.963" height="354.333" viewBox="0 0 113.963 354.333">
  <defs>
    <linearGradient id="linear-gradient" y1="0.856" x2="1.315" y2="0.194" gradientUnits="objectBoundingBox">
      <stop offset="0" stop-color="#4698d1"/>
      <stop offset="1" stop-color="#773ad7"/>
    </linearGradient>
    <linearGradient id="linear-gradient-2" x1="0" y1="0.383" x2="0.868" y2="0.324" xlink:href="#linear-gradient"/>
  </defs>
  <g id="Group_292" data-name="Group 292" transform="translate(-321.531 -4498.13)">
    <g id="Group_146" data-name="Group 146" transform="translate(-19468 -1427.392)">
      <path id="Path_227" data-name="Path 227" d="M-501.3,3571.276l-1.628,17.9,13.346-.977-1.628-17.578Z" transform="translate(20355.76 2681.561)" fill="#fed"/>
      <path id="Path_228" data-name="Path 228" d="M-501.194,3575a15.65,15.65,0,0,0-1.628,15.625h8.789v-3.906a6.349,6.349,0,0,1,2.823.109c1.1.328,3.042,2.8,3.581,2.929,5.26,1.271,7.268,1.518,20.94,1.518,5.859,0,6.62-2.279-1.734-5.643-5.143-2.071-11.937-5.1-17.146-10.633C-485.569,3575-501.519,3575.326-501.194,3575Z" transform="translate(20353.699 2688.579)" fill="#00000f"/>
      <path id="Path_229" data-name="Path 229" d="M-502.582,3447.375s9.766,18.555,12.044,30.925l-1.628,10.091-.651,12.37s-10.742,8.137-18.555.325c0,0-1.3-12.695-7.487-22.461s-1.953-14.974-1.953-14.974l3.255-9.439,6.185-3.907Z" transform="translate(20324.813 2483.849)" fill="#fed"/>
      <path id="Path_231" data-name="Path 231" d="M-490.072,3477.559s-10.742-1.3-13.021-8.137,2.93-9.115,8.464-7.487,7.487,4.231,8.789,6.185l1.3,1.953,1.953,3.581,1.628,5.534-7.161,1.628Z" transform="translate(20354.623 2506.398)" fill="#fed"/>
      <path id="Path_230" data-name="Path 230" d="M-508.056,3473.036s30.6,29.3,36.458,28.321-14-29.948-14-29.948l13.021-5.534s21.81,28.321,26.042,38.086,4.883,28.645-13.021,23.763-43.945-16.6-43.945-16.6Z" transform="translate(20347.541 2513.526)" fill="#a4d4f5"/>
      <path id="Path_232" data-name="Path 232" d="M-505.812,3458.325s-3.255,21.159,16.927,21.159v-7.161s-9.766,5.208-9.766-14.323Z" transform="translate(20350.83 2500.893)" fill="#6f6d6c"/>
      <path id="Path_233" data-name="Path 233" d="M-502.657,3466.816l.977,1.953s6.836,2.93,7.161,0c.211-1.891,2.591-3.091,5.039-3.539a15.983,15.983,0,0,0-6.341-3.3,9.25,9.25,0,0,0-6.341.107C-502.7,3463.615-503.217,3465.692-502.657,3466.816Z" transform="translate(20355.813 2506.4)" fill="#fed"/>
      <path id="Path_234" data-name="Path 234" d="M-514.375,3476.928s5.534,8.79,6.185,12.7l.651,3.906s-3.581,2.6-8.464-8.464L-520.886,3474h0s-8.789-10.417-2.93-17.579,13.672-6.185,23.763-10.091,12.044,3.255,9.44,5.534l-2.6,2.279s-7.812,2.929-13.672,5.208-1.3,5.534,1.953,8.789l3.255,3.254h0s2.279,5.534,2.279,10.091,3.255,3.907,5.859,1.3,2.6-7.813,8.464-7.813h5.859s1.628,15.95-.651,18.88-19.857,8.789-23.112-1.627-5.859-20.507-10.091-20.833S-514.375,3476.928-514.375,3476.928Z" transform="translate(20319.029 2480.337)" fill="#4d5068"/>
      <path id="Path_235" data-name="Path 235" d="M-510.431,3474.462l31.25-27.941s15.083,9.17,12.8,31.63L-507.5,3482.6C-507.121,3479.641-507.483,3476.818-510.431,3474.462Z" transform="translate(20343.73 2482.479)" fill="#4698d1"/>
      <ellipse id="Ellipse_72" data-name="Ellipse 72" cx="6.51" cy="17.211" rx="6.51" ry="17.211" transform="translate(19859.332 5930.795) rotate(-21.567)" fill="#1196f3"/>
      <path id="Path_236" data-name="Path 236" d="M-490.905,3456a4.935,4.935,0,0,0-4.719-5.128,4.473,4.473,0,0,0-3.034,1.229,43.626,43.626,0,0,0,1.7,5.231c.523,1.324,1.094,2.572,1.693,3.754A4.955,4.955,0,0,0-490.905,3456Z" transform="translate(20362.615 2489.464)" fill="#6f6d6c"/>
      <path id="Path_237" data-name="Path 237" d="M-504.951,3507l24.414,1.3.326,169.921h-17.9l-9.44-125.325Z" transform="translate(20348.344 2579.497)" fill="url(#linear-gradient)"/>
      <path id="Path_238" data-name="Path 238" d="M-523.053,3571.276l-1.628,17.9,13.346-.977-1.628-17.578Z" transform="translate(20320.871 2681.561)" fill="#fed"/>
      <path id="Path_239" data-name="Path 239" d="M-522.944,3575a15.651,15.651,0,0,0-1.628,15.625h8.789v-3.906a6.35,6.35,0,0,1,2.823.109c1.1.328,3.041,2.8,3.581,2.929,5.26,1.271,7.268,1.518,20.94,1.518,5.859,0,6.62-2.279-1.734-5.643-5.143-2.071-11.937-5.1-17.146-10.633C-507.319,3575-523.269,3575.326-522.944,3575Z" transform="translate(20318.809 2688.579)" fill="#00000f"/>
      <path id="Path_240" data-name="Path 240" d="M-508.655,3508.4l-.326,60.546-15.95,109.374h15.95s44.271-128.254,40.365-172.2Z" transform="translate(20320.469 2578.093)" fill="url(#linear-gradient-2)"/>
      <path id="Path_241" data-name="Path 241" d="M-503.326,3577.1s-22.461-26.366-23.437-37.434-2.93-55.014,23.437-69.011c0,0,12.37-5.86,21.159-3.906s10.742,5.533,14.974,21.809,18.88,87.565,18.88,87.565Z" transform="translate(20316.77 2514.283)" fill="#82c5f3"/>
      <path id="Path_242" data-name="Path 242" d="M-516.431,3512.384s3.906,8.137,4.232,11.393a15.18,15.18,0,0,0,1.953,5.859H-495.6a27.4,27.4,0,0,0-10.091-9.115l-5.859-13.021Z" transform="translate(20334.104 2580.299)" fill="#fed"/>
      <path id="Path_243" data-name="Path 243" d="M-501.374,3531.452c-5.534-11.718-3.581-23.437-2.93-29.622s7.812-26.692-5.859-30.273a8.2,8.2,0,0,0-3.648-.161c-15.287,18.435-13.773,51.062-12.953,60.383.977,11.067,23.437,37.434,23.437,37.434l0,.01,3.747,3.9,8.625-1.629C-490.307,3561.4-495.84,3543.172-501.374,3531.452Z" transform="translate(20316.77 2522.167)" fill="#8ecefb"/>
    </g>
  </g>
</svg>
