<svg xmlns="http://www.w3.org/2000/svg" width="297.923" height="324.119" viewBox="0 0 297.923 324.119">
  <g id="Group_79" data-name="Group 79" opacity="0.23">
    <path id="Path_162" data-name="Path 162" d="M756.994,1789.632s34.888-266.654-19.315-280.982-24.3,201.859.624,253.569c0,0-104.045-312.134-155.757-295.935s-2.491,167.594,138.935,300.92c0,0-141.427-111.522-165.1-130.212s-74.763-24.92-85.353-4.361S542.051,1795.239,756.994,1789.632Z" transform="translate(-470.122 -1465.674)" fill="#773ad7" opacity="0.26"/>
    <g id="Group_78" data-name="Group 78" transform="translate(18.349 29.892)">
      <path id="Path_163" data-name="Path 163" d="M726.307,1703.54S553.728,1618.81,497.034,1559" transform="translate(-497.034 -1414.459)" fill="none" stroke="#773ad7" stroke-miterlimit="10" stroke-width="2"/>
      <path id="Path_164" data-name="Path 164" d="M621.273,1560.667l10.59,40.495s-29.905,1.247-40.5-9.345" transform="translate(-578.907 -1413.011)" fill="none" stroke="#773ad7" stroke-miterlimit="10" stroke-width="2"/>
      <path id="Path_165" data-name="Path 165" d="M592.808,1583.333l17.446,33.643s-41.12-1.868-49.22-5.607" transform="translate(-500.601 -1393.312)" fill="none" stroke="#773ad7" stroke-miterlimit="10" stroke-width="1"/>
      <path id="Path_166" data-name="Path 166" d="M565.694,1594.333l22.429,39.874s-49.22.623-51.089.623" transform="translate(-433.613 -1383.753)" fill="none" stroke="#773ad7" stroke-miterlimit="10" stroke-width="1"/>
      <path id="Path_167" data-name="Path 167" d="M498.368,1481.667s34.266,160.115,128.341,254.815" transform="translate(-399.93 -1481.667)" fill="none" stroke="#773ad7" stroke-miterlimit="10" stroke-width="2"/>
      <path id="Path_168" data-name="Path 168" d="M553.894,1502.333s1.869,34.267-4.985,44.235" transform="translate(-421.813 -1463.706)" fill="none" stroke="#773ad7" stroke-miterlimit="10" stroke-width="1"/>
      <path id="Path_169" data-name="Path 169" d="M589.3,1531.92s-19.937-4.36-34.267-24.921" transform="translate(-468.434 -1459.651)" fill="none" stroke="#773ad7" stroke-miterlimit="10" stroke-width="1"/>
      <path id="Path_170" data-name="Path 170" d="M517.714,1553.583s12.616,42.521,1.869,71.492" transform="translate(-333.299 -1419.167)" fill="none" stroke="#773ad7" stroke-miterlimit="10" stroke-width="1"/>
      <path id="Path_171" data-name="Path 171" d="M557.418,1583.774s-7.009,4.673-26.634-18.69" transform="translate(-391.227 -1409.173)" fill="none" stroke="#773ad7" stroke-miterlimit="10" stroke-width="1"/>
      <path id="Path_172" data-name="Path 172" d="M535.75,1590.066s13.084-36.914-.935-64.483" transform="translate(-382.642 -1443.501)" fill="none" stroke="#773ad7" stroke-miterlimit="10" stroke-width="1"/>
      <path id="Path_173" data-name="Path 173" d="M583,1567.063s-27.1-11.214-39.718-35.979" transform="translate(-440.173 -1438.721)" fill="none" stroke="#773ad7" stroke-miterlimit="10" stroke-width="1"/>
      <path id="Path_174" data-name="Path 174" d="M500.127,1739s-16.354-214.008-20.093-243.913" transform="translate(-239.079 -1470.007)" fill="none" stroke="#773ad7" stroke-miterlimit="10" stroke-width="1"/>
      <path id="Path_175" data-name="Path 175" d="M509.993,1536.776l-15.887,34.578s-15.887-37.849-16.822-42.521" transform="translate(-243.806 -1440.676)" fill="none" stroke="#773ad7" stroke-miterlimit="10" stroke-width="1"/>
      <path id="Path_176" data-name="Path 176" d="M508.437,1563.083c.935,23.363-14.018,48.129-14.018,48.129s-17.756-30.372-19.158-44.858" transform="translate(-238.512 -1410.911)" fill="none" stroke="#773ad7" stroke-miterlimit="10" stroke-width="1"/>
      <path id="Path_177" data-name="Path 177" d="M504.877,1504.268l-7.476,21.027-12.616-21.962" transform="translate(-252.708 -1462.837)" fill="none" stroke="#773ad7" stroke-miterlimit="10" stroke-width="1"/>
    </g>
  </g>
</svg>
