<svg xmlns="http://www.w3.org/2000/svg" width="297.922" height="324.119" viewBox="0 0 297.922 324.119">
  <g id="Group_147" data-name="Group 147" opacity="0.23">
    <path id="Path_162" data-name="Path 162" d="M481.172,1789.632s-34.888-266.654,19.315-280.982,24.3,201.859-.624,253.569c0,0,104.045-312.134,155.756-295.935s2.491,167.594-138.935,300.92c0,0,141.426-111.522,165.1-130.212s74.763-24.92,85.353-4.361S696.114,1795.239,481.172,1789.632Z" transform="translate(-470.121 -1465.674)" fill="#773ad7" opacity="0.26"/>
    <g id="Group_78" data-name="Group 78" transform="translate(9.607 29.892)">
      <path id="Path_163" data-name="Path 163" d="M497.034,1703.54S669.612,1618.81,726.306,1559" transform="translate(-456.34 -1414.459)" fill="none" stroke="#773ad7" stroke-miterlimit="10" stroke-width="2"/>
      <path id="Path_164" data-name="Path 164" d="M601.958,1560.667l-10.59,40.495s29.9,1.247,40.5-9.345" transform="translate(-374.358 -1413.011)" fill="none" stroke="#773ad7" stroke-miterlimit="10" stroke-width="2"/>
      <path id="Path_165" data-name="Path 165" d="M578.48,1583.333l-17.446,33.643s41.119-1.868,49.22-5.607" transform="translate(-400.72 -1393.312)" fill="none" stroke="#773ad7" stroke-miterlimit="10" stroke-width="1"/>
      <path id="Path_166" data-name="Path 166" d="M559.462,1594.333l-22.428,39.874s49.22.623,51.089.623" transform="translate(-421.577 -1383.753)" fill="none" stroke="#773ad7" stroke-miterlimit="10" stroke-width="1"/>
      <path id="Path_167" data-name="Path 167" d="M626.709,1481.667s-34.266,160.115-128.341,254.815" transform="translate(-455.18 -1481.667)" fill="none" stroke="#773ad7" stroke-miterlimit="10" stroke-width="2"/>
      <path id="Path_168" data-name="Path 168" d="M549.142,1502.333s-1.869,34.267,4.985,44.235" transform="translate(-411.257 -1463.706)" fill="none" stroke="#773ad7" stroke-miterlimit="10" stroke-width="1"/>
      <path id="Path_169" data-name="Path 169" d="M555.034,1531.92s19.937-4.36,34.267-24.921" transform="translate(-405.934 -1459.651)" fill="none" stroke="#773ad7" stroke-miterlimit="10" stroke-width="1"/>
      <path id="Path_170" data-name="Path 170" d="M523.919,1553.583s-12.616,42.521-1.869,71.492" transform="translate(-438.367 -1419.167)" fill="none" stroke="#773ad7" stroke-miterlimit="10" stroke-width="1"/>
      <path id="Path_171" data-name="Path 171" d="M530.784,1583.774s7.009,4.673,26.634-18.69" transform="translate(-427.009 -1409.173)" fill="none" stroke="#773ad7" stroke-miterlimit="10" stroke-width="1"/>
      <path id="Path_172" data-name="Path 172" d="M540.364,1590.066s-13.084-36.914.935-64.483" transform="translate(-423.505 -1443.501)" fill="none" stroke="#773ad7" stroke-miterlimit="10" stroke-width="1"/>
      <path id="Path_173" data-name="Path 173" d="M543.284,1567.063s27.1-11.214,39.718-35.979" transform="translate(-416.146 -1438.721)" fill="none" stroke="#773ad7" stroke-miterlimit="10" stroke-width="1"/>
      <path id="Path_174" data-name="Path 174" d="M480.034,1739s16.354-214.008,20.093-243.913" transform="translate(-471.114 -1470.007)" fill="none" stroke="#773ad7" stroke-miterlimit="10" stroke-width="1"/>
      <path id="Path_175" data-name="Path 175" d="M477.284,1536.776l15.887,34.578s15.887-37.849,16.822-42.521" transform="translate(-473.504 -1440.676)" fill="none" stroke="#773ad7" stroke-miterlimit="10" stroke-width="1"/>
      <path id="Path_176" data-name="Path 176" d="M475.3,1563.083c-.935,23.363,14.018,48.129,14.018,48.129s17.756-30.372,19.158-44.858" transform="translate(-475.262 -1410.911)" fill="none" stroke="#773ad7" stroke-miterlimit="10" stroke-width="1"/>
      <path id="Path_177" data-name="Path 177" d="M484.784,1504.268l7.476,21.027,12.616-21.962" transform="translate(-466.986 -1462.837)" fill="none" stroke="#773ad7" stroke-miterlimit="10" stroke-width="1"/>
    </g>
  </g>
</svg>
