<?xml version="1.0" standalone="no"?>
<!DOCTYPE svg PUBLIC "-//W3C//DTD SVG 1.1//EN" "http://www.w3.org/Graphics/SVG/1.1/DTD/svg11.dtd" >
<svg xmlns="http://www.w3.org/2000/svg" xmlns:xlink="http://www.w3.org/1999/xlink" version="1.1">
<metadata>
Created by FontForge 20170731 at Tue Dec 28 09:00:21 2021
 By Aleksey,,,
(c) 2016 Connary Fagen
</metadata>
<defs>
<font id="GreycliffCF-DemiBoldOblique" horiz-adv-x="1179" >
  <font-face 
    font-family="Greycliff CF Demi Bold"
    font-weight="600"
    font-style="oblique"
    font-stretch="normal"
    units-per-em="2048"
    panose-1="0 0 7 0 0 0 0 0 0 0"
    ascent="1638"
    descent="-410"
    x-height="1004"
    cap-height="1434"
    bbox="-418 -513.333 2253.27 1925"
    underline-thickness="102"
    underline-position="-307"
    slope="-8"
    unicode-range="U+0020-FB02"
  />
<missing-glyph horiz-adv-x="1013" 
d="M831 1638v-2027h-643v2027h643zM676 1503h-336v-67h133v-76h-135v-66h338v66h-135v76h135v67zM541 1241h-203v-211h338v70h-135v141zM473 1171v-71h-67v71h67zM676 975h-338v-66h135v-75h-135v-68h203v143h135v66zM676 854h-68v-133h-270v-70h338v203zM676 606h-203v-112
h68v45h67v-95h-202v162h-68v-229h338v229zM676 256h-338v-229h338v229zM608 188v-94h-202v94h202zM676 -20h-338v-66h143l-143 -96v-68h338v68h-207l141 96h66v66z" />
    <glyph glyph-name="fi" unicode="fi" horiz-adv-x="1140" 
d="M670 1004q14 0 23.5 -12t6.5 -25l-16 -117q-3 -25 -29 -25h-219l-110 -800q-6 -25 -31 -25h-154q-13 0 -22.5 11.5t-7.5 25.5l112 788h-114q-13 0 -23 11.5t-8 25.5l16 117q3 25 29 25h125l28 204q43 299 342 299q92 0 156 -39q26 -18 23 -41l-17 -118q-6 -28 -32 -17
q-61 25 -109 25q-76 0 -110 -36t-44 -105l-24 -172h209zM1028 1468q57 0 91 -40t26 -97q-6 -47 -44 -79.5t-87 -32.5q-56 0 -90 39t-25 96q6 47 44 80.5t85 33.5zM1049 1004q13 0 21.5 -11t6.5 -24l-131 -938q-2 -13 -11.5 -22t-23.5 -9h-151q-14 0 -22.5 10t-6.5 21
l133 946q3 27 33 27h152z" />
    <glyph glyph-name="fl" unicode="fl" horiz-adv-x="1163" 
d="M639 1317q-76 0 -110 -36t-44 -105l-24 -172h209q14 0 23.5 -12t6.5 -25l-16 -117q-3 -25 -29 -25h-219l-110 -800q-6 -25 -31 -25h-154q-13 0 -22.5 11.5t-7.5 25.5l112 788h-114q-13 0 -23 11.5t-8 25.5l16 117q3 25 29 25h125l28 204q43 299 342 299q92 0 156 -39
q26 -18 23 -41l-17 -118q-6 -28 -32 -17q-61 25 -109 25zM1141 1495q13 0 21.5 -11t6.5 -24l-200 -1429q-2 -13 -11 -22t-22 -9h-154q-13 0 -21 10t-5 21l200 1437q3 27 33 27h152z" />
    <glyph glyph-name=".notdef" horiz-adv-x="1013" 
d="M831 1638v-2027h-643v2027h643zM676 1503h-336v-67h133v-76h-135v-66h338v66h-135v76h135v67zM541 1241h-203v-211h338v70h-135v141zM473 1171v-71h-67v71h67zM676 975h-338v-66h135v-75h-135v-68h203v143h135v66zM676 854h-68v-133h-270v-70h338v203zM676 606h-203v-112
h68v45h67v-95h-202v162h-68v-229h338v229zM676 256h-338v-229h338v229zM608 188v-94h-202v94h202zM676 -20h-338v-66h143l-143 -96v-68h338v68h-207l141 96h66v66z" />
    <glyph glyph-name=".null" horiz-adv-x="0" 
 />
    <glyph glyph-name="nonmarkingreturn" horiz-adv-x="682" 
 />
    <glyph glyph-name="space" unicode=" " horiz-adv-x="532" 
 />
    <glyph glyph-name="exclam" unicode="!" horiz-adv-x="493" 
d="M444 1309l-182 -869q-6 -30 -35 -30h-55q-14 0 -23 10.5t-8 25.5l62 875q4 58 42 93.5t87 35.5q56 0 90 -41t22 -100zM162 -27q-52 0 -88.5 36.5t-36.5 88.5t36.5 88.5t88.5 36.5t88.5 -36.5t36.5 -88.5t-36.5 -88.5t-88.5 -36.5z" />
    <glyph glyph-name="quotedbl" unicode="&#x22;" horiz-adv-x="602" 
d="M315 1434q16 0 25 -10t6 -27l-76 -387q-6 -31 -32 -31h-97q-15 0 -23.5 11t-6.5 26l43 389q3 29 32 29h129zM592 1434q16 0 25 -10t6 -27l-76 -387q-6 -31 -33 -31h-96q-15 0 -24 11t-7 26l43 389q3 29 33 29h129z" />
    <glyph glyph-name="numbersign" unicode="#" horiz-adv-x="1116" 
d="M1065 1155q14 0 23 -9t8 -22l-17 -106q-1 -13 -12 -22t-25 -9h-139l-53 -375h139q14 0 22 -8.5t7 -21.5l-14 -107q-1 -13 -13 -22t-26 -9h-138l-34 -249q-7 -31 -37 -31h-140q-13 0 -20 8.5t-4 22.5l35 249h-215l-35 -249q-7 -31 -37 -31h-141q-14 0 -21 9t-4 22l35 249
h-139q-13 0 -21 8.5t-6 22.5l16 107q1 13 11 21.5t24 8.5h137l54 375h-138q-13 0 -20.5 8.5t-5.5 22.5l14 106q1 13 11 22t24 9h137l35 248q7 31 37 31h141q14 0 21 -9t4 -22l-35 -248h215l35 248q7 31 37 31h139q14 0 21 -9t4 -22l-35 -248h139zM649 612l53 375h-215
l-53 -375h215z" />
    <glyph glyph-name="dollar" unicode="$" horiz-adv-x="1085" 
d="M612 1243q-111 0 -184.5 -59.5t-73.5 -151.5q0 -45 26.5 -81t70.5 -60t99.5 -49t114 -47t114 -55t99.5 -71.5t70.5 -98.5t26.5 -134q0 -177 -127.5 -302t-312.5 -152l-21 -140q-3 -26 -35 -26h-112q-28 0 -25 28l18 136q-119 16 -212 77.5t-146 145.5q-17 23 6 43l92 84
q22 17 45 -6q69 -69 142.5 -105.5t165.5 -36.5q126 0 215.5 70t89.5 170q0 52 -34 92.5t-88.5 69.5t-120 56t-131.5 60t-120.5 73t-88.5 103.5t-34 143.5q0 173 123 291.5t303 136.5l21 139q3 31 35 31h110q13 0 21 -10t6 -25l-21 -147q167 -39 275 -183q21 -28 4 -45
l-90 -86q-22 -19 -45 4q-70 61 -131.5 89t-139.5 28z" />
    <glyph glyph-name="percent" unicode="%" horiz-adv-x="1449" 
d="M463 1444q118 0 188.5 -80.5t53.5 -196.5q-17 -117 -110 -197.5t-210 -80.5q-116 0 -186.5 81t-53.5 197q17 117 109.5 197t208.5 80zM1219 1436l112 -82l-1100 -1356l-112 84zM442 1300q-55 0 -98.5 -37.5t-52.5 -95.5q-7 -58 26 -95.5t89 -37.5q57 0 101.5 37.5
t51.5 95.5q9 58 -25 95.5t-92 37.5zM1065 545q116 0 186.5 -81.5t53.5 -197.5q-17 -117 -109.5 -196.5t-208.5 -79.5q-117 0 -188 80t-54 196q17 117 110.5 198t209.5 81zM1047 401q-57 0 -102 -38.5t-54 -96.5q-7 -56 27 -93.5t90 -37.5t100 37.5t51 93.5q9 58 -24 96.5
t-88 38.5z" />
    <glyph glyph-name="ampersand" unicode="&#x26;" horiz-adv-x="1355" 
d="M1196 121q22 -26 2 -43l-92 -80q-12 -10 -24.5 -8.5t-20.5 12.5l-133 162q-242 -184 -475 -184q-181 0 -302.5 96t-121.5 264q0 63 21 122t53.5 104t83 90.5t97 78t109.5 70.5q-62 78 -96.5 148t-34.5 147q0 138 112.5 244t274.5 106q141 0 231.5 -85.5t90.5 -207.5
q0 -57 -24.5 -111.5t-72.5 -104t-96.5 -88t-118.5 -85.5l283 -340q14 13 28.5 27.5t32 32.5t27.5 28q26 29 49 2l86 -88q24 -29 2 -51l-102 -100zM457 1100q0 -80 94 -201q109 65 167 123.5t58 124.5q0 52 -39 84.5t-100 32.5q-75 0 -127.5 -46.5t-52.5 -117.5zM471 180
q160 0 334 129l-297 359q-61 -42 -102 -73.5t-80.5 -71t-59.5 -80t-20 -81.5q0 -84 62 -133t163 -49z" />
    <glyph glyph-name="quotesingle" unicode="'" horiz-adv-x="327" 
d="M315 1434q16 0 25 -10t6 -27l-76 -387q-6 -31 -32 -31h-97q-15 0 -23.5 11t-6.5 26l43 389q3 29 32 29h129z" />
    <glyph glyph-name="parenleft" unicode="(" horiz-adv-x="589" 
d="M586 1526q18 0 26.5 -14.5t-2.5 -34.5q-120 -172 -200.5 -384.5t-112.5 -445.5q-71 -492 63 -887q8 -26 -22 -26h-137q-26 0 -41 30q-161 364 -84 908q33 233 112.5 448t198.5 385q16 21 45 21h154z" />
    <glyph glyph-name="parenright" unicode=")" horiz-adv-x="630" 
d="M229 1526h133q26 0 41 -31q80 -172 104.5 -390.5t-9.5 -461.5q-36 -250 -116.5 -477.5t-197.5 -398.5q-22 -33 -63 -33h-141q-21 0 -29.5 14t2.5 33q251 379 323 887q63 466 -67 823q-12 35 20 35z" />
    <glyph glyph-name="asterisk" unicode="*" horiz-adv-x="962" 
d="M809 1157l-223 -59l147 -195l-119 -76l-131 189l-133 -189l-119 76l148 193l-225 61l34 135l230 -69l-6 239h137l-4 -239l231 69zM518 1124l-10 37h-51l-11 -37l37 -30z" />
    <glyph glyph-name="plus" unicode="+" horiz-adv-x="835" 
d="M727 668q14 0 21 -9t4 -22l-15 -107q-1 -13 -11 -21.5t-24 -8.5h-221l-30 -221q-1 -13 -11 -22t-24 -9h-107q-13 0 -20.5 8.5t-5.5 22.5l30 221h-219q-14 0 -21.5 8.5t-4.5 21.5l14 107q1 13 11 22t24 9h221l31 219q2 14 11.5 22.5t22.5 8.5h107q13 0 21 -8.5t6 -22.5
l-31 -219h221z" />
    <glyph glyph-name="comma" unicode="," horiz-adv-x="393" 
d="M168 223q54 0 90.5 -39.5t36.5 -105.5q0 -143 -113 -281q-8 -8 -18 -8h-25q-19 0 -12 21q41 80 41 163q-52 0 -88.5 36.5t-36.5 88.5t36.5 88.5t88.5 36.5z" />
    <glyph glyph-name="hyphen" unicode="-" horiz-adv-x="798" 
d="M676 664q14 0 22.5 -9t8.5 -22v-119q0 -14 -8.5 -22.5t-22.5 -8.5h-553q-13 0 -22 8.5t-9 22.5v119q0 13 9 22t22 9h553z" />
    <glyph glyph-name="period" unicode="." horiz-adv-x="387" 
d="M168 -27q-52 0 -88.5 36.5t-36.5 88.5t36.5 88.5t88.5 36.5t88.5 -36.5t36.5 -88.5t-36.5 -88.5t-88.5 -36.5z" />
    <glyph glyph-name="slash" unicode="/" horiz-adv-x="937" 
d="M983 1526q17 0 25 -12t2 -29l-918 -1733q-9 -18 -35 -18h-157q-18 0 -26 12t-1 29l918 1732q9 19 36 19h156z" />
    <glyph glyph-name="zero" unicode="0" horiz-adv-x="1271" 
d="M729 1450q213 0 344 -151t131 -425q0 -138 -28 -269t-84.5 -245.5t-134.5 -201t-185.5 -136t-230.5 -49.5q-213 0 -344 151.5t-131 426.5q0 137 28.5 268t85 245t135 200.5t185.5 136t229 49.5zM721 1253q-85 0 -159 -41t-126 -110t-90 -159t-56 -189t-18 -199
q0 -178 71 -280.5t206 -102.5q86 0 159.5 40.5t126 109t89.5 158.5t55 189t18 201q0 178 -70.5 280.5t-205.5 102.5z" />
    <glyph glyph-name="one" unicode="1" horiz-adv-x="540" 
d="M508 1434q13 0 23 -11.5t8 -25.5l-193 -1372q-6 -25 -31 -25h-153q-14 0 -23 12t-6 25l170 1218h-168q-14 0 -23 12t-6 25l17 117q3 25 29 25h356z" />
    <glyph glyph-name="two" unicode="2" horiz-adv-x="1021" 
d="M831 180q13 0 23 -11.5t8 -25.5l-16 -118q-3 -25 -29 -25h-829q-32 0 -29 33l21 147l333 303q25 22 73 64q66 58 98 86.5t83.5 76.5t76 75.5t56.5 68t46.5 71t25 66.5t10.5 72q0 86 -57.5 138t-159.5 52q-153 0 -291 -125q-16 -16 -41 9l-83 90q-24 27 0 51
q85 79 195.5 125.5t229.5 46.5q188 0 300 -107.5t112 -273.5q0 -68 -25.5 -136.5t-52.5 -116t-99 -123.5t-107.5 -109t-134.5 -122q-41 -37 -62 -56l-258 -226h583z" />
    <glyph glyph-name="three" unicode="3" horiz-adv-x="1044" 
d="M739 756q88 -40 142.5 -118.5t54.5 -182.5q0 -132 -70 -243t-193 -175t-272 -64q-135 0 -237 49.5t-164 137.5q-18 29 4 45l90 76q17 7 23.5 4.5t23.5 -15.5q37 -32 63 -49.5t79 -34t118 -16.5q135 0 231.5 86t96.5 209q0 89 -73 144.5t-207 56.5q-18 0 -28.5 9t-8.5 23
l16 107q3 31 31 31q144 1 233.5 74.5t89.5 176.5q0 77 -59.5 122.5t-138.5 45.5t-134.5 -26t-123.5 -78q-31 -21 -54 2l-75 84q-21 24 2 47q79 77 183.5 121.5t213.5 44.5q159 0 269 -96t110 -244q0 -107 -62.5 -199t-173.5 -155z" />
    <glyph glyph-name="four" unicode="4" horiz-adv-x="1069" 
d="M940 522q14 0 22.5 -10.5t6.5 -24.5l-17 -118q-3 -27 -32 -27h-138l-43 -313q-3 -29 -32 -29h-154q-14 0 -21.5 10.5t-5.5 24.5l41 307h-518q-13 0 -23 10.5t-8 24.5l19 131q3 22 16 41l647 866q16 19 41 19h160q13 0 23 -11.5t8 -25.5l-123 -875h131zM594 522l82 572
l-418 -572h336z" />
    <glyph glyph-name="five" unicode="5" horiz-adv-x="1075" 
d="M961 1434q14 0 22.5 -9t7.5 -22l-16 -117q-1 -13 -11 -22t-24 -9h-465l-145 -354q32 20 86.5 34.5t113.5 14.5q179 0 297.5 -118t118.5 -300q0 -153 -74 -281t-203.5 -202t-285.5 -74q-140 0 -241.5 62.5t-139.5 146.5q-15 27 10 43l105 70q24 16 47 -14
q85 -111 227 -111q138 0 243 106.5t105 247.5q0 102 -71.5 170t-169.5 68q-141 0 -250 -109q-22 -19 -47 -6l-113 47q-27 14 -16 39l272 674q9 25 37 25h580z" />
    <glyph glyph-name="six" unicode="6" horiz-adv-x="1046" 
d="M520 903q181 0 297.5 -114.5t116.5 -288.5q0 -106 -44 -204.5t-116 -168.5t-168.5 -112t-197.5 -42q-180 0 -297 118.5t-117 293.5q0 206 176 401l590 672q19 22 41 2l100 -82q24 -21 4 -41l-391 -434h6zM424 172q124 0 213.5 93t89.5 222q0 100 -62 163t-161 63
q-123 0 -213 -92.5t-90 -221.5q0 -100 62.5 -163.5t160.5 -63.5z" />
    <glyph glyph-name="seven" unicode="7" horiz-adv-x="946" 
d="M969 1434q14 0 22.5 -12.5t1.5 -26.5l-706 -1368q-15 -27 -41 -27h-148q-14 0 -22 12.5t-2 24.5l635 1218h-574q-13 0 -22 9.5t-7 23.5l17 117q3 29 31 29h815z" />
    <glyph glyph-name="eight" unicode="8" horiz-adv-x="1101" 
d="M758 797q91 -40 149 -128.5t58 -203.5q0 -134 -75.5 -248.5t-197.5 -179t-258 -64.5q-114 0 -209.5 46.5t-155 137.5t-59.5 208q0 148 88 267.5t226 176.5q-62 39 -99 105t-37 143q0 155 125.5 274t309.5 119q161 0 256.5 -92.5t95.5 -227.5q0 -100 -57.5 -189
t-159.5 -144zM379 1055q0 -71 48 -117.5t124 -46.5q94 0 163.5 68.5t69.5 158.5q0 69 -46 114.5t-126 45.5q-97 0 -165 -66.5t-68 -156.5zM451 172q120 0 209.5 81.5t89.5 211.5q0 94 -64.5 152.5t-159.5 58.5q-123 0 -212 -88.5t-89 -206.5q0 -96 64.5 -152.5t161.5 -56.5z
" />
    <glyph glyph-name="nine" unicode="9" horiz-adv-x="1056" 
d="M604 1450q181 0 298.5 -118.5t117.5 -293.5q0 -110 -44.5 -206.5t-131.5 -194.5l-590 -670q-20 -24 -43 -4l-94 80q-23 20 -4 43l387 434h-6q-180 0 -297 115.5t-117 288.5q0 142 74 264t194.5 192t255.5 70zM510 713q124 0 213.5 91.5t89.5 221.5q0 100 -62.5 163.5
t-160.5 63.5q-124 0 -213.5 -93t-89.5 -222q0 -100 61.5 -162.5t161.5 -62.5z" />
    <glyph glyph-name="colon" unicode=":" horiz-adv-x="387" 
d="M291 848q-53 0 -89 36t-36 89t36 89t89 36t89 -36t36 -89t-36 -89t-89 -36zM168 -27q-52 0 -88.5 36.5t-36.5 88.5t36.5 88.5t88.5 36.5t88.5 -36.5t36.5 -88.5t-36.5 -88.5t-88.5 -36.5z" />
    <glyph glyph-name="semicolon" unicode=";" horiz-adv-x="393" 
d="M283 778q-53 0 -89 36t-36 89t36 89t89 36t89 -36t36 -89t-36 -89t-89 -36zM168 223q54 0 90.5 -39.5t36.5 -105.5q0 -143 -113 -281q-8 -8 -18 -8h-25q-19 0 -12 21q41 80 41 163q-52 0 -88.5 36.5t-36.5 88.5t36.5 88.5t88.5 36.5z" />
    <glyph glyph-name="less" unicode="&#x3c;" horiz-adv-x="997" 
d="M893 989q17 7 28 -4t9 -29l-17 -122q-3 -23 -22 -31l-641 -293l549 -295q23 -15 20 -41l-16 -123q-5 -28 -33 -12l-700 389q-26 15 -23 39l14 100q3 21 23 33z" />
    <glyph glyph-name="equal" unicode="=" horiz-adv-x="929" 
d="M778 815q13 0 23 -11.5t8 -25.5l-14 -106q-6 -25 -31 -25h-651q-13 0 -22 11.5t-7 25.5l14 107q3 24 29 24h651zM737 520q14 0 23 -12t6 -25l-14 -106q-3 -25 -29 -25h-651q-14 0 -23 12t-6 25l14 107q3 24 29 24h651z" />
    <glyph glyph-name="greater" unicode="&#x3e;" horiz-adv-x="1038" 
d="M172 983l700 -389q24 -14 21 -39l-14 -100q-3 -23 -21 -33l-809 -389q-17 -7 -28.5 2.5t-8.5 27.5l17 123q6 24 22 33l641 291l-549 297q-11 5 -17 16t-5 23l18 123q3 31 33 14z" />
    <glyph glyph-name="question" unicode="?" horiz-adv-x="1054" 
d="M1030 1108q0 -85 -32 -156t-94 -127t-134.5 -99t-171.5 -85l-39 -205q-6 -26 -33 -26h-114q-15 0 -23 10t-6 24l25 291q3 31 30 39q172 52 269.5 126.5t97.5 189.5q0 71 -56.5 110t-144.5 39q-160 0 -323 -139q-37 -29 -62 12l-59 80q-24 35 2 65q85 87 209.5 140
t253.5 53q175 0 290 -95.5t115 -246.5zM442 223q52 0 88.5 -36.5t36.5 -88.5t-36.5 -88.5t-88.5 -36.5t-88.5 36.5t-36.5 88.5t36.5 88.5t88.5 36.5z" />
    <glyph glyph-name="at" unicode="@" horiz-adv-x="1628" 
d="M930 1450q145 0 269.5 -51t211 -141.5t126 -224.5t17.5 -290q-28 -205 -140 -312t-253 -107q-61 0 -108 23t-70 67q-100 -78 -233 -78q-159 0 -249.5 107.5t-68.5 263.5q22 157 142 264.5t280 107.5q150 0 233 -102l41 61h105l-100 -420q-31 -131 71 -131q133 0 168 256
q18 123 -12 226t-95.5 170t-158.5 104t-201 37t-214 -38t-196.5 -108t-154.5 -179.5t-82 -241.5q-18 -129 15.5 -236.5t103.5 -176.5t164.5 -106.5t201.5 -37.5q165 0 304 84l122 -99q-204 -157 -444 -157q-144 0 -271.5 51.5t-219.5 143t-136 231t-22 303.5q19 135 77 254
t142 206t187.5 150.5t218 95t229.5 31.5zM772 494q93 0 161.5 61.5t80.5 151.5q12 91 -38 153t-142 62q-93 0 -160.5 -62t-79.5 -153t36.5 -152t141.5 -61z" />
    <glyph glyph-name="A" unicode="A" horiz-adv-x="1327" 
d="M1182 33q7 -33 -25 -33h-162q-13 0 -21.5 8.5t-10.5 22.5l-58 272h-590l-135 -278q-10 -25 -37 -25h-168q-17 0 -24.5 13t0.5 28l694 1370q13 23 41 23h154q12 0 21.5 -8.5t12.5 -22.5zM410 496h456l-137 655z" />
    <glyph glyph-name="B" unicode="B" horiz-adv-x="1185" 
d="M844 770q109 -27 176 -110.5t67 -200.5q0 -225 -155 -342t-420 -117h-461q-13 0 -22 11.5t-6 25.5l192 1372q3 25 29 25h463q189 0 282.5 -88t93.5 -224q0 -125 -65.5 -220t-173.5 -132zM870 1100q0 133 -202 133h-256l-54 -379h246q119 0 192.5 69t73.5 177zM530 201
q158 0 248 74.5t90 211.5q0 179 -260 179h-274l-66 -465h262z" />
    <glyph glyph-name="C" unicode="C" horiz-adv-x="1378" 
d="M1141 317l84 -104q24 -31 -4 -53q-241 -187 -510 -187q-184 0 -331 84t-228.5 230t-81.5 327q0 165 68 319.5t180.5 267.5t265 181t315.5 68q284 0 465 -207q25 -29 4 -47l-104 -90q-21 -19 -47 4q-143 123 -328 123q-156 0 -293.5 -85t-218 -226.5t-80.5 -300.5
q0 -187 119.5 -307.5t304.5 -120.5q196 0 366 126q32 23 54 -2z" />
    <glyph glyph-name="D" unicode="D" horiz-adv-x="1329" 
d="M608 1434q162 0 289 -45.5t208 -127t123 -191t42 -241.5q0 -242 -108 -431t-302.5 -293.5t-443.5 -104.5h-365q-13 0 -22 11.5t-6 25.5l192 1372q3 25 29 25h364zM434 201q287 0 450 174.5t163 460.5q0 192 -114.5 294.5t-342.5 102.5h-178l-144 -1032h166z" />
    <glyph glyph-name="E" unicode="E" horiz-adv-x="999" 
d="M973 1434q13 0 23 -11.5t8 -25.5l-19 -140q-5 -24 -31 -24h-540l-56 -383h500q13 0 23 -11.5t8 -25.5l-19 -139q-6 -25 -30 -25h-510l-62 -448h533q14 0 24 -12t9 -25l-21 -139q-3 -25 -29 -25h-733q-13 0 -21.5 11t-6.5 26l192 1368q3 29 35 29h723z" />
    <glyph glyph-name="F" unicode="F" horiz-adv-x="976" 
d="M954 1434q13 0 23 -11.5t8 -25.5l-18 -140q-5 -24 -31 -24h-522l-56 -383h488q13 0 23 -11.5t8 -25.5l-19 -139q-6 -25 -31 -25h-497l-86 -616q-3 -33 -37 -33h-156q-13 0 -21.5 11t-6.5 26l192 1368q3 29 35 29h704z" />
    <glyph glyph-name="G" unicode="G" horiz-adv-x="1529" 
d="M1427 772q19 0 28.5 -12.5t6.5 -32.5l-10 -74q-32 -201 -129 -354t-254.5 -239.5t-355.5 -86.5q-187 0 -334.5 85t-228 232.5t-80.5 330.5q0 164 68 317t181 265t265.5 179.5t314.5 67.5q287 0 463 -207q27 -27 4 -47l-104 -90q-20 -20 -48 4q-143 123 -329 123
q-156 0 -292.5 -84t-216 -224.5t-79.5 -299.5q0 -190 119 -311t309 -121q196 0 334 109.5t168 277.5h-416q-14 0 -23 9.5t-8 22.5l19 129q2 14 10.5 22.5t21.5 8.5h596z" />
    <glyph glyph-name="H" unicode="H" horiz-adv-x="1284" 
d="M1233 1434q14 0 22.5 -10.5t6.5 -24.5l-193 -1366q-3 -33 -37 -33h-155q-13 0 -22 11t-7 26l80 571h-602l-82 -575q-3 -33 -37 -33h-156q-13 0 -21.5 11t-6.5 26l192 1368q3 29 35 29h158q14 0 22 -10.5t6 -24.5l-84 -592h604l84 598q3 29 35 29h158z" />
    <glyph glyph-name="I" unicode="I" horiz-adv-x="458" 
d="M215 1405q3 29 35 29h158q14 0 22 -10.5t6 -24.5l-192 -1366q-3 -33 -37 -33h-156q-13 0 -21.5 11t-6.5 26z" />
    <glyph glyph-name="J" unicode="J" horiz-adv-x="1005" 
d="M76 270q18 18 43 0q46 -35 94.5 -55t118.5 -20q121 0 202 87.5t105 260.5l123 866q3 25 29 25h161q13 0 23 -11.5t8 -25.5l-123 -875q-40 -279 -178.5 -409.5t-357.5 -130.5q-115 0 -202 42t-134 105q-20 27 -4 43z" />
    <glyph glyph-name="K" unicode="K" horiz-adv-x="1241" 
d="M1202 1434q18 0 23 -16t-6 -27l-594 -576l462 -782q20 -33 -14 -33h-190q-22 0 -39 27l-379 632l-154 -151l-67 -475q-3 -33 -37 -33h-156q-13 0 -21.5 11t-6.5 26l192 1368q3 29 35 29h158q14 0 22 -10.5t6 -24.5l-80 -572l598 590q20 17 50 17h198z" />
    <glyph glyph-name="L" unicode="L" horiz-adv-x="927" 
d="M760 201q14 0 24 -12t9 -25l-21 -139q-3 -25 -29 -25h-692q-13 0 -21.5 11t-6.5 26l192 1368q3 29 35 29h158q14 0 22 -10.5t6 -24.5l-168 -1198h492z" />
    <glyph glyph-name="M" unicode="M" horiz-adv-x="1705" 
d="M1653 1434q14 0 22.5 -11t5.5 -26l-192 -1372q-3 -25 -29 -25h-162q-13 0 -22.5 11.5t-7.5 25.5l133 946l-535 -965q-9 -18 -35 -18h-153q-12 0 -21 9t-12 22l-266 958l-135 -964q-3 -25 -31 -25h-162q-13 0 -21.5 11.5t-6.5 25.5l192 1368q3 29 31 29h190q30 0 37 -33
l309 -1147l633 1157q13 23 41 23h197z" />
    <glyph glyph-name="N" unicode="N" horiz-adv-x="1343" 
d="M1288 1434q13 0 23 -11.5t8 -25.5l-193 -1372q-3 -25 -28 -25h-195q-23 0 -35 27l-473 1071l-151 -1073q-3 -25 -29 -25h-162q-13 0 -22.5 11.5t-7.5 25.5l192 1368q4 29 31 29h192q24 0 35 -25l475 -1075l150 1071q3 29 32 29h158z" />
    <glyph glyph-name="O" unicode="O" horiz-adv-x="1624" 
d="M717 -27q-151 0 -280.5 59t-215.5 159.5t-125.5 239.5t-17.5 292q28 200 148.5 367t300.5 263.5t378 96.5q121 0 229 -37.5t190 -107t137.5 -162t77.5 -207.5t5 -238q-28 -198 -149 -365t-301 -263.5t-377 -96.5zM731 186q144 0 274 71.5t215.5 195t104.5 270.5
q19 142 -31.5 260.5t-157 186t-245.5 67.5q-144 0 -274 -71.5t-216 -195.5t-106 -272q-14 -106 13 -201t85 -163t146 -108t192 -40z" />
    <glyph glyph-name="P" unicode="P" horiz-adv-x="1112" 
d="M649 1434q213 0 330 -107t117 -283q0 -235 -157 -379.5t-409 -144.5h-217l-69 -489q-6 -31 -35 -31h-160q-13 0 -21 11.5t-5 25.5l192 1368q3 29 33 29h401zM543 721q153 0 245.5 84t92.5 223q0 205 -258 205h-211l-70 -512h201z" />
    <glyph glyph-name="Q" unicode="Q" horiz-adv-x="1632" 
d="M905 1450q121 0 229 -37.5t190 -107t137.5 -162t77.5 -207.5t5 -238q-34 -244 -207 -436l119 -137q21 -24 2 -43l-123 -105q-21 -21 -43 5l-118 137q-211 -146 -457 -146q-151 0 -280.5 59t-215.5 159.5t-125.5 239.5t-17.5 292q28 200 148.5 367t300.5 263.5t378 96.5z
M1049 596l149 -172q106 131 127 299q19 142 -31.5 260.5t-157 186t-245.5 67.5q-144 0 -274 -71.5t-216 -195.5t-106 -272q-14 -106 13 -201t85 -163t146 -108t192 -40q162 0 307 93l-151 176q-22 26 0 45l117 102q22 17 45 -6z" />
    <glyph glyph-name="R" unicode="R" horiz-adv-x="1150" 
d="M707 541l264 -508q8 -15 2 -24t-25 -9h-166q-24 0 -39 27l-258 493h-172l-69 -489q-6 -31 -35 -31h-160q-13 0 -21 11.5t-5 25.5l192 1368q3 29 33 29h401q213 0 330 -107t117 -283q0 -190 -105 -323.5t-284 -179.5zM412 1233l-70 -512h201q153 0 245.5 84t92.5 223
q0 205 -258 205h-211z" />
    <glyph glyph-name="S" unicode="S" horiz-adv-x="1085" 
d="M354 1032q0 -45 26.5 -81t70.5 -60t99.5 -49t114 -47t114 -55t99.5 -71.5t70.5 -98.5t26.5 -134q0 -133 -77 -241t-198.5 -165t-259.5 -57q-147 0 -261.5 65.5t-176.5 164.5q-17 23 6 43l92 84q22 17 45 -6q69 -69 142.5 -105.5t165.5 -36.5q126 0 215.5 70t89.5 170
q0 52 -34 92.5t-88.5 69.5t-120 56t-131.5 60t-120.5 73t-88.5 103.5t-34 143.5q0 123 66 222.5t174.5 153.5t236.5 54q125 0 226 -52.5t170 -144.5q21 -28 4 -45l-90 -86q-22 -19 -45 4q-70 61 -131.5 89t-139.5 28q-111 0 -184.5 -59.5t-73.5 -151.5z" />
    <glyph glyph-name="T" unicode="T" horiz-adv-x="1073" 
d="M1061 1434q13 0 23 -11.5t8 -25.5l-21 -140q-3 -24 -31 -24h-319l-170 -1200q-3 -33 -37 -33h-156q-13 0 -21.5 11t-6.5 26l168 1196h-314q-13 0 -22.5 11.5t-7.5 25.5l20 139q3 25 29 25h858z" />
    <glyph glyph-name="U" unicode="U" horiz-adv-x="1273" 
d="M1235 1434q13 0 21 -10.5t6 -24.5l-119 -848q-39 -277 -203.5 -427.5t-398.5 -150.5q-117 0 -209.5 39t-154.5 112.5t-86 186t-5 252.5l119 842q3 29 33 29h161q13 0 21 -10.5t6 -24.5l-119 -848q-26 -181 40 -272t204 -91q145 0 245 97t126 278l118 842q3 29 33 29h162z
" />
    <glyph glyph-name="V" unicode="V" horiz-adv-x="1368" 
d="M1167 1411q10 23 37 23h166q17 0 24.5 -13t0.5 -30l-693 -1366q-14 -25 -40 -25h-152q-30 0 -37 31l-307 1374q-6 29 22 29h166q26 0 33 -31l231 -1118z" />
    <glyph glyph-name="W" unicode="W" horiz-adv-x="2224" 
d="M2226 1434q17 0 24 -13t-1 -28l-633 -1370q-10 -23 -39 -23h-160q-29 0 -37 31l-215 1069l-518 -1077q-11 -23 -37 -23h-164q-29 0 -36 31l-244 1374q-6 29 22 29h166q26 0 33 -31l178 -1116l529 1126q12 21 32 21h154q29 0 33 -31l215 -1116l497 1126q8 21 35 21h166z
" />
    <glyph glyph-name="X" unicode="X" horiz-adv-x="1243" 
d="M1229 1434q19 0 26 -13t-4 -28l-508 -670l330 -688q8 -15 2.5 -25t-22.5 -10h-166q-25 0 -37 25l-246 516l-395 -523q-13 -18 -41 -18h-172q-18 0 -25 14t4 27l533 702l-313 656q-8 15 -2 25t24 10h162q27 0 39 -27l229 -481l371 489q16 19 39 19h172z" />
    <glyph glyph-name="Y" unicode="Y" horiz-adv-x="1208" 
d="M1212 1434q19 0 25.5 -13t-4.5 -28l-524 -715l-93 -647q-3 -31 -34 -31h-160q-13 0 -21 10.5t-6 24.5l90 649l-317 713q-7 15 -2 26t22 11h164q26 0 37 -29l234 -514l378 522q15 21 39 21h172z" />
    <glyph glyph-name="Z" unicode="Z" horiz-adv-x="1132" 
d="M1100 1434q13 0 22.5 -11.5t7.5 -25.5l-22 -164l-858 -1032h696q13 0 23 -11.5t8 -25.5l-19 -139q-3 -25 -30 -25h-916q-14 0 -23 11.5t-7 25.5l22 164l858 1032h-657q-13 0 -22 11.5t-7 25.5l19 139q3 25 28 25h877z" />
    <glyph glyph-name="bracketleft" unicode="[" horiz-adv-x="573" 
d="M559 1526q13 0 22 -11t7 -26l-15 -111q-3 -30 -34 -30h-144l-202 -1436h139q15 0 23.5 -11t6.5 -26l-16 -111q-3 -30 -35 -30h-331q-13 0 -23 11.5t-8 25.5l244 1726q3 29 34 29h332z" />
    <glyph glyph-name="backslash" unicode="\" horiz-adv-x="935" 
d="M141 1526h156q12 0 23 -9.5t12 -21.5l428 -1733q4 -17 0 -22.5t-21 -5.5h-155q-12 0 -23 9t-12 21l-430 1733q-3 18 1 23.5t21 5.5z" />
    <glyph glyph-name="bracketright" unicode="]" horiz-adv-x="602" 
d="M225 1526h330q15 0 23.5 -11t7.5 -28l-242 -1723q-3 -30 -39 -30h-328q-15 0 -23.5 10t-6.5 25l16 112q2 14 11 22.5t22 8.5h145l203 1436h-139q-15 0 -23.5 9.5t-7.5 24.5l16 115q6 29 35 29z" />
    <glyph glyph-name="asciicircum" unicode="^" horiz-adv-x="1112" 
d="M1028 657q6 -15 -3 -25.5t-26 -10.5h-122q-25 0 -31 22l-211 596l-377 -596q-16 -22 -41 -22h-123q-17 0 -21.5 10.5t7.5 25.5l491 754q16 23 41 23h101q22 0 32 -23z" />
    <glyph glyph-name="underscore" unicode="_" horiz-adv-x="1210" 
d="M965 0q14 0 23.5 -12t6.5 -25l-16 -119q-3 -24 -29 -24h-962q-14 0 -24 12t-9 25l18 118q3 25 29 25h963z" />
    <glyph glyph-name="grave" unicode="`" horiz-adv-x="387" 
d="M190 1491h129q26 0 33 -31l88 -258q4 -17 -0.5 -22.5t-21.5 -5.5h-129q-26 0 -33 30l-88 258q-4 17 0.5 23t21.5 6z" />
    <glyph glyph-name="a" unicode="a" 
d="M1096 1004q13 0 22.5 -11.5t7.5 -25.5l-133 -942q-3 -25 -28 -25h-140q-13 0 -21.5 11.5t-6.5 25.5l4 92q-149 -156 -340 -156q-192 0 -310 129t-118 324q0 157 73.5 295t202.5 221.5t281 83.5q201 0 313 -170l25 121q6 27 30 27h138zM498 170q94 0 177 54.5t132 145
t49 191.5q0 115 -71 191.5t-187 76.5q-147 0 -252.5 -115.5t-105.5 -275.5q0 -118 71 -193t187 -75z" />
    <glyph glyph-name="b" unicode="b" horiz-adv-x="1187" 
d="M666 1026q193 0 311.5 -128t118.5 -323q0 -160 -74.5 -298.5t-203.5 -221t-279 -82.5q-203 0 -312 166l-26 -114q-3 -14 -9.5 -19.5t-19.5 -5.5h-143q-13 0 -21.5 10t-5.5 21l201 1437q3 27 33 27h151q13 0 22 -11.5t7 -23.5l-86 -586q149 152 336 152zM530 170
q145 0 253 118t108 273q0 115 -72 191.5t-188 76.5q-148 0 -253.5 -115.5t-105.5 -275.5q0 -118 71 -193t187 -75z" />
    <glyph glyph-name="c" unicode="c" horiz-adv-x="1032" 
d="M500 172q87 0 146 28.5t112 78.5q22 23 45 0l84 -91q10 -10 10.5 -23.5t-12.5 -27.5q-82 -77 -187 -120.5t-219 -43.5q-197 0 -321.5 129.5t-124.5 327.5q0 159 77.5 296t210 218.5t287.5 81.5q118 0 210 -49t153 -137q19 -27 -2 -43l-101 -80q-9 -7 -21.5 -5t-21.5 11
q-48 51 -98.5 78.5t-130.5 27.5q-149 0 -253.5 -115t-104.5 -272q0 -122 71 -196t191 -74z" />
    <glyph glyph-name="d" unicode="d" 
d="M1165 1495q13 0 22 -11.5t7 -23.5l-201 -1435q-3 -25 -28 -25h-140q-13 0 -22.5 11.5t-7.5 25.5l8 92q-149 -156 -342 -156q-142 0 -246.5 72t-151 195.5t-26.5 271.5q31 218 187.5 366t363.5 148q196 0 305 -162l88 604q3 27 33 27h151zM498 170q94 0 177 54.5t132 145
t49 191.5q0 115 -71 191.5t-187 76.5q-147 0 -252.5 -115.5t-105.5 -275.5q0 -118 71 -193t187 -75z" />
    <glyph glyph-name="e" unicode="e" horiz-adv-x="1107" 
d="M598 1026q108 0 194 -41.5t138 -111.5t74 -162t8 -193q-8 -58 -21.5 -79t-52.5 -21h-702q0 -123 73.5 -194.5t204.5 -71.5q136 0 258 90q24 18 45 -6l62 -70q25 -29 0 -49q-167 -144 -390 -144q-152 0 -263.5 72t-160.5 194.5t-28 272.5q31 219 190 366.5t371 147.5z
M586 842q-115 0 -204 -75t-124 -200h571q9 125 -58.5 200t-184.5 75z" />
    <glyph glyph-name="f" unicode="f" horiz-adv-x="776" 
d="M895 1362q12 -20 -4 -33l-72 -61q-12 -9 -35 0q-73 49 -147 49q-72 0 -107 -37t-45 -104l-22 -172h196q14 0 23 -12t6 -25l-16 -117q-3 -25 -29 -25h-205l-114 -800q-3 -25 -29 -25h-154q-13 0 -22.5 11.5t-7.5 25.5l112 788h-114q-13 0 -23 11.5t-8 25.5l16 117
q3 25 29 25h125l28 204q20 150 109 224.5t238 74.5q100 0 169 -42t103 -103z" />
    <glyph glyph-name="g" unicode="g" horiz-adv-x="1177" 
d="M1096 1004q13 0 22.5 -11.5t7.5 -25.5l-135 -957q-13 -91 -55 -164.5t-99 -119.5t-129.5 -76.5t-142.5 -43t-141 -12.5q-121 0 -223.5 32t-169.5 85q-28 22 -11 45l52 78q16 21 43 8q134 -67 301 -67q60 0 119.5 14t115 43t94 80.5t48.5 118.5l16 119
q-153 -156 -346 -156q-192 0 -311 127.5t-119 318.5q0 153 74.5 288.5t203 216.5t277.5 81q204 0 315 -168l23 121q6 25 30 25h140zM502 190q96 0 178 53.5t128 139t46 178.5q0 115 -73 191.5t-189 76.5q-145 0 -248.5 -109.5t-103.5 -258.5q0 -119 73.5 -195t188.5 -76z
" />
    <glyph glyph-name="h" unicode="h" horiz-adv-x="1095" 
d="M674 1026q164 0 250 -111t57 -307l-80 -577q-2 -13 -11.5 -22t-23.5 -9h-151q-14 0 -22.5 10t-6.5 21l78 557q18 124 -27 182.5t-137 58.5q-62 0 -120.5 -28t-96 -66.5t-60.5 -73.5t-26 -53l-82 -577q-2 -13 -11 -22t-22 -9h-153q-13 0 -21.5 10t-5.5 21l201 1437
q3 27 33 27h151q13 0 22 -11.5t7 -23.5l-90 -618q145 184 348 184z" />
    <glyph glyph-name="i" unicode="i" horiz-adv-x="413" 
d="M287 1219q-56 0 -90 39t-25 96q6 47 44 80.5t85 33.5q57 0 91 -40t26 -97q-6 -47 -44 -79.5t-87 -32.5zM137 977q3 27 33 27h152q13 0 21.5 -11t6.5 -24l-131 -938q-2 -13 -11.5 -22t-23.5 -9h-151q-14 0 -22.5 10t-6.5 21z" />
    <glyph glyph-name="j" unicode="j" horiz-adv-x="552" 
d="M426 1219q-56 0 -90 39t-25 96q6 47 44 80.5t85 33.5q57 0 91 -40t26 -97q-6 -47 -44 -79.5t-87 -32.5zM307 1004h154q13 0 22 -11.5t6 -25.5l-133 -957q-30 -205 -139 -307.5t-280 -108.5q-13 0 -22 7.5t-7 15.5l-27 158q-3 16 8 18q103 6 171.5 70t86.5 188l129 928
q6 25 31 25z" />
    <glyph glyph-name="k" unicode="k" horiz-adv-x="1048" 
d="M985 1004q20 0 28 -14t-5 -27l-422 -385l340 -547q22 -31 -15 -31h-166q-23 0 -34 25l-273 419l-188 -172l-35 -241q-2 -13 -11 -22t-22 -9h-153q-13 0 -21.5 10t-5.5 21l201 1437q3 27 33 27h151q13 0 22 -11.5t7 -23.5l-129 -923l483 450q17 17 41 17h174z" />
    <glyph glyph-name="l" unicode="l" horiz-adv-x="409" 
d="M203 1468q3 27 33 27h151q13 0 22 -11.5t7 -23.5l-201 -1429q-2 -13 -11 -22t-22 -9h-153q-13 0 -21.5 10t-5.5 21z" />
    <glyph glyph-name="m" unicode="m" horiz-adv-x="1781" 
d="M1350 1026q171 0 258.5 -110.5t58.5 -307.5l-80 -577q-2 -13 -11.5 -22t-23.5 -9h-151q-14 0 -22.5 10t-6.5 21l78 557q18 124 -27.5 182.5t-136.5 58.5q-66 0 -124.5 -25t-95.5 -62t-59 -75.5t-26 -70.5l-80 -565q-2 -13 -11 -22t-22 -9h-153q-13 0 -21 10t-6 21l78 557
q18 124 -28 182.5t-138 58.5q-62 0 -120.5 -28t-96 -66.5t-60.5 -73.5t-26 -53l-80 -577q-2 -13 -11.5 -22t-23.5 -9h-151q-14 0 -22.5 10t-6.5 21l133 946q3 27 33 27h141q13 0 22 -11.5t9 -25.5l-12 -125q67 84 155.5 134t190.5 50q110 0 187 -51.5t106 -145.5
q148 197 383 197z" />
    <glyph glyph-name="n" unicode="n" horiz-adv-x="1097" 
d="M674 1026q164 0 250 -110.5t59 -307.5l-82 -577q-2 -13 -11 -22t-22 -9h-153q-13 0 -21 10t-6 21l78 557q18 124 -28 182.5t-138 58.5q-62 0 -120.5 -28t-96 -66.5t-60.5 -73.5t-26 -53l-80 -577q-2 -13 -11.5 -22t-23.5 -9h-151q-14 0 -22.5 10t-6.5 21l133 946
q3 27 33 27h141q13 0 22 -11.5t9 -25.5l-12 -125q67 84 155.5 134t190.5 50z" />
    <glyph glyph-name="o" unicode="o" horiz-adv-x="1161" 
d="M485 -27q-198 0 -325 130.5t-127 328.5q0 157 79.5 294t213.5 218.5t288 81.5q199 0 327 -130t128 -327q0 -156 -79 -293.5t-214.5 -220t-290.5 -82.5zM502 172q148 0 254 116t106 273q0 120 -72.5 194t-189.5 74q-148 0 -255 -116.5t-107 -274.5q0 -119 73 -192.5
t191 -73.5z" />
    <glyph glyph-name="p" unicode="p" horiz-adv-x="1189" 
d="M672 1026q139 0 242.5 -72t150 -195.5t25.5 -271.5q-19 -142 -97 -259.5t-197.5 -186t-254.5 -68.5q-197 0 -308 158l-71 -496q-3 -24 -31 -24h-154q-13 0 -22.5 11.5t-7.5 25.5l188 1329q3 27 33 27h135q13 0 23 -11.5t8 -25.5l-10 -99q148 158 348 158zM530 170
q145 0 253 118t108 273q0 115 -72 191.5t-188 76.5q-148 0 -253.5 -115.5t-105.5 -275.5q0 -118 71 -193t187 -75z" />
    <glyph glyph-name="q" unicode="q" 
d="M1094 1004q13 0 23.5 -11.5t8.5 -25.5l-188 -1332q-3 -24 -29 -24h-153q-13 0 -23 11.5t-8 25.5l70 473q-145 -148 -334 -148q-142 0 -246.5 72t-151 195.5t-26.5 271.5q31 218 187.5 366t363.5 148q104 0 183 -45.5t128 -122.5l27 121q3 14 9 19.5t19 5.5h140zM489 170
q133 0 237.5 101t125.5 243q19 131 -52 223t-198 92q-134 0 -237 -97t-123 -243q-20 -137 50 -228t197 -91z" />
    <glyph glyph-name="r" unicode="r" horiz-adv-x="708" 
d="M721 979q22 -22 10 -37l-59 -108q-10 -20 -39 -13q-31 8 -78 8q-99 0 -171.5 -65.5t-86.5 -161.5l-80 -571q-2 -13 -11.5 -22t-23.5 -9h-151q-14 0 -22.5 10t-6.5 21l133 946q3 27 33 27h139q13 0 23 -11.5t8 -25.5l-6 -88q108 147 262 147q80 0 127 -47z" />
    <glyph glyph-name="s" unicode="s" horiz-adv-x="862" 
d="M287 727q0 -31 19.5 -56t51.5 -41t73 -33.5t84 -32t84 -38t73 -51.5t51.5 -71.5t19.5 -98.5q0 -99 -59 -176.5t-149 -116.5t-191 -39q-122 0 -213.5 51.5t-142.5 125.5q-15 25 -2 38l65 72q18 18 43 -4q132 -98 254 -98q79 0 134 37t55 102q0 34 -25 61t-65 46.5
t-88.5 38t-97.5 42t-89 52.5t-65 75t-25 105q0 95 52.5 166.5t135.5 107t181 35.5q93 0 177.5 -43t135.5 -117q17 -26 2 -41l-64 -67q-15 -15 -34 2q-62 49 -109.5 69.5t-105.5 20.5q-70 0 -118 -33t-48 -90z" />
    <glyph glyph-name="t" unicode="t" horiz-adv-x="677" 
d="M625 1004q14 0 23.5 -11t6.5 -26l-16 -111q-5 -31 -37 -31h-141l-111 -794q-2 -13 -11.5 -22t-23.5 -9h-151q-14 0 -22.5 10t-6.5 21l113 794h-139q-14 0 -24 11t-7 26l16 113q5 29 37 29h141l39 280q3 27 33 27h152q13 0 21.5 -11t6.5 -24l-39 -272h140z" />
    <glyph glyph-name="u" unicode="u" horiz-adv-x="1087" 
d="M993 1004q14 0 23 -12t6 -25l-131 -942q-3 -25 -29 -25h-145q-13 0 -23 11.5t-8 25.5l8 106q-139 -170 -325 -170q-176 0 -265.5 111t-60.5 309l82 586q3 25 29 25h153q13 0 23 -11.5t8 -25.5l-78 -553q-18 -124 29.5 -184t140.5 -60q61 0 117.5 25t93.5 61.5t60 73.5
t26 65l82 584q6 25 31 25h153z" />
    <glyph glyph-name="v" unicode="v" horiz-adv-x="1083" 
d="M846 977q14 27 41 27h155q18 0 27 -12t0 -29l-510 -945q-9 -18 -37 -18h-157q-12 0 -22 9.5t-13 21.5l-244 944q-7 29 23 29h153q30 0 37 -31l172 -723z" />
    <glyph glyph-name="w" unicode="w" horiz-adv-x="1796" 
d="M1755 1004q18 0 26 -12t1 -29l-486 -940q-10 -23 -39 -23h-149q-13 0 -24.5 9.5t-14.5 21.5l-168 692l-369 -703q-10 -20 -36 -20h-154q-13 0 -23 9.5t-12 21.5l-221 942q-6 31 23 31h149q12 0 21.5 -9t11.5 -20l160 -729l374 737q12 21 37 21h137q12 0 23 -9.5t14 -21.5
l168 -727l363 735q13 23 39 23h149z" />
    <glyph glyph-name="x" unicode="x" horiz-adv-x="1021" 
d="M854 31q19 -31 -16 -31h-174q-23 0 -35 27l-166 321l-258 -334q-12 -14 -37 -14h-174q-19 0 -27 14t2 29l396 471l-242 459q-8 15 -5 23t21 8h174q23 0 35 -27l154 -297l241 309q11 15 35 15h174q19 0 28 -14t-3 -29l-377 -447z" />
    <glyph glyph-name="y" unicode="y" horiz-adv-x="1085" 
d="M1044 1004q18 0 27 -12t0 -29l-715 -1330q-12 -22 -41 -22h-151q-17 0 -24.5 13t1.5 28l193 344l-248 979q-6 29 23 29h155q11 0 20.5 -9t12.5 -20l174 -725l377 731q13 23 39 23h157z" />
    <glyph glyph-name="z" unicode="z" horiz-adv-x="942" 
d="M922 967l-19 -125q-4 -27 -14 -37l-649 -627h534q14 0 24 -12t7 -25l-17 -116q-3 -25 -28 -25h-768q-13 0 -23 11.5t-8 25.5l19 125q4 27 14 37l649 626h-534q-13 0 -23 11.5t-8 25.5l16 117q3 25 29 25h768q13 0 23 -11.5t8 -25.5z" />
    <glyph glyph-name="braceleft" unicode="{" horiz-adv-x="583" 
d="M608 1526q14 0 23 -10t8 -23l-16 -119q-3 -26 -31 -26h-41q-32 0 -56.5 -22t-29.5 -54l-68 -492q-2 -17 -16 -37l-88 -108q-10 -13 -2 -29l53 -102q11 -21 8 -39l-69 -490q-9 -63 57 -63h41q14 0 24 -10t9 -23l-19 -119q-3 -26 -33 -26h-155q-72 0 -119.5 48t-36.5 136
l78 551q4 26 -2 37l-55 112q-6 14 2 25l84 121q17 29 18 39l78 551q11 87 66.5 129.5t128.5 42.5h159z" />
    <glyph glyph-name="bar" unicode="|" horiz-adv-x="460" 
d="M244 1608q7 30 37 30h161q14 0 21 -8.5t4 -21.5l-274 -1966q-7 -31 -37 -31h-164q-14 0 -21 9t-4 22z" />
    <glyph glyph-name="braceright" unicode="}" horiz-adv-x="636" 
d="M203 1526h157q72 0 119.5 -48.5t34.5 -136.5l-76 -553q-4 -24 0 -32l56 -113q11 -20 -5 -39l-81 -112q-17 -20 -19 -37l-76 -549q-13 -88 -67 -130t-127 -42h-160q-15 0 -24.5 8.5t-8.5 21.5l17 119q3 29 32 29h39q32 0 56.5 22t29.5 54l70 489q4 29 16 41l88 105
q10 12 2 28l-53 107q-10 20 -8 35l68 491q9 64 -58 64h-41q-13 0 -21.5 9t-6.5 23l16 119q3 27 31 27z" />
    <glyph glyph-name="asciitilde" unicode="~" horiz-adv-x="958" 
d="M289 733q48 1 87.5 -14.5t66.5 -38t51.5 -45t53.5 -38.5t60 -17q43 1 74 24.5t43 54.5q12 9 25 7h51q11 2 18 -8t6 -27q-21 -93 -83.5 -141t-143.5 -48q-49 0 -89.5 16t-68 38.5t-52.5 45t-54 38.5t-60 16q-42 0 -73 -23t-45 -55q-6 -8 -23 -8h-53q-11 0 -18 11.5
t-3 27.5q25 92 86.5 139t143.5 45z" />
    <glyph glyph-name="exclamdown" unicode="&#xa1;" horiz-adv-x="489" 
d="M281 1092q53 0 89 -36t36 -89t-36 -89t-89 -36t-89 36t-36 89t36 89t89 36zM227 -256q-3 -58 -40.5 -93.5t-88.5 -35.5q-55 0 -89 41t-21 100l184 877q3 14 9.5 18t21.5 4h57q14 0 23 -9.5t8 -24.5z" />
    <glyph glyph-name="cent" unicode="&#xa2;" horiz-adv-x="1030" 
d="M991 977q19 -27 -2 -43l-100 -78q-9 -7 -21.5 -5t-21.5 11q-28 28 -47.5 44.5t-54.5 33.5t-74 23l-88 -637q104 16 196 100q22 22 45 0l84 -88q10 -10 10.5 -23t-12.5 -26q-156 -143 -352 -160l-25 -180q-5 -31 -34 -31h-91q-13 0 -20.5 9.5t-5.5 23.5l26 184
q-158 31 -254 151t-96 289q0 214 143 380.5t351 197.5l35 250q3 31 34 31h89q14 0 21.5 -11t4.5 -26l-35 -242q188 -26 295 -178zM258 588q0 -95 46 -162t126 -92l88 618q-114 -35 -187 -136.5t-73 -227.5z" />
    <glyph glyph-name="sterling" unicode="&#xa3;" horiz-adv-x="1116" 
d="M1053 1229q25 -36 0 -58l-68 -69q-19 -16 -31.5 -14t-31.5 18q-76 73 -133 100t-138 27q-95 0 -168 -60t-86 -161q-5 -20 -2.5 -46.5t4 -41.5t9.5 -39t13.5 -38t15.5 -38.5t16 -40.5h446q13 0 23 -11.5t8 -25.5l-19 -139q-6 -25 -30 -25h-396q0 -35 -6 -78
q-24 -163 -176 -292l567 4q14 0 24 -12t9 -25l-20 -139q-3 -25 -29 -25h-838q-13 0 -22.5 11.5t-7.5 25.5l20 168q40 19 78 45t78 65t68.5 94t37.5 117q4 28 4 41h-178q-13 0 -23 11.5t-8 25.5l19 139q3 25 31 25h108q-29 71 -41 136.5t0 152.5q16 111 85.5 201.5t171 141
t212.5 50.5q247 0 404 -221z" />
    <glyph glyph-name="currency" unicode="&#xa4;" horiz-adv-x="1089" 
d="M1108 1325l-111 -96q59 -112 41 -254q-18 -136 -108 -250l80 -94l-133 -115l-76 90q-136 -90 -287 -90q-149 0 -258 88l-100 -88l-101 115l105 92q-57 111 -39 252q18 138 112 256l-79 94l133 115l78 -92q128 86 278 86q149 0 258 -88l107 94zM264 975q-12 -79 17 -151
t96.5 -118.5t157.5 -46.5q137 0 241.5 96.5t122.5 219.5q10 78 -19.5 150t-97 119.5t-157.5 47.5q-137 0 -241 -97.5t-120 -219.5z" />
    <glyph glyph-name="yen" unicode="&#xa5;" horiz-adv-x="1212" 
d="M1233 1393l-524 -715l-2 -6h167q14 0 22.5 -9t8.5 -22v-106q0 -13 -8.5 -22t-22.5 -9h-190l-12 -86h166q13 0 21.5 -8.5t8.5 -22.5v-106q0 -14 -8.5 -22.5t-21.5 -8.5h-191l-31 -219q-3 -31 -34 -31h-160q-13 0 -21 10.5t-6 24.5l31 215h-156q-13 0 -21.5 8.5t-8.5 22.5
v106q0 14 8.5 22.5t21.5 8.5h179l12 86h-154q-13 0 -22 9t-9 22v106q0 13 9 22t22 9h176l2 12l-317 713q-7 15 -2 26t22 11h164q26 0 37 -29l234 -514l378 522q15 21 39 21h172q19 0 25.5 -13t-4.5 -28z" />
    <glyph glyph-name="brokenbar" unicode="&#xa6;" horiz-adv-x="460" 
d="M442 1638q14 0 21 -8.5t4 -21.5l-80 -574q-1 -13 -11 -21.5t-24 -8.5h-162q-29 0 -26 30l80 574q7 30 37 30h161zM246 246q13 0 20.5 -8.5t5.5 -22.5l-79 -573q-7 -31 -37 -31h-164q-14 0 -21 9t-4 22l82 573q1 13 11 22t24 9h162z" />
    <glyph glyph-name="section" unicode="&#xa7;" horiz-adv-x="1347" 
d="M862 1427q-111 0 -180.5 -48.5t-81.5 -131.5q-9 -61 26.5 -105.5t98 -73t139.5 -54.5t153 -59.5t136.5 -78t91.5 -120t17 -176.5q-17 -112 -82.5 -196.5t-167.5 -137.5q-46 -158 -199 -251t-338 -93q-164 0 -287.5 67t-191.5 168q-19 27 8 58l80 90q18 17 30.5 16.5
t30.5 -18.5q83 -83 165 -124.5t200 -41.5q122 0 201 51.5t92 146.5q7 49 -13.5 87t-60.5 64.5t-93 48.5t-112.5 43.5t-119 45t-111 56.5t-89.5 74.5t-55 103.5t-6 139q15 110 80 196t166 134q45 151 183 241t317 90q133 0 243.5 -55t188.5 -158q21 -26 -12 -59l-72 -80
q-26 -29 -63 0q-84 76 -150.5 108.5t-161.5 32.5zM1038 586q8 53 -16.5 93.5t-71.5 67.5t-107 50t-127 47.5t-127 51.5t-112 70t-78 97q-28 -39 -34 -86q-7 -52 17.5 -92t72 -67t107.5 -49.5t127.5 -47t127.5 -52t111.5 -71.5t77.5 -100q26 41 32 88z" />
    <glyph glyph-name="dieresis" unicode="&#xa8;" horiz-adv-x="661" 
d="M205 1214q-51 0 -82.5 37.5t-24.5 89.5q6 43 41 73t78 30q51 0 83 -37t26 -88q-6 -44 -42 -74.5t-79 -30.5zM616 1214q-51 0 -82 37.5t-24 89.5q6 43 41 73t78 30q51 0 82.5 -37t23.5 -88q-6 -44 -41 -74.5t-78 -30.5z" />
    <glyph glyph-name="copyright" unicode="&#xa9;" horiz-adv-x="1329" 
d="M604 279q-159 0 -283.5 78t-184.5 213t-38 294t120 294t244.5 213.5t305.5 78.5t283.5 -78.5t184.5 -213.5t38 -294t-120 -294t-244.5 -213t-305.5 -78zM623 420q184 0 329.5 129.5t171.5 314.5q26 186 -83 316.5t-293 130.5t-330 -130.5t-172 -316.5
q-26 -185 83.5 -314.5t293.5 -129.5zM852 659q19 -22 -6 -43q-86 -65 -195 -65q-129 0 -207 90.5t-59 222.5q19 133 122.5 224.5t231.5 91.5q107 0 176 -66q22 -19 -6 -43l-45 -43q-16 -16 -43 -2q-44 29 -96 29q-78 0 -139 -55.5t-72 -135.5q-12 -79 34 -133.5t124 -54.5
q50 0 104 26q28 16 43 -2z" />
    <glyph glyph-name="ordfeminine" unicode="&#xaa;" horiz-adv-x="870" 
d="M768 1434h137l-104 -736h-137l-7 80q-96 -80 -221 -80q-155 0 -248 109t-71 264t146.5 264t279.5 109q124 0 198 -80zM459 854q91 0 164 63t86 154q12 92 -43 155.5t-146 63.5q-92 0 -164 -63.5t-86 -155.5q-12 -91 42.5 -154t146.5 -63z" />
    <glyph glyph-name="guillemotleft" unicode="&#xab;" horiz-adv-x="735" 
d="M90 655q4 25 21 37l237 185q15 12 26.5 3.5t8.5 -28.5l-14 -98q-3 -22 -21 -37l-176 -129l133 -139q20 -23 17 -41l-15 -97q-2 -11 -7.5 -15.5t-13 -2t-14.5 9.5l-186 184q-17 20 -14 41zM424 655q4 26 20 37l238 185q15 12 26.5 3.5t8.5 -28.5l-15 -98q-3 -23 -20 -37
l-176 -129l133 -139q19 -22 16 -41l-14 -97q-2 -11 -7.5 -15.5t-13 -2t-14.5 9.5l-186 184q-17 20 -14 41z" />
    <glyph glyph-name="logicalnot" unicode="&#xac;" horiz-adv-x="1046" 
d="M868 629q13 0 23 -11.5t8 -25.5l-39 -285q-5 -24 -31 -24h-151q-13 0 -23 11t-8 25l21 132h-582q-13 0 -23 11t-8 25l17 117q3 25 28 25h768z" />
    <glyph glyph-name="uni00AD" unicode="&#xad;" horiz-adv-x="798" 
d="M676 664q14 0 22.5 -9t8.5 -22v-119q0 -14 -8.5 -22.5t-22.5 -8.5h-553q-13 0 -22 8.5t-9 22.5v119q0 13 9 22t22 9h553z" />
    <glyph glyph-name="registered" unicode="&#xae;" horiz-adv-x="1329" 
d="M768 1450q159 0 283.5 -78.5t184.5 -213.5t38 -294t-120 -294t-244.5 -213t-305.5 -78t-283.5 78t-184.5 213t-38 294t120 294t244.5 213.5t305.5 78.5zM1124 864q26 186 -83 316.5t-293 130.5t-330 -130.5t-172 -316.5q-26 -185 83.5 -314.5t293.5 -129.5t329.5 129.5
t171.5 314.5zM772 1149q110 0 166 -49t43 -144q-10 -75 -60 -121.5t-130 -60.5l135 -170q6 -8 1.5 -15t-16.5 -7h-106q-11 0 -21 10l-135 176h-100l-25 -168q-4 -18 -18 -18h-90q-8 0 -12 5.5t-3 12.5l74 530q4 19 21 19h276zM854 956q6 39 -17.5 61.5t-76.5 22.5h-172
l-25 -166h174q52 0 83 23t34 59z" />
    <glyph glyph-name="macron" unicode="&#xaf;" horiz-adv-x="669" 
d="M725 1434q13 0 23 -11.5t8 -25.5l-17 -109q-3 -24 -28 -24h-588q-14 0 -23 10.5t-8 23.5l17 111q3 25 28 25h588z" />
    <glyph glyph-name="degree" unicode="&#xb0;" horiz-adv-x="806" 
d="M489 1473q125 0 200.5 -87t58.5 -210q-17 -126 -118.5 -215t-226.5 -89q-124 0 -199.5 89t-58.5 215q17 123 118 210t226 87zM469 1335q-70 0 -121.5 -47.5t-60.5 -111.5q-8 -66 30 -115t107 -49q71 0 122.5 49t59.5 115q9 64 -28.5 111.5t-108.5 47.5z" />
    <glyph glyph-name="plusminus" unicode="&#xb1;" horiz-adv-x="876" 
d="M743 686q13 0 23 -11.5t8 -25.5l-14 -106q-3 -25 -31 -25h-225l-31 -227q-3 -25 -29 -25h-106q-14 0 -24 12t-7 25l29 215h-215q-13 0 -23 11.5t-8 25.5l14 107q5 24 29 24h227l31 227q6 25 31 25h106q14 0 23 -12t6 -25l-29 -215h215zM690 168q14 0 24 -12t9 -25
l-16 -106q-3 -25 -29 -25h-651q-13 0 -23 11.5t-8 25.5l16 106q3 25 29 25h649z" />
    <glyph glyph-name="uni00B2" unicode="&#xb2;" horiz-adv-x="538" 
d="M346 1442q69 0 113.5 -46.5t36.5 -107.5q-4 -29 -14.5 -52.5t-37.5 -54t-47 -49.5t-71 -65l-111 -100h242l-11 -66h-344l11 66l159 141q97 89 115 112q26 32 31 68q6 37 -19 63.5t-63 26.5q-39 0 -71.5 -26.5t-39.5 -75.5l-4 -29h-76l5 29q10 72 67.5 119t128.5 47z" />
    <glyph glyph-name="uni00B3" unicode="&#xb3;" horiz-adv-x="528" 
d="M354 1440q66 0 109 -42t35 -98q-10 -65 -76 -108q35 -16 53.5 -50.5t11.5 -84.5q-9 -69 -71.5 -116.5t-139.5 -47.5q-83 0 -128.5 55.5t-30.5 130.5h78q-11 -48 15.5 -84.5t76.5 -36.5q45 0 81 28t42 71q9 56 -28 78.5t-110 17.5l9 61q131 3 141 86q4 32 -18.5 54
t-59.5 22q-44 0 -74.5 -30t-36.5 -84h-75q7 77 63.5 127.5t132.5 50.5z" />
    <glyph glyph-name="acute" unicode="&#xb4;" horiz-adv-x="339" 
d="M406 1491q18 0 26 -12t0 -29l-160 -258q-7 -12 -13.5 -15t-20.5 -3h-129q-18 0 -27 11.5t0 28.5l160 259q7 12 13.5 15t20.5 3h130z" />
    <glyph glyph-name="uni00B5" unicode="&#xb5;" horiz-adv-x="1087" 
d="M993 1004q14 0 23 -12t6 -25l-131 -942q-3 -25 -29 -25h-145q-13 0 -23 11.5t-8 25.5l8 106q-139 -170 -325 -170q-99 0 -166 33l-51 -371q-3 -24 -29 -24h-156q-13 0 -22.5 11.5t-7.5 25.5l149 1059l39 272q3 25 29 25h153q13 0 23 -11.5t8 -25.5l-68 -482l-12 -82
q-14 -119 33 -176t139 -57q61 0 117.5 25t93.5 61.5t60 73.5t26 65l82 584q6 25 31 25h153z" />
    <glyph glyph-name="paragraph" unicode="&#xb6;" horiz-adv-x="1513" 
d="M674 1434h405q13 0 23 -11.5t8 -25.5l-192 -1372q-6 -25 -31 -25h-162q-14 0 -23 12t-6 25l68 483h-209q-238 0 -353.5 130t-86.5 339q29 200 175 322.5t384 122.5zM1268 1409q3 25 28 25h162q13 0 23 -11.5t8 -25.5l-193 -1372q-3 -25 -28 -25h-162q-13 0 -23 11.5
t-8 25.5zM582 721h211l69 512h-200q-61 0 -114.5 -14.5t-100.5 -45t-79 -84t-42 -124.5q-9 -66 7 -114.5t53.5 -76t86 -40.5t109.5 -13z" />
    <glyph glyph-name="periodcentered" unicode="&#xb7;" horiz-adv-x="411" 
d="M168 453q-52 0 -88.5 36.5t-36.5 88.5t36 88t89 36t89 -36t36 -88t-36.5 -88.5t-88.5 -36.5z" />
    <glyph glyph-name="cedilla" unicode="&#xb8;" horiz-adv-x="374" 
d="M82 -74q69 -10 112.5 -57t34.5 -119q-9 -60 -44 -103t-84 -62t-108 -26t-116 5q-12 0 -19 8.5t-5 17.5l10 76q3 15 14 15q86 -9 139.5 13t59.5 68q3 22 -17 35.5t-59 13.5t-86 -18q-13 -3 -22 5.5t-7 19.5l11 78q3 13 8 24l100 80h164z" />
    <glyph glyph-name="uni00B9" unicode="&#xb9;" horiz-adv-x="329" 
d="M291 1436l-74 -535h-76l64 461h-55l10 74h131z" />
    <glyph glyph-name="ordmasculine" unicode="&#xba;" horiz-adv-x="878" 
d="M436 698q-155 0 -248 109t-71 264t146.5 264t279.5 109t248 -109t71 -264t-146.5 -264t-279.5 -109zM459 854q91 0 164 63t86 154q12 92 -43 155.5t-146 63.5q-92 0 -164 -63.5t-86 -155.5q-12 -91 42.5 -154t146.5 -63z" />
    <glyph glyph-name="guillemotright" unicode="&#xbb;" horiz-adv-x="733" 
d="M322 639l-19 -127q-4 -25 -20 -39l-240 -184q-15 -10 -26 -3.5t-9 23.5l17 109q4 24 20 35l174 129l-133 137q-17 17 -14 41l14 100q2 11 12 13.5t21 -7.5l186 -188q20 -20 17 -39zM655 639l-18 -127q-3 -24 -21 -39l-239 -184q-15 -10 -26 -3.5t-9 23.5l16 109
q4 23 21 35l174 129l-133 137q-17 17 -14 41l14 100q2 11 12 13.5t21 -7.5l186 -188q19 -19 16 -39z" />
    <glyph glyph-name="onequarter" unicode="&#xbc;" horiz-adv-x="1126" 
d="M319 1436l-73 -535h-76l63 461h-55l10 74h131zM1182 1434l-1082 -1434h-98l1094 1434h86zM1085 535l-43 -316h56l-11 -63h-55l-20 -156h-76l20 156h-270l324 379h75zM995 424l-172 -205h144z" />
    <glyph glyph-name="onehalf" unicode="&#xbd;" horiz-adv-x="1075" 
d="M319 1436l-73 -535h-76l63 461h-55l10 74h131zM1182 1434l-1082 -1434h-98l1094 1434h86zM913 541q69 0 113.5 -46.5t36.5 -107.5q-4 -29 -14.5 -52.5t-37.5 -54t-47 -49.5t-71 -65l-111 -100h242l-10 -66h-344l10 66l160 141q96 89 115 113q25 32 30 67q6 37 -19 63.5
t-63 26.5q-39 0 -71 -26.5t-39 -75.5l-5 -29h-75l4 29q10 72 67.5 119t128.5 47z" />
    <glyph glyph-name="threequarters" unicode="&#xbe;" horiz-adv-x="1220" 
d="M412 1440q66 0 108.5 -42t34.5 -98q-10 -65 -76 -108q35 -16 54 -50.5t12 -84.5q-9 -69 -71.5 -116.5t-139.5 -47.5q-83 0 -129 55.5t-31 130.5h78q-11 -48 15.5 -84.5t76.5 -36.5q45 0 81 28t42 71q9 56 -27.5 78.5t-109.5 17.5l8 61q131 3 141 86q4 32 -18.5 54
t-59.5 22q-44 0 -74 -30t-36 -84h-76q7 77 64 127.5t133 50.5zM1260 1434l-1082 -1434h-98l1094 1434h86zM1143 535l-43 -316h55l-10 -63h-55l-21 -156h-76l21 156h-271l324 379h76zM1053 424l-172 -205h143z" />
    <glyph glyph-name="questiondown" unicode="&#xbf;" horiz-adv-x="1046" 
d="M618 842q-52 0 -88 36t-36 89t36 89t88 36t88.5 -36t36.5 -89t-36.5 -89t-88.5 -36zM901 -127q25 -35 -2 -66q-85 -87 -209.5 -139.5t-253.5 -52.5q-175 0 -290 95.5t-115 246.5q0 85 32 156t94 127t134.5 99t171.5 85l39 205q6 26 33 26h114q15 0 23 -10t6 -24l-25 -291
q-3 -31 -30 -39q-172 -52 -269.5 -126.5t-97.5 -189.5q0 -71 56.5 -110t144.5 -39q160 0 323 139q37 29 62 -12z" />
    <glyph glyph-name="Agrave" unicode="&#xc0;" horiz-adv-x="1327" 
d="M678 1573l-88 258q-4 17 0.5 23t21.5 6h129q26 0 33 -31l88 -258q4 -17 -0.5 -23t-21.5 -6h-129q-26 0 -33 31zM1182 33q7 -33 -25 -33h-162q-13 0 -21.5 8.5t-10.5 22.5l-58 272h-590l-135 -278q-10 -25 -37 -25h-168q-17 0 -24.5 13t0.5 28l694 1370q13 23 41 23h154
q12 0 21.5 -8.5t12.5 -22.5zM410 496h456l-137 655z" />
    <glyph glyph-name="Aacute" unicode="&#xc1;" horiz-adv-x="1327" 
d="M739 1542q-18 0 -26 12t0 29l159 258q5 9 10.5 13t10.5 5t14 1h129q18 0 27 -12t0 -29l-160 -258q-5 -9 -10.5 -13t-10.5 -5t-14 -1h-129zM1182 33q7 -33 -25 -33h-162q-13 0 -21.5 8.5t-10.5 22.5l-58 272h-590l-135 -278q-10 -25 -37 -25h-168q-17 0 -24.5 13t0.5 28
l694 1370q13 23 41 23h154q12 0 21.5 -8.5t12.5 -22.5zM410 496h456l-137 655z" />
    <glyph glyph-name="Acircumflex" unicode="&#xc2;" horiz-adv-x="1327" 
d="M535 1593q-20 0 -27 13.5t6 27.5l219 213q11 13 37 13h127q23 0 33 -21l160 -213q23 -33 -15 -33h-98q-21 0 -35 21l-115 153l-157 -161q-13 -13 -37 -13h-98zM1182 33q7 -33 -25 -33h-162q-13 0 -21.5 8.5t-10.5 22.5l-58 272h-590l-135 -278q-10 -25 -37 -25h-168
q-17 0 -24.5 13t0.5 28l694 1370q13 23 41 23h154q12 0 21.5 -8.5t12.5 -22.5zM410 496h456l-137 655z" />
    <glyph glyph-name="Atilde" unicode="&#xc3;" horiz-adv-x="1327" 
d="M500 1698q-10 0 -17 10.5t-4 26.5q20 82 76 124t133 42q53 0 96.5 -22t68.5 -48t58.5 -48t67.5 -22q38 0 66 21.5t40 50.5q6 6 23 6h47q9 0 15.5 -10t5.5 -23q-19 -84 -75.5 -127t-131.5 -43q-53 0 -97.5 22t-69.5 48t-58.5 48t-67.5 22q-38 0 -67.5 -22.5t-41.5 -51.5
q-6 -4 -20 -4h-47zM1182 33q7 -33 -25 -33h-162q-13 0 -21.5 8.5t-10.5 22.5l-58 272h-590l-135 -278q-10 -25 -37 -25h-168q-17 0 -24.5 13t0.5 28l694 1370q13 23 41 23h154q12 0 21.5 -8.5t12.5 -22.5zM410 496h456l-137 655z" />
    <glyph glyph-name="Adieresis" unicode="&#xc4;" horiz-adv-x="1327" 
d="M612 1645q-51 0 -82 37.5t-24 89.5q6 42 41 72t78 30q51 0 82.5 -37t25.5 -88q-6 -44 -42 -74t-79 -30zM1024 1645q-51 0 -82 37.5t-24 89.5q6 43 40.5 72.5t77.5 29.5q51 0 82.5 -37t24.5 -88q-6 -44 -41 -74t-78 -30zM1182 33q7 -33 -25 -33h-162q-13 0 -21.5 8.5
t-10.5 22.5l-58 272h-590l-135 -278q-10 -25 -37 -25h-168q-17 0 -24.5 13t0.5 28l694 1370q13 23 41 23h154q12 0 21.5 -8.5t12.5 -22.5zM410 496h456l-137 655z" />
    <glyph glyph-name="Aring" unicode="&#xc5;" horiz-adv-x="1327" 
d="M807 1556q-82 0 -131.5 58t-38.5 137q9 71 68 122.5t135 51.5q78 0 127.5 -58t38.5 -138q-10 -70 -69 -121.5t-130 -51.5zM768 1729q-3 -17 7.5 -28t29.5 -11q26 0 47.5 18.5t24.5 44.5q2 18 -8.5 29.5t-28.5 11.5q-26 0 -47.5 -19.5t-24.5 -45.5zM1182 33q7 -33 -25 -33
h-162q-13 0 -21.5 8.5t-10.5 22.5l-58 272h-590l-135 -278q-10 -25 -37 -25h-168q-17 0 -24.5 13t0.5 28l694 1370q13 23 41 23h154q12 0 21.5 -8.5t12.5 -22.5zM410 496h456l-137 655z" />
    <glyph glyph-name="AE" unicode="&#xc6;" horiz-adv-x="1703" 
d="M1677 1434q13 0 23 -11.5t8 -25.5l-18 -140q-5 -24 -31 -24h-541l-55 -383h500q13 0 22.5 -11.5t7.5 -25.5l-18 -139q-6 -25 -31 -25h-510l-61 -448h532q14 0 24 -12t9 -25l-20 -139q-3 -25 -29 -25h-733q-13 0 -22 11t-7 26l41 287h-406l-178 -304q-11 -20 -34 -20h-170
q-17 0 -26 13t-3 28l840 1374q12 19 36 19h850zM475 516h320l100 711z" />
    <glyph glyph-name="Ccedilla" unicode="&#xc7;" horiz-adv-x="1378" 
d="M1364 1243q25 -29 4 -47l-104 -90q-21 -19 -47 4q-143 123 -328 123q-156 0 -293.5 -85t-218 -226.5t-80.5 -300.5q0 -187 119.5 -307.5t304.5 -120.5q196 0 366 126q32 23 54 -2l84 -104q24 -31 -4 -53q-227 -174 -469 -185l-58 -49q69 -10 113 -57.5t35 -118.5
q-9 -60 -44.5 -103t-84.5 -62t-108 -26t-116 5q-12 0 -19 8.5t-5 17.5l10 76q3 15 14 15q86 -9 139.5 13t59.5 68q3 22 -17 35.5t-59 13.5t-86 -18q-13 -3 -21.5 5.5t-6.5 19.5l10 78q3 13 8 24l78 64q-233 37 -378.5 211.5t-145.5 418.5q0 165 68 319.5t180.5 267.5
t265 181t315.5 68q284 0 465 -207z" />
    <glyph glyph-name="Egrave" unicode="&#xc8;" horiz-adv-x="999" 
d="M518 1573l-88 258q-4 17 0.5 23t22.5 6h129q25 0 32 -31l88 -258q4 -17 -0.5 -23t-21.5 -6h-129q-26 0 -33 31zM973 1434q13 0 23 -11.5t8 -25.5l-19 -140q-5 -24 -31 -24h-540l-56 -383h500q13 0 23 -11.5t8 -25.5l-19 -139q-6 -25 -30 -25h-510l-62 -448h533
q14 0 24 -12t9 -25l-21 -139q-3 -25 -29 -25h-733q-13 0 -21.5 11t-6.5 26l192 1368q3 29 35 29h723z" />
    <glyph glyph-name="Eacute" unicode="&#xc9;" horiz-adv-x="999" 
d="M580 1542q-18 0 -27 12t0 29l160 258q5 9 10.5 13t10.5 5t14 1h129q18 0 26 -12t0 -29l-160 -258q-7 -13 -14 -16t-20 -3h-129zM973 1434q13 0 23 -11.5t8 -25.5l-19 -140q-5 -24 -31 -24h-540l-56 -383h500q13 0 23 -11.5t8 -25.5l-19 -139q-6 -25 -30 -25h-510
l-62 -448h533q14 0 24 -12t9 -25l-21 -139q-3 -25 -29 -25h-733q-13 0 -21.5 11t-6.5 26l192 1368q3 29 35 29h723z" />
    <glyph glyph-name="Ecircumflex" unicode="&#xca;" horiz-adv-x="999" 
d="M375 1593q-20 0 -27 13.5t6 27.5l219 213q11 13 37 13h127q23 0 33 -21l160 -213q23 -33 -15 -33h-98q-21 0 -35 21l-114 153l-158 -161q-13 -13 -37 -13h-98zM973 1434q13 0 23 -11.5t8 -25.5l-19 -140q-5 -24 -31 -24h-540l-56 -383h500q13 0 23 -11.5t8 -25.5
l-19 -139q-6 -25 -30 -25h-510l-62 -448h533q14 0 24 -12t9 -25l-21 -139q-3 -25 -29 -25h-733q-13 0 -21.5 11t-6.5 26l192 1368q3 29 35 29h723z" />
    <glyph glyph-name="Edieresis" unicode="&#xcb;" horiz-adv-x="999" 
d="M453 1645q-51 0 -82.5 37.5t-24.5 89.5q6 42 41 72t78 30q51 0 82.5 -37t25.5 -88q-6 -44 -41.5 -74t-78.5 -30zM864 1645q-51 0 -82 37.5t-24 89.5q6 42 41 72t78 30q51 0 82.5 -37t23.5 -88q-6 -44 -41 -74t-78 -30zM973 1434q13 0 23 -11.5t8 -25.5l-19 -140
q-5 -24 -31 -24h-540l-56 -383h500q13 0 23 -11.5t8 -25.5l-19 -139q-6 -25 -30 -25h-510l-62 -448h533q14 0 24 -12t9 -25l-21 -139q-3 -25 -29 -25h-733q-13 0 -21.5 11t-6.5 26l192 1368q3 29 35 29h723z" />
    <glyph glyph-name="Igrave" unicode="&#xcc;" horiz-adv-x="458" 
d="M166 1860h129q26 0 33 -31l88 -258q4 -17 -0.5 -23t-22.5 -6h-129q-26 0 -33 31l-88 258q-4 17 0.5 23t22.5 6zM215 1405q3 29 35 29h158q14 0 22 -10.5t6 -24.5l-192 -1366q-3 -33 -37 -33h-156q-13 0 -21.5 11t-6.5 26z" />
    <glyph glyph-name="Iacute" unicode="&#xcd;" horiz-adv-x="458" 
d="M590 1860q18 0 26 -12t0 -29l-159 -258q-5 -9 -10.5 -13t-10.5 -5t-14 -1h-129q-18 0 -27 12t0 29l160 258q5 9 10.5 13t10.5 5t14 1h129zM215 1405q3 29 35 29h158q14 0 22 -10.5t6 -24.5l-192 -1366q-3 -33 -37 -33h-156q-13 0 -21.5 11t-6.5 26z" />
    <glyph glyph-name="Icircumflex" unicode="&#xce;" horiz-adv-x="458" 
d="M451 1860q21 0 32 -21l160 -213q23 -33 -14 -33h-99q-20 0 -34 21l-115 153l-158 -161q-13 -13 -37 -13h-98q-20 0 -27 13.5t7 27.5l219 213q11 13 37 13h127zM215 1405q3 29 35 29h158q14 0 22 -10.5t6 -24.5l-192 -1366q-3 -33 -37 -33h-156q-13 0 -21.5 11t-6.5 26z
" />
    <glyph glyph-name="Idieresis" unicode="&#xcf;" horiz-adv-x="458" 
d="M166 1645q-51 0 -82.5 37.5t-24.5 89.5q6 42 41 72t78 30q51 0 83 -37t26 -88q-6 -44 -42 -74t-79 -30zM578 1645q-51 0 -82.5 37.5t-24.5 89.5q6 42 41 72t78 30q51 0 82.5 -37t23.5 -88q-6 -44 -40.5 -74t-77.5 -30zM215 1405q3 29 35 29h158q14 0 22 -10.5t6 -24.5
l-192 -1366q-3 -33 -37 -33h-156q-13 0 -21.5 11t-6.5 26z" />
    <glyph glyph-name="Eth" unicode="&#xd0;" horiz-adv-x="1402" 
d="M684 1434q162 0 289 -45.5t208 -127t123 -191t42 -241.5q0 -242 -108 -431t-302.5 -293.5t-443.5 -104.5h-365q-14 0 -23 12t-6 25l82 590h-39q-13 0 -22.5 10.5t-7.5 24.5l16 110q3 25 29 25h49l86 612q3 25 28 25h365zM510 201q287 0 449.5 174.5t162.5 460.5
q0 192 -114 294.5t-342 102.5h-179l-61 -436h317q13 0 23 -11.5t8 -25.5l-16 -109q-3 -24 -29 -24h-326l-59 -426h166z" />
    <glyph glyph-name="Ntilde" unicode="&#xd1;" horiz-adv-x="1343" 
d="M713 1901q53 0 96.5 -22t68.5 -48t58.5 -48t67.5 -22q38 0 66 21.5t40 50.5q6 6 23 6h47q9 0 15 -10t5 -23q-19 -84 -75.5 -127t-131.5 -43q-53 0 -97.5 22t-69.5 48t-58.5 48t-67.5 22q-38 0 -67 -22t-41 -52q-6 -4 -21 -4h-47q-10 0 -16.5 10.5t-3.5 26.5q20 82 76 124
t133 42zM1288 1434q13 0 23 -11.5t8 -25.5l-193 -1372q-3 -25 -28 -25h-195q-23 0 -35 27l-473 1071l-151 -1073q-3 -25 -29 -25h-162q-13 0 -22.5 11.5t-7.5 25.5l192 1368q4 29 31 29h192q24 0 35 -25l475 -1075l150 1071q3 29 32 29h158z" />
    <glyph glyph-name="Ograve" unicode="&#xd2;" horiz-adv-x="1624" 
d="M748 1860h129q25 0 32 -31l88 -258q4 -17 -0.5 -23t-21.5 -6h-129q-26 0 -33 31l-88 258q-4 17 0.5 23t22.5 6zM717 -27q-151 0 -280.5 59t-215.5 159.5t-125.5 239.5t-17.5 292q28 200 148.5 367t300.5 263.5t378 96.5q121 0 229 -37.5t190 -107t137.5 -162t77.5 -207.5
t5 -238q-28 -198 -149 -365t-301 -263.5t-377 -96.5zM731 186q144 0 274 71.5t215.5 195t104.5 270.5q19 142 -31.5 260.5t-157 186t-245.5 67.5q-144 0 -274 -71.5t-216 -195.5t-106 -272q-14 -106 13 -201t85 -163t146 -108t192 -40z" />
    <glyph glyph-name="Oacute" unicode="&#xd3;" horiz-adv-x="1624" 
d="M1171 1860q18 0 27 -12t0 -29l-160 -258q-7 -13 -14 -16t-20 -3h-130q-18 0 -26 12t0 29l160 258q7 13 14 16t20 3h129zM717 -27q-151 0 -280.5 59t-215.5 159.5t-125.5 239.5t-17.5 292q28 200 148.5 367t300.5 263.5t378 96.5q121 0 229 -37.5t190 -107t137.5 -162
t77.5 -207.5t5 -238q-28 -198 -149 -365t-301 -263.5t-377 -96.5zM731 186q144 0 274 71.5t215.5 195t104.5 270.5q19 142 -31.5 260.5t-157 186t-245.5 67.5q-144 0 -274 -71.5t-216 -195.5t-106 -272q-14 -106 13 -201t85 -163t146 -108t192 -40z" />
    <glyph glyph-name="Ocircumflex" unicode="&#xd4;" horiz-adv-x="1624" 
d="M1032 1860q22 0 33 -21l160 -213q23 -33 -15 -33h-98q-21 0 -35 21l-114 153l-158 -161q-13 -13 -37 -13h-98q-20 0 -27 13.5t6 27.5l219 213q11 13 37 13h127zM717 -27q-151 0 -280.5 59t-215.5 159.5t-125.5 239.5t-17.5 292q28 200 148.5 367t300.5 263.5t378 96.5
q121 0 229 -37.5t190 -107t137.5 -162t77.5 -207.5t5 -238q-28 -198 -149 -365t-301 -263.5t-377 -96.5zM731 186q144 0 274 71.5t215.5 195t104.5 270.5q19 142 -31.5 260.5t-157 186t-245.5 67.5q-144 0 -274 -71.5t-216 -195.5t-106 -272q-14 -106 13 -201t85 -163
t146 -108t192 -40z" />
    <glyph glyph-name="Otilde" unicode="&#xd5;" horiz-adv-x="1624" 
d="M823 1901q53 0 96.5 -22t68.5 -48t58.5 -48t67.5 -22q38 0 66.5 21.5t40.5 50.5q6 6 22 6h47q9 0 15.5 -10t5.5 -23q-19 -84 -75.5 -127t-131.5 -43q-53 0 -97.5 22t-69.5 48t-58.5 48t-67.5 22q-38 0 -67.5 -22.5t-41.5 -51.5q-6 -4 -20 -4h-47q-10 0 -17 10.5t-4 26.5
q20 82 76 124t133 42zM717 -27q-151 0 -280.5 59t-215.5 159.5t-125.5 239.5t-17.5 292q28 200 148.5 367t300.5 263.5t378 96.5q121 0 229 -37.5t190 -107t137.5 -162t77.5 -207.5t5 -238q-28 -198 -149 -365t-301 -263.5t-377 -96.5zM731 186q144 0 274 71.5t215.5 195
t104.5 270.5q19 142 -31.5 260.5t-157 186t-245.5 67.5q-144 0 -274 -71.5t-216 -195.5t-106 -272q-14 -106 13 -201t85 -163t146 -108t192 -40z" />
    <glyph glyph-name="Odieresis" unicode="&#xd6;" horiz-adv-x="1624" 
d="M748 1645q-51 0 -82.5 37.5t-24.5 89.5q6 42 41 72t78 30q51 0 82.5 -37t25.5 -88q-6 -44 -41.5 -74t-78.5 -30zM1159 1645q-51 0 -82 37.5t-24 89.5q6 43 40.5 72.5t77.5 29.5q51 0 82.5 -37t24.5 -88q-6 -44 -41 -74t-78 -30zM717 -27q-151 0 -280.5 59t-215.5 159.5
t-125.5 239.5t-17.5 292q28 200 148.5 367t300.5 263.5t378 96.5q121 0 229 -37.5t190 -107t137.5 -162t77.5 -207.5t5 -238q-28 -198 -149 -365t-301 -263.5t-377 -96.5zM731 186q144 0 274 71.5t215.5 195t104.5 270.5q19 142 -31.5 260.5t-157 186t-245.5 67.5
q-144 0 -274 -71.5t-216 -195.5t-106 -272q-14 -106 13 -201t85 -163t146 -108t192 -40z" />
    <glyph glyph-name="multiply" unicode="&#xd7;" horiz-adv-x="786" 
d="M653 778q18 -26 2 -45l-184 -160l131 -151q10 -10 11 -21.5t-9 -21.5l-86 -76q-12 -8 -23.5 -4.5t-17.5 14.5l-131 152l-184 -162q-20 -17 -41 8l-66 76q-22 25 -2 45l183 160l-132 151q-19 26 -2 43l88 76q21 18 41 -10l129 -150l185 160q12 8 23.5 4.5t17.5 -14.5z" />
    <glyph glyph-name="Oslash" unicode="&#xd8;" horiz-adv-x="1624" 
d="M1221 1374q175 -92 264 -273.5t59 -402.5q-28 -198 -149 -365t-301 -263.5t-377 -96.5q-61 0 -131 13l-29 -64q-14 -24 -39 -24h-145q-38 0 -23 34l53 115q-177 93 -267 274.5t-58 401.5q28 200 148.5 367t300.5 263.5t378 96.5q71 0 135 -12l29 63q11 25 37 25h145
q38 0 23 -35zM295 698q-18 -145 36 -264t165 -186l450 987q-18 2 -55 2q-144 0 -274 -71.5t-216 -195.5t-106 -272zM1325 723q20 145 -34 265t-163 186l-448 -986q16 -2 51 -2q144 0 274 71.5t215.5 195t104.5 270.5z" />
    <glyph glyph-name="Ugrave" unicode="&#xd9;" horiz-adv-x="1273" 
d="M571 1860h129q26 0 33 -31l88 -258q4 -17 -0.5 -23t-21.5 -6h-129q-26 0 -33 31l-88 258q-4 17 0.5 23t21.5 6zM1235 1434q13 0 21 -10.5t6 -24.5l-119 -848q-39 -277 -203.5 -427.5t-398.5 -150.5q-117 0 -209.5 39t-154.5 112.5t-86 186t-5 252.5l119 842q3 29 33 29
h161q13 0 21 -10.5t6 -24.5l-119 -848q-26 -181 40 -272t204 -91q145 0 245 97t126 278l118 842q3 29 33 29h162z" />
    <glyph glyph-name="Uacute" unicode="&#xda;" horiz-adv-x="1273" 
d="M995 1860q18 0 27 -12t0 -29l-160 -258q-5 -9 -10.5 -13t-10.5 -5t-14 -1h-129q-18 0 -26 12t0 29l159 258q5 9 10.5 13t10.5 5t14 1h129zM1235 1434q13 0 21 -10.5t6 -24.5l-119 -848q-39 -277 -203.5 -427.5t-398.5 -150.5q-117 0 -209.5 39t-154.5 112.5t-86 186
t-5 252.5l119 842q3 29 33 29h161q13 0 21 -10.5t6 -24.5l-119 -848q-26 -181 40 -272t204 -91q145 0 245 97t126 278l118 842q3 29 33 29h162z" />
    <glyph glyph-name="Ucircumflex" unicode="&#xdb;" horiz-adv-x="1273" 
d="M856 1860q22 0 33 -21l160 -213q23 -33 -15 -33h-98q-21 0 -35 21l-115 153l-157 -161q-13 -13 -37 -13h-98q-20 0 -27 13.5t6 27.5l219 213q11 13 37 13h127zM1235 1434q13 0 21 -10.5t6 -24.5l-119 -848q-39 -277 -203.5 -427.5t-398.5 -150.5q-117 0 -209.5 39
t-154.5 112.5t-86 186t-5 252.5l119 842q3 29 33 29h161q13 0 21 -10.5t6 -24.5l-119 -848q-26 -181 40 -272t204 -91q145 0 245 97t126 278l118 842q3 29 33 29h162z" />
    <glyph glyph-name="Udieresis" unicode="&#xdc;" horiz-adv-x="1273" 
d="M571 1645q-51 0 -82 37.5t-24 89.5q6 42 41 72t78 30q51 0 82.5 -37t25.5 -88q-6 -44 -42 -74t-79 -30zM983 1645q-51 0 -82 37.5t-24 89.5q6 43 40.5 72.5t77.5 29.5q51 0 82.5 -37t24.5 -88q-6 -44 -41 -74t-78 -30zM1235 1434q13 0 21 -10.5t6 -24.5l-119 -848
q-39 -277 -203.5 -427.5t-398.5 -150.5q-117 0 -209.5 39t-154.5 112.5t-86 186t-5 252.5l119 842q3 29 33 29h161q13 0 21 -10.5t6 -24.5l-119 -848q-26 -181 40 -272t204 -91q145 0 245 97t126 278l118 842q3 29 33 29h162z" />
    <glyph glyph-name="Yacute" unicode="&#xdd;" horiz-adv-x="1208" 
d="M664 1542q-18 0 -27 12t0 29l160 258q7 13 14 16t20 3h130q18 0 26 -12t0 -29l-160 -258q-7 -13 -14 -16t-20 -3h-129zM1212 1434q19 0 25.5 -13t-4.5 -28l-524 -715l-93 -647q-3 -31 -34 -31h-160q-13 0 -21 10.5t-6 24.5l90 649l-317 713q-7 15 -2 26t22 11h164
q26 0 37 -29l234 -514l378 522q15 21 39 21h172z" />
    <glyph glyph-name="Thorn" unicode="&#xde;" horiz-adv-x="1132" 
d="M637 1174q240 0 354 -126.5t84 -342.5q-30 -206 -174 -325.5t-383 -119.5h-242l-32 -227q-3 -33 -37 -33h-156q-13 0 -21.5 11t-6.5 26l192 1368q3 29 35 29h158q14 0 22 -10.5t6 -24.5l-33 -225h234zM862 729q19 132 -50 188t-210 56h-225l-74 -512h217q303 0 342 268z
" />
    <glyph glyph-name="germandbls" unicode="&#xdf;" horiz-adv-x="1208" 
d="M827 760q127 -21 204 -101t77 -204q0 -101 -31 -179t-85 -130t-134 -85t-173 -47t-206 -14h-108q-13 0 -22 11.5t-7 25.5l14 113q5 24 31 24h109q407 0 407 287q0 102 -86.5 147t-257.5 45h-96q-13 0 -23 11.5t-8 25.5l17 111q3 24 30 24h96q150 0 243 71.5t93 190.5
q0 77 -61.5 116.5t-177.5 39.5q-266 0 -295 -213l-141 -1005q-3 -25 -31 -25h-154q-13 0 -21.5 11.5t-6.5 25.5l141 1005q26 188 163.5 290t350.5 102q201 0 321.5 -85.5t120.5 -238.5q0 -139 -83.5 -232.5t-209.5 -117.5z" />
    <glyph glyph-name="agrave" unicode="&#xe0;" 
d="M522 1143l-88 258q-4 17 0.5 23t22.5 6h129q25 0 32 -31l89 -258q4 -17 -0.5 -23t-22.5 -6h-129q-26 0 -33 31zM1096 1004q13 0 22.5 -11.5t7.5 -25.5l-133 -942q-3 -25 -28 -25h-140q-13 0 -21.5 11.5t-6.5 25.5l4 92q-149 -156 -340 -156q-192 0 -310 129t-118 324
q0 157 73.5 295t202.5 221.5t281 83.5q201 0 313 -170l25 121q6 27 30 27h138zM498 170q94 0 177 54.5t132 145t49 191.5q0 115 -71 191.5t-187 76.5q-147 0 -252.5 -115.5t-105.5 -275.5q0 -118 71 -193t187 -75z" />
    <glyph glyph-name="aacute" unicode="&#xe1;" 
d="M584 1112q-18 0 -27 12t0 29l160 258q5 9 10.5 13t10.5 5t14 1h129q18 0 26 -12t0 -29l-159 -259q-7 -12 -14 -15t-21 -3h-129zM1096 1004q13 0 22.5 -11.5t7.5 -25.5l-133 -942q-3 -25 -28 -25h-140q-13 0 -21.5 11.5t-6.5 25.5l4 92q-149 -156 -340 -156
q-192 0 -310 129t-118 324q0 157 73.5 295t202.5 221.5t281 83.5q201 0 313 -170l25 121q6 27 30 27h138zM498 170q94 0 177 54.5t132 145t49 191.5q0 115 -71 191.5t-187 76.5q-147 0 -252.5 -115.5t-105.5 -275.5q0 -118 71 -193t187 -75z" />
    <glyph glyph-name="acircumflex" unicode="&#xe2;" 
d="M379 1163q-20 0 -27 13.5t6 27.5l220 213q11 13 36 13h127q23 0 33 -21l160 -213q23 -33 -14 -33h-99q-21 0 -35 21l-114 153l-158 -161q-13 -13 -37 -13h-98zM1096 1004q13 0 22.5 -11.5t7.5 -25.5l-133 -942q-3 -25 -28 -25h-140q-13 0 -21.5 11.5t-6.5 25.5l4 92
q-149 -156 -340 -156q-192 0 -310 129t-118 324q0 157 73.5 295t202.5 221.5t281 83.5q201 0 313 -170l25 121q6 27 30 27h138zM498 170q94 0 177 54.5t132 145t49 191.5q0 115 -71 191.5t-187 76.5q-147 0 -252.5 -115.5t-105.5 -275.5q0 -118 71 -193t187 -75z" />
    <glyph glyph-name="atilde" unicode="&#xe3;" 
d="M344 1268q-10 0 -16.5 10.5t-3.5 26.5q20 82 75.5 123.5t132.5 41.5q43 0 79.5 -14.5t61 -35t47 -40.5t49 -34.5t54.5 -14.5q38 0 66.5 21.5t40.5 50.5q6 6 22 6h47q9 0 15.5 -10t5.5 -23q-19 -84 -75.5 -127t-131.5 -43q-53 0 -97.5 22t-69.5 48t-58.5 48t-67.5 22
q-38 0 -67 -22t-41 -52q-6 -4 -21 -4h-47zM1096 1004q13 0 22.5 -11.5t7.5 -25.5l-133 -942q-3 -25 -28 -25h-140q-13 0 -21.5 11.5t-6.5 25.5l4 92q-149 -156 -340 -156q-192 0 -310 129t-118 324q0 157 73.5 295t202.5 221.5t281 83.5q201 0 313 -170l25 121q6 27 30 27
h138zM498 170q94 0 177 54.5t132 145t49 191.5q0 115 -71 191.5t-187 76.5q-147 0 -252.5 -115.5t-105.5 -275.5q0 -118 71 -193t187 -75z" />
    <glyph glyph-name="adieresis" unicode="&#xe4;" 
d="M457 1214q-51 0 -82.5 37.5t-24.5 89.5q6 43 41 73t78 30q51 0 83 -37t26 -88q-6 -44 -42 -74.5t-79 -30.5zM868 1214q-51 0 -82 37.5t-24 89.5q6 43 41 73t78 30q51 0 82.5 -37t23.5 -88q-6 -44 -41 -74.5t-78 -30.5zM1096 1004q13 0 22.5 -11.5t7.5 -25.5l-133 -942
q-3 -25 -28 -25h-140q-13 0 -21.5 11.5t-6.5 25.5l4 92q-149 -156 -340 -156q-192 0 -310 129t-118 324q0 157 73.5 295t202.5 221.5t281 83.5q201 0 313 -170l25 121q6 27 30 27h138zM498 170q94 0 177 54.5t132 145t49 191.5q0 115 -71 191.5t-187 76.5
q-147 0 -252.5 -115.5t-105.5 -275.5q0 -118 71 -193t187 -75z" />
    <glyph glyph-name="aring" unicode="&#xe5;" 
d="M651 1126q-82 0 -131.5 58t-38.5 137q9 71 68 122.5t135 51.5q78 0 127.5 -58.5t38.5 -138.5q-10 -70 -69 -121t-130 -51zM612 1298q-3 -17 7.5 -27.5t29.5 -10.5q26 0 47.5 18.5t24.5 44.5q2 18 -8.5 29.5t-28.5 11.5q-26 0 -47.5 -20t-24.5 -46zM1096 1004
q13 0 22.5 -11.5t7.5 -25.5l-133 -942q-3 -25 -28 -25h-140q-13 0 -21.5 11.5t-6.5 25.5l4 92q-149 -156 -340 -156q-192 0 -310 129t-118 324q0 157 73.5 295t202.5 221.5t281 83.5q201 0 313 -170l25 121q6 27 30 27h138zM498 170q94 0 177 54.5t132 145t49 191.5
q0 115 -71 191.5t-187 76.5q-147 0 -252.5 -115.5t-105.5 -275.5q0 -118 71 -193t187 -75z" />
    <glyph glyph-name="ae" unicode="&#xe6;" horiz-adv-x="1925" 
d="M1417 1026q108 0 194 -41.5t138 -111.5t74 -162t8 -193q-8 -58 -21.5 -79t-52.5 -21h-702q0 -123 73.5 -194.5t204.5 -71.5q136 0 258 90q24 18 45 -6l62 -70q25 -29 0 -49q-167 -144 -389 -144q-184 0 -308 105l-8 -53q-3 -25 -28 -25h-140q-13 0 -21.5 11.5t-6.5 25.5
l4 92q-149 -156 -340 -156q-192 0 -310 129t-118 324q0 157 73.5 295t202.5 221.5t281 83.5q201 0 313 -170l25 121q6 27 30 27h138q13 0 22.5 -11.5t7.5 -25.5l-4 -29q138 88 295 88zM1405 842q-115 0 -204 -75t-124 -200h572q9 125 -59 200t-185 75zM498 170
q94 0 177 54.5t132 145t49 191.5q0 115 -71 191.5t-187 76.5q-147 0 -252.5 -115.5t-105.5 -275.5q0 -118 71 -193t187 -75z" />
    <glyph glyph-name="ccedilla" unicode="&#xe7;" horiz-adv-x="1128" 
d="M971 840q19 -27 -2 -43l-101 -80q-9 -7 -21.5 -5t-21.5 11q-48 51 -98.5 78.5t-130.5 27.5q-149 0 -253.5 -115t-104.5 -272q0 -122 71 -196t191 -74q87 0 146 28.5t112 78.5q22 23 45 0l84 -91q10 -10 10.5 -23.5t-12.5 -27.5q-151 -141 -348 -162l-60 -49
q69 -10 113 -57.5t35 -118.5q-9 -60 -44.5 -103t-84.5 -62t-108 -26t-116 5q-12 0 -19 8.5t-5 17.5l10 76q2 15 14 15q86 -9 139.5 13t59.5 68q3 22 -17 35.5t-59 13.5t-86 -18q-13 -3 -21.5 5.5t-6.5 19.5l10 78q3 13 8 24l80 64q-157 32 -251.5 154t-94.5 292
q0 159 77.5 296t210 218.5t287.5 81.5q118 0 210 -49t153 -137z" />
    <glyph glyph-name="egrave" unicode="&#xe8;" horiz-adv-x="1107" 
d="M494 1143l-88 258q-4 17 0.5 23t21.5 6h129q26 0 33 -31l88 -258q4 -17 -0.5 -23t-22.5 -6h-129q-25 0 -32 31zM598 1026q108 0 194 -41.5t138 -111.5t74 -162t8 -193q-8 -58 -21.5 -79t-52.5 -21h-702q0 -123 73.5 -194.5t204.5 -71.5q136 0 258 90q24 18 45 -6l62 -70
q25 -29 0 -49q-167 -144 -390 -144q-152 0 -263.5 72t-160.5 194.5t-28 272.5q31 219 190 366.5t371 147.5zM586 842q-115 0 -204 -75t-124 -200h571q9 125 -58.5 200t-184.5 75z" />
    <glyph glyph-name="eacute" unicode="&#xe9;" horiz-adv-x="1107" 
d="M555 1112q-18 0 -27 12t0 29l160 258q5 9 10.5 13t10.5 5t14 1h129q18 0 27 -12t0 -29l-160 -259q-7 -12 -14 -15t-21 -3h-129zM598 1026q108 0 194 -41.5t138 -111.5t74 -162t8 -193q-8 -58 -21.5 -79t-52.5 -21h-702q0 -123 73.5 -194.5t204.5 -71.5q136 0 258 90
q24 18 45 -6l62 -70q25 -29 0 -49q-167 -144 -390 -144q-152 0 -263.5 72t-160.5 194.5t-28 272.5q31 219 190 366.5t371 147.5zM586 842q-115 0 -204 -75t-124 -200h571q9 125 -58.5 200t-184.5 75z" />
    <glyph glyph-name="ecircumflex" unicode="&#xea;" horiz-adv-x="1107" 
d="M350 1163q-20 0 -27 13.5t7 27.5l219 213q11 13 37 13h127q21 0 32 -21l160 -213q23 -33 -14 -33h-98q-21 0 -35 21l-115 153l-158 -161q-13 -13 -36 -13h-99zM598 1026q108 0 194 -41.5t138 -111.5t74 -162t8 -193q-8 -58 -21.5 -79t-52.5 -21h-702q0 -123 73.5 -194.5
t204.5 -71.5q136 0 258 90q24 18 45 -6l62 -70q25 -29 0 -49q-167 -144 -390 -144q-152 0 -263.5 72t-160.5 194.5t-28 272.5q31 219 190 366.5t371 147.5zM586 842q-115 0 -204 -75t-124 -200h571q9 125 -58.5 200t-184.5 75z" />
    <glyph glyph-name="edieresis" unicode="&#xeb;" horiz-adv-x="1107" 
d="M428 1214q-51 0 -82 37.5t-24 89.5q6 43 40.5 73t77.5 30q51 0 83 -37t26 -88q-6 -44 -42 -74.5t-79 -30.5zM840 1214q-51 0 -82.5 37.5t-24.5 89.5q6 43 41 73t78 30q51 0 82.5 -37t23.5 -88q-6 -44 -40.5 -74.5t-77.5 -30.5zM598 1026q108 0 194 -41.5t138 -111.5
t74 -162t8 -193q-8 -58 -21.5 -79t-52.5 -21h-702q0 -123 73.5 -194.5t204.5 -71.5q136 0 258 90q24 18 45 -6l62 -70q25 -29 0 -49q-167 -144 -390 -144q-152 0 -263.5 72t-160.5 194.5t-28 272.5q31 219 190 366.5t371 147.5zM586 842q-115 0 -204 -75t-124 -200h571
q9 125 -58.5 200t-184.5 75z" />
    <glyph glyph-name="igrave" unicode="&#xec;" horiz-adv-x="411" 
d="M82 1430h129q26 0 33 -31l88 -258q4 -17 -0.5 -23t-22.5 -6h-129q-26 0 -33 31l-88 258q-4 17 0.5 23t22.5 6zM135 977q3 27 33 27h151q13 0 22 -11.5t7 -23.5l-131 -938q-2 -13 -11.5 -22t-23.5 -9h-151q-14 0 -22.5 10t-6.5 21z" />
    <glyph glyph-name="iacute" unicode="&#xed;" horiz-adv-x="411" 
d="M506 1430q18 0 26 -12t0 -29l-159 -259q-7 -12 -14 -15t-21 -3h-129q-18 0 -27 12t0 29l160 258q5 9 10.5 13t10.5 5t14 1h129zM135 977q3 27 33 27h151q13 0 22 -11.5t7 -23.5l-131 -938q-2 -13 -11.5 -22t-23.5 -9h-151q-14 0 -22.5 10t-6.5 21z" />
    <glyph glyph-name="icircumflex" unicode="&#xee;" horiz-adv-x="411" 
d="M367 1430q21 0 32 -21l160 -213q23 -33 -14 -33h-99q-20 0 -34 21l-115 153l-158 -161q-13 -13 -37 -13h-98q-20 0 -27 13.5t7 27.5l219 213q11 13 37 13h127zM135 977q3 27 33 27h151q13 0 22 -11.5t7 -23.5l-131 -938q-2 -13 -11.5 -22t-23.5 -9h-151q-14 0 -22.5 10
t-6.5 21z" />
    <glyph glyph-name="idieresis" unicode="&#xef;" horiz-adv-x="411" 
d="M82 1214q-51 0 -82.5 37.5t-24.5 89.5q6 43 41 73t78 30q51 0 83 -37t26 -88q-6 -44 -42 -74.5t-79 -30.5zM494 1214q-51 0 -82.5 37.5t-24.5 89.5q6 43 41 73t78 30q51 0 82.5 -37t23.5 -88q-6 -44 -40.5 -74.5t-77.5 -30.5zM135 977q3 27 33 27h151q13 0 22 -11.5
t7 -23.5l-131 -938q-2 -13 -11.5 -22t-23.5 -9h-151q-14 0 -22.5 10t-6.5 21z" />
    <glyph glyph-name="eth" unicode="&#xf0;" horiz-adv-x="1163" 
d="M1202 1311q33 3 33 -29v-96q0 -30 -29 -33l-55 -8l-158 -1120q-3 -25 -28 -25h-140q-13 0 -22.5 11.5t-7.5 25.5l8 92q-149 -156 -342 -156q-142 0 -246.5 72t-151 195.5t-26.5 271.5q31 218 187.5 366t363.5 148q196 0 305 -162l37 252l-146 -18q-32 -3 -32 28v97
q0 29 28 32l172 23l29 190q3 27 33 27h151q13 0 22 -11.5t7 -23.5l-20 -153zM498 170q94 0 177 54.5t132 145t49 191.5q0 115 -71 191.5t-187 76.5q-147 0 -252.5 -115.5t-105.5 -275.5q0 -118 71 -193t187 -75z" />
    <glyph glyph-name="ntilde" unicode="&#xf1;" horiz-adv-x="1097" 
d="M500 1470q43 0 79.5 -14.5t61 -35t47 -40.5t49 -34.5t54.5 -14.5q38 0 66 21.5t40 50.5q6 6 23 6h47q9 0 15 -10t5 -23q-19 -84 -75.5 -127t-131.5 -43q-53 0 -97.5 22t-69.5 48t-58.5 48t-67.5 22q-38 0 -67 -22t-41 -52q-6 -4 -21 -4h-47q-10 0 -16.5 10.5t-3.5 26.5
q20 82 76 123.5t133 41.5zM674 1026q164 0 250 -110.5t59 -307.5l-82 -577q-2 -13 -11 -22t-22 -9h-153q-13 0 -21 10t-6 21l78 557q18 124 -28 182.5t-138 58.5q-62 0 -120.5 -28t-96 -66.5t-60.5 -73.5t-26 -53l-80 -577q-2 -13 -11.5 -22t-23.5 -9h-151q-14 0 -22.5 10
t-6.5 21l133 946q3 27 33 27h141q13 0 22 -11.5t9 -25.5l-12 -125q67 84 155.5 134t190.5 50z" />
    <glyph glyph-name="ograve" unicode="&#xf2;" horiz-adv-x="1161" 
d="M455 1430h129q25 0 32 -31l89 -258q4 -17 -0.5 -23t-22.5 -6h-129q-26 0 -33 31l-88 258q-4 17 0.5 23t22.5 6zM485 -27q-198 0 -325 130.5t-127 328.5q0 157 79.5 294t213.5 218.5t288 81.5q199 0 327 -130t128 -327q0 -156 -79 -293.5t-214.5 -220t-290.5 -82.5z
M502 172q148 0 254 116t106 273q0 120 -72.5 194t-189.5 74q-148 0 -255 -116.5t-107 -274.5q0 -119 73 -192.5t191 -73.5z" />
    <glyph glyph-name="oacute" unicode="&#xf3;" horiz-adv-x="1161" 
d="M879 1430q18 0 26 -12t0 -29l-160 -259q-7 -12 -13.5 -15t-20.5 -3h-129q-18 0 -27 12t0 29l160 258q5 9 10.5 13t10.5 5t14 1h129zM485 -27q-198 0 -325 130.5t-127 328.5q0 157 79.5 294t213.5 218.5t288 81.5q199 0 327 -130t128 -327q0 -156 -79 -293.5t-214.5 -220
t-290.5 -82.5zM502 172q148 0 254 116t106 273q0 120 -72.5 194t-189.5 74q-148 0 -255 -116.5t-107 -274.5q0 -119 73 -192.5t191 -73.5z" />
    <glyph glyph-name="ocircumflex" unicode="&#xf4;" horiz-adv-x="1161" 
d="M739 1430q23 0 33 -21l160 -213q23 -33 -14 -33h-99q-21 0 -35 21l-114 153l-158 -161q-13 -13 -37 -13h-98q-20 0 -27 13.5t6 27.5l219 213q11 13 37 13h127zM485 -27q-198 0 -325 130.5t-127 328.5q0 157 79.5 294t213.5 218.5t288 81.5q199 0 327 -130t128 -327
q0 -156 -79 -293.5t-214.5 -220t-290.5 -82.5zM502 172q148 0 254 116t106 273q0 120 -72.5 194t-189.5 74q-148 0 -255 -116.5t-107 -274.5q0 -119 73 -192.5t191 -73.5z" />
    <glyph glyph-name="otilde" unicode="&#xf5;" horiz-adv-x="1161" 
d="M530 1470q43 0 79.5 -14.5t61 -35t47 -40.5t49 -34.5t54.5 -14.5q38 0 66.5 21.5t40.5 50.5q6 6 22 6h47q9 0 15.5 -10t5.5 -23q-19 -84 -75.5 -127t-131.5 -43q-53 0 -97.5 22t-69.5 48t-58.5 48t-67.5 22q-38 0 -67 -22t-41 -52q-6 -4 -21 -4h-47q-10 0 -16.5 10.5
t-3.5 26.5q20 82 75.5 123.5t132.5 41.5zM485 -27q-198 0 -325 130.5t-127 328.5q0 157 79.5 294t213.5 218.5t288 81.5q199 0 327 -130t128 -327q0 -156 -79 -293.5t-214.5 -220t-290.5 -82.5zM502 172q148 0 254 116t106 273q0 120 -72.5 194t-189.5 74
q-148 0 -255 -116.5t-107 -274.5q0 -119 73 -192.5t191 -73.5z" />
    <glyph glyph-name="odieresis" unicode="&#xf6;" horiz-adv-x="1161" 
d="M455 1214q-51 0 -82.5 37.5t-24.5 89.5q6 43 41 73t78 30q51 0 82.5 -37t25.5 -88q-6 -44 -41.5 -74.5t-78.5 -30.5zM866 1214q-51 0 -82 37.5t-24 89.5q6 43 41 73t78 30q51 0 82.5 -37t23.5 -88q-6 -44 -41 -74.5t-78 -30.5zM485 -27q-198 0 -325 130.5t-127 328.5
q0 157 79.5 294t213.5 218.5t288 81.5q199 0 327 -130t128 -327q0 -156 -79 -293.5t-214.5 -220t-290.5 -82.5zM502 172q148 0 254 116t106 273q0 120 -72.5 194t-189.5 74q-148 0 -255 -116.5t-107 -274.5q0 -119 73 -192.5t191 -73.5z" />
    <glyph glyph-name="divide" unicode="&#xf7;" horiz-adv-x="925" 
d="M449 754q-52 0 -83.5 36t-23.5 89t48.5 89t92.5 36q53 0 84.5 -36.5t24.5 -88.5t-48.5 -88.5t-94.5 -36.5zM756 668q13 0 22.5 -11.5t7.5 -25.5l-16 -107q-3 -24 -29 -24h-651q-13 0 -22 11.5t-7 25.5l15 106q3 25 28 25h652zM360 131q-52 0 -83 36t-23 89t48.5 89
t92.5 36q53 0 84.5 -36.5t24.5 -88.5t-49 -88.5t-95 -36.5z" />
    <glyph glyph-name="oslash" unicode="&#xf8;" horiz-adv-x="1161" 
d="M844 969q105 -58 165 -163t60 -237q0 -156 -79 -293.5t-214.5 -220t-290.5 -82.5q-45 0 -88 9l-45 -103q-8 -22 -35 -22h-120q-17 0 -23.5 10t0.5 27l66 145q-97 61 -152 164t-55 229q0 157 79.5 294t213.5 218.5t288 81.5q28 0 68 -4l45 98q9 23 35 23h121q17 0 23 -10
t-1 -27zM238 438q0 -132 88 -207l270 598q-96 -1 -179 -55t-131 -144t-48 -192zM502 172q148 0 254 116t106 273q0 145 -102 221l-275 -610h17z" />
    <glyph glyph-name="ugrave" unicode="&#xf9;" horiz-adv-x="1087" 
d="M414 1430h129q25 0 32 -31l89 -258q4 -17 -0.5 -23t-22.5 -6h-129q-26 0 -33 31l-88 258q-4 17 0.5 23t22.5 6zM993 1004q14 0 23 -12t6 -25l-131 -942q-3 -25 -29 -25h-145q-13 0 -23 11.5t-8 25.5l8 106q-139 -170 -325 -170q-176 0 -265.5 111t-60.5 309l82 586
q3 25 29 25h153q13 0 23 -11.5t8 -25.5l-78 -553q-18 -124 29.5 -184t140.5 -60q61 0 117.5 25t93.5 61.5t60 73.5t26 65l82 584q6 25 31 25h153z" />
    <glyph glyph-name="uacute" unicode="&#xfa;" horiz-adv-x="1087" 
d="M838 1430q18 0 26 -12t0 -29l-159 -259q-7 -12 -14 -15t-21 -3h-129q-18 0 -27 12t0 29l160 258q5 9 10.5 13t10.5 5t14 1h129zM993 1004q14 0 23 -12t6 -25l-131 -942q-3 -25 -29 -25h-145q-13 0 -23 11.5t-8 25.5l8 106q-139 -170 -325 -170q-176 0 -265.5 111
t-60.5 309l82 586q3 25 29 25h153q13 0 23 -11.5t8 -25.5l-78 -553q-18 -124 29.5 -184t140.5 -60q61 0 117.5 25t93.5 61.5t60 73.5t26 65l82 584q6 25 31 25h153z" />
    <glyph glyph-name="ucircumflex" unicode="&#xfb;" horiz-adv-x="1087" 
d="M698 1430q22 0 33 -21l160 -213q23 -33 -14 -33h-99q-21 0 -35 21l-114 153l-158 -161q-13 -13 -37 -13h-98q-20 0 -27 13.5t6 27.5l220 213q11 13 36 13h127zM993 1004q14 0 23 -12t6 -25l-131 -942q-3 -25 -29 -25h-145q-13 0 -23 11.5t-8 25.5l8 106
q-139 -170 -325 -170q-176 0 -265.5 111t-60.5 309l82 586q3 25 29 25h153q13 0 23 -11.5t8 -25.5l-78 -553q-18 -124 29.5 -184t140.5 -60q61 0 117.5 25t93.5 61.5t60 73.5t26 65l82 584q6 25 31 25h153z" />
    <glyph glyph-name="udieresis" unicode="&#xfc;" horiz-adv-x="1087" 
d="M414 1214q-51 0 -82.5 37.5t-24.5 89.5q6 43 41 73t78 30q51 0 83 -37t26 -88q-6 -44 -42 -74.5t-79 -30.5zM825 1214q-51 0 -82 37.5t-24 89.5q6 43 41 73t78 30q51 0 82.5 -37t23.5 -88q-6 -44 -41 -74.5t-78 -30.5zM993 1004q14 0 23 -12t6 -25l-131 -942
q-3 -25 -29 -25h-145q-13 0 -23 11.5t-8 25.5l8 106q-139 -170 -325 -170q-176 0 -265.5 111t-60.5 309l82 586q3 25 29 25h153q13 0 23 -11.5t8 -25.5l-78 -553q-18 -124 29.5 -184t140.5 -60q61 0 117.5 25t93.5 61.5t60 73.5t26 65l82 584q6 25 31 25h153z" />
    <glyph glyph-name="yacute" unicode="&#xfd;" horiz-adv-x="1085" 
d="M838 1430q18 0 26 -12t0 -29l-159 -259q-7 -12 -14 -15t-21 -3h-129q-18 0 -27 12t0 29l160 258q5 9 10.5 13t10.5 5t14 1h129zM1044 1004q18 0 27 -12t0 -29l-715 -1330q-12 -22 -41 -22h-151q-17 0 -24.5 13t1.5 28l193 344l-248 979q-6 29 23 29h155q11 0 20.5 -9
t12.5 -20l174 -725l377 731q13 23 39 23h157z" />
    <glyph glyph-name="thorn" unicode="&#xfe;" horiz-adv-x="1187" 
d="M672 1026q189 0 306.5 -128.5t117.5 -322.5q0 -160 -74.5 -298.5t-204 -221t-280.5 -82.5q-189 0 -304 158l-73 -496q-3 -24 -29 -24h-156q-13 0 -21.5 11.5t-6.5 25.5l256 1822q3 25 30 25h154q13 0 22 -11.5t7 -25.5l-84 -581q143 149 340 149zM522 170q100 0 185 55.5
t133.5 147t48.5 194.5q0 116 -69.5 189t-184.5 73q-148 0 -255.5 -118t-107.5 -273q0 -115 68.5 -191t181.5 -77z" />
    <glyph glyph-name="ydieresis" unicode="&#xff;" horiz-adv-x="1085" 
d="M414 1214q-51 0 -82.5 37.5t-24.5 89.5q6 43 41 73t78 30q51 0 83 -37t26 -88q-6 -44 -42 -74.5t-79 -30.5zM825 1214q-51 0 -82 37.5t-24 89.5q6 43 41 73t78 30q51 0 82.5 -37t23.5 -88q-6 -44 -41 -74.5t-78 -30.5zM1044 1004q18 0 27 -12t0 -29l-715 -1330
q-12 -22 -41 -22h-151q-17 0 -24.5 13t1.5 28l193 344l-248 979q-6 29 23 29h155q11 0 20.5 -9t12.5 -20l174 -725l377 731q13 23 39 23h157z" />
    <glyph glyph-name="Amacron" unicode="&#x100;" horiz-adv-x="1327" 
d="M524 1690q-13 0 -22.5 10t-7.5 24l16 111q3 25 29 25h587q13 0 23 -11.5t8 -25.5l-16 -109q-3 -24 -29 -24h-588zM1182 33q7 -33 -25 -33h-162q-13 0 -21.5 8.5t-10.5 22.5l-58 272h-590l-135 -278q-10 -25 -37 -25h-168q-17 0 -24.5 13t0.5 28l694 1370q13 23 41 23h154
q12 0 21.5 -8.5t12.5 -22.5zM410 496h456l-137 655z" />
    <glyph glyph-name="amacron" unicode="&#x101;" 
d="M369 1260q-14 0 -23 10.5t-8 23.5l16 111q3 25 29 25h588q13 0 22.5 -11.5t7.5 -25.5l-16 -109q-3 -24 -29 -24h-587zM1096 1004q13 0 22.5 -11.5t7.5 -25.5l-133 -942q-3 -25 -28 -25h-140q-13 0 -21.5 11.5t-6.5 25.5l4 92q-149 -156 -340 -156q-192 0 -310 129
t-118 324q0 157 73.5 295t202.5 221.5t281 83.5q201 0 313 -170l25 121q6 27 30 27h138zM498 170q94 0 177 54.5t132 145t49 191.5q0 115 -71 191.5t-187 76.5q-147 0 -252.5 -115.5t-105.5 -275.5q0 -118 71 -193t187 -75z" />
    <glyph glyph-name="Abreve" unicode="&#x102;" horiz-adv-x="1327" 
d="M809 1579q-135 0 -208 73.5t-73 182.5q0 27 25 27h84q24 0 31 -37q17 -113 143 -113q69 0 118 35.5t64 91.5q8 23 35 23h76q16 0 24.5 -12t4.5 -31q-26 -105 -112.5 -172.5t-211.5 -67.5zM1182 33q7 -33 -25 -33h-162q-13 0 -21.5 8.5t-10.5 22.5l-58 272h-590l-135 -278
q-10 -25 -37 -25h-168q-17 0 -24.5 13t0.5 28l694 1370q13 23 41 23h154q12 0 21.5 -8.5t12.5 -22.5zM410 496h456l-137 655z" />
    <glyph glyph-name="abreve" unicode="&#x103;" 
d="M653 1149q-134 0 -207 73.5t-73 182.5q0 27 24 27h84q24 0 31 -37q17 -113 143 -113q69 0 118.5 35.5t64.5 91.5q8 23 34 23h76q16 0 24.5 -12t4.5 -31q-26 -105 -112.5 -172.5t-211.5 -67.5zM1096 1004q13 0 22.5 -11.5t7.5 -25.5l-133 -942q-3 -25 -28 -25h-140
q-13 0 -21.5 11.5t-6.5 25.5l4 92q-149 -156 -340 -156q-192 0 -310 129t-118 324q0 157 73.5 295t202.5 221.5t281 83.5q201 0 313 -170l25 121q6 27 30 27h138zM498 170q94 0 177 54.5t132 145t49 191.5q0 115 -71 191.5t-187 76.5q-147 0 -252.5 -115.5t-105.5 -275.5
q0 -118 71 -193t187 -75z" />
    <glyph glyph-name="Aogonek" unicode="&#x104;" horiz-adv-x="1327" 
d="M1182 33q3 -15 -3.5 -24t-19.5 -9q-94 0 -162.5 -57.5t-78.5 -124.5q-6 -52 28 -74.5t111 -5.5l-10 -146q-35 -14 -79 -17.5t-89 7.5t-81 35t-55 71t-10 109q11 84 73.5 148.5t151.5 105.5l-53 252h-590l-135 -278q-10 -25 -37 -25h-168q-17 0 -24.5 13t0.5 28l694 1370
q13 23 41 23h154q12 0 21.5 -8.5t12.5 -22.5zM410 496h456l-137 655z" />
    <glyph glyph-name="aogonek" unicode="&#x105;" 
d="M1096 1004q13 0 22.5 -11.5t7.5 -25.5l-133 -942q-3 -25 -28 -25q-96 0 -152.5 -53.5t-56.5 -118.5q0 -56 40 -82.5t115 -9.5v-142q-33 -14 -76 -18.5t-89 5t-84.5 32t-63.5 67.5t-25 105q0 96 64 166.5t162 109.5l2 68q-149 -156 -340 -156q-192 0 -310 129t-118 324
q0 157 73.5 295t202.5 221.5t281 83.5q201 0 313 -170l25 121q6 27 30 27h138zM498 170q94 0 177 54.5t132 145t49 191.5q0 115 -71 191.5t-187 76.5q-147 0 -252.5 -115.5t-105.5 -275.5q0 -118 71 -193t187 -75z" />
    <glyph glyph-name="Cacute" unicode="&#x106;" horiz-adv-x="1378" 
d="M1151 1860q18 0 27 -12t0 -29l-160 -258q-5 -9 -10.5 -13t-10.5 -5t-14 -1h-129q-18 0 -27 12t0 29l160 258q5 9 10.5 13t10.5 5t14 1h129zM1141 317l84 -104q24 -31 -4 -53q-241 -187 -510 -187q-184 0 -331 84t-228.5 230t-81.5 327q0 165 68 319.5t180.5 267.5
t265 181t315.5 68q284 0 465 -207q25 -29 4 -47l-104 -90q-21 -19 -47 4q-143 123 -328 123q-156 0 -293.5 -85t-218 -226.5t-80.5 -300.5q0 -187 119.5 -307.5t304.5 -120.5q196 0 366 126q32 23 54 -2z" />
    <glyph glyph-name="cacute" unicode="&#x107;" horiz-adv-x="1128" 
d="M915 1491q18 0 27 -12t0 -29l-160 -258q-7 -12 -13.5 -15t-20.5 -3h-130q-18 0 -26 11.5t0 28.5l160 259q7 12 13.5 15t20.5 3h129zM500 172q87 0 146 28.5t112 78.5q22 23 45 0l84 -91q10 -10 10.5 -23.5t-12.5 -27.5q-82 -77 -187 -120.5t-219 -43.5
q-197 0 -321.5 129.5t-124.5 327.5q0 159 77.5 296t210 218.5t287.5 81.5q118 0 210 -49t153 -137q19 -27 -2 -43l-101 -80q-9 -7 -21.5 -5t-21.5 11q-48 51 -98.5 78.5t-130.5 27.5q-149 0 -253.5 -115t-104.5 -272q0 -122 71 -196t191 -74z" />
    <glyph glyph-name="Cdotaccent" unicode="&#x10a;" horiz-adv-x="1378" 
d="M932 1645q-51 0 -82.5 37.5t-24.5 89.5q6 42 41 72t78 30q51 0 83 -37t26 -88q-6 -44 -42 -74t-79 -30zM1141 317l84 -104q24 -31 -4 -53q-241 -187 -510 -187q-184 0 -331 84t-228.5 230t-81.5 327q0 165 68 319.5t180.5 267.5t265 181t315.5 68q284 0 465 -207
q25 -29 4 -47l-104 -90q-21 -19 -47 4q-143 123 -328 123q-156 0 -293.5 -85t-218 -226.5t-80.5 -300.5q0 -187 119.5 -307.5t304.5 -120.5q196 0 366 126q32 23 54 -2z" />
    <glyph glyph-name="cdotaccent" unicode="&#x10b;" horiz-adv-x="1128" 
d="M676 1214q-51 0 -82.5 37.5t-24.5 89.5q6 43 41 73t78 30q51 0 83 -37t26 -88q-6 -44 -42 -74.5t-79 -30.5zM500 172q87 0 146 28.5t112 78.5q22 23 45 0l84 -91q10 -10 10.5 -23.5t-12.5 -27.5q-82 -77 -187 -120.5t-219 -43.5q-197 0 -321.5 129.5t-124.5 327.5
q0 159 77.5 296t210 218.5t287.5 81.5q118 0 210 -49t153 -137q19 -27 -2 -43l-101 -80q-9 -7 -21.5 -5t-21.5 11q-48 51 -98.5 78.5t-130.5 27.5q-149 0 -253.5 -115t-104.5 -272q0 -122 71 -196t191 -74z" />
    <glyph glyph-name="Ccaron" unicode="&#x10c;" horiz-adv-x="1378" 
d="M983 1593h-127q-21 0 -35 21l-157 213q-23 33 14 33h98q22 0 33 -21l115 -151l159 159q11 13 37 13h99q20 0 26 -14t-6 -27l-219 -213q-13 -13 -37 -13zM1141 317l84 -104q24 -31 -4 -53q-241 -187 -510 -187q-184 0 -331 84t-228.5 230t-81.5 327q0 165 68 319.5
t180.5 267.5t265 181t315.5 68q284 0 465 -207q25 -29 4 -47l-104 -90q-21 -19 -47 4q-143 123 -328 123q-156 0 -293.5 -85t-218 -226.5t-80.5 -300.5q0 -187 119.5 -307.5t304.5 -120.5q196 0 366 126q32 23 54 -2z" />
    <glyph glyph-name="ccaron" unicode="&#x10d;" horiz-adv-x="1128" 
d="M680 1167h-127q-21 0 -35 21l-158 213q-23 33 15 33h98q23 0 33 -21l115 -151l159 159q11 13 37 13h98q20 0 26.5 -14t-5.5 -27l-219 -213q-13 -13 -37 -13zM500 172q87 0 146 28.5t112 78.5q22 23 45 0l84 -91q10 -10 10.5 -23.5t-12.5 -27.5q-82 -77 -187 -120.5
t-219 -43.5q-197 0 -321.5 129.5t-124.5 327.5q0 159 77.5 296t210 218.5t287.5 81.5q118 0 210 -49t153 -137q19 -27 -2 -43l-101 -80q-9 -7 -21.5 -5t-21.5 11q-48 51 -98.5 78.5t-130.5 27.5q-149 0 -253.5 -115t-104.5 -272q0 -122 71 -196t191 -74z" />
    <glyph glyph-name="Dcaron" unicode="&#x10e;" horiz-adv-x="1329" 
d="M836 1593h-127q-21 0 -35 21l-158 213q-23 33 14 33h99q23 0 33 -21l114 -151l160 159q11 13 37 13h98q20 0 26.5 -14t-5.5 -27l-220 -213q-13 -13 -36 -13zM608 1434q162 0 289 -45.5t208 -127t123 -191t42 -241.5q0 -242 -108 -431t-302.5 -293.5t-443.5 -104.5h-365
q-13 0 -22 11.5t-6 25.5l192 1372q3 25 29 25h364zM434 201q287 0 450 174.5t163 460.5q0 192 -114.5 294.5t-342.5 102.5h-178l-144 -1032h166z" />
    <glyph glyph-name="dcaron" unicode="&#x10f;" horiz-adv-x="1480" 
d="M1165 1495q13 0 22 -11.5t7 -23.5l-201 -1435q-3 -25 -28 -25h-140q-13 0 -22.5 11.5t-7.5 25.5l8 92q-149 -156 -342 -156q-142 0 -246.5 72t-151 195.5t-26.5 271.5q31 218 187.5 366t363.5 148q196 0 305 -162l88 604q3 27 33 27h151zM1546 1434q18 0 27 -12t0 -29
l-160 -258q-5 -9 -10.5 -13t-10.5 -5t-14 -1h-129q-18 0 -26 12t0 29l159 258q5 9 10.5 13t10.5 5t14 1h129zM498 170q94 0 177 54.5t132 145t49 191.5q0 115 -71 191.5t-187 76.5q-147 0 -252.5 -115.5t-105.5 -275.5q0 -118 71 -193t187 -75z" />
    <glyph glyph-name="Dcroat" unicode="&#x110;" horiz-adv-x="1402" 
d="M684 1434q162 0 289 -45.5t208 -127t123 -191t42 -241.5q0 -242 -108 -431t-302.5 -293.5t-443.5 -104.5h-365q-14 0 -23 12t-6 25l82 590h-39q-13 0 -22.5 10.5t-7.5 24.5l16 110q3 25 29 25h49l86 612q3 25 28 25h365zM510 201q287 0 449.5 174.5t162.5 460.5
q0 192 -114 294.5t-342 102.5h-179l-61 -436h317q13 0 23 -11.5t8 -25.5l-16 -109q-3 -24 -29 -24h-326l-59 -426h166z" />
    <glyph glyph-name="dcroat" unicode="&#x111;" horiz-adv-x="1230" 
d="M1286 1313q13 0 23 -11.5t8 -25.5l-17 -109q-3 -24 -28 -24h-123l-156 -1118q-3 -25 -28 -25h-140q-13 0 -22.5 11.5t-7.5 25.5l8 92q-149 -156 -342 -156q-142 0 -246.5 72t-151 195.5t-26.5 271.5q31 218 187.5 366t363.5 148q196 0 305 -162l41 279h-250
q-13 0 -23 10.5t-8 24.5l17 110q3 25 28 25h260l23 155q3 27 33 27h151q13 0 22 -11.5t7 -23.5l-20 -147h112zM498 170q94 0 177 54.5t132 145t49 191.5q0 115 -71 191.5t-187 76.5q-147 0 -252.5 -115.5t-105.5 -275.5q0 -118 71 -193t187 -75z" />
    <glyph glyph-name="Emacron" unicode="&#x112;" horiz-adv-x="999" 
d="M365 1690q-14 0 -23 10.5t-8 23.5l16 111q3 25 29 25h588q13 0 22.5 -11.5t7.5 -25.5l-16 -109q-3 -24 -29 -24h-587zM973 1434q13 0 23 -11.5t8 -25.5l-19 -140q-5 -24 -31 -24h-540l-56 -383h500q13 0 23 -11.5t8 -25.5l-19 -139q-6 -25 -30 -25h-510l-62 -448h533
q14 0 24 -12t9 -25l-21 -139q-3 -25 -29 -25h-733q-13 0 -21.5 11t-6.5 26l192 1368q3 29 35 29h723z" />
    <glyph glyph-name="emacron" unicode="&#x113;" horiz-adv-x="1107" 
d="M340 1260q-14 0 -23 10.5t-8 23.5l17 111q3 25 28 25h588q13 0 23 -11.5t8 -25.5l-17 -109q-3 -24 -28 -24h-588zM598 1026q108 0 194 -41.5t138 -111.5t74 -162t8 -193q-8 -58 -21.5 -79t-52.5 -21h-702q0 -123 73.5 -194.5t204.5 -71.5q136 0 258 90q24 18 45 -6
l62 -70q25 -29 0 -49q-167 -144 -390 -144q-152 0 -263.5 72t-160.5 194.5t-28 272.5q31 219 190 366.5t371 147.5zM586 842q-115 0 -204 -75t-124 -200h571q9 125 -58.5 200t-184.5 75z" />
    <glyph glyph-name="Edotaccent" unicode="&#x116;" horiz-adv-x="999" 
d="M657 1645q-51 0 -82 37.5t-24 89.5q6 42 41 72t78 30q51 0 82.5 -37t25.5 -88q-6 -44 -42 -74t-79 -30zM973 1434q13 0 23 -11.5t8 -25.5l-19 -140q-5 -24 -31 -24h-540l-56 -383h500q13 0 23 -11.5t8 -25.5l-19 -139q-6 -25 -30 -25h-510l-62 -448h533q14 0 24 -12
t9 -25l-21 -139q-3 -25 -29 -25h-733q-13 0 -21.5 11t-6.5 26l192 1368q3 29 35 29h723z" />
    <glyph glyph-name="edotaccent" unicode="&#x117;" horiz-adv-x="1107" 
d="M633 1214q-51 0 -82.5 37.5t-24.5 89.5q6 43 41 73t78 30q51 0 83 -37t26 -88q-6 -44 -42 -74.5t-79 -30.5zM598 1026q108 0 194 -41.5t138 -111.5t74 -162t8 -193q-8 -58 -21.5 -79t-52.5 -21h-702q0 -123 73.5 -194.5t204.5 -71.5q136 0 258 90q24 18 45 -6l62 -70
q25 -29 0 -49q-167 -144 -390 -144q-152 0 -263.5 72t-160.5 194.5t-28 272.5q31 219 190 366.5t371 147.5zM586 842q-115 0 -204 -75t-124 -200h571q9 125 -58.5 200t-184.5 75z" />
    <glyph glyph-name="Eogonek" unicode="&#x118;" horiz-adv-x="999" 
d="M973 1434q13 0 23 -11.5t8 -25.5l-19 -140q-5 -24 -31 -24h-540l-56 -383h500q13 0 23 -11.5t8 -25.5l-19 -139q-6 -25 -30 -25h-510l-62 -448h533q14 0 24 -12t9 -25l-21 -139q-3 -22 -22 -25q-94 0 -163 -57.5t-79 -124.5q-6 -52 28 -74.5t111 -5.5l-10 -146
q-29 -12 -64.5 -16t-73.5 0t-72.5 20t-60 41t-37.5 66.5t-5 93.5q16 118 135 203h-449q-13 0 -21.5 11t-6.5 26l192 1368q3 29 35 29h723z" />
    <glyph glyph-name="eogonek" unicode="&#x119;" horiz-adv-x="1107" 
d="M598 1026q108 0 194 -41.5t138 -111.5t74 -162t8 -193q-8 -58 -21.5 -79t-52.5 -21h-702q0 -123 73.5 -194.5t204.5 -71.5q136 0 258 90q24 18 45 -6l62 -70q25 -29 0 -49q-100 -87 -232 -123q-86 -28 -134 -74.5t-48 -103.5q0 -55 40.5 -81t115.5 -9v-142
q-32 -14 -75 -18.5t-88.5 5t-84 32t-63.5 67.5t-25 105q0 120 112 207q-190 31 -289.5 179t-70.5 351q31 219 190 366.5t371 147.5zM586 842q-115 0 -204 -75t-124 -200h571q9 125 -58.5 200t-184.5 75z" />
    <glyph glyph-name="Ecaron" unicode="&#x11a;" horiz-adv-x="999" 
d="M547 1614l-158 213q-23 33 14 33h99q22 0 33 -21l114 -151l160 159q11 13 37 13h98q20 0 26.5 -14t-5.5 -27l-220 -213q-13 -13 -36 -13h-127q-21 0 -35 21zM973 1434q13 0 23 -11.5t8 -25.5l-19 -140q-5 -24 -31 -24h-540l-56 -383h500q13 0 23 -11.5t8 -25.5l-19 -139
q-6 -25 -30 -25h-510l-62 -448h533q14 0 24 -12t9 -25l-21 -139q-3 -25 -29 -25h-733q-13 0 -21.5 11t-6.5 26l192 1368q3 29 35 29h723z" />
    <glyph glyph-name="ecaron" unicode="&#x11b;" horiz-adv-x="1107" 
d="M522 1184l-157 213q-23 33 14 33h98q23 0 33 -21l115 -152l159 160q11 13 37 13h99q20 0 26 -14t-6 -27l-219 -213q-13 -13 -37 -13h-127q-21 0 -35 21zM598 1026q108 0 194 -41.5t138 -111.5t74 -162t8 -193q-8 -58 -21.5 -79t-52.5 -21h-702q0 -123 73.5 -194.5
t204.5 -71.5q136 0 258 90q24 18 45 -6l62 -70q25 -29 0 -49q-167 -144 -390 -144q-152 0 -263.5 72t-160.5 194.5t-28 272.5q31 219 190 366.5t371 147.5zM586 842q-115 0 -204 -75t-124 -200h571q9 125 -58.5 200t-184.5 75z" />
    <glyph glyph-name="Gbreve" unicode="&#x11e;" horiz-adv-x="1529" 
d="M1116 1839q8 23 35 23h76q16 0 24 -11.5t4 -31.5q-26 -105 -112 -172.5t-211 -67.5q-135 0 -208 73.5t-73 182.5q0 27 25 27h84q24 0 31 -37q17 -113 143 -113q69 0 118 35.5t64 91.5zM1427 772q19 0 28.5 -12.5t6.5 -32.5l-10 -74q-32 -201 -129 -354t-254.5 -239.5
t-355.5 -86.5q-187 0 -334.5 85t-228 232.5t-80.5 330.5q0 164 68 317t181 265t265.5 179.5t314.5 67.5q287 0 463 -207q27 -27 4 -47l-104 -90q-20 -20 -48 4q-143 123 -329 123q-156 0 -292.5 -84t-216 -224.5t-79.5 -299.5q0 -190 119 -311t309 -121q196 0 334 109.5
t168 277.5h-416q-14 0 -23 9.5t-8 22.5l19 129q2 14 10.5 22.5t21.5 8.5h596z" />
    <glyph glyph-name="gbreve" unicode="&#x11f;" horiz-adv-x="1177" 
d="M666 1149q-135 0 -208 73.5t-73 182.5q0 27 25 27h84q23 0 30 -37q8 -52 43.5 -82.5t100.5 -30.5q69 0 118 35.5t64 91.5q8 23 35 23h76q16 0 24 -11.5t4 -31.5q-26 -105 -112 -172.5t-211 -67.5zM1096 1004q13 0 22.5 -11.5t7.5 -25.5l-135 -957q-13 -91 -55 -164.5
t-99 -119.5t-129.5 -76.5t-142.5 -43t-141 -12.5q-121 0 -223.5 32t-169.5 85q-28 22 -11 45l52 78q16 21 43 8q134 -67 301 -67q60 0 119.5 14t115 43t94 80.5t48.5 118.5l16 119q-153 -156 -346 -156q-192 0 -311 127.5t-119 318.5q0 153 74.5 288.5t203 216.5t277.5 81
q204 0 315 -168l23 121q6 25 30 25h140zM502 190q96 0 178 53.5t128 139t46 178.5q0 115 -73 191.5t-189 76.5q-145 0 -248.5 -109.5t-103.5 -258.5q0 -119 73.5 -195t188.5 -76z" />
    <glyph glyph-name="Gdotaccent" unicode="&#x120;" horiz-adv-x="1529" 
d="M940 1645q-51 0 -82 37.5t-24 89.5q6 43 40.5 72.5t77.5 29.5q51 0 83 -37t26 -88q-6 -44 -42 -74t-79 -30zM1427 772q19 0 28.5 -12.5t6.5 -32.5l-10 -74q-32 -201 -129 -354t-254.5 -239.5t-355.5 -86.5q-187 0 -334.5 85t-228 232.5t-80.5 330.5q0 164 68 317t181 265
t265.5 179.5t314.5 67.5q287 0 463 -207q27 -27 4 -47l-104 -90q-20 -20 -48 4q-143 123 -329 123q-156 0 -292.5 -84t-216 -224.5t-79.5 -299.5q0 -190 119 -311t309 -121q196 0 334 109.5t168 277.5h-416q-14 0 -23 9.5t-8 22.5l19 129q2 14 10.5 22.5t21.5 8.5h596z" />
    <glyph glyph-name="gdotaccent" unicode="&#x121;" horiz-adv-x="1177" 
d="M674 1214q-51 0 -82.5 37.5t-24.5 89.5q6 43 41 73t78 30q51 0 83 -37t26 -88q-6 -44 -42 -74.5t-79 -30.5zM1096 1004q13 0 22.5 -11.5t7.5 -25.5l-135 -957q-13 -91 -55 -164.5t-99 -119.5t-129.5 -76.5t-142.5 -43t-141 -12.5q-121 0 -223.5 32t-169.5 85
q-28 22 -11 45l52 78q16 21 43 8q134 -67 301 -67q60 0 119.5 14t115 43t94 80.5t48.5 118.5l16 119q-153 -156 -346 -156q-192 0 -311 127.5t-119 318.5q0 153 74.5 288.5t203 216.5t277.5 81q204 0 315 -168l23 121q6 25 30 25h140zM502 190q96 0 178 53.5t128 139
t46 178.5q0 115 -73 191.5t-189 76.5q-145 0 -248.5 -109.5t-103.5 -258.5q0 -119 73.5 -195t188.5 -76z" />
    <glyph glyph-name="Gcommaaccent" unicode="&#x122;" horiz-adv-x="1529" 
d="M1427 772q19 0 28.5 -12.5t6.5 -32.5l-10 -74q-32 -201 -129 -354t-254.5 -239.5t-355.5 -86.5q-187 0 -334.5 85t-228 232.5t-80.5 330.5q0 164 68 317t181 265t265.5 179.5t314.5 67.5q287 0 463 -207q27 -27 4 -47l-104 -90q-20 -20 -48 4q-143 123 -329 123
q-156 0 -292.5 -84t-216 -224.5t-79.5 -299.5q0 -190 119 -311t309 -121q196 0 334 109.5t168 277.5h-416q-14 0 -23 9.5t-8 22.5l19 129q2 14 10.5 22.5t21.5 8.5h596zM651 -78q57 0 91 -44t24 -114q-17 -124 -143 -276q-2 -2 -13 -1l-10 1h-25q-8 0 -12.5 10t-1.5 23
q53 74 70 157q-52 -4 -85.5 35.5t-25.5 96.5q6 47 44 79.5t87 32.5z" />
    <glyph glyph-name="gcommaaccent" unicode="&#x123;" horiz-adv-x="1177" 
d="M657 1100q-57 0 -90.5 43.5t-23.5 113.5q17 125 143 277h23h24q8 0 13 -10t2 -23q-53 -73 -70 -158q52 4 85 -35t25 -96q-6 -47 -44 -79.5t-87 -32.5zM1096 1004q13 0 22.5 -11.5t7.5 -25.5l-135 -957q-13 -91 -55 -164.5t-99 -119.5t-129.5 -76.5t-142.5 -43t-141 -12.5
q-121 0 -223.5 32t-169.5 85q-28 22 -11 45l52 78q16 21 43 8q134 -67 301 -67q60 0 119.5 14t115 43t94 80.5t48.5 118.5l16 119q-153 -156 -346 -156q-192 0 -311 127.5t-119 318.5q0 153 74.5 288.5t203 216.5t277.5 81q204 0 315 -168l23 121q6 25 30 25h140zM502 190
q96 0 178 53.5t128 139t46 178.5q0 115 -73 191.5t-189 76.5q-145 0 -248.5 -109.5t-103.5 -258.5q0 -119 73.5 -195t188.5 -76z" />
    <glyph glyph-name="Hbar" unicode="&#x126;" horiz-adv-x="1284" 
d="M1233 1434q14 0 22.5 -10.5t6.5 -24.5l-193 -1366q-3 -33 -37 -33h-155q-13 0 -22 11t-7 26l80 571h-602l-82 -575q-3 -33 -37 -33h-156q-13 0 -21.5 11t-6.5 26l192 1368q3 29 35 29h158q14 0 22 -10.5t6 -24.5l-33 -240h603l34 246q3 29 35 29h158zM352 807h604l23 166
h-602z" />
    <glyph glyph-name="hbar" unicode="&#x127;" horiz-adv-x="1112" 
d="M690 1026q164 0 250 -111t57 -307l-79 -577q-2 -13 -11.5 -22t-23.5 -9h-152q-14 0 -22.5 10t-6.5 21l78 557q18 124 -27 182.5t-137 58.5q-62 0 -120.5 -28t-96 -66.5t-60.5 -73.5t-26 -53l-82 -577q-2 -13 -10.5 -22t-21.5 -9h-154q-13 0 -21.5 10t-5.5 21l154 1099
h-49q-13 0 -23 10.5t-8 24.5l17 111q3 24 28 24h60l22 168q3 27 33 27h151q13 0 22 -11.5t7 -23.5l-22 -160h315q13 0 23 -11t8 -25l-17 -109q-3 -25 -28 -25h-326l-43 -288q145 184 348 184z" />
    <glyph glyph-name="Imacron" unicode="&#x12a;" horiz-adv-x="458" 
d="M680 1860q13 0 23 -11.5t8 -25.5l-17 -109q-3 -24 -28 -24h-588q-14 0 -23 10.5t-8 23.5l16 111q3 25 29 25h588zM215 1405q3 29 35 29h158q14 0 22 -10.5t6 -24.5l-192 -1366q-3 -33 -37 -33h-156q-13 0 -21.5 11t-6.5 26z" />
    <glyph glyph-name="imacron" unicode="&#x12b;" horiz-adv-x="411" 
d="M596 1430q13 0 23 -11.5t8 -25.5l-17 -109q-3 -24 -28 -24h-588q-14 0 -23 10.5t-8 23.5l17 111q3 25 28 25h588zM135 977q3 27 33 27h151q13 0 22 -11.5t7 -23.5l-131 -938q-2 -13 -11.5 -22t-23.5 -9h-151q-14 0 -22.5 10t-6.5 21z" />
    <glyph glyph-name="iogonek" unicode="&#x12f;" horiz-adv-x="411" 
d="M299 1444q51 0 83 -37t26 -88q-6 -44 -42 -74.5t-79 -30.5q-51 0 -82.5 37.5t-24.5 89.5q6 43 41 73t78 30zM319 1004q13 0 22 -11.5t7 -23.5l-131 -938q-2 -11 -10 -20.5t-19 -10.5q-94 0 -162.5 -57.5t-78.5 -124.5q-6 -52 28 -74.5t111 -5.5l-10 -146
q-35 -14 -79 -17.5t-89 7.5t-81 35t-55 71t-10 109q13 90 80.5 156.5t163.5 105.5l129 918q3 27 33 27h151z" />
    <glyph glyph-name="Idotaccent" unicode="&#x130;" horiz-adv-x="458" 
d="M371 1645q-51 0 -82.5 37.5t-24.5 89.5q6 42 41 72t78 30q51 0 83 -37t26 -88q-6 -44 -42 -74t-79 -30zM215 1405q3 29 35 29h158q14 0 22 -10.5t6 -24.5l-192 -1366q-3 -33 -37 -33h-156q-13 0 -21.5 11t-6.5 26z" />
    <glyph glyph-name="dotlessi" unicode="&#x131;" horiz-adv-x="411" 
d="M135 977q3 27 33 27h151q13 0 22 -11.5t7 -23.5l-131 -938q-2 -13 -11.5 -22t-23.5 -9h-151q-14 0 -22.5 10t-6.5 21z" />
    <glyph glyph-name="IJ" unicode="&#x132;" horiz-adv-x="1464" 
d="M215 1405q3 29 35 29h158q14 0 22 -10.5t6 -24.5l-192 -1366q-3 -33 -37 -33h-156q-13 0 -21.5 11t-6.5 26zM535 270q18 18 43 0q46 -35 94.5 -55t118.5 -20q121 0 202 87.5t105 260.5l123 866q3 25 28 25h162q13 0 23 -11.5t8 -25.5l-123 -875q-40 -278 -179 -409
t-358 -131q-115 0 -202 42t-134 105q-20 27 -4 43z" />
    <glyph glyph-name="ij" unicode="&#x133;" horiz-adv-x="925" 
d="M287 1219q-56 0 -90 39t-25 96q6 47 44 80.5t85 33.5q57 0 91 -40t26 -97q-6 -47 -44 -79.5t-87 -32.5zM799 1219q-56 0 -90 39t-25 96q6 47 44 80.5t85 33.5q57 0 91 -40t26 -97q-6 -47 -44 -79.5t-87 -32.5zM137 977q3 27 33 27h152q13 0 21.5 -11t6.5 -24l-131 -938
q-2 -13 -11.5 -22t-23.5 -9h-151q-14 0 -22.5 10t-6.5 21zM680 1004h154q13 0 22 -11.5t6 -25.5l-133 -957q-30 -205 -139.5 -307.5t-280.5 -108.5q-13 0 -21.5 7.5t-6.5 15.5l-27 158q-3 16 8 18q103 6 171.5 70t86.5 188l129 928q6 25 31 25z" />
    <glyph glyph-name="Kcommaaccent" unicode="&#x136;" horiz-adv-x="1241" 
d="M1202 1434q18 0 23 -16t-6 -27l-594 -576l462 -782q20 -33 -14 -33h-190q-22 0 -39 27l-379 632l-154 -151l-67 -475q-3 -33 -37 -33h-156q-13 0 -21.5 11t-6.5 26l192 1368q3 29 35 29h158q14 0 22 -10.5t6 -24.5l-80 -572l598 590q20 17 50 17h198zM109 -78
q57 0 90.5 -44t23.5 -114q-17 -124 -143 -276h-23h-24q-8 0 -13 10t-2 23q53 74 70 157q-52 -4 -85.5 35.5t-25.5 96.5q6 47 44 79.5t88 32.5z" />
    <glyph glyph-name="kcommaaccent" unicode="&#x137;" horiz-adv-x="1048" 
d="M985 1004q20 0 28 -14t-5 -27l-422 -385l340 -547q22 -31 -15 -31h-166q-23 0 -34 25l-273 419l-188 -172l-35 -241q-2 -13 -11 -22t-22 -9h-153q-13 0 -21.5 10t-5.5 21l201 1437q3 27 33 27h151q13 0 22 -11.5t7 -23.5l-129 -923l483 450q17 17 41 17h174zM426 -78
q57 0 91 -44t24 -114q-17 -123 -144 -276h-22h-25q-8 0 -12.5 10t-1.5 23q53 74 70 157q-52 -4 -85.5 35.5t-25.5 96.5q6 47 44 79.5t87 32.5z" />
    <glyph glyph-name="Lacute" unicode="&#x139;" horiz-adv-x="927" 
d="M279 1538q-18 0 -27 12t0 29l160 258q7 12 13.5 15t20.5 3h129q18 0 27 -11.5t0 -28.5l-160 -259q-7 -12 -13.5 -15t-20.5 -3h-129zM760 201q14 0 24 -12t9 -25l-21 -139q-3 -25 -29 -25h-692q-13 0 -21.5 11t-6.5 26l192 1368q3 29 35 29h158q14 0 22 -10.5t6 -24.5
l-168 -1198h492z" />
    <glyph glyph-name="lacute" unicode="&#x13a;" horiz-adv-x="409" 
d="M573 1921q18 0 27 -12t0 -29l-160 -258q-7 -12 -13.5 -15t-20.5 -3h-130q-18 0 -26 12t0 29l160 258q7 12 13.5 15t20.5 3h129zM203 1468q3 27 33 27h151q13 0 22 -11.5t7 -23.5l-201 -1429q-2 -13 -11 -22t-22 -9h-153q-13 0 -21.5 10t-5.5 21z" />
    <glyph glyph-name="Lcommaaccent" unicode="&#x13b;" horiz-adv-x="927" 
d="M760 201q14 0 24 -12t9 -25l-21 -139q-3 -25 -29 -25h-692q-13 0 -21.5 11t-6.5 26l192 1368q3 29 35 29h158q14 0 22 -10.5t6 -24.5l-168 -1198h492zM365 -78q57 0 90.5 -44t23.5 -114q-17 -124 -143 -276q-2 -2 -12 -1l-11 1h-24q-8 0 -13 10t-2 23q53 74 70 157
q-52 -4 -85.5 35.5t-25.5 96.5q6 47 44 79.5t88 32.5z" />
    <glyph glyph-name="lcommaaccent" unicode="&#x13c;" horiz-adv-x="409" 
d="M203 1468q3 27 33 27h151q13 0 22 -11.5t7 -23.5l-201 -1429q-2 -13 -11 -22t-22 -9h-153q-13 0 -21.5 10t-5.5 21zM84 -78q57 0 91 -44t24 -114q-17 -123 -144 -276h-22h-25q-8 0 -12.5 10t-1.5 23q52 72 69 157q-52 -4 -85 35.5t-25 96.5q6 47 44 79.5t87 32.5z" />
    <glyph glyph-name="Lcaron" unicode="&#x13d;" horiz-adv-x="927" 
d="M649 1192q-53 0 -89 36t-36 89t36 89t89 36q54 0 90.5 -40t36.5 -106q0 -143 -112 -280q-8 -8 -19 -8h-24q-20 0 -13 20q41 80 41 164zM760 201q14 0 24 -12t9 -25l-21 -139q-3 -25 -29 -25h-692q-13 0 -21.5 11t-6.5 26l192 1368q3 29 35 29h158q14 0 22 -10.5t6 -24.5
l-168 -1198h492z" />
    <glyph glyph-name="lcaron" unicode="&#x13e;" horiz-adv-x="630" 
d="M618 1499q54 0 90.5 -39.5t36.5 -105.5q0 -144 -112 -281q-8 -8 -19 -8h-24q-19 0 -12 20q40 78 40 164q-52 0 -88 36t-36 89t36 89t88 36zM203 1468q3 27 33 27h151q13 0 22 -11.5t7 -23.5l-201 -1429q-2 -13 -11 -22t-22 -9h-153q-13 0 -21.5 10t-5.5 21z" />
    <glyph glyph-name="Ldot" unicode="&#x13f;" horiz-adv-x="929" 
d="M760 201q14 0 24 -12t9 -25l-21 -139q-3 -25 -29 -25h-692q-13 0 -21.5 11t-6.5 26l192 1368q3 29 35 29h158q14 0 22 -10.5t6 -24.5l-168 -1198h492zM678 631q-52 0 -88.5 36.5t-36.5 88.5t36.5 88.5t88.5 36.5t88.5 -36.5t36.5 -88.5t-36.5 -88.5t-88.5 -36.5z" />
    <glyph glyph-name="ldot" unicode="&#x140;" horiz-adv-x="708" 
d="M203 1468q3 27 33 27h151q13 0 22 -11.5t7 -23.5l-201 -1429q-2 -13 -11 -22t-22 -9h-153q-13 0 -21.5 10t-5.5 21zM500 627q-52 0 -88.5 36.5t-36.5 88.5t36.5 88.5t88.5 36.5t88.5 -36.5t36.5 -88.5t-36.5 -88.5t-88.5 -36.5z" />
    <glyph glyph-name="Lslash" unicode="&#x141;" horiz-adv-x="954" 
d="M788 201q14 0 24 -12t9 -25l-20 -139q-3 -25 -29 -25h-692q-13 0 -22 11t-7 26l53 373l-36 -35q-15 -15 -26 -10t-11 26v141q0 23 16 39l92 91l105 743q3 29 35 29h157q14 0 22.5 -10.5t6.5 -24.5l-70 -488l185 179q15 15 25.5 9.5t10.5 -26.5v-139q0 -23 -16 -39
l-240 -233l-63 -461h491z" />
    <glyph glyph-name="lslash" unicode="&#x142;" horiz-adv-x="677" 
d="M606 1096v-185l-184 -194l-96 -686q-2 -13 -11 -22t-22 -9h-154q-13 0 -21 10t-5 21l59 422l-100 -105v187l131 137l110 796q3 27 33 27h152q13 0 21.5 -11t6.5 -24l-73 -524l151 160h2z" />
    <glyph glyph-name="Nacute" unicode="&#x143;" horiz-adv-x="1343" 
d="M1061 1860q18 0 26 -12t0 -29l-159 -258q-5 -9 -10.5 -13t-10.5 -5t-14 -1h-129q-18 0 -27 12t0 29l160 258q5 9 10.5 13t10.5 5t14 1h129zM1288 1434q13 0 23 -11.5t8 -25.5l-193 -1372q-3 -25 -28 -25h-195q-23 0 -35 27l-473 1071l-151 -1073q-3 -25 -29 -25h-162
q-13 0 -22.5 11.5t-7.5 25.5l192 1368q4 29 31 29h192q24 0 35 -25l475 -1075l150 1071q3 29 32 29h158z" />
    <glyph glyph-name="nacute" unicode="&#x144;" horiz-adv-x="1097" 
d="M848 1430q18 0 26 -12t0 -29l-159 -259q-7 -12 -14 -15t-21 -3h-129q-18 0 -27 12t0 29l160 258q5 9 10.5 13t10.5 5t14 1h129zM674 1026q164 0 250 -110.5t59 -307.5l-82 -577q-2 -13 -11 -22t-22 -9h-153q-13 0 -21 10t-6 21l78 557q18 124 -28 182.5t-138 58.5
q-62 0 -120.5 -28t-96 -66.5t-60.5 -73.5t-26 -53l-80 -577q-2 -13 -11.5 -22t-23.5 -9h-151q-14 0 -22.5 10t-6.5 21l133 946q3 27 33 27h141q13 0 22 -11.5t9 -25.5l-12 -125q67 84 155.5 134t190.5 50z" />
    <glyph glyph-name="Ncommaaccent" unicode="&#x145;" horiz-adv-x="1343" 
d="M1288 1434q13 0 23 -11.5t8 -25.5l-193 -1372q-3 -25 -28 -25h-195q-23 0 -35 27l-473 1071l-151 -1073q-3 -25 -29 -25h-162q-13 0 -22.5 11.5t-7.5 25.5l192 1368q4 29 31 29h192q24 0 35 -25l475 -1075l150 1071q3 29 32 29h158zM582 -78q57 0 90.5 -44t23.5 -114
q-17 -124 -143 -276q-2 -2 -13 -1l-10 1h-24q-8 0 -12.5 10t-1.5 23q52 72 69 157q-52 -4 -85 35.5t-25 96.5q6 47 44 79.5t87 32.5z" />
    <glyph glyph-name="ncommaaccent" unicode="&#x146;" horiz-adv-x="1097" 
d="M674 1026q164 0 250 -110.5t59 -307.5l-82 -577q-2 -13 -11 -22t-22 -9h-153q-13 0 -21 10t-6 21l78 557q18 124 -28 182.5t-138 58.5q-62 0 -120.5 -28t-96 -66.5t-60.5 -73.5t-26 -53l-80 -577q-2 -13 -11.5 -22t-23.5 -9h-151q-14 0 -22.5 10t-6.5 21l133 946
q3 27 33 27h141q13 0 22 -11.5t9 -25.5l-12 -125q67 84 155.5 134t190.5 50zM428 -78q57 0 91 -44t24 -114q-17 -123 -144 -276q-2 -2 -11.5 -1t-10.5 1h-25q-8 0 -12.5 10t-1.5 23q53 74 70 157q-52 -4 -85.5 35.5t-25.5 96.5q6 47 44 79.5t87 32.5z" />
    <glyph glyph-name="Ncaron" unicode="&#x147;" horiz-adv-x="1343" 
d="M893 1593h-127q-21 0 -35 21l-158 213q-23 33 15 33h98q22 0 33 -21l115 -151l159 159q11 13 37 13h98q20 0 26.5 -14t-5.5 -27l-219 -213q-13 -13 -37 -13zM1288 1434q13 0 23 -11.5t8 -25.5l-193 -1372q-3 -25 -28 -25h-195q-23 0 -35 27l-473 1071l-151 -1073
q-3 -25 -29 -25h-162q-13 0 -22.5 11.5t-7.5 25.5l192 1368q4 29 31 29h192q24 0 35 -25l475 -1075l150 1071q3 29 32 29h158z" />
    <glyph glyph-name="ncaron" unicode="&#x148;" horiz-adv-x="1097" 
d="M680 1163h-127q-21 0 -35 21l-158 213q-23 33 15 33h98q23 0 33 -21l115 -152l159 160q11 13 37 13h98q20 0 26.5 -14t-5.5 -27l-219 -213q-13 -13 -37 -13zM674 1026q164 0 250 -110.5t59 -307.5l-82 -577q-2 -13 -11 -22t-22 -9h-153q-13 0 -21 10t-6 21l78 557
q18 124 -28 182.5t-138 58.5q-62 0 -120.5 -28t-96 -66.5t-60.5 -73.5t-26 -53l-80 -577q-2 -13 -11.5 -22t-23.5 -9h-151q-14 0 -22.5 10t-6.5 21l133 946q3 27 33 27h141q13 0 22 -11.5t9 -25.5l-12 -125q67 84 155.5 134t190.5 50z" />
    <glyph glyph-name="Eng" unicode="&#x14a;" horiz-adv-x="1343" 
d="M1288 1434q13 0 23 -11.5t8 -25.5l-193 -1372v-7q-35 -214 -172 -328t-344 -114q-120 0 -208 42.5t-134 105.5q-20 24 -4 43l90 96q19 19 45 0q44 -35 93 -54.5t124 -19.5q88 0 152 37.5t86 107.5t-20 170l-439 994l-151 -1073q-3 -25 -29 -25h-162q-13 0 -22.5 11.5
t-7.5 25.5l192 1368q4 29 31 29h192q24 0 35 -25l475 -1075l150 1071q3 29 32 29h158z" />
    <glyph glyph-name="eng" unicode="&#x14b;" horiz-adv-x="1097" 
d="M674 1026q164 0 250 -110.5t59 -307.5l-82 -594q-30 -209 -141 -314.5t-281 -105.5q-23 0 -28 23l-25 158q-3 16 6 16q100 0 170 65.5t88 188.5l76 545q16 123 -29 181t-135 58q-51 0 -100 -19t-84 -46.5t-62.5 -59t-41.5 -57t-15 -39.5l-82 -583q-3 -25 -31 -25h-153
q-13 0 -22 11.5t-7 25.5l131 942q3 25 29 25h145q13 0 23 -11.5t8 -25.5l-12 -125q145 184 346 184z" />
    <glyph glyph-name="Omacron" unicode="&#x14c;" horiz-adv-x="1624" 
d="M1262 1860q13 0 22.5 -11.5t7.5 -25.5l-16 -109q-3 -24 -29 -24h-588q-13 0 -22.5 10t-7.5 24l16 111q3 25 29 25h588zM717 -27q-151 0 -280.5 59t-215.5 159.5t-125.5 239.5t-17.5 292q28 200 148.5 367t300.5 263.5t378 96.5q121 0 229 -37.5t190 -107t137.5 -162
t77.5 -207.5t5 -238q-28 -198 -149 -365t-301 -263.5t-377 -96.5zM731 186q144 0 274 71.5t215.5 195t104.5 270.5q19 142 -31.5 260.5t-157 186t-245.5 67.5q-144 0 -274 -71.5t-216 -195.5t-106 -272q-14 -106 13 -201t85 -163t146 -108t192 -40z" />
    <glyph glyph-name="omacron" unicode="&#x14d;" horiz-adv-x="1161" 
d="M969 1430q13 0 22.5 -11.5t7.5 -25.5l-16 -109q-3 -24 -29 -24h-587q-14 0 -23 10.5t-8 23.5l16 111q3 25 29 25h588zM485 -27q-198 0 -325 130.5t-127 328.5q0 157 79.5 294t213.5 218.5t288 81.5q199 0 327 -130t128 -327q0 -156 -79 -293.5t-214.5 -220t-290.5 -82.5z
M502 172q148 0 254 116t106 273q0 120 -72.5 194t-189.5 74q-148 0 -255 -116.5t-107 -274.5q0 -119 73 -192.5t191 -73.5z" />
    <glyph glyph-name="Ohungarumlaut" unicode="&#x150;" horiz-adv-x="1624" 
d="M999 1860q18 0 27 -12t0 -29l-160 -258q-5 -9 -10.5 -13t-10.5 -5t-14 -1h-129q-18 0 -26 12t0 29l160 258q7 13 14 16t20 3h129zM1337 1860q18 0 27 -12t0 -29l-160 -258q-5 -9 -10.5 -13t-10.5 -5t-14 -1h-129q-18 0 -26 12t0 29l160 258q7 13 14 16t20 3h129zM717 -27
q-151 0 -280.5 59t-215.5 159.5t-125.5 239.5t-17.5 292q28 200 148.5 367t300.5 263.5t378 96.5q121 0 229 -37.5t190 -107t137.5 -162t77.5 -207.5t5 -238q-28 -198 -149 -365t-301 -263.5t-377 -96.5zM731 186q144 0 274 71.5t215.5 195t104.5 270.5q19 142 -31.5 260.5
t-157 186t-245.5 67.5q-144 0 -274 -71.5t-216 -195.5t-106 -272q-14 -106 13 -201t85 -163t146 -108t192 -40z" />
    <glyph glyph-name="ohungarumlaut" unicode="&#x151;" horiz-adv-x="1161" 
d="M707 1430q18 0 26 -12t0 -29l-160 -259q-7 -12 -13.5 -15t-20.5 -3h-129q-18 0 -27 12t0 29l160 258q5 9 10.5 13t10.5 5t14 1h129zM1044 1430q18 0 27 -12t0 -29l-160 -259q-7 -12 -13.5 -15t-20.5 -3h-129q-18 0 -27 12t0 29l160 258q7 13 14 16t20 3h129zM485 -27
q-198 0 -325 130.5t-127 328.5q0 157 79.5 294t213.5 218.5t288 81.5q199 0 327 -130t128 -327q0 -156 -79 -293.5t-214.5 -220t-290.5 -82.5zM502 172q148 0 254 116t106 273q0 120 -72.5 194t-189.5 74q-148 0 -255 -116.5t-107 -274.5q0 -119 73 -192.5t191 -73.5z" />
    <glyph glyph-name="OE" unicode="&#x152;" horiz-adv-x="2205" 
d="M2181 1434q13 0 23 -11.5t8 -25.5l-19 -140q-5 -24 -30 -24h-541l-55 -383h499q13 0 23 -11.5t8 -25.5l-18 -139q-6 -25 -31 -25h-510l-61 -448h532q14 0 24 -12t9 -25l-21 -139q-3 -25 -28 -25h-733q-13 0 -22 11t-7 26l20 141q-115 -97 -252 -151t-282 -54
q-151 0 -280.5 59t-215.5 159.5t-125.5 239.5t-17.5 292q28 200 148.5 367t300.5 263.5t378 96.5q151 0 278.5 -58t215.5 -161l24 174q3 29 35 29h723zM731 186q144 0 274 71.5t215.5 195t104.5 270.5q19 142 -31.5 260.5t-157 186t-245.5 67.5q-144 0 -274 -71.5
t-216 -195.5t-106 -272q-14 -106 13 -201t85 -163t146 -108t192 -40z" />
    <glyph glyph-name="oe" unicode="&#x153;" horiz-adv-x="1929" 
d="M1419 1026q108 0 194 -41.5t138 -111.5t74 -162t8 -193q-8 -58 -21.5 -79t-52.5 -21h-702q0 -123 73.5 -194.5t204.5 -71.5q136 0 258 90q24 18 45 -6l62 -70q25 -29 0 -49q-167 -144 -389 -144q-132 0 -232.5 53.5t-160.5 149.5q-81 -94 -194.5 -148.5t-238.5 -54.5
q-198 0 -325 130.5t-127 328.5q0 157 79.5 294t213.5 218.5t288 81.5q124 0 223.5 -53.5t159.5 -147.5q80 94 189 147.5t233 53.5zM1407 842q-115 0 -204 -75t-124 -200h572q9 125 -59 200t-185 75zM502 172q129 0 228 90t124 223q1 4 2 13.5t2 13.5q0 3 1 9t1 9q2 10 2 31
q0 120 -72.5 194t-189.5 74q-148 0 -255 -116.5t-107 -274.5q0 -119 73 -192.5t191 -73.5z" />
    <glyph glyph-name="Racute" unicode="&#x154;" horiz-adv-x="1150" 
d="M608 1542q-18 0 -26 12t0 29l159 258q5 9 10.5 13t10.5 5t14 1h129q18 0 27 -12t0 -29l-160 -258q-5 -9 -10.5 -13t-10.5 -5t-14 -1h-129zM707 541l264 -508q8 -15 2 -24t-25 -9h-166q-24 0 -39 27l-258 493h-172l-69 -489q-6 -31 -35 -31h-160q-13 0 -21 11.5t-5 25.5
l192 1368q3 29 33 29h401q213 0 330 -107t117 -283q0 -190 -105 -323.5t-284 -179.5zM412 1233l-70 -512h201q153 0 245.5 84t92.5 223q0 205 -258 205h-211z" />
    <glyph glyph-name="racute" unicode="&#x155;" horiz-adv-x="708" 
d="M637 1430q18 0 27 -12t0 -29l-160 -259q-7 -12 -14 -15t-21 -3h-129q-18 0 -27 12t0 29l160 258q5 9 10.5 13t10.5 5t14 1h129zM721 979q22 -22 10 -37l-59 -108q-10 -20 -39 -13q-31 8 -78 8q-99 0 -171.5 -65.5t-86.5 -161.5l-80 -571q-2 -13 -11.5 -22t-23.5 -9h-151
q-14 0 -22.5 10t-6.5 21l133 946q3 27 33 27h139q13 0 23 -11.5t8 -25.5l-6 -88q108 147 262 147q80 0 127 -47z" />
    <glyph glyph-name="Rcommaaccent" unicode="&#x156;" horiz-adv-x="1150" 
d="M707 541l264 -508q8 -15 2 -24t-25 -9h-166q-24 0 -39 27l-258 493h-172l-69 -489q-6 -31 -35 -31h-160q-13 0 -21 11.5t-5 25.5l192 1368q3 29 33 29h401q213 0 330 -107t117 -283q0 -190 -105 -323.5t-284 -179.5zM412 1233l-70 -512h201q153 0 245.5 84t92.5 223
q0 205 -258 205h-211zM424 -78q57 0 91 -44t24 -114q-17 -123 -144 -276h-22h-25q-8 0 -12.5 10t-1.5 23q52 72 69 157q-52 -4 -85 35.5t-25 96.5q6 47 44 79.5t87 32.5z" />
    <glyph glyph-name="rcommaaccent" unicode="&#x157;" horiz-adv-x="708" 
d="M721 979q22 -22 10 -37l-59 -108q-10 -20 -39 -13q-31 8 -78 8q-99 0 -171.5 -65.5t-86.5 -161.5l-80 -571q-2 -13 -11.5 -22t-23.5 -9h-151q-14 0 -22.5 10t-6.5 21l133 946q3 27 33 27h139q13 0 23 -11.5t8 -25.5l-6 -88q108 147 262 147q80 0 127 -47zM84 -78
q57 0 91 -44t24 -114q-17 -123 -144 -276h-22h-25q-8 0 -12.5 10t-1.5 23q52 72 69 157q-52 -4 -85 35.5t-25 96.5q6 47 44 79.5t87 32.5z" />
    <glyph glyph-name="Rcaron" unicode="&#x158;" horiz-adv-x="1150" 
d="M575 1614l-157 213q-23 33 14 33h98q22 0 33 -21l115 -151l160 159q11 13 36 13h99q20 0 26 -14t-6 -27l-219 -213q-13 -13 -37 -13h-127q-21 0 -35 21zM707 541l264 -508q8 -15 2 -24t-25 -9h-166q-24 0 -39 27l-258 493h-172l-69 -489q-6 -31 -35 -31h-160
q-13 0 -21 11.5t-5 25.5l192 1368q3 29 33 29h401q213 0 330 -107t117 -283q0 -190 -105 -323.5t-284 -179.5zM412 1233l-70 -512h201q153 0 245.5 84t92.5 223q0 205 -258 205h-211z" />
    <glyph glyph-name="rcaron" unicode="&#x159;" horiz-adv-x="708" 
d="M469 1163h-127q-21 0 -35 21l-157 213q-23 33 14 33h98q22 0 33 -21l115 -152l159 160q11 13 37 13h99q20 0 26 -14t-6 -27l-219 -213q-13 -13 -37 -13zM721 979q22 -22 10 -37l-59 -108q-10 -20 -39 -13q-31 8 -78 8q-99 0 -171.5 -65.5t-86.5 -161.5l-80 -571
q-2 -13 -11.5 -22t-23.5 -9h-151q-14 0 -22.5 10t-6.5 21l133 946q3 27 33 27h139q13 0 23 -11.5t8 -25.5l-6 -88q108 147 262 147q80 0 127 -47z" />
    <glyph glyph-name="Sacute" unicode="&#x15a;" horiz-adv-x="1085" 
d="M881 1860q18 0 26 -12t0 -29l-159 -258q-5 -9 -10.5 -13t-10.5 -5t-14 -1h-129q-18 0 -27 12t0 29l160 258q5 9 10.5 13t10.5 5t14 1h129zM354 1032q0 -45 26.5 -81t70.5 -60t99.5 -49t114 -47t114 -55t99.5 -71.5t70.5 -98.5t26.5 -134q0 -133 -77 -241t-198.5 -165
t-259.5 -57q-147 0 -261.5 65.5t-176.5 164.5q-17 23 6 43l92 84q22 17 45 -6q69 -69 142.5 -105.5t165.5 -36.5q126 0 215.5 70t89.5 170q0 52 -34 92.5t-88.5 69.5t-120 56t-131.5 60t-120.5 73t-88.5 103.5t-34 143.5q0 123 66 222.5t174.5 153.5t236.5 54
q125 0 226 -52.5t170 -144.5q21 -28 4 -45l-90 -86q-22 -19 -45 4q-70 61 -131.5 89t-139.5 28q-111 0 -184.5 -59.5t-73.5 -151.5z" />
    <glyph glyph-name="sacute" unicode="&#x15b;" horiz-adv-x="862" 
d="M729 1430q18 0 27 -12t0 -29l-160 -259q-7 -12 -14 -15t-21 -3h-129q-18 0 -26 12t0 29l159 258q5 9 10.5 13t10.5 5t14 1h129zM287 727q0 -31 19.5 -56t51.5 -41t73 -33.5t84 -32t84 -38t73 -51.5t51.5 -71.5t19.5 -98.5q0 -99 -59 -176.5t-149 -116.5t-191 -39
q-122 0 -213.5 51.5t-142.5 125.5q-15 25 -2 38l65 72q18 18 43 -4q132 -98 254 -98q79 0 134 37t55 102q0 34 -25 61t-65 46.5t-88.5 38t-97.5 42t-89 52.5t-65 75t-25 105q0 95 52.5 166.5t135.5 107t181 35.5q93 0 177.5 -43t135.5 -117q17 -26 2 -41l-64 -67
q-15 -15 -34 2q-62 49 -109.5 69.5t-105.5 20.5q-70 0 -118 -33t-48 -90z" />
    <glyph glyph-name="Scedilla" unicode="&#x15e;" horiz-adv-x="1085" 
d="M612 1243q-111 0 -184.5 -59.5t-73.5 -151.5q0 -45 26.5 -81t70.5 -60t99.5 -49t114 -47t114 -55t99.5 -71.5t70.5 -98.5t26.5 -134q0 -127 -70 -231t-182 -163t-242 -67l-57 -49q69 -10 112.5 -57t34.5 -119q-9 -60 -44 -103t-84 -62t-108 -26t-116 5q-12 0 -19 8.5
t-5 17.5l10 76q3 15 14 15q86 -9 139.5 13t59.5 68q3 22 -17 35.5t-59 13.5t-86 -18q-13 -3 -22 5.5t-7 19.5l11 78q3 13 8 24l82 64q-109 22 -193 81.5t-133 137.5q-17 23 6 43l92 84q22 17 45 -6q69 -69 142.5 -105.5t165.5 -36.5q126 0 215.5 70t89.5 170q0 52 -34 92.5
t-88.5 69.5t-120 56t-131.5 60t-120.5 73t-88.5 103.5t-34 143.5q0 123 66 222.5t174.5 153.5t236.5 54q125 0 226 -52.5t170 -144.5q21 -28 4 -45l-90 -86q-22 -19 -45 4q-70 61 -131.5 89t-139.5 28z" />
    <glyph glyph-name="scedilla" unicode="&#x15f;" horiz-adv-x="862" 
d="M453 850q-70 0 -118 -33t-48 -90q0 -31 19.5 -56t51.5 -41t73 -33.5t84 -32t84 -38t73 -51.5t51.5 -71.5t19.5 -98.5q0 -91 -51 -165t-130 -115t-171 -50l-57 -49q69 -10 112.5 -57t34.5 -119q-9 -60 -44 -103t-84 -62t-108 -26t-116 5q-12 0 -19.5 8.5t-5.5 17.5l11 76
q3 15 14 15q86 -9 139.5 13t59.5 68q3 22 -17 35.5t-59 13.5t-86 -18q-13 -3 -22 5.5t-7 19.5l10 78q2 10 9 24l82 66q-162 37 -250 164q-15 25 -2 38l65 72q18 18 43 -4q132 -98 254 -98q79 0 134 37t55 102q0 34 -25 61t-65 46.5t-88.5 38t-97.5 42t-89 52.5t-65 75
t-25 105q0 95 52.5 166.5t135.5 107t181 35.5q93 0 177.5 -43t135.5 -117q17 -26 2 -41l-64 -67q-15 -15 -34 2q-62 49 -109.5 69.5t-105.5 20.5z" />
    <glyph glyph-name="Scaron" unicode="&#x160;" horiz-adv-x="1085" 
d="M713 1593h-127q-21 0 -35 21l-158 213q-23 33 15 33h98q22 0 33 -21l114 -151l160 159q11 13 37 13h98q20 0 26.5 -14t-5.5 -27l-219 -213q-13 -13 -37 -13zM354 1032q0 -45 26.5 -81t70.5 -60t99.5 -49t114 -47t114 -55t99.5 -71.5t70.5 -98.5t26.5 -134
q0 -133 -77 -241t-198.5 -165t-259.5 -57q-147 0 -261.5 65.5t-176.5 164.5q-17 23 6 43l92 84q22 17 45 -6q69 -69 142.5 -105.5t165.5 -36.5q126 0 215.5 70t89.5 170q0 52 -34 92.5t-88.5 69.5t-120 56t-131.5 60t-120.5 73t-88.5 103.5t-34 143.5q0 123 66 222.5
t174.5 153.5t236.5 54q125 0 226 -52.5t170 -144.5q21 -28 4 -45l-90 -86q-22 -19 -45 4q-70 61 -131.5 89t-139.5 28q-111 0 -184.5 -59.5t-73.5 -151.5z" />
    <glyph glyph-name="scaron" unicode="&#x161;" horiz-adv-x="862" 
d="M561 1163h-127q-21 0 -35 21l-157 213q-23 33 14 33h98q22 0 33 -21l115 -152l160 160q11 13 36 13h99q20 0 26 -14t-6 -27l-219 -213q-13 -13 -37 -13zM287 727q0 -31 19.5 -56t51.5 -41t73 -33.5t84 -32t84 -38t73 -51.5t51.5 -71.5t19.5 -98.5q0 -99 -59 -176.5
t-149 -116.5t-191 -39q-122 0 -213.5 51.5t-142.5 125.5q-15 25 -2 38l65 72q18 18 43 -4q132 -98 254 -98q79 0 134 37t55 102q0 34 -25 61t-65 46.5t-88.5 38t-97.5 42t-89 52.5t-65 75t-25 105q0 95 52.5 166.5t135.5 107t181 35.5q93 0 177.5 -43t135.5 -117
q17 -26 2 -41l-64 -67q-15 -15 -34 2q-62 49 -109.5 69.5t-105.5 20.5q-70 0 -118 -33t-48 -90z" />
    <glyph glyph-name="uni0162" unicode="&#x162;" horiz-adv-x="1073" 
d="M1061 1434q13 0 23 -11.5t8 -25.5l-21 -140q-3 -24 -31 -24h-319l-170 -1200q-3 -33 -37 -33h10l-86 -74q69 -10 113 -57.5t35 -118.5q-9 -60 -44.5 -103t-84.5 -62t-108 -26t-116 5q-12 0 -19 8.5t-5 17.5l10 76q3 15 14 15q86 -9 139.5 13t59.5 68q3 22 -17 35.5
t-59 13.5t-86 -18q-13 -3 -21.5 5.5t-6.5 19.5l10 78q3 13 8 24l100 80h-2q-13 0 -21.5 11t-6.5 26l168 1196h-314q-13 0 -22.5 11.5t-7.5 25.5l20 139q3 25 29 25h858z" />
    <glyph glyph-name="uni0163" unicode="&#x163;" horiz-adv-x="677" 
d="M625 1004q14 0 23.5 -11t6.5 -26l-16 -111q-5 -31 -37 -31h-141l-111 -794q-2 -13 -11.5 -22t-23.5 -9h-6l-69 -59q68 -10 112 -57.5t35 -119.5q-9 -60 -44 -103t-84 -62t-108 -26t-116 5q-12 0 -19.5 9t-5.5 18l10 76q2 14 15 14q86 -9 139 13.5t59 68.5
q3 22 -16.5 35.5t-58.5 13t-86 -18.5q-13 -3 -22 5.5t-7 19.5l10 78q3 13 8 24l89 70q-18 11 -15 27l113 794h-139q-14 0 -24 11t-7 26l16 113q5 29 37 29h141l39 280q3 27 33 27h152q13 0 21.5 -11t6.5 -24l-39 -272h140z" />
    <glyph glyph-name="Tcaron" unicode="&#x164;" horiz-adv-x="1073" 
d="M565 1614l-157 213q-23 33 14 33h98q22 0 33 -21l115 -151l159 159q11 13 37 13h99q20 0 26 -14t-6 -27l-219 -213q-13 -13 -37 -13h-127q-21 0 -35 21zM1061 1434q13 0 23 -11.5t8 -25.5l-21 -140q-3 -24 -31 -24h-319l-170 -1200q-3 -33 -37 -33h-156q-13 0 -21.5 11
t-6.5 26l168 1196h-314q-13 0 -22.5 11.5t-7.5 25.5l20 139q3 25 29 25h858z" />
    <glyph glyph-name="tcaron" unicode="&#x165;" horiz-adv-x="845" 
d="M911 1434q18 0 27 -12t0 -29l-160 -258q-5 -9 -10.5 -13t-10.5 -5t-14 -1h-129q-18 0 -26 12t0 29l160 258q7 13 14 16t20 3h129zM625 1004q14 0 23.5 -11t6.5 -26l-16 -111q-5 -31 -37 -31h-141l-111 -794q-2 -13 -11.5 -22t-23.5 -9h-151q-14 0 -22.5 10t-6.5 21
l113 794h-139q-14 0 -24 11t-7 26l16 113q5 29 37 29h141l39 280q3 27 33 27h152q13 0 21.5 -11t6.5 -24l-39 -272h140z" />
    <glyph glyph-name="Tbar" unicode="&#x166;" horiz-adv-x="1073" 
d="M1061 1434q13 0 23 -11.5t8 -25.5l-21 -140q-3 -24 -31 -24h-319l-33 -229h178q13 0 23 -11.5t8 -25.5l-16 -109q-3 -24 -29 -24h-188l-113 -801q-3 -33 -37 -33h-156q-13 0 -21.5 11t-6.5 26l112 797h-178q-14 0 -23 10.5t-8 23.5l17 111q3 25 29 25h186l33 229h-314
q-13 0 -22.5 11.5t-7.5 25.5l20 139q3 25 29 25h858z" />
    <glyph glyph-name="tbar" unicode="&#x167;" horiz-adv-x="681" 
d="M625 1004q14 0 23.5 -11t6.5 -26l-16 -111q-5 -31 -37 -31h-141l-17 -120h142q13 0 22.5 -11.5t7.5 -25.5l-16 -117q-3 -25 -29 -25h-151l-70 -495q-2 -13 -11.5 -22t-23.5 -9h-151q-14 0 -22.5 10t-6.5 21l70 495h-135q-13 0 -23 11.5t-8 25.5l16 117q3 25 29 25h145
l19 120h-139q-14 0 -24 11t-7 26l16 113q5 29 37 29h141l39 280q3 27 33 27h152q13 0 21.5 -11t6.5 -24l-39 -272h140z" />
    <glyph glyph-name="Umacron" unicode="&#x16a;" horiz-adv-x="1273" 
d="M1085 1860q13 0 23 -11.5t8 -25.5l-16 -109q-3 -24 -29 -24h-588q-13 0 -22.5 10t-7.5 24l16 111q3 25 29 25h587zM1235 1434q13 0 21 -10.5t6 -24.5l-119 -848q-39 -277 -203.5 -427.5t-398.5 -150.5q-117 0 -209.5 39t-154.5 112.5t-86 186t-5 252.5l119 842
q3 29 33 29h161q13 0 21 -10.5t6 -24.5l-119 -848q-26 -181 40 -272t204 -91q145 0 245 97t126 278l118 842q3 29 33 29h162z" />
    <glyph glyph-name="umacron" unicode="&#x16b;" horiz-adv-x="1087" 
d="M928 1430q13 0 22.5 -11.5t7.5 -25.5l-16 -109q-3 -24 -29 -24h-587q-14 0 -23 10.5t-8 23.5l16 111q3 25 29 25h588zM993 1004q14 0 23 -12t6 -25l-131 -942q-3 -25 -29 -25h-145q-13 0 -23 11.5t-8 25.5l8 106q-139 -170 -325 -170q-176 0 -265.5 111t-60.5 309l82 586
q3 25 29 25h153q13 0 23 -11.5t8 -25.5l-78 -553q-18 -124 29.5 -184t140.5 -60q61 0 117.5 25t93.5 61.5t60 73.5t26 65l82 584q6 25 31 25h153z" />
    <glyph glyph-name="Ubreve" unicode="&#x16c;" horiz-adv-x="1273" 
d="M952 1839q8 23 35 23h76q16 0 24.5 -12t4.5 -31q-26 -105 -112.5 -172.5t-211.5 -67.5q-135 0 -208 73.5t-73 182.5q0 27 25 27h84q24 0 31 -37q17 -113 143 -113q69 0 118 35.5t64 91.5zM1235 1434q13 0 21 -10.5t6 -24.5l-119 -848q-39 -277 -203.5 -427.5
t-398.5 -150.5q-117 0 -209.5 39t-154.5 112.5t-86 186t-5 252.5l119 842q3 29 33 29h161q13 0 21 -10.5t6 -24.5l-119 -848q-26 -181 40 -272t204 -91q145 0 245 97t126 278l118 842q3 29 33 29h162z" />
    <glyph glyph-name="ubreve" unicode="&#x16d;" horiz-adv-x="1087" 
d="M795 1409q8 23 34 23h76q16 0 24.5 -12t4.5 -31q-26 -105 -112.5 -172.5t-211.5 -67.5q-134 0 -207 73.5t-73 182.5q0 27 24 27h84q24 0 31 -37q17 -113 143 -113q69 0 118.5 35.5t64.5 91.5zM993 1004q14 0 23 -12t6 -25l-131 -942q-3 -25 -29 -25h-145q-13 0 -23 11.5
t-8 25.5l8 106q-139 -170 -325 -170q-176 0 -265.5 111t-60.5 309l82 586q3 25 29 25h153q13 0 23 -11.5t8 -25.5l-78 -553q-18 -124 29.5 -184t140.5 -60q61 0 117.5 25t93.5 61.5t60 73.5t26 65l82 584q6 25 31 25h153z" />
    <glyph glyph-name="Uring" unicode="&#x16e;" horiz-adv-x="1273" 
d="M799 1925q78 0 127.5 -58t38.5 -138q-10 -70 -69 -121.5t-130 -51.5q-82 0 -131.5 58t-38.5 137q9 71 68 122.5t135 51.5zM764 1690q26 0 47.5 18.5t24.5 44.5q2 18 -8.5 29.5t-28.5 11.5q-26 0 -47.5 -19.5t-24.5 -45.5q-3 -17 7.5 -28t29.5 -11zM1235 1434
q13 0 21 -10.5t6 -24.5l-119 -848q-39 -277 -203.5 -427.5t-398.5 -150.5q-117 0 -209.5 39t-154.5 112.5t-86 186t-5 252.5l119 842q3 29 33 29h161q13 0 21 -10.5t6 -24.5l-119 -848q-26 -181 40 -272t204 -91q145 0 245 97t126 278l118 842q3 29 33 29h162z" />
    <glyph glyph-name="uring" unicode="&#x16f;" horiz-adv-x="1087" 
d="M641 1495q78 0 127.5 -58.5t38.5 -138.5q-10 -70 -69 -121t-130 -51q-82 0 -131.5 58t-38.5 137q9 71 68 122.5t135 51.5zM606 1260q26 0 47.5 18.5t24.5 44.5q2 18 -8.5 29.5t-28.5 11.5q-26 0 -47.5 -20t-24.5 -46q-3 -17 7.5 -27.5t29.5 -10.5zM993 1004q14 0 23 -12
t6 -25l-131 -942q-3 -25 -29 -25h-145q-13 0 -23 11.5t-8 25.5l8 106q-139 -170 -325 -170q-176 0 -265.5 111t-60.5 309l82 586q3 25 29 25h153q13 0 23 -11.5t8 -25.5l-78 -553q-18 -124 29.5 -184t140.5 -60q61 0 117.5 25t93.5 61.5t60 73.5t26 65l82 584q6 25 31 25
h153z" />
    <glyph glyph-name="Uhungarumlaut" unicode="&#x170;" horiz-adv-x="1273" 
d="M823 1860q18 0 27 -12t0 -29l-160 -258q-5 -9 -10.5 -13t-10.5 -5t-14 -1h-129q-18 0 -26 12t0 29l159 258q5 9 10.5 13t10.5 5t14 1h129zM1161 1860q18 0 27 -12t0 -29l-160 -258q-5 -9 -10.5 -13t-10.5 -5t-14 -1h-129q-18 0 -26 12t0 29l159 258q5 9 10.5 13t10.5 5
t14 1h129zM1235 1434q13 0 21 -10.5t6 -24.5l-119 -848q-39 -277 -203.5 -427.5t-398.5 -150.5q-117 0 -209.5 39t-154.5 112.5t-86 186t-5 252.5l119 842q3 29 33 29h161q13 0 21 -10.5t6 -24.5l-119 -848q-26 -181 40 -272t204 -91q145 0 245 97t126 278l118 842
q3 29 33 29h162z" />
    <glyph glyph-name="uhungarumlaut" unicode="&#x171;" horiz-adv-x="1087" 
d="M666 1430q18 0 26 -12t0 -29l-160 -259q-7 -12 -13.5 -15t-20.5 -3h-129q-18 0 -27 12t0 29l160 258q5 9 10.5 13t10.5 5t14 1h129zM1004 1430q18 0 26 -12t0 -29l-160 -259q-7 -12 -13.5 -15t-20.5 -3h-129q-18 0 -27 12t0 29l160 258q7 13 14 16t20 3h130zM993 1004
q14 0 23 -12t6 -25l-131 -942q-3 -25 -29 -25h-145q-13 0 -23 11.5t-8 25.5l8 106q-139 -170 -325 -170q-176 0 -265.5 111t-60.5 309l82 586q3 25 29 25h153q13 0 23 -11.5t8 -25.5l-78 -553q-18 -124 29.5 -184t140.5 -60q61 0 117.5 25t93.5 61.5t60 73.5t26 65l82 584
q6 25 31 25h153z" />
    <glyph glyph-name="Uogonek" unicode="&#x172;" horiz-adv-x="1273" 
d="M1235 1434q13 0 21 -10.5t6 -24.5l-119 -848q-30 -217 -139.5 -356.5t-274.5 -192.5q-76 -33 -119 -78.5t-43 -97.5q0 -55 40.5 -81t115.5 -9v-142q-33 -14 -76 -18.5t-89 5t-84.5 32t-63.5 67.5t-25 105q0 110 94 190q-211 21 -320 175t-73 413l119 842q3 29 33 29h161
q13 0 21 -10.5t6 -24.5l-119 -848q-26 -181 40 -272t204 -91q145 0 245 97t126 278l118 842q3 29 33 29h162z" />
    <glyph glyph-name="uogonek" unicode="&#x173;" horiz-adv-x="1087" 
d="M993 1004q14 0 23 -12t6 -25l-131 -942q-3 -25 -29 -25q-97 0 -154 -53.5t-57 -118.5q0 -56 40.5 -82.5t115.5 -9.5v-142q-32 -14 -75 -18.5t-88.5 5t-84 32t-63.5 67.5t-25 105q0 93 61.5 163t155.5 111l6 84q-139 -170 -325 -170q-176 0 -265.5 111t-60.5 309l82 586
q3 25 29 25h153q13 0 23 -11.5t8 -25.5l-78 -553q-18 -124 29.5 -184t140.5 -60q61 0 117.5 25t93.5 61.5t60 73.5t26 65l82 584q6 25 31 25h153z" />
    <glyph glyph-name="Wcircumflex" unicode="&#x174;" horiz-adv-x="2224" 
d="M1331 1860q23 0 33 -21l160 -213q23 -33 -15 -33h-98q-21 0 -35 21l-114 153l-158 -161q-13 -13 -37 -13h-98q-20 0 -27 13.5t6 27.5l219 213q11 13 37 13h127zM2226 1434q17 0 24 -13t-1 -28l-633 -1370q-10 -23 -39 -23h-160q-29 0 -37 31l-215 1069l-518 -1077
q-11 -23 -37 -23h-164q-29 0 -36 31l-244 1374q-6 29 22 29h166q26 0 33 -31l178 -1116l529 1126q12 21 32 21h154q29 0 33 -31l215 -1116l497 1126q8 21 35 21h166z" />
    <glyph glyph-name="wcircumflex" unicode="&#x175;" horiz-adv-x="1796" 
d="M1057 1430q23 0 33 -21l159 -213q23 -33 -14 -33h-98q-21 0 -35 21l-115 153l-158 -161q-13 -13 -36 -13h-99q-20 0 -27 13.5t7 27.5l219 213q11 13 37 13h127zM1755 1004q18 0 26 -12t1 -29l-486 -940q-10 -23 -39 -23h-149q-13 0 -24.5 9.5t-14.5 21.5l-168 692
l-369 -703q-10 -20 -36 -20h-154q-13 0 -23 9.5t-12 21.5l-221 942q-6 31 23 31h149q12 0 21.5 -9t11.5 -20l160 -729l374 737q12 21 37 21h137q12 0 23 -9.5t14 -21.5l168 -727l363 735q13 23 39 23h149z" />
    <glyph glyph-name="Ycircumflex" unicode="&#x176;" horiz-adv-x="1208" 
d="M459 1593q-20 0 -27 13.5t6 27.5l219 213q11 13 37 13h127q23 0 33 -21l160 -213q23 -33 -15 -33h-98q-21 0 -35 21l-114 153l-158 -161q-13 -13 -37 -13h-98zM1212 1434q19 0 25.5 -13t-4.5 -28l-524 -715l-93 -647q-3 -31 -34 -31h-160q-13 0 -21 10.5t-6 24.5l90 649
l-317 713q-7 15 -2 26t22 11h164q26 0 37 -29l234 -514l378 522q15 21 39 21h172z" />
    <glyph glyph-name="ycircumflex" unicode="&#x177;" horiz-adv-x="1085" 
d="M698 1430q22 0 33 -21l160 -213q23 -33 -14 -33h-99q-21 0 -35 21l-114 153l-158 -161q-13 -13 -37 -13h-98q-20 0 -27 13.5t6 27.5l220 213q11 13 36 13h127zM1044 1004q18 0 27 -12t0 -29l-715 -1330q-12 -22 -41 -22h-151q-17 0 -24.5 13t1.5 28l193 344l-248 979
q-6 29 23 29h155q11 0 20.5 -9t12.5 -20l174 -725l377 731q13 23 39 23h157z" />
    <glyph glyph-name="Ydieresis" unicode="&#x178;" horiz-adv-x="1208" 
d="M537 1645q-51 0 -82.5 37.5t-24.5 89.5q6 42 41 72t78 30q51 0 82.5 -37t25.5 -88q-6 -44 -41.5 -74t-78.5 -30zM948 1645q-51 0 -82 37.5t-24 89.5q6 42 41 72t78 30q51 0 82.5 -37t23.5 -88q-6 -44 -41 -74t-78 -30zM1212 1434q19 0 25.5 -13t-4.5 -28l-524 -715
l-93 -647q-3 -31 -34 -31h-160q-13 0 -21 10.5t-6 24.5l90 649l-317 713q-7 15 -2 26t22 11h164q26 0 37 -29l234 -514l378 522q15 21 39 21h172z" />
    <glyph glyph-name="Zacute" unicode="&#x179;" horiz-adv-x="1132" 
d="M926 1860q18 0 26 -12t0 -29l-159 -258q-5 -9 -10.5 -13t-10.5 -5t-14 -1h-129q-18 0 -27 12t0 29l160 258q5 9 10.5 13t10.5 5t14 1h129zM1100 1434q13 0 22.5 -11.5t7.5 -25.5l-22 -164l-858 -1032h696q13 0 23 -11.5t8 -25.5l-19 -139q-3 -25 -30 -25h-916
q-14 0 -23 11.5t-7 25.5l22 164l858 1032h-657q-13 0 -22 11.5t-7 25.5l19 139q3 25 28 25h877z" />
    <glyph glyph-name="zacute" unicode="&#x17a;" horiz-adv-x="942" 
d="M772 1430q18 0 27 -12t0 -29l-160 -259q-7 -12 -14 -15t-21 -3h-129q-18 0 -26 12t0 29l159 258q5 9 10.5 13t10.5 5t14 1h129zM922 967l-19 -125q-4 -27 -14 -37l-649 -627h534q14 0 24 -12t7 -25l-17 -116q-3 -25 -28 -25h-768q-13 0 -23 11.5t-8 25.5l19 125
q4 27 14 37l649 626h-534q-13 0 -23 11.5t-8 25.5l16 117q3 25 29 25h768q13 0 23 -11.5t8 -25.5z" />
    <glyph glyph-name="Zdotaccent" unicode="&#x17b;" horiz-adv-x="1132" 
d="M707 1645q-51 0 -82.5 37.5t-24.5 89.5q6 42 41 72t78 30q51 0 82.5 -37t25.5 -88q-6 -44 -41.5 -74t-78.5 -30zM1100 1434q13 0 22.5 -11.5t7.5 -25.5l-22 -164l-858 -1032h696q13 0 23 -11.5t8 -25.5l-19 -139q-3 -25 -30 -25h-916q-14 0 -23 11.5t-7 25.5l22 164
l858 1032h-657q-13 0 -22 11.5t-7 25.5l19 139q3 25 28 25h877z" />
    <glyph glyph-name="zdotaccent" unicode="&#x17c;" horiz-adv-x="942" 
d="M553 1214q-51 0 -82.5 37.5t-24.5 89.5q6 43 41 73t78 30q51 0 83 -37t26 -88q-6 -44 -42 -74.5t-79 -30.5zM922 967l-19 -125q-4 -27 -14 -37l-649 -627h534q14 0 24 -12t7 -25l-17 -116q-3 -25 -28 -25h-768q-13 0 -23 11.5t-8 25.5l19 125q4 27 14 37l649 626h-534
q-13 0 -23 11.5t-8 25.5l16 117q3 25 29 25h768q13 0 23 -11.5t8 -25.5z" />
    <glyph glyph-name="Zcaron" unicode="&#x17d;" horiz-adv-x="1132" 
d="M758 1593h-127q-21 0 -35 21l-158 213q-23 33 15 33h98q23 0 33 -21l114 -151l160 159q11 13 37 13h98q20 0 26.5 -14t-5.5 -27l-219 -213q-13 -13 -37 -13zM1100 1434q13 0 22.5 -11.5t7.5 -25.5l-22 -164l-858 -1032h696q13 0 23 -11.5t8 -25.5l-19 -139
q-3 -25 -30 -25h-916q-14 0 -23 11.5t-7 25.5l22 164l858 1032h-657q-13 0 -22 11.5t-7 25.5l19 139q3 25 28 25h877z" />
    <glyph glyph-name="zcaron" unicode="&#x17e;" horiz-adv-x="942" 
d="M604 1163h-127q-21 0 -35 21l-157 213q-23 33 14 33h98q23 0 33 -21l115 -152l160 160q11 13 36 13h99q20 0 26 -14t-6 -27l-219 -213q-13 -13 -37 -13zM922 967l-19 -125q-4 -27 -14 -37l-649 -627h534q14 0 24 -12t7 -25l-17 -116q-3 -25 -28 -25h-768q-13 0 -23 11.5
t-8 25.5l19 125q4 27 14 37l649 626h-534q-13 0 -23 11.5t-8 25.5l16 117q3 25 29 25h768q13 0 23 -11.5t8 -25.5z" />
    <glyph glyph-name="florin" unicode="&#x192;" horiz-adv-x="786" 
d="M893 1427q25 -9 22 -36l-18 -134q-1 -18 -10 -19.5t-19 11.5q-66 27 -110 27q-76 0 -110 -36t-44 -105l-18 -131h209q13 0 22.5 -11.5t7.5 -25.5l-16 -117q-3 -25 -29 -25h-219l-129 -915q-43 -299 -348 -299q-102 0 -150 39q-27 9 -24 37l18 133q5 34 31 8
q62 -27 111 -27q76 0 109.5 36.5t43.5 105.5l123 882h-113q-13 0 -23.5 11.5t-8.5 25.5l16 117q6 25 31 25h123l22 163q43 299 350 299q99 0 150 -39z" />
    <glyph glyph-name="uni01CD" unicode="&#x1cd;" horiz-adv-x="1327" 
d="M707 1614l-158 213q-23 33 14 33h99q22 0 32 -21l115 -151l160 159q11 13 37 13h98q20 0 26 -14t-6 -27l-219 -213q-13 -13 -37 -13h-127q-20 0 -34 21zM1182 33q7 -33 -25 -33h-162q-13 0 -21.5 8.5t-10.5 22.5l-58 272h-590l-135 -278q-10 -25 -37 -25h-168
q-17 0 -24.5 13t0.5 28l694 1370q13 23 41 23h154q12 0 21.5 -8.5t12.5 -22.5zM410 496h456l-137 655z" />
    <glyph glyph-name="uni01CE" unicode="&#x1ce;" 
d="M551 1184l-158 213q-23 33 15 33h98q22 0 33 -21l114 -152l160 160q11 13 37 13h98q20 0 26.5 -14t-5.5 -27l-219 -213q-13 -13 -37 -13h-127q-21 0 -35 21zM1096 1004q13 0 22.5 -11.5t7.5 -25.5l-133 -942q-3 -25 -28 -25h-140q-13 0 -21.5 11.5t-6.5 25.5l4 92
q-149 -156 -340 -156q-192 0 -310 129t-118 324q0 157 73.5 295t202.5 221.5t281 83.5q201 0 313 -170l25 121q6 27 30 27h138zM498 170q94 0 177 54.5t132 145t49 191.5q0 115 -71 191.5t-187 76.5q-147 0 -252.5 -115.5t-105.5 -275.5q0 -118 71 -193t187 -75z" />
    <glyph glyph-name="uni01CF" unicode="&#x1cf;" horiz-adv-x="458" 
d="M422 1593h-127q-21 0 -35 21l-158 213q-23 33 15 33h98q23 0 33 -21l114 -151l160 159q11 13 37 13h98q20 0 26.5 -14t-5.5 -27l-219 -213q-13 -13 -37 -13zM215 1405q3 29 35 29h158q14 0 22 -10.5t6 -24.5l-192 -1366q-3 -33 -37 -33h-156q-13 0 -21.5 11t-6.5 26z" />
    <glyph glyph-name="uni01D0" unicode="&#x1d0;" horiz-adv-x="411" 
d="M338 1163h-127q-21 0 -35 21l-158 213q-23 33 15 33h98q23 0 33 -21l115 -152l159 160q11 13 37 13h98q20 0 26.5 -14t-5.5 -27l-219 -213q-13 -13 -37 -13zM135 977q3 27 33 27h151q13 0 22 -11.5t7 -23.5l-131 -938q-2 -13 -11.5 -22t-23.5 -9h-151q-14 0 -22.5 10
t-6.5 21z" />
    <glyph glyph-name="uni01D1" unicode="&#x1d1;" horiz-adv-x="1624" 
d="M1004 1593h-127q-21 0 -35 21l-158 213q-23 33 14 33h99q21 0 32 -21l115 -151l160 159q11 13 37 13h98q20 0 26.5 -14t-5.5 -27l-220 -213q-13 -13 -36 -13zM717 -27q-151 0 -280.5 59t-215.5 159.5t-125.5 239.5t-17.5 292q28 200 148.5 367t300.5 263.5t378 96.5
q121 0 229 -37.5t190 -107t137.5 -162t77.5 -207.5t5 -238q-28 -198 -149 -365t-301 -263.5t-377 -96.5zM731 186q144 0 274 71.5t215.5 195t104.5 270.5q19 142 -31.5 260.5t-157 186t-245.5 67.5q-144 0 -274 -71.5t-216 -195.5t-106 -272q-14 -106 13 -201t85 -163
t146 -108t192 -40z" />
    <glyph glyph-name="uni01D2" unicode="&#x1d2;" horiz-adv-x="1161" 
d="M711 1163h-127q-21 0 -35 21l-158 213q-23 33 15 33h98q22 0 33 -21l114 -152l160 160q11 13 37 13h98q20 0 26.5 -14t-5.5 -27l-219 -213q-13 -13 -37 -13zM485 -27q-198 0 -325 130.5t-127 328.5q0 157 79.5 294t213.5 218.5t288 81.5q199 0 327 -130t128 -327
q0 -156 -79 -293.5t-214.5 -220t-290.5 -82.5zM502 172q148 0 254 116t106 273q0 120 -72.5 194t-189.5 74q-148 0 -255 -116.5t-107 -274.5q0 -119 73 -192.5t191 -73.5z" />
    <glyph glyph-name="uni01D3" unicode="&#x1d3;" horiz-adv-x="1273" 
d="M827 1593h-127q-20 0 -34 21l-158 213q-23 33 14 33h99q21 0 32 -21l115 -151l160 159q11 13 37 13h98q20 0 26 -14t-6 -27l-219 -213q-13 -13 -37 -13zM1235 1434q13 0 21 -10.5t6 -24.5l-119 -848q-39 -277 -203.5 -427.5t-398.5 -150.5q-117 0 -209.5 39t-154.5 112.5
t-86 186t-5 252.5l119 842q3 29 33 29h161q13 0 21 -10.5t6 -24.5l-119 -848q-26 -181 40 -272t204 -91q145 0 245 97t126 278l118 842q3 29 33 29h162z" />
    <glyph glyph-name="uni01D4" unicode="&#x1d4;" horiz-adv-x="1087" 
d="M670 1163h-127q-21 0 -35 21l-158 213q-23 33 15 33h98q23 0 33 -21l114 -152l160 160q11 13 37 13h98q20 0 26.5 -14t-5.5 -27l-219 -213q-13 -13 -37 -13zM993 1004q14 0 23 -12t6 -25l-131 -942q-3 -25 -29 -25h-145q-13 0 -23 11.5t-8 25.5l8 106
q-139 -170 -325 -170q-176 0 -265.5 111t-60.5 309l82 586q3 25 29 25h153q13 0 23 -11.5t8 -25.5l-78 -553q-18 -124 29.5 -184t140.5 -60q61 0 117.5 25t93.5 61.5t60 73.5t26 65l82 584q6 25 31 25h153z" />
    <glyph glyph-name="uni01EA" unicode="&#x1ea;" horiz-adv-x="1624" 
d="M905 1450q121 0 229 -37.5t190 -107t137.5 -162t77.5 -207.5t5 -238q-21 -147 -96 -280.5t-184 -230t-249 -154.5t-286 -60q-52 -25 -86.5 -68.5t-40.5 -86.5q-6 -52 28 -74.5t111 -5.5l-10 -146q-29 -12 -64.5 -16t-73.5 0t-72.5 20t-60 41t-37.5 66.5t-5 93.5
q17 115 127 197q-239 61 -372 264t-95 465q28 200 148.5 367t300.5 263.5t378 96.5zM1325 723q19 142 -31.5 260.5t-157 186t-245.5 67.5q-144 0 -274 -71.5t-216 -195.5t-106 -272q-14 -106 13 -201t85 -163t146 -108t192 -40q144 0 274 71.5t215.5 195t104.5 270.5z" />
    <glyph glyph-name="uni01EB" unicode="&#x1eb;" horiz-adv-x="1161" 
d="M629 -8q-85 -28 -131.5 -74t-46.5 -102q0 -55 40 -81t115 -9v-142q-33 -14 -76 -18.5t-89 5t-84.5 32t-63.5 67.5t-25 105q0 125 117 209q-160 32 -256 155t-96 293q0 157 79.5 294t213.5 218.5t288 81.5q199 0 327 -130t128 -327q0 -199 -125.5 -361.5t-314.5 -215.5z
M238 438q0 -119 73 -192.5t191 -73.5q148 0 254 116t106 273q0 120 -72.5 194t-189.5 74q-148 0 -255 -116.5t-107 -274.5z" />
    <glyph glyph-name="Scommaaccent" unicode="&#x218;" horiz-adv-x="1085" 
d="M354 1032q0 -45 26.5 -81t70.5 -60t99.5 -49t114 -47t114 -55t99.5 -71.5t70.5 -98.5t26.5 -134q0 -133 -77 -241t-198.5 -165t-259.5 -57q-147 0 -261.5 65.5t-176.5 164.5q-17 23 6 43l92 84q22 17 45 -6q69 -69 142.5 -105.5t165.5 -36.5q126 0 215.5 70t89.5 170
q0 52 -34 92.5t-88.5 69.5t-120 56t-131.5 60t-120.5 73t-88.5 103.5t-34 143.5q0 123 66 222.5t174.5 153.5t236.5 54q125 0 226 -52.5t170 -144.5q21 -28 4 -45l-90 -86q-22 -19 -45 4q-70 61 -131.5 89t-139.5 28q-111 0 -184.5 -59.5t-73.5 -151.5zM399 -78q57 0 91 -44
t24 -114q-17 -124 -143 -276q-2 -2 -13 -1l-10 1h-24q-8 0 -13 10t-2 23q53 74 70 157q-52 -4 -85.5 35.5t-25.5 96.5q6 47 44 79.5t87 32.5z" />
    <glyph glyph-name="scommaaccent" unicode="&#x219;" horiz-adv-x="862" 
d="M287 727q0 -31 19.5 -56t51.5 -41t73 -33.5t84 -32t84 -38t73 -51.5t51.5 -71.5t19.5 -98.5q0 -99 -59 -176.5t-149 -116.5t-191 -39q-122 0 -213.5 51.5t-142.5 125.5q-15 25 -2 38l65 72q18 18 43 -4q132 -98 254 -98q79 0 134 37t55 102q0 34 -25 61t-65 46.5
t-88.5 38t-97.5 42t-89 52.5t-65 75t-25 105q0 95 52.5 166.5t135.5 107t181 35.5q93 0 177.5 -43t135.5 -117q17 -26 2 -41l-64 -67q-15 -15 -34 2q-62 49 -109.5 69.5t-105.5 20.5q-70 0 -118 -33t-48 -90zM309 -78q57 0 91 -44t24 -114q-17 -124 -143 -276q-2 -2 -13 -1
l-10 1h-25q-8 0 -12.5 10t-1.5 23q53 74 70 157q-52 -4 -85.5 35.5t-25.5 96.5q6 47 44 79.5t87 32.5z" />
    <glyph glyph-name="uni021A" unicode="&#x21a;" horiz-adv-x="1073" 
d="M1061 1434q13 0 23 -11.5t8 -25.5l-21 -140q-3 -24 -31 -24h-319l-170 -1200q-3 -33 -37 -33h-156q-13 0 -21.5 11t-6.5 26l168 1196h-314q-13 0 -22.5 11.5t-7.5 25.5l20 139q3 25 29 25h858zM414 -78q57 0 90.5 -44t23.5 -114q-17 -124 -143 -276h-23h-24
q-8 0 -12.5 10t-1.5 23q52 72 69 157q-52 -4 -85 35.5t-25 96.5q6 47 44 79.5t87 32.5z" />
    <glyph glyph-name="uni021B" unicode="&#x21b;" horiz-adv-x="677" 
d="M625 1004q14 0 23.5 -11t6.5 -26l-16 -111q-5 -31 -37 -31h-141l-111 -794q-2 -13 -11.5 -22t-23.5 -9h-151q-14 0 -22.5 10t-6.5 21l113 794h-139q-14 0 -24 11t-7 26l16 113q5 29 37 29h141l39 280q3 27 33 27h152q13 0 21.5 -11t6.5 -24l-39 -272h140zM215 -63
q57 0 91 -44t24 -114q-17 -124 -144 -277q-2 -2 -12 -1l-10 1h-25q-8 0 -12.5 10t-1.5 23q53 73 70 158q-52 -4 -85.5 35t-25.5 96q6 47 44 80t87 33z" />
    <glyph glyph-name="uni0237" unicode="&#x237;" horiz-adv-x="538" 
d="M307 1004h154q13 0 23 -11.5t8 -25.5l-136 -957q-28 -205 -138 -307.5t-284 -108.5q-12 0 -20 7.5t-6 15.5l-27 158q-3 16 6 16q106 8 174 72t86 190l129 926q6 25 31 25z" />
    <glyph glyph-name="circumflex" unicode="&#x2c6;" horiz-adv-x="616" 
d="M469 1434q23 0 33 -21l160 -213q23 -33 -15 -33h-98q-21 0 -35 21l-115 153l-157 -161q-13 -13 -37 -13h-99q-20 0 -27 13.5t7 27.5l219 213q11 13 37 13h127z" />
    <glyph glyph-name="caron" unicode="&#x2c7;" horiz-adv-x="616" 
d="M440 1167h-127q-20 0 -34 21l-158 213q-23 33 14 33h98q23 0 33 -21l115 -151l160 159q11 13 37 13h98q20 0 26 -14t-6 -27l-219 -213q-13 -13 -37 -13z" />
    <glyph glyph-name="breve" unicode="&#x2d8;" horiz-adv-x="606" 
d="M465 1411q8 23 35 23h75q16 0 24.5 -12t4.5 -31q-26 -105 -112 -172.5t-211 -67.5q-135 0 -208 73.5t-73 182.5q0 27 25 27h84q23 0 30 -37q8 -52 43.5 -82.5t100.5 -30.5q69 0 118 35.5t64 91.5z" />
    <glyph glyph-name="dotaccent" unicode="&#x2d9;" horiz-adv-x="249" 
d="M205 1214q-51 0 -82.5 37.5t-24.5 89.5q6 43 41 73t78 30q51 0 83 -37t26 -88q-6 -44 -42 -74.5t-79 -30.5z" />
    <glyph glyph-name="ring" unicode="&#x2da;" horiz-adv-x="393" 
d="M299 1495q78 0 127.5 -58.5t38.5 -138.5q-10 -70 -69 -121t-130 -51q-82 0 -131.5 58t-38.5 137q9 71 68 122.5t135 51.5zM264 1260q26 0 47.5 18.5t24.5 44.5q2 18 -8.5 29.5t-28.5 11.5q-26 0 -47.5 -20t-24.5 -46q-3 -17 7.5 -27.5t29.5 -10.5z" />
    <glyph glyph-name="ogonek" unicode="&#x2db;" horiz-adv-x="411" 
d="M307 0q-94 0 -162.5 -57.5t-78.5 -124.5q-6 -52 28 -74.5t111 -5.5l-10 -146q-35 -14 -79 -17.5t-89 7.5t-81 35t-55 71t-10 109q8 59 43 110t82.5 85.5t104 59.5t107.5 36.5t93 11.5z" />
    <glyph glyph-name="tilde" unicode="&#x2dc;" horiz-adv-x="706" 
d="M303 1475q53 0 96.5 -22t68.5 -48t58.5 -48t67.5 -22q38 0 66 21.5t40 50.5q6 6 23 6h47q9 0 15.5 -10t5.5 -23q-19 -84 -75.5 -127t-131.5 -43q-53 0 -97.5 22t-69.5 48t-58.5 48t-67.5 22q-38 0 -67.5 -22.5t-41.5 -51.5q-6 -4 -20 -4h-47q-10 0 -17 10.5t-4 26.5
q20 82 76 124t133 42z" />
    <glyph glyph-name="hungarumlaut" unicode="&#x2dd;" horiz-adv-x="724" 
d="M406 1491q18 0 26 -12t0 -29l-160 -258q-7 -12 -13.5 -15t-20.5 -3h-129q-18 0 -27 11.5t0 28.5l160 259q7 12 13.5 15t20.5 3h130zM743 1491q18 0 27 -12t0 -29l-160 -258q-7 -12 -14 -15t-21 -3h-129q-18 0 -26 11.5t0 28.5l160 259q7 12 13.5 15t20.5 3h129z" />
    <glyph glyph-name="uni0326" unicode="&#x326;" horiz-adv-x="0" 
d="M-258 -78q57 0 91 -44t24 -114q-17 -123 -144 -276q-2 -2 -11.5 -1t-10.5 1h-25q-8 0 -12.5 10t-1.5 23q52 72 69 157q-52 -4 -85 35.5t-25 96.5q6 47 44 79.5t87 32.5z" />
    <glyph glyph-name="uni0394" unicode="&#x394;" horiz-adv-x="1329" 
d="M1184 31q6 -31 -23 -31h-1016h-168q-17 0 -24.5 13t-1.5 28l696 1374q9 19 35 19h156q12 0 23.5 -9.5t12.5 -21.5zM729 1151l-473 -973h676z" />
    <glyph glyph-name="uni03A9" unicode="&#x3a9;" horiz-adv-x="1626" 
d="M1245 207l-8 -29h236l-25 -178h-459l37 287q146 86 228.5 227t82.5 303q0 184 -124 302t-316 118q-122 0 -233.5 -48.5t-192.5 -129.5t-129.5 -193.5t-48.5 -234.5q0 -225 178 -350l-35 -281h-461l27 178h234l12 35q-88 75 -130 185t-42 237q0 166 68 318t181 260
t265 172.5t315 64.5q282 0 466.5 -177.5t184.5 -447.5q0 -184 -82.5 -350t-228.5 -268z" />
    <glyph glyph-name="uni03BC" unicode="&#x3bc;" horiz-adv-x="1087" 
d="M993 1004q14 0 23 -12t6 -25l-131 -942q-3 -25 -29 -25h-145q-13 0 -23 11.5t-8 25.5l8 106q-139 -170 -325 -170q-99 0 -166 33l-51 -371q-3 -24 -29 -24h-156q-13 0 -22.5 11.5t-7.5 25.5l149 1059l39 272q3 25 29 25h153q13 0 23 -11.5t8 -25.5l-68 -482l-12 -82
q-14 -119 33 -176t139 -57q61 0 117.5 25t93.5 61.5t60 73.5t26 65l82 584q6 25 31 25h153z" />
    <glyph glyph-name="pi" unicode="&#x3c0;" horiz-adv-x="1294" 
d="M1223 1004q14 0 23.5 -12t6.5 -25l-16 -117q-3 -25 -29 -25h-151l-80 -563q-11 -82 59 -82q49 0 76 8q21 1 32 -10.5t9 -27.5l-14 -113q-9 -51 -162 -51q-113 0 -174 64.5t-43 195.5l82 579h-350l-113 -800q-3 -25 -29 -25h-153q-13 0 -23 11.5t-8 25.5l110 788h-167
q-13 0 -23 11.5t-8 25.5l16 117q3 25 29 25h1100z" />
    <glyph glyph-name="uni0401" unicode="&#x401;" horiz-adv-x="999" 
d="M453 1645q-51 0 -82.5 37.5t-24.5 89.5q6 42 41 72t78 30q51 0 82.5 -37t25.5 -88q-6 -44 -41.5 -74t-78.5 -30zM864 1645q-51 0 -82 37.5t-24 89.5q6 42 41 72t78 30q51 0 82.5 -37t23.5 -88q-6 -44 -41 -74t-78 -30zM973 1434q13 0 23 -11.5t8 -25.5l-19 -140
q-5 -24 -31 -24h-540l-56 -383h500q13 0 23 -11.5t8 -25.5l-19 -139q-6 -25 -30 -25h-510l-62 -448h533q14 0 24 -12t9 -25l-21 -139q-3 -25 -29 -25h-733q-13 0 -21.5 11t-6.5 26l192 1368q3 29 35 29h723z" />
    <glyph glyph-name="uni0403" unicode="&#x403;" horiz-adv-x="970" 
d="M547 1542q-18 0 -27 12t0 29l160 258q5 9 10.5 13t10.5 5t14 1h129q18 0 26 -12t0 -29l-159 -258q-5 -9 -10.5 -13t-10.5 -5t-14 -1h-129zM981 1434q13 0 22 -11.5t7 -25.5l-19 -140q-3 -24 -30 -24h-547l-170 -1200q-3 -33 -37 -33h-156q-13 0 -21.5 11t-6.5 26
l192 1368q3 29 35 29h731z" />
    <glyph glyph-name="uni0404" unicode="&#x404;" horiz-adv-x="1378" 
d="M1364 1243q25 -29 4 -47l-104 -90q-21 -19 -47 4q-143 123 -328 123q-186 0 -340 -118t-217 -298h526q13 0 23 -11.5t8 -25.5l-21 -139q-3 -25 -28 -25h-543q1 -186 121 -304.5t303 -118.5q196 0 366 126q32 23 54 -2l84 -104q24 -31 -4 -53q-241 -187 -510 -187
q-184 0 -331 84t-228.5 230t-81.5 327q0 165 68 319.5t180.5 267.5t265 181t315.5 68q284 0 465 -207z" />
    <glyph glyph-name="uni0406" unicode="&#x406;" horiz-adv-x="458" 
d="M215 1405q3 29 35 29h158q14 0 22 -10.5t6 -24.5l-192 -1366q-3 -33 -37 -33h-156q-13 0 -21.5 11t-6.5 26z" />
    <glyph glyph-name="uni0407" unicode="&#x407;" horiz-adv-x="458" 
d="M166 1645q-51 0 -82.5 37.5t-24.5 89.5q6 42 41 72t78 30q51 0 83 -37t26 -88q-6 -44 -42 -74t-79 -30zM578 1645q-51 0 -82.5 37.5t-24.5 89.5q6 42 41 72t78 30q51 0 82.5 -37t23.5 -88q-6 -44 -40.5 -74t-77.5 -30zM215 1405q3 29 35 29h158q14 0 22 -10.5t6 -24.5
l-192 -1366q-3 -33 -37 -33h-156q-13 0 -21.5 11t-6.5 26z" />
    <glyph glyph-name="uni0410" unicode="&#x410;" horiz-adv-x="1327" 
d="M1182 33q7 -33 -25 -33h-162q-13 0 -21.5 8.5t-10.5 22.5l-58 272h-590l-135 -278q-10 -25 -37 -25h-168q-17 0 -24.5 13t0.5 28l694 1370q13 23 41 23h154q12 0 21.5 -8.5t12.5 -22.5zM410 496h456l-137 655z" />
    <glyph glyph-name="uni0411" unicode="&#x411;" horiz-adv-x="1112" 
d="M575 913q214 0 330.5 -106t116.5 -283q0 -236 -157 -380t-408 -144h-406q-13 0 -21.5 11t-6.5 26l192 1368q3 29 35 29h729q13 0 23 -11.5t8 -25.5l-19 -140q-5 -24 -30 -24h-547l-45 -320h206zM467 201q154 0 247 85.5t93 229.5q0 53 -20 92.5t-55.5 61.5t-80.5 32.5
t-100 10.5h-211l-72 -512h199z" />
    <glyph glyph-name="uni0412" unicode="&#x412;" horiz-adv-x="1185" 
d="M844 770q109 -27 176 -110.5t67 -200.5q0 -225 -155 -342t-420 -117h-461q-13 0 -22 11.5t-6 25.5l192 1372q3 25 29 25h463q189 0 282.5 -88t93.5 -224q0 -125 -65.5 -220t-173.5 -132zM870 1100q0 133 -202 133h-256l-54 -379h246q119 0 192.5 69t73.5 177zM530 201
q158 0 248 74.5t90 211.5q0 179 -260 179h-274l-66 -465h262z" />
    <glyph glyph-name="uni0413" unicode="&#x413;" horiz-adv-x="970" 
d="M981 1434q13 0 22 -11.5t7 -25.5l-19 -140q-3 -24 -30 -24h-547l-170 -1200q-3 -33 -37 -33h-156q-13 0 -21.5 11t-6.5 26l192 1368q3 29 35 29h731z" />
    <glyph glyph-name="uni0414" unicode="&#x414;" horiz-adv-x="1529" 
d="M1407 1434q13 0 23 -11.5t8 -25.5l-168 -1196h114q13 0 23 -11.5t8 -25.5l-39 -281q-3 -24 -30 -24h-162q-13 0 -22 11.5t-7 25.5l14 104h-983l-16 -117q-3 -24 -29 -24h-164q-13 0 -21.5 11.5t-6.5 25.5l39 280q3 25 28 25q206 0 242 248l135 960q3 25 29 25h985z
M412 201h635l145 1032h-602l-115 -827q-18 -123 -63 -205z" />
    <glyph glyph-name="uni0415" unicode="&#x415;" horiz-adv-x="999" 
d="M973 1434q13 0 23 -11.5t8 -25.5l-19 -140q-5 -24 -31 -24h-540l-56 -383h500q13 0 23 -11.5t8 -25.5l-19 -139q-6 -25 -30 -25h-510l-62 -448h533q14 0 24 -12t9 -25l-21 -139q-3 -25 -29 -25h-733q-13 0 -21.5 11t-6.5 26l192 1368q3 29 35 29h723z" />
    <glyph glyph-name="uni0416" unicode="&#x416;" horiz-adv-x="2025" 
d="M1987 1434q18 0 22.5 -16t-6.5 -27l-594 -576l463 -782q20 -33 -14 -33h-191q-22 0 -39 27l-379 632l-153 -151l-68 -475q-3 -33 -37 -33h-155q-13 0 -22 11t-7 26l70 491l-101 134l-567 -644q-15 -18 -39 -18h-197q-19 0 -24.5 14t6.5 27l692 793l-426 565q-11 13 -5 24
t26 11h194q22 0 37 -23l442 -606l84 600q3 29 35 29h158q14 0 22.5 -10.5t6.5 -24.5l-80 -572l598 590q20 17 49 17h199z" />
    <glyph glyph-name="uni0417" unicode="&#x417;" horiz-adv-x="1044" 
d="M739 756q88 -40 142.5 -118.5t54.5 -182.5q0 -132 -70 -243t-193 -175t-272 -64q-135 0 -237 49.5t-164 137.5q-18 29 4 45l90 76q17 7 23.5 4.5t23.5 -15.5q37 -32 63 -49.5t79 -34t118 -16.5q135 0 231.5 86t96.5 209q0 89 -73 144.5t-207 56.5q-18 0 -28.5 9t-8.5 23
l16 107q3 31 31 31q144 1 233.5 74.5t89.5 176.5q0 77 -59.5 122.5t-138.5 45.5t-134.5 -26t-123.5 -78q-31 -21 -54 2l-75 84q-21 24 2 47q79 77 183.5 121.5t213.5 44.5q159 0 269 -96t110 -244q0 -107 -62.5 -199t-173.5 -155z" />
    <glyph glyph-name="uni0418" unicode="&#x418;" horiz-adv-x="1341" 
d="M1290 1434q12 0 21 -12t8 -25l-193 -1372q-3 -25 -32 -25h-162q-13 0 -21 11.5t-6 25.5l150 1057l-766 -1069q-19 -25 -43 -25h-199q-12 0 -19.5 12.5t-4.5 24.5l192 1370q3 27 31 27h160q13 0 22.5 -11.5t7.5 -25.5l-151 -1055l766 1071q16 21 43 21h196z" />
    <glyph glyph-name="uni0419" unicode="&#x419;" horiz-adv-x="1341" 
d="M950 1839q8 23 35 23h76q16 0 24.5 -12t4.5 -31q-26 -105 -112.5 -172.5t-211.5 -67.5q-135 0 -208 73.5t-73 182.5q0 27 25 27h84q24 0 31 -37q17 -113 143 -113q69 0 118 35.5t64 91.5zM1290 1434q12 0 21 -12t8 -25l-193 -1372q-3 -25 -32 -25h-162q-13 0 -21 11.5
t-6 25.5l150 1057l-766 -1069q-19 -25 -43 -25h-199q-12 0 -19.5 12.5t-4.5 24.5l192 1370q3 27 31 27h160q13 0 22.5 -11.5t7.5 -25.5l-151 -1055l766 1071q16 21 43 21h196z" />
    <glyph glyph-name="uni041A" unicode="&#x41a;" horiz-adv-x="1241" 
d="M1202 1434q18 0 23 -16t-6 -27l-594 -576l462 -782q20 -33 -14 -33h-190q-22 0 -39 27l-379 632l-154 -151l-67 -475q-3 -33 -37 -33h-156q-13 0 -21.5 11t-6.5 26l192 1368q3 29 35 29h158q14 0 22 -10.5t6 -24.5l-80 -572l598 590q20 17 50 17h198z" />
    <glyph glyph-name="uni041B" unicode="&#x41b;" horiz-adv-x="1411" 
d="M1360 1434q14 0 22.5 -10.5t6.5 -24.5l-193 -1366q-3 -33 -37 -33h-155q-13 0 -22 11t-7 26l168 1196h-604l-115 -827q-30 -206 -143 -311t-283 -105q-30 0 -33 22l-22 148q-3 12 3 20t17 8q91 0 158.5 68t85.5 193l135 960q3 25 29 25h989z" />
    <glyph glyph-name="uni041C" unicode="&#x41c;" horiz-adv-x="1705" 
d="M1653 1434q14 0 22.5 -11t5.5 -26l-192 -1372q-3 -25 -29 -25h-162q-13 0 -22.5 11.5t-7.5 25.5l133 946l-535 -965q-9 -18 -35 -18h-153q-12 0 -21 9t-12 22l-266 958l-135 -964q-3 -25 -31 -25h-162q-13 0 -21.5 11.5t-6.5 25.5l192 1368q3 29 31 29h190q30 0 37 -33
l309 -1147l633 1157q13 23 41 23h197z" />
    <glyph glyph-name="uni041D" unicode="&#x41d;" horiz-adv-x="1284" 
d="M1233 1434q14 0 22.5 -10.5t6.5 -24.5l-193 -1366q-3 -33 -37 -33h-155q-13 0 -22 11t-7 26l80 571h-602l-82 -575q-3 -33 -37 -33h-156q-13 0 -21.5 11t-6.5 26l192 1368q3 29 35 29h158q14 0 22 -10.5t6 -24.5l-84 -592h604l84 598q3 29 35 29h158z" />
    <glyph glyph-name="uni041E" unicode="&#x41e;" horiz-adv-x="1624" 
d="M717 -27q-151 0 -280.5 59t-215.5 159.5t-125.5 239.5t-17.5 292q28 200 148.5 367t300.5 263.5t378 96.5q121 0 229 -37.5t190 -107t137.5 -162t77.5 -207.5t5 -238q-28 -198 -149 -365t-301 -263.5t-377 -96.5zM731 186q144 0 274 71.5t215.5 195t104.5 270.5
q19 142 -31.5 260.5t-157 186t-245.5 67.5q-144 0 -274 -71.5t-216 -195.5t-106 -272q-14 -106 13 -201t85 -163t146 -108t192 -40z" />
    <glyph glyph-name="uni041F" unicode="&#x41f;" horiz-adv-x="1284" 
d="M1233 1434q14 0 22.5 -10.5t6.5 -24.5l-193 -1366q-3 -33 -37 -33h-155q-13 0 -22 11t-7 26l168 1196h-602l-170 -1200q-3 -33 -37 -33h-156q-13 0 -21.5 11t-6.5 26l192 1368q3 29 35 29h983z" />
    <glyph glyph-name="uni0420" unicode="&#x420;" horiz-adv-x="1112" 
d="M649 1434q213 0 330 -107t117 -283q0 -235 -157 -379.5t-409 -144.5h-217l-69 -489q-6 -31 -35 -31h-160q-13 0 -21 11.5t-5 25.5l192 1368q3 29 33 29h401zM543 721q153 0 245.5 84t92.5 223q0 205 -258 205h-211l-70 -512h201z" />
    <glyph glyph-name="uni0421" unicode="&#x421;" horiz-adv-x="1378" 
d="M1141 317l84 -104q24 -31 -4 -53q-241 -187 -510 -187q-184 0 -331 84t-228.5 230t-81.5 327q0 165 68 319.5t180.5 267.5t265 181t315.5 68q284 0 465 -207q25 -29 4 -47l-104 -90q-21 -19 -47 4q-143 123 -328 123q-156 0 -293.5 -85t-218 -226.5t-80.5 -300.5
q0 -187 119.5 -307.5t304.5 -120.5q196 0 366 126q32 23 54 -2z" />
    <glyph glyph-name="uni0422" unicode="&#x422;" horiz-adv-x="1073" 
d="M1061 1434q13 0 23 -11.5t8 -25.5l-21 -140q-3 -24 -31 -24h-319l-170 -1200q-3 -33 -37 -33h-156q-13 0 -21.5 11t-6.5 26l168 1196h-314q-13 0 -22.5 11.5t-7.5 25.5l20 139q3 25 29 25h858z" />
    <glyph glyph-name="uni0423" unicode="&#x423;" horiz-adv-x="1339" 
d="M1341 1434q19 0 26 -13t-3 -28l-1026 -1377q-11 -16 -37 -16h-172q-19 0 -25.5 13t2.5 30l429 573l-363 787q-16 31 16 31h172q12 0 22 -8t13 -19l283 -598l455 610q11 15 36 15h172z" />
    <glyph glyph-name="uni0424" unicode="&#x424;" horiz-adv-x="1761" 
d="M1096 1311q129 0 236.5 -33.5t179.5 -91.5t118.5 -135t62.5 -165t3 -181q-16 -112 -75 -215t-152.5 -185.5t-231 -132t-297.5 -49.5h-33l-12 -90q-3 -33 -37 -33h-156q-13 0 -21.5 11t-6.5 26l12 86h-18q-129 0 -236.5 33.5t-179.5 92t-118.5 135.5t-62.5 165t-3 180
q12 89 51 173.5t105.5 158.5t153 130t201.5 88t244 32h31l12 94q3 29 35 29h158q14 0 22 -10.5t6 -24.5l-12 -88h21zM686 324h29l110 786h-18q-217 0 -353.5 -114t-162.5 -291q-15 -109 22 -193.5t132.5 -136t240.5 -51.5zM1473 729q24 169 -77 275t-317 106h-32l-111 -786
h22q217 0 354 114.5t161 290.5z" />
    <glyph glyph-name="uni0425" unicode="&#x425;" horiz-adv-x="1243" 
d="M1229 1434q19 0 26 -13t-4 -28l-508 -670l330 -688q8 -15 2.5 -25t-22.5 -10h-166q-25 0 -37 25l-246 516l-395 -523q-13 -18 -41 -18h-172q-18 0 -25 14t4 27l533 702l-313 656q-8 15 -2 25t24 10h162q27 0 39 -27l229 -481l371 489q16 19 39 19h172z" />
    <glyph glyph-name="uni0426" unicode="&#x426;" horiz-adv-x="1353" 
d="M1231 1434q14 0 22.5 -10.5t6.5 -24.5l-168 -1198h114q14 0 24 -12t9 -25l-41 -281q-3 -24 -29 -24h-161q-13 0 -23 11.5t-8 25.5l14 104h-940q-13 0 -21.5 11t-6.5 26l192 1368q3 29 35 29h158q14 0 22 -10.5t6 -24.5l-168 -1198h600l170 1204q3 29 35 29h158z" />
    <glyph glyph-name="uni0427" unicode="&#x427;" horiz-adv-x="1214" 
d="M1163 1434q14 0 22.5 -10.5t6.5 -24.5l-193 -1366q-3 -33 -36 -33h-156q-13 0 -22 11t-7 26l82 577q-78 -88 -187.5 -140t-242.5 -52q-175 0 -278 121t-76 317l78 549q3 25 30 25h162q14 0 23 -12t6 -25l-72 -518q-18 -122 42 -182t165 -60q76 0 149 25t120.5 60
t77.5 67.5t32 50.5l2 2l80 563q3 29 35 29h157z" />
    <glyph glyph-name="uni0428" unicode="&#x428;" horiz-adv-x="2107" 
d="M2056 1434q14 0 22.5 -10.5t6.5 -24.5l-193 -1366q-3 -33 -37 -33h-1804q-13 0 -21.5 11t-6.5 26l192 1368q3 29 35 29h158q14 0 22 -10.5t6 -24.5l-168 -1198h602l170 1204q3 29 35 29h158q14 0 22.5 -10.5t6.5 -24.5l-168 -1198h600l170 1204q3 29 34 29h158z" />
    <glyph glyph-name="uni0429" unicode="&#x429;" horiz-adv-x="2177" 
d="M2056 1434q14 0 22.5 -10.5t6.5 -24.5l-168 -1198h115q13 0 22.5 -11.5t7.5 -25.5l-39 -281q-3 -24 -28 -24h-162q-13 0 -23 11.5t-8 25.5l15 104h-1766q-13 0 -21.5 11t-6.5 26l192 1368q3 29 35 29h158q14 0 22 -10.5t6 -24.5l-168 -1198h602l170 1204q3 29 35 29h158
q14 0 22.5 -10.5t6.5 -24.5l-168 -1198h600l170 1204q3 29 34 29h158z" />
    <glyph glyph-name="uni042A" unicode="&#x42a;" horiz-adv-x="1183" 
d="M649 913q214 0 330.5 -106t116.5 -283q0 -236 -157.5 -380t-408.5 -144h-405q-13 0 -22 11t-7 26l168 1196h-207q-13 0 -21.5 11.5t-6.5 25.5l18 139q3 25 29 25h405q14 0 22.5 -10.5t6.5 -24.5l-68 -486h207zM541 201q154 0 247 85.5t93 229.5q0 53 -20 92.5t-55.5 61.5
t-80.5 32.5t-100 10.5h-211l-72 -512h199z" />
    <glyph glyph-name="uni042B" unicode="&#x42b;" horiz-adv-x="1654" 
d="M575 913q214 0 330.5 -106t116.5 -283q0 -236 -157 -380t-408 -144h-406q-13 0 -21.5 11t-6.5 26l192 1368q3 29 35 29h158q14 0 22 -10.5t6 -24.5l-67 -486h206zM1604 1434q14 0 22 -10.5t6 -24.5l-192 -1366q-3 -33 -37 -33h-156q-13 0 -21.5 11t-6.5 26l192 1368
q3 29 35 29h158zM467 201q154 0 247 85.5t93 229.5q0 53 -20 92.5t-55.5 61.5t-80.5 32.5t-100 10.5h-211l-72 -512h199z" />
    <glyph glyph-name="uni042C" unicode="&#x42c;" horiz-adv-x="1112" 
d="M575 913q214 0 330.5 -106t116.5 -283q0 -236 -157 -380t-408 -144h-406q-13 0 -21.5 11t-6.5 26l192 1368q3 29 35 29h158q14 0 22 -10.5t6 -24.5l-67 -486h206zM467 201q154 0 247 85.5t93 229.5q0 53 -20 92.5t-55.5 61.5t-80.5 32.5t-100 10.5h-211l-72 -512h199z
" />
    <glyph glyph-name="uni042D" unicode="&#x42d;" horiz-adv-x="1370" 
d="M668 1450q152 0 280 -59t212 -159t122.5 -239.5t17.5 -294.5q-21 -149 -96 -283t-184.5 -231t-251 -154t-289.5 -57q-143 0 -260 55t-201 150q-19 21 5 45l92 94q21 21 47 -2q138 -122 330 -122q184 0 340.5 118.5t218.5 304.5h-508q-14 0 -23 10t-8 23l20 139
q3 29 31 29h518q-6 183 -125 299.5t-299 116.5q-206 0 -368 -137q-25 -18 -49 10l-84 104q-8 10 -5.5 25t15.5 25q239 190 502 190z" />
    <glyph glyph-name="uni042E" unicode="&#x42e;" horiz-adv-x="2035" 
d="M1317 1450q121 0 229 -37.5t190 -107t137.5 -162t77.5 -207.5t5 -238q-21 -148 -97.5 -282.5t-187.5 -231.5t-253.5 -154t-289.5 -57q-184 0 -332.5 84t-231.5 231t-83 328h-155l-82 -583q-3 -33 -37 -33h-156q-13 0 -21.5 11t-6.5 26l192 1368q3 29 35 29h158
q14 0 22 -10.5t6 -24.5l-82 -582h154q47 178 168 322.5t289.5 227.5t351.5 83zM1737 723q19 142 -31.5 260.5t-157 186t-245.5 67.5q-144 0 -274 -71.5t-216 -195.5t-106 -272q-14 -106 13 -201t85 -163t146 -108t192 -40q144 0 274 71.5t215.5 195t104.5 270.5z" />
    <glyph glyph-name="uni042F" unicode="&#x42f;" horiz-adv-x="1155" 
d="M1102 1434q14 0 24 -12t7 -25l-193 -1372q-3 -25 -29 -25h-161q-13 0 -23 11.5t-8 25.5l67 483h-168l-397 -504q-11 -16 -37 -16h-174q-21 0 -28.5 13t4.5 30l413 502q-149 45 -216.5 163.5t-43.5 280.5q27 199 173.5 322t383.5 123h406zM815 721l72 512h-201
q-61 0 -114.5 -14.5t-100.5 -45t-79 -84t-42 -124.5q-10 -66 6 -114.5t53 -76t85.5 -40.5t109.5 -13h211z" />
    <glyph glyph-name="uni0430" unicode="&#x430;" 
d="M1096 1004q13 0 22.5 -11.5t7.5 -25.5l-133 -942q-3 -25 -28 -25h-140q-13 0 -21.5 11.5t-6.5 25.5l4 92q-149 -156 -340 -156q-192 0 -310 129t-118 324q0 157 73.5 295t202.5 221.5t281 83.5q201 0 313 -170l25 121q6 27 30 27h138zM498 170q94 0 177 54.5t132 145
t49 191.5q0 115 -71 191.5t-187 76.5q-147 0 -252.5 -115.5t-105.5 -275.5q0 -118 71 -193t187 -75z" />
    <glyph glyph-name="uni0431" unicode="&#x431;" horiz-adv-x="1189" 
d="M668 1026q192 0 310 -128t118 -323q0 -160 -74 -298.5t-203 -221t-280 -82.5q-199 0 -310 166l-26 -114q-6 -25 -31 -25h-139q-13 0 -22 11.5t-7 25.5l143 1038q26 189 116 274t269 85h250q69 0 102.5 7t55.5 25h184q-16 -69 -47.5 -114t-80 -68.5t-102 -32t-128.5 -8.5
h-207q-90 0 -136.5 -45t-57.5 -135l-29 -184q137 147 332 147zM530 170q145 0 253 118t108 273q0 115 -72 191.5t-188 76.5q-148 0 -253.5 -115.5t-105.5 -275.5q0 -118 71 -193t187 -75z" />
    <glyph glyph-name="uni0432" unicode="&#x432;" horiz-adv-x="1101" 
d="M788 532q93 -17 145 -78t52 -143t-37.5 -143t-105 -97t-151.5 -53.5t-185 -17.5h-475q-14 0 -22.5 10t-6.5 21l133 946q3 27 33 27h469q156 0 245 -64t89 -172q0 -86 -47.5 -146t-135.5 -90zM774 735q0 42 -33.5 66t-124.5 24h-288l-31 -219h268q209 0 209 129zM514 178
q147 0 209.5 43.5t62.5 106.5q0 25 -8.5 44t-32 38t-72 29t-120.5 10h-277l-38 -271h276z" />
    <glyph glyph-name="uni0433" unicode="&#x433;" horiz-adv-x="839" 
d="M788 1004q14 0 23 -12t6 -25l-16 -117q-3 -25 -29 -25h-446l-111 -800q-3 -25 -31 -25h-153q-14 0 -23 12t-6 25l133 942q3 25 29 25h624z" />
    <glyph glyph-name="uni0434" unicode="&#x434;" horiz-adv-x="1398" 
d="M1249 178q13 0 23 -11.5t8 -25.5l-35 -247q-3 -25 -28 -25h-154q-13 0 -23 11.5t-8 25.5l12 94h-866l-16 -106q-3 -25 -29 -25h-153q-13 0 -23 11.5t-8 25.5l37 256q3 28 32 28q94 0 157 66t81 193l74 530q3 25 28 25h846q13 0 23 -11.5t8 -25.5l-111 -789h125zM524 825
l-59 -419q-21 -142 -86 -228h530l90 647h-475z" />
    <glyph glyph-name="uni0435" unicode="&#x435;" horiz-adv-x="1107" 
d="M598 1026q108 0 194 -41.5t138 -111.5t74 -162t8 -193q-8 -58 -21.5 -79t-52.5 -21h-702q0 -123 73.5 -194.5t204.5 -71.5q136 0 258 90q24 18 45 -6l62 -70q25 -29 0 -49q-167 -144 -390 -144q-152 0 -263.5 72t-160.5 194.5t-28 272.5q31 219 190 366.5t371 147.5z
M586 842q-115 0 -204 -75t-124 -200h571q9 125 -58.5 200t-184.5 75z" />
    <glyph glyph-name="uni0436" unicode="&#x436;" horiz-adv-x="1775" 
d="M1696 1004q21 0 27 -13t-9 -28l-448 -394l387 -536q23 -33 -15 -33h-190q-22 0 -33 23l-305 409l-152 -131l-38 -276q-3 -25 -31 -25h-154q-13 0 -22 11.5t-6 25.5l38 268l-110 131l-418 -424q-10 -12 -37 -12h-192q-21 0 -28.5 15t7.5 28l547 537l-330 391q-26 33 13 33
h188q20 0 37 -21l360 -414l58 410q3 25 28 25h154q14 0 23 -12t6 -25l-56 -396l471 420q13 13 39 13h191z" />
    <glyph glyph-name="uni0437" unicode="&#x437;" horiz-adv-x="829" 
d="M573 532q61 -31 96.5 -87.5t35.5 -125.5q0 -99 -57 -177t-146.5 -118t-192.5 -40q-110 0 -191 39t-120 102q-12 20 -11 31t15 22l68 60q23 18 59 -11q72 -61 178 -61q81 0 143 47.5t62 118.5q0 55 -47 88t-141 33q-26 0 -41 15t-13 36l11 61q6 41 45 41q92 0 150.5 41.5
t58.5 100.5q0 41 -33 64.5t-88 23.5q-85 0 -172 -64q-15 -11 -35.5 -8t-32.5 18l-47 58q-28 36 0 61q127 115 309 115q126 0 211.5 -68t85.5 -176q0 -142 -160 -240z" />
    <glyph glyph-name="uni0438" unicode="&#x438;" horiz-adv-x="1163" 
d="M1069 1004q13 0 23 -11.5t8 -25.5l-131 -942q-3 -25 -31 -25h-154q-13 0 -22.5 11.5t-7.5 25.5l98 700l-588 -721q-13 -16 -39 -16h-194q-14 0 -23 12t-6 25l133 942q3 25 29 25h153q13 0 22 -11.5t7 -25.5l-98 -705l592 727q12 15 39 15h190z" />
    <glyph glyph-name="uni0439" unicode="&#x439;" horiz-adv-x="1163" 
d="M868 1409q8 23 35 23h76q16 0 24.5 -12t4.5 -31q-26 -105 -112.5 -172.5t-211.5 -67.5q-135 0 -208 73.5t-73 182.5q0 27 25 27h84q24 0 31 -37q17 -113 143 -113q69 0 118 35.5t64 91.5zM1069 1004q13 0 23 -11.5t8 -25.5l-131 -942q-3 -25 -31 -25h-154
q-13 0 -22.5 11.5t-7.5 25.5l98 700l-588 -721q-13 -16 -39 -16h-194q-14 0 -23 12t-6 25l133 942q3 25 29 25h153q13 0 22 -11.5t7 -25.5l-98 -705l592 727q12 15 39 15h190z" />
    <glyph glyph-name="uni043A" unicode="&#x43a;" horiz-adv-x="1071" 
d="M991 1004q21 0 27.5 -13t-8.5 -28l-449 -394l387 -536q23 -33 -14 -33h-191q-21 0 -32 23l-305 409l-152 -131l-39 -276q-3 -25 -31 -25h-153q-14 0 -23 12t-6 25l133 942q3 25 29 25h153q14 0 23 -12t6 -25l-55 -396l471 420q13 13 39 13h190z" />
    <glyph glyph-name="uni043B" unicode="&#x43b;" horiz-adv-x="1243" 
d="M1149 1004q14 0 24 -12t7 -25l-131 -942q-6 -25 -31 -25h-154q-13 0 -22 11.5t-6 25.5l110 788h-477l-59 -419q-28 -207 -139 -311.5t-281 -104.5q-26 0 -29 18l-27 158q-2 9 3 15.5t14 6.5q97 0 164.5 67.5t85.5 193.5l73 530q6 25 31 25h844z" />
    <glyph glyph-name="uni043C" unicode="&#x43c;" horiz-adv-x="1464" 
d="M1374 1004q12 0 20.5 -11.5t6.5 -25.5l-131 -940q-3 -27 -33 -27h-154q-13 0 -20.5 11.5t-5.5 25.5l82 596l-383 -615q-10 -18 -35 -18h-172q-21 0 -33 29l-213 618l-86 -620q-3 -27 -33 -27h-153q-13 0 -21 11.5t-6 25.5l131 942q3 25 31 25h199q24 0 34 -31l260 -744
l476 754q13 21 34 21h205z" />
    <glyph glyph-name="uni043D" unicode="&#x43d;" horiz-adv-x="1153" 
d="M1063 1004q13 0 22 -11.5t7 -23.5l-131 -938q-2 -13 -11.5 -22t-23.5 -9h-152q-14 0 -22.5 10t-6.5 21l54 383h-529l-53 -383q-2 -13 -11.5 -22t-23.5 -9h-151q-14 0 -22.5 10t-6.5 21l133 946q3 27 33 27h151q13 0 22 -11.5t7 -23.5l-53 -377h530l54 385q3 27 32 27h152
z" />
    <glyph glyph-name="uni043E" unicode="&#x43e;" horiz-adv-x="1161" 
d="M485 -27q-198 0 -325 130.5t-127 328.5q0 157 79.5 294t213.5 218.5t288 81.5q199 0 327 -130t128 -327q0 -156 -79 -293.5t-214.5 -220t-290.5 -82.5zM502 172q148 0 254 116t106 273q0 120 -72.5 194t-189.5 74q-148 0 -255 -116.5t-107 -274.5q0 -119 73 -192.5
t191 -73.5z" />
    <glyph glyph-name="uni043F" unicode="&#x43f;" horiz-adv-x="1153" 
d="M1063 1004q13 0 22 -11.5t7 -23.5l-131 -938q-2 -13 -11.5 -22t-23.5 -9h-152q-14 0 -22.5 10t-6.5 21l113 794h-530l-111 -794q-2 -13 -11.5 -22t-23.5 -9h-151q-14 0 -22.5 10t-6.5 21l133 946q3 27 33 27h895z" />
    <glyph glyph-name="uni0440" unicode="&#x440;" horiz-adv-x="1189" 
d="M672 1026q139 0 242.5 -72t150 -195.5t25.5 -271.5q-19 -142 -97 -259.5t-197.5 -186t-254.5 -68.5q-197 0 -308 158l-71 -496q-3 -24 -31 -24h-154q-13 0 -22.5 11.5t-7.5 25.5l188 1329q3 27 33 27h135q13 0 23 -11.5t8 -25.5l-10 -99q148 158 348 158zM530 170
q145 0 253 118t108 273q0 115 -72 191.5t-188 76.5q-148 0 -253.5 -115.5t-105.5 -275.5q0 -118 71 -193t187 -75z" />
    <glyph glyph-name="uni0441" unicode="&#x441;" horiz-adv-x="1032" 
d="M500 172q87 0 146 28.5t112 78.5q22 23 45 0l84 -91q10 -10 10.5 -23.5t-12.5 -27.5q-82 -77 -187 -120.5t-219 -43.5q-197 0 -321.5 129.5t-124.5 327.5q0 159 77.5 296t210 218.5t287.5 81.5q118 0 210 -49t153 -137q19 -27 -2 -43l-101 -80q-9 -7 -21.5 -5t-21.5 11
q-48 51 -98.5 78.5t-130.5 27.5q-149 0 -253.5 -115t-104.5 -272q0 -122 71 -196t191 -74z" />
    <glyph glyph-name="uni0442" unicode="&#x442;" horiz-adv-x="888" 
d="M836 1004q14 0 23.5 -12t6.5 -25l-16 -117q-3 -25 -29 -25h-254l-112 -800q-3 -25 -29 -25h-154q-13 0 -22.5 11.5t-7.5 25.5l110 788h-243q-13 0 -23 11.5t-8 25.5l16 117q3 25 29 25h713z" />
    <glyph glyph-name="uni0443" unicode="&#x443;" horiz-adv-x="1085" 
d="M1044 1004q18 0 27 -12t0 -29l-715 -1330q-12 -22 -41 -22h-151q-17 0 -24.5 13t1.5 28l193 344l-248 979q-6 29 23 29h155q11 0 20.5 -9t12.5 -20l174 -725l377 731q13 23 39 23h157z" />
    <glyph glyph-name="uni0444" unicode="&#x444;" horiz-adv-x="1970" 
d="M1448 1026q192 0 311 -128.5t119 -324.5q0 -159 -74.5 -297t-203.5 -220.5t-279 -82.5q-198 0 -305 158l-74 -496q-3 -24 -29 -24h-153q-13 0 -23 11.5t-8 25.5l68 477q-145 -152 -336 -152t-309.5 129t-118.5 324q0 159 74 297t203 220.5t280 82.5q194 0 305 -158
l72 498q3 25 30 25h154q13 0 22 -11.5t7 -25.5l-68 -480q142 152 336 152zM492 170q96 0 179.5 54t132 144t48.5 191q0 117 -67.5 193.5t-180.5 76.5q-150 0 -258 -119t-108 -278q0 -116 70 -189t184 -73zM1671 567q0 116 -69.5 189t-184.5 73q-145 0 -252.5 -117
t-107.5 -272q0 -116 68 -193t180 -77q100 0 185 55.5t133 146.5t48 195z" />
    <glyph glyph-name="uni0445" unicode="&#x445;" horiz-adv-x="1021" 
d="M854 31q19 -31 -16 -31h-174q-23 0 -35 27l-166 321l-258 -334q-12 -14 -37 -14h-174q-19 0 -27 14t2 29l396 471l-242 459q-8 15 -5 23t21 8h174q23 0 35 -27l154 -297l241 309q11 15 35 15h174q19 0 28 -14t-3 -29l-377 -447z" />
    <glyph glyph-name="uni0446" unicode="&#x446;" horiz-adv-x="1208" 
d="M1059 178q13 0 23 -11.5t8 -25.5l-35 -247q-3 -25 -29 -25h-154q-13 0 -22.5 11.5t-7.5 25.5l12 94h-821q-14 0 -23 12t-6 25l131 942q3 25 29 25h153q14 0 24 -12t7 -25l-110 -789h528l111 801q6 25 30 25h154q13 0 23 -11.5t8 -25.5l-111 -789h78z" />
    <glyph glyph-name="uni0447" unicode="&#x447;" horiz-adv-x="1142" 
d="M1053 1004q13 0 21.5 -11t6.5 -24l-131 -938q-2 -13 -11.5 -22t-23.5 -9h-151q-14 0 -22.5 10t-6.5 21l56 387q-161 -166 -379 -166q-62 0 -117.5 13t-105 44t-82.5 77t-46.5 117.5t-1.5 160.5l45 315q3 25 29 25h154q13 0 22.5 -11.5t7.5 -25.5l-43 -314
q-17 -116 30.5 -174.5t154.5 -58.5q198 0 360 205l49 352q3 27 33 27h152z" />
    <glyph glyph-name="uni0448" unicode="&#x448;" horiz-adv-x="1456" 
d="M1364 1004q13 0 22 -11.5t7 -23.5l-131 -938q-2 -13 -11.5 -22t-23.5 -9h-1196q-14 0 -22.5 10t-6.5 21l133 946q3 27 33 27h151q13 0 22 -11.5t7 -23.5l-110 -791h307l112 799q3 27 33 27h152q13 0 21.5 -11t6.5 -24l-110 -791h307l113 799q3 27 32 27h152z" />
    <glyph glyph-name="uni0449" unicode="&#x449;" horiz-adv-x="1564" 
d="M1415 178q13 0 23 -11.5t8 -25.5l-35 -247q-3 -25 -29 -25h-153q-13 0 -23 11.5t-8 25.5l12 94h-1179q-14 0 -22.5 10t-6.5 21l133 946q3 27 33 27h151q13 0 22 -11.5t7 -23.5l-110 -791h307l112 799q3 27 33 27h152q13 0 21.5 -11t6.5 -24l-110 -791h307l113 799
q3 27 32 27h152q13 0 22 -11.5t7 -23.5l-111 -791h133z" />
    <glyph glyph-name="uni044A" unicode="&#x44a;" horiz-adv-x="1144" 
d="M645 668q188 0 289.5 -73.5t101.5 -213.5q0 -186 -124.5 -283.5t-350.5 -97.5h-469q-14 0 -22.5 10t-6.5 21l113 794h-123q-14 0 -24 12t-9 25l17 117q6 25 31 25h313q13 0 22 -11.5t7 -23.5l-43 -301h278zM578 170q119 0 186 52t67 147q0 69 -46.5 100t-149.5 31h-291
l-45 -330h279z" />
    <glyph glyph-name="uni044B" unicode="&#x44b;" horiz-adv-x="1529" 
d="M584 668q188 0 289.5 -73.5t101.5 -213.5q0 -186 -124.5 -283.5t-350.5 -97.5h-469q-14 0 -22.5 10t-6.5 21l133 946q3 27 33 27h151q13 0 22 -11.5t7 -23.5l-43 -301h279zM1438 1004q13 0 21.5 -11t6.5 -24l-131 -938q-2 -13 -11.5 -22t-23.5 -9h-151q-14 0 -22.5 10
t-6.5 21l133 946q3 27 33 27h152zM516 170q119 0 186.5 52t67.5 147q0 69 -47 100t-150 31h-290l-45 -330h278z" />
    <glyph glyph-name="uni044C" unicode="&#x44c;" horiz-adv-x="1083" 
d="M584 668q188 0 289.5 -73.5t101.5 -213.5q0 -186 -124.5 -283.5t-350.5 -97.5h-469q-14 0 -22.5 10t-6.5 21l133 946q3 27 33 27h151q13 0 22 -11.5t7 -23.5l-43 -301h279zM516 170q119 0 186.5 52t67.5 147q0 69 -47 100t-150 31h-290l-45 -330h278z" />
    <glyph glyph-name="uni044D" unicode="&#x44d;" horiz-adv-x="1028" 
d="M498 1026q108 0 198 -42t148.5 -114t84.5 -172t11 -211q-31 -218 -194.5 -366t-376.5 -148q-121 0 -215.5 50.5t-153.5 138.5q-18 26 2 41l94 78q19 15 45 -11q34 -31 58 -48.5t71 -33.5t105 -16q112 0 204 69t134 179h-338q-14 0 -23 10t-8 23l14 100q3 29 29 29h352
q-5 110 -73 178.5t-179 68.5q-46 0 -84.5 -9t-72.5 -28t-53 -33t-50 -40q-13 -10 -26.5 -7.5t-24.5 15.5l-80 84q-23 27 2 49q81 78 184.5 122t215.5 44z" />
    <glyph glyph-name="uni044E" unicode="&#x44e;" horiz-adv-x="1550" 
d="M1004 1026q198 0 326 -129.5t128 -327.5q0 -156 -79 -293.5t-214.5 -220t-290.5 -82.5q-193 0 -318.5 124t-133.5 315h-154l-53 -383q-2 -13 -11.5 -22t-23.5 -9h-151q-14 0 -22.5 10t-6.5 21l133 946q3 26 33 26h151q13 0 22 -11t7 -23l-53 -377h151q53 188 210 312
t350 124zM891 172q148 0 254 116t106 273q0 120 -72.5 194t-189.5 74q-148 0 -255 -116.5t-107 -274.5q0 -119 73 -192.5t191 -73.5z" />
    <glyph glyph-name="uni044F" unicode="&#x44f;" horiz-adv-x="1114" 
d="M1024 1004q13 0 22 -11.5t7 -23.5l-131 -938q-2 -13 -11.5 -22t-23.5 -9h-152q-14 0 -22 10t-6 21l43 305h-213l-332 -324q-10 -12 -37 -12h-164q-20 0 -27.5 15t7.5 28l329 305q-124 23 -190 92t-66 178q0 195 127 290.5t348 95.5h492zM459 506h315l45 330h-303
q-117 0 -184.5 -50t-67.5 -143q0 -137 195 -137z" />
    <glyph glyph-name="uni0451" unicode="&#x451;" horiz-adv-x="1107" 
d="M444 1276q-51 0 -82 37.5t-24 89.5q6 42 41 72t78 30q51 0 82.5 -37t25.5 -88q-6 -44 -42 -74t-79 -30zM856 1276q-51 0 -82 37.5t-24 89.5q6 43 40.5 72.5t77.5 29.5q51 0 82.5 -37t24.5 -88q-6 -44 -41 -74t-78 -30zM598 1026q108 0 194 -41.5t138 -111.5t74 -162
t8 -193q-8 -58 -21.5 -79t-52.5 -21h-702q0 -123 73.5 -194.5t204.5 -71.5q136 0 258 90q24 18 45 -6l62 -70q25 -29 0 -49q-167 -144 -390 -144q-152 0 -263.5 72t-160.5 194.5t-28 272.5q31 219 190 366.5t371 147.5zM586 842q-115 0 -204 -75t-124 -200h571
q9 125 -58.5 200t-184.5 75z" />
    <glyph glyph-name="uni0453" unicode="&#x453;" horiz-adv-x="839" 
d="M416 1112q-18 0 -27 12t0 29l160 258q5 9 10.5 13t10.5 5t14 1h129q18 0 26 -12t0 -29l-159 -259q-7 -12 -14 -15t-21 -3h-129zM788 1004q14 0 23 -12t6 -25l-16 -117q-3 -25 -29 -25h-446l-111 -800q-3 -25 -31 -25h-153q-14 0 -23 12t-6 25l133 942q3 25 29 25h624z
" />
    <glyph glyph-name="uni0454" unicode="&#x454;" horiz-adv-x="1032" 
d="M971 840q19 -27 -2 -43l-101 -80q-9 -7 -21.5 -5t-21.5 11q-48 51 -98.5 78.5t-130.5 27.5q-113 0 -204 -69.5t-130 -177.5h342q13 0 23 -11.5t8 -25.5l-14 -101q-3 -24 -29 -24h-354q8 -113 78.5 -180.5t183.5 -67.5q87 0 146 28.5t112 78.5q22 23 45 0l84 -91
q10 -10 10.5 -23.5t-12.5 -27.5q-82 -77 -187 -120.5t-219 -43.5q-197 0 -321.5 129.5t-124.5 327.5q0 159 77.5 296t210 218.5t287.5 81.5q118 0 210 -49t153 -137z" />
    <glyph glyph-name="uni0457" unicode="&#x457;" horiz-adv-x="411" 
d="M82 1214q-51 0 -82.5 37.5t-24.5 89.5q6 43 41 73t78 30q51 0 83 -37t26 -88q-6 -44 -42 -74.5t-79 -30.5zM494 1214q-51 0 -82.5 37.5t-24.5 89.5q6 43 41 73t78 30q51 0 82.5 -37t23.5 -88q-6 -44 -40.5 -74.5t-77.5 -30.5zM135 977q3 27 33 27h151q13 0 22 -11.5
t7 -23.5l-131 -938q-2 -13 -11.5 -22t-23.5 -9h-151q-14 0 -22.5 10t-6.5 21z" />
    <glyph glyph-name="uni0490" unicode="&#x490;" horiz-adv-x="970" 
d="M995 1538q13 0 22 -11.5t7 -25.5l-33 -244q-3 -24 -30 -24h-547l-170 -1200q-3 -33 -37 -33h-156q-13 0 -21.5 11t-6.5 26l192 1368q3 29 35 29h565l10 79q3 25 31 25h139z" />
    <glyph glyph-name="uni0491" unicode="&#x491;" horiz-adv-x="839" 
d="M805 1130q13 0 23 -11t8 -25l-35 -244q-3 -25 -29 -25h-446l-111 -800q-3 -25 -31 -25h-153q-14 0 -23 12t-6 25l133 942q3 25 29 25h444l15 102q3 24 28 24h154z" />
    <glyph glyph-name="Wgrave" unicode="&#x1e80;" horiz-adv-x="2224" 
d="M1047 1860h129q25 0 32 -31l88 -258q4 -17 -0.5 -23t-21.5 -6h-129q-26 0 -33 31l-88 258q-4 17 0.5 23t22.5 6zM2226 1434q17 0 24 -13t-1 -28l-633 -1370q-10 -23 -39 -23h-160q-29 0 -37 31l-215 1069l-518 -1077q-11 -23 -37 -23h-164q-29 0 -36 31l-244 1374
q-6 29 22 29h166q26 0 33 -31l178 -1116l529 1126q12 21 32 21h154q29 0 33 -31l215 -1116l497 1126q8 21 35 21h166z" />
    <glyph glyph-name="wgrave" unicode="&#x1e81;" horiz-adv-x="1796" 
d="M772 1430h129q26 0 33 -31l88 -258q4 -17 -0.5 -23t-22.5 -6h-129q-25 0 -32 31l-88 258q-4 17 0.5 23t21.5 6zM1755 1004q18 0 26 -12t1 -29l-486 -940q-10 -23 -39 -23h-149q-13 0 -24.5 9.5t-14.5 21.5l-168 692l-369 -703q-10 -20 -36 -20h-154q-13 0 -23 9.5
t-12 21.5l-221 942q-6 31 23 31h149q12 0 21.5 -9t11.5 -20l160 -729l374 737q12 21 37 21h137q12 0 23 -9.5t14 -21.5l168 -727l363 735q13 23 39 23h149z" />
    <glyph glyph-name="Wacute" unicode="&#x1e82;" horiz-adv-x="2224" 
d="M1470 1860q18 0 27 -12t0 -29l-160 -258q-7 -13 -14 -16t-20 -3h-129q-18 0 -27 12t0 29l160 258q7 13 14 16t20 3h129zM2226 1434q17 0 24 -13t-1 -28l-633 -1370q-10 -23 -39 -23h-160q-29 0 -37 31l-215 1069l-518 -1077q-11 -23 -37 -23h-164q-29 0 -36 31l-244 1374
q-6 29 22 29h166q26 0 33 -31l178 -1116l529 1126q12 21 32 21h154q29 0 33 -31l215 -1116l497 1126q8 21 35 21h166z" />
    <glyph glyph-name="wacute" unicode="&#x1e83;" horiz-adv-x="1796" 
d="M1196 1430q18 0 27 -12t0 -29l-160 -259q-7 -12 -14 -15t-21 -3h-129q-18 0 -27 12t0 29l160 258q5 9 10.5 13t10.5 5t14 1h129zM1755 1004q18 0 26 -12t1 -29l-486 -940q-10 -23 -39 -23h-149q-13 0 -24.5 9.5t-14.5 21.5l-168 692l-369 -703q-10 -20 -36 -20h-154
q-13 0 -23 9.5t-12 21.5l-221 942q-6 31 23 31h149q12 0 21.5 -9t11.5 -20l160 -729l374 737q12 21 37 21h137q12 0 23 -9.5t14 -21.5l168 -727l363 735q13 23 39 23h149z" />
    <glyph glyph-name="Wdieresis" unicode="&#x1e84;" horiz-adv-x="2224" 
d="M1047 1645q-51 0 -82.5 37.5t-24.5 89.5q6 42 41 72t78 30q51 0 82.5 -37t25.5 -88q-6 -44 -41.5 -74t-78.5 -30zM1458 1645q-51 0 -82 37.5t-24 89.5q6 43 40.5 72.5t77.5 29.5q51 0 82.5 -37t24.5 -88q-6 -44 -41 -74t-78 -30zM2226 1434q17 0 24 -13t-1 -28
l-633 -1370q-10 -23 -39 -23h-160q-29 0 -37 31l-215 1069l-518 -1077q-11 -23 -37 -23h-164q-29 0 -36 31l-244 1374q-6 29 22 29h166q26 0 33 -31l178 -1116l529 1126q12 21 32 21h154q29 0 33 -31l215 -1116l497 1126q8 21 35 21h166z" />
    <glyph glyph-name="wdieresis" unicode="&#x1e85;" horiz-adv-x="1796" 
d="M772 1214q-51 0 -82 37.5t-24 89.5q6 43 40.5 73t77.5 30q51 0 83 -37t26 -88q-6 -44 -42 -74.5t-79 -30.5zM1184 1214q-51 0 -82.5 37.5t-24.5 89.5q6 43 41 73t78 30q51 0 82.5 -37t24.5 -88q-6 -44 -41 -74.5t-78 -30.5zM1755 1004q18 0 26 -12t1 -29l-486 -940
q-10 -23 -39 -23h-149q-13 0 -24.5 9.5t-14.5 21.5l-168 692l-369 -703q-10 -20 -36 -20h-154q-13 0 -23 9.5t-12 21.5l-221 942q-6 31 23 31h149q12 0 21.5 -9t11.5 -20l160 -729l374 737q12 21 37 21h137q12 0 23 -9.5t14 -21.5l168 -727l363 735q13 23 39 23h149z" />
    <glyph glyph-name="Ygrave" unicode="&#x1ef2;" horiz-adv-x="1208" 
d="M602 1573l-88 258q-4 17 0.5 23t22.5 6h129q25 0 32 -31l88 -258q4 -17 -0.5 -23t-21.5 -6h-129q-26 0 -33 31zM1212 1434q19 0 25.5 -13t-4.5 -28l-524 -715l-93 -647q-3 -31 -34 -31h-160q-13 0 -21 10.5t-6 24.5l90 649l-317 713q-7 15 -2 26t22 11h164q26 0 37 -29
l234 -514l378 522q15 21 39 21h172z" />
    <glyph glyph-name="ygrave" unicode="&#x1ef3;" horiz-adv-x="1085" 
d="M414 1430h129q25 0 32 -31l89 -258q4 -17 -0.5 -23t-22.5 -6h-129q-26 0 -33 31l-88 258q-4 17 0.5 23t22.5 6zM1044 1004q18 0 27 -12t0 -29l-715 -1330q-12 -22 -41 -22h-151q-17 0 -24.5 13t1.5 28l193 344l-248 979q-6 29 23 29h155q11 0 20.5 -9t12.5 -20l174 -725
l377 731q13 23 39 23h157z" />
    <glyph glyph-name="endash" unicode="&#x2013;" horiz-adv-x="1249" 
d="M1116 664q14 0 22.5 -9t8.5 -22v-119q0 -14 -8.5 -22.5t-22.5 -8.5h-983q-13 0 -22 8.5t-9 22.5v119q0 13 9 22t22 9h983z" />
    <glyph glyph-name="emdash" unicode="&#x2014;" horiz-adv-x="1372" 
d="M1239 664q13 0 22 -9t9 -22v-119q0 -14 -9 -22.5t-22 -8.5h-1106q-13 0 -22 8.5t-9 22.5v119q0 13 9 22t22 9h1106z" />
    <glyph glyph-name="quoteleft" unicode="&#x2018;" horiz-adv-x="374" 
d="M217 1028q-54 0 -90.5 40t-36.5 106q0 142 113 280q8 8 18 8h25q19 0 12 -20q-41 -80 -41 -164q53 0 89 -36t36 -89t-36 -89t-89 -36z" />
    <glyph glyph-name="quoteright" unicode="&#x2019;" horiz-adv-x="372" 
d="M158 1434q54 0 90.5 -40t36.5 -106q0 -142 -113 -280q-9 -9 -18 -9h-25q-19 0 -12 21q41 80 41 164q-52 0 -88.5 36t-36.5 89t36.5 89t88.5 36z" />
    <glyph glyph-name="quotesinglbase" unicode="&#x201a;" horiz-adv-x="374" 
d="M158 223q54 0 90.5 -39.5t36.5 -105.5q0 -143 -113 -281q-8 -8 -18 -8h-25q-19 0 -12 21q41 80 41 163q-52 0 -88.5 36.5t-36.5 88.5t36.5 88.5t88.5 36.5z" />
    <glyph glyph-name="quotedblleft" unicode="&#x201c;" horiz-adv-x="692" 
d="M217 1022q-54 0 -90.5 39.5t-36.5 105.5q0 143 113 281q8 8 18 8h25q19 0 12 -20q-41 -80 -41 -164q53 0 89 -36t36 -89t-36 -89t-89 -36zM535 1022q-54 0 -90.5 39.5t-36.5 105.5q0 144 112 281q8 8 19 8h24q19 0 12 -20q-40 -78 -40 -164q52 0 88 -36t36 -89t-36 -89
t-88 -36z" />
    <glyph glyph-name="quotedblright" unicode="&#x201d;" horiz-adv-x="690" 
d="M158 1434q54 0 90.5 -40t36.5 -106q0 -142 -113 -280q-9 -9 -18 -9h-25q-19 0 -12 21q41 80 41 164q-52 0 -88.5 36t-36.5 89t36.5 89t88.5 36zM475 1434q54 0 90.5 -40t36.5 -106q0 -142 -113 -280q-9 -9 -18 -9h-25q-19 0 -12 21q41 80 41 164q-53 0 -89 36t-36 89
t36 89t89 36z" />
    <glyph glyph-name="quotedblbase" unicode="&#x201e;" horiz-adv-x="686" 
d="M158 223q54 0 90.5 -39.5t36.5 -105.5q0 -143 -113 -281q-8 -8 -18 -8h-25q-19 0 -12 21q41 80 41 163q-52 0 -88.5 36.5t-36.5 88.5t36.5 88.5t88.5 36.5zM469 223q54 0 90.5 -39.5t36.5 -105.5q0 -143 -113 -281q-8 -8 -18 -8h-25q-19 0 -12 21q41 80 41 163
q-53 0 -89 36.5t-36 88.5t36 88.5t89 36.5z" />
    <glyph glyph-name="dagger" unicode="&#x2020;" horiz-adv-x="835" 
d="M799 1184q13 0 20 -8.5t4 -22.5l-14 -106q-1 -13 -11 -22t-24 -9h-221l-31 -221q-1 -13 -11 -22t-24 -9h-106q-13 0 -21 8.5t-6 22.5l31 221h-219q-14 0 -22 9t-5 22l15 106q2 14 11.5 22.5t22.5 8.5h222l30 219q1 13 11 22t24 9h107q13 0 20.5 -8.5t5.5 -22.5l-30 -219
h221z" />
    <glyph glyph-name="daggerdbl" unicode="&#x2021;" horiz-adv-x="837" 
d="M801 1184q13 0 20 -8.5t4 -22.5l-14 -106q-1 -13 -11 -22t-24 -9h-221l-31 -221q-1 -13 -11 -22t-24 -9h-106q-13 0 -21 8.5t-6 22.5l31 221h-219q-14 0 -22 9t-5 22l15 106q2 14 11.5 22.5t22.5 8.5h222l30 219q1 13 11 22t24 9h107q13 0 20.5 -8.5t5.5 -22.5l-30 -219
h221zM690 406q14 0 21 -9t4 -22l-15 -107q-1 -13 -10.5 -21.5t-23.5 -8.5h-222l-30 -222q-1 -13 -11 -21.5t-24 -8.5h-107q-29 0 -26 30l30 222h-219q-14 0 -21.5 8.5t-4.5 21.5l14 107q1 13 11 22t24 9h221l31 219q1 13 11 21.5t24 8.5h106q14 0 21 -8.5t6 -21.5l-31 -219
h221z" />
    <glyph glyph-name="bullet" unicode="&#x2022;" horiz-adv-x="571" 
d="M287 391q-72 0 -123 50.5t-51 121.5q0 72 51 122t123 50q71 0 121.5 -50t50.5 -122q0 -71 -50.5 -121.5t-121.5 -50.5z" />
    <glyph glyph-name="ellipsis" unicode="&#x2026;" horiz-adv-x="1398" 
d="M168 -27q-52 0 -88.5 36.5t-36.5 88.5t36.5 88.5t88.5 36.5t88.5 -36.5t36.5 -88.5t-36.5 -88.5t-88.5 -36.5zM674 -27q-52 0 -88.5 36.5t-36.5 88.5t36.5 88.5t88.5 36.5t88.5 -36.5t36.5 -88.5t-36.5 -88.5t-88.5 -36.5zM1180 -27q-52 0 -88.5 36.5t-36.5 88.5
t36.5 88.5t88.5 36.5t88.5 -36.5t36.5 -88.5t-36.5 -88.5t-88.5 -36.5z" />
    <glyph glyph-name="perthousand" unicode="&#x2030;" horiz-adv-x="2109" 
d="M463 1444q118 0 188.5 -80.5t53.5 -196.5q-17 -117 -110 -197.5t-210 -80.5q-116 0 -186.5 81t-53.5 197q17 117 109.5 197t208.5 80zM1219 1436l112 -82l-1100 -1356l-112 84zM442 1300q-55 0 -98.5 -37.5t-52.5 -95.5q-7 -58 26 -95.5t89 -37.5q57 0 101.5 37.5
t51.5 95.5q9 58 -25 95.5t-92 37.5zM1065 545q116 0 186.5 -81.5t53.5 -197.5q-17 -117 -109.5 -196.5t-208.5 -79.5q-117 0 -188 80t-54 196q17 117 110.5 198t209.5 81zM1724 545q116 0 186.5 -81.5t53.5 -197.5q-17 -117 -109 -196.5t-208 -79.5q-117 0 -188 80t-54 196
q17 117 110 198t209 81zM1047 401q-57 0 -102 -38.5t-54 -96.5q-7 -56 27 -93.5t90 -37.5t100 37.5t51 93.5q9 58 -24 96.5t-88 38.5zM1706 401q-57 0 -102 -38.5t-54 -96.5q-7 -56 27 -93.5t90 -37.5t100.5 37.5t51.5 93.5q9 58 -24.5 96.5t-88.5 38.5z" />
    <glyph glyph-name="guilsinglleft" unicode="&#x2039;" horiz-adv-x="401" 
d="M90 655q4 25 21 37l237 185q15 12 26.5 3.5t8.5 -28.5l-14 -98q-3 -22 -21 -37l-176 -129l133 -139q20 -23 17 -41l-15 -97q-2 -11 -7.5 -15.5t-13 -2t-14.5 9.5l-186 184q-17 20 -14 41z" />
    <glyph glyph-name="guilsinglright" unicode="&#x203a;" horiz-adv-x="399" 
d="M322 639l-19 -127q-4 -25 -20 -39l-240 -184q-15 -10 -26 -3.5t-9 23.5l17 109q4 24 20 35l174 129l-133 137q-17 17 -14 41l14 100q2 11 12 13.5t21 -7.5l186 -188q20 -20 17 -39z" />
    <glyph glyph-name="fraction" unicode="&#x2044;" horiz-adv-x="282" 
d="M762 1434l-1081 -1434h-99l1094 1434h86z" />
    <glyph glyph-name="Euro" unicode="&#x20ac;" horiz-adv-x="1458" 
d="M1444 1243q25 -29 4 -47l-105 -90q-21 -19 -47 4q-143 123 -327 123q-158 0 -296 -87.5t-218 -230.5h215q14 0 22 -8.5t8 -21.5v-107q0 -14 -8 -22t-22 -8h-279q-9 -44 -12 -86h291q13 0 21.5 -8.5t8.5 -22.5v-107q0 -14 -8 -22t-22 -8h-277q37 -136 147.5 -218.5
t260.5 -82.5q196 0 366 126q32 23 54 -2l84 -104q23 -30 -5 -53q-241 -187 -509 -187q-246 0 -419 145.5t-212 375.5h-60q-14 0 -22 8t-8 22v107q0 14 8.5 22.5t21.5 8.5h52q4 56 10 86h-62q-14 0 -22 8t-8 22v107q0 13 8 21.5t22 8.5h109q95 234 307.5 384.5t462.5 150.5
q284 0 465 -207z" />
    <glyph glyph-name="uni20B4" unicode="&#x20b4;" horiz-adv-x="1280" 
d="M1153 748h-244q-54 -34 -180 -86h424q15 0 24 -9t7 -22v-107q1 -13 -7.5 -21.5t-23.5 -8.5h-766q-51 -51 -59 -115q-11 -86 52 -141.5t173 -55.5q97 0 172 37.5t182 120.5q21 16 43 -10l80 -99q11 -11 13.5 -23t-7.5 -26q-92 -90 -221 -149.5t-270 -59.5q-96 0 -181 31
t-145.5 85.5t-89.5 134.5t-16 173q6 54 24 97h-16q-14 0 -22.5 8.5t-8.5 21.5v107q0 13 9 22t22 9h135q45 40 131 86h-266q-14 0 -22.5 8.5t-8.5 21.5v107q0 13 8.5 21.5t22.5 8.5h667q114 63 127 160q10 77 -40.5 122.5t-145.5 45.5q-56 0 -108.5 -18.5t-88.5 -41
t-114 -77.5q-20 -11 -45 18l-72 97q-20 32 -2 47q205 182 444 182q184 0 296.5 -110t88.5 -285q-10 -69 -45 -140h70q15 0 23.5 -8.5t7.5 -21.5v-107q1 -13 -7.5 -21.5t-23.5 -8.5z" />
    <glyph glyph-name="trademark" unicode="&#x2122;" horiz-adv-x="1003" 
d="M494 1434q8 0 8 -11l-6 -51q-3 -10 -13 -10h-125l-41 -287q0 -10 -12 -10h-61q-8 0 -8 10l40 287h-124q-12 0 -9 10l7 51q0 11 12 11h332zM1022 1434q8 0 8 -11l-49 -348q0 -10 -12 -10h-60q-8 0 -8 10l31 217l-144 -219q-8 -8 -14 -8h-45q-10 0 -10 8l-84 219l-31 -217
q0 -10 -12 -10h-60q-8 0 -8 10l49 348q0 11 13 11h69q7 0 11 -7l100 -262l174 262q4 7 14 7h68z" />
    <glyph glyph-name="oneeighth" unicode="&#x215b;" horiz-adv-x="1099" 
d="M319 1436l-73 -535h-76l63 461h-55l10 74h131zM1182 1434l-1082 -1434h-98l1094 1434h86zM928 539q74 0 111.5 -41.5t29.5 -96.5q-10 -70 -76 -108q83 -46 68 -135q-9 -69 -71 -115.5t-140 -46.5q-75 0 -124 46.5t-40 115.5q16 92 109 135q-57 41 -47 108q8 54 58.5 96
t121.5 42zM918 475q-40 0 -65 -22t-30 -52q-4 -31 19 -55t55 -24q36 0 62.5 23.5t31.5 55.5q5 31 -12 52.5t-61 21.5zM887 258q-44 0 -81 -28.5t-44 -71.5q-4 -42 25 -70.5t73 -28.5q49 0 83 27.5t40 71.5q7 44 -19.5 72t-76.5 28z" />
    <glyph glyph-name="threeeighths" unicode="&#x215c;" horiz-adv-x="1193" 
d="M412 1440q66 0 108.5 -42t34.5 -98q-10 -65 -76 -108q35 -16 54 -50.5t12 -84.5q-9 -69 -71.5 -116.5t-139.5 -47.5q-83 0 -129 55.5t-31 130.5h78q-11 -48 15.5 -84.5t76.5 -36.5q45 0 81 28t42 71q9 56 -27.5 78.5t-109.5 17.5l8 61q131 3 141 86q4 32 -18.5 54
t-59.5 22q-44 0 -74 -30t-36 -84h-76q7 77 64 127.5t133 50.5zM1243 1434l-1081 -1434h-99l1094 1434h86zM985 539q74 0 111.5 -41.5t29.5 -96.5q-10 -71 -75 -108q82 -45 67 -135q-9 -69 -71 -115.5t-140 -46.5q-75 0 -124 46.5t-40 115.5q16 92 109 135q-57 41 -47 108
q8 54 58.5 96t121.5 42zM975 475q-40 0 -64.5 -21.5t-29.5 -52.5q-4 -31 18.5 -55t54.5 -24q36 0 63 23.5t32 55.5q5 31 -12.5 52.5t-61.5 21.5zM944 258q-44 0 -81 -28.5t-44 -71.5q-4 -42 25.5 -70.5t73.5 -28.5q49 0 82.5 27.5t39.5 71.5q7 44 -19.5 72t-76.5 28z" />
    <glyph glyph-name="fiveeighths" unicode="&#x215d;" horiz-adv-x="1202" 
d="M557 1436l-10 -66h-213l-33 -119q51 21 94 21q72 0 122 -55t38 -134q-10 -79 -75.5 -134.5t-145.5 -55.5q-67 0 -113.5 38.5t-52.5 88.5l74 39q-3 -41 25 -71t77 -30q47 0 86.5 35.5t46.5 89.5q7 51 -21 87t-69 36q-71 0 -125 -59l-63 16l75 273h283zM1243 1434
l-1081 -1434h-99l1094 1434h86zM989 539q74 0 111.5 -41.5t29.5 -96.5q-10 -71 -75 -108q82 -45 67 -135q-9 -69 -71 -115.5t-140 -46.5q-75 0 -123.5 46.5t-39.5 115.5q16 93 108 135q-57 41 -47 108q8 54 58.5 96t121.5 42zM979 475q-40 0 -64.5 -21.5t-29.5 -52.5
q-4 -31 18.5 -55t54.5 -24q36 0 63 23.5t32 55.5q5 31 -12.5 52.5t-61.5 21.5zM948 258q-44 0 -81 -28.5t-44 -71.5q-4 -42 25.5 -70.5t73.5 -28.5q49 0 82.5 27.5t39.5 71.5q7 44 -19.5 72t-76.5 28z" />
    <glyph glyph-name="seveneighths" unicode="&#x215e;" horiz-adv-x="1208" 
d="M580 1436l-283 -535h-80l248 469h-248l8 66h355zM1198 1434l-1081 -1434h-99l1094 1434h86zM944 539q74 0 111.5 -41.5t29.5 -96.5q-10 -71 -75 -108q82 -45 67 -135q-9 -69 -71 -115.5t-140 -46.5q-75 0 -124 46.5t-40 115.5q16 92 109 135q-57 41 -47 108q8 54 58.5 96
t121.5 42zM934 475q-40 0 -64.5 -21.5t-29.5 -52.5q-4 -31 18.5 -55t54.5 -24q36 0 63 23.5t32 55.5q5 31 -12.5 52.5t-61.5 21.5zM903 258q-44 0 -81 -28.5t-44 -71.5q-4 -42 25.5 -70.5t73.5 -28.5q49 0 82.5 27.5t39.5 71.5q7 44 -19.5 72t-76.5 28z" />
    <glyph glyph-name="partialdiff" unicode="&#x2202;" horiz-adv-x="1046" 
d="M850 782q104 -171 82 -340q-28 -194 -183.5 -331.5t-349.5 -137.5q-129 0 -228 63t-146 171t-29 235q19 128 96 234t192.5 166.5t243.5 60.5h19l-268 440q-14 23 12 43l115 76q28 18 40 -6zM725 442q15 117 -49 194t-174 77q-111 0 -196.5 -77.5t-100.5 -193.5
q-17 -116 46.5 -193t174.5 -77t196.5 77t102.5 193z" />
    <glyph glyph-name="product" unicode="&#x220f;" horiz-adv-x="1439" 
d="M244 1614q3 24 28 24h1143q13 0 23 -11t8 -25l-277 -1967q-3 -24 -28 -24h-146q-13 0 -22.5 11.5t-7.5 25.5l249 1790h-788l-252 -1803q-3 -24 -29 -24h-147q-13 0 -23 11.5t-8 25.5z" />
    <glyph glyph-name="summation" unicode="&#x2211;" horiz-adv-x="1378" 
d="M1350 1638q13 0 22.5 -11t7.5 -25l-18 -140q-5 -24 -31 -24h-891l434 -797q15 -26 3 -43l-662 -786h879q13 0 22.5 -11.5t7.5 -25.5l-20 -140q-3 -24 -29 -24h-1112q-13 0 -23 11.5t-8 25.5l21 149q3 24 12 37l668 791l-434 800q-14 20 -11 39l21 150q3 24 29 24h1112z
" />
    <glyph glyph-name="minus" unicode="&#x2212;" horiz-adv-x="925" 
d="M756 668q13 0 22.5 -11.5t7.5 -25.5l-16 -107q-3 -24 -29 -24h-651q-13 0 -22 11.5t-7 25.5l15 106q3 25 28 25h652z" />
    <glyph glyph-name="radical" unicode="&#x221a;" horiz-adv-x="1452" 
d="M1425 1638q16 0 25.5 -12t3.5 -29l-770 -1966q-4 -12 -10.5 -16t-20.5 -4h-190q-12 0 -23 9.5t-12 21.5l-141 878h-197q-13 0 -23 11.5t-8 25.5l21 139q3 25 29 25h311q14 0 24.5 -10t10.5 -23l120 -854l695 1784q4 12 10 16t20 4h125z" />
    <glyph glyph-name="infinity" unicode="&#x221e;" horiz-adv-x="1632" 
d="M1227 872q148 0 235.5 -95t67.5 -240q-21 -149 -136.5 -245.5t-263.5 -96.5q-205 0 -356 221q-218 -221 -420 -221q-148 0 -236 96.5t-67 245.5q20 144 136 239.5t264 95.5q204 0 356 -219q219 219 420 219zM383 336q149 0 317 199q-110 196 -262 196q-90 0 -154.5 -56
t-76.5 -140q-11 -85 38 -142t138 -57zM1372 535q12 84 -36 140t-138 56q-152 0 -317 -196q112 -199 262 -199q89 0 153.5 57t75.5 142z" />
    <glyph glyph-name="integral" unicode="&#x222b;" horiz-adv-x="784" 
d="M915 1599q28 -9 25 -36l-18 -133q-6 -34 -31 -9q-62 27 -109 27q-76 0 -109.5 -36t-43.5 -105l-197 -1397q-43 -299 -348 -299q-102 0 -150 39q-27 9 -24 37l18 133q5 34 31 8q62 -27 111 -27q76 0 109.5 36.5t43.5 105.5l195 1396q43 299 350 299q99 0 147 -39z" />
    <glyph glyph-name="approxequal" unicode="&#x2248;" horiz-adv-x="958" 
d="M350 872q48 1 87.5 -14.5t67 -38t52 -45t53.5 -38.5t60 -17q43 1 73.5 25t42.5 55q11 8 25 6h51q11 2 18.5 -8t6.5 -27q-21 -92 -84 -140t-144 -48q-49 0 -89.5 16t-68 38t-52 44.5t-53.5 38.5t-60 16q-42 0 -73.5 -23.5t-45.5 -54.5q-6 -8 -22 -8h-54q-11 0 -17.5 11.5
t-2.5 27.5q26 93 86.5 139.5t142.5 44.5zM289 545q58 1 106 -23t75 -52.5t63.5 -53t74.5 -25.5q43 1 74 25t43 55q11 8 25 6h51q11 2 18 -8t6 -27q-21 -92 -83.5 -140t-143.5 -48q-49 0 -89.5 16t-68 38.5t-52.5 45t-54 38.5t-60 16q-42 0 -73 -23t-45 -55q-6 -8 -23 -8h-53
q-11 0 -18 11t-3 27q26 93 87 140t143 45z" />
    <glyph glyph-name="notequal" unicode="&#x2260;" horiz-adv-x="929" 
d="M778 815q13 0 23 -11.5t8 -25.5l-14 -106q-6 -25 -31 -25h-221l-49 -127h243q14 0 23 -12t6 -25l-14 -106q-3 -25 -29 -25h-295l-127 -327q-9 -25 -37 -25h-114q-37 0 -25 35l123 317h-176q-14 0 -23 12t-6 25l14 107q3 24 29 24h227l49 127h-249q-13 0 -22 11.5t-7 25.5
l14 107q3 24 29 24h301l119 309q9 25 37 25h114q37 0 25 -35l-117 -299h172z" />
    <glyph glyph-name="lessequal" unicode="&#x2264;" horiz-adv-x="919" 
d="M836 1219q13 7 23.5 -4t8.5 -25l-16 -113q-3 -20 -18 -28l-553 -265l469 -270q8 -3 13.5 -14t4.5 -21l-16 -110q-3 -27 -27 -13l-604 353q-21 17 -19 36l15 93q0 17 16 28zM688 168q14 0 24 -12t9 -25l-16 -106q-3 -25 -29 -25h-651q-13 0 -23 11.5t-8 25.5l16 106
q3 25 29 25h649z" />
    <glyph glyph-name="greaterequal" unicode="&#x2265;" horiz-adv-x="931" 
d="M184 1212l602 -350q22 -15 19 -37l-12 -92q-3 -20 -19 -31l-700 -350q-14 -7 -25 3t-8 24l14 113q3 20 19 28l555 264l-469 269q-24 16 -21 37l17 110q3 28 28 12zM35 168h651q13 0 23 -11.5t8 -25.5l-15 -106q-6 -25 -30 -25h-649q-14 0 -24 12t-7 25l14 106
q3 14 9.5 19.5t19.5 5.5z" />
    <glyph glyph-name="lozenge" unicode="&#x25ca;" horiz-adv-x="1120" 
d="M752 1434q12 0 21.5 -8.5t12.5 -20.5l205 -674q5 -21 -2 -41l-395 -674q-8 -16 -33 -16h-231q-12 0 -22 8.5t-11 20.5l-207 673q-4 30 2 41l395 674q9 17 33 17h232zM455 131l344 586l-172 586l-346 -586z" />
    <glyph glyph-name="i.loclTRK" horiz-adv-x="411" 
d="M287 1214q-51 0 -82.5 37.5t-24.5 89.5q6 43 41 73t78 30q51 0 83 -37t26 -88q-6 -44 -42 -74.5t-79 -30.5zM135 977q3 27 33 27h151q13 0 22 -11.5t7 -23.5l-131 -938q-2 -13 -11.5 -22t-23.5 -9h-151q-14 0 -22.5 10t-6.5 21z" />
    <glyph glyph-name="f.alt" horiz-adv-x="749" 
d="M774 1468q26 -18 23 -41l-17 -118q-6 -28 -32 -17q-61 25 -109 25q-76 0 -110 -36t-44 -105l-24 -172h209q14 0 23.5 -12t6.5 -25l-16 -117q-3 -25 -29 -25h-219l-110 -800q-6 -25 -31 -25h-154q-13 0 -22.5 11.5t-7.5 25.5l112 788h-114q-13 0 -23 11.5t-8 25.5l16 117
q3 25 29 25h125l28 204q43 299 342 299q92 0 156 -39z" />
    <glyph glyph-name="t.ss01" horiz-adv-x="700" 
d="M639 1004q13 0 23 -11.5t8 -25.5l-17 -117q-3 -25 -28 -25h-168l-80 -563q-11 -82 59 -82q46 0 76 6q19 3 31 -8.5t10 -27.5l-16 -113q-7 -51 -160 -51q-114 0 -175 63.5t-42 194.5l82 581h-133q-13 0 -23 11.5t-8 25.5l16 117q3 25 29 25h143l29 200q3 25 29 25h153
q13 0 23 -11.5t8 -25.5l-27 -188h158z" />
    <glyph glyph-name="zero.tf" horiz-adv-x="1454" 
d="M834 1450q213 0 344 -151t131 -425q0 -138 -28 -269t-84.5 -245.5t-135 -201t-186 -136t-230.5 -49.5q-213 0 -344 151.5t-131 426.5q0 172 46 332.5t128.5 287t210 203t279.5 76.5zM825 1253q-106 0 -193 -62t-141.5 -163.5t-84 -224t-29.5 -248.5q0 -178 70.5 -280.5
t205.5 -102.5q106 0 193.5 61.5t142 162.5t84 223.5t29.5 250.5q0 178 -71 280.5t-206 102.5z" />
    <glyph glyph-name="one.tf" horiz-adv-x="1454" 
d="M977 1434q13 0 23 -11.5t8 -25.5l-193 -1372q-6 -25 -31 -25h-153q-14 0 -23 12t-6 25l170 1218h-168q-14 0 -23 12t-6 25l17 117q3 25 29 25h356z" />
    <glyph glyph-name="two.tf" horiz-adv-x="1454" 
d="M1030 180q13 0 23 -11.5t8 -25.5l-17 -118q-3 -25 -28 -25h-830q-31 0 -28 33l20 147l334 303q25 22 73 64q66 58 98 86.5t83.5 76.5t76 75.5t56.5 68t46.5 71t25 66.5t10.5 72q0 86 -57.5 138t-159.5 52q-153 0 -291 -125q-16 -16 -41 9l-84 90q-24 27 0 51
q85 79 196 125.5t230 46.5q188 0 300 -107.5t112 -273.5q0 -68 -25.5 -136.5t-52.5 -116t-99 -123.5t-107.5 -109t-134.5 -122q-41 -37 -62 -56l-259 -226h584z" />
    <glyph glyph-name="three.tf" horiz-adv-x="1454" 
d="M940 756q88 -40 142.5 -118.5t54.5 -182.5q0 -132 -70 -243t-193 -175t-272 -64q-135 0 -237 49.5t-164 137.5q-18 29 4 45l90 76q17 7 23.5 4.5t23.5 -15.5q37 -32 63 -49.5t79 -34t118 -16.5q135 0 231.5 86t96.5 209q0 89 -73.5 144.5t-207.5 56.5q-18 0 -28.5 9
t-8.5 23l17 107q3 31 30 31q144 1 234 74.5t90 176.5q0 77 -60 122.5t-139 45.5t-134.5 -26t-123.5 -78q-31 -20 -53 2l-76 84q-21 24 2 47q79 77 184 121.5t214 44.5q159 0 269 -96t110 -244q0 -107 -62.5 -199t-173.5 -155z" />
    <glyph glyph-name="four.tf" horiz-adv-x="1454" 
d="M1135 522q14 0 22 -10.5t6 -24.5l-16 -118q-3 -27 -33 -27h-137l-43 -313q-3 -29 -33 -29h-153q-14 0 -21.5 10.5t-5.5 24.5l41 307h-518q-13 0 -23 10.5t-8 24.5l18 131q3 20 17 41l647 866q16 19 41 19h160q13 0 22.5 -11.5t7.5 -25.5l-122 -875h131zM788 522l82 572
l-417 -572h335z" />
    <glyph glyph-name="five.tf" horiz-adv-x="1454" 
d="M1141 1434q14 0 22.5 -9t7.5 -22l-16 -117q-1 -13 -11 -22t-24 -9h-465l-145 -354q32 20 86.5 34.5t114.5 14.5q179 0 297 -118t118 -300q0 -153 -74 -281t-203.5 -202t-285.5 -74q-140 0 -241.5 62.5t-139.5 146.5q-15 27 11 43l104 70q24 16 47 -14q85 -111 227 -111
q138 0 243.5 106.5t105.5 247.5q0 102 -72 170t-170 68q-141 0 -250 -109q-22 -19 -47 -6l-113 47q-27 14 -16 39l272 674q9 25 37 25h580z" />
    <glyph glyph-name="six.tf" horiz-adv-x="1454" 
d="M715 903q181 0 297 -114.5t116 -288.5q0 -106 -44 -204.5t-116 -168.5t-168.5 -112t-197.5 -42q-180 0 -297 118.5t-117 293.5q0 205 177 401l589 672q19 22 41 2l101 -82q24 -21 4 -41l-391 -434h6zM618 172q124 0 214 93t90 222q0 100 -62 163t-162 63
q-123 0 -213 -92.5t-90 -221.5q0 -100 62.5 -163.5t160.5 -63.5z" />
    <glyph glyph-name="seven.tf" horiz-adv-x="1454" 
d="M1208 1434q14 0 23 -12.5t2 -26.5l-707 -1368q-15 -27 -41 -27h-147q-14 0 -22.5 12.5t-2.5 24.5l635 1218h-573q-13 0 -22 9.5t-7 23.5l16 117q3 29 31 29h815z" />
    <glyph glyph-name="eight.tf" horiz-adv-x="1454" 
d="M934 797q91 -40 149 -128.5t58 -203.5q0 -134 -75.5 -248.5t-197.5 -179t-258 -64.5q-114 0 -209.5 46.5t-155 137.5t-59.5 208q0 148 88 267.5t226 176.5q-62 39 -98.5 105t-36.5 143q0 75 33 146t89 126t138 88t174 33q161 0 256.5 -92.5t95.5 -227.5
q0 -100 -57.5 -189t-159.5 -144zM555 1055q0 -71 48 -117.5t124 -46.5q95 0 164.5 68.5t69.5 158.5q0 69 -46 114.5t-127 45.5q-97 0 -165 -66.5t-68 -156.5zM627 172q120 0 209.5 81.5t89.5 211.5q0 94 -64.5 152.5t-159.5 58.5q-123 0 -212 -88.5t-89 -206.5
q0 -96 64.5 -152.5t161.5 -56.5z" />
    <glyph glyph-name="nine.tf" horiz-adv-x="1454" 
d="M799 1450q181 0 298 -118.5t117 -293.5q0 -110 -44.5 -206.5t-131.5 -194.5l-589 -670q-20 -24 -43 -4l-95 80q-23 20 -4 43l387 434h-6q-180 0 -297 115.5t-117 288.5q0 142 74.5 264t195 192t255.5 70zM705 713q124 0 213.5 91.5t89.5 221.5q0 100 -63 163.5t-161 63.5
q-124 0 -213.5 -93t-89.5 -222q0 -100 62 -162.5t162 -62.5z" />
    <glyph glyph-name="zero.dnom" horiz-adv-x="552" 
d="M315 539q95 0 144.5 -71t34.5 -187l-5 -27q-15 -115 -85 -186.5t-166 -71.5q-93 0 -143.5 71.5t-35.5 186.5l4 27q15 114 86.5 186t165.5 72zM305 475q-61 0 -107.5 -52t-58.5 -142l-4 -27q-12 -90 20.5 -142.5t92.5 -52.5q64 0 109 52t57 143l4 27q12 91 -18.5 142.5
t-94.5 51.5z" />
    <glyph glyph-name="one.dnom" horiz-adv-x="253" 
d="M227 535l-73 -535h-76l63 461h-55l10 74h131z" />
    <glyph glyph-name="two.dnom" horiz-adv-x="473" 
d="M272 541q69 0 113.5 -46.5t36.5 -107.5q-4 -29 -14.5 -52.5t-37.5 -54t-47 -49.5t-71 -65l-111 -100h242l-10 -66h-344l10 66l160 141q96 89 115 113q25 32 30 67q6 37 -19 63.5t-63 26.5q-39 0 -71 -26.5t-39 -75.5l-5 -29h-75l4 29q10 72 67.5 119t128.5 47z" />
    <glyph glyph-name="three.dnom" horiz-adv-x="497" 
d="M285 539q66 0 108.5 -42t34.5 -98q-10 -65 -76 -108q35 -16 54 -50.5t12 -84.5q-9 -69 -71.5 -116.5t-139.5 -47.5q-83 0 -129 55.5t-31 130.5h78q-11 -48 15.5 -84.5t76.5 -36.5q45 0 81 28t42 71q9 56 -27.5 78.5t-109.5 17.5l8 61q131 3 141 86q4 32 -18.5 54
t-59.5 22q-44 0 -74 -30.5t-36 -84.5h-76q7 77 64 128t133 51z" />
    <glyph glyph-name="four.dnom" horiz-adv-x="524" 
d="M444 535l-43 -316h56l-11 -63h-55l-20 -156h-76l20 156h-270l324 379h75zM354 424l-172 -205h144z" />
    <glyph glyph-name="five.dnom" horiz-adv-x="501" 
d="M430 535l-10 -66h-213l-33 -119q51 21 94 21q72 0 122 -55t38 -134q-10 -79 -75.5 -134.5t-145.5 -55.5q-67 0 -113.5 38.5t-52.5 88.5l74 39q-3 -41 25 -71t77 -30q47 0 86.5 35.5t46.5 89.5q7 51 -21 87t-69 36q-71 0 -125 -59l-63 16l75 273h283z" />
    <glyph glyph-name="six.dnom" horiz-adv-x="477" 
d="M406 535l-168 -197h12q69 0 115 -51.5t36 -120.5q-9 -71 -70 -122.5t-130 -51.5q-70 0 -116.5 51.5t-37.5 122.5q5 32 21 64t27.5 47t44 51t40.5 45l139 162h87zM242 272q-45 0 -78.5 -28.5t-40.5 -77.5q-6 -47 21.5 -78t66.5 -31q38 0 73.5 31t41.5 78q7 47 -19.5 76.5
t-64.5 29.5z" />
    <glyph glyph-name="seven.dnom" horiz-adv-x="477" 
d="M453 535l-283 -535h-80l248 469h-248l8 66h355z" />
    <glyph glyph-name="eight.dnom" horiz-adv-x="497" 
d="M287 539q74 0 111.5 -41.5t29.5 -96.5q-10 -70 -76 -108q83 -46 68 -135q-9 -69 -71 -115.5t-140 -46.5q-75 0 -124 46.5t-40 115.5q16 92 109 135q-58 42 -48 108q8 54 58.5 96t122.5 42zM276 475q-40 0 -64.5 -21.5t-29.5 -52.5q-4 -31 19 -55t55 -24q36 0 62.5 23.5
t31.5 55.5q5 31 -12.5 52.5t-61.5 21.5zM246 258q-44 0 -81 -28.5t-44 -71.5q-4 -42 25 -70.5t73 -28.5q49 0 83 27.5t40 71.5q7 44 -19.5 72t-76.5 28z" />
    <glyph glyph-name="nine.dnom" horiz-adv-x="479" 
d="M279 541q70 0 116 -50.5t37 -121.5q-4 -26 -12.5 -49t-25 -46.5t-27 -36.5t-36 -40t-34.5 -37l-137 -160h-88l168 195h-11q-71 0 -117 52.5t-36 121.5q9 71 70.5 121.5t132.5 50.5zM268 475q-39 0 -74.5 -30.5t-41.5 -75.5q-7 -47 20 -78t66 -31q44 0 76.5 30t39.5 79
q6 45 -21.5 75.5t-64.5 30.5z" />
    <glyph glyph-name="zero.numr" horiz-adv-x="552" 
d="M442 1440q95 0 144.5 -71t34.5 -187l-5 -27q-15 -115 -85 -186.5t-166 -71.5q-93 0 -143.5 71.5t-35.5 186.5l4 27q15 114 86.5 186t165.5 72zM432 1376q-61 0 -107.5 -52t-58.5 -142l-4 -27q-12 -90 20.5 -142t92.5 -52q64 0 109 51.5t57 142.5l4 27q12 91 -18.5 142.5
t-94.5 51.5z" />
    <glyph glyph-name="one.numr" horiz-adv-x="253" 
d="M354 1436l-73 -535h-76l63 461h-55l10 74h131z" />
    <glyph glyph-name="two.numr" horiz-adv-x="473" 
d="M399 1442q69 0 113.5 -46.5t36.5 -107.5q-4 -29 -14.5 -52.5t-37.5 -54t-47 -49.5t-71 -65l-111 -100h242l-10 -66h-344l10 66l160 141q96 89 115 113q25 32 30 67q6 37 -19 63.5t-63 26.5q-39 0 -71 -26.5t-39 -75.5l-5 -29h-75l4 29q10 72 67.5 119t128.5 47z" />
    <glyph glyph-name="three.numr" horiz-adv-x="497" 
d="M412 1440q66 0 108.5 -42t34.5 -98q-10 -65 -76 -108q35 -16 54 -50.5t12 -84.5q-9 -69 -71.5 -116.5t-139.5 -47.5q-83 0 -129 55.5t-31 130.5h78q-11 -48 15.5 -84.5t76.5 -36.5q45 0 81 28t42 71q9 56 -27.5 78.5t-109.5 17.5l8 61q131 3 141 86q4 32 -18.5 54
t-59.5 22q-44 0 -74 -30t-36 -84h-76q7 77 64 127.5t133 50.5z" />
    <glyph glyph-name="four.numr" horiz-adv-x="524" 
d="M571 1436l-43 -316h56l-11 -63h-55l-20 -156h-76l20 156h-270l324 379h75zM481 1325l-172 -205h144z" />
    <glyph glyph-name="five.numr" horiz-adv-x="501" 
d="M557 1436l-10 -66h-213l-33 -119q51 21 94 21q72 0 122 -55t38 -134q-10 -79 -75.5 -134.5t-145.5 -55.5q-67 0 -113.5 38.5t-52.5 88.5l74 39q-3 -41 25 -71t77 -30q47 0 86.5 35.5t46.5 89.5q7 51 -21 87t-69 36q-71 0 -125 -59l-63 16l75 273h283z" />
    <glyph glyph-name="six.numr" horiz-adv-x="477" 
d="M532 1436l-167 -197h12q69 0 115 -51.5t36 -120.5q-9 -71 -70 -122.5t-130 -51.5q-70 0 -116.5 51.5t-37.5 122.5q5 32 21 64t27.5 47t44 51t40.5 45l139 162h86zM369 1174q-45 0 -78.5 -29t-40.5 -78q-6 -47 21.5 -78t66.5 -31q38 0 73.5 31t41.5 78q7 47 -19.5 77
t-64.5 30z" />
    <glyph glyph-name="seven.numr" horiz-adv-x="477" 
d="M580 1436l-283 -535h-80l248 469h-248l8 66h355z" />
    <glyph glyph-name="eight.numr" horiz-adv-x="497" 
d="M414 1440q74 0 111.5 -41t29.5 -96q-10 -71 -76 -109q83 -46 68 -135q-9 -69 -71 -115.5t-140 -46.5q-75 0 -124 46.5t-40 115.5q16 92 109 135q-58 42 -48 109q8 54 58.5 95.5t122.5 41.5zM403 1376q-40 0 -64.5 -21.5t-29.5 -51.5q-4 -31 19 -55.5t55 -24.5
q36 0 62.5 24t31.5 56q5 31 -12.5 52t-61.5 21zM373 1159q-44 0 -81 -28.5t-44 -71.5q-4 -42 25 -70t73 -28q50 0 83.5 27t39.5 71q7 44 -19.5 72t-76.5 28z" />
    <glyph glyph-name="nine.numr" horiz-adv-x="479" 
d="M406 1442q70 0 116 -50.5t37 -121.5q-4 -26 -12.5 -49t-25 -46.5t-27 -36.5t-36 -40t-34.5 -37l-137 -160h-88l168 195h-11q-71 0 -117 52.5t-36 121.5q9 71 70.5 121.5t132.5 50.5zM395 1376q-39 0 -74.5 -30.5t-41.5 -75.5q-7 -47 20 -78t66 -31q44 0 76.5 30t39.5 79
q6 45 -21.5 75.5t-64.5 30.5z" />
    </font>
</defs>
</svg>
