<?xml version="1.0" standalone="no"?>
<!DOCTYPE svg PUBLIC "-//W3C//DTD SVG 1.1//EN" "http://www.w3.org/Graphics/SVG/1.1/DTD/svg11.dtd" >
<svg xmlns="http://www.w3.org/2000/svg" xmlns:xlink="http://www.w3.org/1999/xlink" version="1.1">
<metadata>
Created by FontForge 20170731 at Tue Dec 28 09:00:25 2021
 By Aleksey,,,
(c) 2016 Connary Fagen
</metadata>
<defs>
<font id="GreycliffCF-Heavy" horiz-adv-x="1216" >
  <font-face 
    font-family="Greycliff CF Heavy"
    font-weight="900"
    font-stretch="normal"
    units-per-em="2048"
    panose-1="0 0 10 0 0 0 0 0 0 0"
    ascent="1638"
    descent="-410"
    x-height="1004"
    cap-height="1434"
    bbox="-369 -645 2304 1968"
    underline-thickness="102"
    underline-position="-307"
    unicode-range="U+0020-FB02"
  />
<missing-glyph horiz-adv-x="1013" 
d="M831 1638v-2027h-643v2027h643zM676 1503h-336v-67h133v-76h-135v-66h338v66h-135v76h135v67zM541 1241h-203v-211h338v70h-135v141zM473 1171v-71h-67v71h67zM676 975h-338v-66h135v-75h-135v-68h203v143h135v66zM676 854h-68v-133h-270v-70h338v203zM676 606h-203v-112
h68v45h67v-95h-202v162h-68v-229h338v229zM676 256h-338v-229h338v229zM608 188v-94h-202v94h202zM676 -20h-338v-66h143l-143 -96v-68h338v68h-207l141 96h66v66z" />
    <glyph glyph-name="fi" unicode="fi" horiz-adv-x="1343" 
d="M1083 1167q-73 0 -125.5 52.5t-52.5 126.5t52.5 126t125.5 52q74 0 126.5 -52.5t52.5 -125.5q0 -74 -53 -126.5t-126 -52.5zM770 1473q21 -12 21 -37v-244q0 -18 -11 -24t-26 3q-54 33 -121 33q-34 0 -55 -8t-29.5 -26t-11 -34.5t-2.5 -45.5v-86h213q13 0 21.5 -8.5
t8.5 -22.5v-211q0 -14 -8.5 -22.5t-21.5 -8.5h-213v-700q0 -13 -8.5 -22t-22.5 -9h-277q-13 0 -21.5 8.5t-8.5 22.5v700h-119q-14 0 -22.5 8.5t-8.5 22.5v211q0 13 8.5 22t22.5 9h119v133q0 185 105 277.5t282 92.5q127 0 186 -34zM1223 1004q13 0 21.5 -8.5t8.5 -22.5v-942
q0 -14 -8.5 -22.5t-21.5 -8.5h-277q-14 0 -22.5 9t-8.5 22v942q0 13 8.5 22t22.5 9h277z" />
    <glyph glyph-name="fl" unicode="fl" horiz-adv-x="1353" 
d="M770 1473q21 -12 21 -37v-244q0 -18 -11 -24t-26 3q-54 33 -121 33q-34 0 -55 -8t-29.5 -26t-11 -34.5t-2.5 -45.5v-86h213q13 0 21.5 -8.5t8.5 -22.5v-211q0 -14 -8.5 -22.5t-21.5 -8.5h-213v-700q0 -13 -8.5 -22t-22.5 -9h-277q-13 0 -21.5 8.5t-8.5 22.5v700h-119
q-14 0 -22.5 8.5t-8.5 22.5v211q0 13 8.5 22t22.5 9h119v133q0 185 105 277.5t282 92.5q127 0 186 -34zM1237 1495q13 0 22 -8.5t9 -22.5v-1433q0 -13 -9 -22t-22 -9h-276q-13 0 -22 9t-9 22v1433q0 14 9 22.5t22 8.5h276z" />
    <glyph glyph-name=".notdef" horiz-adv-x="1013" 
d="M831 1638v-2027h-643v2027h643zM676 1503h-336v-67h133v-76h-135v-66h338v66h-135v76h135v67zM541 1241h-203v-211h338v70h-135v141zM473 1171v-71h-67v71h67zM676 975h-338v-66h135v-75h-135v-68h203v143h135v66zM676 854h-68v-133h-270v-70h338v203zM676 606h-203v-112
h68v45h67v-95h-202v162h-68v-229h338v229zM676 256h-338v-229h338v229zM608 188v-94h-202v94h202zM676 -20h-338v-66h143l-143 -96v-68h338v68h-207l141 96h66v66z" />
    <glyph glyph-name=".null" horiz-adv-x="0" 
 />
    <glyph glyph-name="nonmarkingreturn" horiz-adv-x="682" 
 />
    <glyph glyph-name="space" unicode=" " horiz-adv-x="532" 
 />
    <glyph glyph-name="exclam" unicode="!" horiz-adv-x="653" 
d="M506 1239l-84 -760q-6 -28 -31 -28h-125q-24 0 -30 28l-86 760q-10 95 41.5 153t136.5 58q83 0 135.5 -58t42.5 -153zM328 -27q-73 0 -125.5 52.5t-52.5 126.5t52 126t126 52t126 -52t52 -126t-52.5 -126.5t-125.5 -52.5z" />
    <glyph glyph-name="quotedbl" unicode="&#x22;" horiz-adv-x="788" 
d="M326 1434q14 0 23.5 -9t6.5 -22l-26 -404q-7 -30 -31 -30h-180q-28 0 -31 30l-29 404q-1 13 8 22t23 9h236zM702 1434q14 0 24 -9t7 -22l-26 -404q-7 -30 -31 -30h-180q-28 0 -31 30l-29 404q-1 13 8 22t23 9h235z" />
    <glyph glyph-name="numbersign" unicode="#" horiz-adv-x="1335" 
d="M1194 928h-127v-256h127q13 0 21 -8.5t8 -22.5v-180q0 -14 -8 -22.5t-21 -8.5h-127v-235q0 -13 -8.5 -22t-22.5 -9h-250q-13 0 -21.5 8.5t-8.5 22.5v235h-174v-235q0 -13 -9 -22t-22 -9h-248q-13 0 -22 9t-9 22v235h-129q-13 0 -21.5 8.5t-8.5 22.5v180q0 14 8.5 22.5
t21.5 8.5h129v256h-129q-13 0 -21.5 8t-8.5 22v181q0 13 8.5 21.5t21.5 8.5h129v234q0 13 9 22t22 9h248q13 0 22 -9t9 -22v-234h174v234q0 14 8.5 22.5t21.5 8.5h250q14 0 22.5 -9t8.5 -22v-234h127q29 0 29 -30v-181q0 -30 -29 -30zM756 672v256h-174v-256h174z" />
    <glyph glyph-name="dollar" unicode="$" horiz-adv-x="1138" 
d="M1081 416q0 -90 -31.5 -165t-86 -127t-121.5 -86t-144 -50v-142q0 -14 -8 -22t-22 -8h-195q-14 0 -22.5 8.5t-8.5 21.5v140q-115 25 -214 84.5t-162 130.5q-18 22 0 43l157 178q8 11 20.5 12.5t24.5 -8.5q86 -65 157.5 -94t154.5 -29q65 0 112 30.5t47 86.5
q0 32 -22 57.5t-59.5 45t-86 38t-102 39.5t-107.5 45t-102.5 59.5t-86 79t-59.5 106t-22 138.5q0 162 99.5 269.5t250.5 140.5v149q0 13 9 22t22 9h195q13 0 21.5 -8.5t8.5 -22.5v-151q169 -37 316 -174q19 -19 4 -43l-150 -187q-18 -24 -43 -8q-82 53 -136 74.5t-118 21.5
q-67 0 -102 -29.5t-35 -70.5q0 -32 22 -57t59.5 -43t86 -34.5t102.5 -35.5t107.5 -41.5t102 -57.5t86 -79t59.5 -109.5t22 -146.5z" />
    <glyph glyph-name="percent" unicode="%" horiz-adv-x="1449" 
d="M360 1444q119 0 200 -80t81 -197t-81.5 -197.5t-199.5 -80.5t-198 80.5t-80 197.5t80 197t198 80zM1067 1421l186 -114l-868 -1293l-186 115zM360 1233q-26 0 -44.5 -18.5t-18.5 -47.5q0 -27 19 -46t44 -19q28 0 47 18.5t19 46.5q0 29 -19 47.5t-47 18.5zM1090 545
q118 0 198 -81t80 -198t-80 -196.5t-198 -79.5q-117 0 -199 79.5t-82 196.5t82 198t199 81zM1090 334q-26 0 -46 -20t-20 -48q0 -27 19.5 -45t46.5 -18t45 18t18 45q0 28 -18.5 48t-44.5 20z" />
    <glyph glyph-name="ampersand" unicode="&#x26;" horiz-adv-x="1396" 
d="M1341 178q25 -22 2 -45l-143 -143q-24 -24 -45 -4l-168 157q-200 -161 -426 -161q-92 0 -179.5 28.5t-157.5 81t-113 135t-43 181.5q0 83 35 156t84 121t120 95q-70 72 -108.5 143t-38.5 156q0 152 119 261.5t292 109.5q166 0 289 -110.5t123 -260.5q0 -82 -32 -152
t-77 -116.5t-112 -93.5l203 -187l69 76q19 22 43 2l166 -157q24 -20 4 -43q-7 -8 -67 -78zM461 1071q0 -65 86 -151q65 39 100 75t35 76q0 39 -31.5 69.5t-79.5 30.5q-50 0 -80 -30.5t-30 -69.5zM580 291q97 0 188 59l-238 223q-59 -39 -89.5 -75.5t-30.5 -79.5
q0 -46 44.5 -86.5t125.5 -40.5z" />
    <glyph glyph-name="quotesingle" unicode="'" horiz-adv-x="413" 
d="M326 1434q14 0 23.5 -9t6.5 -22l-26 -404q-7 -30 -31 -30h-180q-28 0 -31 30l-29 404q-1 13 8 22t23 9h236z" />
    <glyph glyph-name="parenleft" unicode="(" horiz-adv-x="761" 
d="M633 1526q18 0 23.5 -10t-3.5 -27q-200 -360 -200 -834q0 -489 202 -884q7 -17 1 -27t-23 -10h-271q-25 0 -36 20q-224 404 -224 901q0 485 224 850q12 21 36 21h271z" />
    <glyph glyph-name="parenright" unicode=")" horiz-adv-x="761" 
d="M129 1526h270q25 0 37 -21q223 -363 223 -850q0 -499 -223 -901q-11 -20 -37 -20h-270q-17 0 -23.5 10t0.5 27q203 397 203 884q0 474 -200 834q-9 17 -3.5 27t23.5 10z" />
    <glyph glyph-name="asterisk" unicode="*" horiz-adv-x="1077" 
d="M924 1118l-195 -53l137 -180l-204 -125l-121 172l-123 -172l-205 125l137 180l-196 53l57 236l217 -64l-6 230h229l-2 -230l219 64z" />
    <glyph glyph-name="plus" unicode="+" horiz-adv-x="997" 
d="M854 707q14 0 22.5 -8.5t8.5 -22.5v-180q0 -14 -8.5 -22.5t-22.5 -8.5h-236v-234q0 -13 -8 -21.5t-22 -8.5h-180q-14 0 -22.5 8.5t-8.5 21.5v234h-234q-13 0 -21.5 8.5t-8.5 22.5v180q0 14 8.5 22.5t21.5 8.5h234v233q0 14 8.5 22.5t22.5 8.5h180q13 0 21.5 -8.5
t8.5 -22.5v-233h236z" />
    <glyph glyph-name="comma" unicode="," horiz-adv-x="501" 
d="M250 330q75 0 127.5 -56t52.5 -143q0 -101 -46 -198t-99 -158q-13 -13 -31 -13h-29q-12 0 -17 9t1 22q41 90 41 180q-73 0 -125.5 52.5t-52.5 126.5t52 126t126 52z" />
    <glyph glyph-name="hyphen" unicode="-" horiz-adv-x="798" 
d="M676 698q14 0 22.5 -8.5t8.5 -21.5v-211q0 -13 -8.5 -22t-22.5 -9h-553q-13 0 -22 9t-9 22v211q0 13 8.5 21.5t22.5 8.5h553z" />
    <glyph glyph-name="period" unicode="." horiz-adv-x="499" 
d="M250 -27q-73 0 -125.5 52.5t-52.5 126.5t52 126t126 52t126 -52t52 -126t-52.5 -126.5t-125.5 -52.5z" />
    <glyph glyph-name="slash" unicode="/" horiz-adv-x="1077" 
d="M1028 1526q37 0 25 -35l-672 -1733q-9 -24 -37 -24h-295q-36 0 -24 35l671 1732q9 25 37 25h295z" />
    <glyph glyph-name="zero" unicode="0" horiz-adv-x="1308" 
d="M655 1450q90 0 175 -28t162 -88t135 -145.5t92 -208.5t34 -269t-34 -269t-92 -208t-135 -145t-162 -88t-175 -28q-89 0 -174 28t-162 88t-135 145t-92.5 208t-34.5 269t34.5 269t92.5 208.5t135 145.5t162 88t174 28zM655 1137q-71 0 -125 -37.5t-85 -100t-46.5 -135.5
t-15.5 -153t15.5 -152.5t46.5 -134t85 -98.5t125 -37t125.5 37t85.5 98.5t46.5 134t15.5 152.5t-15.5 153t-46.5 135.5t-85.5 100t-125.5 37.5z" />
    <glyph glyph-name="one" unicode="1" horiz-adv-x="720" 
d="M604 1434q14 0 22.5 -9t8.5 -22v-1372q0 -13 -8.5 -22t-22.5 -9h-276q-14 0 -22.5 9t-8.5 22v1132h-209q-14 0 -22.5 8.5t-8.5 22.5v209q0 13 8.5 22t22.5 9h516z" />
    <glyph glyph-name="two" unicode="2" horiz-adv-x="1058" 
d="M961 272q13 0 21.5 -8t8.5 -22v-211q0 -14 -8.5 -22.5t-21.5 -8.5h-863q-13 0 -21.5 8.5t-8.5 22.5v241l182 185q48 48 110 109t95.5 94t74.5 75.5t61 69t40 58t27.5 58.5t7.5 56q0 70 -53 115t-119 45q-111 0 -203 -82q-25 -22 -45 -2l-168 164q-21 21 -2 43
q164 190 426 190q128 0 240 -59t180.5 -165t68.5 -233q0 -47 -10 -90.5t-34.5 -89.5t-48 -81.5t-71 -88.5t-81 -88t-100 -102.5t-107.5 -110.5l-64 -70h486z" />
    <glyph glyph-name="three" unicode="3" horiz-adv-x="1095" 
d="M815 750q209 -116 209 -336q0 -189 -134.5 -315t-367.5 -126q-136 0 -253.5 48t-188.5 131q-19 22 2 43l168 161q19 19 45 0q90 -73 203 -73q93 0 141.5 46.5t48.5 110.5q0 26 -7.5 48.5t-29 49t-70 43.5t-120.5 19q-31 0 -31 31v192q0 29 35 29q70 2 116 17.5t66 42
t26.5 49t6.5 51.5q0 58 -49 93.5t-105 35.5q-110 0 -182 -70q-22 -23 -45 0l-168 160q-21 21 -2 43q69 81 178.5 128.5t235.5 47.5q179 0 305.5 -113t126.5 -290q0 -170 -160 -297z" />
    <glyph glyph-name="four" unicode="4" horiz-adv-x="1191" 
d="M1090 545q13 0 21.5 -8.5t8.5 -22.5v-211q0 -14 -8.5 -22.5t-21.5 -8.5h-119v-241q0 -13 -8.5 -22t-22.5 -9h-276q-14 0 -22.5 9t-8.5 22v241h-524q-13 0 -22 9t-9 22v221q0 23 10 39l533 850q12 21 36 21h283q14 0 22.5 -9t8.5 -22v-858h119zM633 545v366l-217 -366h217
z" />
    <glyph glyph-name="five" unicode="5" horiz-adv-x="1095" 
d="M551 979q138 0 248 -67.5t169.5 -178t59.5 -239.5q0 -237 -146 -378t-380 -141q-150 0 -263 68.5t-163 161.5q-14 23 8 37l201 139q25 19 45 -4q66 -92 170 -92q90 0 145 63.5t55 145.5q0 77 -55 138.5t-145 61.5q-83 0 -142 -55q-19 -19 -41 -14l-217 65q-27 5 -20 35
l178 682q7 27 33 27h633q13 0 21.5 -8.5t8.5 -22.5v-211q0 -14 -8.5 -22.5t-21.5 -8.5h-428l-52 -194q-2 -2 2 -2q3 0 12 3q51 11 93 11z" />
    <glyph glyph-name="six" unicode="6" horiz-adv-x="1067" 
d="M618 891q167 -31 277.5 -156t110.5 -293q0 -127 -65 -235t-175.5 -171t-239.5 -63q-130 0 -240.5 63t-174.5 171t-64 235q0 165 137 351l494 663q18 25 43 6l190 -135q25 -19 7 -43zM528 901l-2 -2h2v2zM526 289q64 0 109 45t45 108q0 67 -44.5 112.5t-109.5 45.5
t-109 -45.5t-44 -112.5q0 -63 44.5 -108t108.5 -45z" />
    <glyph glyph-name="seven" unicode="7" horiz-adv-x="1017" 
d="M950 1434q14 0 21.5 -9t3.5 -22l-486 -1372q-10 -31 -32 -31h-273q-14 0 -23 9t-5 22l403 1132h-471q-14 0 -22.5 8.5t-8.5 22.5v209q0 13 8.5 22t22.5 9h862z" />
    <glyph glyph-name="eight" unicode="8" horiz-adv-x="1159" 
d="M870 819q103 -51 163.5 -147.5t60.5 -222.5q0 -107 -46 -199t-120 -151t-165 -92.5t-183 -33.5t-182.5 33.5t-164 92.5t-119.5 151t-46 199q0 126 60 222.5t163 147.5q-56 49 -91.5 116.5t-35.5 141.5q0 157 115 265t301 108t300.5 -108t114.5 -265q0 -74 -35 -141.5
t-90 -116.5zM461 1059q2 -49 34 -85t85 -36t85.5 36.5t32.5 84.5q2 50 -33.5 86.5t-84.5 36.5t-84 -36.5t-35 -86.5zM580 289q67 0 115 48t48 122q0 76 -50 120t-113 44t-112.5 -43.5t-49.5 -120.5q0 -75 48 -122.5t114 -47.5z" />
    <glyph glyph-name="nine" unicode="9" horiz-adv-x="1081" 
d="M555 1450q130 0 240.5 -63t174.5 -171t64 -235q0 -82 -31 -165.5t-106 -184.5l-494 -664q-18 -25 -43 -6l-190 135q-24 19 -6 43l299 393q-167 31 -277 156t-110 293q0 127 64.5 235t175 171t239.5 63zM555 823q65 0 109.5 45.5t44.5 112.5q0 63 -45 108.5t-109 45.5
t-109 -45.5t-45 -108.5q0 -67 44.5 -112.5t109.5 -45.5zM553 522l2 2h-2v-2z" />
    <glyph glyph-name="colon" unicode=":" horiz-adv-x="499" 
d="M250 727q-74 0 -126 52.5t-52 125.5t52 125.5t126 52.5t126 -52.5t52 -125.5t-52 -125.5t-126 -52.5zM250 -27q-73 0 -125.5 52.5t-52.5 126.5t52 126t126 52t126 -52t52 -126t-52.5 -126.5t-125.5 -52.5z" />
    <glyph glyph-name="semicolon" unicode=";" horiz-adv-x="501" 
d="M252 674q-74 0 -126 52t-52 126t52 126t126 52t126 -52t52 -126t-52 -126t-126 -52zM250 330q75 0 127.5 -56t52.5 -143q0 -101 -46 -198t-99 -158q-13 -13 -31 -13h-29q-12 0 -17 9t1 22q41 90 41 180q-73 0 -125.5 52.5t-52.5 126.5t52 126t126 52z" />
    <glyph glyph-name="less" unicode="&#x3c;" horiz-adv-x="997" 
d="M879 985q15 8 25.5 1.5t10.5 -23.5v-222q0 -26 -22 -32l-481 -199l481 -197q22 -9 22 -34v-222q0 -17 -10.5 -23.5t-25.5 1.5l-754 360q-23 13 -23 35v160q0 22 23 35z" />
    <glyph glyph-name="equal" unicode="=" horiz-adv-x="1038" 
d="M895 885q13 0 22 -8.5t9 -22.5v-180q0 -14 -9 -22.5t-22 -8.5h-752q-13 0 -21.5 8.5t-8.5 22.5v180q0 14 8.5 22.5t21.5 8.5h752zM895 526q14 0 22.5 -8.5t8.5 -21.5v-181q0 -13 -8.5 -21.5t-22.5 -8.5h-752q-13 0 -21.5 8.5t-8.5 21.5v181q0 14 8.5 22t21.5 8h752z" />
    <glyph glyph-name="greater" unicode="&#x3e;" horiz-adv-x="1038" 
d="M160 985l753 -360q23 -13 23 -35v-160q0 -22 -23 -35l-753 -360q-15 -8 -26 -1.5t-11 23.5v222q0 25 22 34l482 197l-482 199q-22 6 -22 32v222q0 17 11 23.5t26 -1.5z" />
    <glyph glyph-name="question" unicode="?" horiz-adv-x="1095" 
d="M547 1450q89 0 174 -28.5t152.5 -79t109 -127t41.5 -164.5q0 -139 -73.5 -230t-268.5 -194l-16 -144q-7 -30 -31 -30h-215q-26 0 -33 30l-20 285q-5 25 26 35q84 25 139.5 50t83 49.5t38 46t10.5 46.5q0 53 -48 84t-100 31q-70 0 -127.5 -30.5t-120.5 -84.5
q-37 -33 -63 0l-139 170q-26 33 -3 62q82 101 205 162t279 61zM526 330q74 0 126.5 -52.5t52.5 -125.5q0 -74 -52.5 -126.5t-126.5 -52.5q-73 0 -125.5 52.5t-52.5 126.5t52 126t126 52z" />
    <glyph glyph-name="at" unicode="@" horiz-adv-x="1603" 
d="M1151 1024l-33 -348q-10 -103 62 -103q94 0 94 187q0 189 -132.5 316.5t-316.5 127.5q-209 0 -351 -139t-142 -358q0 -136 65 -246t174 -170t238 -60t235 64l213 -135q-70 -76 -189 -126t-243 -50q-117 0 -228 31.5t-206.5 94t-168 148.5t-113.5 202t-41 247
q0 170 63.5 312.5t169.5 235t241.5 144t282.5 51.5q143 0 273 -50t227.5 -138.5t155 -219.5t57.5 -284q0 -189 -107 -303.5t-272 -114.5q-117 0 -186 57q-64 -43 -162 -43q-154 0 -254 103t-100 254q0 152 100 255t254 103q114 0 190 -63l21 18h129zM680 711
q0 -58 37.5 -95.5t93.5 -37.5q57 0 93 37t36 96t-36 97t-93 38q-56 0 -93.5 -38.5t-37.5 -96.5z" />
    <glyph glyph-name="A" unicode="A" horiz-adv-x="1404" 
d="M1366 35q6 -15 -1 -25t-24 -10h-301q-26 0 -34 25l-68 208h-471l-66 -208q-8 -25 -34 -25h-301q-17 0 -24 10t-1 25l494 1374q9 25 34 25h262q30 0 39 -25zM561 528h283l-142 443z" />
    <glyph glyph-name="B" unicode="B" horiz-adv-x="1243" 
d="M920 764q111 -31 194.5 -124.5t83.5 -227.5q0 -412 -541 -412h-518q-13 0 -21.5 8.5t-8.5 22.5v1372q0 14 8.5 22.5t21.5 8.5h516q200 0 315 -106t115 -269q0 -107 -48.5 -186t-116.5 -109zM762 1012q0 114 -139 114h-164v-237h164q139 0 139 123zM672 307q81 0 129.5 39
t48.5 113q0 76 -50 109.5t-128 33.5h-213v-295h213z" />
    <glyph glyph-name="C" unicode="C" horiz-adv-x="1388" 
d="M1145 422l178 -193q17 -24 0 -43q-95 -101 -227 -157t-283 -56q-152 0 -290 58t-237.5 156t-158.5 235t-59 289q0 153 59 290.5t158.5 235.5t237.5 155.5t290 57.5q151 0 283.5 -55.5t226.5 -157.5q18 -18 0 -43l-178 -193q-7 -10 -20 -10.5t-23 8.5q-126 109 -293 109
q-162 0 -271.5 -113.5t-109.5 -283.5q0 -167 110 -280.5t271 -113.5q171 0 293 109q11 9 23 8t20 -12z" />
    <glyph glyph-name="D" unicode="D" horiz-adv-x="1398" 
d="M590 1434q178 0 322 -56t237 -154t142.5 -227.5t49.5 -279.5q0 -149 -49.5 -278.5t-142.5 -227.5t-237 -154.5t-322 -56.5h-451q-13 0 -21.5 8.5t-8.5 22.5v1372q0 14 8.5 22.5t21.5 8.5h451zM590 307q196 0 296.5 106t100.5 304q0 199 -100 304t-297 105h-131v-819h131z
" />
    <glyph glyph-name="E" unicode="E" horiz-adv-x="1054" 
d="M922 307q13 0 21.5 -8.5t8.5 -22.5v-245q0 -14 -8.5 -22.5t-21.5 -8.5h-783q-13 0 -21.5 8.5t-8.5 22.5v1372q0 14 8.5 22.5t21.5 8.5h781q13 0 21.5 -8.5t8.5 -22.5v-246q0 -14 -8.5 -22.5t-21.5 -8.5h-461v-245h432q13 0 22 -8.5t9 -22.5v-246q0 -14 -9 -22.5t-22 -8.5
h-432v-266h463z" />
    <glyph glyph-name="F" unicode="F" horiz-adv-x="1034" 
d="M901 1434q13 0 22 -9t9 -22v-246q0 -13 -9 -22t-22 -9h-442v-245h415q14 0 22.5 -8.5t8.5 -22.5v-246q0 -14 -8.5 -22.5t-22.5 -8.5h-415v-542q0 -13 -8.5 -22t-22.5 -9h-289q-13 0 -21.5 8.5t-8.5 22.5v1372q0 14 8.5 22.5t21.5 8.5h762z" />
    <glyph glyph-name="G" unicode="G" horiz-adv-x="1519" 
d="M1432 836q13 0 21.5 -8.5t8.5 -22.5v-156q0 -138 -43.5 -260t-123.5 -215t-202.5 -147t-271.5 -54q-152 0 -291 58.5t-240.5 157.5t-161.5 237.5t-60 290.5q0 151 59 287t158.5 233.5t237.5 155t290 57.5q151 0 283.5 -55.5t226.5 -157.5q18 -18 0 -43l-178 -193
q-7 -10 -20 -10.5t-23 8.5q-126 109 -293 109q-161 0 -271 -112.5t-110 -278.5q0 -171 109 -285.5t280 -114.5q141 0 218.5 67.5t82.5 162.5h-293q-13 0 -21.5 8.5t-8.5 22.5v227q0 14 8.5 22.5t21.5 8.5h607z" />
    <glyph glyph-name="H" unicode="H" horiz-adv-x="1380" 
d="M1243 1434q13 0 22 -9t9 -22v-1372q0 -13 -9 -22t-22 -9h-289q-13 0 -21.5 8.5t-8.5 22.5v516h-465v-516q0 -13 -8.5 -22t-22.5 -9h-289q-13 0 -21.5 8.5t-8.5 22.5v1372q0 14 8.5 22.5t21.5 8.5h289q14 0 22.5 -9t8.5 -22v-549h465v549q0 14 8.5 22.5t21.5 8.5h289z" />
    <glyph glyph-name="I" unicode="I" horiz-adv-x="565" 
d="M109 1403q0 14 8.5 22.5t21.5 8.5h289q14 0 22.5 -9t8.5 -22v-1372q0 -13 -8.5 -22t-22.5 -9h-289q-13 0 -21.5 8.5t-8.5 22.5v1372z" />
    <glyph glyph-name="J" unicode="J" horiz-adv-x="1103" 
d="M219 385q12 21 45 4q1 -1 30 -18t45 -24t50 -16t68 -9q190 0 190 241v840q0 13 8.5 22t22.5 9h289q13 0 21.5 -8.5t8.5 -22.5v-852q0 -148 -38.5 -258.5t-110 -177.5t-167 -100t-214.5 -33q-133 0 -234.5 43.5t-160.5 111.5q-16 18 2 43z" />
    <glyph glyph-name="K" unicode="K" horiz-adv-x="1370" 
d="M1327 37q11 -15 6 -26t-24 -11h-340q-24 0 -37 18l-373 527l-100 -117v-397q0 -13 -8.5 -22t-22.5 -9h-289q-13 0 -21.5 8.5t-8.5 22.5v1372q0 14 8.5 22.5t21.5 8.5h289q14 0 22.5 -9t8.5 -22v-510l422 524q14 17 37 17h356q20 0 24.5 -12t-8.5 -25l-497 -580z" />
    <glyph glyph-name="L" unicode="L" horiz-adv-x="978" 
d="M881 307q13 0 21.5 -8.5t8.5 -22.5v-245q0 -14 -8.5 -22.5t-21.5 -8.5h-742q-13 0 -21.5 8.5t-8.5 22.5v1372q0 14 8.5 22.5t21.5 8.5h289q14 0 22.5 -9t8.5 -22v-1096h422z" />
    <glyph glyph-name="M" unicode="M" horiz-adv-x="1744" 
d="M1608 1434q13 0 21.5 -8.5t8.5 -22.5v-1372q0 -14 -8.5 -22.5t-21.5 -8.5h-289q-13 0 -22 9t-9 22v628l-248 -632q-10 -27 -39 -27h-256q-28 0 -38 27l-248 632v-628q0 -13 -8.5 -22t-22.5 -9h-289q-13 0 -21.5 8.5t-8.5 22.5v1372q0 14 8.5 22.5t21.5 8.5h322
q28 0 37 -21l374 -1007l377 1007q9 21 37 21h322z" />
    <glyph glyph-name="N" unicode="N" horiz-adv-x="1419" 
d="M1282 1434q14 0 22.5 -9t8.5 -22v-1372q0 -13 -8.5 -22t-22.5 -9h-321q-26 0 -37 20l-465 840v-829q0 -13 -8.5 -22t-22.5 -9h-289q-13 0 -21.5 8.5t-8.5 22.5v1372q0 14 8.5 22.5t21.5 8.5h322q25 0 37 -21l465 -842v832q0 14 8.5 22.5t21.5 8.5h289z" />
    <glyph glyph-name="O" unicode="O" horiz-adv-x="1613" 
d="M807 -27q-150 0 -286.5 58t-235.5 156.5t-158 235.5t-59 288q0 202 99.5 372.5t269.5 268.5t370 98t370 -98t269.5 -268.5t99.5 -372.5q0 -151 -59 -288t-158 -235.5t-235.5 -156.5t-286.5 -58zM807 313q163 0 275 115.5t112 282.5q0 169 -112 284t-275 115t-275 -115
t-112 -284q0 -167 112 -282.5t275 -115.5z" />
    <glyph glyph-name="P" unicode="P" horiz-adv-x="1175" 
d="M586 1434q257 0 399.5 -131.5t142.5 -350.5q0 -218 -142.5 -349.5t-399.5 -131.5h-127v-440q0 -13 -8.5 -22t-22.5 -9h-289q-13 0 -21.5 8.5t-8.5 22.5v1372q0 14 8.5 22.5t21.5 8.5h447zM580 778q40 0 75.5 8.5t68 27t52 54t19.5 84.5q0 50 -19 85.5t-52 54t-68.5 26.5
t-75.5 8h-121v-348h121z" />
    <glyph glyph-name="Q" unicode="Q" horiz-adv-x="1613" 
d="M1430 313l104 -104q20 -20 0 -43l-197 -197q-8 -8 -20 -8.5t-21 8.5l-108 109q-177 -105 -381 -105q-150 0 -286.5 58t-235.5 156.5t-158 235.5t-59 288q0 202 99.5 372.5t269.5 268.5t370 98t370 -98t269.5 -268.5t99.5 -372.5q0 -218 -116 -398zM807 313q59 0 127 21
l-141 143q-24 24 -5 43l199 197q26 17 43 0l141 -144q23 71 23 138q0 169 -112 284t-275 115t-275 -115t-112 -284q0 -167 112 -282.5t275 -115.5z" />
    <glyph glyph-name="R" unicode="R" horiz-adv-x="1234" 
d="M1163 37q10 -17 4.5 -27t-24.5 -10h-305q-26 0 -37 20l-287 451h-55v-440q0 -13 -8.5 -22t-22.5 -9h-289q-13 0 -21.5 8.5t-8.5 22.5v1372q0 14 8.5 22.5t21.5 8.5h447q257 0 399.5 -131.5t142.5 -350.5q0 -154 -71.5 -266.5t-206.5 -167.5zM459 1126v-348h121
q40 0 75.5 8.5t68 27t52 54t19.5 84.5q0 50 -19 85.5t-52 54t-68.5 26.5t-75.5 8h-121z" />
    <glyph glyph-name="S" unicode="S" horiz-adv-x="1138" 
d="M434 1020q0 -32 22 -57t59.5 -43t86 -34.5t102.5 -35.5t107.5 -41.5t102 -57.5t86 -79t59.5 -109.5t22 -146.5q0 -87 -30 -161t-80.5 -125t-117 -87t-138.5 -53t-146 -17q-151 0 -287.5 68t-215.5 160q-18 22 0 43l157 178q8 11 20.5 12.5t24.5 -8.5q86 -65 157.5 -94
t154.5 -29q65 0 112 30.5t47 86.5q0 32 -22 57.5t-59.5 45t-86 38t-102 39.5t-107.5 45t-102.5 59.5t-86 79t-59.5 106t-22 138.5q0 99 39.5 180.5t105.5 133t149 80t173 28.5q250 0 455 -188q19 -19 4 -43l-150 -187q-18 -24 -43 -8q-82 53 -136 74.5t-118 21.5
q-67 0 -102 -29.5t-35 -70.5z" />
    <glyph glyph-name="T" unicode="T" horiz-adv-x="1146" 
d="M1051 1434q13 0 21.5 -8.5t8.5 -22.5v-246q0 -14 -8.5 -22.5t-21.5 -8.5h-301v-1095q0 -13 -9 -22t-22 -9h-289q-14 0 -22.5 9t-8.5 22v1095h-301q-13 0 -21.5 8.5t-8.5 22.5v246q0 14 8.5 22.5t21.5 8.5h953z" />
    <glyph glyph-name="U" unicode="U" horiz-adv-x="1314" 
d="M1188 1434q14 0 22.5 -9t8.5 -22v-844q0 -276 -155.5 -431t-406.5 -155q-250 0 -404.5 155t-154.5 431v844q0 13 9 22t22 9h289q14 0 22.5 -9t8.5 -22v-844q0 -240 208 -240q211 0 211 240v844q0 13 9 22t22 9h289z" />
    <glyph glyph-name="V" unicode="V" horiz-adv-x="1441" 
d="M1024 1409q8 25 35 25h301q17 0 23.5 -10t0.5 -25l-495 -1374q-9 -25 -39 -25h-262q-26 0 -35 25l-494 1374q-6 15 1 25t24 10h301q27 0 35 -25l301 -946z" />
    <glyph glyph-name="W" unicode="W" horiz-adv-x="2260" 
d="M2179 1434q35 0 25 -35l-432 -1374q-9 -25 -39 -25h-279q-27 0 -33 25l-291 882l-292 -882q-9 -25 -35 -25h-277q-13 0 -25.5 7t-15.5 18l-426 1374q-6 15 1 25t24 10h301q27 0 35 -25l250 -940l288 940q3 17 19 23q4 2 14 2h277q10 0 18 -4q8 -5 14 -21l287 -940
l256 940q6 25 35 25h301z" />
    <glyph glyph-name="X" unicode="X" horiz-adv-x="1320" 
d="M1260 37q19 -37 -21 -37h-305q-26 0 -37 20l-235 400l-238 -400q-11 -20 -37 -20h-303q-40 0 -21 37l412 696l-391 664q-18 37 20 37h304q24 0 36 -21l218 -364l215 364q12 21 36 21h306q38 0 20 -37l-393 -664z" />
    <glyph glyph-name="Y" unicode="Y" horiz-adv-x="1310" 
d="M1229 1434q38 0 20 -37l-418 -742v-624q0 -14 -8.5 -22.5t-21.5 -8.5h-289q-14 0 -22.5 9t-8.5 22v628l-418 738q-18 37 21 37h303q25 0 37 -21l231 -428l232 428q12 21 37 21h305z" />
    <glyph glyph-name="Z" unicode="Z" horiz-adv-x="1196" 
d="M1087 307q13 0 22 -8.5t9 -22.5v-245q0 -13 -9 -22t-22 -9h-978q-13 0 -22 9t-9 22v256q0 19 12 37l631 802h-592q-13 0 -22 9t-9 22v246q0 13 9 22t22 9h938q13 0 22 -9t9 -22v-256q0 -17 -13 -37l-630 -803h632z" />
    <glyph glyph-name="bracketleft" unicode="[" horiz-adv-x="708" 
d="M575 1526q13 0 22 -9t9 -22v-211q0 -14 -9 -22.5t-22 -8.5h-122v-1247h122q13 0 22 -9t9 -22v-211q0 -13 -8.5 -21.5t-22.5 -8.5h-442q-14 0 -22.5 8.5t-8.5 21.5v1731q0 13 9 22t22 9h442z" />
    <glyph glyph-name="backslash" unicode="\" horiz-adv-x="1077" 
d="M49 1526h295q28 0 37 -25l672 -1732q12 -35 -25 -35h-295q-28 0 -37 24l-671 1733q-12 35 24 35z" />
    <glyph glyph-name="bracketright" unicode="]" horiz-adv-x="708" 
d="M133 1526h442q13 0 22 -9t9 -22v-1731q0 -13 -8.5 -21.5t-22.5 -8.5h-442q-14 0 -22.5 8.5t-8.5 21.5v211q0 13 9 22t22 9h123v1247h-123q-13 0 -22 8.5t-9 22.5v211q0 13 9 22t22 9z" />
    <glyph glyph-name="asciicircum" unicode="^" horiz-adv-x="1165" 
d="M1059 657q8 -15 1 -25.5t-24 -10.5h-221q-27 0 -33 22l-198 481l-197 -481q-9 -22 -35 -22h-221q-17 0 -23.5 10.5t1.5 25.5l360 754q13 23 35 23h160q21 0 34 -23z" />
    <glyph glyph-name="underscore" unicode="_" horiz-adv-x="1228" 
d="M1096 0q13 0 21.5 -8.5t8.5 -22.5v-211q0 -14 -8 -22t-22 -8h-963q-14 0 -22.5 8.5t-8.5 21.5v211q0 13 9 22t22 9h963z" />
    <glyph glyph-name="grave" unicode="`" horiz-adv-x="509" 
d="M86 1491h252q24 0 35 -25l123 -258q15 -34 -25 -34h-252q-24 0 -35 24l-123 258q-7 17 0 26t25 9z" />
    <glyph glyph-name="a" unicode="a" 
d="M1100 1004q13 0 21.5 -8.5t8.5 -22.5v-942q0 -14 -8.5 -22.5t-21.5 -8.5h-250q-28 0 -31 31l-6 63q-116 -123 -274 -123q-205 0 -343.5 154t-138.5 375q0 145 62.5 266t173.5 191.5t246 70.5q156 0 274 -131l6 76q3 31 31 31h250zM582 281q86 0 143 65t57 156
q0 90 -57 153.5t-143 63.5t-142.5 -61.5t-56.5 -155.5t56.5 -157.5t142.5 -63.5z" />
    <glyph glyph-name="b" unicode="b" 
d="M678 1028q205 0 343 -153.5t138 -374.5q0 -145 -62 -266t-173 -192t-246 -71q-159 0 -275 123l-6 -63q-3 -31 -30 -31h-250q-13 0 -22 9t-9 22v1433q0 14 9 22.5t22 8.5h276q13 0 22 -8.5t9 -22.5v-544q111 108 254 108zM635 281q86 0 142.5 63.5t56.5 157.5t-56.5 155.5
t-142.5 61.5t-143.5 -64t-57.5 -153q0 -91 57.5 -156t143.5 -65z" />
    <glyph glyph-name="c" unicode="c" horiz-adv-x="1021" 
d="M582 289q94 0 172 67q26 19 45 0l168 -161q21 -21 2 -43q-72 -83 -175.5 -131t-220.5 -48q-107 0 -202.5 41t-164 111.5t-109 168t-40.5 206.5q0 145 68 266t187 190.5t261 69.5q114 0 216 -47.5t174 -130.5q19 -22 -2 -43l-168 -164q-19 -19 -45 4q-79 68 -166 68
t-143 -61t-56 -152q0 -90 56 -150.5t143 -60.5z" />
    <glyph glyph-name="d" unicode="d" 
d="M1100 1495q13 0 21.5 -8.5t8.5 -22.5v-1433q0 -14 -8.5 -22.5t-21.5 -8.5h-250q-28 0 -31 31l-6 63q-116 -123 -274 -123q-205 0 -343.5 154t-138.5 375q0 145 62.5 266t173.5 191.5t246 70.5q143 0 254 -108v544q0 14 8.5 22.5t21.5 8.5h277zM582 281q86 0 143 65
t57 156q0 90 -57 153.5t-143 63.5t-142.5 -61.5t-56.5 -155.5t56.5 -157.5t142.5 -63.5z" />
    <glyph glyph-name="e" unicode="e" horiz-adv-x="1105" 
d="M1051 514q0 -71 -15.5 -102t-62.5 -31h-580q43 -139 234 -139q95 0 180 51q27 16 45 -4l119 -117q21 -20 -4 -45q-74 -72 -170 -113t-201 -41q-158 0 -281.5 70t-190.5 190t-67 267q0 146 67 266.5t184.5 190t260.5 69.5t254 -69.5t169.5 -185.5t58.5 -257zM573 743
q-69 0 -119.5 -37.5t-66.5 -113.5h363q-14 76 -62 113.5t-115 37.5z" />
    <glyph glyph-name="f" unicode="f" horiz-adv-x="927" 
d="M963 1317q6 -5 5 -15t-7 -16l-136 -133q-14 -14 -30 -4q-90 55 -158 55q-64 0 -83 -28.5t-19 -85.5v-86h202q13 0 22 -9t9 -22v-211q0 -14 -9 -22.5t-22 -8.5h-202v-700q0 -13 -8.5 -22t-22.5 -9h-277q-13 0 -21.5 8.5t-8.5 22.5v700h-119q-14 0 -22.5 8.5t-8.5 22.5v211
q0 13 8.5 22t22.5 9h119v133q0 184 107 277t284 93q70 0 132.5 -18.5t109 -49.5t77.5 -60t56 -62z" />
    <glyph glyph-name="g" unicode="g" 
d="M1100 1004q13 0 21.5 -8.5t8.5 -22.5v-967q0 -94 -34.5 -167.5t-89 -118.5t-127.5 -74.5t-143.5 -40.5t-143.5 -11q-131 0 -253 38t-208 100q-19 16 -6 41l90 159q17 27 41 13q136 -78 307 -78q40 0 80 7.5t82.5 24.5t69 53.5t26.5 86.5v80q-120 -127 -282 -127
q-135 0 -246 70t-173.5 189t-62.5 259t62.5 259t173.5 189t246 70q154 0 276 -125l4 70q3 31 31 31h250zM582 301q85 0 142.5 63.5t57.5 147.5q0 82 -57.5 144.5t-142.5 62.5t-142 -60t-57 -147t57 -149t142 -62z" />
    <glyph glyph-name="h" unicode="h" horiz-adv-x="1183" 
d="M729 1026q155 0 261 -121t106 -317v-557q0 -13 -9 -22t-22 -9h-277q-13 0 -21.5 8.5t-8.5 22.5v485q0 57 -14.5 97.5t-39.5 60.5t-51 28.5t-55 8.5q-44 0 -79 -19.5t-54 -48.5t-29 -56t-10 -48v-508q0 -13 -9 -22t-22 -9h-276q-13 0 -22 9t-9 22v1433q0 14 9 22.5t22 8.5
h276q13 0 22 -8.5t9 -22.5v-614q48 81 125 128.5t178 47.5z" />
    <glyph glyph-name="i" unicode="i" horiz-adv-x="522" 
d="M262 1167q-73 0 -125.5 52.5t-52.5 126.5t52 126t126 52t126 -52t52 -126t-52.5 -126.5t-125.5 -52.5zM94 973q0 13 9 22t22 9h276q13 0 22 -9t9 -22v-942q0 -13 -9 -22t-22 -9h-276q-13 0 -22 9t-9 22v942z" />
    <glyph glyph-name="j" unicode="j" horiz-adv-x="665" 
d="M406 1167q-74 0 -126.5 52.5t-52.5 126.5q0 73 52.5 125.5t126.5 52.5t126 -52t52 -126t-52.5 -126.5t-125.5 -52.5zM270 1004h277q13 0 22 -9t9 -22v-946q0 -206 -123 -316.5t-328 -116.5q-24 0 -27 15l-88 280q-3 9 1.5 16t13.5 7q37 3 70.5 13.5t67.5 30.5t54.5 56.5
t20.5 85.5v875q0 14 8.5 22.5t21.5 8.5z" />
    <glyph glyph-name="k" unicode="k" horiz-adv-x="1183" 
d="M1145 37q11 -15 5.5 -26t-24.5 -11h-295q-23 0 -36 18l-265 351l-104 -113v-225q0 -13 -9 -22t-22 -9h-276q-13 0 -22 9t-9 22v1433q0 14 9 22.5t22 8.5h276q13 0 22 -8.5t9 -22.5v-798l293 321q14 17 37 17h313q20 0 25 -12t-9 -25l-348 -375z" />
    <glyph glyph-name="l" unicode="l" horiz-adv-x="512" 
d="M88 1464q0 14 9 22.5t22 8.5h276q13 0 22 -8.5t9 -22.5v-1433q0 -13 -9 -22t-22 -9h-276q-13 0 -22 9t-9 22v1433z" />
    <glyph glyph-name="m" unicode="m" horiz-adv-x="1853" 
d="M1376 1026q171 0 281 -120t110 -318v-557q0 -14 -8.5 -22.5t-21.5 -8.5h-277q-13 0 -21.5 8.5t-8.5 22.5v485q0 57 -15 97.5t-40.5 60.5t-51.5 28.5t-55 8.5q-76 0 -124 -49t-48 -99v-532q0 -13 -9 -22t-22 -9h-277q-13 0 -21.5 8.5t-8.5 22.5v485q0 57 -14.5 97.5
t-39.5 60.5t-51 28.5t-55 8.5q-44 0 -79 -19.5t-54 -48.5t-29 -56t-10 -48v-508q0 -13 -9 -22t-22 -9h-276q-13 0 -22 9t-9 22v942q0 13 9 22t22 9h268q28 0 31 -31l8 -123q48 81 125 128.5t178 47.5q94 0 173 -47t130 -133q56 83 144.5 131.5t199.5 48.5z" />
    <glyph glyph-name="n" unicode="n" horiz-adv-x="1183" 
d="M729 1026q155 0 261 -121t106 -317v-557q0 -13 -9 -22t-22 -9h-277q-13 0 -21.5 8.5t-8.5 22.5v485q0 57 -14.5 97.5t-39.5 60.5t-51 28.5t-55 8.5q-44 0 -79 -19.5t-54 -48.5t-29 -56t-10 -48v-508q0 -13 -9 -22t-22 -9h-276q-13 0 -22 9t-9 22v942q0 13 9 22t22 9h268
q28 0 31 -31l8 -123q48 81 125 128.5t178 47.5z" />
    <glyph glyph-name="o" unicode="o" horiz-adv-x="1165" 
d="M584 -27q-143 0 -264.5 70t-192 191.5t-70.5 265.5q0 145 70.5 266t191.5 190.5t265 69.5q143 0 263.5 -69.5t191.5 -190.5t71 -266q0 -144 -71 -265.5t-192 -191.5t-263 -70zM584 289q84 0 142 60t58 151q0 93 -58 153t-142 60t-142.5 -60.5t-58.5 -152.5
q0 -91 58.5 -151t142.5 -60z" />
    <glyph glyph-name="p" unicode="p" 
d="M678 1028q205 0 343 -153.5t138 -374.5q0 -145 -62 -266t-173 -192t-246 -71q-139 0 -252 101v-430q0 -14 -9 -22.5t-22 -8.5h-276q-13 0 -22 8.5t-9 22.5v376q-2 4 -2 13v942q0 13 9 22t22 9h250q27 0 30 -31l6 -76q118 131 275 131zM635 281q86 0 142.5 63.5
t56.5 157.5t-56.5 155.5t-142.5 61.5t-143.5 -64t-57.5 -153q0 -91 57.5 -156t143.5 -65z" />
    <glyph glyph-name="q" unicode="q" 
d="M1130 973v-942q0 -9 -2 -13v-376q0 -14 -8.5 -22.5t-21.5 -8.5h-277q-13 0 -21.5 8.5t-8.5 22.5v430q-113 -101 -252 -101q-205 0 -343.5 154t-138.5 375q0 145 62.5 266t173.5 191.5t246 70.5q156 0 274 -131l6 76q3 31 31 31h250q13 0 21.5 -8.5t8.5 -22.5zM582 281
q86 0 143 65t57 156q0 90 -57 153.5t-143 63.5t-142.5 -61.5t-56.5 -155.5t56.5 -157.5t142.5 -63.5z" />
    <glyph glyph-name="r" unicode="r" horiz-adv-x="833" 
d="M825 973q24 -24 13 -49l-76 -197q-10 -35 -51 -25q-49 17 -86 17q-94 0 -146.5 -60t-52.5 -153v-475q0 -13 -9 -22t-22 -9h-276q-13 0 -22 9t-9 22v942q0 13 9 22t22 9h266q28 0 31 -31l8 -123q88 176 260 176q84 0 141 -53z" />
    <glyph glyph-name="s" unicode="s" horiz-adv-x="892" 
d="M399 707q0 -25 25 -42.5t64.5 -29t87.5 -24.5t95.5 -35.5t87 -55t64.5 -90t25 -133.5q0 -75 -36.5 -138t-95.5 -102.5t-130 -61.5t-144 -22q-122 0 -224.5 49t-162.5 119q-14 16 0 43l101 144q15 20 47 2q129 -76 229 -76q18 0 28.5 1t27 5t24.5 15t8 28q0 22 -24.5 39.5
t-64 30.5t-87 27.5t-95 38.5t-87 55.5t-64 85t-24.5 122.5q0 101 53 176.5t133.5 111.5t173.5 36q108 0 202 -39.5t157 -112.5q17 -20 -2 -43l-103 -137q-6 -8 -13.5 -8.5t-14 2t-17.5 8.5q-67 37 -100.5 50.5t-71.5 13.5q-39 0 -55.5 -17t-16.5 -36z" />
    <glyph glyph-name="t" unicode="t" horiz-adv-x="778" 
d="M702 1004q14 0 22.5 -9t8.5 -22v-211q0 -14 -8.5 -22.5t-22.5 -8.5h-143v-700q0 -13 -8.5 -22t-22.5 -9h-276q-14 0 -22.5 9t-8.5 22v700h-143q-14 0 -22.5 8.5t-8.5 22.5v211q0 13 8.5 22t22.5 9h143v276q0 14 8.5 22.5t22.5 8.5h276q14 0 22.5 -8.5t8.5 -22.5v-276h143
z" />
    <glyph glyph-name="u" unicode="u" horiz-adv-x="1173" 
d="M1055 1004q13 0 21.5 -8.5t8.5 -22.5v-942q0 -14 -8.5 -22.5t-21.5 -8.5h-269q-27 0 -30 31l-8 108q-53 -77 -126.5 -121.5t-158.5 -44.5q-169 0 -277 120t-108 319v561q0 13 9 22t22 9h276q13 0 22 -9t9 -22v-490q0 -57 16 -97t42 -59.5t51.5 -27.5t52.5 -8
q83 0 126.5 49t43.5 115v518q0 14 8.5 22.5t21.5 8.5h277z" />
    <glyph glyph-name="v" unicode="v" horiz-adv-x="1177" 
d="M799 979q9 25 37 25h278q37 0 25 -35l-379 -944q-9 -25 -37 -25h-268q-28 0 -37 25l-377 944q-12 35 25 35h278q28 0 37 -25l209 -580z" />
    <glyph glyph-name="w" unicode="w" horiz-adv-x="1859" 
d="M1796 1004q37 0 25 -35l-348 -944q-9 -25 -37 -25h-262q-28 0 -37 25l-207 540l-205 -540q-9 -25 -37 -25h-264q-28 0 -37 25l-346 944q-12 35 25 35h270q28 0 37 -25l194 -582l197 582q7 17 20 20q10 5 17 5h258q6 0 16 -5q14 -3 21 -20l200 -582l191 582q9 25 37 25
h272z" />
    <glyph glyph-name="x" unicode="x" horiz-adv-x="1196" 
d="M1126 37q11 -15 5 -26t-25 -11h-313q-20 0 -37 20l-158 242l-158 -242q-14 -20 -37 -20h-313q-19 0 -25 11t5 26l331 479l-313 451q-12 15 -5 26t26 11h313q22 0 37 -21l139 -215l141 215q15 21 37 21h314q19 0 25 -11t-5 -26l-313 -451z" />
    <glyph glyph-name="y" unicode="y" horiz-adv-x="1183" 
d="M1118 1004q37 0 25 -35l-531 -1334q-9 -24 -37 -24h-270q-39 0 -24 35l147 352l-387 971q-12 35 25 35h278q28 0 37 -25l209 -580l209 580q9 25 37 25h282z" />
    <glyph glyph-name="z" unicode="z" horiz-adv-x="962" 
d="M918 973v-219q0 -24 -15 -39l-448 -443h432q14 0 22.5 -8.5t8.5 -21.5v-211q0 -13 -9 -22t-22 -9h-809q-14 0 -22.5 9t-8.5 22v219q0 25 14 39l449 442h-432q-14 0 -22.5 8.5t-8.5 22.5v211q0 13 8.5 22t22.5 9h809q13 0 22 -9t9 -22z" />
    <glyph glyph-name="braceleft" unicode="{" horiz-adv-x="784" 
d="M651 1526q13 0 22 -9t9 -22v-209q0 -14 -9 -22.5t-22 -8.5h-41q-71 0 -71 -63v-406q0 -15 -13 -34l-82 -101q-16 -23 0 -45l82 -98q13 -20 13 -37v-403q0 -62 71 -62h41q13 0 22 -9.5t9 -23.5v-209q0 -13 -8.5 -21.5t-22.5 -8.5h-235q-40 0 -75.5 9t-72 31.5t-58.5 70.5
t-22 116v500q0 24 -10 39l-67 106q-13 22 -2 41l69 111q10 18 10 39v501q0 68 22 116t59 71t72.5 32t74.5 9h235z" />
    <glyph glyph-name="bar" unicode="|" horiz-adv-x="565" 
d="M109 1608q0 14 8.5 22t21.5 8h289q14 0 22.5 -8.5t8.5 -21.5v-1966q0 -14 -8.5 -22.5t-22.5 -8.5h-289q-13 0 -21.5 8.5t-8.5 22.5v1966z" />
    <glyph glyph-name="braceright" unicode="}" horiz-adv-x="727" 
d="M76 1526h235q39 0 74.5 -9t72.5 -32t59 -71t22 -116v-501q0 -21 10 -39l69 -111q11 -19 -2 -41l-67 -106q-10 -15 -10 -39v-500q0 -68 -22 -116t-58.5 -70.5t-72 -31.5t-75.5 -9h-235q-14 0 -22.5 8.5t-8.5 21.5v209q0 14 9 23.5t22 9.5h41q71 0 71 62v403q0 17 13 37
l82 98q16 22 0 45l-82 101q-13 19 -13 34v406q0 63 -71 63h-41q-14 0 -22.5 8.5t-8.5 22.5v209q0 13 8.5 22t22.5 9z" />
    <glyph glyph-name="asciitilde" unicode="~" horiz-adv-x="1099" 
d="M365 766q64 0 124 -25.5t98 -55.5t85 -55.5t88 -25.5q37 0 67 18t39 42q9 18 25 18h84q19 0 22 -23q6 -128 -70 -195t-196 -67q-63 0 -122 25.5t-96.5 56t-84 56t-86.5 26.5q-38 -1 -68 -19t-41 -42q-3 -20 -24 -17h-82q-11 -2 -18.5 7.5t-6.5 21.5q15 127 84.5 190.5
t178.5 63.5z" />
    <glyph glyph-name="exclamdown" unicode="&#xa1;" horiz-adv-x="555" 
d="M328 1092q73 0 125.5 -52.5t52.5 -126.5q0 -73 -52 -125.5t-126 -52.5t-126 52.5t-52 125.5q0 74 52.5 126.5t125.5 52.5zM506 -174q10 -95 -42.5 -153t-135.5 -58q-85 0 -136.5 58t-41.5 153l86 760q6 28 30 28h125q25 0 31 -28z" />
    <glyph glyph-name="cent" unicode="&#xa2;" horiz-adv-x="1021" 
d="M967 344q21 -22 2 -41q-109 -124 -277 -162v-192q0 -14 -8.5 -22.5t-21.5 -8.5h-156q-14 0 -22.5 9t-8.5 22v186q-182 34 -300 176t-118 332t118 332t300 176v252q0 13 8.5 22t22.5 9h156q13 0 21.5 -8.5t8.5 -22.5v-258q162 -38 271 -160q19 -22 -2 -43l-168 -160
q-19 -19 -45 4q-26 21 -56 37v-360q37 19 62 41q26 16 45 0zM383 643q0 -57 24.5 -103.5t67.5 -74.5v358q-92 -60 -92 -180z" />
    <glyph glyph-name="sterling" unicode="&#xa3;" horiz-adv-x="1210" 
d="M670 1108q-63 0 -101.5 -34.5t-38.5 -98.5q0 -46 16 -80t46 -74h422q14 0 22 -8.5t8 -21.5v-246q0 -14 -8.5 -22.5t-21.5 -8.5h-328q-23 -113 -117 -207h478q13 0 21.5 -8.5t8.5 -22.5v-245q0 -14 -8.5 -22.5t-21.5 -8.5h-904q-13 0 -21.5 8.5t-8.5 22.5v276
q90 40 143.5 84.5t73.5 122.5h-197q-13 0 -22 9t-9 22v246q0 13 8.5 21.5t22.5 8.5h80q-41 87 -41 203q0 124 65 223t169.5 151t226.5 52q75 0 140.5 -16t124 -49.5t100 -65t98.5 -82.5q12 -15 9.5 -29.5t-11.5 -27.5l-127 -170q-13 -16 -27 -15t-37 17q-76 59 -124 77.5
t-109 18.5z" />
    <glyph glyph-name="currency" unicode="&#xa4;" horiz-adv-x="1241" 
d="M1075 975q0 -108 -43 -193l96 -96l-174 -172l-80 80q-118 -78 -258 -78q-135 0 -251 76l-78 -78l-174 172l90 90q-45 92 -45 199q0 111 49 207l-94 94l174 172l84 -84q117 70 245 70q137 0 250 -74l88 88l174 -172l-100 -100q47 -89 47 -201zM616 748q63 0 110.5 24.5
t72 62t36 73.5t11.5 67q0 24 -6.5 51.5t-23.5 60t-42 58t-66 42.5t-92 17t-92.5 -17t-66 -42.5t-41.5 -58t-23 -60t-6 -51.5q0 -25 6 -52.5t23 -59.5t41.5 -57t66 -41.5t92.5 -16.5z" />
    <glyph glyph-name="yen" unicode="&#xa5;" horiz-adv-x="1310" 
d="M1229 1434q38 0 20 -37l-411 -731h151q13 0 22 -9t9 -22v-180q0 -13 -9 -22t-22 -9h-158v-82h158q13 0 22 -9t9 -22v-180q0 -13 -9 -22t-22 -9h-158v-69q0 -14 -8.5 -22.5t-21.5 -8.5h-289q-14 0 -22.5 9t-8.5 22v69h-159q-14 0 -22.5 9t-8.5 22v180q0 13 8.5 22t22.5 9
h159v82h-159q-14 0 -22.5 9t-8.5 22v180q0 13 8.5 22t22.5 9h155l-414 731q-18 37 21 37h303q25 0 37 -21l231 -428l232 428q12 21 37 21h305z" />
    <glyph glyph-name="brokenbar" unicode="&#xa6;" horiz-adv-x="565" 
d="M428 1638q14 0 22.5 -8.5t8.5 -21.5v-574q0 -13 -8.5 -21.5t-22.5 -8.5h-289q-13 0 -21.5 8t-8.5 22v574q0 14 8.5 22t21.5 8h289zM428 246q14 0 22.5 -9t8.5 -22v-573q0 -14 -8.5 -22.5t-22.5 -8.5h-289q-13 0 -21.5 8.5t-8.5 22.5v573q0 14 8.5 22.5t21.5 8.5h289z" />
    <glyph glyph-name="section" unicode="&#xa7;" horiz-adv-x="1439" 
d="M1384 618q0 -129 -64 -225t-173 -153q-5 -82 -38.5 -152t-86.5 -118.5t-121.5 -83t-143 -50.5t-151.5 -16q-178 0 -319 68t-219 167q-22 28 2 60l125 172q19 28 63 2q100 -66 181.5 -97.5t168.5 -31.5q82 0 130 27t48 79q0 38 -29.5 66.5t-77.5 45t-110 36.5t-126 38.5
t-126 51.5t-110 75t-77.5 111.5t-29.5 157.5q0 134 64.5 233t175.5 154q9 128 80 221.5t176.5 137.5t230.5 44q148 0 267 -55.5t231 -157.5q25 -20 -2 -57l-127 -170q-7 -11 -17 -13t-19.5 2t-26.5 13q-96 53 -161 76.5t-134 23.5q-71 0 -105.5 -30t-34.5 -68
q0 -39 29.5 -67.5t77.5 -45t110 -35t126 -36t126 -50t110 -75t77.5 -113.5t29.5 -162zM461 850q0 -44 36.5 -74.5t99 -50t131 -37t147.5 -49t133 -72.5q16 22 16 51q0 43 -36.5 73t-98.5 50t-130 39t-147 50.5t-133 72.5q-18 -21 -18 -53z" />
    <glyph glyph-name="dieresis" unicode="&#xa8;" horiz-adv-x="831" 
d="M174 1112q-67 0 -115.5 48.5t-48.5 119.5q0 68 48.5 116t115.5 48q68 0 116 -47.5t48 -116.5q0 -71 -48 -119.5t-116 -48.5zM657 1112q-68 0 -115.5 48.5t-47.5 119.5q0 69 47.5 116.5t115.5 47.5q67 0 115.5 -48t48.5 -116q0 -71 -48.5 -119.5t-115.5 -48.5z" />
    <glyph glyph-name="copyright" unicode="&#xa9;" horiz-adv-x="1316" 
d="M659 279q-119 0 -228.5 46t-189 124.5t-126.5 187t-47 227.5q0 159 79.5 294t215.5 213.5t296 78.5t296 -78.5t216 -213.5t80 -294t-80 -294t-216 -213t-296 -78zM659 463q166 0 281 117t115 284q0 169 -115 286.5t-281 117.5t-280.5 -117.5t-114.5 -286.5
q0 -167 114.5 -284t280.5 -117zM831 698q20 -24 -2 -43q-66 -57 -155 -57q-108 0 -188 77.5t-80 188.5t80.5 190t187.5 79q85 0 157 -58q21 -18 0 -43l-61 -69q-6 -7 -13.5 -8t-12 0.5t-15.5 5.5q-23 10 -51 10q-44 0 -74.5 -32t-30.5 -75t30.5 -73.5t74.5 -30.5q23 0 51 8
q12 5 17.5 6.5t11.5 0t12 -8.5z" />
    <glyph glyph-name="ordfeminine" unicode="&#xaa;" horiz-adv-x="849" 
d="M582 1434h213v-736h-213l-15 39q-61 -39 -137 -39q-155 0 -264 109t-109 264t109 264t264 109q76 0 137 -39zM430 934q59 0 100 39.5t41 97.5q0 60 -41 100.5t-100 40.5q-60 0 -99.5 -40.5t-39.5 -100.5q0 -59 39.5 -98t99.5 -39z" />
    <glyph glyph-name="guillemotleft" unicode="&#xab;" horiz-adv-x="790" 
d="M72 649q0 24 16 37l229 205q12 12 24.5 6.5t12.5 -25.5v-172q0 -23 -16 -36l-131 -111l131 -111q16 -13 16 -36v-173q0 -20 -12.5 -26t-24.5 6l-229 207q-16 13 -16 37v192zM436 649q0 23 17 37l229 205q12 12 24.5 6.5t12.5 -25.5v-172q0 -22 -17 -36l-131 -111
l131 -111q17 -14 17 -36v-173q0 -20 -12.5 -26t-24.5 6l-229 207q-17 14 -17 37v192z" />
    <glyph glyph-name="logicalnot" unicode="&#xac;" horiz-adv-x="1116" 
d="M983 649q13 0 22 -8.5t9 -22.5v-346q0 -13 -8.5 -21.5t-22.5 -8.5h-270q-14 0 -22.5 8.5t-8.5 21.5v105h-549q-13 0 -22 8.5t-9 22.5v210q0 14 9 22.5t22 8.5h850z" />
    <glyph glyph-name="uni00AD" unicode="&#xad;" horiz-adv-x="798" 
d="M676 698q14 0 22.5 -8.5t8.5 -21.5v-211q0 -13 -8.5 -22t-22.5 -9h-553q-13 0 -22 9t-9 22v211q0 13 8.5 21.5t22.5 8.5h553z" />
    <glyph glyph-name="registered" unicode="&#xae;" horiz-adv-x="1316" 
d="M659 1450q160 0 296 -78.5t216 -213.5t80 -294t-80 -294t-216 -213t-296 -78q-119 0 -228.5 46t-189 124.5t-126.5 187t-47 227.5q0 159 79.5 294t215.5 213.5t296 78.5zM659 463q166 0 281 117t115 284q0 169 -115 286.5t-281 117.5t-280.5 -117.5t-114.5 -286.5
q0 -167 114.5 -284t280.5 -117zM942 932q0 -133 -129 -168l131 -127q4 -6 2 -12.5t-8 -6.5h-147q-11 0 -21 7l-125 129h-59v-119q0 -17 -13 -17h-131q-14 0 -14 17v459q0 16 14 16h277q98 0 160.5 -41t62.5 -137zM721 985h-135v-106h135q51 0 51 53q0 25 -15 39t-36 14z" />
    <glyph glyph-name="macron" unicode="&#xaf;" horiz-adv-x="731" 
d="M690 1434q14 0 22.5 -9t8.5 -22v-197q0 -13 -8.5 -21.5t-22.5 -8.5h-649q-14 0 -22.5 8.5t-8.5 21.5v197q0 13 9 22t22 9h649z" />
    <glyph glyph-name="degree" unicode="&#xb0;" horiz-adv-x="815" 
d="M408 1473q125 0 215 -88t90 -211q0 -126 -90 -216t-215 -90t-215.5 90t-90.5 216q0 123 90.5 211t215.5 88zM408 1276q-29 0 -50.5 -11.5t-32 -29t-15.5 -33t-5 -28.5q0 -37 24.5 -73t78.5 -36q55 0 78.5 35.5t23.5 73.5q0 33 -23.5 67.5t-78.5 34.5z" />
    <glyph glyph-name="plusminus" unicode="&#xb1;" horiz-adv-x="1038" 
d="M164 565q-14 0 -22.5 8.5t-8.5 22.5v180q0 14 8.5 22.5t22.5 8.5h233v233q0 14 8.5 22.5t22.5 8.5h180q14 0 22.5 -8.5t8.5 -22.5v-233h235q14 0 22.5 -8.5t8.5 -22.5v-180q0 -14 -8.5 -22.5t-22.5 -8.5h-235v-233q0 -14 -8.5 -22.5t-22.5 -8.5h-180q-14 0 -22.5 8.5
t-8.5 22.5v233h-233zM895 242q13 0 22 -9t9 -22v-180q0 -13 -9 -22t-22 -9h-752q-13 0 -21.5 8.5t-8.5 22.5v180q0 14 8.5 22.5t21.5 8.5h752z" />
    <glyph glyph-name="uni00B2" unicode="&#xb2;" horiz-adv-x="483" 
d="M240 1442q70 0 121 -46.5t51 -107.5q0 -54 -29.5 -96t-110.5 -125l-96 -100h242v-66h-344v66l139 141q58 60 75 79t31.5 46t14.5 55q0 38 -28.5 64t-65.5 26q-39 0 -68 -26.5t-29 -75.5v-29h-75v29q0 72 50.5 119t121.5 47z" />
    <glyph glyph-name="uni00B3" unicode="&#xb3;" horiz-adv-x="518" 
d="M258 1440q65 0 114.5 -42.5t49.5 -97.5q0 -64 -62 -108q38 -16 62 -50.5t24 -84.5q0 -69 -56 -116.5t-132 -47.5q-85 0 -139.5 55.5t-46.5 130.5h78q-13 -46 21.5 -83.5t86.5 -37.5q46 0 78.5 28t32.5 71q0 57 -41.5 80.5t-110.5 9.5v65q129 8 129 88q0 31 -26 53.5
t-62 22.5q-45 0 -72 -32.5t-20 -86.5h-80q-7 77 44.5 130t127.5 53z" />
    <glyph glyph-name="acute" unicode="&#xb4;" horiz-adv-x="462" 
d="M424 1491q18 0 25 -9t0 -26l-123 -258q-11 -24 -35 -24h-252q-40 0 -25 34l123 258q11 25 35 25h252z" />
    <glyph glyph-name="uni00B5" unicode="&#xb5;" horiz-adv-x="1173" 
d="M1055 1004q13 0 21.5 -8.5t8.5 -22.5v-942q0 -14 -8.5 -22.5t-21.5 -8.5h-269q-27 0 -30 31l-8 108q-53 -77 -126.5 -121.5t-158.5 -44.5q-31 0 -47 2v-333q0 -14 -9 -22.5t-22 -8.5h-276q-13 0 -22 8.5t-9 22.5v1331q0 13 9 22t22 9h276q13 0 22 -9t9 -22v-490
q0 -57 16 -97t42 -59.5t51.5 -27.5t52.5 -8q83 0 126.5 49t43.5 115v518q0 14 8.5 22.5t21.5 8.5h277z" />
    <glyph glyph-name="paragraph" unicode="&#xb6;" horiz-adv-x="1740" 
d="M610 1434h447q13 0 21.5 -8.5t8.5 -22.5v-1372q0 -14 -8.5 -22.5t-21.5 -8.5h-289q-14 0 -22.5 9t-8.5 22v440h-127q-257 0 -399.5 131.5t-142.5 349.5q0 219 142.5 350.5t399.5 131.5zM1284 1403q0 13 9 22t22 9h289q13 0 21.5 -8.5t8.5 -22.5v-1372q0 -14 -8.5 -22.5
t-21.5 -8.5h-289q-13 0 -22 9t-9 22v1372zM616 778h121v348h-121q-40 0 -75.5 -8t-68.5 -26.5t-52 -54t-19 -85.5q0 -49 19.5 -84.5t52 -54t68 -27t75.5 -8.5z" />
    <glyph glyph-name="periodcentered" unicode="&#xb7;" horiz-adv-x="555" 
d="M250 391q-74 0 -126 52.5t-52 125.5q0 74 52.5 126.5t125.5 52.5t125.5 -52.5t52.5 -126.5q0 -73 -52 -125.5t-126 -52.5z" />
    <glyph glyph-name="cedilla" unicode="&#xb8;" horiz-adv-x="425" 
d="M223 -63q77 -7 135 -53t58 -122q0 -69 -33.5 -118t-88 -71.5t-124 -30t-141.5 6.5q-19 3 -19 23v115q0 20 23 20q81 -9 122.5 2.5t41.5 38.5q0 14 -20.5 25t-56.5 12.5t-85 -14.5q-11 -5 -18 -0.5t-7 14.5v125q0 14 10 24l76 66h203z" />
    <glyph glyph-name="uni00B9" unicode="&#xb9;" horiz-adv-x="274" 
d="M186 1436v-535h-75v461h-56v74h131z" />
    <glyph glyph-name="ordmasculine" unicode="&#xba;" horiz-adv-x="858" 
d="M430 698q-155 0 -264 109t-109 264t109 264t264 109t264 -109t109 -264t-109 -264t-264 -109zM430 934q59 0 100 39.5t41 97.5q0 60 -41 100.5t-100 40.5q-60 0 -99.5 -40.5t-39.5 -100.5q0 -59 39.5 -98t99.5 -39z" />
    <glyph glyph-name="guillemotright" unicode="&#xbb;" horiz-adv-x="790" 
d="M354 649v-192q0 -24 -16 -37l-229 -207q-12 -12 -24.5 -6t-12.5 26v173q0 23 16 36l131 111l-131 111q-16 13 -16 36v172q0 20 12.5 25.5t24.5 -6.5l229 -205q16 -13 16 -37zM719 649v-192q0 -23 -17 -37l-229 -207q-12 -12 -24.5 -6t-12.5 26v173q0 22 17 36l131 111
l-131 111q-17 14 -17 36v172q0 20 12.5 25.5t24.5 -6.5l229 -205q17 -14 17 -37z" />
    <glyph glyph-name="onequarter" unicode="&#xbc;" horiz-adv-x="1185" 
d="M199 1436v-535h-76v461h-55v74h131zM1061 1434l-881 -1434h-98l893 1434h86zM1069 535v-316h55v-63h-55v-156h-76v156h-270l270 379h76zM993 424l-143 -205h143v205z" />
    <glyph glyph-name="onehalf" unicode="&#xbd;" horiz-adv-x="1134" 
d="M199 1436v-535h-76v461h-55v74h131zM1061 1434l-881 -1434h-98l893 1434h86zM895 541q70 0 121 -46.5t51 -107.5q0 -54 -29.5 -96.5t-109.5 -124.5l-97 -100h242v-66h-344v66l139 141q58 60 75 79t31.5 46t14.5 55q0 38 -28.5 64t-65.5 26q-39 0 -67.5 -26.5t-28.5 -75.5
v-29h-76v29q0 72 50.5 119t121.5 47z" />
    <glyph glyph-name="threequarters" unicode="&#xbe;" horiz-adv-x="1222" 
d="M248 1440q65 0 114.5 -42.5t49.5 -97.5q0 -64 -62 -108q38 -16 62 -50.5t24 -84.5q0 -69 -56 -116.5t-132 -47.5q-85 0 -140 55.5t-47 130.5h78q-13 -46 22 -83.5t87 -37.5q45 0 77.5 28t32.5 71q0 57 -41 80.5t-110 9.5v65q129 8 129 88q0 31 -26 53.5t-62 22.5
q-45 0 -72 -32.5t-20 -86.5h-80q-7 77 44.5 130t127.5 53zM1118 1434l-880 -1434h-99l893 1434h86zM1106 535v-316h55v-63h-55v-156h-76v156h-270l270 379h76zM1030 424l-143 -205h143v205z" />
    <glyph glyph-name="questiondown" unicode="&#xbf;" horiz-adv-x="1095" 
d="M569 735q-73 0 -125.5 52.5t-52.5 125.5q0 74 52.5 126.5t125.5 52.5t126 -53t53 -126t-52.5 -125.5t-126.5 -52.5zM1030 -100q26 -32 2 -62q-82 -101 -204.5 -162t-278.5 -61q-89 0 -174 28.5t-152.5 79t-109 127t-41.5 164.5q0 139 73.5 230t268.5 194l16 144
q7 30 31 30h215q26 0 33 -30l20 -285q5 -24 -27 -35q-110 -33 -172 -68t-80 -62.5t-18 -61.5q0 -53 48 -84t100 -31q70 0 127 30t120 85q38 33 64 0z" />
    <glyph glyph-name="Agrave" unicode="&#xc0;" horiz-adv-x="1404" 
d="M522 1567l-123 258q-7 17 0 26t25 9h252q24 0 35 -25l123 -258q7 -17 0 -26t-25 -9h-252q-24 0 -35 25zM1366 35q6 -15 -1 -25t-24 -10h-301q-26 0 -34 25l-68 208h-471l-66 -208q-8 -25 -34 -25h-301q-17 0 -24 10t-1 25l494 1374q9 25 34 25h262q30 0 39 -25zM561 528
h283l-142 443z" />
    <glyph glyph-name="Aacute" unicode="&#xc1;" horiz-adv-x="1404" 
d="M594 1542q-18 0 -25 9t0 26l123 258q11 25 35 25h252q18 0 25 -9t0 -26l-123 -258q-11 -25 -35 -25h-252zM1366 35q6 -15 -1 -25t-24 -10h-301q-26 0 -34 25l-68 208h-471l-66 -208q-8 -25 -34 -25h-301q-17 0 -24 10t-1 25l494 1374q9 25 34 25h262q30 0 39 -25z
M561 528h283l-142 443z" />
    <glyph glyph-name="Acircumflex" unicode="&#xc2;" horiz-adv-x="1404" 
d="M393 1577q-20 0 -26 12.5t6 24.5l207 229q14 17 36 17h193q23 0 37 -17l205 -229q12 -12 6.5 -24.5t-25.5 -12.5h-172q-24 0 -37 16l-110 131l-111 -131q-13 -16 -37 -16h-172zM1366 35q6 -15 -1 -25t-24 -10h-301q-26 0 -34 25l-68 208h-471l-66 -208q-8 -25 -34 -25
h-301q-17 0 -24 10t-1 25l494 1374q9 25 34 25h262q30 0 39 -25zM561 528h283l-142 443z" />
    <glyph glyph-name="Atilde" unicode="&#xc3;" horiz-adv-x="1404" 
d="M326 1651q-21 0 -21 26q7 116 72 174t168 58q48 0 91.5 -15t76.5 -37t63 -44t62 -37t63 -15q35 0 61.5 16.5t36.5 39.5q7 14 23 14h76q20 0 20 -21q-4 -117 -69.5 -177t-171.5 -60q-57 0 -111 23t-88 50.5t-76.5 50.5t-79.5 23q-34 0 -60.5 -16t-37.5 -39q-7 -14 -23 -14
h-75zM1366 35q6 -15 -1 -25t-24 -10h-301q-26 0 -34 25l-68 208h-471l-66 -208q-8 -25 -34 -25h-301q-17 0 -24 10t-1 25l494 1374q9 25 34 25h262q30 0 39 -25zM561 528h283l-142 443z" />
    <glyph glyph-name="Adieresis" unicode="&#xc4;" horiz-adv-x="1404" 
d="M471 1542q-67 0 -115.5 48.5t-48.5 119.5q0 68 48.5 116t115.5 48q68 0 116 -47.5t48 -116.5q0 -71 -48 -119.5t-116 -48.5zM954 1542q-68 0 -115.5 48.5t-47.5 119.5q0 69 47.5 116.5t115.5 47.5q67 0 115.5 -48t48.5 -116q0 -71 -48.5 -119.5t-115.5 -48.5zM1366 35
q6 -15 -1 -25t-24 -10h-301q-26 0 -34 25l-68 208h-471l-66 -208q-8 -25 -34 -25h-301q-17 0 -24 10t-1 25l494 1374q9 25 34 25h262q30 0 39 -25zM561 528h283l-142 443z" />
    <glyph glyph-name="Aring" unicode="&#xc5;" horiz-adv-x="1404" 
d="M715 1511q-97 0 -165.5 67.5t-68.5 160.5q0 94 68 161.5t166 67.5q92 0 159.5 -67.5t67.5 -161.5q0 -92 -67.5 -160t-159.5 -68zM713 1788q-19 0 -32 -14t-13 -33t13 -32t32 -13t32 13t13 32t-13 33t-32 14zM1366 35q6 -15 -1 -25t-24 -10h-301q-26 0 -34 25l-68 208
h-471l-66 -208q-8 -25 -34 -25h-301q-17 0 -24 10t-1 25l494 1374q9 25 34 25h262q30 0 39 -25zM561 528h283l-142 443z" />
    <glyph glyph-name="AE" unicode="&#xc6;" horiz-adv-x="1742" 
d="M1610 307q13 0 21.5 -8.5t8.5 -22.5v-245q0 -14 -8.5 -22.5t-21.5 -8.5h-783q-13 0 -21.5 8.5t-8.5 22.5v233h-308l-88 -239q-11 -25 -34 -25h-301q-17 0 -24 10t-1 25l555 1374q9 25 35 25h977q13 0 21.5 -8.5t8.5 -22.5v-246q0 -14 -8.5 -22.5t-21.5 -8.5h-461v-245
h432q13 0 22 -8.5t9 -22.5v-246q0 -14 -9 -22.5t-22 -8.5h-432v-266h463zM596 559h201v549z" />
    <glyph glyph-name="Ccedilla" unicode="&#xc7;" horiz-adv-x="1388" 
d="M1145 422l178 -193q17 -24 0 -43q-177 -187 -446 -211l-48 -38q77 -7 135 -53t58 -122q0 -69 -33.5 -118t-88 -71.5t-124 -30t-141.5 6.5q-19 3 -19 23v115q0 20 23 20q81 -9 122.5 2.5t41.5 38.5q0 14 -20.5 25t-56.5 12.5t-85 -14.5q-11 -5 -18 -0.5t-7 14.5v125
q0 13 11 24l57 50q-174 29 -314 131t-221 258.5t-81 337.5q0 153 59 290.5t158.5 235.5t237.5 155.5t290 57.5q151 0 283.5 -55.5t226.5 -157.5q18 -18 0 -43l-178 -193q-7 -10 -20 -10.5t-23 8.5q-126 109 -293 109q-162 0 -271.5 -113.5t-109.5 -283.5q0 -167 110 -280.5
t271 -113.5q171 0 293 109q11 9 23 8t20 -12z" />
    <glyph glyph-name="Egrave" unicode="&#xc8;" horiz-adv-x="1054" 
d="M250 1860h252q24 0 35 -25l122 -258q15 -35 -24 -35h-252q-24 0 -35 25l-123 258q-7 17 0 26t25 9zM922 307q13 0 21.5 -8.5t8.5 -22.5v-245q0 -14 -8.5 -22.5t-21.5 -8.5h-783q-13 0 -21.5 8.5t-8.5 22.5v1372q0 14 8.5 22.5t21.5 8.5h781q13 0 21.5 -8.5t8.5 -22.5
v-246q0 -14 -8.5 -22.5t-21.5 -8.5h-461v-245h432q13 0 22 -8.5t9 -22.5v-246q0 -14 -9 -22.5t-22 -8.5h-432v-266h463z" />
    <glyph glyph-name="Eacute" unicode="&#xc9;" horiz-adv-x="1054" 
d="M805 1860q39 0 24 -35l-122 -258q-11 -25 -35 -25h-252q-18 0 -25 9t0 26l123 258q11 25 35 25h252zM922 307q13 0 21.5 -8.5t8.5 -22.5v-245q0 -14 -8.5 -22.5t-21.5 -8.5h-783q-13 0 -21.5 8.5t-8.5 22.5v1372q0 14 8.5 22.5t21.5 8.5h781q13 0 21.5 -8.5t8.5 -22.5
v-246q0 -14 -8.5 -22.5t-21.5 -8.5h-461v-245h432q13 0 22 -8.5t9 -22.5v-246q0 -14 -9 -22.5t-22 -8.5h-432v-266h463z" />
    <glyph glyph-name="Ecircumflex" unicode="&#xca;" horiz-adv-x="1054" 
d="M635 1860q23 0 37 -17l205 -229q12 -12 6.5 -24.5t-25.5 -12.5h-172q-24 0 -37 16l-110 131l-111 -131q-13 -16 -37 -16h-172q-20 0 -26 12.5t6 24.5l207 229q14 17 36 17h193zM922 307q13 0 21.5 -8.5t8.5 -22.5v-245q0 -14 -8.5 -22.5t-21.5 -8.5h-783q-13 0 -21.5 8.5
t-8.5 22.5v1372q0 14 8.5 22.5t21.5 8.5h781q13 0 21.5 -8.5t8.5 -22.5v-246q0 -14 -8.5 -22.5t-21.5 -8.5h-461v-245h432q13 0 22 -8.5t9 -22.5v-246q0 -14 -9 -22.5t-22 -8.5h-432v-266h463z" />
    <glyph glyph-name="Edieresis" unicode="&#xcb;" horiz-adv-x="1054" 
d="M297 1542q-67 0 -115.5 48.5t-48.5 119.5q0 68 48.5 116t115.5 48q68 0 116 -47.5t48 -116.5q0 -71 -48 -119.5t-116 -48.5zM780 1542q-68 0 -116 48.5t-48 119.5q0 69 48 116.5t116 47.5q67 0 115.5 -48t48.5 -116q0 -71 -48.5 -119.5t-115.5 -48.5zM922 307
q13 0 21.5 -8.5t8.5 -22.5v-245q0 -14 -8.5 -22.5t-21.5 -8.5h-783q-13 0 -21.5 8.5t-8.5 22.5v1372q0 14 8.5 22.5t21.5 8.5h781q13 0 21.5 -8.5t8.5 -22.5v-246q0 -14 -8.5 -22.5t-21.5 -8.5h-461v-245h432q13 0 22 -8.5t9 -22.5v-246q0 -14 -9 -22.5t-22 -8.5h-432v-266
h463z" />
    <glyph glyph-name="Igrave" unicode="&#xcc;" horiz-adv-x="565" 
d="M-6 1860h252q24 0 35 -25l122 -258q15 -35 -24 -35h-252q-24 0 -35 25l-123 258q-7 17 0 26t25 9zM109 1403q0 14 8.5 22.5t21.5 8.5h289q14 0 22.5 -9t8.5 -22v-1372q0 -13 -8.5 -22t-22.5 -9h-289q-13 0 -21.5 8.5t-8.5 22.5v1372z" />
    <glyph glyph-name="Iacute" unicode="&#xcd;" horiz-adv-x="565" 
d="M549 1860q39 0 24 -35l-122 -258q-11 -25 -35 -25h-252q-18 0 -25 9t0 26l123 258q11 25 35 25h252zM109 1403q0 14 8.5 22.5t21.5 8.5h289q14 0 22.5 -9t8.5 -22v-1372q0 -13 -8.5 -22t-22.5 -9h-289q-13 0 -21.5 8.5t-8.5 22.5v1372z" />
    <glyph glyph-name="Icircumflex" unicode="&#xce;" horiz-adv-x="565" 
d="M379 1860q23 0 37 -17l205 -229q12 -12 6.5 -24.5t-25.5 -12.5h-172q-24 0 -37 16l-110 131l-111 -131q-13 -16 -37 -16h-172q-20 0 -26 12.5t6 24.5l207 229q14 17 36 17h193zM109 1403q0 14 8.5 22.5t21.5 8.5h289q14 0 22.5 -9t8.5 -22v-1372q0 -13 -8.5 -22t-22.5 -9
h-289q-13 0 -21.5 8.5t-8.5 22.5v1372z" />
    <glyph glyph-name="Idieresis" unicode="&#xcf;" horiz-adv-x="565" 
d="M41 1542q-67 0 -115.5 48.5t-48.5 119.5q0 68 48.5 116t115.5 48q68 0 116 -47.5t48 -116.5q0 -71 -48 -119.5t-116 -48.5zM524 1542q-68 0 -116 48.5t-48 119.5q0 69 48 116.5t116 47.5q67 0 115.5 -48t48.5 -116q0 -71 -48.5 -119.5t-115.5 -48.5zM109 1403
q0 14 8.5 22.5t21.5 8.5h289q14 0 22.5 -9t8.5 -22v-1372q0 -13 -8.5 -22t-22.5 -9h-289q-13 0 -21.5 8.5t-8.5 22.5v1372z" />
    <glyph glyph-name="Eth" unicode="&#xd0;" horiz-adv-x="1415" 
d="M606 1434q178 0 322 -56t237 -154t143 -227.5t50 -279.5q0 -149 -50 -279t-143 -227.5t-237 -154t-322 -56.5h-450q-14 0 -22.5 9t-8.5 22v540h-64q-13 0 -21.5 8.5t-8.5 22.5v197q0 13 8.5 21.5t21.5 8.5h64v574q0 13 8.5 22t22.5 9h450zM606 307q196 0 297 106t101 304
q0 199 -100.5 304t-297.5 105h-131v-297h236q13 0 21.5 -8.5t8.5 -21.5v-197q0 -14 -8.5 -22.5t-21.5 -8.5h-236v-264h131z" />
    <glyph glyph-name="Ntilde" unicode="&#xd1;" horiz-adv-x="1419" 
d="M324 1651q-21 0 -21 26q7 116 72 174t168 58q48 0 91.5 -15t76.5 -37t63 -44t62 -37t63 -15q35 0 61.5 16.5t36.5 39.5q7 14 23 14h76q20 0 20 -21q-4 -117 -70 -177t-172 -60q-47 0 -90.5 15t-76 36.5t-62.5 43.5t-62 37t-63 15q-34 0 -60.5 -16t-37.5 -39
q-7 -14 -23 -14h-75zM1282 1434q14 0 22.5 -9t8.5 -22v-1372q0 -13 -8.5 -22t-22.5 -9h-321q-26 0 -37 20l-465 840v-829q0 -13 -8.5 -22t-22.5 -9h-289q-13 0 -21.5 8.5t-8.5 22.5v1372q0 14 8.5 22.5t21.5 8.5h322q25 0 37 -21l465 -842v832q0 14 8.5 22.5t21.5 8.5h289z
" />
    <glyph glyph-name="Ograve" unicode="&#xd2;" horiz-adv-x="1613" 
d="M518 1860h252q24 0 35 -25l123 -258q7 -17 0 -26t-25 -9h-252q-24 0 -35 25l-122 258q-15 35 24 35zM807 -27q-150 0 -286.5 58t-235.5 156.5t-158 235.5t-59 288q0 202 99.5 372.5t269.5 268.5t370 98t370 -98t269.5 -268.5t99.5 -372.5q0 -151 -59 -288t-158 -235.5
t-235.5 -156.5t-286.5 -58zM807 313q163 0 275 115.5t112 282.5q0 169 -112 284t-275 115t-275 -115t-112 -284q0 -167 112 -282.5t275 -115.5z" />
    <glyph glyph-name="Oacute" unicode="&#xd3;" horiz-adv-x="1613" 
d="M1073 1860q18 0 25 -9t0 -26l-123 -258q-11 -25 -35 -25h-252q-39 0 -24 35l122 258q11 25 35 25h252zM807 -27q-150 0 -286.5 58t-235.5 156.5t-158 235.5t-59 288q0 202 99.5 372.5t269.5 268.5t370 98t370 -98t269.5 -268.5t99.5 -372.5q0 -151 -59 -288t-158 -235.5
t-235.5 -156.5t-286.5 -58zM807 313q163 0 275 115.5t112 282.5q0 169 -112 284t-275 115t-275 -115t-112 -284q0 -167 112 -282.5t275 -115.5z" />
    <glyph glyph-name="Ocircumflex" unicode="&#xd4;" horiz-adv-x="1613" 
d="M903 1860q23 0 37 -17l205 -229q12 -12 6.5 -24.5t-25.5 -12.5h-172q-23 0 -36 16l-111 131l-111 -131q-13 -16 -37 -16h-172q-20 0 -26 12.5t6 24.5l207 229q14 17 37 17h192zM807 -27q-150 0 -286.5 58t-235.5 156.5t-158 235.5t-59 288q0 202 99.5 372.5t269.5 268.5
t370 98t370 -98t269.5 -268.5t99.5 -372.5q0 -151 -59 -288t-158 -235.5t-235.5 -156.5t-286.5 -58zM807 313q163 0 275 115.5t112 282.5q0 169 -112 284t-275 115t-275 -115t-112 -284q0 -167 112 -282.5t275 -115.5z" />
    <glyph glyph-name="Otilde" unicode="&#xd5;" horiz-adv-x="1613" 
d="M639 1909q48 0 91.5 -15t76.5 -37t63 -44t62 -37t63 -15q35 0 62 16.5t37 39.5q7 14 22 14h76q20 0 20 -21q-4 -117 -69.5 -177t-171.5 -60q-57 0 -111 23t-88 50.5t-76.5 50.5t-79.5 23q-34 0 -60.5 -16t-37.5 -39q-7 -14 -22 -14h-76q-21 0 -21 26q7 116 72 174t168 58
zM807 -27q-150 0 -286.5 58t-235.5 156.5t-158 235.5t-59 288q0 202 99.5 372.5t269.5 268.5t370 98t370 -98t269.5 -268.5t99.5 -372.5q0 -151 -59 -288t-158 -235.5t-235.5 -156.5t-286.5 -58zM807 313q163 0 275 115.5t112 282.5q0 169 -112 284t-275 115t-275 -115
t-112 -284q0 -167 112 -282.5t275 -115.5z" />
    <glyph glyph-name="Odieresis" unicode="&#xd6;" horiz-adv-x="1613" 
d="M565 1542q-67 0 -115.5 48.5t-48.5 119.5q0 68 48.5 116t115.5 48q68 0 116 -47.5t48 -116.5q0 -71 -48 -119.5t-116 -48.5zM1049 1542q-68 0 -116 48.5t-48 119.5q0 69 48 116.5t116 47.5q67 0 115 -48t48 -116q0 -71 -48 -119.5t-115 -48.5zM807 -27q-150 0 -286.5 58
t-235.5 156.5t-158 235.5t-59 288q0 202 99.5 372.5t269.5 268.5t370 98t370 -98t269.5 -268.5t99.5 -372.5q0 -151 -59 -288t-158 -235.5t-235.5 -156.5t-286.5 -58zM807 313q163 0 275 115.5t112 282.5q0 169 -112 284t-275 115t-275 -115t-112 -284q0 -167 112 -282.5
t275 -115.5z" />
    <glyph glyph-name="multiply" unicode="&#xd7;" horiz-adv-x="917" 
d="M797 420q9 -9 9 -21.5t-9 -21.5l-127 -127q-22 -22 -45 0l-166 166l-166 -166q-20 -20 -43 0l-127 129q-20 20 0 43l166 164l-166 166q-9 9 -9 21.5t9 21.5l127 127q23 23 43 0l166 -166l166 166q20 23 43 0l127 -127q9 -9 9 -21.5t-9 -21.5l-166 -166z" />
    <glyph glyph-name="Oslash" unicode="&#xd8;" horiz-adv-x="1613" 
d="M1251 1303q137 -104 216 -258.5t79 -333.5q0 -151 -59 -288t-158 -235.5t-235.5 -156.5t-286.5 -58q-89 0 -172 21l-35 -74q-9 -22 -35 -22h-270q-18 0 -24 9.5t1 26.5l88 189q-135 102 -213.5 256t-78.5 332q0 202 99.5 372.5t269.5 268.5t370 98q93 0 172 -20l35 73
q10 23 35 23h268q17 0 23 -10t-1 -27zM420 711q0 -153 94 -265l313 664h-20q-163 0 -275 -115t-112 -284zM807 313q163 0 275 115.5t112 282.5q0 152 -96 266l-312 -664h21z" />
    <glyph glyph-name="Ugrave" unicode="&#xd9;" horiz-adv-x="1314" 
d="M369 1860h252q23 0 34 -25l123 -258q15 -35 -24 -35h-252q-24 0 -35 25l-123 258q-7 17 0 26t25 9zM1188 1434q14 0 22.5 -9t8.5 -22v-844q0 -276 -155.5 -431t-406.5 -155q-250 0 -404.5 155t-154.5 431v844q0 13 9 22t22 9h289q14 0 22.5 -9t8.5 -22v-844
q0 -240 208 -240q211 0 211 240v844q0 13 9 22t22 9h289z" />
    <glyph glyph-name="Uacute" unicode="&#xda;" horiz-adv-x="1314" 
d="M924 1860q39 0 24 -35l-123 -258q-11 -25 -34 -25h-252q-18 0 -25 9t0 26l123 258q11 25 35 25h252zM1188 1434q14 0 22.5 -9t8.5 -22v-844q0 -276 -155.5 -431t-406.5 -155q-250 0 -404.5 155t-154.5 431v844q0 13 9 22t22 9h289q14 0 22.5 -9t8.5 -22v-844
q0 -240 208 -240q211 0 211 240v844q0 13 9 22t22 9h289z" />
    <glyph glyph-name="Ucircumflex" unicode="&#xdb;" horiz-adv-x="1314" 
d="M754 1860q23 0 37 -17l204 -229q13 -12 7.5 -24.5t-25.5 -12.5h-172q-24 0 -37 16l-111 131l-110 -131q-13 -16 -37 -16h-172q-20 0 -26.5 12.5t5.5 24.5l207 229q14 17 37 17h193zM1188 1434q14 0 22.5 -9t8.5 -22v-844q0 -276 -155.5 -431t-406.5 -155
q-250 0 -404.5 155t-154.5 431v844q0 13 9 22t22 9h289q14 0 22.5 -9t8.5 -22v-844q0 -240 208 -240q211 0 211 240v844q0 13 9 22t22 9h289z" />
    <glyph glyph-name="Udieresis" unicode="&#xdc;" horiz-adv-x="1314" 
d="M416 1542q-67 0 -115.5 48.5t-48.5 119.5q0 68 48.5 116t115.5 48q68 0 116 -47.5t48 -116.5q0 -71 -48 -119.5t-116 -48.5zM899 1542q-68 0 -116 48.5t-48 119.5q0 69 48 116.5t116 47.5q67 0 115.5 -48t48.5 -116q0 -71 -48.5 -119.5t-115.5 -48.5zM1188 1434
q14 0 22.5 -9t8.5 -22v-844q0 -276 -155.5 -431t-406.5 -155q-250 0 -404.5 155t-154.5 431v844q0 13 9 22t22 9h289q14 0 22.5 -9t8.5 -22v-844q0 -240 208 -240q211 0 211 240v844q0 13 9 22t22 9h289z" />
    <glyph glyph-name="Yacute" unicode="&#xdd;" horiz-adv-x="1310" 
d="M537 1542q-18 0 -25 9t0 26l123 258q11 25 35 25h252q39 0 24 -35l-123 -258q-11 -25 -35 -25h-251zM1229 1434q38 0 20 -37l-418 -742v-624q0 -14 -8.5 -22.5t-21.5 -8.5h-289q-14 0 -22.5 9t-8.5 22v628l-418 738q-18 37 21 37h303q25 0 37 -21l231 -428l232 428
q12 21 37 21h305z" />
    <glyph glyph-name="Thorn" unicode="&#xde;" horiz-adv-x="1196" 
d="M602 1198q264 0 405.5 -123t141.5 -358q0 -234 -141.5 -357.5t-405.5 -123.5h-143v-205q0 -13 -8.5 -22t-22.5 -9h-289q-13 0 -21.5 8.5t-8.5 22.5v1372q0 14 8.5 22.5t21.5 8.5h289q14 0 22.5 -9t8.5 -22v-205h143zM580 543q58 0 98 7t72.5 25.5t48.5 53.5t16 88
q0 103 -58 138.5t-177 35.5h-121v-348h121z" />
    <glyph glyph-name="germandbls" unicode="&#xdf;" horiz-adv-x="1282" 
d="M911 731q59 -6 114.5 -27.5t103.5 -59.5t77 -99t29 -137q0 -222 -141 -315t-441 -93h-75q-14 0 -22.5 9t-8.5 22v196q0 13 8.5 22t22.5 9h75q131 0 193.5 36.5t62.5 125.5q0 32 -8 55t-26.5 38.5t-41 25t-59.5 14.5t-72.5 6.5t-89.5 1.5h-34q-14 0 -22.5 8.5t-8.5 22.5
v194q0 14 8.5 22.5t22.5 8.5h34q68 0 113.5 15t66 42t28 53.5t7.5 61.5q0 66 -52 101.5t-134 35.5q-46 0 -77.5 -5.5t-60 -20.5t-43 -45.5t-14.5 -77.5v-946q0 -14 -8.5 -22.5t-21.5 -8.5h-277q-13 0 -21.5 8.5t-8.5 22.5v946q0 94 29 171.5t78.5 129.5t118 88t145 52
t161.5 16q102 0 192.5 -25t162.5 -72.5t114.5 -125t42.5 -173.5q0 -74 -24 -136t-61 -98t-78.5 -55.5t-78.5 -17.5z" />
    <glyph glyph-name="agrave" unicode="&#xe0;" 
d="M395 1137l-123 258q-7 17 0 26t25 9h252q24 0 35 -25l123 -258q7 -17 0 -26t-25 -9h-252q-24 0 -35 25zM1100 1004q13 0 21.5 -8.5t8.5 -22.5v-942q0 -14 -8.5 -22.5t-21.5 -8.5h-250q-28 0 -31 31l-6 63q-116 -123 -274 -123q-205 0 -343.5 154t-138.5 375
q0 145 62.5 266t173.5 191.5t246 70.5q156 0 274 -131l6 76q3 31 31 31h250zM582 281q86 0 143 65t57 156q0 90 -57 153.5t-143 63.5t-142.5 -61.5t-56.5 -155.5t56.5 -157.5t142.5 -63.5z" />
    <glyph glyph-name="aacute" unicode="&#xe1;" 
d="M467 1112q-18 0 -25 9t0 26l123 258q11 25 35 25h252q18 0 25 -9t0 -26l-123 -258q-11 -25 -35 -25h-252zM1100 1004q13 0 21.5 -8.5t8.5 -22.5v-942q0 -14 -8.5 -22.5t-21.5 -8.5h-250q-28 0 -31 31l-6 63q-116 -123 -274 -123q-205 0 -343.5 154t-138.5 375
q0 145 62.5 266t173.5 191.5t246 70.5q156 0 274 -131l6 76q3 31 31 31h250zM582 281q86 0 143 65t57 156q0 90 -57 153.5t-143 63.5t-142.5 -61.5t-56.5 -155.5t56.5 -157.5t142.5 -63.5z" />
    <glyph glyph-name="acircumflex" unicode="&#xe2;" 
d="M266 1147q-20 0 -26 12.5t6 24.5l207 229q14 17 36 17h193q23 0 37 -17l205 -229q12 -12 6.5 -24.5t-25.5 -12.5h-172q-24 0 -37 16l-110 131l-111 -131q-13 -16 -37 -16h-172zM1100 1004q13 0 21.5 -8.5t8.5 -22.5v-942q0 -14 -8.5 -22.5t-21.5 -8.5h-250q-28 0 -31 31
l-6 63q-116 -123 -274 -123q-205 0 -343.5 154t-138.5 375q0 145 62.5 266t173.5 191.5t246 70.5q156 0 274 -131l6 76q3 31 31 31h250zM582 281q86 0 143 65t57 156q0 90 -57 153.5t-143 63.5t-142.5 -61.5t-56.5 -155.5t56.5 -157.5t142.5 -63.5z" />
    <glyph glyph-name="atilde" unicode="&#xe3;" 
d="M199 1221q-21 0 -21 26q7 116 72 174t168 58q48 0 91.5 -15t76.5 -37t63 -44t62 -37t63 -15q35 0 61.5 16t36.5 39q8 15 23 15h76q20 0 20 -21q-4 -117 -69.5 -177t-171.5 -60q-57 0 -111 23t-88 50.5t-76.5 50.5t-79.5 23q-34 0 -60.5 -16t-37.5 -39q-7 -14 -23 -14h-75
zM1100 1004q13 0 21.5 -8.5t8.5 -22.5v-942q0 -14 -8.5 -22.5t-21.5 -8.5h-250q-28 0 -31 31l-6 63q-116 -123 -274 -123q-205 0 -343.5 154t-138.5 375q0 145 62.5 266t173.5 191.5t246 70.5q156 0 274 -131l6 76q3 31 31 31h250zM582 281q86 0 143 65t57 156
q0 90 -57 153.5t-143 63.5t-142.5 -61.5t-56.5 -155.5t56.5 -157.5t142.5 -63.5z" />
    <glyph glyph-name="adieresis" unicode="&#xe4;" 
d="M344 1112q-67 0 -115.5 48.5t-48.5 119.5q0 68 48.5 116t115.5 48q68 0 116 -47.5t48 -116.5q0 -71 -48 -119.5t-116 -48.5zM827 1112q-68 0 -115.5 48.5t-47.5 119.5q0 69 47.5 116.5t115.5 47.5q67 0 115.5 -48t48.5 -116q0 -71 -48.5 -119.5t-115.5 -48.5zM1100 1004
q13 0 21.5 -8.5t8.5 -22.5v-942q0 -14 -8.5 -22.5t-21.5 -8.5h-250q-28 0 -31 31l-6 63q-116 -123 -274 -123q-205 0 -343.5 154t-138.5 375q0 145 62.5 266t173.5 191.5t246 70.5q156 0 274 -131l6 76q3 31 31 31h250zM582 281q86 0 143 65t57 156q0 90 -57 153.5
t-143 63.5t-142.5 -61.5t-56.5 -155.5t56.5 -157.5t142.5 -63.5z" />
    <glyph glyph-name="aring" unicode="&#xe5;" 
d="M588 1081q-97 0 -165.5 67.5t-68.5 160.5q0 94 68 161.5t166 67.5q92 0 159.5 -67.5t67.5 -161.5q0 -92 -67.5 -160t-159.5 -68zM586 1358q-19 0 -32 -14t-13 -33t13 -32t32 -13t32 13t13 32t-13 33t-32 14zM1100 1004q13 0 21.5 -8.5t8.5 -22.5v-942q0 -14 -8.5 -22.5
t-21.5 -8.5h-250q-28 0 -31 31l-6 63q-116 -123 -274 -123q-205 0 -343.5 154t-138.5 375q0 145 62.5 266t173.5 191.5t246 70.5q156 0 274 -131l6 76q3 31 31 31h250zM582 281q86 0 143 65t57 156q0 90 -57 153.5t-143 63.5t-142.5 -61.5t-56.5 -155.5t56.5 -157.5
t142.5 -63.5z" />
    <glyph glyph-name="ae" unicode="&#xe6;" horiz-adv-x="1845" 
d="M1790 514q0 -71 -15.5 -102t-62.5 -31h-579q43 -139 233 -139q95 0 180 51q27 16 45 -4l119 -117q20 -20 -4 -45q-74 -72 -170 -113t-201 -41q-118 0 -211 37q-10 -10 -24 -10h-250q-28 0 -31 31l-6 63q-116 -123 -274 -123q-205 0 -343.5 154t-138.5 375q0 145 62.5 266
t173.5 191.5t246 70.5q156 0 274 -131l6 76q3 31 31 31h250q13 0 24 -11q94 33 185 33q143 0 253.5 -69.5t169 -185.5t58.5 -257zM1313 743q-66 0 -115.5 -34t-67.5 -103v-14h359q-14 76 -61.5 113.5t-114.5 37.5zM582 281q86 0 143 65t57 156q0 90 -57 153.5t-143 63.5
t-142.5 -61.5t-56.5 -155.5t56.5 -157.5t142.5 -63.5z" />
    <glyph glyph-name="ccedilla" unicode="&#xe7;" horiz-adv-x="1146" 
d="M967 195q21 -21 2 -43q-68 -77 -162 -124t-199 -53l-45 -38q77 -7 135 -53t58 -122q0 -69 -33.5 -118t-88 -71.5t-124 -30t-141.5 6.5q-19 3 -19 23v115q0 20 23 20q81 -9 122.5 2.5t41.5 38.5q0 14 -20.5 25t-56.5 12.5t-85 -14.5q-11 -5 -18 -0.5t-7 14.5v125
q0 14 10 24l68 60q-163 46 -267 185.5t-104 320.5q0 145 68 266t187 190.5t261 69.5q114 0 216 -47.5t174 -130.5q19 -22 -2 -43l-168 -164q-19 -19 -45 4q-79 68 -166 68t-143 -61t-56 -152q0 -90 56 -150.5t143 -60.5q94 0 172 67q26 19 45 0z" />
    <glyph glyph-name="egrave" unicode="&#xe8;" horiz-adv-x="1105" 
d="M367 1137l-123 258q-15 35 24 35h252q24 0 35 -25l123 -258q7 -17 0 -26t-25 -9h-252q-23 0 -34 25zM1051 514q0 -71 -15.5 -102t-62.5 -31h-580q43 -139 234 -139q95 0 180 51q27 16 45 -4l119 -117q21 -20 -4 -45q-74 -72 -170 -113t-201 -41q-158 0 -281.5 70
t-190.5 190t-67 267q0 146 67 266.5t184.5 190t260.5 69.5t254 -69.5t169.5 -185.5t58.5 -257zM573 743q-69 0 -119.5 -37.5t-66.5 -113.5h363q-14 76 -62 113.5t-115 37.5z" />
    <glyph glyph-name="eacute" unicode="&#xe9;" horiz-adv-x="1105" 
d="M438 1112q-39 0 -24 35l123 258q11 25 34 25h252q18 0 25 -9t0 -26l-123 -258q-11 -25 -35 -25h-252zM1051 514q0 -71 -15.5 -102t-62.5 -31h-580q43 -139 234 -139q95 0 180 51q27 16 45 -4l119 -117q21 -20 -4 -45q-74 -72 -170 -113t-201 -41q-158 0 -281.5 70
t-190.5 190t-67 267q0 146 67 266.5t184.5 190t260.5 69.5t254 -69.5t169.5 -185.5t58.5 -257zM573 743q-69 0 -119.5 -37.5t-66.5 -113.5h363q-14 76 -62 113.5t-115 37.5z" />
    <glyph glyph-name="ecircumflex" unicode="&#xea;" horiz-adv-x="1105" 
d="M238 1147q-20 0 -26.5 12.5t5.5 24.5l207 229q14 17 37 17h192q23 0 37 -17l205 -229q13 -12 7.5 -24.5t-25.5 -12.5h-172q-24 0 -37 16l-111 131l-111 -131q-13 -16 -36 -16h-172zM1051 514q0 -71 -15.5 -102t-62.5 -31h-580q43 -139 234 -139q95 0 180 51q27 16 45 -4
l119 -117q21 -20 -4 -45q-74 -72 -170 -113t-201 -41q-158 0 -281.5 70t-190.5 190t-67 267q0 146 67 266.5t184.5 190t260.5 69.5t254 -69.5t169.5 -185.5t58.5 -257zM573 743q-69 0 -119.5 -37.5t-66.5 -113.5h363q-14 76 -62 113.5t-115 37.5z" />
    <glyph glyph-name="edieresis" unicode="&#xeb;" horiz-adv-x="1105" 
d="M315 1112q-67 0 -115 48.5t-48 119.5q0 68 48 116t115 48q68 0 116 -47.5t48 -116.5q0 -71 -48 -119.5t-116 -48.5zM799 1112q-68 0 -116 48.5t-48 119.5q0 69 48 116.5t116 47.5q67 0 115.5 -48t48.5 -116q0 -71 -48.5 -119.5t-115.5 -48.5zM1051 514q0 -71 -15.5 -102
t-62.5 -31h-580q43 -139 234 -139q95 0 180 51q27 16 45 -4l119 -117q21 -20 -4 -45q-74 -72 -170 -113t-201 -41q-158 0 -281.5 70t-190.5 190t-67 267q0 146 67 266.5t184.5 190t260.5 69.5t254 -69.5t169.5 -185.5t58.5 -257zM573 743q-69 0 -119.5 -37.5t-66.5 -113.5
h363q-14 76 -62 113.5t-115 37.5z" />
    <glyph glyph-name="igrave" unicode="&#xec;" horiz-adv-x="512" 
d="M-31 1430h252q24 0 35 -25l123 -258q7 -17 0 -26t-25 -9h-252q-23 0 -34 25l-123 258q-15 35 24 35zM88 973q0 13 9 22t22 9h276q13 0 22 -9t9 -22v-942q0 -13 -9 -22t-22 -9h-276q-13 0 -22 9t-9 22v942z" />
    <glyph glyph-name="iacute" unicode="&#xed;" horiz-adv-x="512" 
d="M524 1430q18 0 25 -9t0 -26l-123 -258q-11 -25 -35 -25h-252q-39 0 -24 35l123 258q11 25 34 25h252zM88 973q0 13 9 22t22 9h276q13 0 22 -9t9 -22v-942q0 -13 -9 -22t-22 -9h-276q-13 0 -22 9t-9 22v942z" />
    <glyph glyph-name="icircumflex" unicode="&#xee;" horiz-adv-x="512" 
d="M354 1430q23 0 37 -17l205 -229q13 -12 7.5 -24.5t-25.5 -12.5h-172q-24 0 -37 16l-111 131l-111 -131q-13 -16 -36 -16h-172q-20 0 -26.5 12.5t5.5 24.5l207 229q14 17 37 17h192zM88 973q0 13 9 22t22 9h276q13 0 22 -9t9 -22v-942q0 -13 -9 -22t-22 -9h-276
q-13 0 -22 9t-9 22v942z" />
    <glyph glyph-name="idieresis" unicode="&#xef;" horiz-adv-x="512" 
d="M16 1112q-67 0 -115 48.5t-48 119.5q0 68 48 116t115 48q68 0 116 -47.5t48 -116.5q0 -71 -48 -119.5t-116 -48.5zM500 1112q-68 0 -116 48.5t-48 119.5q0 69 48 116.5t116 47.5q67 0 115.5 -48t48.5 -116q0 -71 -48.5 -119.5t-115.5 -48.5zM88 973q0 13 9 22t22 9h276
q13 0 22 -9t9 -22v-942q0 -13 -9 -22t-22 -9h-276q-13 0 -22 9t-9 22v942z" />
    <glyph glyph-name="eth" unicode="&#xf0;" horiz-adv-x="1179" 
d="M1137 1356q32 3 32 -29v-172q0 -30 -28 -33l-11 -2v-1089q0 -14 -8.5 -22.5t-21.5 -8.5h-250q-28 0 -31 31l-6 63q-116 -123 -274 -123q-205 0 -343.5 154t-138.5 375q0 145 62.5 266t173.5 191.5t246 70.5q143 0 254 -108v163l-136 -16q-32 -3 -32 29v172q0 29 28 32
l140 17v147q0 14 8.5 22.5t21.5 8.5h277q13 0 21.5 -8.5t8.5 -22.5v-108h7zM582 281q86 0 143 65t57 156q0 90 -57 153.5t-143 63.5t-142.5 -61.5t-56.5 -155.5t56.5 -157.5t142.5 -63.5z" />
    <glyph glyph-name="ntilde" unicode="&#xf1;" horiz-adv-x="1183" 
d="M205 1221q-21 0 -21 26q7 116 72 174t168 58q48 0 91.5 -15t76.5 -37t63 -44t62 -37t63 -15q35 0 62.5 16t36.5 39q7 15 22 15h76q20 0 20 -21q-4 -117 -69.5 -177t-171.5 -60q-57 0 -111 23t-88 50.5t-76.5 50.5t-79.5 23q-34 0 -60.5 -16t-37.5 -39q-7 -14 -22 -14h-76
zM729 1026q155 0 261 -121t106 -317v-557q0 -13 -9 -22t-22 -9h-277q-13 0 -21.5 8.5t-8.5 22.5v485q0 57 -14.5 97.5t-39.5 60.5t-51 28.5t-55 8.5q-44 0 -79 -19.5t-54 -48.5t-29 -56t-10 -48v-508q0 -13 -9 -22t-22 -9h-276q-13 0 -22 9t-9 22v942q0 13 9 22t22 9h268
q28 0 31 -31l8 -123q48 81 125 128.5t178 47.5z" />
    <glyph glyph-name="ograve" unicode="&#xf2;" horiz-adv-x="1165" 
d="M295 1430h252q24 0 35 -25l123 -258q7 -17 0 -26t-25 -9h-252q-24 0 -35 25l-123 258q-7 17 0 26t25 9zM584 -27q-143 0 -264.5 70t-192 191.5t-70.5 265.5q0 145 70.5 266t191.5 190.5t265 69.5q143 0 263.5 -69.5t191.5 -190.5t71 -266q0 -144 -71 -265.5t-192 -191.5
t-263 -70zM584 289q84 0 142 60t58 151q0 93 -58 153t-142 60t-142.5 -60.5t-58.5 -152.5q0 -91 58.5 -151t142.5 -60z" />
    <glyph glyph-name="oacute" unicode="&#xf3;" horiz-adv-x="1165" 
d="M850 1430q39 0 24 -35l-122 -258q-11 -25 -35 -25h-252q-18 0 -25 9t0 26l123 258q11 25 35 25h252zM584 -27q-143 0 -264.5 70t-192 191.5t-70.5 265.5q0 145 70.5 266t191.5 190.5t265 69.5q143 0 263.5 -69.5t191.5 -190.5t71 -266q0 -144 -71 -265.5t-192 -191.5
t-263 -70zM584 289q84 0 142 60t58 151q0 93 -58 153t-142 60t-142.5 -60.5t-58.5 -152.5q0 -91 58.5 -151t142.5 -60z" />
    <glyph glyph-name="ocircumflex" unicode="&#xf4;" horiz-adv-x="1165" 
d="M680 1430q23 0 37 -17l205 -229q12 -12 6.5 -24.5t-25.5 -12.5h-172q-24 0 -37 16l-110 131l-111 -131q-13 -16 -37 -16h-172q-20 0 -26 12.5t6 24.5l207 229q14 17 36 17h193zM584 -27q-143 0 -264.5 70t-192 191.5t-70.5 265.5q0 145 70.5 266t191.5 190.5t265 69.5
q143 0 263.5 -69.5t191.5 -190.5t71 -266q0 -144 -71 -265.5t-192 -191.5t-263 -70zM584 289q84 0 142 60t58 151q0 93 -58 153t-142 60t-142.5 -60.5t-58.5 -152.5q0 -91 58.5 -151t142.5 -60z" />
    <glyph glyph-name="otilde" unicode="&#xf5;" horiz-adv-x="1165" 
d="M416 1479q48 0 91.5 -15t76.5 -37t63 -44t62 -37t63 -15q35 0 61.5 16t36.5 39q8 15 23 15h76q20 0 20 -21q-4 -117 -69.5 -177t-171.5 -60q-57 0 -111 23t-88 50.5t-76.5 50.5t-79.5 23q-34 0 -60.5 -16t-37.5 -39q-7 -14 -23 -14h-75q-21 0 -21 26q7 116 72 174t168 58
zM584 -27q-143 0 -264.5 70t-192 191.5t-70.5 265.5q0 145 70.5 266t191.5 190.5t265 69.5q143 0 263.5 -69.5t191.5 -190.5t71 -266q0 -144 -71 -265.5t-192 -191.5t-263 -70zM584 289q84 0 142 60t58 151q0 93 -58 153t-142 60t-142.5 -60.5t-58.5 -152.5q0 -91 58.5 -151
t142.5 -60z" />
    <glyph glyph-name="odieresis" unicode="&#xf6;" horiz-adv-x="1165" 
d="M342 1112q-67 0 -115.5 48.5t-48.5 119.5q0 68 48.5 116t115.5 48q68 0 116 -47.5t48 -116.5q0 -71 -48 -119.5t-116 -48.5zM825 1112q-68 0 -115.5 48.5t-47.5 119.5q0 69 47.5 116.5t115.5 47.5q67 0 115.5 -48t48.5 -116q0 -71 -48.5 -119.5t-115.5 -48.5zM584 -27
q-143 0 -264.5 70t-192 191.5t-70.5 265.5q0 145 70.5 266t191.5 190.5t265 69.5q143 0 263.5 -69.5t191.5 -190.5t71 -266q0 -144 -71 -265.5t-192 -191.5t-263 -70zM584 289q84 0 142 60t58 151q0 93 -58 153t-142 60t-142.5 -60.5t-58.5 -152.5q0 -91 58.5 -151
t142.5 -60z" />
    <glyph glyph-name="divide" unicode="&#xf7;" horiz-adv-x="1038" 
d="M518 752q-74 0 -126 52t-52 126t52 126t126 52t126 -52t52 -126t-52 -126t-126 -52zM895 707q13 0 22 -8.5t9 -22.5v-180q0 -14 -9 -22.5t-22 -8.5h-752q-13 0 -21.5 8.5t-8.5 22.5v180q0 14 8.5 22.5t21.5 8.5h752zM518 31q-74 0 -126 52.5t-52 125.5t52 125.5t126 52.5
t126 -52.5t52 -125.5t-52 -125.5t-126 -52.5z" />
    <glyph glyph-name="oslash" unicode="&#xf8;" horiz-adv-x="1165" 
d="M907 915q94 -72 148.5 -181t54.5 -234q0 -144 -71 -265.5t-192 -191.5t-263 -70q-46 0 -92 9l-46 -103q-7 -22 -34 -22h-211q-17 0 -23.5 10t0.5 27l84 188q-95 73 -150 182.5t-55 235.5q0 145 70.5 266t191.5 190.5t265 69.5q53 0 94 -8l45 102q8 23 35 23h211
q17 0 23 -10t-1 -27zM383 500q0 -52 20 -97l138 306q-69 -15 -113.5 -72t-44.5 -137zM631 295q67 15 110 71.5t43 133.5q0 55 -20 96z" />
    <glyph glyph-name="ugrave" unicode="&#xf9;" horiz-adv-x="1173" 
d="M391 1137l-123 258q-7 17 0 26t25 9h252q24 0 35 -25l122 -258q15 -35 -24 -35h-252q-24 0 -35 25zM1055 1004q13 0 21.5 -8.5t8.5 -22.5v-942q0 -14 -8.5 -22.5t-21.5 -8.5h-269q-27 0 -30 31l-8 108q-53 -77 -126.5 -121.5t-158.5 -44.5q-169 0 -277 120t-108 319v561
q0 13 9 22t22 9h276q13 0 22 -9t9 -22v-490q0 -57 16 -97t42 -59.5t51.5 -27.5t52.5 -8q83 0 126.5 49t43.5 115v518q0 14 8.5 22.5t21.5 8.5h277z" />
    <glyph glyph-name="uacute" unicode="&#xfa;" horiz-adv-x="1173" 
d="M463 1112q-18 0 -25 9t0 26l123 258q11 25 35 25h252q39 0 24 -35l-122 -258q-11 -25 -35 -25h-252zM1055 1004q13 0 21.5 -8.5t8.5 -22.5v-942q0 -14 -8.5 -22.5t-21.5 -8.5h-269q-27 0 -30 31l-8 108q-53 -77 -126.5 -121.5t-158.5 -44.5q-169 0 -277 120t-108 319v561
q0 13 9 22t22 9h276q13 0 22 -9t9 -22v-490q0 -57 16 -97t42 -59.5t51.5 -27.5t52.5 -8q83 0 126.5 49t43.5 115v518q0 14 8.5 22.5t21.5 8.5h277z" />
    <glyph glyph-name="ucircumflex" unicode="&#xfb;" horiz-adv-x="1173" 
d="M262 1147q-20 0 -26 12.5t6 24.5l207 229q14 17 36 17h193q23 0 37 -17l205 -229q12 -12 6.5 -24.5t-25.5 -12.5h-172q-24 0 -37 16l-110 131l-111 -131q-13 -16 -37 -16h-172zM1055 1004q13 0 21.5 -8.5t8.5 -22.5v-942q0 -14 -8.5 -22.5t-21.5 -8.5h-269q-27 0 -30 31
l-8 108q-53 -77 -126.5 -121.5t-158.5 -44.5q-169 0 -277 120t-108 319v561q0 13 9 22t22 9h276q13 0 22 -9t9 -22v-490q0 -57 16 -97t42 -59.5t51.5 -27.5t52.5 -8q83 0 126.5 49t43.5 115v518q0 14 8.5 22.5t21.5 8.5h277z" />
    <glyph glyph-name="udieresis" unicode="&#xfc;" horiz-adv-x="1173" 
d="M340 1112q-67 0 -115.5 48.5t-48.5 119.5q0 68 48.5 116t115.5 48q68 0 116 -47.5t48 -116.5q0 -71 -48 -119.5t-116 -48.5zM823 1112q-68 0 -116 48.5t-48 119.5q0 69 48 116.5t116 47.5q67 0 115.5 -48t48.5 -116q0 -71 -48.5 -119.5t-115.5 -48.5zM1055 1004
q13 0 21.5 -8.5t8.5 -22.5v-942q0 -14 -8.5 -22.5t-21.5 -8.5h-269q-27 0 -30 31l-8 108q-53 -77 -126.5 -121.5t-158.5 -44.5q-169 0 -277 120t-108 319v561q0 13 9 22t22 9h276q13 0 22 -9t9 -22v-490q0 -57 16 -97t42 -59.5t51.5 -27.5t52.5 -8q83 0 126.5 49t43.5 115
v518q0 14 8.5 22.5t21.5 8.5h277z" />
    <glyph glyph-name="yacute" unicode="&#xfd;" horiz-adv-x="1183" 
d="M856 1430q18 0 25 -9t0 -26l-123 -258q-11 -25 -35 -25h-252q-18 0 -25 9t0 26l123 258q11 25 35 25h252zM1118 1004q37 0 25 -35l-531 -1334q-9 -24 -37 -24h-270q-39 0 -24 35l147 352l-387 971q-12 35 25 35h278q28 0 37 -25l209 -580l209 580q9 25 37 25h282z" />
    <glyph glyph-name="thorn" unicode="&#xfe;" horiz-adv-x="1222" 
d="M684 1028q205 0 343 -153.5t138 -374.5q0 -145 -62 -266t-173 -192t-246 -71h-2h-4q-141 0 -246 95v-424q0 -14 -9 -22.5t-22 -8.5h-276q-13 0 -22 8.5t-9 22.5v366q-8 8 -8 23v1433q0 14 9 22.5t22 8.5h276q13 0 22 -8.5t9 -22.5v-544q111 108 254 108h4h2zM440 502
q0 -90 56.5 -155t142.5 -66q84 1 139.5 64.5t55.5 156.5q0 92 -55 154t-140 63q-86 -1 -142.5 -64.5t-56.5 -152.5z" />
    <glyph glyph-name="ydieresis" unicode="&#xff;" horiz-adv-x="1183" 
d="M348 1112q-67 0 -115.5 48.5t-48.5 119.5q0 68 48.5 116t115.5 48q68 0 116 -47.5t48 -116.5q0 -71 -48 -119.5t-116 -48.5zM831 1112q-68 0 -115.5 48.5t-47.5 119.5q0 69 47.5 116.5t115.5 47.5q67 0 115.5 -48t48.5 -116q0 -71 -48.5 -119.5t-115.5 -48.5zM1118 1004
q37 0 25 -35l-531 -1334q-9 -24 -37 -24h-270q-39 0 -24 35l147 352l-387 971q-12 35 25 35h278q28 0 37 -25l209 -580l209 580q9 25 37 25h282z" />
    <glyph glyph-name="Amacron" unicode="&#x100;" horiz-adv-x="1404" 
d="M387 1602q-14 0 -22.5 8.5t-8.5 21.5v197q0 13 9 22t22 9h649q14 0 22.5 -9t8.5 -22v-197q0 -13 -8.5 -21.5t-22.5 -8.5h-649zM1366 35q6 -15 -1 -25t-24 -10h-301q-26 0 -34 25l-68 208h-471l-66 -208q-8 -25 -34 -25h-301q-17 0 -24 10t-1 25l494 1374q9 25 34 25h262
q30 0 39 -25zM561 528h283l-142 443z" />
    <glyph glyph-name="amacron" unicode="&#x101;" 
d="M260 1171q-14 0 -22.5 8.5t-8.5 22.5v197q0 13 8.5 22t22.5 9h649q13 0 22 -9t9 -22v-197q0 -14 -9 -22.5t-22 -8.5h-649zM1100 1004q13 0 21.5 -8.5t8.5 -22.5v-942q0 -14 -8.5 -22.5t-21.5 -8.5h-250q-28 0 -31 31l-6 63q-116 -123 -274 -123q-205 0 -343.5 154
t-138.5 375q0 145 62.5 266t173.5 191.5t246 70.5q156 0 274 -131l6 76q3 31 31 31h250zM582 281q86 0 143 65t57 156q0 90 -57 153.5t-143 63.5t-142.5 -61.5t-56.5 -155.5t56.5 -157.5t142.5 -63.5z" />
    <glyph glyph-name="Abreve" unicode="&#x102;" horiz-adv-x="1404" 
d="M713 1559q-148 0 -238.5 78t-101.5 194q-3 31 28 31h138q26 0 32 -29q12 -36 48 -63t94 -27t93 27t46 63q6 29 33 29h137q32 0 29 -31q-11 -116 -100.5 -194t-237.5 -78zM1366 35q6 -15 -1 -25t-24 -10h-301q-26 0 -34 25l-68 208h-471l-66 -208q-8 -25 -34 -25h-301
q-17 0 -24 10t-1 25l494 1374q9 25 34 25h262q30 0 39 -25zM561 528h283l-142 443z" />
    <glyph glyph-name="abreve" unicode="&#x103;" 
d="M586 1128q-148 0 -238.5 78.5t-101.5 194.5q-3 31 28 31h138q26 0 32 -29q12 -36 48 -63t94 -27t93 27t46 63q6 29 33 29h137q32 0 29 -31q-11 -116 -101 -194.5t-237 -78.5zM1100 1004q13 0 21.5 -8.5t8.5 -22.5v-942q0 -14 -8.5 -22.5t-21.5 -8.5h-250q-28 0 -31 31
l-6 63q-116 -123 -274 -123q-205 0 -343.5 154t-138.5 375q0 145 62.5 266t173.5 191.5t246 70.5q156 0 274 -131l6 76q3 31 31 31h250zM582 281q86 0 143 65t57 156q0 90 -57 153.5t-143 63.5t-142.5 -61.5t-56.5 -155.5t56.5 -157.5t142.5 -63.5z" />
    <glyph glyph-name="Aogonek" unicode="&#x104;" horiz-adv-x="1404" 
d="M1366 35q6 -15 -1 -25t-24 -10h-6q-78 0 -119.5 -43.5t-41.5 -97.5q0 -31 26.5 -52.5t87.5 -9.5v-203q-39 -17 -89.5 -22t-102 5.5t-95 34.5t-71 71t-27.5 110q0 121 115 213q-9 6 -12 19l-68 208h-471l-66 -208q-8 -25 -34 -25h-301q-17 0 -24 10t-1 25l494 1374
q9 25 34 25h262q30 0 39 -25l463 -1286h2v-2zM561 528h283l-142 443z" />
    <glyph glyph-name="aogonek" unicode="&#x105;" horiz-adv-x="1214" 
d="M1100 1004q13 0 21.5 -8.5t8.5 -22.5v-942q0 -14 -8.5 -22.5t-21.5 -8.5h-45q-74 0 -118 -44t-44 -97q0 -31 27 -52.5t88 -9.5v-203q-39 -17 -89.5 -22t-102 5.5t-95 34.5t-71 71t-27.5 110q0 86 54.5 153t139.5 111l-4 37q-116 -123 -274 -123q-205 0 -343.5 154
t-138.5 375q0 145 62.5 266t173.5 191.5t246 70.5q156 0 274 -131l6 76q3 31 31 31h250zM582 281q86 0 143 65t57 156q0 90 -57 153.5t-143 63.5t-142.5 -61.5t-56.5 -155.5t56.5 -157.5t142.5 -63.5z" />
    <glyph glyph-name="Cacute" unicode="&#x106;" horiz-adv-x="1388" 
d="M1065 1860q18 0 25 -9t0 -26l-123 -258q-11 -25 -35 -25h-252q-18 0 -25 9t0 26l123 258q11 25 35 25h252zM1145 422l178 -193q17 -24 0 -43q-95 -101 -227 -157t-283 -56q-152 0 -290 58t-237.5 156t-158.5 235t-59 289q0 153 59 290.5t158.5 235.5t237.5 155.5
t290 57.5q151 0 283.5 -55.5t226.5 -157.5q18 -18 0 -43l-178 -193q-7 -10 -20 -10.5t-23 8.5q-126 109 -293 109q-162 0 -271.5 -113.5t-109.5 -283.5q0 -167 110 -280.5t271 -113.5q171 0 293 109q11 9 23 8t20 -12z" />
    <glyph glyph-name="cacute" unicode="&#x107;" horiz-adv-x="1146" 
d="M895 1491q18 0 25 -9t0 -26l-123 -258q-11 -24 -35 -24h-252q-40 0 -25 34l123 258q11 25 35 25h252zM582 289q94 0 172 67q26 19 45 0l168 -161q21 -21 2 -43q-72 -83 -175.5 -131t-220.5 -48q-107 0 -202.5 41t-164 111.5t-109 168t-40.5 206.5q0 145 68 266t187 190.5
t261 69.5q114 0 216 -47.5t174 -130.5q19 -22 -2 -43l-168 -164q-19 -19 -45 4q-79 68 -166 68t-143 -61t-56 -152q0 -90 56 -150.5t143 -60.5z" />
    <glyph glyph-name="Cdotaccent" unicode="&#x10a;" horiz-adv-x="1388" 
d="M799 1542q-67 0 -115.5 48.5t-48.5 119.5q0 68 48.5 116t115.5 48q68 0 116 -47.5t48 -116.5q0 -71 -48 -119.5t-116 -48.5zM1145 422l178 -193q17 -24 0 -43q-95 -101 -227 -157t-283 -56q-152 0 -290 58t-237.5 156t-158.5 235t-59 289q0 153 59 290.5t158.5 235.5
t237.5 155.5t290 57.5q151 0 283.5 -55.5t226.5 -157.5q18 -18 0 -43l-178 -193q-7 -10 -20 -10.5t-23 8.5q-126 109 -293 109q-162 0 -271.5 -113.5t-109.5 -283.5q0 -167 110 -280.5t271 -113.5q171 0 293 109q11 9 23 8t20 -12z" />
    <glyph glyph-name="cdotaccent" unicode="&#x10b;" horiz-adv-x="1146" 
d="M602 1112q-67 0 -115.5 48.5t-48.5 119.5q0 68 48.5 116t115.5 48q68 0 116 -47.5t48 -116.5q0 -71 -48 -119.5t-116 -48.5zM582 289q94 0 172 67q26 19 45 0l168 -161q21 -21 2 -43q-72 -83 -175.5 -131t-220.5 -48q-107 0 -202.5 41t-164 111.5t-109 168t-40.5 206.5
q0 145 68 266t187 190.5t261 69.5q114 0 216 -47.5t174 -130.5q19 -22 -2 -43l-168 -164q-19 -19 -45 4q-79 68 -166 68t-143 -61t-56 -152q0 -90 56 -150.5t143 -60.5z" />
    <glyph glyph-name="Ccaron" unicode="&#x10c;" horiz-adv-x="1388" 
d="M895 1577h-193q-23 0 -36 16l-207 230q-12 12 -6 24.5t26 12.5h172q23 0 37 -17l111 -131l110 131q14 17 37 17h172q20 0 25.5 -12.5t-6.5 -24.5l-205 -230q-13 -16 -37 -16zM1145 422l178 -193q17 -24 0 -43q-95 -101 -227 -157t-283 -56q-152 0 -290 58t-237.5 156
t-158.5 235t-59 289q0 153 59 290.5t158.5 235.5t237.5 155.5t290 57.5q151 0 283.5 -55.5t226.5 -157.5q18 -18 0 -43l-178 -193q-7 -10 -20 -10.5t-23 8.5q-126 109 -293 109q-162 0 -271.5 -113.5t-109.5 -283.5q0 -167 110 -280.5t271 -113.5q171 0 293 109q11 9 23 8
t20 -12z" />
    <glyph glyph-name="ccaron" unicode="&#x10d;" horiz-adv-x="1146" 
d="M631 1151h-193q-24 0 -37 16l-206 230q-12 12 -6 24.5t26 12.5h172q23 0 37 -17l111 -131l110 131q14 17 37 17h172q20 0 25.5 -12.5t-7.5 -24.5l-204 -230q-13 -16 -37 -16zM582 289q94 0 172 67q26 19 45 0l168 -161q21 -21 2 -43q-72 -83 -175.5 -131t-220.5 -48
q-107 0 -202.5 41t-164 111.5t-109 168t-40.5 206.5q0 145 68 266t187 190.5t261 69.5q114 0 216 -47.5t174 -130.5q19 -22 -2 -43l-168 -164q-19 -19 -45 4q-79 68 -166 68t-143 -61t-56 -152q0 -90 56 -150.5t143 -60.5z" />
    <glyph glyph-name="Dcaron" unicode="&#x10e;" horiz-adv-x="1398" 
d="M545 1593l-207 230q-12 12 -6 24.5t26 12.5h172q23 0 37 -17l111 -131l110 131q14 17 37 17h172q20 0 25.5 -12.5t-6.5 -24.5l-205 -230q-13 -16 -37 -16h-192q-24 0 -37 16zM590 1434q178 0 322 -56t237 -154t142.5 -227.5t49.5 -279.5q0 -149 -49.5 -278.5
t-142.5 -227.5t-237 -154.5t-322 -56.5h-451q-13 0 -21.5 8.5t-8.5 22.5v1372q0 14 8.5 22.5t21.5 8.5h451zM590 307q196 0 296.5 106t100.5 304q0 199 -100 304t-297 105h-131v-819h131z" />
    <glyph glyph-name="dcaron" unicode="&#x10f;" horiz-adv-x="1619" 
d="M1100 1495q13 0 21.5 -8.5t8.5 -22.5v-1433q0 -14 -8.5 -22.5t-21.5 -8.5h-250q-28 0 -31 31l-6 63q-116 -123 -274 -123q-205 0 -343.5 154t-138.5 375q0 145 62.5 266t173.5 191.5t246 70.5q143 0 254 -108v544q0 14 8.5 22.5t21.5 8.5h277zM1614 1495q39 0 24 -35
l-122 -258q-11 -24 -35 -24h-252q-40 0 -25 34l123 258q11 25 35 25h252zM582 281q86 0 143 65t57 156q0 90 -57 153.5t-143 63.5t-142.5 -61.5t-56.5 -155.5t56.5 -157.5t142.5 -63.5z" />
    <glyph glyph-name="Dcroat" unicode="&#x110;" horiz-adv-x="1415" 
d="M606 1434q178 0 322 -56t237 -154t143 -227.5t50 -279.5q0 -149 -50 -279t-143 -227.5t-237 -154t-322 -56.5h-450q-14 0 -22.5 9t-8.5 22v540h-64q-13 0 -21.5 8.5t-8.5 22.5v197q0 13 8.5 21.5t21.5 8.5h64v574q0 13 8.5 22t22.5 9h450zM606 307q196 0 297 106t101 304
q0 199 -100.5 304t-297.5 105h-131v-297h236q13 0 21.5 -8.5t8.5 -21.5v-197q0 -14 -8.5 -22.5t-21.5 -8.5h-236v-264h131z" />
    <glyph glyph-name="dcroat" unicode="&#x111;" horiz-adv-x="1234" 
d="M1194 1333q14 0 22.5 -8.5t8.5 -21.5v-197q0 -14 -8.5 -22.5t-22.5 -8.5h-64v-1044q0 -14 -8.5 -22.5t-21.5 -8.5h-250q-28 0 -31 31l-6 63q-116 -123 -274 -123q-205 0 -343.5 154t-138.5 375q0 145 62.5 266t173.5 191.5t246 70.5q143 0 254 -108v155h-248
q-13 0 -22 8.5t-9 22.5v197q0 13 8.5 21.5t22.5 8.5h248v131q0 14 8.5 22.5t21.5 8.5h277q13 0 21.5 -8.5t8.5 -22.5v-131h64zM582 281q86 0 143 65t57 156q0 90 -57 153.5t-143 63.5t-142.5 -61.5t-56.5 -155.5t56.5 -157.5t142.5 -63.5z" />
    <glyph glyph-name="Emacron" unicode="&#x112;" horiz-adv-x="1054" 
d="M862 1860q14 0 22.5 -9t8.5 -22v-197q0 -13 -8.5 -21.5t-22.5 -8.5h-649q-14 0 -22.5 8.5t-8.5 21.5v197q0 13 9 22t22 9h649zM922 307q13 0 21.5 -8.5t8.5 -22.5v-245q0 -14 -8.5 -22.5t-21.5 -8.5h-783q-13 0 -21.5 8.5t-8.5 22.5v1372q0 14 8.5 22.5t21.5 8.5h781
q13 0 21.5 -8.5t8.5 -22.5v-246q0 -14 -8.5 -22.5t-21.5 -8.5h-461v-245h432q13 0 22 -8.5t9 -22.5v-246q0 -14 -9 -22.5t-22 -8.5h-432v-266h463z" />
    <glyph glyph-name="emacron" unicode="&#x113;" horiz-adv-x="1105" 
d="M231 1171q-13 0 -21.5 8.5t-8.5 22.5v197q0 14 8.5 22.5t21.5 8.5h650q13 0 21.5 -8.5t8.5 -22.5v-197q0 -14 -8.5 -22.5t-21.5 -8.5h-650zM1051 514q0 -71 -15.5 -102t-62.5 -31h-580q43 -139 234 -139q95 0 180 51q27 16 45 -4l119 -117q21 -20 -4 -45
q-74 -72 -170 -113t-201 -41q-158 0 -281.5 70t-190.5 190t-67 267q0 146 67 266.5t184.5 190t260.5 69.5t254 -69.5t169.5 -185.5t58.5 -257zM573 743q-69 0 -119.5 -37.5t-66.5 -113.5h363q-14 76 -62 113.5t-115 37.5z" />
    <glyph glyph-name="Edotaccent" unicode="&#x116;" horiz-adv-x="1054" 
d="M539 1542q-67 0 -115.5 48.5t-48.5 119.5q0 68 48.5 116t115.5 48q68 0 115.5 -47.5t47.5 -116.5q0 -71 -47.5 -119.5t-115.5 -48.5zM922 307q13 0 21.5 -8.5t8.5 -22.5v-245q0 -14 -8.5 -22.5t-21.5 -8.5h-783q-13 0 -21.5 8.5t-8.5 22.5v1372q0 14 8.5 22.5t21.5 8.5
h781q13 0 21.5 -8.5t8.5 -22.5v-246q0 -14 -8.5 -22.5t-21.5 -8.5h-461v-245h432q13 0 22 -8.5t9 -22.5v-246q0 -14 -9 -22.5t-22 -8.5h-432v-266h463z" />
    <glyph glyph-name="edotaccent" unicode="&#x117;" horiz-adv-x="1105" 
d="M557 1112q-67 0 -115.5 48.5t-48.5 119.5q0 68 48.5 116t115.5 48q68 0 116 -47.5t48 -116.5q0 -71 -48 -119.5t-116 -48.5zM1051 514q0 -71 -15.5 -102t-62.5 -31h-580q43 -139 234 -139q95 0 180 51q27 16 45 -4l119 -117q21 -20 -4 -45q-74 -72 -170 -113t-201 -41
q-158 0 -281.5 70t-190.5 190t-67 267q0 146 67 266.5t184.5 190t260.5 69.5t254 -69.5t169.5 -185.5t58.5 -257zM573 743q-69 0 -119.5 -37.5t-66.5 -113.5h363q-14 76 -62 113.5t-115 37.5z" />
    <glyph glyph-name="Eogonek" unicode="&#x118;" horiz-adv-x="1054" 
d="M922 307q13 0 21.5 -8.5t8.5 -22.5v-245q0 -14 -8.5 -22.5t-21.5 -8.5h-72q-36 -19 -55 -52.5t-19 -68.5q0 -31 27 -52t88 -9v-203q-39 -17 -89.5 -22t-102 5.5t-95 34.5t-71 71t-27.5 110q0 102 84 186h-451q-13 0 -21.5 8.5t-8.5 22.5v1372q0 14 8.5 22.5t21.5 8.5h781
q13 0 21.5 -8.5t8.5 -22.5v-246q0 -14 -8.5 -22.5t-21.5 -8.5h-461v-245h432q13 0 22 -8.5t9 -22.5v-246q0 -14 -9 -22.5t-22 -8.5h-432v-266h463z" />
    <glyph glyph-name="eogonek" unicode="&#x119;" horiz-adv-x="1105" 
d="M1051 514q0 -71 -15.5 -102t-62.5 -31h-580q43 -139 234 -139q95 0 180 51q27 16 45 -4l119 -117q21 -20 -4 -45q-85 -85 -207 -127q-7 -2 -22.5 -6t-22.5 -6q-137 -48 -137 -135q0 -34 26 -56t88 -10v-203q-39 -17 -89.5 -22t-102 5.5t-95 34.5t-71 71t-27.5 110
q0 125 121 213q-170 49 -270.5 186.5t-100.5 317.5q0 146 67 266.5t184.5 190t260.5 69.5t254 -69.5t169.5 -185.5t58.5 -257zM573 743q-69 0 -119.5 -37.5t-66.5 -113.5h363q-14 76 -62 113.5t-115 37.5z" />
    <glyph glyph-name="Ecaron" unicode="&#x11a;" horiz-adv-x="1054" 
d="M635 1577h-193q-23 0 -36 16l-207 230q-12 12 -6 24.5t26 12.5h172q23 0 37 -17l111 -131l110 131q14 17 37 17h172q20 0 25.5 -12.5t-6.5 -24.5l-205 -230q-13 -16 -37 -16zM922 307q13 0 21.5 -8.5t8.5 -22.5v-245q0 -14 -8.5 -22.5t-21.5 -8.5h-783q-13 0 -21.5 8.5
t-8.5 22.5v1372q0 14 8.5 22.5t21.5 8.5h781q13 0 21.5 -8.5t8.5 -22.5v-246q0 -14 -8.5 -22.5t-21.5 -8.5h-461v-245h432q13 0 22 -8.5t9 -22.5v-246q0 -14 -9 -22.5t-22 -8.5h-432v-266h463z" />
    <glyph glyph-name="ecaron" unicode="&#x11b;" horiz-adv-x="1105" 
d="M424 1163l-207 230q-12 12 -5.5 24.5t26.5 12.5h172q22 0 36 -17l111 -131l111 131q14 17 37 17h172q20 0 25.5 -12.5t-7.5 -24.5l-205 -230q-13 -16 -37 -16h-192q-24 0 -37 16zM1051 514q0 -71 -15.5 -102t-62.5 -31h-580q43 -139 234 -139q95 0 180 51q27 16 45 -4
l119 -117q21 -20 -4 -45q-74 -72 -170 -113t-201 -41q-158 0 -281.5 70t-190.5 190t-67 267q0 146 67 266.5t184.5 190t260.5 69.5t254 -69.5t169.5 -185.5t58.5 -257zM573 743q-69 0 -119.5 -37.5t-66.5 -113.5h363q-14 76 -62 113.5t-115 37.5z" />
    <glyph glyph-name="Gbreve" unicode="&#x11e;" horiz-adv-x="1519" 
d="M809 1559q-148 0 -238.5 78t-101.5 194q-3 31 29 31h137q27 0 33 -29q12 -36 47.5 -63t93.5 -27t93 27t46 63q6 29 33 29h137q32 0 29 -31q-11 -116 -100.5 -194t-237.5 -78zM1432 836q13 0 21.5 -8.5t8.5 -22.5v-156q0 -138 -43.5 -260t-123.5 -215t-202.5 -147
t-271.5 -54q-152 0 -291 58.5t-240.5 157.5t-161.5 237.5t-60 290.5q0 151 59 287t158.5 233.5t237.5 155t290 57.5q151 0 283.5 -55.5t226.5 -157.5q18 -18 0 -43l-178 -193q-7 -10 -20 -10.5t-23 8.5q-126 109 -293 109q-161 0 -271 -112.5t-110 -278.5q0 -171 109 -285.5
t280 -114.5q141 0 218.5 67.5t82.5 162.5h-293q-13 0 -21.5 8.5t-8.5 22.5v227q0 14 8.5 22.5t21.5 8.5h607z" />
    <glyph glyph-name="gbreve" unicode="&#x11f;" 
d="M610 1128q-148 0 -238.5 78.5t-101.5 194.5q-3 31 29 31h137q27 0 33 -29q12 -36 47.5 -63t93.5 -27t94 27t46 63q6 29 32 29h138q31 0 28 -31q-11 -116 -101 -194.5t-237 -78.5zM1100 1004q13 0 21.5 -8.5t8.5 -22.5v-967q0 -94 -34.5 -167.5t-89 -118.5t-127.5 -74.5
t-143.5 -40.5t-143.5 -11q-131 0 -253 38t-208 100q-19 16 -6 41l90 159q17 27 41 13q136 -78 307 -78q40 0 80 7.5t82.5 24.5t69 53.5t26.5 86.5v80q-120 -127 -282 -127q-135 0 -246 70t-173.5 189t-62.5 259t62.5 259t173.5 189t246 70q154 0 276 -125l4 70q3 31 31 31
h250zM582 301q85 0 142.5 63.5t57.5 147.5q0 82 -57.5 144.5t-142.5 62.5t-142 -60t-57 -147t57 -149t142 -62z" />
    <glyph glyph-name="Gdotaccent" unicode="&#x120;" horiz-adv-x="1519" 
d="M809 1542q-67 0 -115.5 48.5t-48.5 119.5q0 68 48.5 116t115.5 48q68 0 116 -47.5t48 -116.5q0 -71 -48 -119.5t-116 -48.5zM1432 836q13 0 21.5 -8.5t8.5 -22.5v-156q0 -138 -43.5 -260t-123.5 -215t-202.5 -147t-271.5 -54q-152 0 -291 58.5t-240.5 157.5t-161.5 237.5
t-60 290.5q0 151 59 287t158.5 233.5t237.5 155t290 57.5q151 0 283.5 -55.5t226.5 -157.5q18 -18 0 -43l-178 -193q-7 -10 -20 -10.5t-23 8.5q-126 109 -293 109q-161 0 -271 -112.5t-110 -278.5q0 -171 109 -285.5t280 -114.5q141 0 218.5 67.5t82.5 162.5h-293
q-13 0 -21.5 8.5t-8.5 22.5v227q0 14 8.5 22.5t21.5 8.5h607z" />
    <glyph glyph-name="gdotaccent" unicode="&#x121;" 
d="M610 1112q-67 0 -115.5 48.5t-48.5 119.5q0 68 48.5 116t115.5 48q68 0 116 -47.5t48 -116.5q0 -71 -48 -119.5t-116 -48.5zM1100 1004q13 0 21.5 -8.5t8.5 -22.5v-967q0 -94 -34.5 -167.5t-89 -118.5t-127.5 -74.5t-143.5 -40.5t-143.5 -11q-131 0 -253 38t-208 100
q-19 16 -6 41l90 159q17 27 41 13q136 -78 307 -78q40 0 80 7.5t82.5 24.5t69 53.5t26.5 86.5v80q-120 -127 -282 -127q-135 0 -246 70t-173.5 189t-62.5 259t62.5 259t173.5 189t246 70q154 0 276 -125l4 70q3 31 31 31h250zM582 301q85 0 142.5 63.5t57.5 147.5
q0 82 -57.5 144.5t-142.5 62.5t-142 -60t-57 -147t57 -149t142 -62z" />
    <glyph glyph-name="Gcommaaccent" unicode="&#x122;" horiz-adv-x="1519" 
d="M1432 836q13 0 21.5 -8.5t8.5 -22.5v-156q0 -138 -43.5 -260t-123.5 -215t-202.5 -147t-271.5 -54q-152 0 -291 58.5t-240.5 157.5t-161.5 237.5t-60 290.5q0 151 59 287t158.5 233.5t237.5 155t290 57.5q151 0 283.5 -55.5t226.5 -157.5q18 -18 0 -43l-178 -193
q-7 -10 -20 -10.5t-23 8.5q-126 109 -293 109q-161 0 -271 -112.5t-110 -278.5q0 -171 109 -285.5t280 -114.5q141 0 218.5 67.5t82.5 162.5h-293q-13 0 -21.5 8.5t-8.5 22.5v227q0 14 8.5 22.5t21.5 8.5h607zM774 -78q75 0 127.5 -55.5t52.5 -142.5q0 -101 -46 -198.5
t-99 -158.5q-12 -12 -31 -12h-28q-12 0 -17.5 8.5t0.5 22.5q41 90 41 180q-74 0 -126 52t-52 126t52 126t126 52z" />
    <glyph glyph-name="gcommaaccent" unicode="&#x123;" 
d="M602 1118q-75 0 -127.5 56t-52.5 143q0 101 46 198t99 158q13 13 31 13h29q12 0 17 -9t-1 -22q-41 -90 -41 -180q73 0 125.5 -52.5t52.5 -126.5t-52 -126t-126 -52zM1100 1004q13 0 21.5 -8.5t8.5 -22.5v-967q0 -94 -34.5 -167.5t-89 -118.5t-127.5 -74.5t-143.5 -40.5
t-143.5 -11q-131 0 -253 38t-208 100q-19 16 -6 41l90 159q17 27 41 13q136 -78 307 -78q40 0 80 7.5t82.5 24.5t69 53.5t26.5 86.5v80q-120 -127 -282 -127q-135 0 -246 70t-173.5 189t-62.5 259t62.5 259t173.5 189t246 70q154 0 276 -125l4 70q3 31 31 31h250zM582 301
q85 0 142.5 63.5t57.5 147.5q0 82 -57.5 144.5t-142.5 62.5t-142 -60t-57 -147t57 -149t142 -62z" />
    <glyph glyph-name="Hbar" unicode="&#x126;" horiz-adv-x="1380" 
d="M1243 1434q13 0 22 -9t9 -22v-1372q0 -13 -9 -22t-22 -9h-289q-13 0 -21.5 8.5t-8.5 22.5v516h-465v-516q0 -13 -8.5 -22t-22.5 -9h-289q-13 0 -21.5 8.5t-8.5 22.5v1372q0 14 8.5 22.5t21.5 8.5h289q14 0 22.5 -9t8.5 -22v-172h465v172q0 14 8.5 22.5t21.5 8.5h289z
M459 854h465v98h-465v-98z" />
    <glyph glyph-name="hbar" unicode="&#x127;" horiz-adv-x="1208" 
d="M756 1026q155 0 260.5 -121t105.5 -317v-557q0 -14 -8.5 -22.5t-21.5 -8.5h-277q-13 0 -22 9t-9 22v485q0 57 -14.5 97.5t-39.5 60.5t-50.5 28.5t-54.5 8.5q-44 0 -79 -19.5t-54 -48.5t-29 -56t-10 -48v-508q0 -13 -8.5 -22t-22.5 -9h-277q-13 0 -21.5 8.5t-8.5 22.5
v1011h-74q-13 0 -22 9t-9 22v197q0 13 8.5 21.5t22.5 8.5h74v164q0 14 8.5 22.5t21.5 8.5h277q14 0 22.5 -8.5t8.5 -22.5v-164h237q14 0 22.5 -8.5t8.5 -21.5v-197q0 -13 -8.5 -22t-22.5 -9h-237v-192q48 81 125 128.5t178 47.5z" />
    <glyph glyph-name="Imacron" unicode="&#x12a;" horiz-adv-x="565" 
d="M606 1860q14 0 22.5 -9t8.5 -22v-197q0 -13 -8.5 -21.5t-22.5 -8.5h-649q-14 0 -22.5 8.5t-8.5 21.5v197q0 13 9 22t22 9h649zM109 1403q0 14 8.5 22.5t21.5 8.5h289q14 0 22.5 -9t8.5 -22v-1372q0 -13 -8.5 -22t-22.5 -9h-289q-13 0 -21.5 8.5t-8.5 22.5v1372z" />
    <glyph glyph-name="imacron" unicode="&#x12b;" horiz-adv-x="512" 
d="M582 1430q13 0 21.5 -8.5t8.5 -22.5v-197q0 -14 -8.5 -22.5t-21.5 -8.5h-650q-13 0 -21.5 8.5t-8.5 22.5v197q0 14 8.5 22.5t21.5 8.5h650zM88 973q0 13 9 22t22 9h276q13 0 22 -9t9 -22v-942q0 -13 -9 -22t-22 -9h-276q-13 0 -22 9t-9 22v942z" />
    <glyph glyph-name="iogonek" unicode="&#x12f;" horiz-adv-x="512" 
d="M258 1112q-67 0 -115.5 48.5t-48.5 119.5q0 68 48.5 116t115.5 48q68 0 116 -47.5t48 -116.5q0 -71 -48 -119.5t-116 -48.5zM395 1004q13 0 22 -9t9 -22v-942q0 -13 -9 -22t-22 -9q-78 0 -120 -43.5t-42 -97.5q0 -31 27 -52.5t88 -9.5v-203q-39 -17 -89.5 -22t-102 5.5
t-95 34.5t-71 71t-27.5 110q0 130 127 223q0 2 -1 7t-1 8v942q0 13 9 22t22 9h276z" />
    <glyph glyph-name="Idotaccent" unicode="&#x130;" horiz-adv-x="565" 
d="M283 1542q-67 0 -115.5 48.5t-48.5 119.5q0 68 48.5 116t115.5 48q68 0 115.5 -47.5t47.5 -116.5q0 -71 -47.5 -119.5t-115.5 -48.5zM109 1403q0 14 8.5 22.5t21.5 8.5h289q14 0 22.5 -9t8.5 -22v-1372q0 -13 -8.5 -22t-22.5 -9h-289q-13 0 -21.5 8.5t-8.5 22.5v1372z
" />
    <glyph glyph-name="dotlessi" unicode="&#x131;" horiz-adv-x="512" 
d="M88 973q0 13 9 22t22 9h276q13 0 22 -9t9 -22v-942q0 -13 -9 -22t-22 -9h-276q-13 0 -22 9t-9 22v942z" />
    <glyph glyph-name="IJ" unicode="&#x132;" horiz-adv-x="1669" 
d="M109 1403q0 14 8.5 22.5t21.5 8.5h289q14 0 22.5 -9t8.5 -22v-1372q0 -13 -8.5 -22t-22.5 -9h-289q-13 0 -21.5 8.5t-8.5 22.5v1372zM784 385q12 21 45 4q1 -1 30 -18t45 -24t50 -16t68 -9q190 0 190 241v840q0 13 9 22t22 9h289q14 0 22.5 -9t8.5 -22v-852
q0 -148 -39 -258.5t-110.5 -177.5t-167 -100t-214.5 -33q-133 0 -234.5 43.5t-160.5 111.5q-16 18 2 43z" />
    <glyph glyph-name="ij" unicode="&#x133;" horiz-adv-x="1146" 
d="M262 1167q-73 0 -125.5 52.5t-52.5 126.5t52 126t126 52t126 -52t52 -126t-52.5 -126.5t-125.5 -52.5zM887 1167q-73 0 -125.5 52.5t-52.5 126.5t52.5 126t125.5 52t125.5 -52t52.5 -126t-52.5 -126.5t-125.5 -52.5zM94 973q0 13 9 22t22 9h276q13 0 22 -9t9 -22v-942
q0 -13 -9 -22t-22 -9h-276q-13 0 -22 9t-9 22v942zM752 1004h276q14 0 22.5 -9t8.5 -22v-946q0 -206 -123 -316.5t-328 -116.5q-23 0 -26 15l-88 280q-3 9 1 16t13 7q37 3 70.5 13.5t67.5 30.5t54.5 56.5t20.5 85.5v875q0 13 8.5 22t22.5 9z" />
    <glyph glyph-name="Kcommaaccent" unicode="&#x136;" horiz-adv-x="1587" 
d="M1327 37q11 -15 6 -26t-24 -11h-340q-24 0 -37 18l-373 527l-100 -117v-397q0 -13 -8.5 -22t-22.5 -9h-289q-13 0 -21.5 8.5t-8.5 22.5v1372q0 14 8.5 22.5t21.5 8.5h289q14 0 22.5 -9t8.5 -22v-510l422 524q14 17 37 17h356q20 0 24.5 -12t-8.5 -25l-497 -580zM799 -78
q75 0 127.5 -55.5t52.5 -142.5q0 -101 -46 -198.5t-99 -158.5q-12 -12 -31 -12h-29q-12 0 -17 8.5t1 22.5q41 90 41 180q-73 0 -125.5 52t-52.5 126t52.5 126t125.5 52z" />
    <glyph glyph-name="kcommaaccent" unicode="&#x137;" horiz-adv-x="1183" 
d="M1145 37q11 -15 5.5 -26t-24.5 -11h-295q-23 0 -36 18l-265 351l-104 -113v-225q0 -13 -9 -22t-22 -9h-276q-13 0 -22 9t-9 22v1433q0 14 9 22.5t22 8.5h276q13 0 22 -8.5t9 -22.5v-798l293 321q14 17 37 17h313q20 0 25 -12t-9 -25l-348 -375zM598 -78q75 0 127.5 -55.5
t52.5 -142.5q0 -101 -46 -198.5t-99 -158.5q-12 -12 -31 -12h-29q-12 0 -17 8.5t1 22.5q41 90 41 180q-74 0 -126 52t-52 126t52 126t126 52z" />
    <glyph glyph-name="Lacute" unicode="&#x139;" horiz-adv-x="978" 
d="M207 1538q-18 0 -25 9t0 26l123 258q11 24 35 24h252q39 0 24 -34l-122 -258q-11 -25 -35 -25h-252zM881 307q13 0 21.5 -8.5t8.5 -22.5v-245q0 -14 -8.5 -22.5t-21.5 -8.5h-742q-13 0 -21.5 8.5t-8.5 22.5v1372q0 14 8.5 22.5t21.5 8.5h289q14 0 22.5 -9t8.5 -22v-1096
h422z" />
    <glyph glyph-name="lacute" unicode="&#x13a;" horiz-adv-x="512" 
d="M524 1921q18 0 25 -9t0 -26l-123 -258q-11 -24 -35 -24h-252q-39 0 -24 34l123 258q11 25 34 25h252zM88 1464q0 14 9 22.5t22 8.5h276q13 0 22 -8.5t9 -22.5v-1433q0 -13 -9 -22t-22 -9h-276q-13 0 -22 9t-9 22v1433z" />
    <glyph glyph-name="Lcommaaccent" unicode="&#x13b;" horiz-adv-x="978" 
d="M881 307q13 0 21.5 -8.5t8.5 -22.5v-245q0 -14 -8.5 -22.5t-21.5 -8.5h-742q-13 0 -21.5 8.5t-8.5 22.5v1372q0 14 8.5 22.5t21.5 8.5h289q14 0 22.5 -9t8.5 -22v-1096h422zM483 -78q75 0 128 -55.5t53 -142.5q0 -101 -46.5 -198.5t-99.5 -158.5q-12 -12 -31 -12h-28
q-12 0 -17.5 8.5t0.5 22.5q41 90 41 180q-73 0 -125.5 52t-52.5 126t52.5 126t125.5 52z" />
    <glyph glyph-name="lcommaaccent" unicode="&#x13c;" horiz-adv-x="512" 
d="M88 1464q0 14 9 22.5t22 8.5h276q13 0 22 -8.5t9 -22.5v-1433q0 -13 -9 -22t-22 -9h-276q-13 0 -22 9t-9 22v1433zM256 -78q75 0 127.5 -55.5t52.5 -142.5q0 -101 -46 -198.5t-99 -158.5q-12 -12 -31 -12h-29q-12 0 -17 8.5t1 22.5q41 90 41 180q-74 0 -126 52t-52 126
t52 126t126 52z" />
    <glyph glyph-name="Lcaron" unicode="&#x13d;" horiz-adv-x="978" 
d="M780 1188q-74 0 -126 52t-52 126t52 126t126 52q75 0 128 -55.5t53 -142.5q0 -101 -46.5 -198.5t-99.5 -158.5q-12 -12 -31 -12h-28q-12 0 -17.5 8.5t0.5 22.5q41 90 41 180zM881 307q13 0 21.5 -8.5t8.5 -22.5v-245q0 -14 -8.5 -22.5t-21.5 -8.5h-742q-13 0 -21.5 8.5
t-8.5 22.5v1372q0 14 8.5 22.5t21.5 8.5h289q14 0 22.5 -9t8.5 -22v-1096h422z" />
    <glyph glyph-name="lcaron" unicode="&#x13e;" horiz-adv-x="929" 
d="M88 1464q0 14 9 22.5t22 8.5h276q13 0 22 -8.5t9 -22.5v-1433q0 -13 -9 -22t-22 -9h-276q-13 0 -22 9t-9 22v1433zM719 1493q75 0 127.5 -56t52.5 -143q0 -101 -46 -198t-99 -158q-12 -12 -31 -12h-29q-12 0 -17 8t1 22q41 90 41 181q-73 0 -125.5 52.5t-52.5 125.5
t52.5 125.5t125.5 52.5z" />
    <glyph glyph-name="Ldot" unicode="&#x13f;" horiz-adv-x="1036" 
d="M881 307q13 0 21.5 -8.5t8.5 -22.5v-245q0 -14 -8.5 -22.5t-21.5 -8.5h-742q-13 0 -21.5 8.5t-8.5 22.5v1372q0 14 8.5 22.5t21.5 8.5h289q14 0 22.5 -9t8.5 -22v-1096h422zM852 926q74 0 126 -52t52 -126t-52.5 -126.5t-125.5 -52.5t-125.5 52.5t-52.5 126.5t52 126
t126 52z" />
    <glyph glyph-name="ldot" unicode="&#x140;" horiz-adv-x="917" 
d="M88 1464q0 14 9 22.5t22 8.5h276q13 0 22 -8.5t9 -22.5v-1433q0 -13 -9 -22t-22 -9h-276q-13 0 -22 9t-9 22v1433zM694 565q-74 0 -126 52.5t-52 125.5q0 74 52.5 126.5t125.5 52.5t125.5 -52.5t52.5 -126.5q0 -73 -52 -125.5t-126 -52.5z" />
    <glyph glyph-name="Lslash" unicode="&#x141;" horiz-adv-x="1026" 
d="M930 307q14 0 22.5 -8.5t8.5 -22.5v-245q0 -13 -8.5 -22t-22.5 -9h-742q-13 0 -21.5 8.5t-8.5 22.5v360l-80 -78q-15 -15 -26 -9.5t-11 26.5v223q0 23 16 39l101 98v713q0 14 8.5 22.5t21.5 8.5h289q13 0 22 -9t9 -22v-369l182 178q15 15 26 10t11 -26v-221
q0 -23 -16 -39l-203 -199v-430h422z" />
    <glyph glyph-name="lslash" unicode="&#x142;" horiz-adv-x="677" 
d="M606 1157v-287l-121 -127v-712q0 -14 -8.5 -22.5t-21.5 -8.5h-277q-14 0 -22.5 9t-8.5 22v356l-75 -80v289l75 80v788q0 14 8.5 22.5t22.5 8.5h277q13 0 21.5 -8.5t8.5 -22.5v-432l119 125h2z" />
    <glyph glyph-name="Nacute" unicode="&#x143;" horiz-adv-x="1419" 
d="M592 1542q-18 0 -25 9t0 26l123 258q11 25 35 25h252q39 0 24 -35l-122 -258q-11 -25 -35 -25h-252zM1282 1434q14 0 22.5 -9t8.5 -22v-1372q0 -13 -8.5 -22t-22.5 -9h-321q-26 0 -37 20l-465 840v-829q0 -13 -8.5 -22t-22.5 -9h-289q-13 0 -21.5 8.5t-8.5 22.5v1372
q0 14 8.5 22.5t21.5 8.5h322q25 0 37 -21l465 -842v832q0 14 8.5 22.5t21.5 8.5h289z" />
    <glyph glyph-name="nacute" unicode="&#x144;" horiz-adv-x="1183" 
d="M473 1112q-39 0 -24 35l122 258q11 25 35 25h252q18 0 25 -9t0 -26l-123 -258q-11 -25 -35 -25h-252zM729 1026q155 0 261 -121t106 -317v-557q0 -13 -9 -22t-22 -9h-277q-13 0 -21.5 8.5t-8.5 22.5v485q0 57 -14.5 97.5t-39.5 60.5t-51 28.5t-55 8.5q-44 0 -79 -19.5
t-54 -48.5t-29 -56t-10 -48v-508q0 -13 -9 -22t-22 -9h-276q-13 0 -22 9t-9 22v942q0 13 9 22t22 9h268q28 0 31 -31l8 -123q48 81 125 128.5t178 47.5z" />
    <glyph glyph-name="Ncommaaccent" unicode="&#x145;" horiz-adv-x="1419" 
d="M1282 1434q14 0 22.5 -9t8.5 -22v-1372q0 -13 -8.5 -22t-22.5 -9h-321q-26 0 -37 20l-465 840v-829q0 -13 -8.5 -22t-22.5 -9h-289q-13 0 -21.5 8.5t-8.5 22.5v1372q0 14 8.5 22.5t21.5 8.5h322q25 0 37 -21l465 -842v832q0 14 8.5 22.5t21.5 8.5h289zM709 -78
q75 0 127.5 -55.5t52.5 -142.5q0 -101 -46.5 -198.5t-99.5 -158.5q-12 -12 -30 -12h-29q-12 0 -17 8.5t1 22.5q41 90 41 180q-74 0 -126.5 52.5t-52.5 125.5t52.5 125.5t126.5 52.5z" />
    <glyph glyph-name="ncommaaccent" unicode="&#x146;" horiz-adv-x="1183" 
d="M729 1026q155 0 261 -121t106 -317v-557q0 -13 -9 -22t-22 -9h-277q-13 0 -21.5 8.5t-8.5 22.5v485q0 57 -14.5 97.5t-39.5 60.5t-51 28.5t-55 8.5q-44 0 -79 -19.5t-54 -48.5t-29 -56t-10 -48v-508q0 -13 -9 -22t-22 -9h-276q-13 0 -22 9t-9 22v942q0 13 9 22t22 9h268
q28 0 31 -31l8 -123q48 81 125 128.5t178 47.5zM590 -78q75 0 127.5 -55.5t52.5 -142.5q0 -101 -46 -198.5t-99 -158.5q-12 -12 -31 -12h-29q-12 0 -17 8.5t1 22.5q41 90 41 180q-74 0 -126 52t-52 126t52 126t126 52z" />
    <glyph glyph-name="Ncaron" unicode="&#x147;" horiz-adv-x="1419" 
d="M578 1593l-207 230q-12 12 -6 24.5t26 12.5h172q23 0 37 -17l111 -131l110 131q14 17 37 17h172q20 0 25.5 -12.5t-6.5 -24.5l-205 -230q-13 -16 -37 -16h-193q-23 0 -36 16zM1282 1434q14 0 22.5 -9t8.5 -22v-1372q0 -13 -8.5 -22t-22.5 -9h-321q-26 0 -37 20l-465 840
v-829q0 -13 -8.5 -22t-22.5 -9h-289q-13 0 -21.5 8.5t-8.5 22.5v1372q0 14 8.5 22.5t21.5 8.5h322q25 0 37 -21l465 -842v832q0 14 8.5 22.5t21.5 8.5h289z" />
    <glyph glyph-name="ncaron" unicode="&#x148;" horiz-adv-x="1183" 
d="M459 1163l-207 230q-12 12 -6 24.5t26 12.5h172q23 0 37 -17l111 -131l110 131q14 17 37 17h172q20 0 25.5 -12.5t-6.5 -24.5l-205 -230q-13 -16 -37 -16h-192q-24 0 -37 16zM729 1026q155 0 261 -121t106 -317v-557q0 -13 -9 -22t-22 -9h-277q-13 0 -21.5 8.5t-8.5 22.5
v485q0 57 -14.5 97.5t-39.5 60.5t-51 28.5t-55 8.5q-44 0 -79 -19.5t-54 -48.5t-29 -56t-10 -48v-508q0 -13 -9 -22t-22 -9h-276q-13 0 -22 9t-9 22v942q0 13 9 22t22 9h268q28 0 31 -31l8 -123q48 81 125 128.5t178 47.5z" />
    <glyph glyph-name="Eng" unicode="&#x14a;" horiz-adv-x="1419" 
d="M1282 1434q14 0 22.5 -9t8.5 -22v-1372q0 -16 -10 -23q-17 -112 -62 -196t-114 -135t-155 -76t-190 -25q-133 0 -234.5 43.5t-160.5 112.5q-16 18 2 43l146 205q12 21 45 4q3 -2 30.5 -18t44 -24t50 -17t67.5 -9q119 0 162 92q-7 4 -10 12l-465 840v-829q0 -13 -8.5 -22
t-22.5 -9h-289q-13 0 -21.5 8.5t-8.5 22.5v1372q0 14 8.5 22.5t21.5 8.5h322q25 0 37 -21l465 -842v832q0 14 8.5 22.5t21.5 8.5h289z" />
    <glyph glyph-name="eng" unicode="&#x14b;" horiz-adv-x="1183" 
d="M729 1026q155 0 261 -121t106 -317v-561q0 -208 -124 -320.5t-327 -112.5q-18 0 -27 15l-88 280q-3 9 1.5 16t13.5 7q35 0 70 10t68 31t54 58.5t21 86.5v418q0 57 -14.5 97.5t-39.5 60.5t-51 28.5t-55 8.5q-44 0 -79 -19.5t-54 -48.5t-29 -56t-10 -48v-508q0 -13 -9 -22
t-22 -9h-276q-13 0 -22 9t-9 22v942q0 13 9 22t22 9h268q28 0 31 -31l8 -123q48 81 125 128.5t178 47.5z" />
    <glyph glyph-name="Omacron" unicode="&#x14c;" horiz-adv-x="1613" 
d="M1130 1860q14 0 22.5 -9t8.5 -22v-197q0 -13 -8.5 -21.5t-22.5 -8.5h-649q-13 0 -21.5 8t-8.5 22v197q0 14 8.5 22.5t21.5 8.5h649zM807 -27q-150 0 -286.5 58t-235.5 156.5t-158 235.5t-59 288q0 202 99.5 372.5t269.5 268.5t370 98t370 -98t269.5 -268.5t99.5 -372.5
q0 -151 -59 -288t-158 -235.5t-235.5 -156.5t-286.5 -58zM807 313q163 0 275 115.5t112 282.5q0 169 -112 284t-275 115t-275 -115t-112 -284q0 -167 112 -282.5t275 -115.5z" />
    <glyph glyph-name="omacron" unicode="&#x14d;" horiz-adv-x="1165" 
d="M907 1430q13 0 22 -9t9 -22v-197q0 -14 -9 -22.5t-22 -8.5h-649q-14 0 -22.5 8.5t-8.5 22.5v197q0 13 8.5 22t22.5 9h649zM584 -27q-143 0 -264.5 70t-192 191.5t-70.5 265.5q0 145 70.5 266t191.5 190.5t265 69.5q143 0 263.5 -69.5t191.5 -190.5t71 -266
q0 -144 -71 -265.5t-192 -191.5t-263 -70zM584 289q84 0 142 60t58 151q0 93 -58 153t-142 60t-142.5 -60.5t-58.5 -152.5q0 -91 58.5 -151t142.5 -60z" />
    <glyph glyph-name="Ohungarumlaut" unicode="&#x150;" horiz-adv-x="1613" 
d="M961 1860q39 0 24 -35l-123 -258q-11 -25 -35 -25h-252q-39 0 -24 35l123 258q11 25 35 25h252zM1380 1860q18 0 25 -9t0 -26l-123 -258q-11 -25 -35 -25h-252q-39 0 -24 35l123 258q11 25 34 25h252zM807 -27q-150 0 -286.5 58t-235.5 156.5t-158 235.5t-59 288
q0 202 99.5 372.5t269.5 268.5t370 98t370 -98t269.5 -268.5t99.5 -372.5q0 -151 -59 -288t-158 -235.5t-235.5 -156.5t-286.5 -58zM807 313q163 0 275 115.5t112 282.5q0 169 -112 284t-275 115t-275 -115t-112 -284q0 -167 112 -282.5t275 -115.5z" />
    <glyph glyph-name="ohungarumlaut" unicode="&#x151;" horiz-adv-x="1165" 
d="M737 1430q18 0 25 -9t0 -26l-123 -258q-11 -25 -35 -25h-252q-39 0 -24 35l123 258q11 25 34 25h252zM1157 1430q18 0 25 -9t0 -26l-123 -258q-11 -25 -35 -25h-252q-39 0 -24 35l122 258q11 25 35 25h252zM584 -27q-143 0 -264.5 70t-192 191.5t-70.5 265.5
q0 145 70.5 266t191.5 190.5t265 69.5q143 0 263.5 -69.5t191.5 -190.5t71 -266q0 -144 -71 -265.5t-192 -191.5t-263 -70zM584 289q84 0 142 60t58 151q0 93 -58 153t-142 60t-142.5 -60.5t-58.5 -152.5q0 -91 58.5 -151t142.5 -60z" />
    <glyph glyph-name="OE" unicode="&#x152;" horiz-adv-x="2142" 
d="M2009 307q13 0 22 -8.5t9 -22.5v-245q0 -13 -9 -22t-22 -9h-782q-13 0 -22 9t-9 22v53q-179 -111 -389 -111q-150 0 -286.5 58t-235.5 156.5t-158 235.5t-59 288q0 202 99.5 372.5t269.5 268.5t370 98q210 0 389 -111v64q0 13 9 22t22 9h780q13 0 22 -9t9 -22v-246
q0 -13 -9 -22t-22 -9h-461v-245h432q14 0 22.5 -8.5t8.5 -22.5v-246q0 -14 -8.5 -22.5t-22.5 -8.5h-432v-266h463zM807 313q163 0 275 115.5t112 282.5q0 169 -112 284t-275 115t-275 -115t-112 -284q0 -167 112 -282.5t275 -115.5z" />
    <glyph glyph-name="oe" unicode="&#x153;" horiz-adv-x="1832" 
d="M1778 514q0 -71 -15.5 -102t-62.5 -31h-580q43 -139 234 -139q95 0 180 51q27 16 45 -4l119 -117q20 -20 -4 -45q-74 -72 -170 -113t-201 -41q-227 0 -379 142q-152 -142 -360 -142q-143 0 -264.5 70t-192 191.5t-70.5 265.5q0 145 70.5 266t191.5 190.5t265 69.5
q207 0 358 -141q147 141 354 141q143 0 254 -69.5t169.5 -185.5t58.5 -257zM1300 743q-69 0 -119.5 -37.5t-66.5 -113.5h363q-14 76 -62 113.5t-115 37.5zM584 289q84 0 142 60t58 151q0 93 -58 153t-142 60t-142.5 -60.5t-58.5 -152.5q0 -91 58.5 -151t142.5 -60z" />
    <glyph glyph-name="Racute" unicode="&#x154;" horiz-adv-x="1234" 
d="M459 1542q-18 0 -25 9t0 26l123 258q11 25 35 25h252q39 0 24 -35l-123 -258q-11 -25 -34 -25h-252zM1163 37q10 -17 4.5 -27t-24.5 -10h-305q-26 0 -37 20l-287 451h-55v-440q0 -13 -8.5 -22t-22.5 -9h-289q-13 0 -21.5 8.5t-8.5 22.5v1372q0 14 8.5 22.5t21.5 8.5h447
q257 0 399.5 -131.5t142.5 -350.5q0 -154 -71.5 -266.5t-206.5 -167.5zM459 1126v-348h121q40 0 75.5 8.5t68 27t52 54t19.5 84.5q0 50 -19 85.5t-52 54t-68.5 26.5t-75.5 8h-121z" />
    <glyph glyph-name="racute" unicode="&#x155;" horiz-adv-x="833" 
d="M270 1112q-39 0 -24 35l123 258q11 25 34 25h252q18 0 25 -9t0 -26l-123 -258q-11 -25 -35 -25h-252zM825 973q24 -24 13 -49l-76 -197q-10 -35 -51 -25q-49 17 -86 17q-94 0 -146.5 -60t-52.5 -153v-475q0 -13 -9 -22t-22 -9h-276q-13 0 -22 9t-9 22v942q0 13 9 22t22 9
h266q28 0 31 -31l8 -123q88 176 260 176q84 0 141 -53z" />
    <glyph glyph-name="Rcommaaccent" unicode="&#x156;" horiz-adv-x="1234" 
d="M1163 37q10 -17 4.5 -27t-24.5 -10h-305q-26 0 -37 20l-287 451h-55v-440q0 -13 -8.5 -22t-22.5 -9h-289q-13 0 -21.5 8.5t-8.5 22.5v1372q0 14 8.5 22.5t21.5 8.5h447q257 0 399.5 -131.5t142.5 -350.5q0 -154 -71.5 -266.5t-206.5 -167.5zM459 1126v-348h121
q40 0 75.5 8.5t68 27t52 54t19.5 84.5q0 50 -19 85.5t-52 54t-68.5 26.5t-75.5 8h-121zM575 -78q75 0 128 -55.5t53 -142.5q0 -101 -46.5 -198.5t-99.5 -158.5q-12 -12 -30 -12h-29q-12 0 -17 8.5t1 22.5q40 88 40 180q-73 0 -125.5 52t-52.5 126t52.5 126t125.5 52z" />
    <glyph glyph-name="rcommaaccent" unicode="&#x157;" horiz-adv-x="833" 
d="M825 973q24 -24 13 -49l-76 -197q-10 -35 -51 -25q-49 17 -86 17q-94 0 -146.5 -60t-52.5 -153v-475q0 -13 -9 -22t-22 -9h-276q-13 0 -22 9t-9 22v942q0 13 9 22t22 9h266q28 0 31 -31l8 -123q88 176 260 176q84 0 141 -53zM252 -78q75 0 127.5 -55.5t52.5 -142.5
q0 -101 -46 -198.5t-99 -158.5q-12 -12 -31 -12h-29q-12 0 -17 8.5t1 22.5q41 90 41 180q-74 0 -126 52t-52 126t52 126t126 52z" />
    <glyph glyph-name="Rcaron" unicode="&#x158;" horiz-adv-x="1234" 
d="M444 1593l-206 230q-12 12 -6 24.5t26 12.5h172q23 0 37 -17l111 -131l110 131q14 17 37 17h172q20 0 25.5 -12.5t-7.5 -24.5l-204 -230q-13 -16 -37 -16h-193q-24 0 -37 16zM1163 37q10 -17 4.5 -27t-24.5 -10h-305q-26 0 -37 20l-287 451h-55v-440q0 -13 -8.5 -22
t-22.5 -9h-289q-13 0 -21.5 8.5t-8.5 22.5v1372q0 14 8.5 22.5t21.5 8.5h447q257 0 399.5 -131.5t142.5 -350.5q0 -154 -71.5 -266.5t-206.5 -167.5zM459 1126v-348h121q40 0 75.5 8.5t68 27t52 54t19.5 84.5q0 50 -19 85.5t-52 54t-68.5 26.5t-75.5 8h-121z" />
    <glyph glyph-name="rcaron" unicode="&#x159;" horiz-adv-x="833" 
d="M293 1147q-24 0 -37 16l-207 230q-12 12 -5.5 24.5t26.5 12.5h172q23 0 37 -17l110 -131l111 131q14 17 37 17h172q20 0 25.5 -12.5t-7.5 -24.5l-205 -230q-13 -16 -37 -16h-192zM825 973q24 -24 13 -49l-76 -197q-10 -35 -51 -25q-49 17 -86 17q-94 0 -146.5 -60
t-52.5 -153v-475q0 -13 -9 -22t-22 -9h-276q-13 0 -22 9t-9 22v942q0 13 9 22t22 9h266q28 0 31 -31l8 -123q88 176 260 176q84 0 141 -53z" />
    <glyph glyph-name="Sacute" unicode="&#x15a;" horiz-adv-x="1138" 
d="M817 1860q18 0 25 -9t0 -26l-123 -258q-11 -25 -35 -25h-252q-39 0 -24 35l122 258q11 25 35 25h252zM434 1020q0 -32 22 -57t59.5 -43t86 -34.5t102.5 -35.5t107.5 -41.5t102 -57.5t86 -79t59.5 -109.5t22 -146.5q0 -87 -30 -161t-80.5 -125t-117 -87t-138.5 -53
t-146 -17q-151 0 -287.5 68t-215.5 160q-18 22 0 43l157 178q8 11 20.5 12.5t24.5 -8.5q86 -65 157.5 -94t154.5 -29q65 0 112 30.5t47 86.5q0 32 -22 57.5t-59.5 45t-86 38t-102 39.5t-107.5 45t-102.5 59.5t-86 79t-59.5 106t-22 138.5q0 99 39.5 180.5t105.5 133t149 80
t173 28.5q250 0 455 -188q19 -19 4 -43l-150 -187q-18 -24 -43 -8q-82 53 -136 74.5t-118 21.5q-67 0 -102 -29.5t-35 -70.5z" />
    <glyph glyph-name="sacute" unicode="&#x15b;" horiz-adv-x="892" 
d="M715 1430q39 0 24 -35l-123 -258q-11 -25 -34 -25h-252q-18 0 -25 9t0 26l123 258q11 25 35 25h252zM399 707q0 -25 25 -42.5t64.5 -29t87.5 -24.5t95.5 -35.5t87 -55t64.5 -90t25 -133.5q0 -75 -36.5 -138t-95.5 -102.5t-130 -61.5t-144 -22q-122 0 -224.5 49
t-162.5 119q-14 16 0 43l101 144q15 20 47 2q129 -76 229 -76q18 0 28.5 1t27 5t24.5 15t8 28q0 22 -24.5 39.5t-64 30.5t-87 27.5t-95 38.5t-87 55.5t-64 85t-24.5 122.5q0 101 53 176.5t133.5 111.5t173.5 36q108 0 202 -39.5t157 -112.5q17 -20 -2 -43l-103 -137
q-6 -8 -13.5 -8.5t-14 2t-17.5 8.5q-67 37 -100.5 50.5t-71.5 13.5q-39 0 -55.5 -17t-16.5 -36z" />
    <glyph glyph-name="Scedilla" unicode="&#x15e;" horiz-adv-x="1138" 
d="M1081 416q0 -100 -38.5 -181.5t-103.5 -134.5t-144 -84.5t-166 -40.5l-47 -38q77 -7 134.5 -53t57.5 -122q0 -69 -33.5 -118t-88 -71.5t-124 -30t-141.5 6.5q-18 3 -18 23v115q0 20 22 20q81 -9 122.5 2.5t41.5 38.5q0 14 -20.5 25t-56.5 12.5t-85 -14.5
q-11 -4 -17.5 -0.5t-6.5 14.5v125q0 14 10 24l61 54q-115 25 -213.5 84t-160.5 129q-18 22 0 43l157 178q8 11 20.5 12.5t24.5 -8.5q86 -65 157.5 -94t154.5 -29q65 0 112 30.5t47 86.5q0 32 -22 57.5t-59.5 45t-86 38t-102 39.5t-107.5 45t-102.5 59.5t-86 79t-59.5 106
t-22 138.5q0 99 39.5 180.5t105.5 133t149 80t173 28.5q250 0 455 -188q19 -19 4 -43l-150 -187q-18 -24 -43 -8q-82 53 -136 74.5t-118 21.5q-67 0 -102 -29.5t-35 -70.5q0 -32 22 -57t59.5 -43t86 -34.5t102.5 -35.5t107.5 -41.5t102 -57.5t86 -79t59.5 -109.5t22 -146.5z
" />
    <glyph glyph-name="scedilla" unicode="&#x15f;" horiz-adv-x="892" 
d="M848 297q0 -64 -26 -119t-70 -93.5t-99.5 -64.5t-117.5 -38l-56 -45q77 -7 135 -53t58 -122q0 -69 -33.5 -118t-88 -71.5t-124 -30t-141.5 6.5q-19 3 -19 23v115q0 20 23 20q81 -9 122.5 2.5t41.5 38.5q0 14 -20.5 25t-56.5 12.5t-85 -14.5q-11 -5 -18 -0.5t-7 14.5v125
q0 14 10 24l58 50q-89 19 -162.5 62t-116.5 95q-14 16 0 43l101 144q15 20 47 2q129 -76 229 -76q18 0 28.5 1t27 5t24.5 15t8 28q0 22 -24.5 39.5t-64 30.5t-87 27.5t-95 38.5t-87 55.5t-64 85t-24.5 122.5q0 101 53 176.5t133.5 111.5t173.5 36q108 0 202 -39.5
t157 -112.5q17 -20 -2 -43l-103 -137q-6 -8 -13.5 -8.5t-14 2t-17.5 8.5q-67 37 -100.5 50.5t-71.5 13.5q-39 0 -55.5 -17t-16.5 -36q0 -25 25 -42.5t64.5 -29t87.5 -24.5t95.5 -35.5t87 -55t64.5 -90t25 -133.5z" />
    <glyph glyph-name="Scaron" unicode="&#x160;" horiz-adv-x="1138" 
d="M647 1577h-192q-24 0 -37 16l-207 230q-12 12 -6 24.5t26 12.5h172q23 0 37 -17l111 -131l111 131q14 17 36 17h172q20 0 25.5 -12.5t-6.5 -24.5l-205 -230q-13 -16 -37 -16zM434 1020q0 -32 22 -57t59.5 -43t86 -34.5t102.5 -35.5t107.5 -41.5t102 -57.5t86 -79
t59.5 -109.5t22 -146.5q0 -87 -30 -161t-80.5 -125t-117 -87t-138.5 -53t-146 -17q-151 0 -287.5 68t-215.5 160q-18 22 0 43l157 178q8 11 20.5 12.5t24.5 -8.5q86 -65 157.5 -94t154.5 -29q65 0 112 30.5t47 86.5q0 32 -22 57.5t-59.5 45t-86 38t-102 39.5t-107.5 45
t-102.5 59.5t-86 79t-59.5 106t-22 138.5q0 99 39.5 180.5t105.5 133t149 80t173 28.5q250 0 455 -188q19 -19 4 -43l-150 -187q-18 -24 -43 -8q-82 53 -136 74.5t-118 21.5q-67 0 -102 -29.5t-35 -70.5z" />
    <glyph glyph-name="scaron" unicode="&#x161;" horiz-adv-x="892" 
d="M545 1147h-193q-24 0 -37 16l-206 230q-12 12 -6 24.5t26 12.5h172q23 0 37 -17l111 -131l110 131q14 17 37 17h172q20 0 25.5 -12.5t-7.5 -24.5l-204 -230q-13 -16 -37 -16zM399 707q0 -25 25 -42.5t64.5 -29t87.5 -24.5t95.5 -35.5t87 -55t64.5 -90t25 -133.5
q0 -75 -36.5 -138t-95.5 -102.5t-130 -61.5t-144 -22q-122 0 -224.5 49t-162.5 119q-14 16 0 43l101 144q15 20 47 2q129 -76 229 -76q18 0 28.5 1t27 5t24.5 15t8 28q0 22 -24.5 39.5t-64 30.5t-87 27.5t-95 38.5t-87 55.5t-64 85t-24.5 122.5q0 101 53 176.5t133.5 111.5
t173.5 36q108 0 202 -39.5t157 -112.5q17 -20 -2 -43l-103 -137q-6 -8 -13.5 -8.5t-14 2t-17.5 8.5q-67 37 -100.5 50.5t-71.5 13.5q-39 0 -55.5 -17t-16.5 -36z" />
    <glyph glyph-name="uni0162" unicode="&#x162;" horiz-adv-x="1146" 
d="M1051 1434q13 0 21.5 -8.5t8.5 -22.5v-246q0 -14 -8.5 -22.5t-21.5 -8.5h-301v-1095q0 -13 -9 -22t-22 -9h-39l-76 -63q77 -7 135 -53t58 -122q0 -69 -33.5 -118t-88 -71.5t-124 -30t-141.5 6.5q-19 3 -19 23v115q0 20 23 20q81 -9 122.5 2.5t41.5 38.5q0 14 -20.5 25
t-56.5 12.5t-85 -14.5q-10 -5 -17.5 -0.5t-7.5 14.5v125q0 14 10 24l76 66h-47q-14 0 -22.5 9t-8.5 22v1095h-301q-13 0 -21.5 8.5t-8.5 22.5v246q0 14 8.5 22.5t21.5 8.5h953z" />
    <glyph glyph-name="uni0163" unicode="&#x163;" horiz-adv-x="778" 
d="M702 1004q14 0 22.5 -9t8.5 -22v-211q0 -14 -8.5 -22.5t-22.5 -8.5h-143v-700q0 -13 -8.5 -22t-22.5 -9h-30l-72 -59q77 -7 134.5 -52.5t57.5 -121.5q0 -69 -33.5 -118t-88 -71.5t-124 -30t-141.5 6.5q-18 3 -18 22v115q0 20 23 20q81 -9 122 2.5t41 38.5q0 14 -20.5 25
t-56 12.5t-84.5 -14.5q-10 -5 -17.5 -0.5t-7.5 14.5v125q0 15 10 25l72 61h-43q-14 0 -22.5 9t-8.5 22v700h-143q-14 0 -22.5 8.5t-8.5 22.5v211q0 13 8.5 22t22.5 9h143v276q0 14 8.5 22.5t22.5 8.5h276q14 0 22.5 -8.5t8.5 -22.5v-276h143z" />
    <glyph glyph-name="Tcaron" unicode="&#x164;" horiz-adv-x="1146" 
d="M670 1577h-193q-24 0 -37 16l-207 230q-12 12 -5.5 24.5t26.5 12.5h172q23 0 37 -17l110 -131l111 131q14 17 37 17h172q20 0 25.5 -12.5t-7.5 -24.5l-204 -230q-13 -16 -37 -16zM1051 1434q13 0 21.5 -8.5t8.5 -22.5v-246q0 -14 -8.5 -22.5t-21.5 -8.5h-301v-1095
q0 -13 -9 -22t-22 -9h-289q-14 0 -22.5 9t-8.5 22v1095h-301q-13 0 -21.5 8.5t-8.5 22.5v246q0 14 8.5 22.5t21.5 8.5h953z" />
    <glyph glyph-name="tcaron" unicode="&#x165;" horiz-adv-x="1085" 
d="M1047 1432q39 0 24 -35l-123 -258q-11 -25 -35 -25h-251q-18 0 -25 9t0 26l123 258q11 25 35 25h252zM702 1004q14 0 22.5 -9t8.5 -22v-211q0 -14 -8.5 -22.5t-22.5 -8.5h-143v-700q0 -13 -8.5 -22t-22.5 -9h-276q-14 0 -22.5 9t-8.5 22v700h-143q-14 0 -22.5 8.5
t-8.5 22.5v211q0 13 8.5 22t22.5 9h143v276q0 14 8.5 22.5t22.5 8.5h276q14 0 22.5 -8.5t8.5 -22.5v-276h143z" />
    <glyph glyph-name="Tbar" unicode="&#x166;" horiz-adv-x="1146" 
d="M1051 1434q13 0 21.5 -8.5t8.5 -22.5v-246q0 -14 -8.5 -22.5t-21.5 -8.5h-301v-122h149q13 0 22 -9t9 -22v-197q0 -14 -9 -22.5t-22 -8.5h-149v-714q0 -13 -9 -22t-22 -9h-289q-14 0 -22.5 9t-8.5 22v714h-149q-14 0 -22.5 8.5t-8.5 22.5v197q0 13 8.5 22t22.5 9h149v122
h-301q-13 0 -21.5 8.5t-8.5 22.5v246q0 14 8.5 22.5t21.5 8.5h953z" />
    <glyph glyph-name="tbar" unicode="&#x167;" horiz-adv-x="778" 
d="M702 731h-143v-72h143q14 0 22.5 -8.5t8.5 -21.5v-211q0 -14 -8.5 -22.5t-22.5 -8.5h-143v-356q0 -13 -8.5 -22t-22.5 -9h-276q-14 0 -22.5 9t-8.5 22v356h-143q-14 0 -22.5 8.5t-8.5 22.5v211q0 13 8.5 21.5t22.5 8.5h143v72h-143q-14 0 -22.5 8.5t-8.5 22.5v211
q0 13 8.5 22t22.5 9h143v276q0 14 8.5 22.5t22.5 8.5h276q14 0 22.5 -8.5t8.5 -22.5v-276h143q14 0 22.5 -9t8.5 -22v-211q0 -14 -8.5 -22.5t-22.5 -8.5z" />
    <glyph glyph-name="Umacron" unicode="&#x16a;" horiz-adv-x="1314" 
d="M981 1860q13 0 22 -9t9 -22v-197q0 -13 -8.5 -21.5t-22.5 -8.5h-649q-14 0 -22.5 8.5t-8.5 21.5v197q0 13 8.5 22t22.5 9h649zM1188 1434q14 0 22.5 -9t8.5 -22v-844q0 -276 -155.5 -431t-406.5 -155q-250 0 -404.5 155t-154.5 431v844q0 13 9 22t22 9h289q14 0 22.5 -9
t8.5 -22v-844q0 -240 208 -240q211 0 211 240v844q0 13 9 22t22 9h289z" />
    <glyph glyph-name="umacron" unicode="&#x16b;" horiz-adv-x="1173" 
d="M256 1171q-14 0 -22.5 8.5t-8.5 22.5v197q0 13 8.5 22t22.5 9h649q13 0 22 -9t9 -22v-197q0 -14 -9 -22.5t-22 -8.5h-649zM1055 1004q13 0 21.5 -8.5t8.5 -22.5v-942q0 -14 -8.5 -22.5t-21.5 -8.5h-269q-27 0 -30 31l-8 108q-53 -77 -126.5 -121.5t-158.5 -44.5
q-169 0 -277 120t-108 319v561q0 13 9 22t22 9h276q13 0 22 -9t9 -22v-490q0 -57 16 -97t42 -59.5t51.5 -27.5t52.5 -8q83 0 126.5 49t43.5 115v518q0 14 8.5 22.5t21.5 8.5h277z" />
    <glyph glyph-name="Ubreve" unicode="&#x16c;" horiz-adv-x="1314" 
d="M797 1833q6 29 32 29h138q31 0 28 -31q-11 -116 -100.5 -194t-237.5 -78t-238.5 78t-101.5 194q-3 31 29 31h137q27 0 33 -29q12 -36 47.5 -63t93.5 -27t94 27t46 63zM1188 1434q14 0 22.5 -9t8.5 -22v-844q0 -276 -155.5 -431t-406.5 -155q-250 0 -404.5 155t-154.5 431
v844q0 13 9 22t22 9h289q14 0 22.5 -9t8.5 -22v-844q0 -240 208 -240q211 0 211 240v844q0 13 9 22t22 9h289z" />
    <glyph glyph-name="ubreve" unicode="&#x16d;" horiz-adv-x="1173" 
d="M582 1128q-148 0 -238.5 78.5t-101.5 194.5q-3 31 28 31h138q26 0 32 -29q12 -36 48 -63t94 -27t93 27t46 63q6 29 33 29h137q32 0 29 -31q-11 -116 -101 -194.5t-237 -78.5zM1055 1004q13 0 21.5 -8.5t8.5 -22.5v-942q0 -14 -8.5 -22.5t-21.5 -8.5h-269q-27 0 -30 31
l-8 108q-53 -77 -126.5 -121.5t-158.5 -44.5q-169 0 -277 120t-108 319v561q0 13 9 22t22 9h276q13 0 22 -9t9 -22v-490q0 -57 16 -97t42 -59.5t51.5 -27.5t52.5 -8q83 0 126.5 49t43.5 115v518q0 14 8.5 22.5t21.5 8.5h277z" />
    <glyph glyph-name="Uring" unicode="&#x16e;" horiz-adv-x="1314" 
d="M659 1968q93 0 160.5 -68t67.5 -161q0 -92 -68 -160t-160 -68q-97 0 -165 67.5t-68 160.5q0 94 67.5 161.5t165.5 67.5zM657 1696q19 0 32 13t13 32t-13 33t-32 14t-32 -14t-13 -33t13 -32t32 -13zM1188 1434q14 0 22.5 -9t8.5 -22v-844q0 -276 -155.5 -431t-406.5 -155
q-250 0 -404.5 155t-154.5 431v844q0 13 9 22t22 9h289q14 0 22.5 -9t8.5 -22v-844q0 -240 208 -240q211 0 211 240v844q0 13 9 22t22 9h289z" />
    <glyph glyph-name="uring" unicode="&#x16f;" horiz-adv-x="1173" 
d="M584 1081q-97 0 -165.5 67.5t-68.5 160.5q0 94 68 161.5t166 67.5q92 0 159.5 -67.5t67.5 -161.5q0 -92 -67.5 -160t-159.5 -68zM582 1358q-19 0 -32 -14t-13 -33t13 -32t32 -13t32 13t13 32t-13 33t-32 14zM1055 1004q13 0 21.5 -8.5t8.5 -22.5v-942q0 -14 -8.5 -22.5
t-21.5 -8.5h-269q-27 0 -30 31l-8 108q-53 -77 -126.5 -121.5t-158.5 -44.5q-169 0 -277 120t-108 319v561q0 13 9 22t22 9h276q13 0 22 -9t9 -22v-490q0 -57 16 -97t42 -59.5t51.5 -27.5t52.5 -8q83 0 126.5 49t43.5 115v518q0 14 8.5 22.5t21.5 8.5h277z" />
    <glyph glyph-name="Uhungarumlaut" unicode="&#x170;" horiz-adv-x="1314" 
d="M811 1860q18 0 25 -9t0 -26l-123 -258q-11 -25 -35 -25h-252q-18 0 -25 9t0 26l123 258q11 25 35 25h252zM1231 1860q39 0 24 -35l-122 -258q-11 -25 -35 -25h-252q-18 0 -25 9t0 26l123 258q11 25 35 25h252zM1188 1434q14 0 22.5 -9t8.5 -22v-844q0 -276 -155.5 -431
t-406.5 -155q-250 0 -404.5 155t-154.5 431v844q0 13 9 22t22 9h289q14 0 22.5 -9t8.5 -22v-844q0 -240 208 -240q211 0 211 240v844q0 13 9 22t22 9h289z" />
    <glyph glyph-name="uhungarumlaut" unicode="&#x171;" horiz-adv-x="1173" 
d="M350 1112q-39 0 -24 35l123 258q11 25 34 25h252q18 0 25 -9t0 -26l-123 -258q-11 -25 -35 -25h-252zM1155 1430q18 0 25 -9t0 -26l-123 -258q-11 -25 -35 -25h-252q-18 0 -25 9t0 26l123 258q11 25 35 25h252zM1055 1004q13 0 21.5 -8.5t8.5 -22.5v-942
q0 -14 -8.5 -22.5t-21.5 -8.5h-269q-27 0 -30 31l-8 108q-53 -77 -126.5 -121.5t-158.5 -44.5q-169 0 -277 120t-108 319v561q0 13 9 22t22 9h276q13 0 22 -9t9 -22v-490q0 -57 16 -97t42 -59.5t51.5 -27.5t52.5 -8q83 0 126.5 49t43.5 115v518q0 14 8.5 22.5t21.5 8.5h277z
" />
    <glyph glyph-name="Uogonek" unicode="&#x172;" horiz-adv-x="1314" 
d="M1188 1434q14 0 22.5 -9t8.5 -22v-844q0 -204 -87.5 -343.5t-240.5 -201.5q-180 -65 -180 -151q0 -34 26 -56t88 -10v-203q-39 -17 -88.5 -22t-101 5.5t-95 34.5t-71 71t-27.5 110q0 106 95 191q-201 36 -320 185.5t-119 389.5v844q0 13 9 22t22 9h289q14 0 22.5 -9
t8.5 -22v-844q0 -240 208 -240q211 0 211 240v844q0 13 9 22t22 9h289z" />
    <glyph glyph-name="uogonek" unicode="&#x173;" horiz-adv-x="1173" 
d="M1055 1004q13 0 21.5 -8.5t8.5 -22.5v-942q0 -25 -22 -31q-76 0 -120 -44t-44 -97q0 -31 27 -52.5t88 -9.5v-203q-39 -17 -88.5 -22t-101 5.5t-95 34.5t-71 71t-27.5 110q0 131 129 223q-4 8 -4 15l-8 108q-53 -77 -126.5 -121.5t-158.5 -44.5q-169 0 -277 120t-108 319
v561q0 13 9 22t22 9h276q13 0 22 -9t9 -22v-490q0 -57 16 -97t42 -59.5t51.5 -27.5t52.5 -8q83 0 126.5 49t43.5 115v518q0 14 8.5 22.5t21.5 8.5h277z" />
    <glyph glyph-name="Wcircumflex" unicode="&#x174;" horiz-adv-x="2260" 
d="M813 1577q-20 0 -26 12.5t6 24.5l206 229q14 17 37 17h193q23 0 37 -17l204 -229q13 -12 7.5 -24.5t-25.5 -12.5h-172q-24 0 -37 16l-110 131l-111 -131q-13 -16 -37 -16h-172zM2179 1434q35 0 25 -35l-432 -1374q-9 -25 -39 -25h-279q-27 0 -33 25l-291 882l-292 -882
q-9 -25 -35 -25h-277q-13 0 -25.5 7t-15.5 18l-426 1374q-6 15 1 25t24 10h301q27 0 35 -25l250 -940l288 940q3 17 19 23q4 2 14 2h277q10 0 18 -4q8 -5 14 -21l287 -940l256 940q6 25 35 25h301z" />
    <glyph glyph-name="wcircumflex" unicode="&#x175;" horiz-adv-x="1859" 
d="M612 1147q-20 0 -26 12.5t6 24.5l207 229q14 17 37 17h192q23 0 37 -17l205 -229q12 -12 6.5 -24.5t-25.5 -12.5h-172q-24 0 -37 16l-110 131l-111 -131q-13 -16 -37 -16h-172zM1796 1004q37 0 25 -35l-348 -944q-9 -25 -37 -25h-262q-28 0 -37 25l-207 540l-205 -540
q-9 -25 -37 -25h-264q-28 0 -37 25l-346 944q-12 35 25 35h270q28 0 37 -25l194 -582l197 582q7 17 20 20q10 5 17 5h258q6 0 16 -5q14 -3 21 -20l200 -582l191 582q9 25 37 25h272z" />
    <glyph glyph-name="Ycircumflex" unicode="&#x176;" horiz-adv-x="1310" 
d="M336 1577q-20 0 -26.5 12.5t5.5 24.5l207 229q14 17 37 17h193q22 0 36 -17l205 -229q13 -12 7.5 -24.5t-25.5 -12.5h-172q-24 0 -37 16l-111 131l-110 -131q-13 -16 -37 -16h-172zM1229 1434q38 0 20 -37l-418 -742v-624q0 -14 -8.5 -22.5t-21.5 -8.5h-289
q-14 0 -22.5 9t-8.5 22v628l-418 738q-18 37 21 37h303q25 0 37 -21l231 -428l232 428q12 21 37 21h305z" />
    <glyph glyph-name="ycircumflex" unicode="&#x177;" horiz-adv-x="1183" 
d="M686 1430q23 0 37 -17l205 -229q12 -12 6.5 -24.5t-25.5 -12.5h-172q-24 0 -37 16l-110 131l-111 -131q-13 -16 -37 -16h-172q-20 0 -26 12.5t6 24.5l207 229q14 17 37 17h192zM1118 1004q37 0 25 -35l-531 -1334q-9 -24 -37 -24h-270q-39 0 -24 35l147 352l-387 971
q-12 35 25 35h278q28 0 37 -25l209 -580l209 580q9 25 37 25h282z" />
    <glyph glyph-name="Ydieresis" unicode="&#x178;" horiz-adv-x="1310" 
d="M414 1542q-67 0 -115.5 48.5t-48.5 119.5q0 68 48.5 116t115.5 48q68 0 116 -47.5t48 -116.5q0 -71 -48 -119.5t-116 -48.5zM897 1542q-68 0 -116 48.5t-48 119.5q0 69 48 116.5t116 47.5q67 0 115.5 -48t48.5 -116q0 -71 -48.5 -119.5t-115.5 -48.5zM1229 1434
q38 0 20 -37l-418 -742v-624q0 -14 -8.5 -22.5t-21.5 -8.5h-289q-14 0 -22.5 9t-8.5 22v628l-418 738q-18 37 21 37h303q25 0 37 -21l231 -428l232 428q12 21 37 21h305z" />
    <glyph glyph-name="Zacute" unicode="&#x179;" horiz-adv-x="1196" 
d="M866 1860q18 0 25 -9t0 -26l-123 -258q-11 -25 -35 -25h-252q-39 0 -24 35l123 258q11 25 34 25h252zM1087 307q13 0 22 -8.5t9 -22.5v-245q0 -13 -9 -22t-22 -9h-978q-13 0 -22 9t-9 22v256q0 19 12 37l631 802h-592q-13 0 -22 9t-9 22v246q0 13 9 22t22 9h938
q13 0 22 -9t9 -22v-256q0 -17 -13 -37l-630 -803h632z" />
    <glyph glyph-name="zacute" unicode="&#x17a;" horiz-adv-x="962" 
d="M750 1430q39 0 24 -35l-123 -258q-11 -25 -35 -25h-251q-18 0 -25 9t0 26l123 258q11 25 35 25h252zM918 973v-219q0 -24 -15 -39l-448 -443h432q14 0 22.5 -8.5t8.5 -21.5v-211q0 -13 -9 -22t-22 -9h-809q-14 0 -22.5 9t-8.5 22v219q0 25 14 39l449 442h-432
q-14 0 -22.5 8.5t-8.5 22.5v211q0 13 8.5 22t22.5 9h809q13 0 22 -9t9 -22z" />
    <glyph glyph-name="Zdotaccent" unicode="&#x17b;" horiz-adv-x="1196" 
d="M600 1542q-67 0 -115.5 48.5t-48.5 119.5q0 68 48.5 116t115.5 48q68 0 116 -47.5t48 -116.5q0 -71 -48 -119.5t-116 -48.5zM1087 307q13 0 22 -8.5t9 -22.5v-245q0 -13 -9 -22t-22 -9h-978q-13 0 -22 9t-9 22v256q0 19 12 37l631 802h-592q-13 0 -22 9t-9 22v246
q0 13 9 22t22 9h938q13 0 22 -9t9 -22v-256q0 -17 -13 -37l-630 -803h632z" />
    <glyph glyph-name="zdotaccent" unicode="&#x17c;" horiz-adv-x="962" 
d="M483 1112q-67 0 -115.5 48.5t-48.5 119.5q0 68 48.5 116t115.5 48q68 0 116 -47.5t48 -116.5q0 -71 -48 -119.5t-116 -48.5zM918 973v-219q0 -24 -15 -39l-448 -443h432q14 0 22.5 -8.5t8.5 -21.5v-211q0 -13 -9 -22t-22 -9h-809q-14 0 -22.5 9t-8.5 22v219q0 25 14 39
l449 442h-432q-14 0 -22.5 8.5t-8.5 22.5v211q0 13 8.5 22t22.5 9h809q13 0 22 -9t9 -22z" />
    <glyph glyph-name="Zcaron" unicode="&#x17d;" horiz-adv-x="1196" 
d="M696 1577h-192q-24 0 -37 16l-207 230q-12 12 -5.5 24.5t26.5 12.5h172q22 0 36 -17l111 -131l111 131q14 17 37 17h172q20 0 25.5 -12.5t-7.5 -24.5l-205 -230q-13 -16 -37 -16zM1087 307q13 0 22 -8.5t9 -22.5v-245q0 -13 -9 -22t-22 -9h-978q-13 0 -22 9t-9 22v256
q0 19 12 37l631 802h-592q-13 0 -22 9t-9 22v246q0 13 9 22t22 9h938q13 0 22 -9t9 -22v-256q0 -17 -13 -37l-630 -803h632z" />
    <glyph glyph-name="zcaron" unicode="&#x17e;" horiz-adv-x="962" 
d="M580 1147h-193q-24 0 -37 16l-207 230q-12 12 -5.5 24.5t26.5 12.5h172q23 0 37 -17l110 -131l111 131q14 17 37 17h172q20 0 25.5 -12.5t-7.5 -24.5l-205 -230q-13 -16 -36 -16zM918 973v-219q0 -24 -15 -39l-448 -443h432q14 0 22.5 -8.5t8.5 -21.5v-211q0 -13 -9 -22
t-22 -9h-809q-14 0 -22.5 9t-8.5 22v219q0 25 14 39l449 442h-432q-14 0 -22.5 8.5t-8.5 22.5v211q0 13 8.5 22t22.5 9h809q13 0 22 -9t9 -22z" />
    <glyph glyph-name="florin" unicode="&#x192;" horiz-adv-x="770" 
d="M791 1432q20 -11 20 -37v-244q0 -19 -11 -26.5t-26 1.5q-61 37 -121 37q-34 0 -55 -8t-29.5 -26t-11 -34.5t-2.5 -45.5v-45h213q14 0 22.5 -9t8.5 -22v-211q0 -14 -8.5 -22.5t-22.5 -8.5h-213v-749q0 -185 -105.5 -278t-281.5 -93q-127 0 -188 35q-21 12 -21 37v243
q0 19 11 26.5t26 -1.5q61 -37 123 -37q33 0 54 8t30 26.5t11.5 36t2.5 46.5v700h-119q-13 0 -21.5 8.5t-8.5 22.5v211q0 14 8.5 22.5t21.5 8.5h119v92q0 185 105 277.5t282 92.5q130 0 187 -34z" />
    <glyph glyph-name="uni01CD" unicode="&#x1cd;" horiz-adv-x="1404" 
d="M580 1593l-207 230q-12 12 -6 24.5t26 12.5h172q23 0 37 -17l111 -131l110 131q14 17 37 17h172q20 0 25.5 -12.5t-6.5 -24.5l-205 -230q-13 -16 -37 -16h-193q-23 0 -36 16zM1366 35q6 -15 -1 -25t-24 -10h-301q-26 0 -34 25l-68 208h-471l-66 -208q-8 -25 -34 -25h-301
q-17 0 -24 10t-1 25l494 1374q9 25 34 25h262q30 0 39 -25zM561 528h283l-142 443z" />
    <glyph glyph-name="uni01CE" unicode="&#x1ce;" 
d="M453 1163l-207 230q-12 12 -6 24.5t26 12.5h172q23 0 37 -17l111 -131l110 131q14 17 37 17h172q20 0 25.5 -12.5t-6.5 -24.5l-205 -230q-13 -16 -37 -16h-193q-23 0 -36 16zM1100 1004q13 0 21.5 -8.5t8.5 -22.5v-942q0 -14 -8.5 -22.5t-21.5 -8.5h-250q-28 0 -31 31
l-6 63q-116 -123 -274 -123q-205 0 -343.5 154t-138.5 375q0 145 62.5 266t173.5 191.5t246 70.5q156 0 274 -131l6 76q3 31 31 31h250zM582 281q86 0 143 65t57 156q0 90 -57 153.5t-143 63.5t-142.5 -61.5t-56.5 -155.5t56.5 -157.5t142.5 -63.5z" />
    <glyph glyph-name="uni01CF" unicode="&#x1cf;" horiz-adv-x="565" 
d="M379 1577h-193q-23 0 -36 16l-207 230q-12 12 -6 24.5t26 12.5h172q23 0 37 -17l111 -131l110 131q14 17 37 17h172q20 0 25.5 -12.5t-6.5 -24.5l-205 -230q-13 -16 -37 -16zM109 1403q0 14 8.5 22.5t21.5 8.5h289q14 0 22.5 -9t8.5 -22v-1372q0 -13 -8.5 -22t-22.5 -9
h-289q-13 0 -21.5 8.5t-8.5 22.5v1372z" />
    <glyph glyph-name="uni01D0" unicode="&#x1d0;" horiz-adv-x="512" 
d="M354 1147h-192q-24 0 -37 16l-207 230q-12 12 -5.5 24.5t26.5 12.5h172q22 0 36 -17l111 -131l111 131q14 17 37 17h172q20 0 25.5 -12.5t-7.5 -24.5l-205 -230q-13 -16 -37 -16zM88 973q0 13 9 22t22 9h276q13 0 22 -9t9 -22v-942q0 -13 -9 -22t-22 -9h-276q-13 0 -22 9
t-9 22v942z" />
    <glyph glyph-name="uni01D1" unicode="&#x1d1;" horiz-adv-x="1613" 
d="M903 1577h-192q-24 0 -37 16l-207 230q-12 12 -6 24.5t26 12.5h172q23 0 37 -17l111 -131l111 131q14 17 36 17h172q20 0 25.5 -12.5t-6.5 -24.5l-205 -230q-13 -16 -37 -16zM807 -27q-150 0 -286.5 58t-235.5 156.5t-158 235.5t-59 288q0 202 99.5 372.5t269.5 268.5
t370 98t370 -98t269.5 -268.5t99.5 -372.5q0 -151 -59 -288t-158 -235.5t-235.5 -156.5t-286.5 -58zM807 313q163 0 275 115.5t112 282.5q0 169 -112 284t-275 115t-275 -115t-112 -284q0 -167 112 -282.5t275 -115.5z" />
    <glyph glyph-name="uni01D2" unicode="&#x1d2;" horiz-adv-x="1165" 
d="M680 1147h-193q-23 0 -36 16l-207 230q-12 12 -6 24.5t26 12.5h172q23 0 37 -17l111 -131l110 131q14 17 37 17h172q20 0 25.5 -12.5t-6.5 -24.5l-205 -230q-13 -16 -37 -16zM584 -27q-143 0 -264.5 70t-192 191.5t-70.5 265.5q0 145 70.5 266t191.5 190.5t265 69.5
q143 0 263.5 -69.5t191.5 -190.5t71 -266q0 -144 -71 -265.5t-192 -191.5t-263 -70zM584 289q84 0 142 60t58 151q0 93 -58 153t-142 60t-142.5 -60.5t-58.5 -152.5q0 -91 58.5 -151t142.5 -60z" />
    <glyph glyph-name="uni01D3" unicode="&#x1d3;" horiz-adv-x="1314" 
d="M754 1577h-193q-24 0 -37 16l-207 230q-12 12 -5.5 24.5t26.5 12.5h172q23 0 37 -17l110 -131l111 131q14 17 37 17h172q20 0 25.5 -12.5t-7.5 -24.5l-204 -230q-13 -16 -37 -16zM1188 1434q14 0 22.5 -9t8.5 -22v-844q0 -276 -155.5 -431t-406.5 -155q-250 0 -404.5 155
t-154.5 431v844q0 13 9 22t22 9h289q14 0 22.5 -9t8.5 -22v-844q0 -240 208 -240q211 0 211 240v844q0 13 9 22t22 9h289z" />
    <glyph glyph-name="uni01D4" unicode="&#x1d4;" horiz-adv-x="1173" 
d="M449 1163l-207 230q-12 12 -6 24.5t26 12.5h172q23 0 37 -17l111 -131l110 131q14 17 37 17h172q20 0 25.5 -12.5t-6.5 -24.5l-205 -230q-13 -16 -37 -16h-193q-23 0 -36 16zM1055 1004q13 0 21.5 -8.5t8.5 -22.5v-942q0 -14 -8.5 -22.5t-21.5 -8.5h-269q-27 0 -30 31
l-8 108q-53 -77 -126.5 -121.5t-158.5 -44.5q-169 0 -277 120t-108 319v561q0 13 9 22t22 9h276q13 0 22 -9t9 -22v-490q0 -57 16 -97t42 -59.5t51.5 -27.5t52.5 -8q83 0 126.5 49t43.5 115v518q0 14 8.5 22.5t21.5 8.5h277z" />
    <glyph glyph-name="uni01EA" unicode="&#x1ea;" horiz-adv-x="1613" 
d="M807 1450q200 0 370 -98t269.5 -268.5t99.5 -372.5q0 -151 -59 -288t-158 -235.5t-235.5 -156.5t-286.5 -58q-37 0 -57 2q-66 -43 -66 -116q0 -31 27 -52.5t88 -9.5v-203q-39 -17 -89.5 -22t-102 5.5t-95 34.5t-71 71t-27.5 110q0 134 133 227q-212 79 -345.5 268
t-133.5 423q0 202 99.5 372.5t269.5 268.5t370 98zM807 313q163 0 275 115.5t112 282.5q0 169 -112 284t-275 115t-275 -115t-112 -284q0 -167 112 -282.5t275 -115.5z" />
    <glyph glyph-name="uni01EB" unicode="&#x1eb;" horiz-adv-x="1165" 
d="M657 -23q-90 -42 -90 -114q0 -34 26.5 -56t88.5 -10v-203q-39 -17 -88.5 -22t-101 5.5t-95 34.5t-71 71t-27.5 110q0 123 115 209q-158 53 -257.5 189.5t-99.5 308.5q0 145 70.5 266t191.5 190.5t265 69.5q143 0 263.5 -69.5t191.5 -190.5t71 -266q0 -199 -130 -347
t-323 -176zM584 713q-84 0 -142.5 -60.5t-58.5 -152.5q0 -91 58.5 -151t142.5 -60t142 60t58 151q0 93 -58 153t-142 60z" />
    <glyph glyph-name="Scommaaccent" unicode="&#x218;" horiz-adv-x="1138" 
d="M434 1020q0 -32 22 -57t59.5 -43t86 -34.5t102.5 -35.5t107.5 -41.5t102 -57.5t86 -79t59.5 -109.5t22 -146.5q0 -87 -30 -161t-80.5 -125t-117 -87t-138.5 -53t-146 -17q-151 0 -287.5 68t-215.5 160q-18 22 0 43l157 178q8 11 20.5 12.5t24.5 -8.5q86 -65 157.5 -94
t154.5 -29q65 0 112 30.5t47 86.5q0 32 -22 57.5t-59.5 45t-86 38t-102 39.5t-107.5 45t-102.5 59.5t-86 79t-59.5 106t-22 138.5q0 99 39.5 180.5t105.5 133t149 80t173 28.5q250 0 455 -188q19 -19 4 -43l-150 -187q-18 -24 -43 -8q-82 53 -136 74.5t-118 21.5
q-67 0 -102 -29.5t-35 -70.5zM549 -78q75 0 127.5 -55.5t52.5 -142.5q0 -101 -46 -198.5t-99 -158.5q-12 -12 -31 -12h-29q-12 0 -17 8.5t1 22.5q41 90 41 180q-73 0 -125.5 52t-52.5 126t52.5 126t125.5 52z" />
    <glyph glyph-name="scommaaccent" unicode="&#x219;" horiz-adv-x="892" 
d="M399 707q0 -25 25 -42.5t64.5 -29t87.5 -24.5t95.5 -35.5t87 -55t64.5 -90t25 -133.5q0 -75 -36.5 -138t-95.5 -102.5t-130 -61.5t-144 -22q-122 0 -224.5 49t-162.5 119q-14 16 0 43l101 144q15 20 47 2q129 -76 229 -76q18 0 28.5 1t27 5t24.5 15t8 28q0 22 -24.5 39.5
t-64 30.5t-87 27.5t-95 38.5t-87 55.5t-64 85t-24.5 122.5q0 101 53 176.5t133.5 111.5t173.5 36q108 0 202 -39.5t157 -112.5q17 -20 -2 -43l-103 -137q-6 -8 -13.5 -8.5t-14 2t-17.5 8.5q-67 37 -100.5 50.5t-71.5 13.5q-39 0 -55.5 -17t-16.5 -36zM446 -78
q75 0 128 -55.5t53 -142.5q0 -101 -46.5 -198.5t-99.5 -158.5q-12 -12 -30 -12h-29q-12 0 -17 8.5t1 22.5q40 88 40 180q-74 0 -126 52t-52 126t52 126t126 52z" />
    <glyph glyph-name="uni021A" unicode="&#x21a;" horiz-adv-x="1146" 
d="M1051 1434q13 0 21.5 -8.5t8.5 -22.5v-246q0 -14 -8.5 -22.5t-21.5 -8.5h-301v-1095q0 -13 -9 -22t-22 -9h-289q-14 0 -22.5 9t-8.5 22v1095h-301q-13 0 -21.5 8.5t-8.5 22.5v246q0 14 8.5 22.5t21.5 8.5h953zM571 -78q75 0 128 -55.5t53 -142.5q0 -101 -46.5 -198.5
t-99.5 -158.5q-12 -12 -31 -12h-28q-12 0 -17.5 8.5t0.5 22.5q41 90 41 180q-73 0 -125.5 52t-52.5 126t52.5 126t125.5 52z" />
    <glyph glyph-name="uni021B" unicode="&#x21b;" horiz-adv-x="778" 
d="M702 1004q14 0 22.5 -9t8.5 -22v-211q0 -14 -8.5 -22.5t-22.5 -8.5h-143v-700q0 -13 -8.5 -22t-22.5 -9h-276q-14 0 -22.5 9t-8.5 22v700h-143q-14 0 -22.5 8.5t-8.5 22.5v211q0 13 8.5 22t22.5 9h143v276q0 14 8.5 22.5t22.5 8.5h276q14 0 22.5 -8.5t8.5 -22.5v-276h143
zM393 -74q75 0 127.5 -55.5t52.5 -142.5q0 -101 -46 -198.5t-99 -158.5q-12 -12 -31 -12h-28q-12 0 -17.5 8.5t0.5 22.5q41 90 41 180q-73 0 -125.5 52t-52.5 126t52.5 126t125.5 52z" />
    <glyph glyph-name="uni0237" unicode="&#x237;" horiz-adv-x="661" 
d="M270 1004h277q13 0 22 -9t9 -22v-946q0 -206 -123 -316.5t-328 -116.5q-24 0 -27 15l-88 280q-3 9 1.5 16t13.5 7q37 3 70.5 13.5t67.5 30.5t54.5 56.5t20.5 85.5v875q0 14 8.5 22.5t21.5 8.5z" />
    <glyph glyph-name="circumflex" unicode="&#x2c6;" horiz-adv-x="718" 
d="M457 1434q23 0 37 -17l204 -229q13 -12 7.5 -24.5t-25.5 -12.5h-172q-24 0 -37 16l-111 131l-110 -131q-13 -16 -37 -16h-172q-20 0 -26.5 12.5t5.5 24.5l207 229q14 17 37 17h193z" />
    <glyph glyph-name="caron" unicode="&#x2c7;" horiz-adv-x="718" 
d="M457 1151h-193q-24 0 -37 16l-207 230q-12 12 -5.5 24.5t26.5 12.5h172q23 0 37 -17l110 -131l111 131q14 17 37 17h172q20 0 25.5 -12.5t-7.5 -24.5l-204 -230q-13 -16 -37 -16z" />
    <glyph glyph-name="breve" unicode="&#x2d8;" horiz-adv-x="702" 
d="M492 1405q6 29 32 29h138q31 0 28 -31q-11 -116 -101 -194.5t-237 -78.5q-148 0 -238.5 78.5t-101.5 194.5q-3 31 29 31h137q27 0 33 -29q12 -36 47.5 -63t93.5 -27t94 27t46 63z" />
    <glyph glyph-name="dotaccent" unicode="&#x2d9;" horiz-adv-x="348" 
d="M174 1112q-67 0 -115.5 48.5t-48.5 119.5q0 68 48.5 116t115.5 48q68 0 116 -47.5t48 -116.5q0 -71 -48 -119.5t-116 -48.5z" />
    <glyph glyph-name="ring" unicode="&#x2da;" horiz-adv-x="481" 
d="M244 1538q92 0 159.5 -67.5t67.5 -161.5q0 -92 -67.5 -160t-159.5 -68q-97 0 -165.5 67.5t-68.5 160.5q0 94 68 161.5t166 67.5zM242 1266q19 0 32 13t13 32t-13 33t-32 14t-32 -14t-13 -33t13 -32t32 -13z" />
    <glyph glyph-name="ogonek" unicode="&#x2db;" horiz-adv-x="452" 
d="M442 0q-78 0 -119.5 -43.5t-41.5 -97.5q0 -31 26.5 -52.5t87.5 -9.5v-203q-39 -17 -89.5 -22t-102 5.5t-95 34.5t-71 71t-27.5 110q0 64 32 119.5t81.5 93t109 65t113.5 40t96 12.5v-123z" />
    <glyph glyph-name="tilde" unicode="&#x2dc;" horiz-adv-x="833" 
d="M250 1483q48 0 91.5 -15t76.5 -37t63 -44t62 -37t63 -15q35 0 62 16.5t37 39.5q7 14 22 14h76q20 0 20 -21q-4 -117 -69.5 -177t-171.5 -60q-57 0 -111 23t-88 50.5t-76.5 50.5t-79.5 23q-34 0 -60.5 -16t-37.5 -39q-7 -14 -23 -14h-75q-21 0 -21 26q7 116 72 174t168 58
z" />
    <glyph glyph-name="hungarumlaut" unicode="&#x2dd;" horiz-adv-x="929" 
d="M424 1491q18 0 25 -9t0 -26l-123 -258q-11 -24 -35 -24h-252q-40 0 -25 34l123 258q11 25 35 25h252zM844 1491q39 0 24 -35l-123 -258q-11 -24 -34 -24h-252q-40 0 -25 34l123 258q11 25 35 25h252z" />
    <glyph glyph-name="uni0326" unicode="&#x326;" horiz-adv-x="0" 
d="M-190 -78q75 0 127.5 -55.5t52.5 -142.5q0 -101 -46.5 -198.5t-99.5 -158.5q-12 -12 -30 -12h-29q-12 0 -17 8.5t1 22.5q41 90 41 180q-74 0 -126.5 52.5t-52.5 125.5t52.5 125.5t126.5 52.5z" />
    <glyph glyph-name="uni0394" unicode="&#x394;" horiz-adv-x="1404" 
d="M1366 35q6 -15 -1 -25t-24 -10h-1275q-17 0 -24 10t-1 25l494 1374q9 25 34 25h262q30 0 39 -25zM702 971l-221 -699h445z" />
    <glyph glyph-name="uni03A9" unicode="&#x3a9;" horiz-adv-x="1611" 
d="M1546 743q0 -76 -18 -155t-67.5 -166.5t-123.5 -149.5h209v-272h-594v360q109 49 175.5 149.5t66.5 233.5q0 162 -111.5 264.5t-275.5 102.5q-165 0 -276 -102.5t-111 -264.5q0 -133 66 -233.5t176 -149.5v-360h-594v272h208q-75 62 -124 150t-66.5 166t-17.5 155
q0 149 58.5 281t158 225t236 147t286.5 54t286.5 -54t236 -147t158 -225t58.5 -281z" />
    <glyph glyph-name="uni03BC" unicode="&#x3bc;" horiz-adv-x="1173" 
d="M1055 1004q13 0 21.5 -8.5t8.5 -22.5v-942q0 -14 -8.5 -22.5t-21.5 -8.5h-269q-27 0 -30 31l-8 108q-53 -77 -126.5 -121.5t-158.5 -44.5q-31 0 -47 2v-333q0 -14 -9 -22.5t-22 -8.5h-276q-13 0 -22 8.5t-9 22.5v1331q0 13 9 22t22 9h276q13 0 22 -9t9 -22v-490
q0 -57 16 -97t42 -59.5t51.5 -27.5t52.5 -8q83 0 126.5 49t43.5 115v518q0 14 8.5 22.5t21.5 8.5h277z" />
    <glyph glyph-name="pi" unicode="&#x3c0;" horiz-adv-x="1492" 
d="M1415 295q17 3 27 -5.5t10 -23.5v-217q0 -63 -199 -63q-63 0 -118 17t-103 53t-76 101.5t-28 153.5v420h-281v-700q0 -13 -8.5 -22t-22.5 -9h-276q-14 0 -22.5 9t-8.5 22v700h-170q-13 0 -21.5 8.5t-8.5 22.5v211q0 14 8.5 22.5t21.5 8.5h1223q14 0 22.5 -9t8.5 -22v-211
q0 -14 -8.5 -22.5t-22.5 -8.5h-96v-352q0 -43 21 -65.5t59 -22.5q44 0 69 4z" />
    <glyph glyph-name="uni0401" unicode="&#x401;" horiz-adv-x="1054" 
d="M297 1542q-67 0 -115.5 48.5t-48.5 119.5q0 68 48.5 116t115.5 48q68 0 116 -47.5t48 -116.5q0 -71 -48 -119.5t-116 -48.5zM780 1542q-68 0 -116 48.5t-48 119.5q0 69 48 116.5t116 47.5q67 0 115.5 -48t48.5 -116q0 -71 -48.5 -119.5t-115.5 -48.5zM922 307
q13 0 21.5 -8.5t8.5 -22.5v-245q0 -14 -8.5 -22.5t-21.5 -8.5h-783q-13 0 -21.5 8.5t-8.5 22.5v1372q0 14 8.5 22.5t21.5 8.5h781q13 0 21.5 -8.5t8.5 -22.5v-246q0 -14 -8.5 -22.5t-21.5 -8.5h-461v-245h432q13 0 22 -8.5t9 -22.5v-246q0 -14 -9 -22.5t-22 -8.5h-432v-266
h463z" />
    <glyph glyph-name="uni0403" unicode="&#x403;" horiz-adv-x="1007" 
d="M393 1542q-39 0 -24 35l123 258q11 25 34 25h252q18 0 25 -9t0 -26l-123 -258q-11 -25 -35 -25h-252zM930 1434q14 0 22.5 -9t8.5 -22v-246q0 -13 -8.5 -22t-22.5 -9h-471v-1095q0 -13 -8.5 -22t-22.5 -9h-289q-13 0 -21.5 8.5t-8.5 22.5v1372q0 14 8.5 22.5t21.5 8.5
h791z" />
    <glyph glyph-name="uni0404" unicode="&#x404;" horiz-adv-x="1388" 
d="M1145 422l178 -193q17 -24 0 -43q-95 -101 -227 -157t-283 -56q-152 0 -290 58t-237.5 156t-158.5 235t-59 289q0 153 59 290.5t158.5 235.5t237.5 155.5t290 57.5q151 0 283.5 -55.5t226.5 -157.5q18 -18 0 -43l-178 -193q-7 -10 -20 -10.5t-23 8.5q-126 109 -293 109
q-119 0 -213 -65t-137 -173h413q14 0 22.5 -8.5t8.5 -21.5v-246q0 -14 -8.5 -22.5t-22.5 -8.5h-417q42 -112 137 -179t217 -67q171 0 293 109q11 9 23 8t20 -12z" />
    <glyph glyph-name="uni0406" unicode="&#x406;" horiz-adv-x="565" 
d="M109 1403q0 14 8.5 22.5t21.5 8.5h289q14 0 22.5 -9t8.5 -22v-1372q0 -13 -8.5 -22t-22.5 -9h-289q-13 0 -21.5 8.5t-8.5 22.5v1372z" />
    <glyph glyph-name="uni0407" unicode="&#x407;" horiz-adv-x="565" 
d="M41 1542q-67 0 -115.5 48.5t-48.5 119.5q0 68 48.5 116t115.5 48q68 0 116 -47.5t48 -116.5q0 -71 -48 -119.5t-116 -48.5zM524 1542q-68 0 -116 48.5t-48 119.5q0 69 48 116.5t116 47.5q67 0 115.5 -48t48.5 -116q0 -71 -48.5 -119.5t-115.5 -48.5zM109 1403
q0 14 8.5 22.5t21.5 8.5h289q14 0 22.5 -9t8.5 -22v-1372q0 -13 -8.5 -22t-22.5 -9h-289q-13 0 -21.5 8.5t-8.5 22.5v1372z" />
    <glyph glyph-name="uni0410" unicode="&#x410;" horiz-adv-x="1404" 
d="M1366 35q6 -15 -1 -25t-24 -10h-301q-26 0 -34 25l-68 208h-471l-66 -208q-8 -25 -34 -25h-301q-17 0 -24 10t-1 25l494 1374q9 25 34 25h262q30 0 39 -25zM561 528h283l-142 443z" />
    <glyph glyph-name="uni0411" unicode="&#x411;" horiz-adv-x="1175" 
d="M586 963q257 0 399.5 -131.5t142.5 -350.5q0 -218 -142.5 -349.5t-399.5 -131.5h-447q-13 0 -21.5 8.5t-8.5 22.5v1372q0 14 8.5 22.5t21.5 8.5h791q14 0 22.5 -9t8.5 -22v-246q0 -13 -8.5 -22t-22.5 -9h-471v-163h127zM580 307q40 0 75.5 8t68.5 26.5t52 54t19 85.5
q0 49 -19.5 84.5t-52 54t-68 27t-75.5 8.5h-121v-348h121z" />
    <glyph glyph-name="uni0412" unicode="&#x412;" horiz-adv-x="1243" 
d="M920 764q111 -31 194.5 -124.5t83.5 -227.5q0 -412 -541 -412h-518q-13 0 -21.5 8.5t-8.5 22.5v1372q0 14 8.5 22.5t21.5 8.5h516q200 0 315 -106t115 -269q0 -107 -48.5 -186t-116.5 -109zM762 1012q0 114 -139 114h-164v-237h164q139 0 139 123zM672 307q81 0 129.5 39
t48.5 113q0 76 -50 109.5t-128 33.5h-213v-295h213z" />
    <glyph glyph-name="uni0413" unicode="&#x413;" horiz-adv-x="1007" 
d="M930 1434q14 0 22.5 -9t8.5 -22v-246q0 -13 -8.5 -22t-22.5 -9h-471v-1095q0 -13 -8.5 -22t-22.5 -9h-289q-13 0 -21.5 8.5t-8.5 22.5v1372q0 14 8.5 22.5t21.5 8.5h791z" />
    <glyph glyph-name="uni0414" unicode="&#x414;" horiz-adv-x="1730" 
d="M1638 307q14 0 22.5 -8.5t8.5 -22.5v-387q0 -13 -8.5 -21.5t-22.5 -8.5h-288q-14 0 -22.5 8.5t-8.5 21.5v111h-907v-111q0 -13 -8.5 -21.5t-22.5 -8.5h-289q-14 0 -22.5 8.5t-8.5 21.5v387q0 4 5 19q0 14 16 14q48 0 94 17t82.5 61t36.5 107v909q0 13 8.5 22t22.5 9h1104
q13 0 21.5 -8.5t8.5 -22.5v-1096h178zM645 422q0 -62 -12 -115h477v819h-465v-704z" />
    <glyph glyph-name="uni0415" unicode="&#x415;" horiz-adv-x="1054" 
d="M922 307q13 0 21.5 -8.5t8.5 -22.5v-245q0 -14 -8.5 -22.5t-21.5 -8.5h-783q-13 0 -21.5 8.5t-8.5 22.5v1372q0 14 8.5 22.5t21.5 8.5h781q13 0 21.5 -8.5t8.5 -22.5v-246q0 -14 -8.5 -22.5t-21.5 -8.5h-461v-245h432q13 0 22 -8.5t9 -22.5v-246q0 -14 -9 -22.5t-22 -8.5
h-432v-266h463z" />
    <glyph glyph-name="uni0416" unicode="&#x416;" horiz-adv-x="2189" 
d="M2146 37q11 -15 6 -26t-24 -11h-340q-24 0 -37 18l-373 527l-100 -117v-397q0 -13 -9 -22t-22 -9h-291q-13 0 -21.5 8.5t-8.5 22.5v397l-101 117l-372 -527q-13 -18 -37 -18h-340q-19 0 -24.5 11t5.5 26l535 780l-498 580q-12 13 -7.5 25t24.5 12h356q23 0 37 -17
l422 -524v510q0 14 8.5 22.5t21.5 8.5h291q13 0 22 -9t9 -22v-510l422 524q14 17 37 17h356q20 0 24.5 -12t-8.5 -25l-497 -580z" />
    <glyph glyph-name="uni0417" unicode="&#x417;" horiz-adv-x="1122" 
d="M813 756q99 -40 168.5 -127.5t69.5 -200.5q0 -188 -147.5 -316t-381.5 -128q-137 0 -254 47.5t-188 130.5q-19 22 2 43l182 174q19 19 45 0q49 -38 92.5 -51t102.5 -13q94 0 141 38.5t47 101.5q0 16 -4.5 32t-21 37t-43.5 36.5t-77 27t-116 12.5q-31 0 -31 31v205
q0 30 35 30q66 1 112 10.5t69 21t35 31.5t14 33t2 35q0 59 -47 91t-95 32q-100 0 -170 -57q-26 -19 -45 0l-178 168q-21 21 -2 43q68 80 178 128t232 48q123 0 229 -47t173 -139t67 -211q0 -101 -57 -182t-138 -115z" />
    <glyph glyph-name="uni0418" unicode="&#x418;" horiz-adv-x="1419" 
d="M1280 1434q14 0 22.5 -9t8.5 -22v-1372q0 -13 -8.5 -22t-22.5 -9h-289q-13 0 -21.5 8.5t-8.5 22.5v829l-465 -840q-11 -20 -37 -20h-322q-13 0 -22 9t-9 22v1372q0 13 9 22t22 9h289q14 0 22.5 -9t8.5 -22v-832l465 842q12 21 36 21h322z" />
    <glyph glyph-name="uni0419" unicode="&#x419;" horiz-adv-x="1419" 
d="M711 1559q-148 0 -238.5 78t-101.5 194q-3 31 28 31h138q26 0 32 -29q12 -36 48 -63t94 -27t93 27t46 63q6 29 33 29h137q32 0 29 -31q-11 -116 -100.5 -194t-237.5 -78zM1280 1434q14 0 22.5 -9t8.5 -22v-1372q0 -13 -8.5 -22t-22.5 -9h-289q-13 0 -21.5 8.5t-8.5 22.5
v829l-465 -840q-11 -20 -37 -20h-322q-13 0 -22 9t-9 22v1372q0 13 9 22t22 9h289q14 0 22.5 -9t8.5 -22v-832l465 842q12 21 36 21h322z" />
    <glyph glyph-name="uni041A" unicode="&#x41a;" horiz-adv-x="1370" 
d="M1327 37q11 -15 6 -26t-24 -11h-340q-24 0 -37 18l-373 527l-100 -117v-397q0 -13 -8.5 -22t-22.5 -9h-289q-13 0 -21.5 8.5t-8.5 22.5v1372q0 14 8.5 22.5t21.5 8.5h289q14 0 22.5 -9t8.5 -22v-510l422 524q14 17 37 17h356q20 0 24.5 -12t-8.5 -25l-497 -580z" />
    <glyph glyph-name="uni041B" unicode="&#x41b;" horiz-adv-x="1521" 
d="M1384 1434q14 0 22.5 -9t8.5 -22v-1372q0 -13 -8.5 -22t-22.5 -9h-288q-14 0 -22.5 9t-8.5 22v1095h-465v-704q0 -138 -61.5 -237.5t-165 -147t-236.5 -47.5q-21 0 -26 16l-88 281q-3 9 1 15.5t13 6.5q48 0 94 17t82.5 61t36.5 107v909q0 13 9 22t22 9h1103z" />
    <glyph glyph-name="uni041C" unicode="&#x41c;" horiz-adv-x="1744" 
d="M1608 1434q13 0 21.5 -8.5t8.5 -22.5v-1372q0 -14 -8.5 -22.5t-21.5 -8.5h-289q-13 0 -22 9t-9 22v628l-248 -632q-10 -27 -39 -27h-256q-28 0 -38 27l-248 632v-628q0 -13 -8.5 -22t-22.5 -9h-289q-13 0 -21.5 8.5t-8.5 22.5v1372q0 14 8.5 22.5t21.5 8.5h322
q28 0 37 -21l374 -1007l377 1007q9 21 37 21h322z" />
    <glyph glyph-name="uni041D" unicode="&#x41d;" horiz-adv-x="1380" 
d="M1243 1434q13 0 22 -9t9 -22v-1372q0 -13 -9 -22t-22 -9h-289q-13 0 -21.5 8.5t-8.5 22.5v516h-465v-516q0 -13 -8.5 -22t-22.5 -9h-289q-13 0 -21.5 8.5t-8.5 22.5v1372q0 14 8.5 22.5t21.5 8.5h289q14 0 22.5 -9t8.5 -22v-549h465v549q0 14 8.5 22.5t21.5 8.5h289z" />
    <glyph glyph-name="uni041E" unicode="&#x41e;" horiz-adv-x="1613" 
d="M807 -27q-150 0 -286.5 58t-235.5 156.5t-158 235.5t-59 288q0 202 99.5 372.5t269.5 268.5t370 98t370 -98t269.5 -268.5t99.5 -372.5q0 -151 -59 -288t-158 -235.5t-235.5 -156.5t-286.5 -58zM807 313q163 0 275 115.5t112 282.5q0 169 -112 284t-275 115t-275 -115
t-112 -284q0 -167 112 -282.5t275 -115.5z" />
    <glyph glyph-name="uni041F" unicode="&#x41f;" horiz-adv-x="1380" 
d="M1243 1434q13 0 22 -9t9 -22v-1372q0 -13 -9 -22t-22 -9h-289q-13 0 -21.5 8.5t-8.5 22.5v1095h-465v-1095q0 -13 -8.5 -22t-22.5 -9h-289q-13 0 -21.5 8.5t-8.5 22.5v1372q0 14 8.5 22.5t21.5 8.5h1104z" />
    <glyph glyph-name="uni0420" unicode="&#x420;" horiz-adv-x="1175" 
d="M586 1434q257 0 399.5 -131.5t142.5 -350.5q0 -218 -142.5 -349.5t-399.5 -131.5h-127v-440q0 -13 -8.5 -22t-22.5 -9h-289q-13 0 -21.5 8.5t-8.5 22.5v1372q0 14 8.5 22.5t21.5 8.5h447zM580 778q40 0 75.5 8.5t68 27t52 54t19.5 84.5q0 50 -19 85.5t-52 54t-68.5 26.5
t-75.5 8h-121v-348h121z" />
    <glyph glyph-name="uni0421" unicode="&#x421;" horiz-adv-x="1388" 
d="M1145 422l178 -193q17 -24 0 -43q-95 -101 -227 -157t-283 -56q-152 0 -290 58t-237.5 156t-158.5 235t-59 289q0 153 59 290.5t158.5 235.5t237.5 155.5t290 57.5q151 0 283.5 -55.5t226.5 -157.5q18 -18 0 -43l-178 -193q-7 -10 -20 -10.5t-23 8.5q-126 109 -293 109
q-162 0 -271.5 -113.5t-109.5 -283.5q0 -167 110 -280.5t271 -113.5q171 0 293 109q11 9 23 8t20 -12z" />
    <glyph glyph-name="uni0422" unicode="&#x422;" horiz-adv-x="1146" 
d="M1051 1434q13 0 21.5 -8.5t8.5 -22.5v-246q0 -14 -8.5 -22.5t-21.5 -8.5h-301v-1095q0 -13 -9 -22t-22 -9h-289q-14 0 -22.5 9t-8.5 22v1095h-301q-13 0 -21.5 8.5t-8.5 22.5v246q0 14 8.5 22.5t21.5 8.5h953z" />
    <glyph glyph-name="uni0423" unicode="&#x423;" horiz-adv-x="1472" 
d="M1389 1434q18 0 23.5 -11t-3.5 -26l-831 -1377q-11 -20 -37 -20h-303q-40 0 -21 37l334 553l-488 807q-9 15 -3 26t24 11h303q25 0 37 -21l313 -514l312 514q12 21 36 21h304z" />
    <glyph glyph-name="uni0424" unicode="&#x424;" horiz-adv-x="1906" 
d="M1190 1311q151 0 278.5 -51t209.5 -135.5t127.5 -190t45.5 -217.5q0 -111 -45.5 -216.5t-127.5 -190t-209.5 -136t-278.5 -51.5h-60v-92q0 -14 -8.5 -22.5t-21.5 -8.5h-289q-13 0 -22 9t-9 22v92h-63q-151 0 -278 51.5t-209 136t-127.5 190t-45.5 216.5q0 89 28 175
t85 161.5t134.5 133t184.5 91t228 33.5h63v92q0 13 9 22t22 9h289q13 0 21.5 -8.5t8.5 -22.5v-92h60zM717 430h63v574h-63q-141 0 -223 -81t-82 -206q0 -124 82 -205.5t223 -81.5zM1190 430q141 0 223 81.5t82 205.5q0 125 -82 206t-223 81h-60v-574h60z" />
    <glyph glyph-name="uni0425" unicode="&#x425;" horiz-adv-x="1320" 
d="M1260 37q19 -37 -21 -37h-305q-26 0 -37 20l-235 400l-238 -400q-11 -20 -37 -20h-303q-40 0 -21 37l412 696l-391 664q-18 37 20 37h304q24 0 36 -21l218 -364l215 364q12 21 36 21h306q38 0 20 -37l-393 -664z" />
    <glyph glyph-name="uni0426" unicode="&#x426;" horiz-adv-x="1550" 
d="M1458 307q14 0 22.5 -8.5t8.5 -22.5v-387q0 -13 -8.5 -21.5t-22.5 -8.5h-289q-13 0 -21.5 8.5t-8.5 21.5v111h-1000q-13 0 -21.5 8.5t-8.5 22.5v1372q0 14 8.5 22.5t21.5 8.5h289q14 0 22.5 -9t8.5 -22v-1096h465v1096q0 14 8.5 22.5t21.5 8.5h289q13 0 22 -9t9 -22
v-1096h184z" />
    <glyph glyph-name="uni0427" unicode="&#x427;" horiz-adv-x="1341" 
d="M1204 1434q14 0 22.5 -9t8.5 -22v-1372q0 -13 -8.5 -22t-22.5 -9h-289q-13 0 -21.5 8.5t-8.5 22.5v567q-66 -87 -168.5 -136.5t-231.5 -49.5q-170 0 -297 133t-127 329v529q0 13 8.5 22t22.5 9h289q13 0 22 -9t9 -22v-457q0 -56 20.5 -96t52.5 -58.5t60.5 -26t56.5 -7.5
q114 0 198.5 55t84.5 100v490q0 14 8.5 22.5t21.5 8.5h289z" />
    <glyph glyph-name="uni0428" unicode="&#x428;" horiz-adv-x="2193" 
d="M2058 1434q14 0 22.5 -9t8.5 -22v-1372q0 -13 -8.5 -22t-22.5 -9h-1919q-13 0 -21.5 8.5t-8.5 22.5v1372q0 14 8.5 22.5t21.5 8.5h289q14 0 22.5 -9t8.5 -22v-1096h465v1096q0 14 8.5 22.5t21.5 8.5h289q13 0 22 -9t9 -22v-1096h465v1096q0 14 8.5 22.5t21.5 8.5h289z
" />
    <glyph glyph-name="uni0429" unicode="&#x429;" horiz-adv-x="2365" 
d="M2273 307q13 0 22 -8.5t9 -22.5v-387q0 -13 -8.5 -21.5t-22.5 -8.5h-288q-14 0 -22.5 8.5t-8.5 21.5v111h-1815q-13 0 -21.5 8.5t-8.5 22.5v1372q0 14 8.5 22.5t21.5 8.5h289q14 0 22.5 -9t8.5 -22v-1096h465v1096q0 14 8.5 22.5t21.5 8.5h289q13 0 22 -9t9 -22v-1096
h465v1096q0 14 8.5 22.5t21.5 8.5h289q14 0 22.5 -9t8.5 -22v-1096h184z" />
    <glyph glyph-name="uni042A" unicode="&#x42a;" horiz-adv-x="1347" 
d="M760 963q257 0 400 -132t143 -350t-143 -349.5t-400 -131.5h-447q-13 0 -21.5 8.5t-8.5 22.5v1095h-222q-13 0 -21.5 8.5t-8.5 22.5v246q0 14 8.5 22.5t21.5 8.5h541q14 0 22.5 -9t8.5 -22v-440h127zM754 307q40 0 75.5 8t68.5 26.5t52 54t19 85.5q0 49 -19.5 84.5
t-52 54t-68 27t-75.5 8.5h-121v-348h121z" />
    <glyph glyph-name="uni042B" unicode="&#x42b;" horiz-adv-x="1826" 
d="M586 0h-447q-13 0 -21.5 8.5t-8.5 22.5v1372q0 14 8.5 22.5t21.5 8.5h289q14 0 22.5 -9t8.5 -22v-440h127q257 0 399.5 -131.5t142.5 -350.5q0 -218 -142.5 -349.5t-399.5 -131.5zM1370 1403q0 13 9 22t22 9h289q13 0 21.5 -8.5t8.5 -22.5v-1372q0 -14 -8.5 -22.5
t-21.5 -8.5h-289q-13 0 -22 9t-9 22v1372zM580 655h-121v-348h121q40 0 75.5 8t68.5 26.5t52 54t19 85.5q0 49 -19.5 84.5t-52 54t-68 27t-75.5 8.5z" />
    <glyph glyph-name="uni042C" unicode="&#x42c;" horiz-adv-x="1175" 
d="M586 0h-447q-13 0 -21.5 8.5t-8.5 22.5v1372q0 14 8.5 22.5t21.5 8.5h289q14 0 22.5 -9t8.5 -22v-440h127q257 0 399.5 -131.5t142.5 -350.5q0 -218 -142.5 -349.5t-399.5 -131.5zM580 655h-121v-348h121q40 0 75.5 8t68.5 26.5t52 54t19 85.5q0 49 -19.5 84.5t-52 54
t-68 27t-75.5 8.5z" />
    <glyph glyph-name="uni042D" unicode="&#x42d;" horiz-adv-x="1388" 
d="M586 1450q152 0 290 -57.5t237.5 -155.5t158.5 -235.5t59 -290.5q0 -152 -59 -289t-158.5 -235t-237.5 -156t-290 -58q-151 0 -283 56t-227 157q-17 19 0 43l178 193q8 11 20 12t23 -8q122 -109 293 -109q122 0 217 67t137 179h-418q-13 0 -21.5 8.5t-8.5 22.5v246
q0 14 8 22t22 8h414q-43 108 -137 173t-213 65q-167 0 -293 -109q-10 -9 -23 -8.5t-20 10.5l-178 193q-18 25 0 43q94 102 226.5 157.5t283.5 55.5z" />
    <glyph glyph-name="uni042E" unicode="&#x42e;" horiz-adv-x="2086" 
d="M1280 1450q200 0 370 -98t269.5 -268.5t99.5 -372.5q0 -151 -59 -288t-158 -235.5t-235.5 -156.5t-286.5 -58q-265 0 -468.5 167.5t-256.5 422.5h-96v-532q0 -13 -8.5 -22t-22.5 -9h-289q-13 0 -21.5 8.5t-8.5 22.5v1372q0 14 8.5 22.5t21.5 8.5h289q14 0 22.5 -9
t8.5 -22v-533h98q56 252 258.5 416t464.5 164zM1280 313q163 0 275 115.5t112 282.5q0 169 -112 284t-275 115t-275 -115t-112 -284q0 -167 112 -282.5t275 -115.5z" />
    <glyph glyph-name="uni042F" unicode="&#x42f;" horiz-adv-x="1234" 
d="M1096 1434q13 0 21.5 -8.5t8.5 -22.5v-1372q0 -14 -8.5 -22.5t-21.5 -8.5h-289q-13 0 -22 9t-9 22v440h-55l-287 -451q-11 -20 -37 -20h-305q-19 0 -24.5 10t4.5 27l313 481q-136 55 -207.5 168t-71.5 266q0 218 143 350t400 132h447zM655 1126q-40 0 -75.5 -8
t-68.5 -26.5t-52 -54t-19 -85.5q0 -49 19.5 -84.5t52 -54t68 -27t75.5 -8.5h121v348h-121z" />
    <glyph glyph-name="uni0430" unicode="&#x430;" 
d="M1100 1004q13 0 21.5 -8.5t8.5 -22.5v-942q0 -14 -8.5 -22.5t-21.5 -8.5h-250q-28 0 -31 31l-6 63q-116 -123 -274 -123q-205 0 -343.5 154t-138.5 375q0 145 62.5 266t173.5 191.5t246 70.5q156 0 274 -131l6 76q3 31 31 31h250zM582 281q86 0 143 65t57 156
q0 90 -57 153.5t-143 63.5t-142.5 -61.5t-56.5 -155.5t56.5 -157.5t142.5 -63.5z" />
    <glyph glyph-name="uni0431" unicode="&#x431;" 
d="M678 1028q137 0 248 -70.5t173 -191.5t62 -266t-62 -266t-173 -192t-248 -71q-158 0 -272 121l-7 -61q-3 -31 -30 -31h-250q-13 0 -22 9t-9 22v1024q0 191 86 285t248 94h237q112 0 156 41h250q1 -96 -29.5 -163.5t-89 -104t-128.5 -52.5t-161 -16h-143
q-57 0 -77.5 -28.5t-20.5 -82.5l2 -115q115 115 260 115zM635 281q87 0 144 63.5t57 157.5t-56.5 155.5t-144.5 61.5q-85 0 -143 -64t-58 -153q0 -91 58 -156t143 -65z" />
    <glyph glyph-name="uni0432" unicode="&#x432;" horiz-adv-x="1193" 
d="M944 522q91 -27 147 -89t56 -144q0 -79 -37 -136.5t-103.5 -90t-149 -47.5t-183.5 -15h-555q-13 0 -22 9t-9 22v942q0 13 9 22t22 9h555q110 0 199.5 -32t145.5 -100t56 -163q0 -65 -35.5 -113t-95.5 -74zM772 676q0 10 -2.5 17.5t-12.5 17t-35 15t-63 5.5h-233v-115h244
q38 0 61.5 6t31 18.5t8.5 17.5t1 18zM659 272q73 0 110 9t45.5 21t8.5 36q0 19 -8.5 28.5t-42.5 16t-102 6.5h-244v-117h233z" />
    <glyph glyph-name="uni0433" unicode="&#x433;" horiz-adv-x="880" 
d="M805 1004q13 0 22 -9t9 -22v-211q0 -14 -9 -22.5t-22 -8.5h-379v-700q0 -13 -9 -22t-22 -9h-276q-13 0 -22 9t-9 22v942q0 13 9 22t22 9h686z" />
    <glyph glyph-name="uni0434" unicode="&#x434;" horiz-adv-x="1566" 
d="M1475 272q13 0 21.5 -8t8.5 -22v-322q0 -14 -8.5 -22.5t-21.5 -8.5h-277q-14 0 -22.5 8.5t-8.5 22.5v80h-768v-80q0 -14 -8.5 -22.5t-21.5 -8.5h-277q-14 0 -22.5 8.5t-8.5 22.5v371q0 4 5 14q4 4 12 4q48 0 94 17t82.5 61t36.5 107v479q0 13 8.5 22t22.5 9h917
q13 0 22 -9t9 -22v-701h205zM629 731v-309q0 -82 -21 -150h324v459h-303z" />
    <glyph glyph-name="uni0435" unicode="&#x435;" horiz-adv-x="1105" 
d="M1051 514q0 -71 -15.5 -102t-62.5 -31h-580q43 -139 234 -139q95 0 180 51q27 16 45 -4l119 -117q21 -20 -4 -45q-74 -72 -170 -113t-201 -41q-158 0 -281.5 70t-190.5 190t-67 267q0 146 67 266.5t184.5 190t260.5 69.5t254 -69.5t169.5 -185.5t58.5 -257zM573 743
q-69 0 -119.5 -37.5t-66.5 -113.5h363q-14 76 -62 113.5t-115 37.5z" />
    <glyph glyph-name="uni0436" unicode="&#x436;" horiz-adv-x="1990" 
d="M1944 37q12 -15 6.5 -26t-25.5 -11h-330q-23 0 -36 16l-293 330l-101 -104v-211q0 -14 -8.5 -22.5t-21.5 -8.5h-279q-14 0 -22.5 9t-8.5 22v211l-100 104l-293 -330q-13 -16 -37 -16h-329q-20 0 -25.5 11t6.5 26l467 526l-389 404q-14 15 -9 26t25 11h328q25 0 39 -17
l317 -334v320q0 13 8.5 22t22.5 9h279q13 0 21.5 -8.5t8.5 -22.5v-320l318 334q14 17 39 17h327q20 0 25 -11t-8 -26l-389 -404z" />
    <glyph glyph-name="uni0437" unicode="&#x437;" horiz-adv-x="894" 
d="M672 535q72 -38 111.5 -102t39.5 -140q0 -60 -22 -111.5t-58.5 -87t-84.5 -61t-100.5 -37.5t-106.5 -12q-263 0 -367 129q-25 31 4 63l125 129q22 22 55 -2q62 -41 140 -41q118 0 118 76q0 19 -11.5 34.5t-51.5 29.5t-105 14q-22 0 -35.5 12.5t-13.5 34.5v117
q0 22 13.5 34.5t35.5 12.5q79 0 105 17t26 46q0 51 -92 51q-32 0 -102 -20q-57 -27 -80 2l-98 106q-31 31 -4 62q47 54 136.5 89.5t199.5 35.5q83 0 160.5 -28.5t132.5 -91.5t55 -148q0 -127 -125 -213z" />
    <glyph glyph-name="uni0438" unicode="&#x438;" horiz-adv-x="1204" 
d="M1087 1004q13 0 22 -9t9 -22v-942q0 -13 -9 -22t-22 -9h-276q-13 0 -22 9t-9 22v518l-354 -529q0 -1 -1 -2t-1 -2q-10 -16 -29 -16h-282q-25 4 -25 31v942q0 13 9 22t22 9h276q13 0 22 -9t9 -22v-506l346 516q14 21 39 21h276z" />
    <glyph glyph-name="uni0439" unicode="&#x439;" horiz-adv-x="1204" 
d="M637 1128q-148 0 -238.5 78.5t-101.5 194.5q-3 31 29 31h137q27 0 33 -29q12 -36 47.5 -63t93.5 -27t93 27t46 63q6 29 33 29h137q32 0 29 -31q-11 -116 -101 -194.5t-237 -78.5zM1087 1004q13 0 22 -9t9 -22v-942q0 -13 -9 -22t-22 -9h-276q-13 0 -22 9t-9 22v518
l-354 -529q0 -1 -1 -2t-1 -2q-10 -16 -29 -16h-282q-25 4 -25 31v942q0 13 9 22t22 9h276q13 0 22 -9t9 -22v-506l346 516q14 21 39 21h276z" />
    <glyph glyph-name="uni043A" unicode="&#x43a;" horiz-adv-x="1251" 
d="M1204 37q12 -15 7 -26t-25 -11h-330q-24 0 -37 16l-293 330l-100 -104v-211q0 -13 -9 -22t-22 -9h-276q-13 0 -22 9t-9 22v942q0 13 9 22t22 9h276q13 0 22 -9t9 -22v-320l317 334q14 17 39 17h328q20 0 25 -11t-9 -26l-389 -404z" />
    <glyph glyph-name="uni043B" unicode="&#x43b;" horiz-adv-x="1304" 
d="M1188 1004q14 0 22.5 -9t8.5 -22v-942q0 -13 -8.5 -22t-22.5 -9h-277q-13 0 -21.5 8.5t-8.5 22.5v700h-303v-309q0 -208 -124 -320t-327 -112q-19 0 -27 16l-88 281q-3 9 1.5 15.5t13.5 6.5q48 0 94 17t82.5 61t36.5 107v479q0 14 8.5 22.5t21.5 8.5h918z" />
    <glyph glyph-name="uni043C" unicode="&#x43c;" horiz-adv-x="1564" 
d="M1448 1004q14 0 22.5 -9t8.5 -22v-942q0 -13 -8.5 -22t-22.5 -9h-277q-13 0 -21.5 8.5t-8.5 22.5v377l-178 -385q-7 -23 -35 -23h-289q-28 0 -35 23l-178 385v-377q0 -13 -9 -22t-22 -9h-276q-13 0 -22 9t-9 22v942q0 13 9 22t22 9h323q22 0 35 -23l307 -631l306 631
q13 23 34 23h324z" />
    <glyph glyph-name="uni043D" unicode="&#x43d;" horiz-adv-x="1224" 
d="M1108 1004q14 0 22.5 -9t8.5 -22v-942q0 -13 -8.5 -22t-22.5 -9h-277q-13 0 -21.5 8.5t-8.5 22.5v336h-375v-336q0 -13 -9 -22t-22 -9h-276q-13 0 -22 9t-9 22v942q0 13 9 22t22 9h276q13 0 22 -9t9 -22v-334h375v334q0 14 8.5 22.5t21.5 8.5h277z" />
    <glyph glyph-name="uni043E" unicode="&#x43e;" horiz-adv-x="1165" 
d="M584 -27q-143 0 -264.5 70t-192 191.5t-70.5 265.5q0 145 70.5 266t191.5 190.5t265 69.5q143 0 263.5 -69.5t191.5 -190.5t71 -266q0 -144 -71 -265.5t-192 -191.5t-263 -70zM584 289q84 0 142 60t58 151q0 93 -58 153t-142 60t-142.5 -60.5t-58.5 -152.5
q0 -91 58.5 -151t142.5 -60z" />
    <glyph glyph-name="uni043F" unicode="&#x43f;" horiz-adv-x="1224" 
d="M1108 1004q14 0 22.5 -9t8.5 -22v-942q0 -13 -8.5 -22t-22.5 -9h-277q-13 0 -21.5 8.5t-8.5 22.5v700h-375v-700q0 -13 -9 -22t-22 -9h-276q-13 0 -22 9t-9 22v942q0 13 9 22t22 9h989z" />
    <glyph glyph-name="uni0440" unicode="&#x440;" 
d="M678 1028q205 0 343 -153.5t138 -374.5q0 -145 -62 -266t-173 -192t-246 -71q-139 0 -252 101v-430q0 -14 -9 -22.5t-22 -8.5h-276q-13 0 -22 8.5t-9 22.5v376q-2 4 -2 13v942q0 13 9 22t22 9h250q27 0 30 -31l6 -76q118 131 275 131zM635 281q86 0 142.5 63.5
t56.5 157.5t-56.5 155.5t-142.5 61.5t-143.5 -64t-57.5 -153q0 -91 57.5 -156t143.5 -65z" />
    <glyph glyph-name="uni0441" unicode="&#x441;" horiz-adv-x="1021" 
d="M582 289q94 0 172 67q26 19 45 0l168 -161q21 -21 2 -43q-72 -83 -175.5 -131t-220.5 -48q-107 0 -202.5 41t-164 111.5t-109 168t-40.5 206.5q0 145 68 266t187 190.5t261 69.5q114 0 216 -47.5t174 -130.5q19 -22 -2 -43l-168 -164q-19 -19 -45 4q-79 68 -166 68
t-143 -61t-56 -152q0 -90 56 -150.5t143 -60.5z" />
    <glyph glyph-name="uni0442" unicode="&#x442;" horiz-adv-x="942" 
d="M856 1004q14 0 22.5 -9t8.5 -22v-211q0 -14 -8.5 -22.5t-22.5 -8.5h-215v-700q0 -13 -8.5 -22t-22.5 -9h-276q-14 0 -22.5 9t-8.5 22v700h-215q-14 0 -22.5 8.5t-8.5 22.5v211q0 13 8.5 22t22.5 9h768z" />
    <glyph glyph-name="uni0443" unicode="&#x443;" horiz-adv-x="1183" 
d="M1118 1004q37 0 25 -35l-531 -1334q-9 -24 -37 -24h-270q-39 0 -24 35l147 352l-387 971q-12 35 25 35h278q28 0 37 -25l209 -580l209 580q9 25 37 25h282z" />
    <glyph glyph-name="uni0444" unicode="&#x444;" horiz-adv-x="1931" 
d="M1393 1028q205 0 343 -153.5t138 -374.5q0 -145 -62 -266t-173 -192t-246 -71q-139 0 -252 101v-430q0 -14 -8.5 -22.5t-22.5 -8.5h-276q-14 0 -22.5 8.5t-8.5 22.5v376q-2 4 -2 13v63q-117 -117 -262 -117q-205 0 -343.5 154t-138.5 375q0 145 62.5 266t173.5 191.5
t246 70.5q140 0 252 -100v430q0 14 8.5 22.5t21.5 8.5h277q13 0 21.5 -8.5t8.5 -22.5v-377q2 -4 2 -12v-64q117 117 263 117zM582 287q86 0 143 63.5t57 153.5q0 91 -57 156t-143 65t-142.5 -63.5t-56.5 -157.5t56.5 -155.5t142.5 -61.5zM1350 281q86 0 142 63.5t56 157.5
t-56 155.5t-142 61.5t-143.5 -64t-57.5 -153q0 -91 57.5 -156t143.5 -65z" />
    <glyph glyph-name="uni0445" unicode="&#x445;" horiz-adv-x="1196" 
d="M1126 37q11 -15 5 -26t-25 -11h-313q-20 0 -37 20l-158 242l-158 -242q-14 -20 -37 -20h-313q-19 0 -25 11t5 26l331 479l-313 451q-12 15 -5 26t26 11h313q22 0 37 -21l139 -215l141 215q15 21 37 21h314q19 0 25 -11t-5 -26l-313 -451z" />
    <glyph glyph-name="uni0446" unicode="&#x446;" horiz-adv-x="1361" 
d="M1270 272q14 0 22 -8t8 -22v-322q0 -14 -8.5 -22.5t-21.5 -8.5h-277q-13 0 -21.5 8.5t-8.5 22.5v80h-844q-13 0 -22 9t-9 22v942q0 13 9 22t22 9h276q13 0 22 -9t9 -22v-701h375v701q0 14 8.5 22.5t21.5 8.5h277q14 0 22.5 -9t8.5 -22v-701h131z" />
    <glyph glyph-name="uni0447" unicode="&#x447;" horiz-adv-x="1224" 
d="M1108 1004q14 0 22.5 -9t8.5 -22v-942q0 -13 -8.5 -22t-22.5 -9h-277q-13 0 -21.5 8.5t-8.5 22.5v325q-114 -123 -295 -123q-204 0 -326.5 116.5t-122.5 342.5v281q0 13 8.5 22t22.5 9h277q13 0 21.5 -8.5t8.5 -22.5v-289q0 -40 8.5 -76t27.5 -70t56 -54.5t88 -20.5
q126 0 226 141v369q0 14 8.5 22.5t21.5 8.5h277z" />
    <glyph glyph-name="uni0448" unicode="&#x448;" horiz-adv-x="1638" 
d="M1522 1004q13 0 21.5 -8.5t8.5 -22.5v-942q0 -14 -8.5 -22.5t-21.5 -8.5h-1403q-13 0 -22 9t-9 22v942q0 13 9 22t22 9h276q13 0 22 -9t9 -22v-701h225v701q0 13 8.5 22t22.5 9h276q14 0 22.5 -9t8.5 -22v-701h225v701q0 13 9 22t22 9h277z" />
    <glyph glyph-name="uni0449" unicode="&#x449;" horiz-adv-x="1802" 
d="M1710 272q14 0 22.5 -8.5t8.5 -21.5v-322q0 -14 -8.5 -22.5t-22.5 -8.5h-276q-14 0 -22.5 8.5t-8.5 22.5v80h-1284q-13 0 -22 9t-9 22v942q0 13 9 22t22 9h276q13 0 22 -9t9 -22v-701h225v701q0 13 8.5 22t22.5 9h276q14 0 22.5 -9t8.5 -22v-701h225v701q0 13 9 22t22 9
h277q13 0 21.5 -8.5t8.5 -22.5v-701h158z" />
    <glyph glyph-name="uni044A" unicode="&#x44a;" horiz-adv-x="1208" 
d="M717 668q101 0 178 -16.5t139 -53.5t94.5 -103.5t32.5 -160.5t-32.5 -160.5t-94.5 -103.5t-139 -53.5t-178 -16.5h-512q-13 0 -22 9t-9 22v700h-102q-14 0 -22.5 8.5t-8.5 22.5v211q0 13 8.5 22t22.5 9h409q13 0 22 -9t9 -22v-305h205zM721 242q61 0 88 18.5t27 73.5
t-27.5 74.5t-87.5 19.5h-209v-186h209z" />
    <glyph glyph-name="uni044B" unicode="&#x44b;" horiz-adv-x="1650" 
d="M631 668q101 0 178 -16.5t139 -53.5t94.5 -103.5t32.5 -160.5t-32.5 -160.5t-94.5 -103.5t-139 -53.5t-178 -16.5h-512q-13 0 -22 9t-9 22v942q0 13 9 22t22 9h276q13 0 22 -9t9 -22v-305h205zM1534 1004q14 0 22.5 -9t8.5 -22v-942q0 -13 -8.5 -22t-22.5 -9h-277
q-13 0 -21.5 8.5t-8.5 22.5v942q0 14 8.5 22.5t21.5 8.5h277zM635 242q61 0 88 18.5t27 73.5t-27.5 74.5t-87.5 19.5h-209v-186h209z" />
    <glyph glyph-name="uni044C" unicode="&#x44c;" horiz-adv-x="1122" 
d="M631 668q101 0 178 -16.5t139 -53.5t94.5 -103.5t32.5 -160.5t-32.5 -160.5t-94.5 -103.5t-139 -53.5t-178 -16.5h-512q-13 0 -22 9t-9 22v942q0 13 9 22t22 9h276q13 0 22 -9t9 -22v-305h205zM635 242q61 0 88 18.5t27 73.5t-27.5 74.5t-87.5 19.5h-209v-186h209z" />
    <glyph glyph-name="uni044D" unicode="&#x44d;" horiz-adv-x="1021" 
d="M459 1026q142 0 261 -69.5t187 -190.5t68 -266q0 -109 -40.5 -206.5t-109 -168t-164 -111.5t-202.5 -41q-117 0 -220.5 48t-175.5 131q-18 22 3 43l167 161q20 20 46 0q78 -67 172 -67q110 0 165 92h-231q-13 0 -22 8.5t-9 22.5v178q0 14 9 22.5t22 8.5h231
q-59 92 -165 92q-87 0 -166 -68q-26 -23 -45 -4l-168 164q-21 21 -2 43q72 83 173.5 130.5t215.5 47.5z" />
    <glyph glyph-name="uni044E" unicode="&#x44e;" horiz-adv-x="1665" 
d="M1083 1026q143 0 264 -69.5t192 -190.5t71 -266q0 -144 -71 -265.5t-192.5 -191.5t-263.5 -70q-181 0 -322 109.5t-186 279.5h-149v-333q0 -13 -9 -22t-22 -9h-276q-13 0 -22 9t-9 22v942q0 13 8.5 21.5t22.5 8.5h276q14 0 22.5 -8.5t8.5 -21.5v-334h149
q45 171 185.5 280t322.5 109zM1083 289q84 0 142.5 60t58.5 151q0 92 -58.5 152.5t-142.5 60.5t-142 -60t-58 -153q0 -91 58 -151t142 -60z" />
    <glyph glyph-name="uni044F" unicode="&#x44f;" horiz-adv-x="1189" 
d="M1073 1004q13 0 22 -9t9 -22v-942q0 -13 -9 -22t-22 -9h-276q-13 0 -22 9t-9 22v305h-72l-286 -320q-13 -16 -37 -16h-283q-20 0 -25 12t9 25l286 309q-301 46 -301 324q0 94 33 160.5t95 103.5t139.5 53.5t177.5 16.5h571zM498 764q-46 0 -80.5 -21t-34.5 -73
q0 -51 35 -71.5t80 -20.5h268v186h-268z" />
    <glyph glyph-name="uni0451" unicode="&#x451;" horiz-adv-x="1105" 
d="M369 1174q-67 0 -115.5 48t-48.5 119q0 68 48.5 116t115.5 48q68 0 115.5 -47.5t47.5 -116.5q0 -71 -47.5 -119t-115.5 -48zM852 1174q-68 0 -116 48t-48 119q0 69 48 116.5t116 47.5q67 0 115.5 -48t48.5 -116q0 -71 -48.5 -119t-115.5 -48zM1051 514q0 -71 -15.5 -102
t-62.5 -31h-580q43 -139 234 -139q95 0 180 51q27 16 45 -4l119 -117q21 -20 -4 -45q-74 -72 -170 -113t-201 -41q-158 0 -281.5 70t-190.5 190t-67 267q0 146 67 266.5t184.5 190t260.5 69.5t254 -69.5t169.5 -185.5t58.5 -257zM573 743q-69 0 -119.5 -37.5t-66.5 -113.5
h363q-14 76 -62 113.5t-115 37.5z" />
    <glyph glyph-name="uni0453" unicode="&#x453;" horiz-adv-x="880" 
d="M317 1112q-39 0 -24 35l123 258q11 25 35 25h251q18 0 25 -9t0 -26l-123 -258q-11 -25 -35 -25h-252zM805 1004q13 0 22 -9t9 -22v-211q0 -14 -9 -22.5t-22 -8.5h-379v-700q0 -13 -9 -22t-22 -9h-276q-13 0 -22 9t-9 22v942q0 13 9 22t22 9h686z" />
    <glyph glyph-name="uni0454" unicode="&#x454;" horiz-adv-x="1021" 
d="M967 195q21 -21 2 -43q-72 -83 -175.5 -131t-220.5 -48q-107 0 -202.5 41t-164 111.5t-109 168t-40.5 206.5q0 145 68 266t187 190.5t261 69.5q114 0 216 -47.5t174 -130.5q19 -22 -2 -43l-168 -164q-19 -19 -45 4q-79 68 -166 68q-107 0 -166 -92h231q13 0 22 -8.5
t9 -22.5v-178q0 -14 -9 -22.5t-22 -8.5h-231q25 -42 68.5 -67t97.5 -25q94 0 172 67q26 19 45 0z" />
    <glyph glyph-name="uni0457" unicode="&#x457;" horiz-adv-x="512" 
d="M16 1112q-67 0 -115 48.5t-48 119.5q0 68 48 116t115 48q68 0 116 -47.5t48 -116.5q0 -71 -48 -119.5t-116 -48.5zM500 1112q-68 0 -116 48.5t-48 119.5q0 69 48 116.5t116 47.5q67 0 115.5 -48t48.5 -116q0 -71 -48.5 -119.5t-115.5 -48.5zM88 973q0 13 9 22t22 9h276
q13 0 22 -9t9 -22v-942q0 -13 -9 -22t-22 -9h-276q-13 0 -22 9t-9 22v942z" />
    <glyph glyph-name="uni0490" unicode="&#x490;" horiz-adv-x="1007" 
d="M930 1538q14 0 22.5 -9t8.5 -22v-350q0 -13 -8.5 -22t-22.5 -9h-471v-1095q0 -13 -8.5 -22t-22.5 -9h-289q-13 0 -21.5 8.5t-8.5 22.5v1372q0 14 8.5 22.5t21.5 8.5h514v73q0 13 8.5 22t22.5 9h246z" />
    <glyph glyph-name="uni0491" unicode="&#x491;" horiz-adv-x="880" 
d="M805 1130q14 0 22.5 -8.5t8.5 -21.5v-338q0 -14 -9 -22.5t-22 -8.5h-379v-700q0 -13 -9 -22t-22 -9h-276q-13 0 -22 9t-9 22v942q0 13 9 22t22 9h379v96q0 14 8 22t22 8h277z" />
    <glyph glyph-name="Wgrave" unicode="&#x1e80;" horiz-adv-x="2260" 
d="M942 1567l-123 258q-7 17 0 26t25 9h252q23 0 34 -25l123 -258q15 -35 -24 -35h-252q-24 0 -35 25zM2179 1434q35 0 25 -35l-432 -1374q-9 -25 -39 -25h-279q-27 0 -33 25l-291 882l-292 -882q-9 -25 -35 -25h-277q-13 0 -25.5 7t-15.5 18l-426 1374q-6 15 1 25t24 10
h301q27 0 35 -25l250 -940l288 940q3 17 19 23q4 2 14 2h277q10 0 18 -4q8 -5 14 -21l287 -940l256 940q6 25 35 25h301z" />
    <glyph glyph-name="wgrave" unicode="&#x1e81;" horiz-adv-x="1859" 
d="M741 1137l-123 258q-7 17 0 26t25 9h252q24 0 35 -25l123 -258q7 -17 0 -26t-25 -9h-252q-24 0 -35 25zM1796 1004q37 0 25 -35l-348 -944q-9 -25 -37 -25h-262q-28 0 -37 25l-207 540l-205 -540q-9 -25 -37 -25h-264q-28 0 -37 25l-346 944q-12 35 25 35h270
q28 0 37 -25l194 -582l197 582q7 17 20 20q10 5 17 5h258q6 0 16 -5q14 -3 21 -20l200 -582l191 582q9 25 37 25h272z" />
    <glyph glyph-name="Wacute" unicode="&#x1e82;" horiz-adv-x="2260" 
d="M1014 1542q-18 0 -25 9t0 26l123 258q11 25 35 25h252q39 0 24 -35l-123 -258q-11 -25 -34 -25h-252zM2179 1434q35 0 25 -35l-432 -1374q-9 -25 -39 -25h-279q-27 0 -33 25l-291 882l-292 -882q-9 -25 -35 -25h-277q-13 0 -25.5 7t-15.5 18l-426 1374q-6 15 1 25t24 10
h301q27 0 35 -25l250 -940l288 940q3 17 19 23q4 2 14 2h277q10 0 18 -4q8 -5 14 -21l287 -940l256 940q6 25 35 25h301z" />
    <glyph glyph-name="wacute" unicode="&#x1e83;" horiz-adv-x="1859" 
d="M813 1112q-18 0 -25 9t0 26l123 258q11 25 35 25h252q18 0 25 -9t0 -26l-123 -258q-11 -25 -35 -25h-252zM1796 1004q37 0 25 -35l-348 -944q-9 -25 -37 -25h-262q-28 0 -37 25l-207 540l-205 -540q-9 -25 -37 -25h-264q-28 0 -37 25l-346 944q-12 35 25 35h270
q28 0 37 -25l194 -582l197 582q7 17 20 20q10 5 17 5h258q6 0 16 -5q14 -3 21 -20l200 -582l191 582q9 25 37 25h272z" />
    <glyph glyph-name="Wdieresis" unicode="&#x1e84;" horiz-adv-x="2260" 
d="M891 1542q-67 0 -115.5 48.5t-48.5 119.5q0 68 48.5 116t115.5 48q68 0 116 -47.5t48 -116.5q0 -71 -48 -119.5t-116 -48.5zM1374 1542q-68 0 -116 48.5t-48 119.5q0 69 48 116.5t116 47.5q67 0 115.5 -48t48.5 -116q0 -71 -48.5 -119.5t-115.5 -48.5zM2179 1434
q35 0 25 -35l-432 -1374q-9 -25 -39 -25h-279q-27 0 -33 25l-291 882l-292 -882q-9 -25 -35 -25h-277q-13 0 -25.5 7t-15.5 18l-426 1374q-6 15 1 25t24 10h301q27 0 35 -25l250 -940l288 940q3 17 19 23q4 2 14 2h277q10 0 18 -4q8 -5 14 -21l287 -940l256 940q6 25 35 25
h301z" />
    <glyph glyph-name="wdieresis" unicode="&#x1e85;" horiz-adv-x="1859" 
d="M690 1112q-67 0 -115.5 48.5t-48.5 119.5q0 68 48.5 116t115.5 48q68 0 116 -47.5t48 -116.5q0 -71 -48 -119.5t-116 -48.5zM1174 1112q-68 0 -116 48.5t-48 119.5q0 69 48 116.5t116 47.5q67 0 115 -48t48 -116q0 -71 -48 -119.5t-115 -48.5zM1796 1004q37 0 25 -35
l-348 -944q-9 -25 -37 -25h-262q-28 0 -37 25l-207 540l-205 -540q-9 -25 -37 -25h-264q-28 0 -37 25l-346 944q-12 35 25 35h270q28 0 37 -25l194 -582l197 582q7 17 20 20q10 5 17 5h258q6 0 16 -5q14 -3 21 -20l200 -582l191 582q9 25 37 25h272z" />
    <glyph glyph-name="Ygrave" unicode="&#x1ef2;" horiz-adv-x="1310" 
d="M465 1567l-123 258q-7 17 0 26t25 9h251q24 0 35 -25l123 -258q15 -35 -24 -35h-252q-24 0 -35 25zM1229 1434q38 0 20 -37l-418 -742v-624q0 -14 -8.5 -22.5t-21.5 -8.5h-289q-14 0 -22.5 9t-8.5 22v628l-418 738q-18 37 21 37h303q25 0 37 -21l231 -428l232 428
q12 21 37 21h305z" />
    <glyph glyph-name="ygrave" unicode="&#x1ef3;" horiz-adv-x="1183" 
d="M301 1430h252q24 0 35 -25l123 -258q7 -17 0 -26t-25 -9h-252q-24 0 -35 25l-123 258q-7 17 0 26t25 9zM1118 1004q37 0 25 -35l-531 -1334q-9 -24 -37 -24h-270q-39 0 -24 35l147 352l-387 971q-12 35 25 35h278q28 0 37 -25l209 -580l209 580q9 25 37 25h282z" />
    <glyph glyph-name="endash" unicode="&#x2013;" horiz-adv-x="1249" 
d="M1116 698q14 0 22.5 -8.5t8.5 -21.5v-211q0 -13 -8.5 -22t-22.5 -9h-983q-13 0 -22 9t-9 22v211q0 13 8.5 21.5t22.5 8.5h983z" />
    <glyph glyph-name="emdash" unicode="&#x2014;" horiz-adv-x="1372" 
d="M1239 698q14 0 22.5 -8.5t8.5 -21.5v-211q0 -13 -9 -22t-22 -9h-1106q-13 0 -22 9t-9 22v211q0 13 8.5 21.5t22.5 8.5h1106z" />
    <glyph glyph-name="quoteleft" unicode="&#x2018;" horiz-adv-x="481" 
d="M242 895q-75 0 -128 56t-53 143q0 101 46.5 198t99.5 158q12 12 31 12h28q12 0 17.5 -8t-0.5 -22q-41 -90 -41 -181q74 0 126 -52.5t52 -125.5t-52 -125.5t-126 -52.5z" />
    <glyph glyph-name="quoteright" unicode="&#x2019;" horiz-adv-x="481" 
d="M240 1427q75 0 127.5 -55.5t52.5 -142.5q0 -101 -46.5 -198.5t-99.5 -158.5q-12 -12 -30 -12h-29q-12 0 -17 9t1 22q41 90 41 180q-74 0 -126.5 52.5t-52.5 125.5t52.5 125.5t126.5 52.5z" />
    <glyph glyph-name="quotesinglbase" unicode="&#x201a;" horiz-adv-x="481" 
d="M240 330q75 0 127.5 -56t52.5 -143q0 -101 -46.5 -198t-99.5 -158q-13 -13 -30 -13h-29q-12 0 -17 9t1 22q41 90 41 180q-74 0 -126.5 52.5t-52.5 126.5q0 73 52.5 125.5t126.5 52.5z" />
    <glyph glyph-name="quotedblleft" unicode="&#x201c;" horiz-adv-x="907" 
d="M242 895q-75 0 -128 56t-53 143q0 101 46.5 198t99.5 158q12 12 31 12h28q12 0 17.5 -8t-0.5 -22q-41 -90 -41 -181q74 0 126 -52.5t52 -125.5t-52 -125.5t-126 -52.5zM668 895q-75 0 -128 56t-53 143q0 101 46.5 198t99.5 158q12 12 31 12h28q12 0 17.5 -8t-0.5 -22
q-41 -90 -41 -181q74 0 126 -52.5t52 -125.5t-52 -125.5t-126 -52.5z" />
    <glyph glyph-name="quotedblright" unicode="&#x201d;" horiz-adv-x="907" 
d="M240 1427q75 0 127.5 -55.5t52.5 -142.5q0 -101 -46.5 -198.5t-99.5 -158.5q-12 -12 -30 -12h-29q-12 0 -17 9t1 22q41 90 41 180q-74 0 -126.5 52.5t-52.5 125.5t52.5 125.5t126.5 52.5zM666 1427q75 0 127.5 -55.5t52.5 -142.5q0 -101 -46.5 -198.5t-99.5 -158.5
q-12 -12 -30 -12h-29q-12 0 -17 9t1 22q41 90 41 180q-74 0 -126.5 52.5t-52.5 125.5t52.5 125.5t126.5 52.5z" />
    <glyph glyph-name="quotedblbase" unicode="&#x201e;" horiz-adv-x="935" 
d="M240 330q75 0 127.5 -56t52.5 -143q0 -101 -46.5 -198t-99.5 -158q-13 -13 -30 -13h-29q-12 0 -17 9t1 22q41 90 41 180q-74 0 -126.5 52.5t-52.5 126.5q0 73 52.5 125.5t126.5 52.5zM694 330q75 0 127.5 -56t52.5 -143q0 -101 -46 -198t-99 -158q-13 -13 -31 -13h-28
q-12 0 -17.5 9t0.5 22q41 90 41 180q-73 0 -125.5 52.5t-52.5 126.5t52 126t126 52z" />
    <glyph glyph-name="dagger" unicode="&#x2020;" horiz-adv-x="997" 
d="M854 1169q14 0 22.5 -8.5t8.5 -21.5v-181q0 -13 -8.5 -21.5t-22.5 -8.5h-236v-234q0 -14 -8 -22t-22 -8h-180q-14 0 -22.5 8.5t-8.5 21.5v234h-234q-13 0 -21.5 8t-8.5 22v181q0 13 8.5 21.5t21.5 8.5h234v234q0 13 8.5 22t22.5 9h180q13 0 21.5 -8.5t8.5 -22.5v-234h236
z" />
    <glyph glyph-name="daggerdbl" unicode="&#x2021;" horiz-adv-x="997" 
d="M854 1169q14 0 22.5 -8.5t8.5 -21.5v-181q0 -13 -8.5 -21.5t-22.5 -8.5h-236v-234q0 -14 -8 -22t-22 -8h-180q-14 0 -22.5 8.5t-8.5 21.5v234h-234q-13 0 -21.5 8t-8.5 22v181q0 13 8.5 21.5t21.5 8.5h234v234q0 13 8.5 22t22.5 9h180q13 0 21.5 -8.5t8.5 -22.5v-234h236
zM854 274q14 0 22.5 -8.5t8.5 -21.5v-181q0 -13 -8.5 -21.5t-22.5 -8.5h-236v-234q0 -13 -8 -21.5t-22 -8.5h-180q-14 0 -22.5 8.5t-8.5 21.5v234h-234q-13 0 -21.5 8.5t-8.5 21.5v181q0 14 8.5 22t21.5 8h234v234q0 14 8.5 22.5t22.5 8.5h180q13 0 21.5 -8.5t8.5 -22.5
v-234h236z" />
    <glyph glyph-name="bullet" unicode="&#x2022;" horiz-adv-x="700" 
d="M350 326q-98 0 -167.5 70t-69.5 167q0 98 69.5 168t167.5 70t168 -70t70 -168q0 -97 -70 -167t-168 -70z" />
    <glyph glyph-name="ellipsis" unicode="&#x2026;" horiz-adv-x="1511" 
d="M250 -27q-73 0 -125.5 52.5t-52.5 126.5t52 126t126 52t126 -52t52 -126t-52.5 -126.5t-125.5 -52.5zM756 -27q-73 0 -125.5 52.5t-52.5 126.5t52 126t126 52t126 -52t52 -126t-52.5 -126.5t-125.5 -52.5zM1262 -27q-74 0 -126.5 52.5t-52.5 126.5q0 73 52.5 125.5
t126.5 52.5t126 -52t52 -126t-52.5 -126.5t-125.5 -52.5z" />
    <glyph glyph-name="perthousand" unicode="&#x2030;" horiz-adv-x="2172" 
d="M360 1444q119 0 200 -80t81 -197t-81.5 -197.5t-199.5 -80.5t-198 80.5t-80 197.5t80 197t198 80zM1067 1421l186 -114l-868 -1293l-186 115zM360 1233q-26 0 -44.5 -18.5t-18.5 -47.5q0 -27 19 -46t44 -19q28 0 47 18.5t19 46.5q0 29 -19 47.5t-47 18.5zM1090 545
q118 0 198 -81t80 -198t-80 -196.5t-198 -79.5q-117 0 -199 79.5t-82 196.5t82 198t199 81zM1812 545q118 0 198.5 -81t80.5 -198t-80.5 -196.5t-198.5 -79.5q-117 0 -198.5 79.5t-81.5 196.5t81.5 198t198.5 81zM1090 334q-26 0 -46 -20t-20 -48q0 -27 19.5 -45t46.5 -18
t45 18t18 45q0 28 -18.5 48t-44.5 20zM1812 334q-26 0 -45.5 -20t-19.5 -48q0 -27 19 -45t46 -18t45.5 18t18.5 45q0 28 -19 48t-45 20z" />
    <glyph glyph-name="guilsinglleft" unicode="&#x2039;" horiz-adv-x="425" 
d="M72 647q0 24 16 37l229 205q12 12 24.5 6.5t12.5 -25.5v-172q0 -23 -16 -36l-131 -111l131 -111q16 -13 16 -37v-172q0 -20 -12.5 -26t-24.5 6l-229 207q-16 13 -16 37v192z" />
    <glyph glyph-name="guilsinglright" unicode="&#x203a;" horiz-adv-x="425" 
d="M354 772v-192q0 -24 -16 -37l-229 -207q-12 -12 -24.5 -6t-12.5 26v172q0 24 16 37l131 111l-131 110q-16 13 -16 37v172q0 20 12.5 25.5t24.5 -6.5l229 -205q16 -13 16 -37z" />
    <glyph glyph-name="fraction" unicode="&#x2044;" horiz-adv-x="262" 
d="M621 1434l-881 -1434h-98l893 1434h86z" />
    <glyph glyph-name="Euro" unicode="&#x20ac;" horiz-adv-x="1460" 
d="M1217 422l178 -193q17 -24 0 -43q-95 -101 -227 -157t-283 -56q-229 0 -414.5 123.5t-271.5 325.5h-107q-14 0 -22.5 9t-8.5 22v180q0 13 8.5 22t22.5 9h49q-2 16 -2 47v34h-47q-14 0 -22.5 8.5t-8.5 22.5v180q0 14 8.5 22.5t22.5 8.5h101q83 208 271 335.5t421 127.5
q151 0 283.5 -55.5t226.5 -157.5q18 -18 0 -43l-178 -193q-7 -10 -20 -10.5t-23 8.5q-126 109 -293 109q-168 0 -279 -121h160q14 0 22.5 -8.5t8.5 -22.5v-180q0 -14 -8.5 -22.5t-22.5 -8.5h-260q-2 -12 -2 -34q0 -31 2 -47h260q14 0 22.5 -9t8.5 -22v-180q0 -13 -8.5 -22
t-22.5 -9h-144q108 -105 263 -105q171 0 293 109q11 9 23 8t20 -12z" />
    <glyph glyph-name="uni20B4" unicode="&#x20b4;" horiz-adv-x="1275" 
d="M1188 745h-156q-40 -38 -117 -81h273q15 0 23.5 -9t7.5 -22v-180q1 -14 -7.5 -22.5t-23.5 -8.5h-170l158 -178q18 -21 0 -43q-79 -92 -216 -160t-288 -68q-74 0 -146 17t-138.5 53t-117 87t-80.5 125t-30 161v6h-74q-14 0 -22.5 9t-8.5 22v180q0 13 8.5 22t22.5 9h150
q34 44 83 81h-233q-14 0 -22.5 8.5t-8.5 22.5v180q0 14 8.5 22.5t22.5 8.5h715q6 15 6 33q0 41 -35 70.5t-102 29.5q-64 0 -118 -21.5t-136 -74.5q-25 -16 -43 8l-150 187q-15 24 4 43q205 188 455 188q90 0 173 -28.5t149 -80t105.5 -133t39.5 -180.5q0 -29 -2 -41h41
q15 0 23.5 -9t7.5 -22v-180q1 -14 -7.5 -22.5t-23.5 -8.5zM662 303q82 0 153 28t152 91h-465v-2q0 -56 47 -86.5t113 -30.5z" />
    <glyph glyph-name="trademark" unicode="&#x2122;" horiz-adv-x="1159" 
d="M459 1434q10 0 10 -11v-71q0 -11 -10 -11h-113v-266q0 -10 -10 -10h-90q-10 0 -10 10v266h-113q-10 0 -10 11v71q0 11 10 11h336zM1036 1434q11 0 11 -11v-348q0 -10 -11 -10h-84q-10 0 -10 10v178l-106 -182q-3 -6 -13 -6h-57q-9 0 -12 6l-109 182v-178q0 -10 -10 -10
h-84q-10 0 -10 10v348q0 11 10 11h92q10 0 12 -4l138 -226l141 226q2 4 12 4h90z" />
    <glyph glyph-name="oneeighth" unicode="&#x215b;" horiz-adv-x="1159" 
d="M199 1436v-535h-76v461h-55v74h131zM1061 1434l-881 -1434h-98l893 1434h86zM909 539q74 0 118 -41.5t44 -96.5q0 -70 -61 -108q88 -45 88 -135q0 -69 -55.5 -115.5t-133.5 -46.5q-75 0 -130.5 46.5t-55.5 115.5q0 44 23 79.5t65 55.5q-61 40 -61 108q0 54 44 96t115 42z
M909 475q-40 0 -62 -22t-22 -52q0 -31 26 -55t58 -24q36 0 60 23.5t24 55.5q0 31 -20 52.5t-64 21.5zM909 258q-44 0 -77 -28.5t-33 -71.5q0 -42 33 -70.5t77 -28.5q50 0 80.5 27.5t30.5 71.5t-31 72t-80 28z" />
    <glyph glyph-name="threeeighths" unicode="&#x215c;" horiz-adv-x="1196" 
d="M248 1440q65 0 114.5 -42.5t49.5 -97.5q0 -64 -62 -108q38 -16 62 -50.5t24 -84.5q0 -69 -56 -116.5t-132 -47.5q-85 0 -140 55.5t-47 130.5h78q-13 -46 22 -83.5t87 -37.5q45 0 77.5 28t32.5 71q0 57 -41 80.5t-110 9.5v65q129 8 129 88q0 31 -26 53.5t-62 22.5
q-45 0 -72 -32.5t-20 -86.5h-80q-7 77 44.5 130t127.5 53zM1102 1434l-881 -1434h-98l893 1434h86zM946 539q74 0 118 -41.5t44 -96.5q0 -70 -61 -108q88 -45 88 -135q0 -69 -55.5 -115.5t-133.5 -46.5q-75 0 -130.5 46.5t-55.5 115.5q0 44 23 79.5t65 55.5q-62 41 -62 108
q0 54 44.5 96t115.5 42zM946 475q-40 0 -62 -22t-22 -52q0 -31 26 -55t58 -24q36 0 60 23.5t24 55.5q0 31 -20 52.5t-64 21.5zM946 258q-44 0 -77 -28.5t-33 -71.5q0 -42 33 -70.5t77 -28.5q50 0 80.5 27.5t30.5 71.5t-31 72t-80 28z" />
    <glyph glyph-name="fiveeighths" unicode="&#x215d;" horiz-adv-x="1200" 
d="M391 1436v-66h-213l-16 -119q47 21 92 21q72 0 129 -55t57 -134t-57 -134.5t-137 -55.5q-67 0 -119.5 38.5t-65.5 88.5l68 39q3 -42 35.5 -71.5t81.5 -29.5q47 0 81.5 35.5t34.5 89.5q0 51 -33.5 87t-74.5 36q-72 0 -117 -59l-65 16l37 273h282zM1102 1434l-881 -1434
h-98l893 1434h86zM950 539q74 0 118 -41.5t44 -96.5q0 -70 -61 -108q88 -45 88 -135q0 -69 -55.5 -115.5t-133.5 -46.5q-75 0 -130.5 46.5t-55.5 115.5q0 44 23 79.5t65 55.5q-61 40 -61 108q0 54 44 96t115 42zM950 475q-40 0 -62 -22t-22 -52q0 -31 26 -55t58 -24
q36 0 60 23.5t24 55.5q0 31 -20 52.5t-64 21.5zM950 258q-44 0 -77 -28.5t-33 -71.5q0 -42 33 -70.5t77 -28.5q50 0 80.5 27.5t30.5 71.5t-31 72t-80 28z" />
    <glyph glyph-name="seveneighths" unicode="&#x215e;" horiz-adv-x="1159" 
d="M420 1436l-209 -535h-80l182 469h-247v66h354zM1061 1434l-881 -1434h-98l893 1434h86zM909 539q74 0 118 -41.5t44 -96.5q0 -70 -61 -108q88 -45 88 -135q0 -69 -55.5 -115.5t-133.5 -46.5q-75 0 -130.5 46.5t-55.5 115.5q0 44 23 79.5t65 55.5q-61 40 -61 108
q0 54 44 96t115 42zM909 475q-40 0 -62 -22t-22 -52q0 -31 26 -55t58 -24q36 0 60 23.5t24 55.5q0 31 -20 52.5t-64 21.5zM909 258q-44 0 -77 -28.5t-33 -71.5q0 -42 33 -70.5t77 -28.5q50 0 80.5 27.5t30.5 71.5t-31 72t-80 28z" />
    <glyph glyph-name="partialdiff" unicode="&#x2202;" horiz-adv-x="1067" 
d="M866 793q138 -187 138 -351q0 -193 -141 -331t-339 -138q-129 0 -239.5 63t-175 171t-64.5 235q0 168 110 293t277 156l-299 393q-18 24 6 43l191 135q25 19 43 -6zM522 901v-2h2q-2 0 -2 2zM524 289q64 0 109 45t45 108q0 67 -44.5 112.5t-109.5 45.5t-109 -45.5
t-44 -112.5q0 -63 44.5 -108t108.5 -45z" />
    <glyph glyph-name="product" unicode="&#x220f;" horiz-adv-x="1531" 
d="M102 1608q0 13 8.5 21.5t22.5 8.5h1266q14 0 22.5 -8.5t8.5 -21.5v-1966q0 -14 -9 -22.5t-22 -8.5h-242q-13 0 -22 8.5t-9 22.5v1689h-718v-1689q0 -14 -9 -22.5t-22 -8.5h-244q-13 0 -22 8.5t-9 22.5v1966z" />
    <glyph glyph-name="summation" unicode="&#x2211;" horiz-adv-x="1439" 
d="M1307 1638q13 0 21.5 -8t8.5 -22v-248q0 -14 -8.5 -22.5t-21.5 -8.5h-809l549 -680q17 -24 0 -47l-549 -682h809q13 0 21.5 -8.5t8.5 -22.5v-247q0 -14 -8.5 -22.5t-21.5 -8.5h-1174q-13 0 -22 8.5t-9 22.5v258q0 18 13 37l551 688l-551 688q-13 19 -13 37v258
q0 13 8.5 21.5t22.5 8.5h1174z" />
    <glyph glyph-name="minus" unicode="&#x2212;" horiz-adv-x="1038" 
d="M895 707q13 0 22 -8.5t9 -22.5v-180q0 -14 -9 -22.5t-22 -8.5h-752q-13 0 -21.5 8.5t-8.5 22.5v180q0 14 8.5 22.5t21.5 8.5h752z" />
    <glyph glyph-name="radical" unicode="&#x221a;" horiz-adv-x="1632" 
d="M1501 1638q38 0 27 -34l-555 -1966q-7 -27 -33 -27h-281q-28 0 -34 22l-273 861h-219q-14 0 -22.5 8.5t-8.5 21.5v248q0 14 9 22.5t22 8.5h393q29 0 35 -27l234 -796l460 1632q7 26 33 26h213z" />
    <glyph glyph-name="infinity" unicode="&#x221e;" horiz-adv-x="1677" 
d="M1229 881q158 0 270.5 -95t112.5 -247q0 -80 -31.5 -147t-84 -112t-122 -69.5t-145.5 -24.5q-205 0 -389 176q-184 -176 -387 -176q-161 0 -273 97t-112 256q0 152 112.5 247t272.5 95q201 0 387 -174q186 174 389 174zM465 406q72 0 120.5 24.5t110.5 104.5
q-63 78 -111.5 102.5t-119.5 24.5q-62 0 -101.5 -39.5t-39.5 -87.5q0 -52 39 -90.5t102 -38.5zM1212 406q63 0 102.5 38.5t39.5 90.5q0 48 -40 87.5t-102 39.5q-71 0 -119.5 -24.5t-109.5 -102.5q61 -80 109 -104.5t120 -24.5z" />
    <glyph glyph-name="integral" unicode="&#x222b;" horiz-adv-x="858" 
d="M879 1604q20 -11 20 -37v-244q0 -19 -11.5 -26.5t-25.5 1.5q-61 37 -123 37q-33 0 -54 -8t-30 -26t-11.5 -35t-2.5 -45v-1239q0 -185 -105 -278t-282 -93q-128 0 -186 35q-21 12 -21 37v243q0 19 11 26.5t26 -1.5q61 -37 121 -37q34 0 55 8t29.5 26.5t11 35.5t2.5 47
v1237q0 184 105.5 277t281.5 93q130 0 189 -34z" />
    <glyph glyph-name="approxequal" unicode="&#x2248;" horiz-adv-x="1099" 
d="M365 905q64 0 124 -25.5t98 -55.5t85 -55.5t88 -25.5q37 0 67 18t39 42q9 18 25 18h84q19 0 22 -22q6 -128 -70 -195t-196 -67q-51 0 -99 16.5t-84 40.5t-69 47.5t-68.5 40.5t-68.5 18q-38 -1 -68 -19t-41 -42q-3 -19 -24 -16h-82q-11 -2 -18.5 7t-6.5 21
q15 127 84.5 190.5t178.5 63.5zM365 578q64 0 124 -25.5t98 -55.5t85 -55.5t88 -25.5q37 0 67 17.5t39 41.5q10 19 25 19h84q19 0 22 -23q6 -128 -70 -195t-196 -67q-63 0 -122 25.5t-96.5 56t-84 56t-86.5 26.5q-38 -1 -68 -19t-41 -43q-3 -19 -24 -16h-82
q-11 -2 -18.5 7.5t-6.5 21.5q15 127 84.5 190.5t178.5 63.5z" />
    <glyph glyph-name="notequal" unicode="&#x2260;" horiz-adv-x="1038" 
d="M895 643h-207l-45 -117h252q14 0 22.5 -8.5t8.5 -21.5v-181q0 -13 -8.5 -21.5t-22.5 -8.5h-346l-100 -260q-9 -25 -37 -25h-217q-37 0 -25 35l96 250h-123q-13 0 -21.5 8.5t-8.5 21.5v181q0 14 8.5 22t21.5 8h217l46 117h-263q-13 0 -21.5 8.5t-8.5 22.5v180
q0 14 8.5 22.5t21.5 8.5h357l92 239q9 25 37 25h217q36 0 24 -35l-88 -229h113q13 0 22 -8.5t9 -22.5v-180q0 -14 -9 -22.5t-22 -8.5z" />
    <glyph glyph-name="lessequal" unicode="&#x2264;" horiz-adv-x="974" 
d="M834 1214q14 7 24 1t10 -21v-201q0 -21 -20 -28l-457 -181l457 -178q20 -10 20 -33v-200q0 -15 -10 -21t-24 0l-713 328q-23 13 -23 31v145q0 20 23 33zM883 264q13 0 21.5 -8.5t8.5 -22.5v-180q0 -13 -8.5 -21.5t-21.5 -8.5h-752q-14 0 -22.5 8.5t-8.5 21.5v180
q0 13 9 22t22 9h752z" />
    <glyph glyph-name="greaterequal" unicode="&#x2265;" horiz-adv-x="1036" 
d="M188 1214l713 -325q23 -13 23 -33v-145q0 -18 -23 -31l-713 -328q-14 -6 -24 0t-10 21v200q0 23 20 33l457 178l-457 181q-20 7 -20 28v201q0 15 10 21t24 -1zM139 264h752q13 0 22 -9t9 -22v-180q0 -13 -8.5 -21.5t-22.5 -8.5h-752q-13 0 -21.5 8.5t-8.5 21.5v180
q0 14 8.5 22.5t21.5 8.5z" />
    <glyph glyph-name="lozenge" unicode="&#x25ca;" horiz-adv-x="1263" 
d="M819 1434q26 0 35 -23l299 -674q8 -21 0 -41l-299 -673q-9 -23 -35 -23h-375q-25 0 -34 23l-299 673q-8 20 0 41l299 674q9 23 34 23h375zM633 201l227 516l-227 516l-230 -516z" />
    <glyph glyph-name="i.loclTRK" horiz-adv-x="512" 
d="M258 1112q-67 0 -115.5 48.5t-48.5 119.5q0 68 48.5 116t115.5 48q68 0 116 -47.5t48 -116.5q0 -71 -48 -119.5t-116 -48.5zM88 973q0 13 9 22t22 9h276q13 0 22 -9t9 -22v-942q0 -13 -9 -22t-22 -9h-276q-13 0 -22 9t-9 22v942z" />
    <glyph glyph-name="f.alt" horiz-adv-x="841" 
d="M770 1473q21 -12 21 -37v-244q0 -18 -11 -24t-26 3q-54 33 -121 33q-34 0 -55 -8t-29.5 -26t-11 -34.5t-2.5 -45.5v-86h213q13 0 21.5 -8.5t8.5 -22.5v-211q0 -14 -8.5 -22.5t-21.5 -8.5h-213v-700q0 -13 -8.5 -22t-22.5 -9h-277q-13 0 -21.5 8.5t-8.5 22.5v700h-119
q-14 0 -22.5 8.5t-8.5 22.5v211q0 13 8.5 22t22.5 9h119v133q0 185 105 277.5t282 92.5q127 0 186 -34z" />
    <glyph glyph-name="t.ss01" horiz-adv-x="782" 
d="M692 295q17 3 27 -5.5t10 -23.5v-217q0 -63 -199 -63q-63 0 -118 17t-103 53t-76 101.5t-28 153.5v420h-127q-14 0 -22.5 8.5t-8.5 22.5v211q0 13 8.5 22t22.5 9h127v194q0 14 8.5 22.5t22.5 8.5h276q14 0 22.5 -8.5t8.5 -22.5v-194h153q14 0 22.5 -9t8.5 -22v-211
q0 -14 -8.5 -22.5t-22.5 -8.5h-153v-352q0 -43 21 -65.5t59 -22.5q44 0 69 4z" />
    <glyph glyph-name="zero.tf" horiz-adv-x="1454" 
d="M729 1450q90 0 175 -28t162 -88t135 -145.5t92 -208.5t34 -269t-34 -269t-92 -208t-135 -145t-162 -88t-175 -28q-89 0 -174 28t-162 88t-135 145t-92.5 208t-34.5 269t34.5 269t92.5 208.5t135 145.5t162 88t174 28zM729 1137q-71 0 -125 -37.5t-85 -100t-46.5 -135.5
t-15.5 -153t15.5 -152.5t46.5 -134t85 -98.5t125 -37t125 37t85 98.5t46.5 134t15.5 152.5t-15.5 153t-46.5 135.5t-85 100t-125 37.5z" />
    <glyph glyph-name="one.tf" horiz-adv-x="1454" 
d="M993 1434q13 0 22 -9t9 -22v-1372q0 -13 -9 -22t-22 -9h-276q-13 0 -22 9t-9 22v1132h-209q-13 0 -22 8.5t-9 22.5v209q0 13 9 22t22 9h516z" />
    <glyph glyph-name="two.tf" horiz-adv-x="1454" 
d="M1149 272q14 0 22.5 -8.5t8.5 -21.5v-211q0 -13 -9 -22t-22 -9h-862q-13 0 -22 9t-9 22v241l182 185q48 48 110 109t95.5 94t74.5 75.5t61 69t40 58t27.5 58.5t7.5 56q0 70 -53 115t-119 45q-111 0 -203 -82q-25 -22 -45 -2l-168 164q-21 21 -2 43q164 190 426 190
q96 0 185.5 -35t156.5 -95.5t107.5 -146t40.5 -180.5q0 -47 -10 -91t-34.5 -89.5t-48.5 -81t-71 -88t-81.5 -88t-100 -102.5t-107.5 -111l-63 -70h485z" />
    <glyph glyph-name="three.tf" horiz-adv-x="1454" 
d="M997 750q209 -116 209 -336q0 -189 -134 -315t-367 -126q-137 0 -254.5 48t-188.5 131q-19 22 2 43l168 161q19 19 45 0q90 -73 203 -73q93 0 141.5 46.5t48.5 110.5q0 26 -7.5 48.5t-29 49t-70 43.5t-120.5 19q-31 0 -31 31v192q0 29 35 29q70 2 116 17.5t66 42t26.5 49
t6.5 51.5q0 58 -48.5 93.5t-104.5 35.5q-111 0 -183 -70q-22 -23 -45 0l-168 160q-21 21 -2 43q69 81 178.5 128.5t235.5 47.5q179 0 305.5 -113t126.5 -290q0 -170 -160 -297z" />
    <glyph glyph-name="four.tf" horiz-adv-x="1454" 
d="M1221 545q13 0 21.5 -8.5t8.5 -22.5v-211q0 -14 -8.5 -22.5t-21.5 -8.5h-119v-241q0 -13 -9 -22t-22 -9h-276q-13 0 -22 9t-9 22v241h-524q-14 0 -22.5 9t-8.5 22v221q0 23 10 39l533 850q12 21 36 21h283q13 0 22 -9t9 -22v-858h119zM764 545v366l-217 -366h217z" />
    <glyph glyph-name="five.tf" horiz-adv-x="1454" 
d="M711 979q138 0 248 -67.5t169.5 -178t59.5 -239.5q0 -237 -146 -378t-380 -141q-150 0 -263 68.5t-163 161.5q-14 23 8 37l200 139q25 19 45 -4q66 -92 170 -92q90 0 145.5 63.5t55.5 145.5q0 76 -55.5 138t-145.5 62q-82 0 -141 -55q-19 -19 -41 -14l-217 65
q-27 5 -20 35l178 682q7 27 33 27h632q13 0 22 -9t9 -22v-211q0 -14 -9 -22.5t-22 -8.5h-428l-51 -194q-2 -2 2 -2q3 0 12 3q51 11 93 11z" />
    <glyph glyph-name="six.tf" horiz-adv-x="1454" 
d="M811 891q167 -31 277 -156t110 -293q0 -127 -64.5 -235t-175 -171t-239.5 -63q-130 0 -240.5 63t-174.5 171t-64 235q0 165 137 351l493 663q18 25 43 6l191 -135q24 -19 6 -43zM721 901l-2 -2h2v2zM719 289q64 0 108.5 45t44.5 108q0 67 -44 112.5t-109 45.5
t-109.5 -45.5t-44.5 -112.5q0 -63 45 -108t109 -45z" />
    <glyph glyph-name="seven.tf" horiz-adv-x="1454" 
d="M1167 1434q14 0 21.5 -9t3.5 -22l-485 -1372q-10 -31 -33 -31h-273q-14 0 -23 9t-5 22l403 1132h-471q-13 0 -22 8.5t-9 22.5v209q0 13 9 22t22 9h862z" />
    <glyph glyph-name="eight.tf" horiz-adv-x="1454" 
d="M1018 819q103 -51 163 -147.5t60 -222.5q0 -107 -46 -199t-120 -151t-165 -92.5t-183 -33.5t-182.5 33.5t-164 92.5t-119.5 151t-46 199q0 126 60 222.5t163 147.5q-56 49 -91.5 116.5t-35.5 141.5q0 157 115 265t301 108t301 -108t115 -265q0 -74 -35 -141.5t-90 -116.5
zM608 1059q2 -49 34 -85t85 -36t86 36.5t33 84.5q2 50 -34 86.5t-85 36.5t-84 -36.5t-35 -86.5zM727 289q67 0 115.5 48t48.5 122q0 76 -50.5 120t-113.5 44t-112.5 -43.5t-49.5 -120.5q0 -75 47.5 -122.5t114.5 -47.5z" />
    <glyph glyph-name="nine.tf" horiz-adv-x="1454" 
d="M748 1450q130 0 240.5 -63t174.5 -171t64 -235q0 -82 -31 -165.5t-106 -184.5l-494 -664q-18 -25 -43 -6l-191 135q-24 19 -6 43l299 393q-167 31 -277 156t-110 293q0 127 65 235t175.5 171t239.5 63zM748 823q65 0 109 45.5t44 112.5q0 63 -44.5 108.5t-108.5 45.5
t-109 -45.5t-45 -108.5q0 -67 44.5 -112.5t109.5 -45.5zM745 522l3 2h-3v-2z" />
    <glyph glyph-name="zero.dnom" horiz-adv-x="552" 
d="M276 539q96 0 156 -71.5t60 -186.5v-27q0 -115 -60 -186.5t-156 -71.5q-93 0 -154 72t-61 186v27q0 114 61 186t154 72zM276 475q-60 0 -99.5 -52t-39.5 -142v-27q0 -90 39.5 -142.5t99.5 -52.5q64 0 102 52t38 143v27q0 91 -38 142.5t-102 51.5z" />
    <glyph glyph-name="one.dnom" horiz-adv-x="253" 
d="M193 535v-535h-76v461h-56v74h132z" />
    <glyph glyph-name="two.dnom" horiz-adv-x="473" 
d="M233 541q70 0 121.5 -46.5t51.5 -107.5q0 -54 -29.5 -96t-110.5 -125l-96 -100h242v-66h-344v66l139 141q58 60 75 79t31.5 46t14.5 55q0 37 -28.5 63.5t-66.5 26.5q-39 0 -67.5 -26.5t-28.5 -75.5v-29h-76v29q0 72 50.5 119t121.5 47z" />
    <glyph glyph-name="three.dnom" horiz-adv-x="497" 
d="M248 539q65 0 114.5 -42.5t49.5 -97.5q0 -64 -62 -108q38 -16 62 -50.5t24 -84.5q0 -69 -56 -116.5t-132 -47.5q-85 0 -140 55.5t-47 130.5h78q-13 -46 22 -83.5t87 -37.5q45 0 77.5 28t32.5 71q0 57 -41 80.5t-110 9.5v65q129 8 129 88q0 31 -26 53.5t-62 22.5
q-45 0 -72 -32.5t-20 -86.5h-80q-7 77 44.5 130t127.5 53z" />
    <glyph glyph-name="four.dnom" horiz-adv-x="524" 
d="M408 535v-316h55v-63h-55v-156h-76v156h-271l271 379h76zM332 424l-144 -205h144v205z" />
    <glyph glyph-name="five.dnom" horiz-adv-x="501" 
d="M391 535v-66h-213l-16 -119q47 21 92 21q72 0 129 -55t57 -134t-57 -134.5t-137 -55.5q-67 0 -119.5 38.5t-65.5 88.5l68 39q3 -42 35.5 -71.5t81.5 -29.5q47 0 81.5 35.5t34.5 89.5q0 51 -33.5 87t-74.5 36q-72 0 -117 -59l-65 16l37 273h282z" />
    <glyph glyph-name="six.dnom" horiz-adv-x="477" 
d="M367 535l-140 -197h13q69 0 122.5 -51.5t53.5 -120.5q0 -71 -53.5 -122.5t-122.5 -51.5q-70 0 -124.5 51.5t-54.5 122.5q0 32 11 63.5t21 47.5t36.5 50.5t34.5 45.5l117 162h86zM240 272q-45 0 -74 -28.5t-29 -77.5q0 -47 32 -78t71 -31q38 0 69 31t31 78t-31 76.5
t-69 29.5z" />
    <glyph glyph-name="seven.dnom" horiz-adv-x="477" 
d="M416 535l-209 -535h-80l182 469h-248v66h355z" />
    <glyph glyph-name="eight.dnom" horiz-adv-x="497" 
d="M248 539q74 0 118 -41.5t44 -96.5q0 -69 -62 -108q88 -45 88 -135q0 -69 -55 -115.5t-133 -46.5q-75 0 -131 46.5t-56 115.5q0 91 89 135q-62 41 -62 108q0 54 44.5 96t115.5 42zM248 475q-40 0 -62 -22t-22 -52q0 -31 26 -55t58 -24q36 0 60 23.5t24 55.5q0 31 -20 52.5
t-64 21.5zM248 258q-44 0 -77.5 -28.5t-33.5 -71.5q0 -42 33.5 -70.5t77.5 -28.5q49 0 79.5 27.5t30.5 71.5t-30.5 72t-79.5 28z" />
    <glyph glyph-name="nine.dnom" horiz-adv-x="479" 
d="M240 541q70 0 124 -50.5t54 -121.5q0 -26 -5.5 -49.5t-18.5 -46t-22 -36.5t-30 -40t-29 -37l-114 -160h-88l139 195h-10q-71 0 -125 52.5t-54 121.5q0 71 54.5 121.5t124.5 50.5zM240 475q-39 0 -71 -30.5t-32 -75.5q0 -47 32 -78t71 -31q45 0 72.5 30t27.5 79
q0 45 -31.5 75.5t-68.5 30.5z" />
    <glyph glyph-name="zero.numr" horiz-adv-x="552" 
d="M276 1440q96 0 156 -71.5t60 -186.5v-27q0 -115 -60 -186.5t-156 -71.5q-93 0 -154 72t-61 186v27q0 114 61 186t154 72zM276 1376q-60 0 -99.5 -52t-39.5 -142v-27q0 -90 39.5 -142t99.5 -52q64 0 102 51.5t38 142.5v27q0 91 -38 142.5t-102 51.5z" />
    <glyph glyph-name="one.numr" horiz-adv-x="253" 
d="M193 1436v-535h-76v461h-56v74h132z" />
    <glyph glyph-name="two.numr" horiz-adv-x="473" 
d="M233 1442q70 0 121.5 -46.5t51.5 -107.5q0 -54 -29.5 -96t-110.5 -125l-96 -100h242v-66h-344v66l139 141q58 60 75 79t31.5 46t14.5 55q0 37 -28.5 63.5t-66.5 26.5q-39 0 -67.5 -26.5t-28.5 -75.5v-29h-76v29q0 72 50.5 119t121.5 47z" />
    <glyph glyph-name="three.numr" horiz-adv-x="497" 
d="M248 1440q65 0 114.5 -42.5t49.5 -97.5q0 -64 -62 -108q38 -16 62 -50.5t24 -84.5q0 -69 -56 -116.5t-132 -47.5q-85 0 -140 55.5t-47 130.5h78q-13 -46 22 -83.5t87 -37.5q45 0 77.5 28t32.5 71q0 57 -41 80.5t-110 9.5v65q129 8 129 88q0 31 -26 53.5t-62 22.5
q-45 0 -72 -32.5t-20 -86.5h-80q-7 77 44.5 130t127.5 53z" />
    <glyph glyph-name="four.numr" horiz-adv-x="524" 
d="M408 1436v-316h55v-63h-55v-156h-76v156h-271l271 379h76zM332 1325l-144 -205h144v205z" />
    <glyph glyph-name="five.numr" horiz-adv-x="501" 
d="M391 1436v-66h-213l-16 -119q47 21 92 21q72 0 129 -55t57 -134t-57 -134.5t-137 -55.5q-67 0 -119.5 38.5t-65.5 88.5l68 39q3 -42 35.5 -71.5t81.5 -29.5q47 0 81.5 35.5t34.5 89.5q0 51 -33.5 87t-74.5 36q-72 0 -117 -59l-65 16l37 273h282z" />
    <glyph glyph-name="six.numr" horiz-adv-x="477" 
d="M367 1436l-140 -197h13q69 0 122.5 -51.5t53.5 -120.5q0 -71 -53.5 -122.5t-122.5 -51.5q-70 0 -124.5 51.5t-54.5 122.5q0 32 11 63.5t21 47.5t36.5 50.5t34.5 45.5l117 162h86zM240 1174q-45 0 -74 -29t-29 -78q0 -47 32 -78t71 -31q38 0 69 31t31 78t-31 77t-69 30z
" />
    <glyph glyph-name="seven.numr" horiz-adv-x="477" 
d="M416 1436l-209 -535h-80l182 469h-248v66h355z" />
    <glyph glyph-name="eight.numr" horiz-adv-x="497" 
d="M248 1440q74 0 118 -41t44 -96q0 -70 -62 -109q88 -45 88 -135q0 -69 -55 -115.5t-133 -46.5q-75 0 -131 46.5t-56 115.5q0 91 89 135q-62 41 -62 109q0 54 44 95.5t116 41.5zM248 1376q-40 0 -62 -21.5t-22 -51.5q0 -31 26 -55.5t58 -24.5q36 0 60 24t24 56q0 31 -20 52
t-64 21zM248 1159q-44 0 -77.5 -28.5t-33.5 -71.5q0 -42 33.5 -70t77.5 -28q50 0 80 27t30 71t-30.5 72t-79.5 28z" />
    <glyph glyph-name="nine.numr" horiz-adv-x="479" 
d="M240 1442q70 0 124 -50.5t54 -121.5q0 -26 -5.5 -49.5t-18.5 -46t-22 -36.5t-30 -40t-29 -37l-114 -160h-88l139 195h-10q-71 0 -125 52.5t-54 121.5q0 71 54.5 121.5t124.5 50.5zM240 1376q-39 0 -71 -30.5t-32 -75.5q0 -47 32 -78t71 -31q45 0 72.5 30t27.5 79
q0 45 -31.5 75.5t-68.5 30.5z" />
    </font>
</defs>
</svg>
