<svg xmlns="http://www.w3.org/2000/svg" width="44.5" height="44.5" viewBox="0 0 44.5 44.5">
  <g id="Group_7006" data-name="Group 7006" transform="translate(-835 -1572.5)">
    <path id="Path_14634" data-name="Path 14634" d="M122.5,60.5a3,3,0,1,1-3-3A3,3,0,0,1,122.5,60.5Z" transform="translate(720.5 1517)" fill="#773ad7"/>
    <path id="Path_14635" data-name="Path 14635" d="M147.5,84a4.5,4.5,0,1,1-4.5-4.5A4.5,4.5,0,0,1,147.5,84Z" transform="translate(731.5 1528)" fill="#773ad7"/>
    <path id="Path_14636" data-name="Path 14636" d="M124.5,61a4.5,4.5,0,1,1-4.5-4.5A4.5,4.5,0,0,1,124.5,61Zm0,0H159M135.75,78.25a4.5,4.5,0,0,1-9,0m9,0a4.5,4.5,0,0,0-9,0m9,0H159m-32.25,0H115.5M150,95.5a4.5,4.5,0,1,0,4.5-4.5A4.5,4.5,0,0,0,150,95.5Zm0,0H115.5" transform="translate(720 1516.5)" fill="none" stroke="#4698d1" stroke-linecap="round" stroke-width="1"/>
  </g>
</svg>
