<svg xmlns="http://www.w3.org/2000/svg" width="43.129" height="43.243" viewBox="0 0 43.129 43.243">
  <g id="Group_7148" data-name="Group 7148" transform="translate(-1010.916 -1603.257)">
    <path id="Path_14627" data-name="Path 14627" d="M287.751,402.276a.715.715,0,0,0,0,1.43Zm41.457,1.43a.715.715,0,0,0,0-1.43Zm-41.457,2.859a.715.715,0,1,0,0,1.43Zm41.457,1.43a.715.715,0,0,0,0-1.43Zm-.715-33.6-.3.651.031.013Zm-18.764-8.575.3-.65-.031-.013Zm-2.5,0-.266-.663-.031.013ZM288.466,374.4l.266.663.031-.013Zm.46,2.147v-.715h0Zm39.107,0v0Zm-40.282,27.162h41.457v-1.43H287.751Zm0,4.289h41.457v-1.43H287.751Zm41.04-34.248-18.766-8.575-.593,1.3,18.764,8.575Zm-21.856-8.575-18.766,8.575.595,1.3,18.766-8.575Zm-18.008,12.087h39.107v-1.43H288.926Zm21.067-12.1a3.016,3.016,0,0,0-3.028,0l.53,1.327a1.741,1.741,0,0,1,1.967,0Zm18.234,9.9a.67.67,0,0,1,.346.259.278.278,0,0,1,.034.2c-.021.1-.142.312-.575.312v1.43A1.916,1.916,0,0,0,330,375.825a1.842,1.842,0,0,0-1.245-2.092ZM288.2,373.733a1.841,1.841,0,0,0-1.244,2.092,1.915,1.915,0,0,0,1.97,1.434v-1.43c-.433,0-.553-.216-.575-.312a.272.272,0,0,1,.036-.2.664.664,0,0,1,.345-.259Z" transform="translate(724 1238.506)" fill="#4698d1"/>
    <path id="Path_14628" data-name="Path 14628" d="M291,377.859a2.859,2.859,0,1,1,5.718,0v14.3a2.859,2.859,0,1,1-5.718,0Z" transform="translate(725.755 1242.908)" fill="#773ad7"/>
    <path id="Path_14629" data-name="Path 14629" d="M297,377.859a2.859,2.859,0,1,1,5.718,0v14.3a2.859,2.859,0,1,1-5.718,0Z" transform="translate(728.332 1242.908)" fill="#773ad7"/>
    <path id="Path_14630" data-name="Path 14630" d="M303,377.859a2.859,2.859,0,1,1,5.718,0v14.3a2.859,2.859,0,1,1-5.718,0Z" transform="translate(730.909 1242.908)" fill="#773ad7"/>
    <path id="Path_14631" data-name="Path 14631" d="M309,377.859a2.859,2.859,0,1,1,5.718,0v14.3a2.859,2.859,0,1,1-5.718,0Z" transform="translate(733.486 1242.908)" fill="#773ad7"/>
  </g>
</svg>
