<svg xmlns="http://www.w3.org/2000/svg" width="61.274" height="61.42" viewBox="0 0 61.274 61.42"><defs><style>.a{fill:none;stroke:#4698d1;stroke-linecap:round;stroke-linejoin:round;}.b{fill:#773ad7;}</style></defs><g transform="translate(-692 -1627.5)"><path class="a" d="M62.389,529.389H60.444a1.944,1.944,0,0,1,0-3.889H116.83a1.944,1.944,0,0,1,0,3.889h-1.944m-52.5,0V560.5a1.945,1.945,0,0,0,1.944,1.944h24.3M62.389,529.389h52.5m0,0V560.5a1.945,1.945,0,0,1-1.944,1.944h-24.3m0,0v18.471m0,0L76,585.774m12.638-4.861,12.638,4.861m-3.889-45.692h10.694M97.387,551.749h11.666m-11.666-5.833h8.75" transform="translate(634 1102.5)"/><path class="b" d="M63,533.889A3.888,3.888,0,0,1,66.889,530H82.443a3.888,3.888,0,0,1,3.889,3.889v1.944a3.888,3.888,0,0,1-3.889,3.889H66.889A3.888,3.888,0,0,1,63,535.833Z" transform="translate(638.25 1106.75)"/><path class="b" d="M63,540.889A3.888,3.888,0,0,1,66.889,537H82.443a3.888,3.888,0,0,1,3.889,3.889v1.944a3.888,3.888,0,0,1-3.889,3.889H66.889A3.888,3.888,0,0,1,63,542.833Z" transform="translate(638.25 1113.36)"/></g></svg>