<svg width="196" height="68" viewBox="0 0 196 68" fill="none" xmlns="http://www.w3.org/2000/svg">
<g clip-path="url(#clip0_2386_2161)">
<path d="M21.3386 22.1966C21.5742 22.4301 21.5742 22.6635 21.3386 22.897C19.2553 24.9614 16.397 26.2639 13.1357 26.2639C6.41465 26.2639 1.03906 20.9678 1.03906 14.2709C1.03906 7.57391 6.41465 2.24707 13.1419 2.24707C16.4032 2.24707 19.2615 3.54345 21.3448 5.61398C21.5804 5.84745 21.5804 6.08092 21.3448 6.31439L19.1251 8.67983C18.9205 8.9133 18.6539 8.9133 18.4183 8.71055C17.0046 7.4756 15.2562 6.71375 13.1047 6.71375C9.00634 6.71375 5.77603 9.94549 5.77603 14.277C5.77603 18.6085 9.00014 21.8034 13.1047 21.8034C15.2562 21.8034 17.0046 21.0354 18.4183 19.8066C18.6539 19.6038 18.9205 19.6038 19.1251 19.8373L21.3448 22.2027L21.3386 22.1966Z" fill="#0F2B40"/>
<path d="M38.9145 16.0337V25.3234C38.9145 25.5999 38.6913 25.8211 38.4123 25.8211H34.9836C34.7046 25.8211 34.4813 25.5999 34.4813 25.3234V16.8324C34.4813 14.1352 32.9995 13.2013 31.3874 13.2013C28.9011 13.2013 27.7603 15.6343 27.7603 16.3962V25.3234C27.7603 25.5999 27.5371 25.8211 27.2581 25.8211H23.8294C23.5504 25.8211 23.3271 25.5999 23.3271 25.3234V3.18663C23.3271 2.91015 23.5504 2.68896 23.8294 2.68896H27.2581C27.5371 2.68896 27.7603 2.91015 27.7603 3.18663V12.1691C28.8329 10.4365 30.5814 9.14015 32.9685 9.14015C36.329 9.14015 38.9207 11.6715 38.9207 16.0337H38.9145Z" fill="#0F2B40"/>
<path d="M41.1045 17.6987C41.1045 12.9003 44.9052 9.14014 49.6422 9.14014C54.3792 9.14014 58.1799 12.9064 58.1799 17.6987C58.1799 22.491 54.3792 26.2573 49.6422 26.2573C44.9052 26.2573 41.1045 22.491 41.1045 17.6987ZM53.9079 17.6987C53.9079 15.0691 51.9921 13.2013 49.6422 13.2013C47.2923 13.2013 45.3764 15.0691 45.3764 17.6987C45.3764 20.3283 47.2613 22.1961 49.6422 22.1961C52.0231 22.1961 53.9079 20.3283 53.9079 17.6987Z" fill="#0F2B40"/>
<path d="M60.1602 4.68009C60.1602 3.34684 61.2328 2.24707 62.6154 2.24707C63.9981 2.24707 65.0335 3.34684 65.0335 4.68009C65.0335 6.01334 63.9609 7.11311 62.6154 7.11311C61.27 7.11311 60.1602 6.01334 60.1602 4.68009ZM60.898 9.50926H64.3267C64.6305 9.50926 64.8289 9.71202 64.8289 10.0069V25.33C64.8289 25.6311 64.6243 25.8277 64.3267 25.8277H60.898C60.5942 25.8277 60.3958 25.6249 60.3958 25.33V10.0069C60.3958 9.70587 60.6004 9.50926 60.898 9.50926Z" fill="#0F2B40"/>
<path d="M79.0629 20.7331C79.3296 20.4996 79.5652 20.4996 79.8008 20.7331L81.853 22.6623C82.0576 22.865 82.0887 23.1292 81.884 23.3627C80.3402 25.126 78.0523 26.2627 75.4296 26.2627C70.6927 26.2627 67.0283 22.4964 67.0283 17.7041C67.0283 12.9118 70.6927 9.14551 75.4296 9.14551C77.9841 9.14551 80.2348 10.276 81.7848 12.0455C81.9894 12.2789 81.9522 12.5431 81.7538 12.7459L79.7016 14.712C79.466 14.9454 79.2303 14.9147 78.9637 14.6812C78.0213 13.8457 77.0479 13.2128 75.535 13.2128C73.0487 13.2128 71.3003 15.142 71.3003 17.7102C71.3003 20.2784 73.0487 22.2076 75.535 22.2076C77.1161 22.2076 78.1205 21.5748 79.0629 20.7392V20.7331Z" fill="#0F2B40"/>
<path d="M97.828 19.3015H87.2752C87.7092 21.4642 89.3957 22.6992 91.9812 22.6992C93.2894 22.6992 94.3311 22.3674 95.4781 21.5687C95.7819 21.3659 95.9803 21.3659 96.2159 21.5994L97.6978 23.0309C97.9334 23.2644 97.9334 23.4979 97.6668 23.7621C96.0857 25.3288 93.9342 26.2627 91.5472 26.2627C86.4072 26.2627 82.873 22.4964 82.873 17.7041C82.873 12.9118 86.401 9.14551 91.1751 9.14551C95.9493 9.14551 99.006 12.9118 99.006 17.3416C99.006 18.638 98.8386 19.3077 97.828 19.3077V19.3015ZM87.207 16.4384H95.0751C94.7713 14.1406 93.1902 12.8749 91.2123 12.8749C89.2345 12.8749 87.5852 14.1406 87.2132 16.4384H87.207Z" fill="#0F2B40"/>
</g>
<path fill-rule="evenodd" clip-rule="evenodd" d="M0.296875 54.9039C0.296875 47.6141 6.17296 41.8263 13.5512 41.8263C18.632 41.8263 22.4758 44.3005 24.4198 47.6141C24.9058 48.4093 24.5523 49.072 23.7129 49.4697L20.4876 50.7951C19.7366 51.1927 19.2064 51.016 18.8088 50.53C17.6601 48.9837 15.9812 47.8791 13.5954 47.8791C9.75164 47.8791 7.01241 50.8835 7.01241 54.9039C7.01241 58.9244 9.75164 61.7962 13.5954 61.7962C16.0254 61.7962 17.7042 60.7359 18.8971 59.3221C19.4273 58.7035 19.8249 58.6152 20.6202 58.9686L23.8454 60.294C24.6849 60.6475 24.9941 61.3544 24.5081 62.1938C22.5642 65.5516 18.8088 67.849 13.5954 67.849C6.12878 67.849 0.296875 62.4589 0.296875 54.9039ZM41.0812 67.849C34.1001 67.849 28.9147 63.1661 27.8825 57.0692H34.7525C35.5321 59.8672 37.7993 61.8404 41.0812 61.8404C45.2343 61.8404 47.7084 58.7477 47.7084 54.8156C47.7084 50.9996 45.4297 48.0788 41.5752 47.8495V41.8341C49.1347 42.0741 54.4681 47.8099 54.4681 54.8156C54.4681 61.9729 48.9013 67.849 41.0812 67.849ZM60.5955 67.363C59.6677 67.363 59.1817 66.877 59.1817 65.9492V43.7261C59.1817 42.7983 59.6677 42.3123 60.5955 42.3123H64.4834C65.4112 42.3123 65.8972 42.7541 65.8972 43.5936V46.2444C67.7528 43.9028 70.713 41.8263 74.6893 41.8263C80.1677 41.8263 83.9673 45.8468 83.9673 52.5623V65.9492C83.9673 66.877 83.4813 67.363 82.5535 67.363H78.6656C77.7819 67.363 77.2518 66.877 77.2518 65.9492V53.5785C77.2518 49.9115 75.0869 47.8791 71.9058 47.8791C68.4597 47.8791 65.8972 50.2649 65.8972 53.6227V65.9492C65.8972 66.877 65.4112 67.363 64.4834 67.363H60.5955ZM91.574 67.363C90.6462 67.363 90.1602 66.877 90.1602 65.9492V43.7261C90.1602 42.7983 90.6462 42.3123 91.574 42.3123H95.462C96.3898 42.3123 96.8758 42.7541 96.8758 43.5936V46.2444C98.7314 43.9028 101.692 41.8263 105.668 41.8263C111.146 41.8263 114.946 45.8468 114.946 52.5623V65.9492C114.946 66.877 114.46 67.363 113.532 67.363H109.644C108.76 67.363 108.23 66.877 108.23 65.9492V53.5785C108.23 49.9115 106.065 47.8791 102.884 47.8791C99.4383 47.8791 96.8758 50.2649 96.8758 53.6227V65.9492C96.8758 66.877 96.3898 67.363 95.462 67.363H91.574ZM133.686 67.849C124.894 67.849 119.681 62.724 119.681 54.8598C119.681 46.0677 126.485 41.8263 132.538 41.8263C140.004 41.8263 145.35 46.5979 145.35 55.3899C145.35 55.655 145.35 55.9201 145.306 56.1852C145.306 57.113 144.732 57.599 143.804 57.599H126.529C127.147 59.9848 129.445 62.3264 134.084 62.3264C136.381 62.3264 138.237 61.3986 139.253 60.78C140.092 60.294 140.755 60.294 141.418 61.0009L142.876 62.5473C143.45 63.1216 143.494 64.0936 142.699 64.7563C141.153 66.0376 138.149 67.849 133.686 67.849ZM132.538 47.6141C128.694 47.6141 126.573 50.3975 126.485 53.1367H138.414C138.369 50.3975 136.425 47.6141 132.538 47.6141ZM148.632 54.9039C148.632 47.6141 154.508 41.8263 161.886 41.8263C166.967 41.8263 170.81 44.3005 172.754 47.6141C173.24 48.4093 172.887 49.072 172.048 49.4697L168.822 50.7951C168.071 51.1927 167.541 51.016 167.143 50.53C165.995 48.9837 164.316 47.8791 161.93 47.8791C158.086 47.8791 155.347 50.8835 155.347 54.9039C155.347 58.9244 158.086 61.7962 161.93 61.7962C164.36 61.7962 166.039 60.7359 167.232 59.3221C167.762 58.7035 168.16 58.6152 168.955 58.9686L172.18 60.294C173.02 60.6475 173.329 61.3544 172.843 62.1938C170.899 65.5516 167.143 67.849 161.93 67.849C154.463 67.849 148.632 62.4589 148.632 54.9039ZM186.456 67.849C181.728 67.849 178.901 65.5958 178.901 61.2218V48.321H177.708C176.868 48.321 176.382 47.8791 176.382 47.0397V46.2444C176.382 45.5817 176.603 45.1399 177.089 44.5656L183.982 36.8339C184.777 35.9502 185.616 36.3479 185.616 37.099V42.3123H186.429V48.321H185.616V59.1453C185.616 61.8404 187.428 62.5031 189.902 62.0613C190.741 61.9287 191.183 62.1938 191.36 63.0775L191.802 65.5074C191.978 66.391 191.713 67.0096 190.83 67.2305C189.946 67.5397 188.444 67.849 186.456 67.849Z" fill="#0F2B40"/>
<rect x="30.6807" y="45.3638" width="6.16872" height="6.16872" fill="#D55CFF"/>
<rect x="189.452" y="42.2202" width="6.16872" height="6.16872" fill="#F68500"/>
<defs>
<clipPath id="clip0_2386_2161">
<rect width="99.0472" height="26.329" fill="white" transform="translate(0.296875)"/>
</clipPath>
</defs>
</svg>
