<svg xmlns="http://www.w3.org/2000/svg" width="25.58" height="16.627" viewBox="0 0 25.58 16.627">
  <g id="noun_Mail_1557081" transform="translate(-10 -24)">
    <g id="Group_178" data-name="Group 178" transform="translate(10 24)">
      <path id="Path_316" data-name="Path 316" d="M11.919,976.362a1.9,1.9,0,0,0-1.019.3l10.951,9.563a1.328,1.328,0,0,0,1.859,0l10.971-9.573a1.913,1.913,0,0,0-1.019-.29H11.919Zm-1.809,1.3a1.913,1.913,0,0,0-.11.62v12.79a1.914,1.914,0,0,0,1.919,1.919H33.662a1.914,1.914,0,0,0,1.919-1.919v-12.79a1.912,1.912,0,0,0-.11-.62l-10.921,9.534a2.681,2.681,0,0,1-3.537-.01l-10.9-9.523Z" transform="translate(-10 -976.362)" fill="#fff"/>
    </g>
  </g>
</svg>
