<svg xmlns="http://www.w3.org/2000/svg" width="313.888" height="349.81" viewBox="0 0 313.888 349.81">
  <g id="Group_6" data-name="Group 6" transform="translate(-9.687 -72.742)">
    <path id="Path_3" data-name="Path 3" d="M142.1,355.423q-.913-1.289-1.826-2.576l-.841.3c.493,1.319.675,2.912,1.546,3.9,1.647,1.863,2.938,3.448,1.22,5.992-.509.753-.175,2.026-.485,2.977a20.069,20.069,0,0,1-1.464,2.872,9.631,9.631,0,0,0-.47,1,14.693,14.693,0,0,1-2.036,4.046,21.981,21.981,0,0,0-.633,3.941c.077,4.394.3,8.786.51,13.176.041.84.436,1.669.433,2.5a11.994,11.994,0,0,1-.485,2.406,22.319,22.319,0,0,0-2.254-.533,6.019,6.019,0,0,0-2.334-.056,19.794,19.794,0,0,0-2.948,1.325c-.293.95-.315,2.178-.938,2.838-2.223,2.353-3.256,4.8-2.123,8.073.169.49-1.21,1.813-2.115,2.282-.731.379-1.828.048-2.762.039-3.739-.037-4.6.627-5.618,4.2-.928,3.253-2.117,6.322-5.6,7.757-2.494,1.028-4.6.7-6.414-1.433-1.6-1.878-3.3-3.673-5.009-5.448a12.394,12.394,0,0,1-3.513-7.974,32.906,32.906,0,0,0-1.681-7.139c-1.356-4.278-3.072-8.448-4.29-12.761a23.4,23.4,0,0,0-5.653-10.319c-2.292-2.4-3.6-5.859-4.936-9.02-1.834-4.335-3.731-8.577-3.267-13.682.246-2.692-1.364-5.707-2.612-8.352-3.624-7.678-7.632-15.177-11.159-22.9-.888-1.944-.835-4.469-.7-6.7.274-4.656,1.006-9.158-1.509-13.658-1.611-2.883-2.116-6.4-2.992-9.666a3.53,3.53,0,0,1,.219-2.458c1.356-2.3.569-4.512.367-6.89-.257-3.032-.428-6.6.909-9.119,2.24-4.218,1.926-8.242.721-12.254-1-3.324-1.8-6.479-1.041-9.92a10.953,10.953,0,0,0,.023-2.287c-3.252.43-4.061,1.086-3.947,3.946.139,3.51-1.432,6.24-3.46,8.807-.549.7-1.5,1.6-2.2,1.555-2.622-.176-4.4,1.479-6.542,2.4a5.133,5.133,0,0,1-3.86.114c-4.128-2.122-8.251-4.173-10.613-8.741-1.181-2.284-3.79-3.808-5.665-5.76-1.225-1.276-2.292-2.7-3.541-4.2.822-.433,1.106-.7,1.245-.639,4.261,1.894,7.929-.614,11.748-1.661,2.947-.809,3.849-2.72,3.4-6.754a60.435,60.435,0,0,0-7.072,2.7,5.514,5.514,0,0,1-6.805-.745c-2.814-2.407-5.705-4.737-8.356-7.313-.576-.559-.276-2.02-.412-3.393l-2.423-1.482.17-.735c.856-.246,1.7-.544,2.569-.727,1.629-.344,3.231-.458,3.99-2.481.232-.62,1.9-1.085,2.839-.979a40.831,40.831,0,0,1,6.977,1.426c2.245.665,4.341.783,6.391-.448a4.75,4.75,0,0,1,5.5.07c1.666,1.1,3.316,1.271,4.764-.472s1.7-3.636.187-5.325a28.909,28.909,0,0,1-5.948-9.412c-.434-1.188-1.647-2.129-2.607-3.08a4.3,4.3,0,0,1-1.051-4.9c.939-2.658-.011-4.738-2.641-5.869-.7-.3-1.6-.39-2.086-.892-.826-.858-1.973-2-1.916-2.958a4.017,4.017,0,0,1,2.059-3.055c3.255-.975,5-3.2,6.558-5.977,1.684-3,3.422-3.122,5.785-.546a2.207,2.207,0,0,0,2.838.611,33.259,33.259,0,0,1,6.162-1.429,6.975,6.975,0,0,0,5.221-3.144,20.788,20.788,0,0,1,4.389-4.149c2.629-2.055,5.643-3.688,7.982-6.015a11.092,11.092,0,0,0,2.484-5.659c.458-2.461,1.193-4.119,3.947-4.439a2.976,2.976,0,0,0,2.989-3.3,5.849,5.849,0,0,1,3.507-5.506,5.275,5.275,0,0,0,3.115-4.645c.166-2.244.351-4.486.493-6.731.092-1.461,2.7-3.393,4.981-3.17,2.574.253,3.141-1.251,3.317-3.151.208-2.258-1.587-2.4-3.107-2.374-2.355.048-4.309-.057-4.014-3.259.042-.451-.607-1.188-1.11-1.43-2.279-1.1-4.694-1.927-6.9-3.142A4.02,4.02,0,0,1,75.8,118.83c-.258-2.23.05-4.519-.073-6.773a19.27,19.27,0,0,0-.826-4.124c-.48-1.694-.777-3.168,1.444-3.889.508-.165.817-.929,1.229-1.407.357-.413.723-1.152,1.1-1.161,2.393-.059,2.774-1.864,3.4-3.5-3.21-2.614-3.21-2.614-2.78-5.356-2.46-.682-5.315-.489-6.538-3.668-.238-.617-2.1-.629-3.224-.875-.754-.165-2.094-.092-2.181-.4a5.014,5.014,0,0,1,.118-2.889,6.128,6.128,0,0,1,1.647-1.906,33.336,33.336,0,0,1,3.69-3.451,5.049,5.049,0,0,1,2.79-.688c1.462-.009,2.927.254,5.115.475l-1.73-1.984c.161-.124.322-.317.386-.289,2.966,1.292,5.5-.644,8.235-1.007a22.6,22.6,0,0,1,7.125.409c.682.132,1.077,1.753,1.935,2.256,1.142.909,2.624,1.607,3.351,2.774,1.234,1.983,2.5,3.39,4.967,3.925a5.128,5.128,0,0,1,3.369,2.833c.8,2.765,2.961,2.916,5,3.6,1.359.456,3.469.469,1.878,3.229a34.863,34.863,0,0,0,4.159-.591c4.319-1.19,8.6-2.525,12.923-3.7a6.2,6.2,0,0,1,2.946-.016c1.972.471,3.883,1.189,5.834,1.754,1.844.533,2.736,1.679,2.374,3.6-.452,2.4-.977,4.795-1.487,7.189a1.074,1.074,0,0,1-.328.663c-1.78,1.063-3.583,2.089-5.558,3.229-.013.254-.045.759-.064,1.265-.138,3.726-.149,3.8-3.741,3.2-2.6-.43-2.011.89-1.449,2.32.995,2.532.979,2.582-1.05,3.987.4.716.648,1.854,1.258,2.107,3.053,1.264,3.28,4.5,4.891,6.738.34.474-.123,1.525-.216,2.31-2.548-.5-3.563,1.661-5.211,3.388l-3.042-3.917c-1.857.3-2.3,1.041-1.764,3.636.809,3.9,3.845,7.321,2.637,11.666-.108.388.309.922.555,1.585,2.433-2.4,3.675-.854,4.925,1.2a37.023,37.023,0,0,0,2.851,3.623l2.36-1.3c3,4.356,7.5,6.806,12.006,9.532-.612.776-.869,1.4-1.325,1.633-4.059,2.117-4.934,5.94-5.666,9.966a9.749,9.749,0,0,1-1.885,3.487c-.819,1.17-.782,2.017.541,2.648a32.584,32.584,0,0,1,3.013,1.348c2.648,1.614,5.125,3.546,7.881,4.933,2.66,1.338,4.33,4.678,8.078,3.967.741-.14,1.652.74,2.514,1.077.972.38,1.974.684,2.966,1.01.318.1.865.089.94.276,1.311,3.287,4.693,2.311,7.02,3.035,2.618.814,5.711.055,8.6.072a15.451,15.451,0,0,1,3.02.453,6.087,6.087,0,0,1,1.829.632,4.017,4.017,0,0,1,1.707,1.419c1.258,2.828,6.251,5.536,9.082,4.488,2.312-.857,2.265.989,3.113,2.4,3.039-1.4,5.909.273,8.907.565a26.332,26.332,0,0,1,6.793,1.079c2.1.747,5.1-.1,7.355-1.07,1.22-.523,1.7-2.762,2.5-4.19-4.657-4.145-2.83-10.431-.177-14.14.795-1.112,3.141-1.115,4.777-1.626a14.645,14.645,0,0,1,1.053,3.676c.038,1.713-.813,3.437.593,5.055.3.341-.033,1.262-.135,1.906-.335,2.116,2.037,4.512,4.154,4.3a5.841,5.841,0,0,1,2.919.239,7.9,7.9,0,0,0,9.147-1.3,3.578,3.578,0,0,1,3.028-.6,9.886,9.886,0,0,0,7.623.223c1.818-.711,4.073-.277,6.128-.424a8.555,8.555,0,0,0,1.628-.344,51.286,51.286,0,0,0,.484-5.51c-.006-.494-.963-1.445-1.382-1.391-3.315.426-3.868.047-4.454-3.338l11.4-2.437c-1.352-2.815.046-3.955,2.249-4.93a3.782,3.782,0,0,0,1.808-2.5c.322-1.877,1.346-2.429,3.028-2.855a9.331,9.331,0,0,0,3.809-2.117c2.05-1.861,3.838-4.008,5.825-5.944a2.367,2.367,0,0,1,1.815-.5c2.732.5,5.439,1.135,7.56,1.594l6.52-5.452,2.43,1.932v3.954l.6.174L312,163c.955,1.453,1.624,2.472,2.14,3.256l-2.385,5.888a4.844,4.844,0,0,0,.956.261,54.337,54.337,0,0,1,8.04-1.093c2.2.241,2.168,2.169,2.6,3.619.45,1.5-.787,1.458-1.824,1.7-2.133.5-2.7,2.567-1.294,4.241.874,1.038,1.737,2.088,2.554,3.171.175.232.131.63.329,1.745-1.643-.457-3.105-.514-4.122-1.216a5.631,5.631,0,0,0-7.582,1.012c-2.446,2.727-5.3,5.089-7.863,7.715a3.758,3.758,0,0,0-1.2,2.591c.37,2.561,1.094,5.019-1.459,7-.453.351-.227,1.475-.536,2.139a7.122,7.122,0,0,1-1.71,2.706c-1.559,1.194-1.768,3.117-.01,3.977,1.655.81,1.646,1.811.775,3.042a20.165,20.165,0,0,0-3.817,10.394c-.04.556-1.27,1.57-1.726,1.458-2.139-.521-4.149-1.44-6.41-.273-.475.246-1.393-.368-2.593-.734.207,1.135.343,1.961.51,2.781.47,2.315,1.047,4.613,1.394,6.946.209,1.412.284,2.933-1.507,3.671-.3.122-.524.846-.489,1.267a28.33,28.33,0,0,0,.689,5.279c.361,1.287.537,2.128-.692,3.061-.648.493-.851,1.572-1.353,2.583-2.208-1.6-4.62-2.382-5.1-5.993-.606-4.586-2.506-9-3.912-13.7-1.664.12-2.732.209-3.941,2.611-1.18,2.343.164,5.5-2.688,7.248l-1.725-2.234-1.239,1.4c-.005-3.884-3.979-7.263-1.284-11.258a5.027,5.027,0,0,1,2.572-2.237c4.994-.924,7.133-4.777,9.3-8.626A1.6,1.6,0,0,0,275,216.89c-2.051-1.331-4.038-2.831-6.808-2.2a4.983,4.983,0,0,1-3.428-.241c-2.311-1.493-4.456-.862-6.524.121a7.687,7.687,0,0,1-6.39.246c-1.888-.706-4.58-.582-5.613-1.871-.959-1.2-.072-3.785-.232-5.741a16.86,16.86,0,0,0-.959-3.365c-2.1.165-2.179,3.651-4.457,2.011a19.319,19.319,0,0,1-2.994-3.214l-4,1.819c-.49-3.4-2.033-5.192-4.776-5.221.57,1.538,1.6,2.984,1.45,4.29s-1.585,2.42-2.282,3.712a7.983,7.983,0,0,0-.433,2.33l9.64,6.252c-1.543.37-2.287.625-3.05.714-1.479.173-2.735.356-3.375,2.132-.25.694-1.722.947-2.891,1.526-1.148,3.005-.57,4.357,2.675,5.532.719.26,1.475.42,2.187.7,2.5.969,2.918,1.964,1.533,4.236-1.186,1.946-2.185,3.737.178,5.542a1.533,1.533,0,0,1,.4,1.171c-.145,1.972.865,2.778,2.115,2.69.559,2.217,1.1,4.106,1.5,6.022.473,2.212.451,4.241-2.121,5.342a2.726,2.726,0,0,0-1.408,1.665c-.434,2.039-1.737,2.25-3.492,2.013l-.566-2.921a5.753,5.753,0,0,0-.83.906c-1.987,3.87-5.286,6.077-9.268,7.5a5.46,5.46,0,0,0-3.214,6.8c.289,1.029.574,2.06,1.016,3.644-1.753,1.178-2.963,3.784-4.864,5.889-2.842,3.147-6.527,3.842-9.8,5.665-.5.28-1.043.495-1.824.861l-.4-3.482-4.554,4.293,1.556,1.121a4.35,4.35,0,0,1-.351.719q-3.153,4.149-6.321,8.285a4.639,4.639,0,0,1-.6.82c-3.282,2.7-6.624,5.338-9.85,8.107-1.375,1.179-2.5,2.648-3.769,3.952a9.767,9.767,0,0,1-1.669,1.413c-2.923,1.885-5.919,3.661-8.785,5.629-.9.616-1.842,1.461-.611,2.958.323.392-.712,2.345-1.544,3.14a32.857,32.857,0,0,1-4.555,3.113l-4.562-1.278c-.938,1.622-1.86,3.133-2.7,4.687-1.443,2.671-2.509,2.777-4.291.365-5.085,1.453-7.2,5.51-8.506,10.079-.306,1.069.3,2.477.706,3.655.662,1.928,1.75,3.764-.016,5.714-.25.276.016,1.072.125,1.611.467,2.292.966,4.578,1.453,6.865Z" fill="none" stroke="#fff" stroke-width="0.25"/>
    <path id="Path_4" data-name="Path 4" d="M142.1,352.365l-1.826-2.576-.841.3c.493,1.319.675,2.912,1.546,3.9,1.647,1.862,2.938,3.448,1.22,5.991-.509.754-.175,2.027-.485,2.977a20.019,20.019,0,0,1-1.464,2.872,9.628,9.628,0,0,0-.47,1,14.7,14.7,0,0,1-2.036,4.047,21.966,21.966,0,0,0-.633,3.941c.077,4.393.3,8.785.51,13.176.041.839.436,1.669.433,2.5a12,12,0,0,1-.485,2.4,22.6,22.6,0,0,0-2.254-.533,6.038,6.038,0,0,0-2.334-.056,20,20,0,0,0-2.948,1.325c-.293.951-.315,2.178-.938,2.838-2.223,2.354-3.256,4.8-2.123,8.074.169.489-1.21,1.812-2.115,2.281-.731.379-1.828.048-2.762.039-3.739-.036-4.6.627-5.618,4.2-.928,3.252-2.117,6.321-5.6,7.756-2.494,1.029-4.6.7-6.414-1.433-1.6-1.878-3.3-3.672-5.009-5.448a12.39,12.39,0,0,1-3.513-7.974,32.911,32.911,0,0,0-1.681-7.138c-1.356-4.278-3.072-8.448-4.29-12.762a23.407,23.407,0,0,0-5.653-10.319c-2.292-2.4-3.6-5.859-4.936-9.02-1.834-4.334-3.731-8.576-3.267-13.682.246-2.692-1.364-5.707-2.612-8.351-3.624-7.678-7.632-15.178-11.159-22.9-.888-1.944-.835-4.468-.7-6.7.274-4.657,1.006-9.159-1.509-13.659-1.611-2.883-2.116-6.4-2.992-9.665a3.53,3.53,0,0,1,.219-2.458c1.356-2.3.569-4.512.367-6.891-.257-3.031-.428-6.6.909-9.118,2.24-4.218,1.926-8.243.721-12.255-1-3.323-1.8-6.479-1.041-9.919a10.962,10.962,0,0,0,.023-2.288c-3.252.431-4.061,1.087-3.947,3.947.139,3.509-1.432,6.239-3.46,8.806-.549.7-1.5,1.6-2.2,1.555-2.622-.176-4.4,1.479-6.542,2.4a5.129,5.129,0,0,1-3.86.114c-4.128-2.122-8.251-4.173-10.613-8.741-1.181-2.283-3.79-3.807-5.665-5.76-1.225-1.275-2.292-2.7-3.541-4.2.822-.432,1.106-.7,1.245-.638,4.261,1.893,7.929-.615,11.748-1.662,2.947-.808,3.849-2.72,3.4-6.753a60.431,60.431,0,0,0-7.072,2.7,5.512,5.512,0,0,1-6.805-.745c-2.814-2.407-5.705-4.737-8.356-7.312-.576-.56-.276-2.021-.412-3.394l-2.423-1.482.17-.735c.856-.246,1.7-.544,2.569-.727,1.629-.344,3.231-.458,3.99-2.481.232-.619,1.9-1.085,2.839-.979a40.836,40.836,0,0,1,6.977,1.427c2.245.664,4.341.782,6.391-.448a4.75,4.75,0,0,1,5.5.069c1.666,1.1,3.316,1.272,4.764-.471s1.7-3.637.187-5.325a28.92,28.92,0,0,1-5.948-9.412c-.434-1.189-1.647-2.13-2.607-3.081a4.3,4.3,0,0,1-1.051-4.9c.939-2.657-.011-4.738-2.641-5.869-.7-.3-1.6-.39-2.086-.891-.826-.859-1.973-2-1.916-2.959a4.017,4.017,0,0,1,2.059-3.055c3.255-.975,5-3.2,6.558-5.977,1.684-3,3.422-3.121,5.785-.546a2.207,2.207,0,0,0,2.838.612,33.181,33.181,0,0,1,6.162-1.429,6.979,6.979,0,0,0,5.221-3.145,20.784,20.784,0,0,1,4.389-4.148c2.629-2.055,5.643-3.689,7.982-6.016a11.092,11.092,0,0,0,2.484-5.658c.458-2.462,1.193-4.12,3.947-4.439a2.976,2.976,0,0,0,2.989-3.3,5.851,5.851,0,0,1,3.507-5.507,5.272,5.272,0,0,0,3.115-4.644c.166-2.244.351-4.487.493-6.732.092-1.46,2.7-3.393,4.981-3.169,2.574.253,3.141-1.252,3.317-3.152.208-2.258-1.587-2.4-3.107-2.374-2.355.048-4.309-.056-4.014-3.259.042-.451-.607-1.187-1.11-1.429-2.279-1.1-4.694-1.927-6.9-3.143a4.02,4.02,0,0,1-1.863-2.61c-.258-2.23.05-4.52-.073-6.774a19.282,19.282,0,0,0-.826-4.124c-.48-1.694-.777-3.167,1.444-3.889.508-.165.817-.929,1.229-1.407.357-.413.723-1.152,1.1-1.161,2.393-.059,2.774-1.864,3.4-3.5-3.21-2.615-3.21-2.615-2.78-5.356-2.46-.683-5.315-.489-6.538-3.669-.238-.616-2.1-.629-3.224-.875-.754-.165-2.094-.092-2.181-.4a5.011,5.011,0,0,1,.118-2.888,6.131,6.131,0,0,1,1.647-1.907,33.232,33.232,0,0,1,3.69-3.45,5.041,5.041,0,0,1,2.79-.689c1.462-.008,2.927.254,5.115.475l-1.73-1.983c.161-.125.322-.317.386-.289,2.966,1.291,5.5-.645,8.235-1.007a22.57,22.57,0,0,1,7.125.409c.682.132,1.077,1.753,1.935,2.255,1.142.91,2.624,1.607,3.351,2.775,1.234,1.982,2.5,3.39,4.967,3.925a5.126,5.126,0,0,1,3.369,2.832c.8,2.766,2.961,2.916,5,3.6,1.359.457,3.469.47,1.878,3.23a34.64,34.64,0,0,0,4.159-.592c4.319-1.19,8.6-2.525,12.923-3.7a6.192,6.192,0,0,1,2.946-.017c1.972.471,3.883,1.19,5.834,1.754,1.844.533,2.736,1.679,2.374,3.6-.452,2.405-.977,4.8-1.487,7.189a1.074,1.074,0,0,1-.328.663c-1.78,1.063-3.583,2.089-5.558,3.229-.013.254-.045.76-.064,1.265-.138,3.727-.149,3.8-3.741,3.2-2.6-.43-2.011.891-1.449,2.32.995,2.533.979,2.582-1.05,3.987.4.717.648,1.855,1.258,2.107,3.053,1.265,3.28,4.5,4.891,6.739.34.473-.123,1.525-.216,2.31-2.548-.5-3.563,1.661-5.211,3.387l-3.042-3.916c-1.857.3-2.3,1.04-1.764,3.636.809,3.9,3.845,7.321,2.637,11.665-.108.388.309.922.555,1.585,2.433-2.4,3.675-.853,4.925,1.2a37.021,37.021,0,0,0,2.851,3.623l2.36-1.3c3,4.356,7.5,6.807,12.006,9.532-.612.776-.869,1.4-1.325,1.634-4.059,2.116-4.934,5.94-5.666,9.966a9.745,9.745,0,0,1-1.885,3.486c-.819,1.17-.782,2.018.541,2.649a32.315,32.315,0,0,1,3.013,1.347c2.648,1.614,5.125,3.547,7.881,4.933,2.66,1.338,4.33,4.678,8.078,3.968.741-.141,1.652.739,2.514,1.077.972.38,1.974.683,2.966,1.01.318.1.865.089.94.275,1.311,3.287,4.693,2.312,7.02,3.035,2.618.814,5.711.056,8.6.073a15.523,15.523,0,0,1,3.02.452,6.115,6.115,0,0,1,1.829.632,4.017,4.017,0,0,1,1.707,1.419c1.258,2.829,6.251,5.537,9.082,4.488,2.312-.856,2.265.989,3.113,2.4,3.039-1.4,5.909.272,8.907.565a26.374,26.374,0,0,1,6.793,1.078c2.1.748,5.1-.1,7.355-1.069,1.22-.524,1.7-2.762,2.5-4.19-4.657-4.145-2.83-10.431-.177-14.141.795-1.112,3.141-1.115,4.777-1.626a14.657,14.657,0,0,1,1.053,3.676c.038,1.713-.813,3.437.593,5.055.3.341-.033,1.262-.135,1.906-.335,2.116,2.037,4.512,4.154,4.3a5.83,5.83,0,0,1,2.919.24,7.9,7.9,0,0,0,9.147-1.3,3.578,3.578,0,0,1,3.028-.6,9.886,9.886,0,0,0,7.623.224c1.818-.711,4.073-.278,6.128-.424a8.45,8.45,0,0,0,1.628-.345,51.291,51.291,0,0,0,.484-5.509c-.006-.495-.963-1.446-1.382-1.392-3.315.426-3.868.048-4.454-3.337l11.4-2.437c-1.352-2.815.046-3.956,2.249-4.93a3.784,3.784,0,0,0,1.808-2.5c.322-1.878,1.346-2.43,3.028-2.855a9.354,9.354,0,0,0,3.809-2.117c2.05-1.861,3.838-4.008,5.825-5.944a2.363,2.363,0,0,1,1.815-.5c2.732.5,5.439,1.136,7.56,1.594l6.52-5.452,2.43,1.933v3.954l.6.174L312,159.942c.955,1.454,1.624,2.472,2.14,3.256l-2.385,5.889a4.954,4.954,0,0,0,.956.261,54.338,54.338,0,0,1,8.04-1.094c2.2.241,2.168,2.17,2.6,3.619.45,1.5-.787,1.459-1.824,1.7-2.133.5-2.7,2.568-1.294,4.241.874,1.038,1.737,2.088,2.554,3.171.175.232.131.63.329,1.745-1.643-.457-3.105-.514-4.122-1.215a5.631,5.631,0,0,0-7.582,1.011c-2.446,2.728-5.3,5.089-7.863,7.716a3.756,3.756,0,0,0-1.2,2.59c.37,2.562,1.094,5.019-1.459,7-.453.351-.227,1.476-.536,2.14a7.138,7.138,0,0,1-1.71,2.706c-1.559,1.194-1.768,3.116-.01,3.977,1.655.81,1.646,1.81.775,3.041a20.168,20.168,0,0,0-3.817,10.394c-.04.556-1.27,1.57-1.726,1.459-2.139-.521-4.149-1.441-6.41-.273-.475.245-1.393-.369-2.593-.735.207,1.136.343,1.962.51,2.782.47,2.315,1.047,4.613,1.394,6.945.209,1.412.284,2.933-1.507,3.671-.3.122-.524.846-.489,1.267a28.319,28.319,0,0,0,.689,5.279c.361,1.288.537,2.129-.692,3.062-.648.492-.851,1.572-1.353,2.583-2.208-1.6-4.62-2.383-5.1-5.994-.606-4.585-2.506-9-3.912-13.7-1.664.119-2.732.209-3.941,2.61-1.18,2.343.164,5.5-2.688,7.248l-1.725-2.233-1.239,1.4c-.005-3.883-3.979-7.262-1.284-11.258a5.027,5.027,0,0,1,2.572-2.237c4.994-.924,7.133-4.777,9.3-8.625a1.6,1.6,0,0,0-.411-1.507c-2.051-1.331-4.038-2.831-6.808-2.2a4.983,4.983,0,0,1-3.428-.24c-2.311-1.493-4.456-.863-6.524.121a7.691,7.691,0,0,1-6.39.246c-1.888-.706-4.58-.583-5.613-1.872-.959-1.2-.072-3.784-.232-5.74a16.888,16.888,0,0,0-.959-3.366c-2.1.166-2.179,3.652-4.457,2.012a19.4,19.4,0,0,1-2.994-3.214l-4,1.818c-.49-3.4-2.033-5.192-4.776-5.221.57,1.539,1.6,2.985,1.45,4.29s-1.585,2.42-2.282,3.712a7.99,7.99,0,0,0-.433,2.331l9.64,6.252c-1.543.369-2.287.625-3.05.714-1.479.172-2.735.355-3.375,2.132-.25.693-1.722.946-2.891,1.526-1.148,3-.57,4.357,2.675,5.532.719.26,1.475.42,2.187.7,2.5.97,2.918,1.964,1.533,4.236-1.186,1.946-2.185,3.738.178,5.542a1.536,1.536,0,0,1,.4,1.171c-.145,1.973.865,2.778,2.115,2.691.559,2.216,1.1,4.1,1.5,6.022.473,2.211.451,4.241-2.121,5.342a2.727,2.727,0,0,0-1.408,1.664c-.434,2.039-1.737,2.251-3.492,2.013l-.566-2.92a5.708,5.708,0,0,0-.83.906c-1.987,3.87-5.286,6.077-9.268,7.505a5.46,5.46,0,0,0-3.214,6.8c.289,1.029.574,2.059,1.016,3.643-1.753,1.178-2.963,3.785-4.864,5.889-2.842,3.147-6.527,3.842-9.8,5.665-.5.281-1.043.5-1.824.861l-.4-3.482L197.14,281.2l1.556,1.121a4.31,4.31,0,0,1-.351.719q-3.153,4.149-6.321,8.286a4.675,4.675,0,0,1-.6.82c-3.282,2.7-6.624,5.337-9.85,8.106-1.375,1.179-2.5,2.648-3.769,3.953a9.811,9.811,0,0,1-1.669,1.413c-2.923,1.885-5.919,3.661-8.785,5.628-.9.616-1.842,1.462-.611,2.958.323.392-.712,2.345-1.544,3.14a32.861,32.861,0,0,1-4.555,3.114l-4.562-1.279c-.938,1.623-1.86,3.133-2.7,4.687-1.443,2.672-2.509,2.777-4.291.365-5.085,1.454-7.2,5.511-8.506,10.08-.306,1.069.3,2.476.706,3.654.662,1.928,1.75,3.764-.016,5.714-.25.276.016,1.073.125,1.612.467,2.291.966,4.577,1.453,6.865Z" fill="#fff"/>
    <circle id="Ellipse_1" data-name="Ellipse 1" cx="2.117" cy="2.117" r="2.117" transform="translate(134.557 192.588)" fill="#773ad7"/>
    <circle id="Ellipse_2" data-name="Ellipse 2" cx="2.117" cy="2.117" r="2.117" transform="translate(120.949 185.33)" fill="#773ad7"/>
    <circle id="Ellipse_3" data-name="Ellipse 3" cx="2.117" cy="2.117" r="2.117" transform="translate(122.461 206.196)" fill="#773ad7"/>
    <circle id="Ellipse_4" data-name="Ellipse 4" cx="2.117" cy="2.117" r="2.117" transform="translate(60.516 220.092)" fill="#773ad7"/>
    <circle id="Ellipse_5" data-name="Ellipse 5" cx="2.117" cy="2.117" r="2.117" transform="translate(73.975 207.831)" fill="#773ad7"/>
    <circle id="Ellipse_6" data-name="Ellipse 6" cx="2.117" cy="2.117" r="2.117" transform="translate(64.401 203.474)" fill="#773ad7"/>
    <circle id="Ellipse_7" data-name="Ellipse 7" cx="2.117" cy="2.117" r="2.117" transform="translate(48.936 202.839)" fill="#773ad7"/>
    <circle id="Ellipse_8" data-name="Ellipse 8" cx="2.117" cy="2.117" r="2.117" transform="translate(57.294 189.5)" fill="#773ad7"/>
    <circle id="Ellipse_9" data-name="Ellipse 9" cx="2.117" cy="2.117" r="2.117" transform="translate(85.31 204.163)" fill="#773ad7"/>
    <circle id="Ellipse_10" data-name="Ellipse 10" cx="2.117" cy="2.117" r="2.117" transform="translate(103.517 234.934)" fill="#773ad7"/>
    <circle id="Ellipse_11" data-name="Ellipse 11" cx="2.117" cy="2.117" r="2.117" transform="translate(88.837 155.165)" fill="#773ad7"/>
    <circle id="Ellipse_12" data-name="Ellipse 12" cx="2.117" cy="2.117" r="2.117" transform="translate(121.628 168.703)" fill="#773ad7"/>
    <circle id="Ellipse_13" data-name="Ellipse 13" cx="2.117" cy="2.117" r="2.117" transform="translate(90.909 184.561)" fill="#773ad7"/>
    <circle id="Ellipse_14" data-name="Ellipse 14" cx="2.117" cy="2.117" r="2.117" transform="translate(111.855 160.21)" fill="#773ad7"/>
    <circle id="Ellipse_15" data-name="Ellipse 15" cx="2.117" cy="2.117" r="2.117" transform="translate(110.435 110.832)" fill="#773ad7"/>
    <circle id="Ellipse_16" data-name="Ellipse 16" cx="2.117" cy="2.117" r="2.117" transform="translate(96.572 116.348)" fill="#773ad7"/>
    <circle id="Ellipse_17" data-name="Ellipse 17" cx="2.117" cy="2.117" r="2.117" transform="translate(114.61 127.379)" fill="#773ad7"/>
    <circle id="Ellipse_18" data-name="Ellipse 18" cx="2.117" cy="2.117" r="2.117" transform="translate(95.717 136.362)" fill="#773ad7"/>
    <circle id="Ellipse_19" data-name="Ellipse 19" cx="2.117" cy="2.117" r="2.117" transform="translate(268.897 195.771)" fill="#773ad7"/>
    <circle id="Ellipse_20" data-name="Ellipse 20" cx="2.117" cy="2.117" r="2.117" transform="translate(252.589 203.867)" fill="#773ad7"/>
    <circle id="Ellipse_21" data-name="Ellipse 21" cx="2.117" cy="2.117" r="2.117" transform="translate(282.441 213.996)" fill="#773ad7"/>
    <circle id="Ellipse_22" data-name="Ellipse 22" cx="2.117" cy="2.117" r="2.117" transform="translate(292.302 179.778)" fill="#773ad7"/>
    <circle id="Ellipse_23" data-name="Ellipse 23" cx="2.117" cy="2.117" r="2.117" transform="translate(282.572 189.553)" fill="#773ad7"/>
    <circle id="Ellipse_24" data-name="Ellipse 24" cx="2.117" cy="2.117" r="2.117" transform="translate(285.273 199.719)" fill="#773ad7"/>
    <circle id="Ellipse_25" data-name="Ellipse 25" cx="2.117" cy="2.117" r="2.117" transform="translate(272.549 183.113)" fill="#773ad7"/>
    <circle id="Ellipse_26" data-name="Ellipse 26" cx="2.117" cy="2.117" r="2.117" transform="translate(45.282 237.873)" fill="#773ad7"/>
    <circle id="Ellipse_27" data-name="Ellipse 27" cx="2.117" cy="2.117" r="2.117" transform="translate(28.974 247.704)" fill="#773ad7"/>
    <circle id="Ellipse_28" data-name="Ellipse 28" cx="2.117" cy="2.117" r="2.117" transform="translate(66.694 282.219)" fill="#773ad7"/>
    <circle id="Ellipse_29" data-name="Ellipse 29" cx="2.117" cy="2.117" r="2.117" transform="translate(28.494 225.293)" fill="#773ad7"/>
    <circle id="Ellipse_30" data-name="Ellipse 30" cx="2.117" cy="2.117" r="2.117" transform="translate(44.595 251.277)" fill="#773ad7"/>
    <circle id="Ellipse_31" data-name="Ellipse 31" cx="2.117" cy="2.117" r="2.117" transform="translate(61.658 243.556)" fill="#773ad7"/>
    <circle id="Ellipse_32" data-name="Ellipse 32" cx="2.117" cy="2.117" r="2.117" transform="translate(47.199 225.214)" fill="#773ad7"/>
    <circle id="Ellipse_33" data-name="Ellipse 33" cx="2.117" cy="2.117" r="2.117" transform="translate(71.32 180.507)" fill="#773ad7"/>
    <circle id="Ellipse_34" data-name="Ellipse 34" cx="2.117" cy="2.117" r="2.117" transform="translate(167.057 206.243)" fill="#773ad7"/>
    <circle id="Ellipse_35" data-name="Ellipse 35" cx="2.117" cy="2.117" r="2.117" transform="translate(155.193 196.389)" fill="#773ad7"/>
    <circle id="Ellipse_36" data-name="Ellipse 36" cx="2.117" cy="2.117" r="2.117" transform="translate(152.464 217.13)" fill="#773ad7"/>
    <circle id="Ellipse_37" data-name="Ellipse 37" cx="2.117" cy="2.117" r="2.117" transform="translate(151.714 234.265)" fill="#773ad7"/>
    <circle id="Ellipse_38" data-name="Ellipse 38" cx="2.117" cy="2.117" r="2.117" transform="translate(165.26 260.53)" fill="#773ad7"/>
    <circle id="Ellipse_39" data-name="Ellipse 39" cx="2.117" cy="2.117" r="2.117" transform="translate(124.806 229.167)" fill="#773ad7"/>
    <circle id="Ellipse_40" data-name="Ellipse 40" cx="2.117" cy="2.117" r="2.117" transform="translate(152.615 266.808)" fill="#773ad7"/>
    <circle id="Ellipse_41" data-name="Ellipse 41" cx="2.117" cy="2.117" r="2.117" transform="translate(140.254 253.44)" fill="#773ad7"/>
    <circle id="Ellipse_42" data-name="Ellipse 42" cx="2.117" cy="2.117" r="2.117" transform="translate(199.509 234.355)" fill="#773ad7"/>
    <circle id="Ellipse_43" data-name="Ellipse 43" cx="2.117" cy="2.117" r="2.117" transform="translate(187.645 224.502)" fill="#773ad7"/>
    <circle id="Ellipse_44" data-name="Ellipse 44" cx="2.117" cy="2.117" r="2.117" transform="translate(116.784 269.467)" fill="#773ad7"/>
    <circle id="Ellipse_45" data-name="Ellipse 45" cx="2.117" cy="2.117" r="2.117" transform="translate(210.836 210.863)" fill="#773ad7"/>
    <circle id="Ellipse_46" data-name="Ellipse 46" cx="2.117" cy="2.117" r="2.117" transform="translate(208.091 263.488)" fill="#773ad7"/>
    <circle id="Ellipse_47" data-name="Ellipse 47" cx="2.117" cy="2.117" r="2.117" transform="translate(184.916 245.243)" fill="#773ad7"/>
    <circle id="Ellipse_48" data-name="Ellipse 48" cx="2.117" cy="2.117" r="2.117" transform="translate(182.679 281.823)" fill="#773ad7"/>
    <circle id="Ellipse_49" data-name="Ellipse 49" cx="2.117" cy="2.117" r="2.117" transform="translate(163.002 293.263)" fill="#773ad7"/>
    <circle id="Ellipse_50" data-name="Ellipse 50" cx="2.117" cy="2.117" r="2.117" transform="translate(69.258 267.724)" fill="#773ad7"/>
    <circle id="Ellipse_51" data-name="Ellipse 51" cx="2.117" cy="2.117" r="2.117" transform="translate(83.366 256.214)" fill="#773ad7"/>
    <circle id="Ellipse_52" data-name="Ellipse 52" cx="2.117" cy="2.117" r="2.117" transform="translate(83.374 239.063)" fill="#773ad7"/>
    <circle id="Ellipse_53" data-name="Ellipse 53" cx="2.117" cy="2.117" r="2.117" transform="translate(109.313 305.306)" fill="#773ad7"/>
    <circle id="Ellipse_54" data-name="Ellipse 54" cx="2.117" cy="2.117" r="2.117" transform="translate(71.725 299.487)" fill="#773ad7"/>
    <circle id="Ellipse_55" data-name="Ellipse 55" cx="2.117" cy="2.117" r="2.117" transform="translate(82.956 310.057)" fill="#773ad7"/>
    <circle id="Ellipse_56" data-name="Ellipse 56" cx="2.117" cy="2.117" r="2.117" transform="translate(86.964 289.525)" fill="#773ad7"/>
    <circle id="Ellipse_57" data-name="Ellipse 57" cx="2.117" cy="2.117" r="2.117" transform="translate(106.939 288.848)" fill="#773ad7"/>
    <circle id="Ellipse_58" data-name="Ellipse 58" cx="2.117" cy="2.117" r="2.117" transform="translate(108.775 250.856)" fill="#773ad7"/>
    <circle id="Ellipse_59" data-name="Ellipse 59" cx="2.117" cy="2.117" r="2.117" transform="translate(124.145 328.33)" fill="#773ad7"/>
    <circle id="Ellipse_60" data-name="Ellipse 60" cx="2.117" cy="2.117" r="2.117" transform="translate(134.715 317.1)" fill="#773ad7"/>
    <circle id="Ellipse_61" data-name="Ellipse 61" cx="2.117" cy="2.117" r="2.117" transform="translate(114.182 313.092)" fill="#773ad7"/>
    <circle id="Ellipse_62" data-name="Ellipse 62" cx="2.117" cy="2.117" r="2.117" transform="translate(83.216 325.191)" fill="#773ad7"/>
    <circle id="Ellipse_63" data-name="Ellipse 63" cx="2.117" cy="2.117" r="2.117" transform="translate(146.321 306.898)" fill="#773ad7"/>
    <circle id="Ellipse_64" data-name="Ellipse 64" cx="2.117" cy="2.117" r="2.117" transform="translate(140.764 290.762)" fill="#773ad7"/>
    <circle id="Ellipse_65" data-name="Ellipse 65" cx="2.117" cy="2.117" r="2.117" transform="translate(129.57 300.95)" fill="#773ad7"/>
    <circle id="Ellipse_66" data-name="Ellipse 66" cx="2.117" cy="2.117" r="2.117" transform="translate(96.581 362.65)" fill="#773ad7"/>
    <circle id="Ellipse_67" data-name="Ellipse 67" cx="2.117" cy="2.117" r="2.117" transform="translate(91.325 342.401)" fill="#773ad7"/>
    <circle id="Ellipse_68" data-name="Ellipse 68" cx="2.117" cy="2.117" r="2.117" transform="translate(93.942 330.051)" fill="#773ad7"/>
    <circle id="Ellipse_69" data-name="Ellipse 69" cx="2.117" cy="2.117" r="2.117" transform="translate(103.354 376.187)" fill="#773ad7"/>
    <circle id="Ellipse_70" data-name="Ellipse 70" cx="2.117" cy="2.117" r="2.117" transform="translate(97.675 394.332)" fill="#773ad7"/>
    <circle id="Ellipse_71" data-name="Ellipse 71" cx="2.117" cy="2.117" r="2.117" transform="translate(113.244 384.893)" fill="#773ad7"/>
    <circle id="Ellipse_72" data-name="Ellipse 72" cx="2.117" cy="2.117" r="2.117" transform="translate(114.713 395.309)" fill="#773ad7"/>
    <circle id="Ellipse_73" data-name="Ellipse 73" cx="2.117" cy="2.117" r="2.117" transform="translate(119.969 375.06)" fill="#773ad7"/>
    <circle id="Ellipse_74" data-name="Ellipse 74" cx="2.117" cy="2.117" r="2.117" transform="translate(117.353 362.71)" fill="#773ad7"/>
    <circle id="Ellipse_75" data-name="Ellipse 75" cx="2.117" cy="2.117" r="2.117" transform="translate(107.94 408.845)" fill="#773ad7"/>
    <circle id="Ellipse_76" data-name="Ellipse 76" cx="2.117" cy="2.117" r="2.117" transform="translate(108.357 321.85)" fill="#773ad7"/>
    <circle id="Ellipse_77" data-name="Ellipse 77" cx="2.117" cy="2.117" r="2.117" transform="translate(128.014 356.867)" fill="#773ad7"/>
    <circle id="Ellipse_78" data-name="Ellipse 78" cx="2.117" cy="2.117" r="2.117" transform="translate(118.181 341.544)" fill="#773ad7"/>
  </g>
</svg>
