<svg xmlns="http://www.w3.org/2000/svg" xmlns:xlink="http://www.w3.org/1999/xlink" width="251.561" height="336.091" viewBox="0 0 251.561 336.091">
  <defs>
    <linearGradient id="linear-gradient" x1="0.5" x2="0.5" y2="1" gradientUnits="objectBoundingBox">
      <stop offset="0" stop-color="#fff"/>
      <stop offset="1" stop-color="#4698d1"/>
    </linearGradient>
    <linearGradient id="linear-gradient-2" x1="0.5" x2="0.5" y2="1" gradientUnits="objectBoundingBox">
      <stop offset="0" stop-color="#4698d1"/>
      <stop offset="1" stop-color="#27669c"/>
    </linearGradient>
  </defs>
  <g id="Group_7075" data-name="Group 7075" transform="translate(-888.995 -4120.273)">
    <g id="Group_7060" data-name="Group 7060" transform="translate(987.611 4429.316)">
      <path id="Path_14640" data-name="Path 14640" d="M-1330.23-2027.043s3.762-.441,4.245,9.335a5.254,5.254,0,0,1-2.6,4.791l-17.491,10.189a11.048,11.048,0,0,1-13.475-1.837h0a5.27,5.27,0,0,1,.584-7.873l19.9-15.14S-1332.372-2029.453-1330.23-2027.043Z" transform="translate(1361.047 2028.273)" fill="#373737"/>
      <path id="Path_14641" data-name="Path 14641" d="M-1328.184-2020.855l-17.49,10.189a11.047,11.047,0,0,1-13.475-1.837,5.188,5.188,0,0,1-1.291-2.316,5.267,5.267,0,0,0,.89,6.132,11.048,11.048,0,0,0,13.475,1.837l17.491-10.189a5.259,5.259,0,0,0,2.6-4.791c-.025-.477-.062-.911-.1-1.342A5.235,5.235,0,0,1-1328.184-2020.855Z" transform="translate(1361.047 2032.395)" fill="#27669c"/>
      <g id="Group_7059" data-name="Group 7059" transform="translate(3.9 8.119)">
        <g id="Group_7058" data-name="Group 7058">
          <g id="Group_7055" data-name="Group 7055" transform="translate(0 5.022)">
            <path id="Path_14642" data-name="Path 14642" d="M-1358.889-2021s7.432-.4,9.24,4.418" transform="translate(1358.889 2021.005)" fill="none" stroke="#773ad7" stroke-linecap="round" stroke-miterlimit="10" stroke-width="1"/>
          </g>
          <g id="Group_7056" data-name="Group 7056" transform="translate(3.214 2.411)">
            <path id="Path_14643" data-name="Path 14643" d="M-1357.111-2022.44s7.432-.4,9.24,4.418" transform="translate(1357.111 2022.449)" fill="none" stroke="#773ad7" stroke-linecap="round" stroke-miterlimit="10" stroke-width="1"/>
          </g>
          <g id="Group_7057" data-name="Group 7057" transform="translate(5.825)">
            <path id="Path_14644" data-name="Path 14644" d="M-1355.667-2023.774s7.432-.4,9.24,4.42" transform="translate(1355.667 2023.783)" fill="none" stroke="#773ad7" stroke-linecap="round" stroke-miterlimit="10" stroke-width="1"/>
          </g>
        </g>
      </g>
    </g>
    <g id="Group_7066" data-name="Group 7066" transform="translate(1086.078 4374.968)">
      <path id="Path_14645" data-name="Path 14645" d="M-1302.123-2056.869s1.3-3.558,10.245.408a5.255,5.255,0,0,1,3.109,4.48l1.229,20.2a11.046,11.046,0,0,1-7.7,11.207h0a5.27,5.27,0,0,1-6.769-4.062l-4.568-24.584S-1305.24-2056.04-1302.123-2056.869Z" transform="translate(1306.579 2058.336)" fill="#4d5068"/>
      <path id="Path_14646" data-name="Path 14646" d="M-1294.435-2054.667l1.229,20.2a11.051,11.051,0,0,1-7.7,11.208,5.176,5.176,0,0,1-2.65.11,5.271,5.271,0,0,0,5.877,1.965,11.048,11.048,0,0,0,7.7-11.207l-1.229-20.2a5.256,5.256,0,0,0-3.108-4.48c-.437-.193-.841-.354-1.242-.513A5.248,5.248,0,0,1-1294.435-2054.667Z" transform="translate(1309.019 2058.945)" fill="#27669c"/>
      <g id="Group_7065" data-name="Group 7065" transform="translate(1.124 17.11)">
        <g id="Group_7064" data-name="Group 7064">
          <g id="Group_7061" data-name="Group 7061" transform="translate(1.864 7.461)">
            <path id="Path_14647" data-name="Path 14647" d="M-1304.926-2038.448s2.985-6.817,8.1-6.264" transform="translate(1304.926 2044.745)" fill="none" stroke="#773ad7" stroke-linecap="round" stroke-miterlimit="10" stroke-width="1"/>
          </g>
          <g id="Group_7062" data-name="Group 7062" transform="translate(0.978 3.417)">
            <path id="Path_14648" data-name="Path 14648" d="M-1305.416-2040.686s2.985-6.819,8.1-6.264" transform="translate(1305.416 2046.982)" fill="none" stroke="#773ad7" stroke-linecap="round" stroke-miterlimit="10" stroke-width="1"/>
          </g>
          <g id="Group_7063" data-name="Group 7063">
            <path id="Path_14649" data-name="Path 14649" d="M-1305.957-2042.576s2.986-6.819,8.1-6.264" transform="translate(1305.957 2048.872)" fill="none" stroke="#773ad7" stroke-linecap="round" stroke-miterlimit="10" stroke-width="1"/>
          </g>
        </g>
      </g>
    </g>
    <path id="Path_14650" data-name="Path 14650" d="M-1349.731-2095.479l-12.713,47.339a38.516,38.516,0,0,0,.277,20.942l18.06,60.81s9.106,4.019,16.07-1.607l-12.32-64.009,5.089-26.515,8.679,27.945a11.927,11.927,0,0,0,9.889,8.3c14.793,1.877,46.79,6.636,55.352,13.567,0,0,8.838-4.017,9.373-14.195,0,0-16.069-7.767-25.176-11.249s-25.978-4.554-25.978-4.554v-62.67l-44.727.535Z" transform="translate(2346.467 6398.541)" fill="#27669c"/>
    <path id="Path_14651" data-name="Path 14651" d="M-1255.221-2022.9s-16.069-7.767-25.176-11.249-25.978-4.554-25.978-4.554v-62.67l-38.421.459-14.289,65a28.144,28.144,0,0,0,.121,12.615l13.844,57.647c3.135.819,9,1.566,13.837-2.343L-1343.6-2032l5.089-26.515,1.775,5.717-.168-5.717c-4.554-16.337-.268-28.657,3.75-27.05s1.339,24.64,5.624,40.71c2.525,9.469,8.2,17.888,12.445,23.23,16.039,2.2,42.778,6.68,50.494,12.926C-1264.595-2008.7-1255.757-2012.72-1255.221-2022.9Z" transform="translate(2349.711 6398.541)" fill="#4698d1"/>
    <path id="Path_14652" data-name="Path 14652" d="M-1396.805-2029.264c-13.4-8.291-15-41.244,7.5-54.636s36.424-32.139,50.351-56.778,35.352-43.387,74.99-30.532,75.527,40.173,63.207,74.99-43.923,43.387-85.7,34.818-68.028,27.853-76.6,34.281S-1385.557-2022.3-1396.805-2029.264Z" transform="translate(2309.854 6332.754)" opacity="0.2" fill="url(#linear-gradient)"/>
    <path id="Path_14653" data-name="Path 14653" d="M-1376.223-2116.056s-6.112-3.921-10.646-6.783a4.359,4.359,0,0,1-1.412-5.929l.322-.535a4.362,4.362,0,0,1,6.069-1.445l3.86,2.439-2.019-3.46a1.7,1.7,0,0,1,.5-2.256h0a1.692,1.692,0,0,1,2.292.331c2.1,2.631,7.068,8.65,9.871,10.207l-2.008,6.828Z" transform="translate(2326.155 6371.916)" fill="#fed"/>
    <path id="Path_14654" data-name="Path 14654" d="M-1354.074-2060.725s24.64,2.947,36.156-.8l-10.178-83.294-6.159-3.75s-16.337-1.607-17.677,6.428-2.142,63.207-2.142,63.207Z" transform="translate(2354.291 6360.306)" fill="#d9d9d9"/>
    <circle id="Ellipse_371" data-name="Ellipse 371" cx="3.616" cy="3.616" r="3.616" transform="translate(1012.402 4120.273)" fill="#4698d1" opacity="0.25"/>
    <circle id="Ellipse_373" data-name="Ellipse 373" cx="3.214" cy="3.214" r="3.214" transform="translate(1134.129 4205.843)" fill="#4698d1" opacity="0.25"/>
    <circle id="Ellipse_376" data-name="Ellipse 376" cx="4.017" cy="4.017" r="4.017" transform="translate(1093.151 4123.889)" fill="#773ad7" opacity="0.25"/>
    <path id="Path_14673" data-name="Path 14673" d="M-1373.9-2109.525l17.877,8.638s6.428-20.287,11.451-28.925,15.265-11.047,17.875-13.66,4.822-7.231,10.847-8.235,13.66-1.607,16.874.6,5.424,8.839,10.446,10.245,10.243,11.649,10.042,19.082-3.616,35.956-1,43.187,16.671,36.156,16.671,36.156-19.886,17.275-26.716,17.677c0,0-16.271-29.327-18.68-63.675s.8-43.387-2.813-51.825l2.009-6.83-9.842,2.211s-7.231,4.418-6.83,23.1,2.209,66.487-12.454,86.373c0,0-9.24.2-11.449-6.427,0,0,9.24-23.1,9.24-38.165s.2-19.685.2-19.685-6.629,14.262-11.649,15.064-30.532-16.27-30.532-16.27S-1374.3-2103.9-1373.9-2109.525Z" transform="translate(2331.463 6357.148)" fill="url(#linear-gradient-2)"/>
    <path id="Path_14674" data-name="Path 14674" d="M-1320.117-2133.333s-3.816,26.313-4.218,30.934-35.554,25.31-35.554,25.31,6.429,1.808,4.822,8.435c0,0,36.558-17.474,42.784-22.1s9.442-20.086,9.442-20.086" transform="translate(2349.594 6372.721)" fill="url(#linear-gradient-2)"/>
    <path id="Path_14675" data-name="Path 14675" d="M-1353.34-2102.111s-3.064,2.9-8.759.905a3.308,3.308,0,0,0-3.677,1.138L-1367-2098.5l5.825,2.209-4.285,4.284a2.212,2.212,0,0,0,.8,3.648,6.421,6.421,0,0,0,6.1-.5c3.816-2.811,9.039-6.427,9.039-6.427l3.816-3.214Z" transform="translate(2343.849 6397.942)" fill="#fed"/>
    <path id="Path_14676" data-name="Path 14676" d="M-1365.506-2077.071l-37.161-13.257,33.2-15.558a1.268,1.268,0,0,1,.924-.058l37.376,12.156a1.257,1.257,0,0,1,.094,2.355Z" transform="translate(2315.037 6394.797)" fill="#4698d1"/>
    <path id="Path_14677" data-name="Path 14677" d="M-1370.294-2091.805l12.32-7.3-15.6-5.156-10.981,5.825Z" transform="translate(2329.667 6396.207)" fill="#145bab"/>
    <path id="Path_14678" data-name="Path 14678" d="M-1413.038-2118.46l38.461,11.7a1.975,1.975,0,0,1,1.209,1.039l18.507,38.785-43.588-13.257-16.95-35.521A1.979,1.979,0,0,1-1413.038-2118.46Z" transform="translate(2304.592 6384.664)" fill="#27669c"/>
    <path id="Path_14679" data-name="Path 14679" d="M-1355.889-2159.218s2.009,22.9,13.66,21.292l.6,5.223a8.036,8.036,0,0,0,8.437,2.009c5.424-1.607,7.633-3.616,8.636-6.228l-5.424-4.218s2.613-13.458.6-16.873-18.479-7.432-18.479-7.432Z" transform="translate(2352.824 6346.781)" fill="#fed"/>
    <path id="Path_14680" data-name="Path 14680" d="M-1328.721-2150.317c-2.088.116-2.433,1.908-2.354,3.4a1.8,1.8,0,0,1-1.877,1.913h0a1.791,1.791,0,0,1-1.7-1.884l.107-2.021-2.715-4.149a6.914,6.914,0,0,0-10.521-1.248l-3.408,3.207a5.331,5.331,0,0,1-7.848-.589h0a5.33,5.33,0,0,1,.555-7.193l10.227-9.545a14,14,0,0,1,17.971-1.02c2.759,2.092,5.179,4.688,5.984,7.682,0,0,2.486,8.676,1.133,15.083a3,3,0,0,1-2.249,2.269h0a1.717,1.717,0,0,1-2.061-1.229Z" transform="translate(2349.359 6341.296)" fill="#4d5068"/>
  </g>
</svg>
