<svg xmlns="http://www.w3.org/2000/svg" xmlns:xlink="http://www.w3.org/1999/xlink" width="219.631" height="339.882" viewBox="0 0 219.631 339.882">
  <defs>
    <linearGradient id="linear-gradient" x1="0.5" x2="0.5" y2="1" gradientUnits="objectBoundingBox">
      <stop offset="0" stop-color="#fff"/>
      <stop offset="1" stop-color="#4698d1"/>
    </linearGradient>
    <linearGradient id="linear-gradient-2" x1="0.5" x2="0.5" y2="1" gradientUnits="objectBoundingBox">
      <stop offset="0" stop-color="#773ad7"/>
      <stop offset="0.326" stop-color="#4992d1"/>
      <stop offset="1" stop-color="#4698d1"/>
    </linearGradient>
    <linearGradient id="linear-gradient-3" x1="0.5" x2="0.5" y2="1" gradientUnits="objectBoundingBox">
      <stop offset="0" stop-color="#4698d1"/>
      <stop offset="1" stop-color="#773ad7"/>
    </linearGradient>
  </defs>
  <g id="Group_7074" data-name="Group 7074" transform="translate(-225 -3957.556)">
    <path id="Path_14656" data-name="Path 14656" d="M-1672.412-2146.366c-9.641,4.418-19.685,24.5-50.218,15.265s-60.26-24.1-60.26-73.919,49.413-77.535,108.469-77.535,106.862,45.4,110.878,79.544-39.772,73.919-77.132,62.27S-1672.412-2146.366-1672.412-2146.366Z" transform="translate(2007.889 6252.177)" opacity="0.2" fill="url(#linear-gradient)"/>
    <path id="Path_14657" data-name="Path 14657" d="M-1680.292-2205.947l-40.374-15.467,36.96-12.253,35.955,8.437Z" transform="translate(2058.153 6291.67)" fill="#4698d1"/>
    <path id="Path_14658" data-name="Path 14658" d="M-1749.343-2225.111s-5.223,18.48,4.017,28.725,19.484,13.658,47,17.877,29.93,4.619,25.913,11.449-7.434,16.27-4.621,35.151c1.005,14.665-4.017,18.481-5.223,20.69s-.4,5.022,2.009,7.031c1.9,1.584,11.682,10.422,15.724,14.081a3.355,3.355,0,0,0,3.842.467h0a3.352,3.352,0,0,0,1.114-4.966c-3.013-4.019-7.815-11.141-8.226-16.21-.6-7.432,7.231-32.741,10.245-43.187s6.427-20.688,6.427-20.688l.336-.468c3.129,5.742,9.149,13.009,19.591,20.343,11.319,9.375,10.625,15.645,11.395,18.04s3.363,3.751,6.479,3.39c2.46-.287,15.6-1.285,21.041-1.694a3.357,3.357,0,0,0,2.985-2.462h0a3.351,3.351,0,0,0-2.833-4.228c-4.988-.586-13.459-2.014-17.415-5.208-5.8-4.684-18.747-27.8-24.241-37.181-3.9-6.669-10.107-17.344-13.367-22.958a9.1,9.1,0,0,0-6.425-4.418l-55.691-9.01Z" transform="translate(2033.8 6298.582)" fill="url(#linear-gradient-2)"/>
    <g id="Group_7069" data-name="Group 7069" transform="translate(282.986 4073.471)">
      <g id="Group_7068" data-name="Group 7068">
        <g id="Group_7067" data-name="Group 7067">
          <path id="Path_14659" data-name="Path 14659" d="M-1685.668-2191.164c-10.847-.4-37.16,2.209-47-5.624-7-5.575-2.82-19.076.175-26.4l-16.847-1.918s-5.223,18.48,4.017,28.725,19.484,13.658,47,17.877,29.93,4.619,25.913,11.449c-2.88,4.894-5.436,11.152-5.626,21.243,4.306-13.629,12.279-23.107,14.463-29.077C-1660.56-2183.13-1674.821-2190.763-1685.668-2191.164Z" transform="translate(1750.813 2225.111)" fill="#91beff" style="mix-blend-mode: multiply;isolation: isolate"/>
        </g>
      </g>
    </g>
    <path id="Path_14660" data-name="Path 14660" d="M-1723.937-2235.673l2.734,7.56a1.7,1.7,0,0,0,1.757,1.112l35.523-3.348a1.967,1.967,0,0,1,2.041,1.309l.749,2.636a1.7,1.7,0,0,0,1.634,1.234h1.327l-.6-3.516s4.418,2.412,3.816,4.621c-.3,1.407,1.506,1.707,1.607.4s-.1-4.319-1.506-5.424c0,0,2.611,1.508,2.811,3.717s3.616.9,1.508-3.014-5.525-7.231-9.341-7.432c-3.377-.177-27.04-.671-32.447-.781a1.692,1.692,0,0,1-1.526-1.043l-3.182-7.614c-.575-1.372-3.563-12.823-4.171-11.468l-2.687,19.778A1.7,1.7,0,0,0-1723.937-2235.673Z" transform="translate(2055.43 6281.467)" fill="#fed"/>
    <path id="Path_14661" data-name="Path 14661" d="M-1739.513-2271.338c-2.146,13.488,6.428,15.667,6.428,15.667s1.607,8.838,10.446,25.51,16.471,17.877,24.706,17.877,10.445-15.667,6.428-19.081-3.415-9.844-.8-11.048,7.835-8.838,1.406-14.462-4.017-11.048-6.427-20.891-14.462-11.85-15.869-10.245C-1713.2-2288.011-1735.6-2295.944-1739.513-2271.338Z" transform="translate(2042.65 6246.786)" fill="#4d5068"/>
    <path id="Path_14662" data-name="Path 14662" d="M-1721.506-2269.72a6.127,6.127,0,0,0-5.792-.114c-1.569.8-3.787,1.981-6.732,3.657-2.717,1.544-10.847,13.056-14.462,16.471-3.122,2.949,1.242,19.815,2.493,24.375a5.894,5.894,0,0,0,.951,1.964c1.9,2.567,7.363,10.548,6.2,16.044-1.174,5.531-8.5,14.419-10.894,17.21a2.46,2.46,0,0,0-.511,2.364c.58,1.741,2.5,4.464,8.795,5.133,8.016.853,26.461-.756,31.843-1.262a1.572,1.572,0,0,0,1.43-1.633c-.192-4.737-.5-19.463,2.681-24.825,3.818-6.429,5.827-14.663,6.027-24.507.2-9.715-.192-19.822-11.022-28.583a6.389,6.389,0,0,0-.9-.605Z" transform="translate(2034.156 6261.912)" fill="url(#linear-gradient-3)"/>
    <path id="Path_14664" data-name="Path 14664" d="M-1709.072-2266.208c-2.61-1.607-3.816-7.1-1.607-8.036,3.012-1.276.738-6.293-1.4-7.231-1.84-.8-7.634-1.2-10.646,5.625s-5.022,7.03-7.835,6.83-1.338-5.624-3.48-5.624-3.214,2.41-3.214,6.429c0,2.147.575,3.185,1.273,3.583a2.277,2.277,0,0,1,1.108,2.556l-1.688,6.416a2.266,2.266,0,0,0,.475,2.059c1.593,1.859,5.382,5.606,8.585,3.594a2.3,2.3,0,0,0,1-1.43h0a2.241,2.241,0,0,1,2.446-1.75,11.711,11.711,0,0,0,9.968-3.512C-1708.6-2262.19-1708.178-2265.658-1709.072-2266.208Z" transform="translate(2044.75 6252.703)" fill="#fed"/>
    <g id="Group_7070" data-name="Group 7070" transform="translate(351.007 4155.262)">
      <path id="Path_14665" data-name="Path 14665" d="M-1695.172-2143.521c-3.393-1.938-13.667-13.877-17.561-18.478-1.054,2.179-.246,4.879,2.094,6.828,1.9,1.585,11.682,10.422,15.724,14.081a3.352,3.352,0,0,0,3.842.466,3.341,3.341,0,0,0,1.743-2.6C-1691.361-2142.715-1693.525-2142.58-1695.172-2143.521Z" transform="translate(1713.188 2194.303)" fill="#27669c"/>
      <path id="Path_14666" data-name="Path 14666" d="M-1694.328-2175.9c-7.1,1.682-13.139-1.688-16.227-3.968a88.455,88.455,0,0,0,1,11.411c.025.378.031.718.049,1.081,2.978,1.79,7.381,3.9,11.792,4.109C-1696.7-2167.371-1695.507-2171.746-1694.328-2175.9Z" transform="translate(1715.315 2179.868)" fill="#27669c"/>
      <path id="Path_14667" data-name="Path 14667" d="M-1690.163-2136.737c-3.013-4.019-7.815-11.141-8.226-16.21-.246-3.046.926-9.1,2.6-15.9-4.411-.213-8.815-2.319-11.792-4.109.684,13.749-4.1,17.456-5.271,19.609-.036.065-.052.136-.085.2,3.894,4.6,14.168,16.54,17.561,18.478,1.647.942,3.811.806,5.841.3A3.291,3.291,0,0,0-1690.163-2136.737Z" transform="translate(1713.391 2185.45)" fill="#4d5068"/>
    </g>
    <g id="Group_7071" data-name="Group 7071" transform="translate(393.646 4127.603)">
      <path id="Path_14668" data-name="Path 14668" d="M-1652.8-2174.333c-3.742,1.123-19.475.343-25.492-.005.851,2.264,3.368,3.54,6.391,3.187,2.46-.287,15.6-1.285,21.041-1.694a3.356,3.356,0,0,0,2.985-2.462,3.344,3.344,0,0,0-.683-3.055C-1649.59-2176.541-1650.983-2174.879-1652.8-2174.333Z" transform="translate(1698.738 2208.743)" fill="#27669c"/>
      <path id="Path_14669" data-name="Path 14669" d="M-1675.544-2195.168c-3.674,6.306-10.277,8.359-14.058,9.026a88.867,88.867,0,0,0,8.963,7.135c.291.242.541.472.817.709,3.348-.926,7.909-2.665,11.1-5.715C-1671-2187.572-1673.346-2191.451-1675.544-2195.168Z" transform="translate(1689.602 2195.168)" fill="#27669c"/>
      <path id="Path_14670" data-name="Path 14670" d="M-1645.942-2170.946c-4.988-.586-13.459-2.014-17.415-5.208-2.379-1.922-5.959-6.942-9.733-12.843-3.193,3.05-7.754,4.789-11.1,5.715,10.435,8.977,9.827,15,10.578,17.331.023.073.063.134.089.2,6.016.349,21.75,1.128,25.492.005,1.817-.546,3.211-2.207,4.241-4.029A3.3,3.3,0,0,0-1645.942-2170.946Z" transform="translate(1693.972 2200.153)" fill="#4d5068"/>
    </g>
    <path id="Path_14671" data-name="Path 14671" d="M-1677.3-2212.417c-11.583-.734-39.721-2.5-42.268-2.5-3.214,0-4.418-4.418-4.418-4.418H-1727v4.218s48.008,14.663,54.435,19.886,2.546,15.4,2.546,15.4c2.679,4.916,7.49,10.953,15.37,17.192-7.011-12.085-13.73-34.895-16.449-44.744A6.868,6.868,0,0,0-1677.3-2212.417Z" transform="translate(2053.037 6303.25)" fill="#91beff" style="mix-blend-mode: multiply;isolation: isolate"/>
    <path id="Path_14672" data-name="Path 14672" d="M-1633.737-2246.949l-46.972,16.415a1.127,1.127,0,0,0-.635.555l-17.47,34.412,52.761-17.675,13.729-32.2A1.129,1.129,0,0,0-1633.737-2246.949Z" transform="translate(2075.805 6280.888)" fill="#27669c"/>
    <circle id="Ellipse_370" data-name="Ellipse 370" cx="3.616" cy="3.616" r="3.616" transform="translate(265.575 4226.331)" fill="#773ad7" opacity="0.25"/>
    <circle id="Ellipse_372" data-name="Ellipse 372" cx="3.214" cy="3.214" r="3.214" transform="translate(321.417 4257.667)" fill="#4698d1" opacity="0.25"/>
    <circle id="Ellipse_374" data-name="Ellipse 374" cx="4.017" cy="4.017" r="4.017" transform="translate(227.411 4128.709)" fill="#4698d1" opacity="0.25"/>
    <circle id="Ellipse_375" data-name="Ellipse 375" cx="4.017" cy="4.017" r="4.017" transform="translate(365.607 4289.403)" fill="#773ad7" opacity="0.25"/>
    <circle id="Ellipse_377" data-name="Ellipse 377" cx="4.017" cy="4.017" r="4.017" transform="translate(260.353 4209.86)" fill="#4d98eb" opacity="0.25"/>
    <path id="Path_14655" data-name="Path 14655" d="M-1711.63-2227.079l17.141,8.7,14.195-7.1-16.471-7.231Z" transform="translate(2065.453 6292.448)" fill="#4698d1" style="mix-blend-mode: multiply;isolation: isolate"/>
    <path id="Path_14663" data-name="Path 14663" d="M-1669.03-2224.578c-.273,1.112.134,2.249,1.269,2.406l10.666,1.464a.607.607,0,0,1,.313.143l3.079,2.693-1.94.708a.6.6,0,0,1-.513-.049l-2.77-1.661,1.206,5.624-2.119.163a.6.6,0,0,1-.624-.437l-.873-3.14.139,3.057a1.5,1.5,0,0,1-1.287,1.555l-.166.023a1.5,1.5,0,0,1-1.656-1.074l-.716-2.506a.6.6,0,0,0-.6-.434l-66.236,2.776a.6.6,0,0,1-.557-.324l-15.13-29.29a.6.6,0,0,1,.409-.863l13.206-2.751a.6.6,0,0,1,.676.358l9.1,21.887a.6.6,0,0,0,.53.369l48.91,1.979a.6.6,0,0,0,.51-.248l1.782-2.473a3.106,3.106,0,0,1,3.068-1.242S-1668.688-2225.963-1669.03-2224.578Z" transform="translate(2036.385 6281.298)" fill="#fed"/>
  </g>
</svg>
