<svg xmlns="http://www.w3.org/2000/svg" width="16.094" height="23.05" viewBox="0 0 16.094 23.05">
  <g id="noun_call_2323635" transform="translate(0 0)">
    <g id="Group_179" data-name="Group 179" transform="translate(0 0)">
      <path id="Path_317" data-name="Path 317" d="M15.912,19.637l-2.817-3.36a1.86,1.86,0,0,0-2.4-.547l-.941.5a1.369,1.369,0,0,0-.72.721.91.91,0,0,1-1.5.267A27.834,27.834,0,0,1,4.468,12.5,11.956,11.956,0,0,1,3.355,9.1c-.077-.461.159-1.113,1.092-1.067a1.367,1.367,0,0,0,1.007-.165l.957-.473a1.857,1.857,0,0,0,.955-2.27L6.276.878A1.6,1.6,0,0,0,4.131.171L2.09,1.2a2.216,2.216,0,0,0-.9.965c-1.723,2.912-1.622,7.5.573,11.771.081.159,3.444,8.345,10.14,9.083a2.2,2.2,0,0,0,1.305-.167l2.026-1.061A1.6,1.6,0,0,0,15.912,19.637Z" transform="translate(0 0)" fill="#fff"/>
    </g>
  </g>
</svg>
