<svg xmlns="http://www.w3.org/2000/svg" width="1679.824" height="742.1" viewBox="0 0 1679.824 742.1">
  <g id="Group_2486" data-name="Group 2486" transform="translate(-106.973 -194.727)">
    <g id="Group_2483" data-name="Group 2483" transform="translate(-134 -254)" opacity="0.3">
      <line id="Line_95" data-name="Line 95" x1="18" y1="30" transform="translate(313.5 543.5)" fill="none" stroke="#773ad7" stroke-linecap="round" stroke-width="3"/>
      <line id="Line_96" data-name="Line 96" y1="30" x2="18" transform="translate(320.682 541.102) rotate(25)" fill="none" stroke="#773ad7" stroke-linecap="round" stroke-width="3"/>
    </g>
    <g id="Group_2484" data-name="Group 2484" transform="translate(1002.826 633.822) rotate(-34)" opacity="0.3">
      <line id="Line_95-2" data-name="Line 95" x1="18" y1="30" transform="translate(313.5 543.5)" fill="none" stroke="#6f6d6c" stroke-linecap="round" stroke-width="3"/>
      <line id="Line_96-2" data-name="Line 96" y1="30" x2="18" transform="translate(320.682 541.102) rotate(25)" fill="none" stroke="#6f6d6c" stroke-linecap="round" stroke-width="3"/>
    </g>
    <g id="Path_17313" data-name="Path 17313" transform="translate(320 532)" fill="none" opacity="0.3">
      <path d="M8.5,0A8.5,8.5,0,1,1,0,8.5,8.5,8.5,0,0,1,8.5,0Z" stroke="none"/>
      <path d="M 8.5 3 C 5.467289924621582 3 3 5.467289924621582 3 8.5 C 3 11.53271007537842 5.467289924621582 14 8.5 14 C 11.53271007537842 14 14 11.53271007537842 14 8.5 C 14 5.467289924621582 11.53271007537842 3 8.5 3 M 8.5 0 C 13.19441986083984 0 17 3.805580139160156 17 8.5 C 17 13.19441986083984 13.19441986083984 17 8.5 17 C 3.805580139160156 17 0 13.19441986083984 0 8.5 C 0 3.805580139160156 3.805580139160156 0 8.5 0 Z" stroke="none" fill="#ffd300"/>
    </g>
    <g id="Path_17316" data-name="Path 17316" transform="translate(107 818)" fill="none" opacity="0.3">
      <path d="M8.5,0A8.5,8.5,0,1,1,0,8.5,8.5,8.5,0,0,1,8.5,0Z" stroke="none"/>
      <path d="M 8.5 3 C 5.467289924621582 3 3 5.467289924621582 3 8.5 C 3 11.53271007537842 5.467289924621582 14 8.5 14 C 11.53271007537842 14 14 11.53271007537842 14 8.5 C 14 5.467289924621582 11.53271007537842 3 8.5 3 M 8.5 0 C 13.19441986083984 0 17 3.805580139160156 17 8.5 C 17 13.19441986083984 13.19441986083984 17 8.5 17 C 3.805580139160156 17 0 13.19441986083984 0 8.5 C 0 3.805580139160156 3.805580139160156 0 8.5 0 Z" stroke="none" fill="#773ad7"/>
    </g>
    <path id="Path_17314" data-name="Path 17314" d="M18949.832,14457.1h17.736l-8.869,13.3Z" transform="translate(-18603 -13624)" fill="none" stroke="#4698d1" stroke-width="3" opacity="0.3"/>
    <path id="Path_17315" data-name="Path 17315" d="M18949.83,14457.1h22.117l-11.059,16.586Z" transform="matrix(-0.966, 0.259, -0.259, -0.966, 23606.566, 9348.473)" fill="none" stroke="#4698d1" stroke-width="3" opacity="0.3"/>
    <path id="Path_17317" data-name="Path 17317" d="M18949.83,14457.1h22.117l-11.059,16.586Z" transform="matrix(-0.966, 0.259, -0.259, -0.966, 23799.566, 9536.473)" fill="none" stroke="#773ad7" stroke-width="3" opacity="0.3"/>
    <g id="Rectangle_260" data-name="Rectangle 260" transform="translate(1705.105 668.515) rotate(-16)" fill="#fff" stroke="#ffd300" stroke-width="3" opacity="0.3">
      <rect width="16" height="16" rx="5" stroke="none"/>
      <rect x="1.5" y="1.5" width="13" height="13" rx="3.5" fill="none"/>
    </g>
    <g id="Group_2476" data-name="Group 2476" transform="translate(107.002 512.5)" opacity="0.1">
      <g id="Group_190" data-name="Group 190" transform="translate(0 0)">
        <path id="Path_326" data-name="Path 326" d="M-1270,1040.765a7.494,7.494,0,0,1,3.109.777h0l21.906,10.527a5.184,5.184,0,0,1,5.292-4.215h0l11.931.366a27.72,27.72,0,0,0,8.23-1.551,34.834,34.834,0,0,1,10.4-1.638c3.971,0,9.89,1.427,14.139,3.016v-4.167a1.108,1.108,0,0,1,1.107-1.107h12a1.107,1.107,0,0,1,1.107,1.107v32.939a1.107,1.107,0,0,1-1.107,1.108h-12a1.108,1.108,0,0,1-1.107-1.108v-3.755c-15.406-2.982-24.355,1.63-37.49,1.63h0c-2.246,0-5.109-1.234-8.619-3.054s-7.565-4.289-11.672-6.941c-8.214-5.3-16.643-11.354-21.073-14.355h0a4.8,4.8,0,0,1-2.117-3.423,5.422,5.422,0,0,1,.959-3.684,5.891,5.891,0,0,1,5.006-2.472Zm-.272,2.155a3.475,3.475,0,0,0-2.91,1.573,3.267,3.267,0,0,0-.585,2.172,2.459,2.459,0,0,0,1.158,1.842l0,0c4.494,3.044,12.883,9.068,21.032,14.329,4.076,2.631,8.09,5.069,11.491,6.835s6.293,2.8,7.6,2.8h0c12.488,0,21.778-4.6,37.49-1.668v-3.225a1.106,1.106,0,0,1,1.091-1.123,1.107,1.107,0,0,1,1.123,1.091v8.158h3.322v-30.725h-3.322v8.116a1.108,1.108,0,0,1-1.092,1.123,1.107,1.107,0,0,1-1.122-1.092v-2.715c-4-1.591-10.509-3.173-14.139-3.173a32.284,32.284,0,0,0-9.782,1.551,29.772,29.772,0,0,1-8.853,1.638h-.035l-11.956-.366h0a2.935,2.935,0,0,0-3.077,2.78,3.014,3.014,0,0,0,3.153,2.78h.006l22.742.974a1.108,1.108,0,0,1,1.077,1.138,1.108,1.108,0,0,1-1.136,1.077l-.036,0-22.736-.973h-.006a5.54,5.54,0,0,1-4.9-3.173,1.009,1.009,0,0,1-.112-.048l-23.063-11.083h0a5.541,5.541,0,0,0-2.422-.617Zm87.282,2.066h-4.251v30.725h4.251v-30.725Z" transform="translate(1276.001 -1010.768)" fill="#6f6d6c" stroke="#fff" stroke-width="0.05"/>
        <path id="Path_327" data-name="Path 327" d="M-1237.487,1026.173a1.107,1.107,0,0,1,1.091,1.123v6.389h6.389a1.108,1.108,0,0,1,1.123,1.091,1.108,1.108,0,0,1-1.092,1.123h-6.42v6.389a1.106,1.106,0,0,1-1.091,1.123,1.107,1.107,0,0,1-1.123-1.092v-6.42H-1245a1.106,1.106,0,0,1-1.123-1.092,1.107,1.107,0,0,1,1.091-1.123h6.421V1027.3a1.107,1.107,0,0,1,1.091-1.123Z" transform="translate(1279.205 -1012.333)" fill="#6f6d6c" stroke="#fff" stroke-width="0.05"/>
        <path id="Path_328" data-name="Path 328" d="M-1245.974,1013.673a1.108,1.108,0,0,1,1.091,1.123v3.222h3.222a1.109,1.109,0,0,1,1.123,1.092,1.108,1.108,0,0,1-1.092,1.123h-3.253v3.211a1.107,1.107,0,0,1-1.092,1.123,1.107,1.107,0,0,1-1.123-1.091v-3.243h-3.212a1.106,1.106,0,0,1-1.123-1.092,1.108,1.108,0,0,1,1.091-1.123h3.243V1014.8a1.107,1.107,0,0,1,1.091-1.123Z" transform="translate(1278.635 -1013.673)" fill="#6f6d6c" stroke="#fff" stroke-width="0.05"/>
        <path id="Path_329" data-name="Path 329" d="M-1229.615,1013.673a1.108,1.108,0,0,1,1.09,1.123v3.222h3.222a1.109,1.109,0,0,1,1.123,1.092,1.108,1.108,0,0,1-1.092,1.123h-3.254v3.211a1.107,1.107,0,0,1-1.091,1.123,1.107,1.107,0,0,1-1.123-1.091v-3.243h-3.211a1.106,1.106,0,0,1-1.123-1.092,1.108,1.108,0,0,1,1.091-1.123h3.243V1014.8a1.107,1.107,0,0,1,1.091-1.123Z" transform="translate(1280.39 -1013.673)" fill="#6f6d6c" stroke="#fff" stroke-width="0.05"/>
      </g>
    </g>
    <g id="Group_7" data-name="Group 7" transform="matrix(0.966, 0.259, -0.259, 0.966, 333.665, 194.727)" opacity="0.1">
      <path id="Path_16" data-name="Path 16" d="M274.562,42.6a32.758,32.758,0,0,0-65.516.005v.058a.787.787,0,0,0,1.445.43,12.091,12.091,0,0,1,20.016.036.789.789,0,0,0,1.289-.019,12.091,12.091,0,0,1,20.036.031.789.789,0,0,0,1.286-.038,12.092,12.092,0,0,1,20.017.015.786.786,0,0,0,1.429-.457Zm-44.324-6.743c-.12,1.4-.175,2.818-.166,4.229a13.572,13.572,0,0,0-9.586-3.926,13.749,13.749,0,0,0-9.72,4.06,31.073,31.073,0,0,1,29.268-28.7A44.609,44.609,0,0,0,230.238,35.852Zm11.636.3a13.689,13.689,0,0,0-10.163,4.527,43.612,43.612,0,0,1,.149-4.69,42.945,42.945,0,0,1,9.894-24A43.136,43.136,0,0,1,251.94,40.577,13.7,13.7,0,0,0,241.874,36.154Zm21.317,0a13.572,13.572,0,0,0-9.616,3.956,44.8,44.8,0,0,0-7.756-25.474q-1.092-1.606-2.326-3.124a31.074,31.074,0,0,1,29.343,28.626A13.566,13.566,0,0,0,263.191,36.154Z" transform="translate(-209.046 -9.84)" fill="#6f6d6c"/>
      <path id="Path_17" data-name="Path 17" d="M275.841,33.7a.789.789,0,0,0-.045.315.813.813,0,0,0,.08.309,27.3,27.3,0,0,1,1.389,3.455.809.809,0,0,0,.773.562.788.788,0,0,0,.251-.041.8.8,0,0,0,.473-.4.81.81,0,0,0,.049-.62,28.736,28.736,0,0,0-1.471-3.658.874.874,0,0,0-1.086-.38v0A.8.8,0,0,0,275.841,33.7Z" transform="translate(-218.434 -13.121)" fill="#6f6d6c"/>
      <path id="Path_18" data-name="Path 18" d="M260.637,17.42a.794.794,0,0,0-.287-.066c-.007,0-.013,0-.02,0a.765.765,0,0,0-.314.056.811.811,0,0,0-.468,1.048.81.81,0,0,0,.429.453,27.446,27.446,0,0,1,12.455,11.057.814.814,0,0,0,1.4-.837A29.092,29.092,0,0,0,260.637,17.42Z" transform="translate(-216.141 -10.896)" fill="#6f6d6c"/>
      <path id="Path_19" data-name="Path 19" d="M247.14,51.935V44.577a.813.813,0,0,0-1.627,0v7.189l-.052,0a4.838,4.838,0,0,0-.632,0l-.051,0V44.577a.813.813,0,0,0-1.627,0v7.358a11.562,11.562,0,0,0,0,22.782v5.834a.81.81,0,0,0-.655.8v4.409a1.1,1.1,0,1,1-2.192,0,.815.815,0,0,0-.813-.814h-3.75a.815.815,0,0,0-.814.814,6.473,6.473,0,0,0,12.946,0V81.348a.814.814,0,0,0-.734-.809V74.717a11.562,11.562,0,0,0,0-22.782Zm-.894,33.822a4.846,4.846,0,0,1-9.623.813h2.184a2.721,2.721,0,0,0,5.318-.813v-3.6h2.122Zm-1.468-5.4V74.885l.032,0a4.858,4.858,0,0,0,.671,0l.032,0v5.473Zm.367-7.083a9.95,9.95,0,1,1,9.95-9.95A9.96,9.96,0,0,1,245.145,73.275Z" transform="translate(-212.495 -14.611)" fill="#6f6d6c"/>
      <path id="Path_20" data-name="Path 20" d="M251.2,59.71a.812.812,0,0,0-.812-.811h-5.714l-.062-.007a.792.792,0,0,0-.112-.009h-2.447a.811.811,0,0,0-.811.805v.022a.812.812,0,0,0,.811.81h2.606a2.269,2.269,0,0,1,2.066,1.752h-4.672a.811.811,0,1,0,0,1.622h4.457a2.288,2.288,0,0,1-2.011,1.2h-2.454a.785.785,0,0,0-.582.245.8.8,0,0,0-.134.211l-.026.046a.748.748,0,0,0-.056.262l-.007.028v.053a.782.782,0,0,0,.243.553l6.045,5.825a.853.853,0,0,0,.562.218.9.9,0,0,0,.59-.261.831.831,0,0,0-.022-1.154l-4.584-4.405h.424a3.909,3.909,0,0,0,3.745-2.818h2.142a.811.811,0,1,0,0-1.622h-2.027a3.883,3.883,0,0,0-.7-1.752h2.725A.812.812,0,0,0,251.2,59.71Z" transform="translate(-213.575 -16.738)" fill="#6f6d6c"/>
    </g>
    <g id="Group_2477" data-name="Group 2477" transform="matrix(0.995, 0.105, -0.105, 0.995, 1543.407, 531.844)" opacity="0.1">
      <g id="Group_192" data-name="Group 192" transform="translate(0 0)">
        <path id="Path_333" data-name="Path 333" d="M-1096.344,1013.817a16.341,16.341,0,0,0-8.428-3.829l-1.016-.149,1-1.687c1.56-2.564,2.391-4.068,1.318-5.142-4.772-4.857-13-4.652-16.893-1.239l-.141.095a1.284,1.284,0,0,0-.319.224,1.133,1.133,0,0,0-.349.8,1.128,1.128,0,0,0,.351.8,12.926,12.926,0,0,0,8.536,3.3h1.658a1.214,1.214,0,0,0,1.059-1.244,1.137,1.137,0,0,0-1.151-1.059h-1.566a11.142,11.142,0,0,1-4.783-1.135l-1.345-.656,1.371-.6a11.927,11.927,0,0,1,11.269,1.712l.434.349-.249.5c-.185.368-.506.9-.818,1.421-.18.3-.354.586-.489.823-.557.905-1.036,1.695-1.37,2.393l-.17.354-.389.037c-.1.009-.192.015-.289.019s-.215.013-.322.026c-3.209.472-8.3-.244-10.724-2.067a4.587,4.587,0,0,0-6.247.452,4.353,4.353,0,0,0-1.032,3.092,4.251,4.251,0,0,0,1.7,3.216,9.667,9.667,0,0,0,.907.681l1.88,1.263h-3.155a4.434,4.434,0,0,0-4.375,4.375,4.31,4.31,0,0,0,.712,2.358l.32.49-.429.4a4.379,4.379,0,0,0-1.431,3.2,4.377,4.377,0,0,0,1.431,3.2l.429.4-.32.489a4.313,4.313,0,0,0-.712,2.358,4.413,4.413,0,0,0,2.185,3.765l.112.065.08.1a1.186,1.186,0,0,0,.1.117l.338.326-.18.434a4.227,4.227,0,0,0-.331,1.637,4.433,4.433,0,0,0,4.375,4.374h8.474a4.433,4.433,0,0,0,4.374-4.374,4.359,4.359,0,0,0-1.021-2.782l-.37-.442.37-.443a4.356,4.356,0,0,0,1.021-2.781,4.358,4.358,0,0,0-1.021-2.781l-.37-.443.37-.443a4.356,4.356,0,0,0,1.021-2.781,4.358,4.358,0,0,0-1.021-2.781l-.366-.437.84-1.027.618.43a12.657,12.657,0,0,0,8.542,3.77h1.105a1.1,1.1,0,0,0,.706-.411,1.188,1.188,0,0,0,.263-.861,1.157,1.157,0,0,0-1.275-1.032c-3.572.4-8.013-2.334-9.892-6.09a1.2,1.2,0,0,0-.129-.2,4.515,4.515,0,0,0-2.592-2.007,1.427,1.427,0,0,0-.211-.057,4.558,4.558,0,0,0-.632-.1,20.846,20.846,0,0,1-9.348-3.777,1.845,1.845,0,0,1-.883-1.628,2.54,2.54,0,0,1,.392-1.4,2.213,2.213,0,0,1,3.095-.18c2.952,2.237,8.732,3.063,12.4,2.55a14.263,14.263,0,0,1,11.233,3.3,13.925,13.925,0,0,1,4.75,10.651v1.105a14.946,14.946,0,0,1-7.364,12.768l-.557.33-.366-.535c-1.83-2.682-3.49-5.291-3.683-7.719a1.1,1.1,0,0,0-.357-.827,1.109,1.109,0,0,0-.826-.289,1.107,1.107,0,0,0-.835.357,1.089,1.089,0,0,0-.29.827c.258,3.089,2.143,6.059,4.395,9.343,2.908,4.315,6.2,9.2,6.2,15.863a1.189,1.189,0,0,0,.044.292l.026.1,0,.1a17.382,17.382,0,0,1-17.245,16.781,17.289,17.289,0,0,1-17.269-17.269,17.135,17.135,0,0,1,3.168-9.978,1.19,1.19,0,0,0-.281-1.6,1.217,1.217,0,0,0-.677-.2,1.126,1.126,0,0,0-.944.47,19.045,19.045,0,0,0-3.66,11.314,19.593,19.593,0,0,0,19.571,19.572,19.757,19.757,0,0,0,19.663-19.577,1.113,1.113,0,0,0-.071-.369l-.039-.211c-.155-5.7-2.492-10.143-4.759-13.733l-.382-.605.618-.36a17.134,17.134,0,0,0,8.5-14.74v-1.105A16.419,16.419,0,0,0-1096.344,1013.817Zm-18.978,28.539h-8.474a2.1,2.1,0,0,1-2.072-2.072,2.1,2.1,0,0,1,2.072-2.073h8.474a2.1,2.1,0,0,1,2.071,2.073A2.1,2.1,0,0,1-1115.323,1042.356Zm0-6.448H-1126.1a2.1,2.1,0,0,1-2.072-2.072,2.1,2.1,0,0,1,2.072-2.073h10.776a2.1,2.1,0,0,1,2.071,2.073A2.1,2.1,0,0,1-1115.323,1035.909Zm0-6.447h-11.606a2.1,2.1,0,0,1-2.072-2.072,2.1,2.1,0,0,1,2.072-2.072h11.606a2.1,2.1,0,0,1,2.071,2.072A2.1,2.1,0,0,1-1115.323,1029.462Zm.483-10.516.127.029a2.11,2.11,0,0,1,1.167.935l.117.223a2.042,2.042,0,0,1,.177.81,2.1,2.1,0,0,1-2.071,2.072H-1126.1a2.1,2.1,0,0,1-2.072-2.072,2.1,2.1,0,0,1,2.072-2.072l10.783.008C-1115.156,1018.9-1115,1018.925-1114.84,1018.946Z" transform="translate(1133.881 -999.277)" fill="#6f6d6c"/>
        <path id="Path_334" data-name="Path 334" d="M255.032,60.028a1.125,1.125,0,0,0-1.124-1.123H246l-.086-.009a1.1,1.1,0,0,0-.155-.013H242.37A1.123,1.123,0,0,0,241.247,60v.031a1.124,1.124,0,0,0,1.123,1.122h3.608a3.141,3.141,0,0,1,2.86,2.426H242.37a1.123,1.123,0,1,0,0,2.245h6.171a3.167,3.167,0,0,1-2.784,1.657h-3.4a1.086,1.086,0,0,0-.805.339,1.114,1.114,0,0,0-.186.291l-.036.063a1.034,1.034,0,0,0-.077.363l-.009.039v.074a1.082,1.082,0,0,0,.337.766l8.369,8.064a1.181,1.181,0,0,0,.778.3,1.246,1.246,0,0,0,.817-.362,1.151,1.151,0,0,0-.031-1.6l-6.347-6.1h.587a5.412,5.412,0,0,0,5.185-3.9h2.966a1.123,1.123,0,1,0,0-2.245H251.1a5.377,5.377,0,0,0-.967-2.426h3.773A1.124,1.124,0,0,0,255.032,60.028Z" transform="translate(-229.177 -8.408)" fill="#6f6d6c"/>
      </g>
    </g>
    <g id="Group_2478" data-name="Group 2478" transform="matrix(0.951, 0.309, -0.309, 0.951, 1716.125, 199.308)" opacity="0.1">
      <g id="Group_194" data-name="Group 194" transform="translate(0 0)">
        <path id="Path_335" data-name="Path 335" d="M-1057.064,943.521a33.378,33.378,0,0,1,4.2-1.274,1.191,1.191,0,0,0,.756-.534,1.2,1.2,0,0,0,.161-.914,1.2,1.2,0,0,0-.532-.755,1.215,1.215,0,0,0-.649-.188,1.2,1.2,0,0,0-.265.03,39.5,39.5,0,0,0-4.528,1.345,1.215,1.215,0,0,0-.693,1.565A1.218,1.218,0,0,0-1057.064,943.521Z" transform="translate(1085.171 -927.43)" fill="#6f6d6c"/>
        <path id="Path_336" data-name="Path 336" d="M-1012.963,964.224c-.14-.774-.295-1.481-.458-2.106a1.194,1.194,0,0,0-.572-.742,1.119,1.119,0,0,0-.88-.1,1.193,1.193,0,0,0-.757.576,1.119,1.119,0,0,0-.1.881c.15.6.316,1.258.414,1.9a24.658,24.658,0,0,1-6.456,21.406,4.294,4.294,0,0,0-1.145,2l-3.532,12.239h-8.578l-.991-3.93a1.235,1.235,0,0,0-1.152-.916l-19.48-.062a1.212,1.212,0,0,0-1.184.919l-1.054,4.02h-8.545l-2.324-8.15a4.785,4.785,0,0,0-2.641-3.05,66.833,66.833,0,0,1-12.4-7.3,1.875,1.875,0,0,1-.721-1.475l.032-15,2.588-.035a1.214,1.214,0,0,0,.937-.481l7.841-10.4c.415-.6.205-1.17-.161-1.97a10.022,10.022,0,0,1-.5-1.066c-.353-.812-.646-1.445-.945-2.042-.548-1.152-1.189-2.415-1.909-3.756a1.758,1.758,0,0,0-.1-.167c-.044-.071-.087-.142-.122-.213l-.43-.863h.64a5.363,5.363,0,0,1,.741-.031h.123a15.089,15.089,0,0,1,5.3.822c.487.183,1.32.57,1.633.722h.062l.086.074c.241.133,2.318,1.326,2.814,1.689a16.421,16.421,0,0,1,4.919,5.9,1.208,1.208,0,0,0,1.617.554,1.209,1.209,0,0,0,.551-1.615,19.185,19.185,0,0,0-5.61-6.759,33.854,33.854,0,0,0-3.042-1.855,8.561,8.561,0,0,0-2.17-.965,17.954,17.954,0,0,0-5.944-.971c-.456-.008-.816,0-1.208.03a2.392,2.392,0,0,0-.453.026l-.355.044-.113-.006-.04.019-.107,0a2.436,2.436,0,0,0-1.762,1.5,2.563,2.563,0,0,0,.2,1.835,10.049,10.049,0,0,0,.5,1.008l.022.023.045.112a.941.941,0,0,1,.131.224c.656,1.222,1.263,2.438,1.852,3.613.325.68.641,1.345.922,2.032.058.13.12.277.181.424s.122.292.184.43l.17.169-7.13,9.477-3.16.064a1.205,1.205,0,0,0-1.18,1.2l-.031,16.208a4.2,4.2,0,0,0,1.681,3.4,68.288,68.288,0,0,0,12.878,7.59,2.45,2.45,0,0,1,1.3,1.515l2.561,9.013a1.178,1.178,0,0,0,1.156.864h10.343a1.208,1.208,0,0,0,1.182-.92l1.055-4.021,17.628.064,1.024,3.927a1.237,1.237,0,0,0,1.183.919h10.342a1.219,1.219,0,0,0,1.154-.865l3.8-13.152a1.922,1.922,0,0,1,.518-.918A26.969,26.969,0,0,0-1012.963,964.224Z" transform="translate(1087.891 -927.621)" fill="#6f6d6c"/>
        <path id="Path_337" data-name="Path 337" d="M-1068.169,972.568a4.852,4.852,0,0,0,4.847-4.845,4.852,4.852,0,0,0-4.847-4.846,4.852,4.852,0,0,0-4.846,4.846A4.852,4.852,0,0,0-1068.169,972.568Zm0-7.286a2.473,2.473,0,0,1,2.44,2.44,2.472,2.472,0,0,1-2.44,2.439,2.471,2.471,0,0,1-2.438-2.439A2.472,2.472,0,0,1-1068.169,965.282Z" transform="translate(1086.505 -929.575)" fill="#6f6d6c"/>
        <path id="Path_339" data-name="Path 339" d="M-1028.8,963.993h.186a18.8,18.8,0,0,0,18.769-18.772,18.936,18.936,0,0,0-5.763-13.769,18.779,18.779,0,0,0-13.182-5.3c-.306,0-.613.008-.92.022a18.991,18.991,0,0,0-18.014,18.652,18.96,18.96,0,0,0,5.581,13.705A18.816,18.816,0,0,0-1028.8,963.993Zm-.788-35.441a16.509,16.509,0,0,1,12.322,4.6,16.294,16.294,0,0,1,5.014,12.011,16.455,16.455,0,0,1-16.39,16.389h-.158a16.42,16.42,0,0,1-11.63-4.76,16.527,16.527,0,0,1-4.886-11.975A16.635,16.635,0,0,1-1029.586,928.552Z" transform="translate(1084.149 -926.154)" fill="#6f6d6c"/>
        <path id="Path_340" data-name="Path 340" d="M254.488,59.983a1.08,1.08,0,0,0-1.08-1.079h-7.6l-.082-.009a1.053,1.053,0,0,0-.149-.013h-3.254a1.078,1.078,0,0,0-1.079,1.071v.03a1.08,1.08,0,0,0,1.079,1.078h3.466a3.017,3.017,0,0,1,2.747,2.33h-6.213a1.078,1.078,0,1,0,0,2.156h5.928a3.042,3.042,0,0,1-2.674,1.592h-3.263a1.043,1.043,0,0,0-.773.326,1.07,1.07,0,0,0-.178.28l-.034.061a.99.99,0,0,0-.074.349l-.009.038v.071a1.04,1.04,0,0,0,.323.736l8.038,7.746a1.135,1.135,0,0,0,.747.29,1.2,1.2,0,0,0,.785-.347,1.106,1.106,0,0,0-.03-1.535l-6.1-5.858h.563a5.2,5.2,0,0,0,4.98-3.747h2.849a1.078,1.078,0,1,0,0-2.156h-2.695a5.166,5.166,0,0,0-.929-2.33h3.624A1.08,1.08,0,0,0,254.488,59.983Z" transform="translate(-192.454 -47.655)" fill="#6f6d6c"/>
      </g>
    </g>
    <g id="Group_2474" data-name="Group 2474" transform="translate(202.876 845.56) rotate(-19)">
      <g id="Group_5" data-name="Group 5" transform="translate(0 0)">
        <path id="Path_6" data-name="Path 6" d="M433.508,489.884V442.332a.861.861,0,0,0-.862-.862H418.287a.861.861,0,0,0-.862.862v47.552h-3.943V457.516a.861.861,0,0,0-.861-.862H398.262a.861.861,0,0,0-.862.862v32.368h-3.943V468.677a.861.861,0,0,0-.862-.861H378.237a.861.861,0,0,0-.862.861v21.207H362.689v6.4h84.034v-6.4Zm-14.359-46.692h12.636v46.692H419.148Zm-20.025,15.185H411.76v31.506H399.124ZM379.1,469.538h12.635v20.346H379.1Zm66.252,25.37H364.06v-3.653h81.29Z" transform="translate(-360.143 -421.768)" fill="rgba(111,109,108,0.1)" stroke="rgba(111,109,108,0.2)" stroke-width="0.15"/>
        <path id="Path_7" data-name="Path 7" d="M383.161,456.622a.826.826,0,0,0,.776-.146l36.772-29.863,1.839,2.908a.829.829,0,0,0,.7.386l.06,0a.831.831,0,0,0,.7-.489l3.515-7.838a.83.83,0,0,0-.823-1.168l-8.067.645a.83.83,0,0,0-.636,1.271l1.817,2.873L383.24,454.9l-12.782-4.1a.831.831,0,0,0-.69.085l-9.406,5.814a.831.831,0,0,0,.438,1.537.822.822,0,0,0,.435-.124l9.081-5.612Zm42.274-34.444-2.31,5.149-2.989-4.726Z" transform="translate(-359.967 -420.409)" fill="rgba(111,109,108,0.1)" stroke="rgba(111,109,108,0.2)" stroke-width="0.15"/>
        <path id="Path_8" data-name="Path 8" d="M434.193,445.334h-3.553a.646.646,0,1,0,0,1.292h2.907v2.369a.646.646,0,0,0,1.292,0v-3.015A.645.645,0,0,0,434.193,445.334Z" transform="translate(-364.486 -422.017)" fill="rgba(111,109,108,0.1)" stroke="rgba(111,109,108,0.2)" stroke-width="0.15"/>
        <path id="Path_9" data-name="Path 9" d="M391.85,486.31a.646.646,0,0,0-.646.646v3.015a.646.646,0,0,0,1.292,0v-3.015A.646.646,0,0,0,391.85,486.31Z" transform="translate(-361.983 -424.661)" fill="rgba(111,109,108,0.1)" stroke="rgba(111,109,108,0.2)" stroke-width="0.15"/>
        <path id="Path_10" data-name="Path 10" d="M412.9,461.1h-3.553a.646.646,0,1,0,0,1.292H412.9a.646.646,0,0,0,0-1.292Z" transform="translate(-363.112 -423.035)" fill="rgba(111,109,108,0.1)" stroke="rgba(111,109,108,0.2)" stroke-width="0.15"/>
      </g>
    </g>
    <g id="Group_2479" data-name="Group 2479" transform="translate(1685.013 837.486) rotate(-20)">
      <ellipse id="Ellipse_30" data-name="Ellipse 30" cx="21.729" cy="21.731" rx="21.729" ry="21.731" transform="translate(6.18 0)" fill="none" stroke="rgba(111,109,108,0.1)" stroke-miterlimit="10" stroke-width="2.5"/>
      <path id="Path_44" data-name="Path 44" d="M-712.769,1019.361a42.625,42.625,0,0,0-27.9-10.361,42.629,42.629,0,0,0-27.9,10.361" transform="translate(768.575 -950.881)" fill="none" stroke="rgba(111,109,108,0.1)" stroke-linecap="round" stroke-linejoin="round" stroke-width="2.5"/>
    </g>
  </g>
</svg>
