<svg id="Group_224" data-name="Group 224" xmlns="http://www.w3.org/2000/svg" width="25.837" height="28.529" viewBox="0 0 25.837 28.529">
  <g id="noun_Call_Back_399349" data-name="noun_Call Back_399349" transform="translate(0 0)">
    <path id="Path_345" data-name="Path 345" d="M47.84,43.495l-2.435-2.622a.721.721,0,0,0-1.018-.038l-.946.879a2.216,2.216,0,0,0-.246-.4s-2.253-2.278-2.905-3.115-2.315-3.576-2.315-3.576a2.177,2.177,0,0,0-.144-.166.716.716,0,0,0,.443-.106l1.114-.7a.721.721,0,0,0,.226-.993l-1.907-3.028a.719.719,0,0,0-.992-.226l-1.115.7a.707.707,0,0,0-.215.212l-.458.332c-.858.622-.956,1.475-.6,2.653a23.471,23.471,0,0,0,3.191,5.831,29.274,29.274,0,0,0,5.807,6.371c1.006.754,1.822,1.05,2.681.427l.481-.349a.719.719,0,0,0,.346-.175l.965-.9A.722.722,0,0,0,47.84,43.495Z" transform="translate(-27.658 -22.114)" fill="#f9f9f9"/>
    <g id="Group_218" data-name="Group 218" transform="translate(0 0)">
      <path id="Path_346" data-name="Path 346" d="M31.055,38.765h-.013a11.545,11.545,0,0,1-.55-23.074l-.015,2.674L34.3,15.009l-3.787-3.4L30.5,14.319a12.853,12.853,0,0,0-7.339,2.723.619.619,0,0,0-.131.1s-.008.01-.013.015a13.056,13.056,0,0,0-1.919,1.9.691.691,0,0,0-.082.083.7.7,0,0,0-.076.117A12.925,12.925,0,0,0,19.5,21.543c-.008.014-.018.026-.026.041s-.009.028-.015.042a12.808,12.808,0,0,0-.936,2.658c0,.009-.007.018-.009.028s0,.018,0,.027a12.906,12.906,0,0,0-.328,2.819s0,.006,0,.009a.1.1,0,0,0,0,.015c0,.008,0,.015,0,.023a12.967,12.967,0,0,0,.3,2.786c0,.022,0,.044.008.066a.555.555,0,0,0,.024.073,12.788,12.788,0,0,0,.9,2.606c.006.017.01.034.018.051s.017.024.025.037a12.938,12.938,0,0,0,1.455,2.332.67.67,0,0,0,.054.084.616.616,0,0,0,.054.054,13.067,13.067,0,0,0,1.9,1.922.71.71,0,0,0,.077.076.666.666,0,0,0,.107.07,12.941,12.941,0,0,0,2.3,1.453.436.436,0,0,0,.038.024c.012.006.025.008.037.013a12.815,12.815,0,0,0,2.66.941c.011,0,.021.008.032.011l.026,0a12.865,12.865,0,0,0,2.832.331h.016a.683.683,0,0,0,.687-.683A.691.691,0,0,0,31.055,38.765Z" transform="translate(-18.179 -11.608)" fill="#f9f9f9"/>
      <path id="Path_347" data-name="Path 347" d="M72.148,29.912a.688.688,0,1,0,.971,0A.714.714,0,0,0,72.148,29.912Z" transform="translate(-50.12 -22.368)" fill="#f9f9f9"/>
      <path id="Path_348" data-name="Path 348" d="M76.208,36.8a.716.716,0,0,0,.3-.069.683.683,0,1,0-.3.069Z" transform="translate(-52.241 -25.757)" fill="#f9f9f9"/>
      <path id="Path_349" data-name="Path 349" d="M77.732,42.639a.688.688,0,0,0,.668.535.567.567,0,0,0,.151-.017.685.685,0,1,0-.82-.518Z" transform="translate(-53.545 -29.545)" fill="#f9f9f9"/>
      <path id="Path_350" data-name="Path 350" d="M55.44,77.793a.688.688,0,0,0,.149,1.359.741.741,0,0,0,.151-.017.687.687,0,1,0-.3-1.342Z" transform="translate(-39.995 -50.914)" fill="#f9f9f9"/>
      <path id="Path_351" data-name="Path 351" d="M61.668,75.646a.686.686,0,0,0,.59,1.238.686.686,0,1,0-.59-1.238Z" transform="translate(-43.781 -49.608)" fill="#f9f9f9"/>
      <path id="Path_352" data-name="Path 352" d="M76.39,61.635a.686.686,0,1,0,.318.916A.686.686,0,0,0,76.39,61.635Z" transform="translate(-52.172 -41.284)" fill="#f9f9f9"/>
      <path id="Path_353" data-name="Path 353" d="M78.494,55.228a.686.686,0,1,0-.309,1.338.8.8,0,0,0,.155.017.686.686,0,0,0,.154-1.355Z" transform="translate(-53.507 -37.509)" fill="#f9f9f9"/>
      <path id="Path_354" data-name="Path 354" d="M67.261,72.157a.685.685,0,1,0,.963.11A.686.686,0,0,0,67.261,72.157Z" transform="translate(-47.181 -47.487)" fill="#f9f9f9"/>
      <path id="Path_355" data-name="Path 355" d="M79.13,48.511a.686.686,0,1,0-.007,1.372h0a.686.686,0,0,0,0-1.372Z" transform="translate(-53.976 -33.529)" fill="#f9f9f9"/>
      <path id="Path_356" data-name="Path 356" d="M72.91,67.412a.687.687,0,0,0-.862,1.071.7.7,0,0,0,.429.151.687.687,0,0,0,.433-1.222Z" transform="translate(-50.027 -44.667)" fill="#f9f9f9"/>
    </g>
  </g>
</svg>
