<svg xmlns="http://www.w3.org/2000/svg" width="27.3" height="27.3" viewBox="0 0 27.3 27.3">
  <g id="noun_whatsapp_988425" transform="translate(-6.85 -6.85)">
    <g id="Group_230" data-name="Group 230" transform="translate(7 7)">
      <path id="Path_357" data-name="Path 357" d="M27.234,976.374l-.039.01a4.419,4.419,0,0,0-2.737,2.031,4.623,4.623,0,0,0-.343,3.12,14.672,14.672,0,0,0,4.072,6.828,14.393,14.393,0,0,0,6.76,4.2,4.682,4.682,0,0,0,3.169-.324,4.762,4.762,0,0,0,2.188-2.777.314.314,0,0,0-.128-.363l-4.493-2.816-.029-.02-.02-.019h-.01l-.02-.01h-.01a.314.314,0,0,0-.049-.029H35.5a.183.183,0,0,0-.118,0,.315.315,0,0,0-.147.069l-.01.019a.314.314,0,0,0-.049.059L34.023,987.5a11.381,11.381,0,0,1-4.827-4.847l1.069-1.069.049-.049.02-.019h.01l.01-.019.01-.01.01-.019s0-.007,0-.01l.01-.01.01-.019.01-.01c0-.006,0-.013,0-.019s0-.013,0-.019l.01-.01q0-.01,0-.019s0-.007,0-.01,0-.013,0-.019,0-.007,0-.01,0-.013,0-.02,0-.006,0-.01,0-.013,0-.019,0-.006,0-.01l-.01-.019s0-.007,0-.01l-.01-.019s0-.006,0-.01l-.02-.02s0-.006,0-.01l-.01-.01a.313.313,0,0,0-.039-.059l-.01-.01-2.757-4.562a.356.356,0,0,0-.324-.147Zm-.078.687L29.7,981.27l-1.118,1.109a.314.314,0,0,0-.049.383,12.063,12.063,0,0,0,5.435,5.406.314.314,0,0,0,.343-.069l1.187-1.187,4.13,2.58a3.977,3.977,0,0,1-1.8,2.2,4.069,4.069,0,0,1-2.757.265,13.994,13.994,0,0,1-6.446-4.032,14.194,14.194,0,0,1-3.895-6.5,3.99,3.99,0,0,1,.285-2.7,3.642,3.642,0,0,1,2.139-1.658Z" transform="translate(-18.66 -971.033)" fill="#fff" stroke="#fff" stroke-width="0.3" fill-rule="evenodd"/>
      <path id="Path_358" data-name="Path 358" d="M20.5,959.362a13.5,13.5,0,0,0-11.2,21.03l-1.587,5.3a.314.314,0,0,0,.4.387l5.188-1.79a13.5,13.5,0,1,0,7.2-24.922Zm0,.628a12.872,12.872,0,1,1-6.987,23.685.314.314,0,0,0-.273-.033l-4.752,1.64,1.454-4.851a.314.314,0,0,0-.041-.267A12.871,12.871,0,0,1,20.5,959.99Z" transform="translate(-7 -959.362)" fill="#fff" stroke="#fff" stroke-width="0.3" fill-rule="evenodd"/>
    </g>
  </g>
</svg>
